<svg xmlns="http://www.w3.org/2000/svg" viewBox="0 0 20 20" width="20" height="20"><defs><clipPath clipPathUnits="userSpaceOnUse" id="cp1"><path d="M1 0h19v19H1z"/></clipPath></defs><style/><g id="Page 1 copy" clip-path="url(#cp1)"><path id="Path 1 copy" d="M19.8 1.44v-.01c-.02-.05-.03-.1-.05-.15v-.02c-.02-.05-.04-.1-.07-.14 0-.01-.01-.01-.01-.02-.03-.05-.05-.1-.09-.15V.94a1.72 1.72 0 0 0-.52-.52h-.01L18.9.33c-.01 0-.01-.01-.02-.01a.914.914 0 0 0-.14-.07c-.01 0-.01 0-.02-.01-.05-.02-.1-.04-.15-.05h-.01c-.05-.01-.1-.03-.16-.04-.11-.02-.23-.03-.35-.03H2.84C1.83.12 1 .94 1 1.96c0 1.01.82 1.84 1.84 1.84h10.78l-7.63 7.62a1.84 1.84 0 0 0 0 2.59 1.833 1.833 0 0 0 2.6 0l7.62-7.62v10.78c0 1.01.82 1.83 1.83 1.83 1.01 0 1.84-.82 1.84-1.83V1.96c0-.18-.03-.35-.08-.52z" fill="#fff"/></g></svg>