<svg xmlns="http://www.w3.org/2000/svg" viewBox="0 0 492 492" width="492" height="492"><defs><clipPath clipPathUnits="userSpaceOnUse" id="cp1"><path d="M0 0h492v492H0z"/></clipPath><linearGradient id="grd1" gradientUnits="userSpaceOnUse" x1="58.679" y1="318.753" x2="314.472" y2="318.753"><stop offset="0" stop-color="#b53900"/><stop offset="1" stop-color="#dd5000"/></linearGradient><linearGradient id="grd2" gradientUnits="userSpaceOnUse" x1="225.509" y1="220.652" x2="313.336" y2="220.652"><stop offset="0" stop-color="#b53900"/><stop offset="1" stop-color="#dd5000"/></linearGradient><linearGradient id="grd3" gradientUnits="userSpaceOnUse" x1="213.793" y1="210.516" x2="342.474" y2="210.516"><stop offset="0" stop-color="#b53900"/><stop offset="1" stop-color="#dd5000"/></linearGradient><linearGradient id="grd4" gradientUnits="userSpaceOnUse" x1="311.25" y1="90.375" x2="492" y2="90.375"><stop offset="0" stop-color="#b53900"/><stop offset="1" stop-color="#dd5000"/></linearGradient><linearGradient id="grd5" gradientUnits="userSpaceOnUse" x1="348.78" y1="90.178" x2="454.953" y2="90.178"><stop offset="0" stop-color="#b53900"/><stop offset="1" stop-color="#dd5000"/></linearGradient><linearGradient id="grd6" gradientUnits="userSpaceOnUse" x1="311.25" y1="401.625" x2="492" y2="401.625"><stop offset="0" stop-color="#b53900"/><stop offset="1" stop-color="#dd5000"/></linearGradient><linearGradient id="grd7" gradientUnits="userSpaceOnUse" x1="380.426" y1="401.473" x2="441.574" y2="401.473"><stop offset="0" stop-color="#b53900"/><stop offset="1" stop-color="#dd5000"/></linearGradient><linearGradient id="grd8" gradientUnits="userSpaceOnUse" x1="0" y1="90.375" x2="180.75" y2="90.375"><stop offset="0" stop-color="#b53900"/><stop offset="1" stop-color="#dd5000"/></linearGradient><linearGradient id="grd9" gradientUnits="userSpaceOnUse" x1="37.5" y1="90.375" x2="143.25" y2="90.375"><stop offset="0" stop-color="#b53900"/><stop offset="1" stop-color="#dd5000"/></linearGradient></defs><style/><g id="Page 1" clip-path="url(#cp1)"><path id="Path 1" d="M159.89 164.84c1.57 0 3.11.62 4.24 1.76l43.52 43.51c17.62-12.78 41.92-10.86 57.32 4.53 15.39 15.4 17.32 39.7 4.53 57.32l43.52 43.51a5.98 5.98 0 0 1 1.61 5.54c-.45 2-1.88 3.64-3.81 4.34l-98.51 35.82a235.871 235.871 0 0 0-46.05 22.74l24.94 24.94c17.27 17.3 17.27 45.32 0 62.62-2.34 2.34-6.14 2.34-8.49 0l-55.98-55.98c-.16.16-.34.33-.5.49-9.82 9.82-25.74 9.82-35.55 0l-27.07-27.07c-9.82-9.82-9.82-25.74 0-35.56a237.222 237.222 0 0 0 54.82-86.07l35.82-98.51c.7-1.93 2.34-3.36 4.34-3.81.43-.1.87-.14 1.3-.14zm-18.14 221.65a249.174 249.174 0 0 1 66.45-36.59l89.66-32.6L162.3 181.75l-32.6 89.66a249.353 249.353 0 0 1-36.58 66.46zm119.11-123.16c8.15-12.77 6.33-29.49-4.38-40.2-10.72-10.69-27.42-12.51-40.19-4.38zM108.41 411.36h.05c3.49.01 6.83-1.37 9.29-3.85 4.68-4.67 9.55-9.16 14.6-13.45l-46.81-46.8c-4.29 5.06-8.78 9.93-13.45 14.61-5.13 5.13-5.13 13.45 0 18.58l27.07 27.07c2.45 2.46 5.77 3.85 9.25 3.85zm78.16 47.01c8.73-12.82 7.12-30.05-3.85-41.02l-26.59-26.59a236.018 236.018 0 0 0-20.66 16.51z" fill="url(#grd1)"/><path id="Path 2" d="M228.51 179.13a6.001 6.001 0 0 0-3.32 7.81 5.996 5.996 0 0 0 7.81 3.32c19.78-7.97 42.41-3.36 57.49 11.73 15.08 15.08 19.7 37.71 11.73 57.49a5.99 5.99 0 0 0 3.32 7.8 6.005 6.005 0 0 0 7.81-3.32c9.8-24.24 4.14-51.99-14.37-70.46a65.075 65.075 0 0 0-70.46-14.38z" fill="url(#grd2)"/><path id="Path 3" d="M217.36 149.93c-2 .79-3.43 2.59-3.74 4.73-.31 2.13.55 4.27 2.25 5.59a6.01 6.01 0 0 0 5.97.82c31.31-12.62 67.14-5.32 91.01 18.56 23.87 23.87 31.18 59.69 18.56 91.01a5.998 5.998 0 1 0 11.13 4.48c14.41-35.78 6.07-76.7-21.21-103.98-18.39-18.4-43-28.18-68.04-28.18a96.08 96.08 0 0 0-35.93 6.97z" fill="url(#grd3)"/><path id="Path 4" d="M401.62 0c49.89.05 90.32 40.48 90.38 90.37 0 49.91-40.46 90.37-90.38 90.37-49.91 0-90.37-40.46-90.37-90.37C311.25 40.46 351.71 0 401.62 0zm0 168.75c43.27-.05 78.32-35.11 78.38-78.38 0-43.29-35.09-78.38-78.38-78.38-43.29 0-78.38 35.09-78.38 78.38 0 43.29 35.09 78.38 78.38 78.38z" fill="url(#grd4)"/><path id="Path 5" d="M434.09 35h.07c12.38.04 22.39 10.09 22.37 22.47-.02 12.38-10.06 22.4-22.44 22.4a22.43 22.43 0 0 1-19.06-10.62L390.5 83.42a22.47 22.47 0 0 1-.24 14.62l23.91 14.98c5.11-9.9 16.71-14.56 27.25-10.93 10.54 3.62 16.82 14.42 14.77 25.38-2.05 10.95-11.83 18.74-22.96 18.29-11.13-.45-20.26-8.99-21.43-20.07l-28.53-17.87c-9.23 7.47-22.69 6.45-30.69-2.33-8-8.78-7.78-22.27.52-30.78 8.29-8.5 21.78-9.07 30.75-1.3l27.83-16.07C411.73 44.98 421.76 35 434.11 35zm0 32.88c5.76 0 10.43-4.67 10.43-10.44 0-5.76-4.67-10.44-10.44-10.43-5.76 0-10.43 4.67-10.43 10.43 0 5.77 4.67 10.44 10.44 10.44zm-64.93 32.93c5.76-.01 10.43-4.68 10.44-10.44 0-5.77-4.68-10.44-10.44-10.44-5.77 0-10.44 4.67-10.44 10.44s4.67 10.44 10.44 10.44zm64.93 32.94c5.77 0 10.44-4.68 10.44-10.44 0-5.77-4.67-10.44-10.44-10.44-5.76.01-10.43 4.68-10.43 10.44s4.67 10.44 10.43 10.44z" fill="url(#grd5)"/><path id="Path 6" d="M401.62 311.25c49.89.05 90.32 40.48 90.38 90.38 0 49.91-40.46 90.37-90.38 90.37-49.91 0-90.37-40.46-90.37-90.37 0-49.91 40.46-90.38 90.37-90.38zm0 168.75c43.27-.05 78.32-35.11 78.38-78.37 0-43.29-35.09-78.38-78.38-78.38-43.29 0-78.38 35.09-78.38 78.38 0 43.28 35.09 78.37 78.38 78.37z" fill="url(#grd6)"/><path id="Path 7" d="M386.43 365.22c1.1 0 2.19.3 3.16.9l49.15 30.4v-.01a5.997 5.997 0 0 1 0 10.21l-49.15 30.4a6.015 6.015 0 0 1-6.08.14 5.997 5.997 0 0 1-3.08-5.24v-60.8c0-2.18 1.18-4.18 3.08-5.24.91-.51 1.92-.76 2.92-.76zm6 56.04l31.74-19.63L392.43 382z" fill="url(#grd7)"/><path id="Path 8" d="M90.37 0c49.91 0 90.37 40.46 90.37 90.37 0 49.91-40.46 90.37-90.37 90.37C40.48 180.69.05 140.26 0 90.37 0 40.46 40.46 0 90.37 0zm0 168.75c43.29 0 78.38-35.09 78.38-78.38 0-43.29-35.09-78.38-78.38-78.38-43.27.05-78.32 35.11-78.38 78.38 0 43.29 35.09 78.38 78.38 78.38z" fill="url(#grd8)"/><path id="Path 9" d="M96.44 54.49c8.83.01 15.99 7.17 16 16v.96l21.93-12.04a5.995 5.995 0 0 1 5.94.1 6.01 6.01 0 0 1 2.95 5.16v51.4a5.99 5.99 0 0 1-2.95 5.16 5.995 5.995 0 0 1-5.94.1l-21.93-12.03v.95c-.01 8.83-7.17 15.99-16 16H53.5c-8.83-.01-15.99-7.17-16-16V70.48c.01-8.83 7.17-15.99 16-16zM53.5 114.26h42.94c2.21 0 4-1.79 4-4V70.49c0-2.21-1.79-4-4-4H53.5c-2.21 0-4 1.79-4 4v39.77c0 2.21 1.79 4 4 4zm77.75-8.32V74.81l-18.81 10.33v10.48z" fill="url(#grd9)"/></g></svg>