<svg xmlns="http://www.w3.org/2000/svg" xmlns:xlink="http://www.w3.org/1999/xlink" width="795.846" height="799.559" viewBox="0 0 210.568 211.55" version="1.1" id="svg8"><defs id="defs2"><path d="M0 0v767.7c3.3-.8 50.1-11.6 95.2 3.1 46.8 15.3 76.3 25.2 111 25.2s74-11.9 112.3-27.4c38.3-15.5 96.5-4.6 99.5-1.6V0z" id="SVGID_41_"/><clipPath id="cp1" clipPathUnits="userSpaceOnUse"><path id="path561" d="M0 0h492v492H0z"/></clipPath><linearGradient y2="318.753" x2="314.472" y1="318.753" x1="58.679" gradientUnits="userSpaceOnUse" id="grd1"><stop id="stop564" stop-color="#b53900" offset="0"/><stop id="stop566" stop-color="#dd5000" offset="1"/></linearGradient><linearGradient y2="220.652" x2="313.336" y1="220.652" x1="225.509" gradientUnits="userSpaceOnUse" id="grd2"><stop id="stop569" stop-color="#b53900" offset="0"/><stop id="stop571" stop-color="#dd5000" offset="1"/></linearGradient><linearGradient y2="210.516" x2="342.474" y1="210.516" x1="213.793" gradientUnits="userSpaceOnUse" id="grd3"><stop id="stop574" stop-color="#b53900" offset="0"/><stop id="stop576" stop-color="#dd5000" offset="1"/></linearGradient><linearGradient y2="90.375" x2="492" y1="90.375" x1="311.25" gradientUnits="userSpaceOnUse" id="grd4"><stop id="stop579" stop-color="#b53900" offset="0"/><stop id="stop581" stop-color="#dd5000" offset="1"/></linearGradient><linearGradient y2="90.178" x2="454.953" y1="90.178" x1="348.78" gradientUnits="userSpaceOnUse" id="grd5"><stop id="stop584" stop-color="#b53900" offset="0"/><stop id="stop586" stop-color="#dd5000" offset="1"/></linearGradient><linearGradient y2="401.625" x2="492" y1="401.625" x1="311.25" gradientUnits="userSpaceOnUse" id="grd6"><stop id="stop589" stop-color="#b53900" offset="0"/><stop id="stop591" stop-color="#dd5000" offset="1"/></linearGradient><linearGradient y2="401.473" x2="441.574" y1="401.473" x1="380.426" gradientUnits="userSpaceOnUse" id="grd7"><stop id="stop594" stop-color="#b53900" offset="0"/><stop id="stop596" stop-color="#dd5000" offset="1"/></linearGradient><linearGradient y2="90.375" x2="180.75" y1="90.375" x1="0" gradientUnits="userSpaceOnUse" id="grd8"><stop id="stop599" stop-color="#b53900" offset="0"/><stop id="stop601" stop-color="#dd5000" offset="1"/></linearGradient><linearGradient y2="90.375" x2="143.25" y1="90.375" x1="37.5" gradientUnits="userSpaceOnUse" id="grd9"><stop id="stop604" stop-color="#b53900" offset="0"/><stop id="stop606" stop-color="#dd5000" offset="1"/></linearGradient></defs><g id="layer1" transform="translate(.032 2.58)"><g id="g248" transform="matrix(.50375 0 0 .34134 -21.593 -.634)"><g id="bg"><linearGradient y2="0" x2="208.985" y1="795.901" x1="208.985" gradientUnits="userSpaceOnUse" id="SVGID_1_" gradientTransform="matrix(1 0 0 .74621 42.8 -5.7)"><stop id="stop13" offset="0" stop-color="#bc3b0d"/><stop id="stop15" offset="1" stop-color="#e85419"/></linearGradient><path id="path18" d="M42.8-5.7v572.866c3.3-.597 42.222-31.356 87.322-20.387 46.8 11.417 84.178 41.505 118.878 41.505s70.892-26.66 109.192-38.226c38.3-11.566 99.608 14.347 102.608 16.586V-5.7z" fill="url(#SVGID_1_)" stroke-width=".864"/><g id="g154"><defs id="defs21"><path d="M0 0v767.7c3.3-.8 50.1-11.6 95.2 3.1 46.8 15.3 76.3 25.2 111 25.2s74-11.9 112.3-27.4c38.3-15.5 96.5-4.6 99.5-1.6V0z" id="path172"/></defs><clipPath id="SVGID_3_"><use id="use23" xlink:href="#SVGID_41_" x="0" y="0" width="100%" height="100%" overflow="visible"/></clipPath><g id="g152" clip-path="url(#SVGID_3_)"><linearGradient y2="633.414" x2="206.651" y1="826.987" x1="206.651" gradientUnits="userSpaceOnUse" id="SVGID_4_" gradientTransform="translate(23.4 -8.3)"><stop id="stop26" offset="0" stop-color="#61cbf7"/><stop id="stop28" offset="1" stop-color="#467ef7"/></linearGradient><path id="path57" d="M137.4 584.3c47.5-6.9 95.7-6.9 143.2 0 3.6.5 6 3.7 5.5 7-.9 5.9-1.9 11.7-2.8 17.6-.5 3.3-3.7 5.6-7 5.1-44.6-6.5-90-6.5-134.6 0-3.4.5-6.5-1.8-7-5.1-.9-5.9-1.9-11.7-2.8-17.6-.6-3.3 1.9-6.5 5.5-7z" fill="none"/><g id="g131"><linearGradient y2="600.554" x2="205.921" y1="643.021" x1="205.921" gradientUnits="userSpaceOnUse" id="SVGID_5_" gradientTransform="translate(42.8 -5.7)"><stop id="stop59" offset="0" stop-color="#4625c1"/><stop id="stop61" offset="1" stop-color="#467ef7"/></linearGradient><g id="g129"><g id="g73"><linearGradient y2="611.378" x2="148.144" y1="635.221" x1="148.144" gradientUnits="userSpaceOnUse" id="SVGID_6_" gradientTransform="translate(42.8 -5.7)"><stop id="stop66" offset="0" stop-color="#61cbf7"/><stop id="stop68" offset="1" stop-color="#467ef7"/></linearGradient></g><g id="g82"><linearGradient y2="608.694" x2="167.049" y1="632.669" x1="167.049" gradientUnits="userSpaceOnUse" id="SVGID_8_" gradientTransform="translate(42.8 -5.7)"><stop id="stop75" offset="0" stop-color="#61cbf7"/><stop id="stop77" offset="1" stop-color="#467ef7"/></linearGradient></g><g id="g91"><linearGradient y2="607.082" x2="186.041" y1="631.141" x1="186.041" gradientUnits="userSpaceOnUse" id="SVGID_9_" gradientTransform="translate(42.8 -5.7)"><stop id="stop84" offset="0" stop-color="#61cbf7"/><stop id="stop86" offset="1" stop-color="#467ef7"/></linearGradient></g><g id="g100"><linearGradient y2="606.544" x2="205.149" y1="630.63" x1="205.149" gradientUnits="userSpaceOnUse" id="SVGID_10_" gradientTransform="translate(42.8 -5.7)"><stop id="stop93" offset="0" stop-color="#61cbf7"/><stop id="stop95" offset="1" stop-color="#467ef7"/></linearGradient></g><g id="g109"><linearGradient y2="607.081" x2="224.258" y1="631.141" x1="224.258" gradientUnits="userSpaceOnUse" id="SVGID_11_" gradientTransform="translate(42.8 -5.7)"><stop id="stop102" offset="0" stop-color="#61cbf7"/><stop id="stop104" offset="1" stop-color="#467ef7"/></linearGradient></g><g id="g118"><linearGradient y2="608.692" x2="243.249" y1="632.671" x1="243.249" gradientUnits="userSpaceOnUse" id="SVGID_12_" gradientTransform="translate(42.8 -5.7)"><stop id="stop111" offset="0" stop-color="#61cbf7"/><stop id="stop113" offset="1" stop-color="#467ef7"/></linearGradient></g><g id="g127"><linearGradient y2="611.38" x2="262.154" y1="635.22" x1="262.154" gradientUnits="userSpaceOnUse" id="SVGID_14_" gradientTransform="translate(23.4 -8.3)"><stop id="stop120" offset="0" stop-color="#61cbf7"/><stop id="stop122" offset="1" stop-color="#467ef7"/></linearGradient></g></g></g><linearGradient y2="690.256" x2="206.911" y1="748.895" x1="206.911" gradientUnits="userSpaceOnUse" id="SVGID_15_" gradientTransform="translate(23.4 -8.3)"><stop id="stop133" offset="0" stop-color="#4625c1"/><stop id="stop135" offset="1" stop-color="#467ef7"/></linearGradient></g></g></g></g></g><style id="style10" type="text/css"/><style id="style611"/></svg>