<svg xmlns="http://www.w3.org/2000/svg" xmlns:xlink="http://www.w3.org/1999/xlink" viewBox="0 0 418 285"><style>.st4{fill:#fff}</style><g id="bg"><linearGradient id="SVGID_1_" gradientUnits="userSpaceOnUse" x1="209.015" y1="285" x2="209.015" y2="0"><stop offset="0" stop-color="#bc3b0d"/><stop offset="1" stop-color="#e85419"/></linearGradient><path d="M0 0v256.8c3.3-.8 50.1-11.6 95.2 3.1 46.8 15.3 76.3 25.2 111 25.2s74-11.9 112.3-27.4 96.6-4.5 99.6-1.5V0H0z" fill="url(#SVGID_1_)"/><defs><path id="SVGID_55_" d="M0 0v256.8c3.3-.8 50.1-11.6 95.2 3.1 46.8 15.3 76.3 25.2 111 25.2s74-11.9 112.3-27.4 96.6-4.5 99.6-1.5V0H0z"/></defs><clipPath id="SVGID_3_"><use xlink:href="#SVGID_55_" overflow="visible"/></clipPath><g opacity=".1" clip-path="url(#SVGID_3_)"><path class="st4" d="M123.3 184.3c1-.4 1.7-1.2 2-2.2.2-1-.1-2.1-.8-2.9L102 156.7c6.6-9.1 5.6-21.7-2.3-29.6-8-8-20.5-8.9-29.6-2.3l-22.5-22.5c-.7-.8-1.8-1.1-2.9-.8-1 .2-1.9 1-2.2 2L24 154.4c-6.1 16.7-15.8 31.9-28.3 44.5-5.1 5.1-5.1 13.3 0 18.4l14 14c5.1 5.1 13.3 5.1 18.4 0l.3-.3 28.9 28.9c1.2 1.2 3.2 1.2 4.4 0 8.9-8.9 8.9-23.4 0-32.3l-12.9-12.9c7.5-4.8 15.5-8.7 23.8-11.7l50.7-18.7zm-28.1-52.7c5.5 5.5 6.5 14.2 2.3 20.8l-23-23c6.5-4.3 15.2-3.4 20.7 2.2zm-76.5 97.2c-1.8 0-3.5-.7-4.8-2l-14-14c-2.7-2.6-2.7-6.9 0-9.6 2.4-2.4 4.7-4.9 6.9-7.5L31 219.9c-2.6 2.2-5.1 4.5-7.5 6.9-1.2 1.3-3 2-4.8 2zm38.4 3.1c5.7 5.7 6.5 14.6 2 21.2l-26.4-26.4c3.4-3 7-5.9 10.7-8.5l13.7 13.7zm-21.2-16l-25.1-25.1c8-10.4 14.4-22 18.9-34.3l16.8-46.3 70 70L70.3 197c-12.4 4.5-24 10.9-34.4 18.9zm0 0"/><path class="st4" d="M117.1 116.2c-9.5-9.6-23.9-12.5-36.4-7.4-1.6.6-2.4 2.4-1.7 4 .6 1.6 2.4 2.4 4 1.7 10.2-4.1 21.9-1.7 29.7 6.1 7.8 7.8 10.2 19.5 6.1 29.7-.6 1.6.1 3.4 1.7 4 1.6.6 3.4-.1 4-1.7 5.1-12.5 2.2-26.8-7.4-36.4zm0 0"/><path class="st4" d="M135.6 160.1c1.6.6 3.4-.1 4-1.7 7.4-18.5 3.1-39.6-11-53.7-14.1-14.1-35.2-18.4-53.7-11-1 .4-1.8 1.3-1.9 2.4-.2 1.1.3 2.2 1.2 2.9.9.7 2.1.8 3.1.4 16.2-6.5 34.7-2.7 47 9.6 12.3 12.3 16.1 30.8 9.6 47-.7 1.7.1 3.5 1.7 4.1zm34.6-143.8c-25.8 0-46.7 20.9-46.7 46.7s20.9 46.7 46.7 46.7 46.7-20.9 46.7-46.7c-.1-25.8-21-46.7-46.7-46.7zm0 87.2c-22.4 0-40.5-18.1-40.5-40.5s18.1-40.5 40.5-40.5 40.5 18.1 40.5 40.5c-.1 22.3-18.2 40.4-40.5 40.5zm0 0"/><path class="st4" d="M186.9 57.6c6.4 0 11.6-5.2 11.6-11.6 0-6.4-5.2-11.6-11.6-11.6-6.4 0-11.6 5.1-11.6 11.5L161 54.2c-4.6-4-11.6-3.7-15.9.7-4.3 4.4-4.4 11.4-.3 15.9 4.1 4.5 11.1 5.1 15.9 1.2l14.7 9.2c.6 5.7 5.3 10.1 11.1 10.4 5.8.2 10.8-3.8 11.9-9.4 1.1-5.7-2.2-11.2-7.6-13.1-5.4-1.9-11.4.5-14.1 5.6L164.4 67c.9-2.4.9-5.1.1-7.5l12.7-7.3c2 3.3 5.7 5.4 9.7 5.4zm0-17c3 0 5.4 2.4 5.4 5.4 0 3-2.4 5.4-5.4 5.4-3 0-5.4-2.4-5.4-5.4 0-3 2.4-5.4 5.4-5.4zm-33.5 27.8c-3 0-5.4-2.4-5.4-5.4 0-3 2.4-5.4 5.4-5.4 3 0 5.4 2.4 5.4 5.4 0 3-2.4 5.4-5.4 5.4zm33.5 6.2c3 0 5.4 2.4 5.4 5.4 0 3-2.4 5.4-5.4 5.4-3 0-5.4-2.4-5.4-5.4 0-3 2.4-5.4 5.4-5.4zm-16.7 102.5c-25.8 0-46.7 20.9-46.7 46.7s20.9 46.7 46.7 46.7 46.7-20.9 46.7-46.7c-.1-25.8-21-46.7-46.7-46.7zm0 87.1c-22.4 0-40.5-18.1-40.5-40.5s18.1-40.5 40.5-40.5 40.5 18.1 40.5 40.5c-.1 22.4-18.2 40.5-40.5 40.5zm0 0"/><path class="st4" d="M189.3 221.1l-25.4-15.7c-1-.6-2.2-.6-3.1-.1-1 .5-1.6 1.6-1.6 2.7v31.4c0 1.1.6 2.2 1.6 2.7s2.2.5 3.1-.1l25.4-15.7c.9-.6 1.5-1.6 1.5-2.6s-.6-2-1.5-2.6zm-23.9 12.8v-20.3l16.4 10.1-16.4 10.2zM9.4 109.7c25.8 0 46.7-20.9 46.7-46.7S35.2 16.3 9.4 16.3-37.3 37.2-37.3 63c.1 25.8 20.9 46.6 46.7 46.7zm0-87.2c22.4 0 40.5 18.1 40.5 40.5s-18.1 40.5-40.5 40.5S-31.1 85.3-31.1 63c.1-22.4 18.2-40.5 40.5-40.5zm0 0"/><path class="st4" d="M-9.6 81.5h22.2c4.6 0 8.3-3.7 8.3-8.3v-.5L32.1 79c1 .5 2.1.5 3.1-.1.9-.6 1.5-1.6 1.5-2.7V49.7c0-1.1-.6-2.1-1.5-2.7-.9-.6-2.1-.6-3.1-.1l-11.3 6.2v-.5c0-4.6-3.7-8.3-8.3-8.3H-9.6c-4.6 0-8.3 3.7-8.3 8.3v20.5c0 4.7 3.7 8.4 8.3 8.4zm40.1-26.6V71l-9.7-5.3v-5.4l9.7-5.4zm-42.2-2.2c0-1.1.9-2.1 2.1-2.1h22.2c1.1 0 2.1.9 2.1 2.1v20.5c0 1.1-.9 2.1-2.1 2.1H-9.6c-1.1 0-2.1-.9-2.1-2.1V52.7zm0 0"/></g></g></svg>