<svg version="1.1" id="Слой_1" xmlns="http://www.w3.org/2000/svg" xmlns:xlink="http://www.w3.org/1999/xlink" x="0" y="0" viewBox="0 0 418 796" xml:space="preserve"><style>.st1{fill:#4625c1}.st2{fill:none}</style><g id="bg"><linearGradient id="SVGID_1_" gradientUnits="userSpaceOnUse" x1="210.3" y1="798" x2="210.3" y2="2" gradientTransform="matrix(1 0 0 -1 0 798)"><stop offset="0" stop-color="#4625c1"/><stop offset="1" stop-color="#467ef7"/></linearGradient><path d="M1.3 0v767.7c3.3-.8 50.1-11.6 95.2 3.1 46.8 15.3 76.3 25.2 111 25.2s74-11.9 112.3-27.4 96.5-4.6 99.5-1.6V0H1.3z" fill="url(#SVGID_1_)"/></g><ellipse class="st1" cx="215.1" cy="568.9" rx="162.4" ry="22.3"/><path class="st2" d="M136 631.7c-.9-5.9-1.9-11.7-2.8-17.6-.5-3.3 1.9-6.5 5.5-7 47.5-6.9 95.7-6.9 143.2 0 3.6.5 6 3.7 5.5 7-.9 5.9-1.8 11.7-2.8 17.6"/><g id="Слой_2_1_"><path class="st2" d="M419.3 254v542H192v254h418V254z"/><path class="st2" d="M192 254h227.3v542H192z"/></g><path class="st2" d="M1.3 0v767.7c3.3-.8 50.1-11.6 95.2 3.1 46.8 15.3 76.3 25.2 111 25.2s74-11.9 112.3-27.4 96.5-4.6 99.5-1.6V0H1.3z"/><defs><path id="SVGID_2_" d="M1.3 0v767.7c3.3-.8 50.1-11.6 95.2 3.1 46.8 15.3 76.3 25.2 111 25.2s74-11.9 112.3-27.4 96.5-4.6 99.5-1.6V0H1.3z"/></defs><clipPath id="SVGID_3_"><use xlink:href="#SVGID_2_" overflow="visible"/></clipPath><g clip-path="url(#SVGID_3_)"><linearGradient id="SVGID_4_" gradientUnits="userSpaceOnUse" x1="207.96" y1="-29" x2="207.96" y2="164.6" gradientTransform="matrix(1 0 0 -1 0 798)"><stop offset="0" stop-color="#61cbf7"/><stop offset="1" stop-color="#467ef7"/></linearGradient><path d="M257.8 633.4h-99.7c-5.6 0-8.6 6.7-4.8 10.8l9.3 10.3c1 1.2 1.6 2.7 1.6 4.2l-.1 25.6-.1 13.3V803c0 13.3 10.7 24 24 24h39.1c13.3 0 24-10.7 24-24v-16.6c.2-1.8.3-3.6.3-5.4v-62.5l.1-33.7V683l.1-12.8v-11.3c0-1.6.6-3.1 1.7-4.2l9.3-10.3c3.8-4.3.9-11-4.8-11z" fill="url(#SVGID_4_)"/><path d="M189.1 661.7c-.7 0-1.2-.6-1.2-1.2v-3.9c0-.7.6-1.2 1.2-1.2.7 0 1.2.6 1.2 1.2v3.9c0 .7-.5 1.2-1.2 1.2zm5.2 5.2c0-.7.6-1.2 1.2-1.2h3.9c.7 0 1.2.6 1.2 1.2 0 .7-.6 1.2-1.2 1.2h-3.9c-.7.1-1.2-.5-1.2-1.2zm-1.6 3.7c.5-.5 1.3-.5 1.8 0l2.7 2.7c.5.5.5 1.3 0 1.8s-1.3.5-1.8 0l-2.7-2.7c-.4-.6-.4-1.4 0-1.8zm-7.3-7.4c-.5.5-1.3.5-1.8 0l-2.7-2.7c-.5-.5-.5-1.3 0-1.8s1.3-.5 1.8 0l2.7 2.7c.5.6.5 1.3 0 1.8zm7.3 0c-.5-.5-.5-1.3 0-1.8l2.7-2.7c.5-.5 1.3-.5 1.8 0s.5 1.3 0 1.8l-2.7 2.7c-.5.5-1.3.5-1.8 0zm-2.4 3.3v-.2s0-.1-.1-.1c-.1-.1-.2-.3-.4-.4 0 0-.1 0-.1-.1h-10.8c-.7 0-1.2.6-1.2 1.2 0 .7.6 1.2 1.2 1.2h7.3l-5.2 5.2c-.5.5-.5 1.3 0 1.8.2.2.6.4.9.4s.6-.1.9-.4l5.2-5.2v7.3c0 .7.6 1.2 1.2 1.2.7 0 1.2-.6 1.2-1.2v-10.3c-.1-.1-.1-.3-.1-.4zm17-4.6c.2-.2.5-.3.9-.3.3 0 .6.1.9.3.2.2.4.5.4.9v8.3c0 .3-.1.6-.4.9-.2.2-.5.3-.9.3-.3 0-.6-.1-.9-.3-.2-.2-.4-.5-.4-.9v-8.3c.1-.4.2-.7.4-.9zm5.5 2.1h-1c-.2 0-.3 0-.4-.1s-.3-.2-.4-.3-.2-.2-.3-.4c-.1-.1-.1-.3-.1-.4 0-.2 0-.3.1-.5s.2-.3.3-.4c.1-.1.2-.2.4-.3.1-.1.3-.1.4-.1h4.5c.2 0 .3 0 .4.1.1.1.3.2.4.3.1.1.2.2.3.4s.1.3.1.5c0 .1 0 .3-.1.4-.1.1-.2.3-.3.4-.1.1-.2.2-.4.3-.1.1-.3.1-.4.1h-1.1v7.1c0 .4-.1.6-.4.9-.2.2-.5.3-.9.3-.3 0-.6-.1-.9-.3-.2-.2-.4-.5-.4-.9V664h.2zm12 .6c-.2-.2-.5-.3-.9-.5-.3-.1-.6-.2-1-.2s-.8.1-1.2.3-.7.4-.9.6c-.3.3-.5.6-.6.9-.2.4-.2.7-.2 1.1 0 .4.1.8.3 1.1.2.3.4.7.7.9.3.3.6.5 1 .6.4.2.7.3 1.1.3.3 0 .6-.1 1-.2.3-.1.6-.3.9-.5.3-.2.5-.3.9-.3.3 0 .6.1.9.3.2.2.4.5.4.9 0 .3-.1.5-.2.7-.1.2-.3.3-.4.4 0 0-.2.1-.3.3-.2.1-.4.3-.7.4-.3.1-.6.3-1 .4-.4.1-.9.2-1.4.2-.7 0-1.4-.1-2.1-.4-.7-.3-1.2-.7-1.7-1.2s-.9-1.1-1.2-1.7c-.3-.7-.4-1.4-.4-2.1 0-.7.1-1.4.4-2.1.3-.7.7-1.2 1.2-1.7s1.1-.9 1.7-1.2c.7-.3 1.4-.4 2.1-.4.5 0 1 .1 1.4.2.4.1.7.2 1 .4.3.1.5.3.7.4.2.1.3.2.3.2l.4.4c.1.2.2.4.2.7s-.1.6-.4.9c-.2.2-.5.4-.9.4-.6-.2-.9-.3-1.1-.5zm13.3 3.1c-.1.4-.2.9-.4 1.3-.3.7-.7 1.2-1.2 1.7s-1.1.9-1.7 1.2c-.7.3-1.4.4-2.1.4s-1.4-.1-2.1-.4c-.7-.3-1.2-.7-1.7-1.2s-.9-1.1-1.2-1.7c-.3-.7-.4-1.4-.4-2.1s.1-1.5.4-2.1c.3-.7.7-1.2 1.2-1.7s1.1-.9 1.7-1.2c.7-.3 1.4-.4 2.1-.4.5 0 1 .1 1.4.2.4.1.7.2 1 .4.3.1.5.3.7.4.2.1.3.2.3.2l.4.4c.1.2.2.4.2.7s-.1.6-.4.9c-.2.2-.5.4-.9.4-.3 0-.6-.1-.9-.3-.2-.2-.5-.3-.9-.5-.3-.1-.7-.2-1-.2-.4 0-.8.1-1.1.2-.4.2-.7.4-.9.6-.3.3-.5.6-.6 1-.2.4-.2.8-.2 1.2s.1.8.2 1.2c.2.4.4.7.6.9s.6.5.9.6c.4.2.7.2 1.1.2.5 0 .9-.1 1.3-.3.4-.2.7-.5 1-.8h-2.1c-.3 0-.6-.1-.9-.4-.2-.2-.3-.5-.3-.9 0-.3.1-.6.3-.9.2-.2.5-.4.9-.4h3.9s.4 0 .8.3c.5.3.7.6.6 1.1z" fill="#fff"/><linearGradient id="SVGID_5_" gradientUnits="userSpaceOnUse" x1="207.286" y1="155.017" x2="207.286" y2="197.5" gradientTransform="matrix(1 0 0 -1 0 798)"><stop offset="0" stop-color="#4625c1"/><stop offset="1" stop-color="#467ef7"/></linearGradient><path d="M144.8 606.8c41.4-8.4 83.5-8.4 124.9 0 3.1.6 5.3 4.5 4.8 8.5-.8 7.1-1.6 14.2-2.4 21.4-.5 4.1-3.2 6.8-6.1 6.2-38.9-7.9-78.5-7.9-117.4 0-2.9.6-5.7-2.2-6.1-6.2-.8-7.1-1.6-14.2-2.4-21.4-.6-4 1.6-7.8 4.7-8.5z" fill="url(#SVGID_5_)"/><linearGradient id="SVGID_6_" gradientUnits="userSpaceOnUse" x1="149.451" y1="162.779" x2="149.451" y2="186.622" gradientTransform="matrix(1 0 0 -1 0 798)"><stop offset="0" stop-color="#61cbf7"/><stop offset="1" stop-color="#467ef7"/></linearGradient><path d="M145.3 614.3c1.1 6.3 2.2 12.6 3.3 19 .6 3.2 5.5 2.3 5-.8-1-6.3-2-12.7-3-19-.5-3.3-5.8-2.4-5.3.8z" fill="url(#SVGID_6_)"/><linearGradient id="SVGID_7_" gradientUnits="userSpaceOnUse" x1="168.351" y1="165.331" x2="168.351" y2="189.289" gradientTransform="matrix(1 0 0 -1 0 798)"><stop offset="0" stop-color="#61cbf7"/><stop offset="1" stop-color="#467ef7"/></linearGradient><path d="M164.7 611.4c.8 6.4 1.5 12.7 2.3 19.1.4 3.2 5.4 2.6 5-.6-.7-6.4-1.3-12.8-2-19.2-.3-3.1-5.7-2.5-5.3.7z" fill="url(#SVGID_7_)"/><linearGradient id="SVGID_8_" gradientUnits="userSpaceOnUse" x1="187.3" y1="166.845" x2="187.3" y2="190.904" gradientTransform="matrix(1 0 0 -1 0 798)"><stop offset="0" stop-color="#61cbf7"/><stop offset="1" stop-color="#467ef7"/></linearGradient><path d="M184.2 609.7l1.2 19.2c.2 3.2 5.2 2.9 5-.3l-.9-19.2c-.1-3.3-5.5-3-5.3.3z" fill="url(#SVGID_8_)"/><linearGradient id="SVGID_9_" gradientUnits="userSpaceOnUse" x1="206.451" y1="167.37" x2="206.451" y2="191.456" gradientTransform="matrix(1 0 0 -1 0 798)"><stop offset="0" stop-color="#61cbf7"/><stop offset="1" stop-color="#467ef7"/></linearGradient><path d="M203.8 609c0 6.4.1 12.8.1 19.3 0 3.2 5 3.2 5.1 0 0-6.4.1-12.8.1-19.3.1-3.3-5.3-3.3-5.3 0z" fill="url(#SVGID_9_)"/><linearGradient id="SVGID_10_" gradientUnits="userSpaceOnUse" x1="225.602" y1="166.845" x2="225.602" y2="190.904" gradientTransform="matrix(1 0 0 -1 0 798)"><stop offset="0" stop-color="#61cbf7"/><stop offset="1" stop-color="#467ef7"/></linearGradient><path d="M223.4 609.4l-.9 19.2c-.1 3.2 4.8 3.5 5 .3l1.2-19.2c.2-3.3-5.2-3.6-5.3-.3z" fill="url(#SVGID_10_)"/><linearGradient id="SVGID_11_" gradientUnits="userSpaceOnUse" x1="244.554" y1="165.32" x2="244.554" y2="189.312" gradientTransform="matrix(1 0 0 -1 0 798)"><stop offset="0" stop-color="#61cbf7"/><stop offset="1" stop-color="#467ef7"/></linearGradient><path d="M242.9 610.8c-.7 6.4-1.3 12.8-2 19.2-.3 3.2 4.6 3.7 5 .6.8-6.4 1.5-12.7 2.3-19.1.4-3.3-5-3.9-5.3-.7z" fill="url(#SVGID_11_)"/><linearGradient id="SVGID_12_" gradientUnits="userSpaceOnUse" x1="263.455" y1="162.763" x2="263.455" y2="186.605" gradientTransform="matrix(1 0 0 -1 0 798)"><stop offset="0" stop-color="#61cbf7"/><stop offset="1" stop-color="#467ef7"/></linearGradient><path d="M262.3 613.4c-1 6.3-2 12.7-3 19-.5 3.2 4.4 4 5 .8 1.1-6.3 2.2-12.6 3.3-19 .6-3.1-4.8-4-5.3-.8z" fill="url(#SVGID_12_)"/><linearGradient id="SVGID_13_" gradientUnits="userSpaceOnUse" x1="208.2" y1="49.1" x2="208.2" y2="107.7" gradientTransform="matrix(1 0 0 -1 0 798)"><stop offset="0" stop-color="#4625c1"/><stop offset="1" stop-color="#467ef7"/></linearGradient><path d="M208.2 690.3c7.1 0 12.9 5.8 12.9 12.9V736c0 7.1-5.8 12.9-12.9 12.9-7.1 0-12.9-5.8-12.9-12.9v-32.9c.1-7.1 5.8-12.8 12.9-12.8z" fill="url(#SVGID_13_)"/><linearGradient id="SVGID_14_" gradientUnits="userSpaceOnUse" x1="208.2" y1="53.27" x2="208.2" y2="79.471" gradientTransform="matrix(1 0 0 -1 0 798)"><stop offset="0" stop-color="#61cbf7"/><stop offset="1" stop-color="#467ef7"/></linearGradient><path d="M208.2 718.5c5.1 0 9.3 4.2 9.3 9.3v7.6c0 5.1-4.2 9.3-9.3 9.3-5.1 0-9.3-4.2-9.3-9.3v-7.6c0-5.1 4.2-9.3 9.3-9.3z" fill="url(#SVGID_14_)"/><path class="st1" d="M204.9 728.9c.4.4.7 1 .7 1.8v1.6c0 .7-.3 1.3-.7 1.8s-1.1.7-1.9.7c-.8 0-1.5-.2-1.9-.7-.4-.5-.7-1-.7-1.8v-1.6c0-.7.3-1.3.7-1.8.4-.5 1.1-.7 1.9-.7.8 0 1.4.2 1.9.7zm-3 .8c-.3.2-.4.6-.4 1v1.6c0 .4.2.8.4 1 .3.2.6.4 1 .4s.8-.1 1-.4c.3-.2.4-.6.4-1v-1.6c0-.4-.2-.8-.4-1-.2-.2-.6-.4-1-.4s-.7.1-1 .4zm9.1-1.4s.1.1.1.2v.6c0 .1 0 .1-.1.2s-.1.1-.2.1h-2.9v1.7h2.7c.1 0 .1 0 .2.1s.1.1.1.2v.6c0 .1 0 .1-.1.2 0 0-.1.1-.2.1h-2.7v2.1c0 .1 0 .1-.1.2 0 0-.1.1-.2.1h-.7c-.1 0-.1 0-.2-.1 0 0-.1-.1-.1-.2v-5.8c0-.1 0-.1.1-.2 0 0 .1-.1.2-.1h4.1zm5.4 0s.1.1.1.2v.6c0 .1 0 .1-.1.2s-.1.1-.2.1h-2.9v1.7h2.7c.1 0 .1 0 .2.1s.1.1.1.2v.6c0 .1 0 .1-.1.2 0 0-.1.1-.2.1h-2.7v2.1c0 .1 0 .1-.1.2 0 0-.1.1-.2.1h-.7c-.1 0-.1 0-.2-.1 0 0-.1-.1-.1-.2v-5.8c0-.1 0-.1.1-.2 0 0 .1-.1.2-.1h4.1z"/><path d="M245.3 725v50c0 44.7-5.5 42.5-38.4 42.5h0" fill="none" stroke="#fff" stroke-width=".5" stroke-miterlimit="10"/><path d="M190.3 739s.4 17 17.9 16" fill="none" stroke="#3537ab" stroke-width=".5" stroke-miterlimit="10"/></g></svg>