<svg version="1.1" id="bg" xmlns="http://www.w3.org/2000/svg" x="0" y="0" viewBox="0 0 16.9 16.9" xml:space="preserve"><style>.st0{fill:#9ea2a9}</style><path class="st0" d="M16.8 15c0 .5-.2.9-.5 1.3-.4.4-.8.5-1.3.6-.5 0-.9-.2-1.3-.5L.5 3.1C.2 2.7 0 2.3 0 1.8S.2.9.5.5C.9.2 1.3 0 1.8 0s.9.2 1.3.5l13.2 13.2c.4.4.6.8.5 1.3z"/><path class="st0" d="M15 0c.5 0 .9.2 1.3.5.4.4.5.8.6 1.3 0 .5-.2.9-.5 1.3L3.1 16.3c-.4.4-.8.5-1.3.5s-.9-.2-1.3-.5c-.3-.4-.5-.8-.5-1.3s.2-.9.5-1.3L13.8.5c.3-.3.7-.5 1.2-.5z"/></svg>