<svg version="1.1" id="bg" xmlns="http://www.w3.org/2000/svg" x="0" y="0" viewBox="0 0 100 100" xml:space="preserve"><style>.st1{fill:none;stroke:#fff;stroke-width:2.5;stroke-miterlimit:10}</style><path class="st1" d="M26.2 45.8h7v14.1h-7zm12.4-5.5h7v19.5h-7zM51 32.2h7v27.6h-7zm12.3-8.3h7v36h-7zM25.2 38.4S51.9 29.3 61 12.1"/><path class="st1" d="M54.2 13l9.2-4.4-.6 9.8m13.5 1.3h8.5c3.4 0 6.1 2.7 6.1 6.1v41.7c0 3.4-2.7 6.1-6.1 6.1H13c-3.4 0-6.1-2.7-6.1-6.1V25.8c0-3.4 2.7-6.1 6.1-6.1h33.1M4.6 79.2c0 3.4 2 8.2 4.4 8.2h81c2.4 0 4.4-4.8 4.4-8.2H60.3c-.9 0-1.6.5-1.6 1.2s-.7 1.2-1.6 1.2H41.8c-.9 0-1.6-.5-1.6-1.2s-.7-1.2-1.6-1.2h-34z"/><path class="st1" d="M76.6 26.2h7.7V67H13.4V26.2h23.1"/></svg>