<svg version="1.1" id="Layer_1" xmlns="http://www.w3.org/2000/svg" x="0" y="0" viewBox="0 0 600 600" xml:space="preserve"><style>.st0{fill:none;stroke:#424243;stroke-width:3;stroke-linecap:round;stroke-linejoin:round;stroke-miterlimit:10}</style><path class="st0" d="M274 142.5h9.1v18.1H274zm16-7h9.1v25.2H290zm16-10.5h9.1v35.6H306zm16-10.7h9.1v46.4H322zM272.8 133s34.4-11.8 46.1-33.9"/><path class="st0" d="M310.2 100.3l11.8-5.7-.7 12.7m17.4 1.6h10.9c4.3 0 7.8 3.5 7.8 7.8v53.8c0 4.3-3.5 7.8-7.8 7.8H257c-4.3 0-7.8-3.5-7.8-7.8v-53.8c0-4.3 3.5-7.8 7.8-7.8h42.7m-53.5 76.7c0 4.4 2.6 10.5 5.7 10.5h104.4c3.2 0 5.7-6.1 5.7-10.5h-43.9c-1.1 0-2 .7-2 1.6 0 .9-.9 1.6-2 1.6h-19.8c-1.1 0-2-.7-2-1.6 0-.9-.9-1.6-2-1.6h-44.1z"/><path class="st0" d="M339.2 117.3h9.8v52.6h-91.4v-52.6h29.8"/></svg>