<svg xmlns="http://www.w3.org/2000/svg" xmlns:xlink="http://www.w3.org/1999/xlink" viewBox="0 0 402 360.5"><g id="Layer_3"><defs><path id="SVGID_4_" transform="rotate(-180 200.99 158.512)" d="M0-78h402v473H0z"/></defs><clipPath id="SVGID_1_"><use xlink:href="#SVGID_4_" overflow="visible"/></clipPath><g clip-path="url(#SVGID_1_)"><path d="M327.6 204.9c17.8-17.8 46.6-18 64.3-.4l63.9 63.5c17.6 17.5 17.5 46.1-.4 63.9-17.8 17.8-46.6 18-64.3.4l-63.9-63.5c-17.6-17.6-17.5-46.2.4-63.9zm93.9-107.8c1.8 12.7-7.1 24.7-20 26.6l-43.5 6.7c-12.8 2-24.7-6.8-26.5-19.5-1.8-12.7 7.1-24.7 20-26.6l43.5-6.7c12.8-1.9 24.7 6.8 26.5 19.5zM252 121.3c-3.4 5.8-10.8 7.8-16.5 4.5L216 114.7c-5.7-3.3-7.7-10.6-4.3-16.4 3.4-5.8 10.8-7.8 16.5-4.5l19.5 11.1c5.7 3.4 7.7 10.7 4.3 16.4zM272.2 23c-2 3.3-6.2 4.5-9.6 2.6l-2.6-1.5c-3.3-1.9-4.4-6.1-2.5-9.5 2-3.3 6.2-4.5 9.6-2.6l2.6 1.5c3.4 1.9 4.5 6.1 2.5 9.5zm-150.7 85.9c-2 3.3-6.2 4.5-9.6 2.6l-2.6-1.5c-3.3-1.9-4.4-6.1-2.5-9.5 2-3.3 6.2-4.5 9.6-2.6l2.6 1.5c3.4 1.9 4.5 6.2 2.5 9.5z" fill="#e5e5e5"/></g></g></svg>