<svg xmlns="http://www.w3.org/2000/svg" xmlns:xlink="http://www.w3.org/1999/xlink" viewBox="0 0 1920 522.5"><style>.st0{fill:#aa2f00}.st2{clip-path:url(#SVGID_3_)}</style><g id="bg"><linearGradient id="SVGID_1_" gradientUnits="userSpaceOnUse" x1="959.999" y1="151.289" x2="959.999" y2="-314.23" gradientTransform="rotate(180 960 104.144)"><stop offset="0" stop-color="#bc3b0d"/><stop offset="1" stop-color="#e85419"/></linearGradient><path d="M1920 134.4s-98.9-46-235.5-68-283.5-4-672 40S208.4 35.9 0 142.4v380.1h1920V134.4z" fill="url(#SVGID_1_)"/><defs><path id="SVGID_107_" d="M1920 134.4s-98.9-46-235.5-68-283.5-4-672 40S208.4 35.9 0 142.4v380.1h1920V134.4z"/></defs><clipPath id="SVGID_3_"><use xlink:href="#SVGID_107_" overflow="visible"/></clipPath><g class="st2"><path class="st0" d="M360.7 148.4c-8.5 24.9-34.4 38.6-57.9 30.5l-84.9-29.3c-23.4-8.1-35.5-34.8-27-59.8 8.5-24.9 34.4-38.6 57.9-30.5l84.9 29.3c23.4 8.1 35.5 34.8 27 59.8zm-38.8 144.5c-7.1-11-4.1-26.3 6.6-34.2l36.5-26.6c10.8-7.8 25.2-5.3 32.3 5.8 7.1 11 4.1 26.3-6.6 34.2l-36.5 26.6c-10.8 7.8-25.3 5.2-32.3-5.8zm142.8-102c.6-6.9 6.4-12.3 13-11.9l22.3 1.3c6.6.4 11.5 6.3 10.9 13.3-.6 6.9-6.4 12.3-13 11.9l-22.3-1.3c-6.6-.4-11.5-6.3-10.9-13.3zm23.8 101.3c.3-4 3.7-7.1 7.5-6.9l3 .2c3.8.2 6.6 3.7 6.3 7.7-.3 4-3.7 7.1-7.5 6.9l-3-.2c-3.8-.3-6.6-3.7-6.3-7.7zm116.4-100.5c.3-4 3.7-7.1 7.5-6.9l3 .2c3.8.2 6.6 3.7 6.3 7.7-.3 4-3.7 7.1-7.5 6.9l-3-.2c-3.8-.2-6.7-3.6-6.3-7.7z"/></g><g class="st2"><path class="st0" d="M1824 494.9c-1.7 6.8-8.3 11.1-14.8 9.6l-21.8-4.9c-6.4-1.4-10.3-8.1-8.6-14.8 1.7-6.8 8.3-11.1 14.8-9.6l21.8 4.9c6.5 1.4 10.3 8 8.6 14.8zm53.8-78.1c-2.5 3.2-7 3.8-10.1 1.5l-2.4-1.8c-3.1-2.3-3.5-6.7-1-9.9s7-3.8 10.1-1.5l2.4 1.8c3.1 2.3 3.5 6.8 1 9.9zm-170.2 6.4c-2.5 3.2-7 3.8-10.1 1.5l-2.4-1.8c-3.1-2.3-3.5-6.7-1-9.9s7-3.8 10.1-1.5l2.4 1.8c3.1 2.3 3.6 6.8 1 9.9z"/></g></g></svg>