<svg xmlns="http://www.w3.org/2000/svg" xmlns:xlink="http://www.w3.org/1999/xlink" viewBox="0 0 1920 836.7"><style>.st0{fill:#aa2f00}.st2{clip-path:url(#SVGID_3_)}.st11{fill:#61aaf7}.st14{fill:#fff}.st15{fill:#e6e7e9}.st20{fill:#ff9b24}.st24{fill:#3537ab}.st25{fill:none;stroke:#3537ab;stroke-width:.5;stroke-miterlimit:10}.st30{fill:#1f9b83}.st31{fill:#53a9f4}.st33{fill:none;stroke:#177563;stroke-width:.5;stroke-miterlimit:10}.st34{fill:#3dc1a7}.st35,.st56{fill:none;stroke:#1f9b83;stroke-width:.5;stroke-miterlimit:10}.st56{stroke:#fff}</style><g id="Layer_3"><linearGradient id="SVGID_1_" gradientUnits="userSpaceOnUse" x1="960" y1="836.748" x2="960" y2="0"><stop offset="0" stop-color="#bc3b0d"/><stop offset="1" stop-color="#e85419"/></linearGradient><path d="M0 607.8s124.4 160.5 261 198c136.5 37.5 241.5 52.5 630-22.5s820.5 22.5 1029-159V0H0v607.8z" fill="url(#SVGID_1_)"/><defs><path id="SVGID_2_" d="M0 607.8s124.4 160.5 261 198c136.5 37.5 241.5 52.5 630-22.5s820.5 22.5 1029-159V0H0v607.8z"/></defs><clipPath id="SVGID_3_"><use xlink:href="#SVGID_2_" overflow="visible"/></clipPath><g class="st2"><path class="st0" d="M63.9 316.9c-19.9 14.8-48.1 10.7-63-9.3l-53.7-72.2c-14.8-19.9-10.7-48.1 9.3-63 19.9-14.8 48.1-10.7 63 9.3l53.7 72.2c14.8 19.9 10.6 48.1-9.3 63zm-107 92.1c0-12.8 10.4-23.2 23.2-23.2h43.5c12.8 0 23.2 10.4 23.2 23.2 0 12.8-10.4 23.2-23.2 23.2h-43.5c-12.8 0-23.2-10.4-23.2-23.2zm169.3 1.7c4.1-5.2 11.6-6 16.8-1.9l17.5 13.9c5.2 4.1 6 11.6 1.9 16.8-4.1 5.2-11.6 6-16.8 1.9l-17.5-13.9c-5.1-4.2-6-11.7-1.9-16.8zm-33.5 93.9c2.4-3 6.7-3.5 9.7-1.1l2.4 1.9c3 2.4 3.5 6.7 1.1 9.7-2.4 3-6.7 3.5-9.7 1.1l-2.4-1.9c-3-2.3-3.5-6.7-1.1-9.7zm159.5-62c2.4-3 6.7-3.5 9.7-1.1l2.4 1.9c3 2.4 3.5 6.7 1.1 9.7-2.4 3-6.7 3.5-9.7 1.1l-2.4-1.9c-3-2.3-3.5-6.7-1.1-9.7z"/></g><g class="st2"><path class="st0" d="M1852.5 257.2c17.8 17.8 46.6 18 64.3.4l63.9-63.5c17.6-17.5 17.5-46.1-.4-63.9-17.8-17.8-46.6-18-64.3-.4l-63.9 63.5c-17.6 17.5-17.4 46.1.4 63.9zm94 107.7c1.8-12.7-7.1-24.7-20-26.6l-43.5-6.7c-12.8-2-24.7 6.8-26.5 19.5-1.8 12.7 7.1 24.7 20 26.6l43.5 6.7c12.8 2 24.7-6.7 26.5-19.5zm-169.6-24.2c-3.4-5.8-10.8-7.8-16.5-4.5l-19.5 11.1c-5.7 3.3-7.7 10.6-4.3 16.4 3.4 5.8 10.8 7.8 16.5 4.5l19.5-11.1c5.8-3.3 7.7-10.6 4.3-16.4zm20.3 98.4c-2-3.3-6.2-4.5-9.6-2.6l-2.6 1.5c-3.3 1.9-4.4 6.1-2.5 9.5 2 3.3 6.2 4.5 9.6 2.6l2.6-1.5c3.3-1.9 4.4-6.2 2.5-9.5zm-150.7-85.9c-2-3.3-6.2-4.5-9.6-2.6l-2.6 1.5c-3.3 1.9-4.4 6.1-2.5 9.5 2 3.3 6.2 4.5 9.6 2.6l2.6-1.5c3.3-1.9 4.4-6.2 2.5-9.5z"/></g><path d="M0 607.8s124.4 160.5 261 198c136.5 37.5 241.5 52.5 630-22.5s820.5 22.5 1029-159V0H0v607.8z" fill="none"/></g><g id="bg"><path d="M368.4 510.5c-31.7 4.1-51.5 9.9-51.5 16.3 0 6.9 22.8 13.1 58.6 17.2l-7.1-33.5zm209.7-1.4l-8 36.2c43.2-4 71.6-10.8 71.6-18.5 0-7.2-25-13.6-63.6-17.7z" fill="#b2320f"/><path d="M216 0l178.5 648.1c17.5-5.4 35.5-8.2 53.5-9.1 25-1 49-8 74-5 10.1 1.2 20.4 2.4 30.7 4.3L737.1 0H216z" opacity=".15" fill="#fff"/><path class="st14" d="M259.7 0l139.7 656.8c47.7-14.1 99.2-13.5 146.2-.7L690.9 0H259.7z"/><path class="st15" d="M570.1 545.3l8-36.2c-27.4-2.9-61.6-4.6-98.8-4.6-42.9 0-81.9 2.3-110.9 6l7.1 33.4c28.1 3.2 64.3 5.2 103.8 5.2 33.6 0 64.8-1.4 90.8-3.8z"/><path class="st15" d="M546.1 449.9c-2.5-5-8.2-12.1-13.7-18.7-1.1 0-2.1 0-3-.1l.5-.3s-10.2-85.3-10.2-85.4c-4.6-2.3-27.8-13.2-63.2-12.5-.2-.3-.3-.5-.5-.8-11.9-15.4-15.6-26.5-14.7-34.8.3 0 .6.1.9.2 7.3 1 13.9.9 19.7.1l12.7 2.2.4-3.2 4.2 5.7 10.8-4.6-1.3-4.3 15.8 2.7.7-5.9c.6 1.1 3.2 1.2 3.1-1.7l2.8 1.3 11.1-3.5c4.2 1.1 8.9-.1 11.6-3.8.6-.9.3-1.8-.4-2.3 2.5-2.8 3.1-6.4 1.3-8-.3-.2-.5-.4-.8-.5-.4-.2-.8-.4-1.3-.4-.2 0-.3 0-.5.1-.1-.1-.2-.3-.3-.4l-1.3-2.4c.4-.4.8-.7 1.2-1 1.8-1.2-.2-3.9-2-2.7-.3.2-.6.4-.9.7l-.1-.2-3.8-12.3-10.9 1.6-4-7-7.9-.1-.9-5.4s-10.5-2.6-11-2.6c-.4 0-3.9.5-7.6 1-.6.1-1.2.1-1.9.1 3-3 12.6-13.4 17.9-28.2 2.4.1 4.5-.3 4.8-1.4 0-.2-.2-.5-.7-.9-.6-.6-1.5-1.3-2.7-2 .3-1 .5-2.1.8-3.1 3.2-1 6.5-3.5 5.3-9.2l-4.1-.4c.1-1.5.1-3 0-4.5-.1-3.4-1.2-11.7-2.3-16.3s7.6-8-10.2-13.7c-17.8-5.7-33.9.2-29.6 12.3-2.9 7.3-4.2 22-4.3 23.7-1.6.8-2.8 2.3-3 4.1-.4 2.3.8 4.5 2.8 5.6h-.4c.6.3 1.2.5 1.7.5h.1c.8 8.5 3.7 18.2 9.3 30.7l-.7 4c-1 .7-2.1 1.5-3.1 2.1-5.1-.7-10.2-.6-15.3.1l1.6-1.2-6.9-7.3-10.2-3.1-9.4 7.9 8.7 2.3 7.3 3.2c-75.9 19.5-45.8 108.3-45.8 108.3l1.4-.1c5.4 10.2 24.9 45 51.9 69.5 0 0-21.4 33.4-27.4 75.3h-.1c-.7 3.2-.7 9.7-.7 9.7s13.3 1.1 28.1 0c1.4-.1 1.9-2 .6-2.7-4-2.4-10.8-6-17.5-7.7l-5.1.3c2.6-5.1 25.6-49.7 39.2-75 0 0-2.9-22-10.2-46.6-.6-2-1.2-3.8-1.7-5.5 15.8-.9 36.2-3.2 55.5-8.9 1.1 12.5 5 40.7 17.9 68.5h-.8c-1.4 1.9-2.5 3.7-2.5 3.7s10.6 9.6 22.9 17.2c1.5.6 3-.7 2.3-2z"/><path class="st15" d="M507.8 242.7l8.8 5.3c-2.2-5.5-8.8-5.3-8.8-5.3zm5.1-1.9l6 5.2c-1.1-4.5-6-5.2-6-5.2zm-111.4-40.7l8.8 5.3c-2.1-5.5-8.8-5.3-8.8-5.3zm10 30.3l-6.7-4.2c1.8 4.3 6.7 4.2 6.7 4.2zm28 1.7l6.9 3.9c-2-4.1-6.9-3.9-6.9-3.9zm-43.6 19.8l-7.1-3.5c2.3 4 7.1 3.5 7.1 3.5zm29.1-8.4l-7.1-3.5c2.2 4 7.1 3.5 7.1 3.5zm44.7 59.1s7.7 5.5 14.8.8l-14.8-.8zm11.1 4.4l-8.5-1.7c0 .1 4.4 3.6 8.5 1.7zm-79.3-92.7l4.1-6.8-9.2-4-10.6 1.1-5.5 10.9 8.9-1.2zm-4 36.3l11.7-3.7-7.1-5.5-8.6-8.8-7.7 1.8 3.5 9.4z"/><path class="st30" d="M502.3 311.5l7 9.5 10.8-4.6-2.7-9.4z"/><path class="st30" d="M514.7 311.4l20 3.4 1-8.8-19.1-2.8zm-29.9 3.7l19.9 3.4 1-8.9-19.1-2.7z"/><path class="st20" d="M561.3 299.2c-2.3 3.1-6.3 3.6-9.7 2-2-.9-3.2 2.2-1.3 3.1 4.7 2.1 10.4 1.2 13.6-3.1 1.3-1.7-1.3-3.7-2.6-2zm.6-13c1.8-1.2-.2-3.9-2-2.7-1.7 1.2-3.1 2.8-4.1 4.6.9.6 1.8 1.3 2.8 2 .7-1.5 1.9-2.9 3.3-3.9z"/><ellipse transform="rotate(-48.012 560.232 296.089)" class="st20" cx="560.2" cy="296.1" rx="7" ry="4.4"/><path class="st31" d="M559.3 288.8s.2 1.8 2 1.7l-5.5 6.2s-2-2.8.2-8.5"/><path d="M500.3 265.5c-6.6.8-12 2.3-16.4 4.6 3.1 3 6.1 6.1 9.5 9.1.9.7 1.8 1.4 2.7 2.2 4.6-.2 9.6-.1 15-1 22.7-4 40.1 10.1 45.4 15.1.7.7 1.9.4 2.3-.5.2-.5.4-1 .7-1.5 1.6-2.4 3.3-2.6 3.3-2.6-.3-.4-17.7-30.7-62.5-25.4z" fill="#6535e4"/><linearGradient id="SVGID_5_" gradientUnits="userSpaceOnUse" x1="492.317" y1="517.724" x2="492.317" y2="351.631"><stop offset="0" stop-color="#4625c1"/><stop offset="1" stop-color="#33313d"/></linearGradient><path d="M549.8 364.2c-5.3-2.7-35.6-16.9-80.8-11.2l-5 11.7-41.3 5.2s21.5 43.5 53.4 72.4c0 0-21.5 33.5-27.4 75.4h5s25-48.6 39.4-75.5c0 0-3.4-25.5-12-52.1 15.8-.9 36.2-3.2 55.5-8.9 1.2 12.9 5.2 42.5 19.2 71.1l6.1-2.4c0 .1-12.1-85.6-12.1-85.7z" fill="url(#SVGID_5_)"/><path class="st30" d="M460.7 276.4l8.7-5.8 8.2 2.7 11.8-8s13.1-4.4 14.2-4.7c1.1-.2 16.2-2.4 17.1-2.4.5 0 11 2.6 11 2.6l.9 5.4 7.9.1 4 7 10.9-1.6L559 284l4.4 8.3-5.3 10.9-16.9 5.3-4.2-2-29.2 2.9-22.5 4.4-24-21.1-.6-16.3z"/><linearGradient id="SVGID_7_" gradientUnits="userSpaceOnUse" x1="416.995" y1="317.648" x2="514.747" y2="317.648"><stop offset="0" stop-color="#61cbf7"/><stop offset="1" stop-color="#467ef7"/></linearGradient><path d="M422.9 373l26.3-2.1c9.7-.8 28.6-7 35.6-14 2-2 3.2-3.5 1.3-5.9-41.6-54.1 16.2-54.8 26.1-67 5-6.2 2.1-13.6-3-18.4-3.4-.3-6.7-.7-9.9-1.5-8.6-2.2-17.6-2.2-26.3-.4-81.3 17.1-50.1 109.3-50.1 109.3z" fill="url(#SVGID_7_)"/><ellipse transform="matrix(.9958 -.09129 .09129 .9958 -18.096 45.525)" class="st20" cx="488.6" cy="220.6" rx="5.7" ry="5.5"/><ellipse transform="rotate(-83.771 508.708 217.163)" class="st24" cx="508.7" cy="217.2" rx="1.4" ry="1.6"/><ellipse transform="matrix(.9958 -.09129 .09129 .9958 -17.882 49.162)" class="st24" cx="528.5" cy="220.1" rx="1.2" ry="1.2"/><linearGradient id="SVGID_8_" gradientUnits="userSpaceOnUse" x1="487.031" y1="227.488" x2="533.786" y2="227.488"><stop offset=".127" stop-color="#ff9b24"/><stop offset="1" stop-color="#ffcb3d"/></linearGradient><path d="M530.3 226.9c1.5-5.3 2.3-11.1 2.1-17.2-.1-4.2-1.8-16.1-3.1-19-8-17.3-33.4-4.2-38.5 10.2-5.9 16.7-5.7 30.2 5.8 55.7l-1.6 9c-.4 2.4.8 4.8 3 5.8 2 1 4.8 1.5 7.8.1 1.6-.7 2.7-2.2 3-3.9l1.4-7.5s12.5-11.4 18.8-29.1c2.4.1 4.5-.3 4.8-1.4.1-.3-1.4-1.4-3.5-2.7z" fill="url(#SVGID_8_)"/><path class="st25" d="M498.9 224.8s-.8 5.3 5.5 8.1m12.9-2.6s16.3 2.3 16.3-.5-18.2-10-18.2-10"/><linearGradient id="SVGID_10_" gradientUnits="userSpaceOnUse" x1="491.708" y1="217.473" x2="536.712" y2="217.473"><stop offset="0" stop-color="#4625c1"/><stop offset="1" stop-color="#33313d"/></linearGradient><path d="M536.5 214.6l-44.8-4.1.3 5.5 2.8.9s5.1 12.3 19.3 2.7l1.5.6 10.5 4.4c0-.1 12.5.2 10.4-10z" fill="url(#SVGID_10_)"/><ellipse transform="matrix(.9958 -.09129 .09129 .9958 -17.733 47.207)" class="st14" cx="507.2" cy="217.5" rx=".8" ry=".8"/><ellipse transform="matrix(.9958 -.09129 .09129 .9958 -17.902 49.315)" class="st14" cx="530.1" cy="220.4" rx=".8" ry=".8"/><path class="st31" d="M562.5 450c-3.3 0-5.4-.1-8.7-.3-1.4 1.9-2.5 3.7-2.5 3.7s10.6 9.6 22.9 17.2c1.2.8 2.7-.6 2.1-1.9-2.6-5-8.3-12-13.8-18.7zm-86 74.6c-4-2.4-10.8-6-17.5-7.7-3.5.2-7 .5-10.5.8-.7 3.2-.7 9.7-.7 9.7s13.3 1.1 28.1 0c1.4-.2 1.8-2 .6-2.8z"/><path class="st56" d="M473.7 374s10.3 13.3 21.5 67.6"/><path d="M489.7 225.4s-2 1.2-4.7-.1" fill="none" stroke="#e6e7e9" stroke-width=".5" stroke-miterlimit="10"/><path class="st11" d="M517 298.8s-43.1-.8-56.2-21.3l-4.4 33.6s25.5 15.8 63.1-4.8l-2.5-7.5z"/><path class="st30" d="M518.4 263.2c-1.9-1.3-3.8-1.9-5.4-4-4.3.6-12.4-1.1-13-1-1.1.2-10.6 7.1-10.6 7.1l-3.5 2.4 5.5.2v1l-12.5-.6v.1l-1 6.8-1-.1.3-2-7.7-2.5-8.7 5.8.6 13.9c7.9 4.8 17.8 6.8 26.8 8.2 9.7 1 18.6 1.3 28.3-.7 1.7-.3 1.3-2 1.3-3 .3-9.7 11.8-11.6 14.4-21.3.3-.7-13.2-9.7-13.8-10.3z"/><ellipse class="st20" cx="562.7" cy="292.2" rx="2.3" ry="2.2"/><path class="st20" d="M563.6 297.6c0 1.2 0 3.8-1.3 3.8s-3.4-2.6-3.4-3.8c0-1.2 1-2.2 2.3-2.2s2.4 1 2.4 2.2z"/><path class="st33" d="M470.1 272.1l5.8 12.7-5.9 4"/><path class="st33" d="M473.8 272.8l5.8 12.6-6 4m25.3-29.1l.8 15.5 9.9 1.7"/><path class="st33" d="M496.2 263.3l.9 15.5 9.8 1.7m-16.5-9.2l-3.6 17.3h-8"/><path class="st33" d="M492.8 274.3l-3.7 17.3h-8M520 260l1.7 18.3 10.8 1.5"/><path class="st33" d="M517.1 262.9l1.7 18.3 10.8 1.5m14.9-8.1l-2.8 13.7 12.3-.2.5-12.5m-9.2 16.2l12.3.4M516 288l-8.7-5.3-11.8 12.8"/><path class="st33" d="M516.7 293.3l-8.8-5.3-11.7 12.9m-3-17.8h6.6l.7 4.8"/><ellipse transform="rotate(-7.432 527.04 269.41)" class="st34" cx="527" cy="269.4" rx="2.9" ry="3.7"/><ellipse transform="rotate(-7.432 506.407 268.414)" class="st34" cx="506.3" cy="268.4" rx="2.9" ry="3.7"/><ellipse transform="rotate(-7.432 492.985 291.6)" class="st34" cx="492.9" cy="291.6" rx="2.2" ry="2.8"/><ellipse transform="matrix(.07431 -.9972 .9972 .07431 169 739.029)" class="st34" cx="482.6" cy="278.5" rx="3.3" ry="2.6"/><ellipse transform="rotate(-85.738 549.356 280.592) scale(.99997)" class="st34" cx="549.4" cy="280.6" rx="3.3" ry="2.6"/><ellipse transform="rotate(-54.422 536.16 286.255)" class="st34" cx="536.2" cy="286.2" rx="3.3" ry="2.6"/><ellipse transform="rotate(-18.979 545.766 299.413)" class="st34" cx="545.7" cy="299.4" rx="3.3" ry="2.6"/><ellipse transform="rotate(-54.422 523.374 297.323)" class="st34" cx="523.4" cy="297.3" rx="3.3" ry="2.6"/><ellipse transform="rotate(-53.388 508.195 297.222)" class="st34" cx="508.2" cy="297.2" rx="3.3" ry="2.6"/><ellipse transform="rotate(-53.388 511.606 311.282)" class="st34" cx="511.6" cy="311.3" rx="3.3" ry="2.6"/><ellipse transform="rotate(-15.05 468.325 281.591)" class="st34" cx="468.3" cy="281.6" rx="2.6" ry="3.3"/><path class="st33" d="M526.2 288.8l11.5-13 5 4.3"/><path class="st30" d="M516.9 293.8l3.1-7.8s10.8 2.6 11.1 2.6"/><path class="st33" d="M516.9 293.8l3.1-7.8s10.8 2.6 11.1 2.6m-15.9 19.7l15.8 2.8 2.3-9.2"/><path class="st11" d="M519.5 306.2l-2.5-7.5s-45.3 4.1-55.7-18.8l-.7-5.7-3.7 31.1c7.9 3.5 16.3 6.2 23.3 11.4 10.5.3 23.9-2 39.3-10.5z"/><path class="st20" d="M531.8 301.1c3.3-2 7.2-.9 9.7 1.8 1.5 1.6 3.8-.8 2.4-2.4-3.5-3.8-9.2-5.1-13.7-2.3-2 1.1-.3 4 1.6 2.9z"/><path class="st20" d="M532.2 298.4c.1-.3-.1.2 0 0s.2-.4.3-.7c.4-.7.8-1.3 1.4-1.8 1.9-1.9 4.4-1.8 6.9-.9 2 .7 2.9-2.5.9-3.2-5.2-1.8-10.7.4-12.6 5.7-.8 2 2.4 2.9 3.1.9zm-7.4-6c.1.1.1.2.2.3-.1-.3.1.2.1.3.1.2.1.4.2.5.2.8.2 1.6-.3 2.4-1.1 1.8 1.8 3.5 2.9 1.7 1.3-2.1 1-4.7-.2-6.8-1-1.9-3.9-.2-2.9 1.6z"/><path class="st20" d="M515.3 300l4.7-2.6c.1-.1.3-.1.4-.2 1.6-.6 11.9-3.8 16.1 4.3 4.6 8.9-.6 8.9-1.3 7.3-.6-1.3-1.2-5-3.5-5.9-2.6-1.1-6.1 2.4-10.6-1.3l-3.3 2.9a6.62 6.62 0 0 1-2.5-4.5z"/><path class="st35" d="M526.9 295.5s-4.4.3-7.4 1.6"/><path class="st33" d="M540.8 307.2l16.3-5.4-3-6.6"/><path class="st20" d="M560 302.8c0 1.2-1 2.2-2.3 2.2s-3.3-1.7-3.3-3c0-1.2 1-2.2 2.3-2.2s3.3 1.8 3.3 3z"/><path class="st33" d="M506.4 314.3l3.4 5.4 8.4-4.4"/><path d="M533 271.9l-1.2-12.1m12.9 12.3l-1.8 7.2" fill="none" stroke="#fff" stroke-miterlimit="10"/><path class="st35" d="M537.8 261.5s6.7-.2 8.8 5.3m-3.6-7.1s4.8.7 6 5.2m-117.4-46s6.7-.2 8.8 5.3m1.1 25s-4.9.1-6.7-4.2m34.8 6s4.9-.3 6.9 3.9M426 270.7s-4.8.6-7.1-3.5m36.1-4.9s-4.8.6-7.1-3.5m51.8 62.6s7.7 5.5 14.8.8m-12.1 2s4.3 3.5 8.5 1.7"/><path class="st30" d="M472.7 266.4l-11.3-4.9-8.7-2.3 9.3-7.9 10.2 3.1 6.9 7.3z"/><ellipse transform="rotate(-85.933 466.602 257.852) scale(1.00002)" class="st34" cx="466.6" cy="257.9" rx="2.6" ry="3.3"/><path class="st30" d="M431.6 233.2l-12.3-.1-8.9 1.2 5.5-10.9 10.6-1.1 9.2 4.1z"/><ellipse transform="rotate(-18.933 422.646 227.663)" class="st34" cx="422.7" cy="227.7" rx="3.3" ry="2.6"/><path class="st30" d="M423.6 251.4l8.5 8.9 7.2 5.5-11.7 3.6-8.2-6.8-3.5-9.4z"/><ellipse transform="rotate(-63.237 425.913 261.596)" class="st34" cx="425.9" cy="261.6" rx="2.6" ry="3.3"/><linearGradient id="SVGID_11_" gradientUnits="userSpaceOnUse" x1="486.012" y1="200.282" x2="531.738" y2="200.282"><stop offset="0" stop-color="#4625c1"/><stop offset="1" stop-color="#33313d"/></linearGradient><path d="M519.9 179.7c-17.8-5.7-33.9.2-29.6 12.3-3.1 7.7-4.3 23.9-4.3 23.9 3.9-.9 4.7 6.1 4.7 6.1l2 1.2s-1.8-17.2 6.1-19.6c4.5-1.4 5.8-5.3 6.1-8.4 5.4 1.7 14.9 3.2 25.2-1.7 0-.1 7.6-8.1-10.2-13.8z" fill="url(#SVGID_11_)"/><path d="M528.2 190.4s-14.2 7.4-26.8-.8" fill="none" stroke="#d9dbe8" stroke-width=".5" stroke-miterlimit="10"/><path class="st56" d="M475.1 317c-.8-.1-2-.7-2.8-.8-8.4-1.1-15.3-5.1-20.5-9.4"/><defs><path id="SVGID_94_" d="M0 607.8s124.4 160.5 261 198c136.5 37.5 241.5 52.5 630-22.5s820.5 22.5 1029-159V0H0v607.8z"/></defs><clipPath id="SVGID_12_"><use xlink:href="#SVGID_94_" overflow="visible"/></clipPath><g clip-path="url(#SVGID_12_)"><linearGradient id="SVGID_13_" gradientUnits="userSpaceOnUse" x1="473.527" y1="904.248" x2="473.527" y2="656.227"><stop offset="0" stop-color="#61cbf7"/><stop offset="1" stop-color="#467ef7"/></linearGradient><path d="M537.4 656.2H409.7c-7.2 0-11 8.5-6.2 13.9l11.9 13.2c1.3 1.5 2.1 3.4 2.1 5.4l-.2 32.8-.1 17.1v134.8c0 17 13.8 30.8 30.8 30.8h50.1c17 0 30.8-13.8 30.8-30.8v-21.3c.3-2.3.4-4.6.4-6.9v-80.1l.1-43.2v-2.3l.1-16.4v-14.6c0-2 .8-3.9 2.2-5.4l11.9-13.2c4.8-5.2 1-13.8-6.2-13.8z" fill="url(#SVGID_13_)"/><path class="st14" d="M449.3 692.5c-.9 0-1.6-.7-1.6-1.6v-5c0-.9.7-1.6 1.6-1.6.9 0 1.6.7 1.6 1.6v5c0 .9-.7 1.6-1.6 1.6zm6.6 6.7c0-.9.7-1.6 1.6-1.6h5c.9 0 1.6.7 1.6 1.6 0 .9-.7 1.6-1.6 1.6h-5c-.9-.1-1.6-.8-1.6-1.6zm-1.9 4.6c.6-.6 1.6-.6 2.2 0l3.5 3.5c.6.6.6 1.6 0 2.2-.6.6-1.6.6-2.2 0L454 706c-.6-.6-.6-1.6 0-2.2zm-9.4-9.4c-.6.6-1.6.6-2.2 0l-3.5-3.5c-.6-.6-.6-1.6 0-2.2.6-.6 1.6-.6 2.2 0l3.5 3.5c.6.6.6 1.6 0 2.2zm9.4 0c-.6-.6-.6-1.6 0-2.2l3.5-3.5c.6-.6 1.6-.6 2.2 0 .6.6.6 1.6 0 2.2l-3.5 3.5c-.6.7-1.6.7-2.2 0zm-3.2 4.3v-.1s0-.1-.1-.1c0 0 0-.1-.1-.1-.1-.2-.3-.3-.5-.5l-.1-.1s-.1 0-.1-.1h-13.7c-.9 0-1.6.7-1.6 1.6 0 .9.7 1.6 1.6 1.6h9.3l-6.6 6.6c-.6.6-.6 1.6 0 2.2.3.3.7.5 1.1.5.4 0 .8-.2 1.1-.5l6.6-6.6v9.3c0 .9.7 1.6 1.6 1.6.9 0 1.6-.7 1.6-1.6v-13.2c0-.2 0-.4-.1-.5zm21.9-6c.3-.3.7-.4 1.1-.4.4 0 .8.1 1.1.4.3.3.5.7.5 1.1v10.7c0 .4-.2.8-.5 1.1-.3.3-.7.4-1.1.4-.4 0-.8-.1-1.1-.4-.3-.3-.5-.7-.5-1.1v-10.7c0-.5.2-.8.5-1.1zm7 2.7h-1.3c-.2 0-.4 0-.6-.1-.2-.1-.3-.2-.5-.4-.1-.1-.3-.3-.3-.5-.1-.2-.1-.4-.1-.5 0-.2 0-.4.1-.6.1-.2.2-.4.3-.5.1-.1.3-.3.5-.3.2-.1.4-.1.6-.1h5.8c.2 0 .4 0 .6.1.2.1.4.2.5.3.1.1.3.3.3.5.1.2.1.4.1.6 0 .2 0 .4-.1.5-.1.2-.2.3-.3.5-.1.1-.3.3-.5.4-.2.1-.4.1-.6.1h-1.3v9.1c0 .5-.2.8-.5 1.1-.3.3-.7.4-1.1.4-.4 0-.8-.1-1.1-.4-.3-.3-.5-.6-.5-1.1v-9.1zm15.3.8c-.3-.2-.7-.4-1.1-.6-.4-.2-.8-.2-1.3-.3-.5 0-1 .1-1.5.3-.5.2-.9.5-1.2.8-.3.3-.6.7-.8 1.2-.2.5-.3.9-.3 1.5 0 .5.1 1 .3 1.4.2.4.5.8.9 1.2.4.3.8.6 1.2.8.5.2.9.3 1.4.4.4 0 .8-.1 1.2-.2.4-.2.8-.4 1.1-.6.3-.3.7-.4 1.1-.4.4 0 .8.1 1.1.4.3.3.5.7.5 1.1 0 .4-.1.6-.3.9-.2.2-.3.4-.5.5-.1.1-.2.2-.4.3-.2.2-.5.3-.9.5s-.8.3-1.3.5c-.5.1-1.1.2-1.8.2-1 0-1.9-.2-2.7-.6-.8-.4-1.6-.9-2.2-1.5-.6-.6-1.1-1.4-1.5-2.2-.4-.8-.5-1.8-.5-2.7 0-1 .2-1.9.5-2.7.4-.8.9-1.6 1.5-2.2.6-.6 1.4-1.1 2.2-1.5.8-.4 1.7-.5 2.7-.5.7 0 1.3.1 1.8.2s.9.3 1.3.5.6.3.9.5c.2.2.3.3.4.3l.5.5c.2.2.3.5.3.9s-.2.8-.5 1.1c-.3.3-.7.5-1.1.5-.3-.1-.6-.3-1-.5zm17.1 4c-.1.6-.2 1.1-.5 1.6-.4.8-.9 1.6-1.5 2.2-.6.6-1.4 1.1-2.2 1.5-.8.4-1.7.5-2.7.5-1 0-1.9-.2-2.7-.5-.8-.4-1.6-.9-2.2-1.5-.6-.6-1.1-1.4-1.5-2.2-.4-.8-.5-1.7-.5-2.7 0-1 .2-1.9.5-2.7.4-.8.9-1.6 1.5-2.2.6-.6 1.4-1.1 2.2-1.5.8-.4 1.7-.6 2.7-.6.7 0 1.3.1 1.8.2s1 .3 1.3.5c.4.2.6.3.9.5.2.2.3.3.4.3l.5.5c.2.2.3.5.3.9s-.2.8-.5 1.1c-.3.3-.7.5-1.1.5-.4 0-.8-.1-1.1-.4-.3-.2-.7-.4-1.1-.6-.4-.2-.8-.2-1.3-.2s-1 .1-1.5.3c-.5.2-.9.5-1.2.8-.3.3-.6.8-.8 1.2-.2.5-.3 1-.3 1.5s.1 1 .3 1.5.5.9.8 1.2c.3.3.7.6 1.2.8.5.2.9.3 1.5.3s1.2-.1 1.7-.4c.5-.2.9-.6 1.3-1h-2.7c-.4 0-.8-.2-1.1-.5-.3-.3-.4-.7-.4-1.1 0-.4.1-.8.4-1.1.3-.3.7-.5 1.1-.5h5.1s.6 0 1 .4c.2.3.5.7.4 1.4z"/><linearGradient id="SVGID_14_" gradientUnits="userSpaceOnUse" x1="472.592" y1="668.538" x2="472.592" y2="614.125"><stop offset="0" stop-color="#4625c1"/><stop offset="1" stop-color="#467ef7"/></linearGradient><path d="M392.6 622.2c53.1-10.7 106.9-10.7 160 0 4 .8 6.8 5.7 6.2 10.9-1 9.1-2.1 18.2-3.1 27.4-.6 5.2-4.1 8.7-7.9 8-49.9-10.1-100.5-10.1-150.4 0-3.7.8-7.3-2.8-7.9-8-1-9.1-2.1-18.2-3.1-27.4-.6-5.2 2.2-10.1 6.2-10.9z" fill="url(#SVGID_14_)"/><linearGradient id="SVGID_16_" gradientUnits="userSpaceOnUse" x1="398.563" y1="658.542" x2="398.563" y2="627.993"><stop offset="0" stop-color="#61cbf7"/><stop offset="1" stop-color="#467ef7"/></linearGradient><path d="M393.2 631.7l4.2 24.3c.7 4 7 3 6.4-1.1-1.3-8.1-2.6-16.2-3.9-24.4-.5-4-7.4-2.9-6.7 1.2z" fill="url(#SVGID_16_)"/><linearGradient id="SVGID_17_" gradientUnits="userSpaceOnUse" x1="422.785" y1="655.273" x2="422.785" y2="624.554"><stop offset="0" stop-color="#61cbf7"/><stop offset="1" stop-color="#467ef7"/></linearGradient><path d="M418.1 628c1 8.2 1.9 16.3 2.9 24.5.5 4.1 6.9 3.4 6.4-.7-.8-8.2-1.7-16.4-2.5-24.5-.4-4.1-7.3-3.4-6.8.7z" fill="url(#SVGID_17_)"/><linearGradient id="SVGID_18_" gradientUnits="userSpaceOnUse" x1="447.12" y1="653.315" x2="447.12" y2="622.489"><stop offset="0" stop-color="#61cbf7"/><stop offset="1" stop-color="#467ef7"/></linearGradient><path d="M443.1 625.8l1.5 24.6c.3 4.1 6.7 3.8 6.5-.4l-1.2-24.6c-.1-4.1-7.1-3.7-6.8.4z" fill="url(#SVGID_18_)"/><linearGradient id="SVGID_19_" gradientUnits="userSpaceOnUse" x1="471.603" y1="652.66" x2="471.603" y2="621.799"><stop offset="0" stop-color="#61cbf7"/><stop offset="1" stop-color="#467ef7"/></linearGradient><path d="M468.2 624.9c.1 8.2.1 16.4.2 24.7 0 4.1 6.4 4.1 6.5 0 .1-8.2.1-16.4.2-24.7 0-4.1-7-4.1-6.9 0z" fill="url(#SVGID_19_)"/><linearGradient id="SVGID_20_" gradientUnits="userSpaceOnUse" x1="496.085" y1="653.315" x2="496.085" y2="622.488"><stop offset="0" stop-color="#61cbf7"/><stop offset="1" stop-color="#467ef7"/></linearGradient><path d="M493.2 625.4L492 650c-.2 4.1 6.2 4.5 6.5.4l1.5-24.6c.4-4.1-6.6-4.5-6.8-.4z" fill="url(#SVGID_20_)"/><linearGradient id="SVGID_22_" gradientUnits="userSpaceOnUse" x1="520.419" y1="655.275" x2="520.419" y2="624.552"><stop offset="0" stop-color="#61cbf7"/><stop offset="1" stop-color="#467ef7"/></linearGradient><path d="M518.3 627.3c-.8 8.2-1.7 16.4-2.5 24.5-.4 4.1 5.9 4.8 6.4.7 1-8.2 1.9-16.3 2.9-24.5.5-4.1-6.4-4.8-6.8-.7z" fill="url(#SVGID_22_)"/><linearGradient id="SVGID_23_" gradientUnits="userSpaceOnUse" x1="544.641" y1="658.542" x2="544.641" y2="627.995"><stop offset="0" stop-color="#61cbf7"/><stop offset="1" stop-color="#467ef7"/></linearGradient><path d="M543.2 630.6c-1.3 8.1-2.6 16.2-3.9 24.4-.6 4.1 5.7 5.1 6.4 1.1l4.2-24.3c.8-4.2-6.1-5.3-6.7-1.2z" fill="url(#SVGID_23_)"/><linearGradient id="SVGID_24_" gradientUnits="userSpaceOnUse" x1="473.86" y1="804.19" x2="473.86" y2="729.058"><stop offset="0" stop-color="#4625c1"/><stop offset="1" stop-color="#467ef7"/></linearGradient><path d="M472.9 729.1h2c8.6 0 15.5 6.9 15.5 15.5v44.2c0 8.6-6.9 15.5-15.5 15.5h-2c-8.6 0-15.5-6.9-15.5-15.5v-44.2c0-8.6 6.9-15.5 15.5-15.5z" fill="url(#SVGID_24_)"/><path class="st14" d="M473.9 735.1c6.6 0 11.9 5.3 11.9 11.9v9.7c0 6.6-5.3 11.9-11.9 11.9-6.6 0-11.9-5.3-11.9-11.9V747c-.1-6.6 5.3-11.9 11.9-11.9z"/><path d="M472.5 748.3c.6.6.9 1.3.9 2.3v2c0 .9-.4 1.7-.9 2.2-.6.6-1.4.9-2.5.9s-1.9-.3-2.5-.9c-.6-.6-.9-1.3-.9-2.2v-2c0-.9.4-1.7.9-2.3s1.4-.9 2.5-.9 2 .3 2.5.9zm-3.7 1.1c-.3.3-.5.7-.5 1.3v2c0 .5.2 1 .5 1.3.3.3.8.5 1.3.5s1-.2 1.3-.5c.3-.3.5-.7.5-1.3v-2c0-.5-.2-1-.5-1.3-.3-.3-.8-.5-1.3-.5s-1 .2-1.3.5zm11 6l-3.2-4.8v4.8c0 .1 0 .2-.1.2s-.1.1-.2.1h-.9c-.1 0-.2 0-.2-.1s-.1-.1-.1-.2V748c0-.1 0-.2.1-.2s.1-.1.2-.1h.8c.2 0 .3.1.5.3l3.2 4.8V748c0-.1 0-.2.1-.2s.1-.1.2-.1h.9c.1 0 .2 0 .2.1s.1.1.1.2v7.4c0 .1 0 .2-.1.2s-.1.1-.2.1h-.8c-.3-.1-.4-.1-.5-.3z" fill="#4625c1"/><path class="st56" d="M521.4 773.6v64.1c0 57.3-7 54.4-49.1 54.4"/><path class="st25" d="M450.9 791.5s.5 21.8 23 20.5"/></g></g></svg>