<svg xmlns="http://www.w3.org/2000/svg" xmlns:xlink="http://www.w3.org/1999/xlink" viewBox="0 0 1920.7 521"><style>.st13{fill:#fff}</style><g id="bg"><linearGradient id="SVGID_1_" gradientUnits="userSpaceOnUse" x1="960.611" y1="520.496" x2="960.611" y2=".951" gradientTransform="translate(-.45 1.11)"><stop offset="0" stop-color="#bc3b0d"/><stop offset="1" stop-color="#e85419"/></linearGradient><path d="M.7 347.5s210.2 272 891.2 134.9c387.9-78.1 820.6 21.6 1028.8-160.1L1920 0 0 2.1l.7 345.4z" fill="url(#SVGID_1_)"/><defs><path id="SVGID_108_" d="M.7 347.5s210.2 272 891.2 134.9c387.9-78.1 820.6 21.6 1028.8-160.1L1920 0 0 2.1l.7 345.4z"/></defs><clipPath id="SVGID_3_"><use xlink:href="#SVGID_108_" overflow="visible"/></clipPath><g opacity=".1" clip-path="url(#SVGID_3_)"><path class="st13" d="M1398.5 306.4c2.1-1 3.6-2.9 3.9-5.2.3-2.3-.5-4.6-2.3-6.1l-52.6-45.4c12.9-20.9 8.8-48.1-9.8-64.1-18.6-16-46.1-16.2-64.9-.4l-52.6-45.4c-1.8-1.5-4.2-2-6.4-1.4-2.2.7-3.9 2.4-4.6 4.6l-31.9 114c-10.6 37.3-29.2 71.9-54.5 101.4-10.2 11.9-8.9 29.8 2.9 40l32.7 28.2c11.9 10.2 29.8 8.9 40-2.9.2-.2.4-.4.5-.6l67.6 58.3c2.8 2.4 7.1 2.1 9.5-.7 18-20.9 15.7-52.4-5.2-70.5l-30.1-26c15.5-11.6 32.3-21.4 49.9-29.4l107.9-48.4zm-69.6-110.5c12.9 11.2 16.4 29.8 8.3 44.9l-53.8-46.5c13.6-10.2 32.6-9.5 45.5 1.6zm-150.9 224c-3.9.3-7.8-1-10.8-3.6l-32.7-28.2c-6.2-5.3-6.9-14.7-1.5-20.9 4.9-5.6 9.5-11.5 13.9-17.5l56.5 48.8c-5.3 5.2-10.4 10.7-15.3 16.3-2.5 3-6.2 4.8-10.1 5.1zm84 .6c13.2 11.4 16.5 30.7 7.7 45.8L1208 413c6.9-7.2 14.2-13.9 21.9-20.3l32.1 27.8zm-48.6-31.3l-58.7-50.7c15.8-24 27.8-50.2 35.7-77.8l29.3-103.6 163.7 141.3-98.2 44.1c-26.2 11.8-50.4 27.6-71.8 46.7zm0 0"/><path class="st13" d="M1374.3 159c-22.3-19.3-54-23.4-80.5-10.3-3.4 1.6-4.7 5.7-3.1 9.1 1.6 3.4 5.7 4.7 9.1 3.1 21.6-10.6 47.4-7.3 65.7 8.4 18.2 15.7 25.3 40.8 18 63.7-1.1 3.6.8 7.4 4.4 8.5 3.6 1.1 7.4-.8 8.5-4.4 8.9-28.1.2-58.8-22.1-78.1zm0 0"/><path class="st13" d="M1421.5 251.6c3.6 1.1 7.4-.8 8.5-4.4 13.3-41.4.5-86.8-32.5-115.2-32.9-28.4-79.7-34.4-118.7-15.3-2.2 1.1-3.6 3.2-3.8 5.6-.2 2.4 1 4.8 3 6.1 2 1.3 4.6 1.5 6.8.4 34.2-16.8 75.1-11.5 103.9 13.3 28.8 24.9 40 64.6 28.4 100.9-1.1 3.7.9 7.5 4.4 8.6zm52.3-318.7c-56.2 4.1-98.3 53-94.2 109.2s53 98.3 109.2 94.2c56.2-4.1 98.3-53 94.2-109.2-4.3-56.2-53.1-98.3-109.2-94.2zm13.9 189.8c-48.7 3.6-91.1-33-94.7-81.7-3.6-48.7 33-91.1 81.7-94.7 48.7-3.6 91.1 33 94.7 81.7 3.5 48.7-33 91.1-81.7 94.7zm0 0"/><path class="st13" d="M1516.9 20c13.9-1 24.4-13.1 23.4-27.1-1-13.9-13.1-24.4-27-23.4s-24.4 13.1-23.5 27l-30 20.4c-10.7-8-25.9-6.2-34.5 4-8.6 10.3-7.8 25.5 2 34.7 9.7 9.2 25 9.3 34.7.1l33.6 17.7c2.2 12.4 13.2 21.2 25.8 20.8 12.6-.4 22.9-10 24.3-22.5 1.4-12.5-6.6-24.1-18.7-27.3-12.2-3.2-24.8 3-29.8 14.6l-28.1-14.9c1.5-5.4 1.2-11.2-.9-16.5l26.4-18c5.1 7.1 13.6 11.1 22.3 10.4zm-2.7-36.9c6.5-.5 12.1 4.4 12.6 10.9s-4.4 12.1-10.9 12.6-12.1-4.4-12.6-10.9 4.4-12.2 10.9-12.6zM1445.6 49c-6.5.5-12.1-4.4-12.6-10.9s4.4-12.1 10.9-12.6 12.1 4.4 12.6 10.9c.4 6.4-4.4 12.1-10.9 12.6zm74 8.2c6.5-.5 12.1 4.4 12.6 10.9s-4.4 12.1-10.9 12.6-12.1-4.4-12.6-10.9c-.4-6.5 4.4-12.2 10.9-12.6zM1499.5 283c-56.2 4.1-98.3 53-94.2 109.2 4.1 56.2 53 98.3 109.2 94.2 56.2-4.1 98.3-53 94.2-109.2-4.2-56.1-53-98.2-109.2-94.2zm14 189.9c-48.7 3.6-91.1-33-94.7-81.7s33-91.1 81.7-94.7c48.7-3.6 91.1 33 94.7 81.7 3.5 48.7-33 91-81.7 94.7zm0 0"/><path class="st13" d="M1548.3 375.9l-57.8-30.1c-2.2-1.1-4.8-1-6.8.3s-3.2 3.7-3 6.1l5 68.4c.2 2.4 1.7 4.6 3.9 5.6s4.8.8 6.8-.7l52.8-38.3c1.9-1.4 2.9-3.6 2.8-6-.2-2.2-1.6-4.2-3.7-5.3zm-50 31.6l-3.3-44.2 37.3 19.5-34 24.7zM1138.5 162c56.2-4.1 98.3-53 94.2-109.2-4.1-56.2-53-98.3-109.2-94.2s-98.3 53-94.2 109.2c4.3 56.1 53.1 98.2 109.2 94.2zm-13.9-189.9c48.7-3.6 91.1 33 94.7 81.7s-33 91.1-81.7 94.7c-48.7 3.6-91.1-33-94.7-81.7-3.5-48.7 33-91 81.7-94.7zm0 0"/><path class="st13" d="M1092.6 103.7l48.3-3.6c9.9-.7 17.4-9.4 16.7-19.3l-.1-1.1 25.7 11.7c2.2 1 4.7.8 6.7-.6s3.1-3.7 2.9-6.1l-4.3-57.8c-.2-2.4-1.6-4.5-3.7-5.6-2.1-1.1-4.7-.9-6.7.4l-23.7 15.4-.1-1.1c-.7-9.9-9.4-17.4-19.3-16.7l-48.3 3.6c-9.9.7-17.4 9.4-16.7 19.3l3.3 44.7c.7 10.1 9.3 17.5 19.3 16.8zm83.2-64.3l2.6 35-22-10.1-.9-11.8 20.3-13.1zm-92.4 1.9c-.2-2.5 1.7-4.6 4.2-4.8l48.3-3.6c2.5-.2 4.6 1.7 4.8 4.2l3.3 44.7c.2 2.5-1.7 4.6-4.2 4.8l-48.3 3.6c-2.5.2-4.6-1.7-4.8-4.2l-3.3-44.7zm0 0"/></g></g></svg>