<svg xmlns="http://www.w3.org/2000/svg" xmlns:xlink="http://www.w3.org/1999/xlink" viewBox="0 0 1920 836.7"><style>.st2{clip-path:url(#SVGID_3_)}.st9{fill:#4625c1}.st14{fill:#fff}.st17{fill:none;stroke:#bfccd3;stroke-width:2;stroke-miterlimit:10}.st20{fill:#ff9b24}.st24{fill:#3537ab}.st25{fill:none;stroke-miterlimit:10;stroke-width:.5;stroke:#3537ab}.st31{fill:#53a9f4}.st36,.st60{fill:none;stroke:#53a9f4;stroke-width:.5;stroke-miterlimit:10}.st60{stroke:#6535e4}</style><g id="bg"><linearGradient id="SVGID_1_" gradientUnits="userSpaceOnUse" x1="960" y1="836.748" x2="960" y2="0"><stop offset="0" stop-color="#4625c1"/><stop offset="1" stop-color="#467ef7"/></linearGradient><path d="M0 607.8s124.4 160.5 261 198c136.5 37.5 241.5 52.5 630-22.5s820.5 22.5 1029-159V0H0v607.8z" fill="url(#SVGID_1_)"/><defs><path id="SVGID_9_" d="M0 607.8s124.4 160.5 261 198c136.5 37.5 241.5 52.5 630-22.5s820.5 22.5 1029-159V0H0v607.8z"/></defs><clipPath id="SVGID_3_"><use xlink:href="#SVGID_9_" overflow="visible"/></clipPath><g class="st2"><path class="st9" d="M63.9 316.9c-19.9 14.8-48.1 10.7-63-9.3l-53.7-72.2c-14.8-19.9-10.7-48.1 9.3-63 19.9-14.8 48.1-10.7 63 9.3l53.7 72.2c14.8 19.9 10.6 48.1-9.3 63zm-107 92.1c0-12.8 10.4-23.2 23.2-23.2h43.5c12.8 0 23.2 10.4 23.2 23.2 0 12.8-10.4 23.2-23.2 23.2h-43.5c-12.8 0-23.2-10.4-23.2-23.2zm169.3 1.7c4.1-5.2 11.6-6 16.8-1.9l17.5 13.9c5.2 4.1 6 11.6 1.9 16.8-4.1 5.2-11.6 6-16.8 1.9l-17.5-13.9c-5.1-4.2-6-11.7-1.9-16.8zm-33.5 93.9c2.4-3 6.7-3.5 9.7-1.1l2.4 1.9c3 2.4 3.5 6.7 1.1 9.7-2.4 3-6.7 3.5-9.7 1.1l-2.4-1.9c-3-2.3-3.5-6.7-1.1-9.7zm159.5-62c2.4-3 6.7-3.5 9.7-1.1l2.4 1.9c3 2.4 3.5 6.7 1.1 9.7-2.4 3-6.7 3.5-9.7 1.1l-2.4-1.9c-3-2.3-3.5-6.7-1.1-9.7z"/></g><g class="st2"><path class="st9" d="M1852.5 257.2c17.8 17.8 46.6 18 64.3.4l63.9-63.5c17.6-17.5 17.5-46.1-.4-63.9-17.8-17.8-46.6-18-64.3-.4l-63.9 63.5c-17.6 17.5-17.4 46.1.4 63.9zm94 107.7c1.8-12.7-7.1-24.7-20-26.6l-43.5-6.7c-12.8-2-24.7 6.8-26.5 19.5-1.8 12.7 7.1 24.7 20 26.6l43.5 6.7c12.8 2 24.7-6.7 26.5-19.5zm-169.6-24.2c-3.4-5.8-10.8-7.8-16.5-4.5l-19.5 11.1c-5.7 3.3-7.7 10.6-4.3 16.4 3.4 5.8 10.8 7.8 16.5 4.5l19.5-11.1c5.8-3.3 7.7-10.6 4.3-16.4zm20.3 98.4c-2-3.3-6.2-4.5-9.6-2.6l-2.6 1.5c-3.3 1.9-4.4 6.1-2.5 9.5 2 3.3 6.2 4.5 9.6 2.6l2.6-1.5c3.3-1.9 4.4-6.2 2.5-9.5zm-150.7-85.9c-2-3.3-6.2-4.5-9.6-2.6l-2.6 1.5c-3.3 1.9-4.4 6.1-2.5 9.5 2 3.3 6.2 4.5 9.6 2.6l2.6-1.5c3.3-1.9 4.4-6.2 2.5-9.5z"/></g><path d="M0 607.8s124.4 160.5 261 198c136.5 37.5 241.5 52.5 630-22.5s820.5 22.5 1029-159V0H0v607.8z" fill="none"/><defs><path id="SVGID_53_" d="M0 607.8s124.4 160.5 261 198c136.5 37.5 241.5 52.5 630-22.5s820.5 22.5 1029-159V0H0v607.8z"/></defs><clipPath id="SVGID_5_"><use xlink:href="#SVGID_53_" overflow="visible"/></clipPath><g clip-path="url(#SVGID_5_)"><linearGradient id="SVGID_7_" gradientUnits="userSpaceOnUse" x1="473.527" y1="904.248" x2="473.527" y2="656.227"><stop offset="0" stop-color="#61cbf7"/><stop offset="1" stop-color="#467ef7"/></linearGradient><path d="M537.4 656.2H409.7c-7.2 0-11 8.5-6.2 13.9l11.9 13.2c1.3 1.5 2.1 3.4 2.1 5.4l-.2 32.8-.1 17.1v134.8c0 17 13.8 30.8 30.8 30.8h50.1c17 0 30.8-13.8 30.8-30.8v-21.3c.3-2.3.4-4.6.4-6.9v-80.1l.1-43.2v-2.3l.1-16.4v-14.6c0-2 .8-3.9 2.2-5.4l11.9-13.2c4.8-5.2 1-13.8-6.2-13.8z" fill="url(#SVGID_7_)"/><path class="st14" d="M449.3 692.5c-.9 0-1.6-.7-1.6-1.6v-5c0-.9.7-1.6 1.6-1.6.9 0 1.6.7 1.6 1.6v5c0 .9-.7 1.6-1.6 1.6zm6.6 6.7c0-.9.7-1.6 1.6-1.6h5c.9 0 1.6.7 1.6 1.6 0 .9-.7 1.6-1.6 1.6h-5c-.9-.1-1.6-.8-1.6-1.6zm-1.9 4.6c.6-.6 1.6-.6 2.2 0l3.5 3.5c.6.6.6 1.6 0 2.2-.6.6-1.6.6-2.2 0L454 706c-.6-.6-.6-1.6 0-2.2zm-9.4-9.4c-.6.6-1.6.6-2.2 0l-3.5-3.5c-.6-.6-.6-1.6 0-2.2.6-.6 1.6-.6 2.2 0l3.5 3.5c.6.6.6 1.6 0 2.2zm9.4 0c-.6-.6-.6-1.6 0-2.2l3.5-3.5c.6-.6 1.6-.6 2.2 0 .6.6.6 1.6 0 2.2l-3.5 3.5c-.6.7-1.6.7-2.2 0zm-3.2 4.3v-.1s0-.1-.1-.1c0 0 0-.1-.1-.1-.1-.2-.3-.3-.5-.5l-.1-.1s-.1 0-.1-.1h-13.7c-.9 0-1.6.7-1.6 1.6 0 .9.7 1.6 1.6 1.6h9.3l-6.6 6.6c-.6.6-.6 1.6 0 2.2.3.3.7.5 1.1.5.4 0 .8-.2 1.1-.5l6.6-6.6v9.3c0 .9.7 1.6 1.6 1.6.9 0 1.6-.7 1.6-1.6v-13.2c0-.2 0-.4-.1-.5zm21.9-6c.3-.3.7-.4 1.1-.4.4 0 .8.1 1.1.4.3.3.5.7.5 1.1v10.7c0 .4-.2.8-.5 1.1-.3.3-.7.4-1.1.4-.4 0-.8-.1-1.1-.4-.3-.3-.5-.7-.5-1.1v-10.7c0-.5.2-.8.5-1.1zm7 2.7h-1.3c-.2 0-.4 0-.6-.1-.2-.1-.3-.2-.5-.4-.1-.1-.3-.3-.3-.5-.1-.2-.1-.4-.1-.5 0-.2 0-.4.1-.6.1-.2.2-.4.3-.5.1-.1.3-.3.5-.3.2-.1.4-.1.6-.1h5.8c.2 0 .4 0 .6.1.2.1.4.2.5.3.1.1.3.3.3.5.1.2.1.4.1.6 0 .2 0 .4-.1.5-.1.2-.2.3-.3.5-.1.1-.3.3-.5.4-.2.1-.4.1-.6.1h-1.3v9.1c0 .5-.2.8-.5 1.1-.3.3-.7.4-1.1.4-.4 0-.8-.1-1.1-.4-.3-.3-.5-.6-.5-1.1v-9.1zm15.3.8c-.3-.2-.7-.4-1.1-.6-.4-.2-.8-.2-1.3-.3-.5 0-1 .1-1.5.3-.5.2-.9.5-1.2.8-.3.3-.6.7-.8 1.2-.2.5-.3.9-.3 1.5 0 .5.1 1 .3 1.4.2.4.5.8.9 1.2.4.3.8.6 1.2.8.5.2.9.3 1.4.4.4 0 .8-.1 1.2-.2.4-.2.8-.4 1.1-.6.3-.3.7-.4 1.1-.4.4 0 .8.1 1.1.4.3.3.5.7.5 1.1 0 .4-.1.6-.3.9-.2.2-.3.4-.5.5-.1.1-.2.2-.4.3-.2.2-.5.3-.9.5s-.8.3-1.3.5c-.5.1-1.1.2-1.8.2-1 0-1.9-.2-2.7-.6-.8-.4-1.6-.9-2.2-1.5-.6-.6-1.1-1.4-1.5-2.2-.4-.8-.5-1.8-.5-2.7 0-1 .2-1.9.5-2.7.4-.8.9-1.6 1.5-2.2.6-.6 1.4-1.1 2.2-1.5.8-.4 1.7-.5 2.7-.5.7 0 1.3.1 1.8.2s.9.3 1.3.5.6.3.9.5c.2.2.3.3.4.3l.5.5c.2.2.3.5.3.9s-.2.8-.5 1.1c-.3.3-.7.5-1.1.5-.3-.1-.6-.3-1-.5zm17.1 4c-.1.6-.2 1.1-.5 1.6-.4.8-.9 1.6-1.5 2.2-.6.6-1.4 1.1-2.2 1.5-.8.4-1.7.5-2.7.5-1 0-1.9-.2-2.7-.5-.8-.4-1.6-.9-2.2-1.5-.6-.6-1.1-1.4-1.5-2.2-.4-.8-.5-1.7-.5-2.7 0-1 .2-1.9.5-2.7.4-.8.9-1.6 1.5-2.2.6-.6 1.4-1.1 2.2-1.5.8-.4 1.7-.6 2.7-.6.7 0 1.3.1 1.8.2s1 .3 1.3.5c.4.2.6.3.9.5.2.2.3.3.4.3l.5.5c.2.2.3.5.3.9s-.2.8-.5 1.1c-.3.3-.7.5-1.1.5-.4 0-.8-.1-1.1-.4-.3-.2-.7-.4-1.1-.6-.4-.2-.8-.2-1.3-.2s-1 .1-1.5.3c-.5.2-.9.5-1.2.8-.3.3-.6.8-.8 1.2-.2.5-.3 1-.3 1.5s.1 1 .3 1.5.5.9.8 1.2c.3.3.7.6 1.2.8.5.2.9.3 1.5.3s1.2-.1 1.7-.4c.5-.2.9-.6 1.3-1h-2.7c-.4 0-.8-.2-1.1-.5-.3-.3-.4-.7-.4-1.1 0-.4.1-.8.4-1.1.3-.3.7-.5 1.1-.5h5.1s.6 0 1 .4c.2.3.5.7.4 1.4z"/><linearGradient id="SVGID_8_" gradientUnits="userSpaceOnUse" x1="472.592" y1="668.538" x2="472.592" y2="614.125"><stop offset="0" stop-color="#4625c1"/><stop offset="1" stop-color="#467ef7"/></linearGradient><path d="M392.6 622.2c53.1-10.7 106.9-10.7 160 0 4 .8 6.8 5.7 6.2 10.9-1 9.1-2.1 18.2-3.1 27.4-.6 5.2-4.1 8.7-7.9 8-49.9-10.1-100.5-10.1-150.4 0-3.7.8-7.3-2.8-7.9-8-1-9.1-2.1-18.2-3.1-27.4-.6-5.2 2.2-10.1 6.2-10.9z" fill="url(#SVGID_8_)"/><linearGradient id="SVGID_10_" gradientUnits="userSpaceOnUse" x1="398.563" y1="658.542" x2="398.563" y2="627.993"><stop offset="0" stop-color="#61cbf7"/><stop offset="1" stop-color="#467ef7"/></linearGradient><path d="M393.2 631.7l4.2 24.3c.7 4 7 3 6.4-1.1-1.3-8.1-2.6-16.2-3.9-24.4-.5-4-7.4-2.9-6.7 1.2z" fill="url(#SVGID_10_)"/><linearGradient id="SVGID_11_" gradientUnits="userSpaceOnUse" x1="422.785" y1="655.273" x2="422.785" y2="624.554"><stop offset="0" stop-color="#61cbf7"/><stop offset="1" stop-color="#467ef7"/></linearGradient><path d="M418.1 628c1 8.2 1.9 16.3 2.9 24.5.5 4.1 6.9 3.4 6.4-.7-.8-8.2-1.7-16.4-2.5-24.5-.4-4.1-7.3-3.4-6.8.7z" fill="url(#SVGID_11_)"/><linearGradient id="SVGID_12_" gradientUnits="userSpaceOnUse" x1="447.12" y1="653.315" x2="447.12" y2="622.489"><stop offset="0" stop-color="#61cbf7"/><stop offset="1" stop-color="#467ef7"/></linearGradient><path d="M443.1 625.8l1.5 24.6c.3 4.1 6.7 3.8 6.5-.4l-1.2-24.6c-.1-4.1-7.1-3.7-6.8.4z" fill="url(#SVGID_12_)"/><linearGradient id="SVGID_13_" gradientUnits="userSpaceOnUse" x1="471.603" y1="652.66" x2="471.603" y2="621.799"><stop offset="0" stop-color="#61cbf7"/><stop offset="1" stop-color="#467ef7"/></linearGradient><path d="M468.2 624.9c.1 8.2.1 16.4.2 24.7 0 4.1 6.4 4.1 6.5 0 .1-8.2.1-16.4.2-24.7 0-4.1-7-4.1-6.9 0z" fill="url(#SVGID_13_)"/><linearGradient id="SVGID_14_" gradientUnits="userSpaceOnUse" x1="496.085" y1="653.315" x2="496.085" y2="622.488"><stop offset="0" stop-color="#61cbf7"/><stop offset="1" stop-color="#467ef7"/></linearGradient><path d="M493.2 625.4L492 650c-.2 4.1 6.2 4.5 6.5.4l1.5-24.6c.4-4.1-6.6-4.5-6.8-.4z" fill="url(#SVGID_14_)"/><linearGradient id="SVGID_16_" gradientUnits="userSpaceOnUse" x1="520.419" y1="655.275" x2="520.419" y2="624.552"><stop offset="0" stop-color="#61cbf7"/><stop offset="1" stop-color="#467ef7"/></linearGradient><path d="M518.3 627.3c-.8 8.2-1.7 16.4-2.5 24.5-.4 4.1 5.9 4.8 6.4.7 1-8.2 1.9-16.3 2.9-24.5.5-4.1-6.4-4.8-6.8-.7z" fill="url(#SVGID_16_)"/><linearGradient id="SVGID_17_" gradientUnits="userSpaceOnUse" x1="544.641" y1="658.542" x2="544.641" y2="627.995"><stop offset="0" stop-color="#61cbf7"/><stop offset="1" stop-color="#467ef7"/></linearGradient><path d="M543.2 630.6c-1.3 8.1-2.6 16.2-3.9 24.4-.6 4.1 5.7 5.1 6.4 1.1l4.2-24.3c.8-4.2-6.1-5.3-6.7-1.2z" fill="url(#SVGID_17_)"/><linearGradient id="SVGID_18_" gradientUnits="userSpaceOnUse" x1="473.86" y1="804.19" x2="473.86" y2="729.058"><stop offset="0" stop-color="#4625c1"/><stop offset="1" stop-color="#467ef7"/></linearGradient><path d="M472.9 729.1h2c8.6 0 15.5 6.9 15.5 15.5v44.2c0 8.6-6.9 15.5-15.5 15.5h-2c-8.6 0-15.5-6.9-15.5-15.5v-44.2c0-8.6 6.9-15.5 15.5-15.5z" fill="url(#SVGID_18_)"/><linearGradient id="SVGID_19_" gradientUnits="userSpaceOnUse" x1="473.86" y1="798.903" x2="473.86" y2="765.356"><stop offset="0" stop-color="#61cbf7"/><stop offset="1" stop-color="#467ef7"/></linearGradient><path d="M473.9 765.4c6.6 0 11.9 5.3 11.9 11.9v9.7c0 6.6-5.3 11.9-11.9 11.9-6.6 0-11.9-5.3-11.9-11.9v-9.7c-.1-6.6 5.3-11.9 11.9-11.9z" fill="url(#SVGID_19_)"/><path class="st9" d="M469.5 778.6c.6.6.9 1.3.9 2.3v2c0 .9-.4 1.7-.9 2.2-.6.6-1.4.9-2.5.9s-1.9-.3-2.5-.9c-.6-.6-.9-1.3-.9-2.2v-2c0-.9.4-1.7.9-2.3s1.4-.9 2.5-.9 2 .3 2.5.9zm-3.7 1c-.3.3-.5.7-.5 1.3v2c0 .5.2 1 .5 1.3.3.3.8.5 1.3.5s1-.2 1.3-.5c.3-.3.5-.7.5-1.3v-2c0-.5-.2-1-.5-1.3-.3-.3-.8-.5-1.3-.5s-1 .2-1.3.5zm11.6-1.7c.1.1.1.1.1.2v.8c0 .1 0 .2-.1.2s-.1.1-.2.1h-3.7v2.2h3.4c.1 0 .2 0 .2.1s.1.1.1.2v.8c0 .1 0 .2-.1.2s-.1.1-.2.1h-3.4v2.6c0 .1 0 .2-.1.2s-.1.1-.2.1h-.9c-.1 0-.2 0-.2-.1s-.1-.1-.1-.2V778c0-.1 0-.2.1-.2s.1-.1.2-.1h4.9l.2.2zm6.9 0c.1.1.1.1.1.2v.8c0 .1 0 .2-.1.2s-.1.1-.2.1h-3.7v2.2h3.4c.1 0 .2 0 .2.1s.1.1.1.2v.8c0 .1 0 .2-.1.2s-.1.1-.2.1h-3.4v2.6c0 .1 0 .2-.1.2s-.1.1-.2.1h-.9c-.1 0-.2 0-.2-.1s-.1-.1-.1-.2V778c0-.1 0-.2.1-.2s.1-.1.2-.1h4.9c.1.1.1.2.2.2z"/><path d="M521.4 773.6v64.1c0 57.3-7 54.4-49.1 54.4h0" fill="none" stroke="#fff" stroke-width=".5" stroke-miterlimit="10"/><path class="st25" d="M450.9 791.5s.5 21.8 23 20.5"/></g><ellipse class="st9" cx="479.2" cy="526.2" rx="162.4" ry="22.3"/><path d="M509.5 359.9L462 529.1m108.4-165.8l43 166.2m-67.6-166.2L542 518.5" fill="none" stroke="#bfccd3" stroke-miterlimit="10" stroke-width="3"/><path fill="#f1f2f2" stroke="#bfccd3" stroke-width="2" stroke-miterlimit="10" d="M463.2 134.5h171.6l-1.2 278.4-184.6-3z"/><path d="M634.7 155.9l.1-21.4H463.2l-1 19.6c42-.3 108.7 1 172.5 1.8z" opacity=".19" fill="#bfccd3" stroke="#f1f2f2" stroke-width="2" stroke-miterlimit="10"/><linearGradient id="SVGID_20_" gradientUnits="userSpaceOnUse" x1="477.686" y1="178.724" x2="477.686" y2="161.539"><stop offset="0" stop-color="#b63a00"/><stop offset="1" stop-color="#e85419"/></linearGradient><path d="M483.4 177.8c.2.2.2.3.2.4 0 .1-.1.3-.2.4-.1.1-.2.1-.4.1l-1.5-.1c-.3 0-.6-.1-.8-.4l-6.5-6.7-.2 6.2c0 .2-.1.3-.2.4-.1.1-.3.2-.5.2h-1c-.2 0-.3-.1-.4-.2-.1-.1-.2-.3-.2-.5l.6-15.5c0-.2.1-.3.2-.4s.3-.2.5-.2h1c.2 0 .3.1.4.2s.2.3.2.5l-.2 5.6 6.6-5.6c.2-.2.5-.3.9-.3l1.4.1c.1 0 .3.1.4.2.1.1.1.2.1.4 0 .1-.1.3-.3.4l-8 6.8 7.9 8z" fill="url(#SVGID_20_)"/><linearGradient id="SVGID_22_" gradientUnits="userSpaceOnUse" x1="492.475" y1="178.892" x2="492.475" y2="162.067"><stop offset="0" stop-color="#b63a00"/><stop offset="1" stop-color="#e85419"/></linearGradient><path d="M497.4 163.7c1.1.9 1.6 2.2 1.5 3.8 0 1.1-.3 2.1-.9 2.8-.5.8-1.3 1.3-2.2 1.7s-1.9.5-2.9.5l-4.4-.2-.2 5.9c0 .2-.1.3-.2.4-.1.1-.3.2-.5.2h-1c-.2 0-.3-.1-.4-.2-.1-.1-.2-.3-.2-.5l.6-15.5c0-.2.1-.3.2-.4.1-.1.3-.2.5-.2l6 .2c1.7.1 3 .6 4.1 1.5zm-4.5 6.7c1.2 0 2.1-.2 2.7-.7.6-.5 1-1.2 1-2.2.1-2-1.1-3-3.5-3.1l-4.3-.2-.2 5.9 4.3.3z" fill="url(#SVGID_22_)"/><linearGradient id="SVGID_23_" gradientUnits="userSpaceOnUse" x1="502.807" y1="179.454" x2="502.807" y2="162.629"><stop offset="0" stop-color="#b63a00"/><stop offset="1" stop-color="#e85419"/></linearGradient><path d="M501.6 179.2c-.1-.1-.2-.3-.2-.5l.6-15.5c0-.2.1-.3.2-.4.1-.1.3-.2.5-.2h1c.2 0 .3.1.4.2s.2.3.2.5l-.6 15.5c0 .2-.1.3-.2.4-.1.1-.3.2-.5.2h-1c-.2 0-.3-.1-.4-.2z" fill="url(#SVGID_23_)"/><path class="st17" d="M472.2 195L462 396.7l159.8 1.2"/><path class="st36" d="M430.2 444.6s3.3 1.4 7.3.2"/><linearGradient id="SVGID_24_" gradientUnits="userSpaceOnUse" x1="410.531" y1="316.291" x2="483.122" y2="316.291"><stop offset=".127" stop-color="#ff9b24"/><stop offset="1" stop-color="#ffcb3d"/></linearGradient><path d="M479 284.8c1.7-2.7 4.1-5.8 4.1-5.8 0-1-1.8-1.2-2.5-.6-8 6.6-12.5 7.8-12.5 7.8-2.5.7-6.2 1.8-6.2 1.8h-.1c3.4-2.4 9.1-7.6 6.8-8.5-2.5-.9-5.2 1.9-12.6 7.8-6.3 5 2 14.1 2 14.1s-24.9 33.6-28 35.7c-5.1-2.8-10.6-31-10.6-31s-10.4-11.7-8.7 13.1c1.7 24.8 13.5 34.5 13.5 34.5 8.3 6.7 35.2-41 39.4-48.6 3.3-.1 7.5-4 10.2-8.5.1 0 .3.1.5.1 1.4 0 2.5-1.2 2.5-2.8 0-.4-.1-.7-.2-1h.2c1.4 0 2.5-1.2 2.5-2.8 0-.4-.1-.7-.2-1 .6-.5 1-1.3 1-2.2 0-.8-.4-1.6-1.1-2.1zm-17.6 3.6z" fill="url(#SVGID_24_)"/><defs><path id="SVGID_70_" d="M473.1 382.9l26.5-57.4 24.2-7.3 12.9-35.7 35.1-18.9 10.2-29.3 31.4-44.8 1.4 198.1z"/></defs><clipPath id="SVGID_25_"><use xlink:href="#SVGID_70_" overflow="visible"/></clipPath><g clip-path="url(#SVGID_25_)"><path d="M488.4 312.4l-5.3 104.7m14.1-115.3L492 417.5m13.9-126.3l-5 126.7m13.7-137.3l-4.8 137.7M523.3 270l-4.6 148.7M532 259.5l-4.4 159.7m13.1-170.3l-4.1 170.7m12.9-181.3l-4 181.7m12.7-192.3l-3.8 192.7m12.5-203.3l-3.6 203.7m12.3-214.3l-3.4 214.7m12.1-225.3l-3.2 225.7M593 185.3L590 422m11.8-247.3l-2.9 247.7m11.6-258.3l-2.7 258.8" fill="none" stroke="#bfccd3" stroke-miterlimit="10"/></g><path class="st20" d="M476.6 382.6c7.8-17 15.7-33.9 23.5-50.9 1-2.2 2.1-4.3 3-6.5-.6 1.6-1.6.5-.3.6.6 0 1.4-.4 2-.6 2.8-.8 5.6-1.7 8.4-2.5 3.9-1.2 9.3-1.8 12.9-3.9 2-1.1 2.4-4 3.1-6.1 2-5.5 3.9-10.9 5.9-16.4 1.6-4.3 3.8-8.8 4.8-13.3.5-2 .5-.5-.1-.3 1.4-.5 2.7-1.4 4-2.1 5-2.7 10.1-5.4 15.1-8.1 4.4-2.4 8.8-4.7 13.2-7.1 2.1-1.1 3-1.5 3.8-3.7 3.4-9.5 5.7-19.5 8.6-29.2 1-3.3.8-3.1 2.7-5.5 3.4-4.4 6.7-8.8 10.1-13.2 6-7.8 11.9-15.6 17.9-23.4 1.5-1.9-1.8-3.8-3.2-1.9-5.1 6.6-10.1 13.2-15.2 19.9-3.4 4.4-6.8 8.9-10.1 13.3-1.5 2-3.6 4-4.6 6.2-1.3 2.8-1.8 6.3-2.7 9.2-1.6 5.6-3.3 11.2-4.9 16.8l-1.8 6c-.2.6-.4 1.1-.5 1.7-.2.9 1.4-1 .5-.7-3.5 1.3-6.8 3.6-10 5.4-5.2 2.8-10.5 5.6-15.7 8.4-2.7 1.5-6.8 2.8-9.1 4.9-1.7 1.6-2.2 4.8-3 6.9-2 5.4-3.9 10.9-5.9 16.3l-2.7 7.5c-.5 1.5-1.9 3.8-1.9 5.3 0 .1-.3.7-.3.7-1.1-1.6 2.7-1.2.2-.9-2.2.2-4.6 1.4-6.7 2-5 1.5-10.2 2.8-15.1 4.6-2 .7-2.4 1.4-3.2 3.3-8.5 18.4-17 36.9-25.6 55.3-1.3 2.3 1.9 4.2 2.9 2z"/><linearGradient id="SVGID_26_" gradientUnits="userSpaceOnUse" x1="502.613" y1="330.519" x2="502.613" y2="318.837"><stop offset="0" stop-color="#b63a00"/><stop offset="1" stop-color="#e85419"/></linearGradient><circle cx="502.6" cy="324.7" r="5.8" fill="url(#SVGID_26_)"/><linearGradient id="SVGID_27_" gradientUnits="userSpaceOnUse" x1="538.375" y1="287.127" x2="538.375" y2="275.445"><stop offset="0" stop-color="#b63a00"/><stop offset="1" stop-color="#e85419"/></linearGradient><circle cx="538.4" cy="281.3" r="5.8" fill="url(#SVGID_27_)"/><linearGradient id="SVGID_28_" gradientUnits="userSpaceOnUse" x1="574.08" y1="268.039" x2="574.08" y2="256.358"><stop offset="0" stop-color="#b63a00"/><stop offset="1" stop-color="#e85419"/></linearGradient><circle cx="574.1" cy="262.2" r="5.8" fill="url(#SVGID_28_)"/><linearGradient id="SVGID_29_" gradientUnits="userSpaceOnUse" x1="583.595" y1="234.269" x2="583.595" y2="222.587"><stop offset="0" stop-color="#b63a00"/><stop offset="1" stop-color="#e85419"/></linearGradient><circle cx="583.6" cy="228.4" r="5.8" fill="url(#SVGID_29_)"/><path class="st17" d="M465 206.1l7.2-11.1 5.4 11.1m139.3 185.5l6 6.3-8.1 5"/><linearGradient id="SVGID_30_" gradientUnits="userSpaceOnUse" x1="318.419" y1="331.663" x2="423.714" y2="331.663"><stop offset="0" stop-color="#467ef7"/><stop offset="1" stop-color="#61cbf7"/></linearGradient><path d="M412.9 355.2c-.3-4.1-1-16.2-1.7-27.5.1-2.2.1-4.4.1-6.7 4.4-1.9 7.3-2.7 12.4-6.5-2.6-11.7-8.4-30.2-16.5-37.6-2.2-2-3.7-3.2-4.9-3.9-3.9-2.5-9.4-3.7-11.2-4-8.9-1.6-19-1.5-30.5 1.3-3.6.7-7.4 1.8-11.4 3.5-12.7 5.5-26.4 21.2-30.8 30.9 6.5 2.3 12.8 5 17.7 9.8 2.8-4.8 6.6-9 10.5-12.6l-2 56.3s.3 16.6 1.8 24.3h2.6c3.2 11.7 10.6 17.7 25.7 7.6 7.4-4.9 15.4-8 22.1-10.5 6.7-1 12.7-2.2 17.6-3.8-.6-4.7-1.3-17.8-1.5-20.6z" fill="url(#SVGID_30_)"/><path d="M412.9 357.6h-.3.3z" fill="#61aaf7"/><linearGradient id="SVGID_31_" gradientUnits="userSpaceOnUse" x1="392.312" y1="533.444" x2="392.312" y2="375.916"><stop offset="0" stop-color="#30259a"/><stop offset="1" stop-color="#33313d"/></linearGradient><path d="M414.3 375.9c-21.9 5.8-44.9 4.6-67.6 6.6 1.1 19.2 5.4 31 10.6 52.1 12.8 51.5 18.2 90.6 18.2 90.6l7 1.5 5.2-116.5c11.6 18.6 27.8 37.9 27.8 37.9.1.1-1.6 26.8-.7 43.9 2.8 54.1 4.9 38.4 5.2 40.7l6.7.7s11.1-89 11.2-89.1c-1.1-9.2-10.4-32.4-23.6-68.4z" fill="url(#SVGID_31_)"/><linearGradient id="SVGID_32_" gradientUnits="userSpaceOnUse" x1="355.435" y1="529.133" x2="384.1" y2="529.133"><stop offset="0" stop-color="#467ef7"/><stop offset="1" stop-color="#61cbf7"/></linearGradient><path d="M355.9 534.8c-3-1.1 10.6-8.3 16.7-10 3.1-.9 6.3-1.2 9.6-1.4 1.1 3 2 9.3 2 9.3s-27.1 2.6-28.3 2.1z" fill="url(#SVGID_32_)"/><linearGradient id="SVGID_33_" gradientUnits="userSpaceOnUse" x1="416.95" y1="529.454" x2="448.912" y2="529.454"><stop offset="0" stop-color="#467ef7"/><stop offset="1" stop-color="#61cbf7"/></linearGradient><path d="M447.7 536.4c4.6.4-5.1-5.9-10.5-8.5-13.4-6.4-16-5.2-20.3-5.2l.2 12.2c.1-.1 28.3 1.3 30.6 1.5z" fill="url(#SVGID_33_)"/><path class="st36" d="M366 466.7s1.7 3.8 9.2 1.1"/><linearGradient id="SVGID_34_" gradientUnits="userSpaceOnUse" x1="356.165" y1="231.264" x2="401.689" y2="231.264"><stop offset=".127" stop-color="#ff9b24"/><stop offset="1" stop-color="#ffcb3d"/></linearGradient><path d="M401.7 223.6c0-.4-1.5-1.2-3.7-2.2.5-5.4.3-11.1-1-17-6-28.1-37.4-19.1-40-2-2.5 17.1 0 30.1 15 53.1l1.2 18.3s7.2 6.1 13.1-1.2l-1.1-15.8s9.6-13 12.3-31.1c2.2-.3 4.1-1 4.2-2.1z" fill="url(#SVGID_34_)"/><path class="st20" d="M408.3 346.1c-.2-.2-.3-.2-.3-.2.1 0 .2.1.3.2z"/><path class="st36" d="M362.5 387.2s-2.3 8.9-14.5 6.4m60.3-12.9s2 6.5 11.1 6.9m-33.1 13.8l6.1-1.2s.9-8.2.7-13.6"/><linearGradient id="SVGID_36_" gradientUnits="userSpaceOnUse" x1="318.419" y1="310.429" x2="336.659" y2="310.429"><stop offset="0" stop-color="#33313d"/><stop offset="1" stop-color="#4625c1"/></linearGradient><path d="M318.4 304.8s13.4 16.4 17.7 9.8c4.3-6.8-17.7-9.8-17.7-9.8z" fill="url(#SVGID_36_)"/><path class="st60" d="M343.4 290s.9 6.5 3.1 8.9m-.9 1.6s-2 .7-5.5-2.2"/><linearGradient id="SVGID_37_" gradientUnits="userSpaceOnUse" x1="372.651" y1="276.938" x2="385.997" y2="276.938"><stop offset="0" stop-color="#4625c1"/><stop offset="1" stop-color="#33313d"/></linearGradient><path d="M386 272.6c-2.2 1.3-7.4 3.6-12.4.2h-1l1.9 8.1 4.7-3.4 5.4 3.7 1.4-8.6z" fill="url(#SVGID_37_)"/><linearGradient id="SVGID_38_" gradientUnits="userSpaceOnUse" x1="378.996" y1="308.581" x2="383.04" y2="308.581"><stop offset="0" stop-color="#4625c1"/><stop offset="1" stop-color="#33313d"/></linearGradient><circle cx="381" cy="308.6" r="2" fill="url(#SVGID_38_)"/><linearGradient id="SVGID_39_" gradientUnits="userSpaceOnUse" x1="378.996" y1="299.498" x2="383.04" y2="299.498"><stop offset="0" stop-color="#4625c1"/><stop offset="1" stop-color="#33313d"/></linearGradient><circle cx="381" cy="299.5" r="2" fill="url(#SVGID_39_)"/><linearGradient id="SVGID_40_" gradientUnits="userSpaceOnUse" x1="378.671" y1="288.37" x2="382.715" y2="288.37"><stop offset="0" stop-color="#4625c1"/><stop offset="1" stop-color="#33313d"/></linearGradient><circle cx="380.7" cy="288.4" r="2" fill="url(#SVGID_40_)"/><path class="st60" d="M410.5 302.6s-.4 20.6 1.4 33"/><linearGradient id="SVGID_41_" gradientUnits="userSpaceOnUse" x1="456.993" y1="140.12" x2="641.74" y2="140.12"><stop offset="0" stop-color="#fff"/><stop offset="1" stop-color="#ccc"/></linearGradient><path d="M459.2 148.4l180.4 1.5c1.2 0 2.2-1 2.2-2.2v-15.1c0-1.2-1-2.2-2.2-2.2H460.1c-1.2 0-2.1.9-2.2 2.1l-.9 13.6c-.1 1.2.9 2.3 2.2 2.3z" fill="url(#SVGID_41_)"/><linearGradient id="SVGID_42_" gradientUnits="userSpaceOnUse" x1="315.808" y1="336.213" x2="353.681" y2="336.213"><stop offset=".127" stop-color="#ff9b24"/><stop offset="1" stop-color="#ffcb3d"/></linearGradient><path d="M352.3 353.6c1.5-.7 2-3.1.6-4.2-3.1-1.1-6.2.4-6.2.4l-.5-.9c.1-.1 3-1.5 6.2-.7 1.4-1.3.9-4.4-1.6-4.4-1.8 0-3.6.3-5.2 1.1-2.6 1.3-3.6 3.9-3.3 6.6-.7 1.2-1.1 2.6-1.1 4.1-.9.7-1.6 1.6-2 2.7-7.2-4.7-15-12.1-15.5-23.8-.2-4.8 1.8-13.4 5.4-21l.3-.6c.1-.3.3-.6.5-.9.7-1.3 1.4-2.6 2.2-3.9-3-1.3-6.7-2.2-9.5-2.8-.2.3-.3.7-.4 1-.2.4-.3.7-.4 1.1-.1.1-.1.3-.2.4-2.2 5.6-3.7 11.1-4.5 16.5-.6.8-1.1 1.9-1 2.7 0 .4.3 1 .6 1.6-.6 11.3 2.5 21.3 10.2 27.9 9 7.7 14.3 10.4 18.4 10.4 1 0 1.5-2.2 1.1-4.8h.2c.3 0 .6.1.9.1.3.1 1.9.7.8.2 1.2.5 2.7.4 3.4-.9.2-.4.3-1 .3-1.5-2-2.3-5.1-2.7-5.1-2.7l.1-1c.1 0 2.4.3 4.4 1.9.6-.3 1.1-.8 1.3-1.5.2-.6 0-1.4-.3-2-2.3-1.5-5.1-1.2-5.6-1.1.2-.4.4-.8.7-1.1.9.1 2.9.1 4.8 1.1z" fill="url(#SVGID_42_)"/><path class="st31" d="M336 361.4l-2.1 3.4-2.3-1.6 2.4-3.3z"/><path d="M338.7 360.3l.1-.1c.9-1.4.5-3.2-.8-4.1-1.4-.9-3.2-.5-4.1.8l-.1.1c-.9 1.4-.5 3.2.8 4.1 1.4 1 3.2.6 4.1-.8z" fill="#d9dbe8"/><path class="st31" d="M338.2 360l.1-.1c.7-1.1.4-2.5-.7-3.3-1.1-.7-2.5-.4-3.3.7l-.1.1c-.7 1.1-.4 2.5.7 3.3 1.1.7 2.6.4 3.3-.7z"/><ellipse transform="matrix(.01297 -.9999 .9999 .01297 152.571 583.967)" class="st24" cx="372.1" cy="214.7" rx="1.3" ry="1.5"/><ellipse transform="rotate(-15.138 390.857 214.42)" class="st24" cx="390.9" cy="214.4" rx="1.1" ry="1.1"/><path class="st14" d="M377 229.8c-3.7 1.1-5.2-.2-6.7-1.3-.5-.4-1.3.1-1.1.7.1.3.1.5.2.8 1.7 1.6 6 2.3 7.3 1.6.2-1.4.3-1.8.3-1.8z"/><path class="st25" d="M382.3 213.3c.1 4.5-4.3 9.1-9.5 9.2s-9.3-4.4-9.4-8.8c-.1-4.5 4-8.1 9.2-8.3 5.3-.1 9.6 3.4 9.7 7.9zm20.7-.5c.1 4.5-4.3 9.1-9.5 9.2s-9.3-4.4-9.4-8.8c-.1-4.5 4-8.1 9.2-8.3 5.3 0 9.6 3.5 9.7 7.9z"/><path class="st25" d="M386.6 226.7s15.4-.3 14.9-3-18.6-6.9-18.6-6.9m-.8-5.3s1.1-.6 2.3.1"/><path d="M372.6 207.8s5.1-.7 7.1 4.2m12.4-4.6s5.1-.7 7.1 4.2" stroke="#f5fbff" fill="none" stroke-miterlimit="10"/><linearGradient id="SVGID_43_" gradientUnits="userSpaceOnUse" x1="354.384" y1="199.16" x2="397.825" y2="199.16"><stop offset="0" stop-color="#4625c1"/><stop offset="1" stop-color="#33313d"/></linearGradient><path d="M387.8 176.9c-17.7-5.7-33.8.1-29.6 12.2-1.3.5-2.4 1.6-2.9 3.4-2 7.3-.2 25.1-.2 25.1 3.4-1.4 5.4 5.2 5.4 5.2l2 .8s-4.6-16.4 2.2-19.9 3.4-13.1 3.4-13.1 10.1 9 26 1.5c.1-.1 11.5-9.5-6.3-15.2z" fill="url(#SVGID_43_)"/><path d="M395 188.4s-14.2 7.4-26.8-.8" fill="none" stroke="#d9dbe8" stroke-width=".5" stroke-miterlimit="10"/><path class="st25" d="M378 229.6c-3.7 1.1-6.3.1-7.7-1-.5-.4-1.3.1-1.1.7.6 2.7 2.8 6.1 5.4 5.8"/><ellipse transform="rotate(-27.839 356.18 221.6)" class="st20" cx="356.2" cy="221.6" rx="4.1" ry="5.4"/><path d="M353.9 218.7s4-.4 4.3 4.9" fill="none" stroke="#ce7c24" stroke-width=".5" stroke-miterlimit="10"/></g></svg>