<svg version="1.1" id="Layer_1" xmlns="http://www.w3.org/2000/svg" x="0" y="0" viewBox="0 0 1000 1000" xml:space="preserve"><style>.st0{fill:#fff}</style><path class="st0" d="M510 493.6l-.4.1-2 .2-.6.9-.4-.1-1.6-1.4-.2-.7-.3-.8-1-.9-1.2-.2v.5l1.2 1.1.6.7-.6.3-.5-.2-.8-.3v-.6l-1-.4-.3 1.5-1 .2.1.8 1.3.3.2-1.3 1.1.2.5.3h.8l.6 1.1 1.5 1.5-.1.6-1.2-.2-2.1 1.1-1.5 1.8-.2.8h-.5l-1-.5-1 .5.2 1 .4-.5h.7l-.1.9.6.2.6.7 1-.3 1.2.2 1.3.4.7.1 1.1 1.3 2.2 1.3-1.4 2.7-1.5.7-.6 1.5-2.2 1.4-.2.8c5.5-1.3 9.6-6.3 9.6-12.2.1-2.7-.7-5.1-2-7.1zm0 0"/><path class="st0" d="M501 507.1l-.9-1.7.8-1.8-.8-.3-.9-.9-2.1-.5-.7-1.5v.9h-.3l-1.8-2.4v-2l-1.3-2.1-2.1.4h-1.4l-.7-.5.9-.7-.9.2c-1.1 1.9-1.7 4-1.7 6.3 0 6.9 5.6 12.6 12.6 12.6.5 0 1.1 0 1.6-.1l-.1-1.5.6-2.3c-.2-.1-.8-2.1-.8-2.1zm-9.3-15l2.2-.3 1-.6 1.2.3 1.8-.1.6-1 .9.2 2.2-.2.6-.7.9-.6 1.2.2.5-.1c-1.6-.8-3.4-1.2-5.4-1.2-3.9 0-7.4 1.8-9.7 4.6l2-.5zm8.4-2.8l1.3-.7.8.5-1.2.9-1.1.1-.5-.3.7-.5zm-3.8.1l.6.2.7-.2.4.7-1.7.4-.8-.5s.8-.5.8-.6zm0 0"/></svg>