<svg xmlns="http://www.w3.org/2000/svg" version="1.1" id="bg" x="0" y="0" viewBox="0 0 134.545 226.3" xml:space="preserve" width="134.545" height="226.3"><style type="text/css" id="style143">.st1{fill:#fff}.st12{fill:#4625c1}</style><linearGradient id="SVGID_1_" gradientUnits="userSpaceOnUse" x1="1515.907" y1="1271.31" x2="1515.907" y2="1077.737" gradientTransform="translate(-1447.926 -1044.9)"><stop offset="0" id="stop145" stop-color="#61cbf7"/><stop offset="1" id="stop147" stop-color="#467ef7"/></linearGradient><path d="M117.874 32.8h-99.7c-5.6 0-8.6 6.7-4.8 10.8l9.3 10.3c1 1.2 1.6 2.7 1.6 4.2l-.1 25.6-.1 13.3v105.3c0 13.3 10.7 24 24 24h39.1c13.3 0 24-10.7 24-24v-16.6c.2-1.8.3-3.6.3-5.4v-62.5l.1-33.7v-1.8l.1-12.8V58.2c0-1.6.6-3.1 1.7-4.2l9.3-10.3c3.7-4.2.8-10.9-4.8-10.9z" id="path150" fill="url(#SVGID_1_)"/><g id="g174" transform="translate(-1447.926 -1044.9)"><g id="g172"><path class="st1" d="M1497 1106c-.7 0-1.2-.6-1.2-1.2v-3.9c0-.7.6-1.2 1.2-1.2.7 0 1.2.6 1.2 1.2v3.9c0 .7-.5 1.2-1.2 1.2z" id="path152" fill="#fff"/><path class="st1" d="M1502.2 1111.2c0-.7.6-1.2 1.2-1.2h3.9c.7 0 1.2.6 1.2 1.2 0 .7-.6 1.2-1.2 1.2h-3.9c-.7.1-1.2-.5-1.2-1.2z" id="path154" fill="#fff"/><path class="st1" d="M1500.7 1114.9c.5-.5 1.3-.5 1.8 0l2.7 2.7c.5.5.5 1.3 0 1.8s-1.3.5-1.8 0l-2.7-2.7c-.5-.6-.5-1.3 0-1.8z" id="path156" fill="#fff"/><path class="st1" d="M1493.4 1107.6c-.5.5-1.3.5-1.8 0l-2.7-2.7c-.5-.5-.5-1.3 0-1.8s1.3-.5 1.8 0l2.7 2.7c.4.5.4 1.3 0 1.8z" id="path158" fill="#fff"/><path class="st1" d="M1500.7 1107.6c-.5-.5-.5-1.3 0-1.8l2.7-2.7c.5-.5 1.3-.5 1.8 0s.5 1.3 0 1.8l-2.7 2.7c-.6.4-1.4.4-1.8 0z" id="path160" fill="#fff"/><path class="st1" d="M1498.2 1110.9v-.2s0-.1-.1-.1c-.1-.1-.2-.3-.4-.4 0 0-.1 0-.1-.1h-10.8c-.7 0-1.2.6-1.2 1.2 0 .7.6 1.2 1.2 1.2h7.3l-5.2 5.2c-.5.5-.5 1.3 0 1.8.2.2.6.4.9.4.3 0 .6-.1.9-.4l5.2-5.2v7.3c0 .7.6 1.2 1.2 1.2.7 0 1.2-.6 1.2-1.2v-10.3c-.1-.2-.1-.3-.1-.4z" id="path162" fill="#fff"/><path class="st1" d="M1515.2 1106.2c.2-.2.5-.3.9-.3.3 0 .6.1.9.3.2.2.4.5.4.9v8.3c0 .3-.1.6-.4.9-.2.2-.5.3-.9.3-.3 0-.6-.1-.9-.3-.2-.2-.4-.5-.4-.9v-8.3c.1-.4.2-.7.4-.9z" id="path164" fill="#fff"/><path class="st1" d="M1520.7 1108.3h-1c-.2 0-.3 0-.4-.1-.1-.1-.3-.2-.4-.3-.1-.1-.2-.2-.3-.4-.1-.1-.1-.3-.1-.4 0-.2 0-.3.1-.5s.2-.3.3-.4c.1-.1.2-.2.4-.3.1-.1.3-.1.4-.1h4.5c.2 0 .3 0 .4.1.1.1.3.2.4.3.1.1.2.2.3.4.1.2.1.3.1.5 0 .1 0 .3-.1.4-.1.1-.2.3-.3.4-.1.1-.2.2-.4.3-.1.1-.3.1-.4.1h-1.1v7.1c0 .4-.1.6-.4.9-.2.2-.5.3-.9.3-.3 0-.6-.1-.9-.3-.2-.2-.4-.5-.4-.9v-7.1z" id="path166" fill="#fff"/><path class="st1" d="M1532.7 1108.9c-.2-.2-.5-.3-.9-.5-.3-.1-.6-.2-1-.2s-.8.1-1.2.3c-.4.2-.7.4-.9.6-.3.3-.5.6-.6.9-.2.4-.2.7-.2 1.1 0 .4.1.8.3 1.1.2.3.4.7.7.9.3.3.6.5 1 .6.4.2.7.3 1.1.3.3 0 .6-.1 1-.2.3-.1.6-.3.9-.5.3-.2.5-.3.9-.3.3 0 .6.1.9.3.2.2.4.5.4.9 0 .3-.1.5-.2.7-.1.2-.3.3-.4.4 0 0-.2.1-.3.3-.2.1-.4.3-.7.4-.3.1-.6.3-1 .4-.4.1-.9.2-1.4.2-.7 0-1.4-.1-2.1-.4-.7-.3-1.2-.7-1.7-1.2s-.9-1.1-1.2-1.7c-.3-.7-.4-1.4-.4-2.1 0-.7.1-1.4.4-2.1.3-.7.7-1.2 1.2-1.7s1.1-.9 1.7-1.2c.7-.3 1.4-.4 2.1-.4.5 0 1 .1 1.4.2.4.1.7.2 1 .4.3.1.5.3.7.4.2.1.3.2.3.2l.4.4c.1.2.2.4.2.7 0 .3-.1.6-.4.9-.2.2-.5.4-.9.4-.6-.2-.9-.3-1.1-.5z" id="path168" fill="#fff"/><path class="st1" d="M1546 1112.1c-.1.4-.2.9-.4 1.3-.3.7-.7 1.2-1.2 1.7s-1.1.9-1.7 1.2c-.7.3-1.4.4-2.1.4-.7 0-1.4-.1-2.1-.4-.7-.3-1.2-.7-1.7-1.2s-.9-1.1-1.2-1.7c-.3-.7-.4-1.4-.4-2.1 0-.7.1-1.5.4-2.1.3-.7.7-1.2 1.2-1.7s1.1-.9 1.7-1.2c.7-.3 1.4-.4 2.1-.4.5 0 1 .1 1.4.2.4.1.7.2 1 .4.3.1.5.3.7.4.2.1.3.2.3.2l.4.4c.1.2.2.4.2.7 0 .3-.1.6-.4.9-.2.2-.5.4-.9.4-.3 0-.6-.1-.9-.3-.2-.2-.5-.3-.9-.5-.3-.1-.7-.2-1-.2-.4 0-.8.1-1.1.2-.4.2-.7.4-.9.6-.3.3-.5.6-.6 1-.2.4-.2.8-.2 1.2 0 .4.1.8.2 1.2.2.4.4.7.6.9.3.3.6.5.9.6.4.2.7.2 1.1.2.5 0 .9-.1 1.3-.3.4-.2.7-.5 1-.8h-2.1c-.3 0-.6-.1-.9-.4-.2-.2-.3-.5-.3-.9 0-.3.1-.6.3-.9.2-.2.5-.4.9-.4h3.9s.4 0 .8.3c.5.2.7.5.6 1.1z" id="path170" fill="#fff"/></g></g><path d="M-1.326-16.3c47.5-6.9 95.7-6.9 143.2 0 3.6.5 6 3.7 5.5 7-.9 5.9-1.9 11.7-2.8 17.6-.5 3.3-3.7 5.6-7 5.1-44.6-6.5-90-6.5-134.6 0-3.4.5-6.5-1.8-7-5.1-.9-5.9-1.9-11.7-2.8-17.6-.5-3.3 2-6.5 5.5-7z" id="path176" fill="none"/><g id="g250" transform="translate(-1447.926 -1044.9)"><linearGradient id="SVGID_2_" gradientUnits="userSpaceOnUse" x1="1515.177" y1="1087.345" x2="1515.177" y2="1044.877"><stop offset="0" id="stop178" stop-color="#4625c1"/><stop offset="1" id="stop180" stop-color="#467ef7"/></linearGradient><path d="M1452.7 1051.2c41.4-8.4 83.5-8.4 124.9 0 3.1.6 5.3 4.5 4.8 8.5-.8 7.1-1.6 14.2-2.4 21.4-.5 4.1-3.2 6.8-6.1 6.2-38.9-7.9-78.5-7.9-117.4 0-2.9.6-5.7-2.2-6.1-6.2-.8-7.1-1.6-14.2-2.4-21.4-.5-4.1 1.6-7.9 4.7-8.5z" id="path183" fill="url(#SVGID_2_)"/><g id="g248"><g id="g192"><linearGradient id="SVGID_3_" gradientUnits="userSpaceOnUse" x1="1457.4" y1="1079.544" x2="1457.4" y2="1055.701"><stop offset="0" id="stop185" stop-color="#61cbf7"/><stop offset="1" id="stop187" stop-color="#467ef7"/></linearGradient><path d="M1453.2 1058.6c1.1 6.3 2.2 12.6 3.3 19 .6 3.2 5.5 2.3 5-.8-1-6.3-2-12.7-3-19-.5-3.3-5.8-2.4-5.3.8z" id="path190" fill="url(#SVGID_3_)"/></g><g id="g201"><linearGradient id="SVGID_4_" gradientUnits="userSpaceOnUse" x1="1476.304" y1="1076.992" x2="1476.304" y2="1053.017"><stop offset="0" id="stop194" stop-color="#61cbf7"/><stop offset="1" id="stop196" stop-color="#467ef7"/></linearGradient><path d="M1472.7 1055.7c.8 6.4 1.5 12.7 2.3 19.1.4 3.2 5.4 2.6 5-.6-.7-6.4-1.3-12.8-2-19.2-.3-3.1-5.7-2.5-5.3.7z" id="path199" fill="url(#SVGID_4_)"/></g><g id="g210"><linearGradient id="SVGID_5_" gradientUnits="userSpaceOnUse" x1="1495.297" y1="1075.464" x2="1495.297" y2="1051.405"><stop offset="0" id="stop203" stop-color="#61cbf7"/><stop offset="1" id="stop205" stop-color="#467ef7"/></linearGradient><path d="M1492.2 1054l1.2 19.2c.2 3.2 5.2 2.9 5-.3l-.9-19.2c-.1-3.2-5.5-2.9-5.3.3z" id="path208" fill="url(#SVGID_5_)"/></g><g id="g219"><linearGradient id="SVGID_6_" gradientUnits="userSpaceOnUse" x1="1514.405" y1="1074.953" x2="1514.405" y2="1050.867"><stop offset="0" id="stop212" stop-color="#61cbf7"/><stop offset="1" id="stop214" stop-color="#467ef7"/></linearGradient><path d="M1511.7 1053.3c0 6.4.1 12.8.1 19.3 0 3.2 5 3.2 5.1 0 0-6.4.1-12.8.1-19.3.1-3.2-5.3-3.2-5.3 0z" id="path217" fill="url(#SVGID_6_)"/></g><g id="g228"><linearGradient id="SVGID_7_" gradientUnits="userSpaceOnUse" x1="1533.513" y1="1075.464" x2="1533.513" y2="1051.404"><stop offset="0" id="stop221" stop-color="#61cbf7"/><stop offset="1" id="stop223" stop-color="#467ef7"/></linearGradient><path d="M1531.3 1053.7l-.9 19.2c-.1 3.2 4.8 3.5 5 .3l1.2-19.2c.2-3.2-5.2-3.6-5.3-.3z" id="path226" fill="url(#SVGID_7_)"/></g><g id="g237"><linearGradient id="SVGID_8_" gradientUnits="userSpaceOnUse" x1="1552.505" y1="1076.994" x2="1552.505" y2="1053.015"><stop offset="0" id="stop230" stop-color="#61cbf7"/><stop offset="1" id="stop232" stop-color="#467ef7"/></linearGradient><path d="M1550.8 1055.2c-.7 6.4-1.3 12.8-2 19.2-.3 3.2 4.6 3.7 5 .6.8-6.4 1.5-12.7 2.3-19.1.4-3.4-4.9-4-5.3-.7z" id="path235" fill="url(#SVGID_8_)"/></g><g id="g246"><linearGradient id="SVGID_9_" gradientUnits="userSpaceOnUse" x1="1571.41" y1="1079.543" x2="1571.41" y2="1055.703"><stop offset="0" id="stop239" stop-color="#61cbf7"/><stop offset="1" id="stop241" stop-color="#467ef7"/></linearGradient><path d="M1570.3 1057.7c-1 6.3-2 12.7-3 19-.5 3.2 4.4 4 5 .8 1.1-6.3 2.2-12.6 3.3-19 .5-3.1-4.8-4-5.3-.8z" id="path244" fill="url(#SVGID_9_)"/></g></g></g><linearGradient id="SVGID_10_" gradientUnits="userSpaceOnUse" x1="1516.167" y1="1193.218" x2="1516.167" y2="1134.579" gradientTransform="translate(-1447.926 -1044.9)"><stop offset="0" id="stop252" stop-color="#4625c1"/><stop offset="1" id="stop254" stop-color="#467ef7"/></linearGradient><path d="M68.274 89.7c7.1 0 12.9 5.8 12.9 12.9v32.9c0 7.1-5.8 12.9-12.9 12.9-7.1 0-12.9-5.8-12.9-12.9v-32.9c0-7.2 5.8-12.9 12.9-12.9z" id="path257" fill="url(#SVGID_10_)"/><path class="st1" d="M68.274 94.4c5.1 0 9.3 4.2 9.3 9.3v7.6c0 5.1-4.2 9.3-9.3 9.3-5.1 0-9.3-4.2-9.3-9.3v-7.6c0-5.1 4.1-9.3 9.3-9.3z" id="path259" fill="#fff"/><path class="st12" d="M63.374 109.9c-.5-.4-.7-1-.7-1.8v-1.6c0-.8.3-1.4.7-1.8.5-.4 1.1-.6 1.9-.6.8 0 1.4.2 1.9.6.5.4.7 1 .7 1.8v1.6c0 .8-.3 1.4-.7 1.8-.4.4-1.1.6-1.9.6-.8 0-1.5-.2-1.9-.6zm2.9-.8c.2-.2.4-.6.4-1.1v-1.4c0-.5-.1-.9-.4-1.1-.2-.2-.6-.4-.9-.4-.4 0-.7.1-1 .4-.2.2-.4.6-.4 1.1v1.4c0 .5.1.9.4 1.1.2.2.6.4 1 .4.3 0 .6-.1.9-.4z" id="path261" fill="#4625c1"/><path class="st12" d="M69.174 110.4s-.1-.1-.1-.2v-5.9c0-.1 0-.1.1-.2s.1-.1.2-.1h.7c.1 0 .2.1.3.2l2.6 4v-3.9c0-.1 0-.1.1-.2s.1-.1.2-.1h.8c.1 0 .1 0 .2.1s.1.1.1.2v5.8c0 .1 0 .1-.1.2 0 0-.1.1-.2.1h-.7c-.1 0-.2-.1-.3-.2l-2.6-3.9v3.8c0 .1 0 .1-.1.2 0 0-.1.1-.2.1h-1z" id="path263" fill="#4625c1"/><path d="M105.274 124.4v50c0 44.7-5.5 42.5-38.4 42.5v0" id="path265" fill="none" stroke="#fff" stroke-width=".5" stroke-miterlimit="10"/><path d="M50.274 138.4s.4 17 17.9 16" id="path267" fill="none" stroke="#3537ab" stroke-width=".5" stroke-miterlimit="10"/></svg>