<svg version="1.1" id="bg" xmlns="http://www.w3.org/2000/svg" x="0" y="0" viewBox="0 0 134.6 226.4" xml:space="preserve"><linearGradient id="SVGID_1_" gradientUnits="userSpaceOnUse" x1="68.037" y1="226.433" x2="68.037" y2="32.859"><stop offset="0" stop-color="#61cbf7"/><stop offset="1" stop-color="#467ef7"/></linearGradient><path d="M117.9 32.9H18.2c-5.6 0-8.6 6.7-4.8 10.8L22.6 54c1 1.2 1.6 2.7 1.6 4.2l-.1 25.6-.1 13.3v105.3c0 13.3 10.7 24 24 24h39.1c13.3 0 24-10.7 24-24v-16.6c.2-1.8.3-3.6.3-5.4v-62.5l.1-33.7v-1.8l.1-12.8V58.3c0-1.6.6-3.1 1.7-4.2l9.3-10.3c3.9-4.3.9-10.9-4.7-10.9z" fill="url(#SVGID_1_)"/><path d="M49.1 61.2c-.7 0-1.2-.6-1.2-1.2v-4c0-.7.6-1.2 1.2-1.2.7 0 1.2.6 1.2 1.2v3.9c.1.7-.5 1.3-1.2 1.3zm5.2 5.2c0-.7.6-1.2 1.2-1.2h3.9c.7 0 1.2.6 1.2 1.2 0 .7-.6 1.2-1.2 1.2h-3.9c-.6 0-1.2-.6-1.2-1.2zM52.8 70c.5-.5 1.3-.5 1.8 0l2.7 2.7c.5.5.5 1.3 0 1.8s-1.3.5-1.8 0l-2.7-2.7c-.5-.5-.5-1.3 0-1.8zm-7.3-7.3c-.5.5-1.3.5-1.8 0L41 59.9c-.5-.5-.5-1.3 0-1.8s1.3-.5 1.8 0l2.7 2.7c.5.6.5 1.4 0 1.9zm7.3 0c-.5-.5-.5-1.3 0-1.8l2.7-2.7c.5-.5 1.3-.5 1.8 0s.5 1.3 0 1.8l-2.7 2.7c-.5.5-1.3.5-1.8 0zM50.3 66v-.2s0-.1-.1-.1c-.1-.1-.2-.3-.4-.4 0 0-.1 0-.1-.1H38.9c-.7 0-1.2.6-1.2 1.2 0 .7.6 1.2 1.2 1.2h7.3L41 72.7c-.5.5-.5 1.3 0 1.8.2.2.6.4.9.4.3 0 .6-.1.9-.4l5.2-5.2v7.3c0 .7.6 1.2 1.2 1.2.7 0 1.2-.6 1.2-1.2V66.3c0-.1 0-.2-.1-.3zm17.1-4.7c.2-.2.5-.3.9-.3.3 0 .6.1.9.3.2.2.4.5.4.9v8.3c0 .3-.1.6-.4.9-.2.2-.5.3-.9.3-.3 0-.6-.1-.9-.3-.2-.2-.4-.5-.4-.9v-8.3c0-.4.1-.7.4-.9zm5.4 2.1h-1c-.2 0-.3 0-.4-.1-.1-.1-.3-.2-.4-.3-.1-.1-.2-.2-.3-.4-.1-.1-.1-.3-.1-.4 0-.2 0-.3.1-.5s.2-.3.3-.4c.1-.1.2-.2.4-.3.1-.1.3-.1.4-.1h4.5c.2 0 .3 0 .4.1.1.1.3.2.4.3.1.1.2.2.3.4.1.2.1.3.1.5 0 .1 0 .3-.1.4-.1.1-.2.3-.3.4-.1.1-.2.2-.4.3-.1.1-.3.1-.4.1h-1.1v7.1c0 .4-.1.6-.4.9-.2.2-.5.3-.9.3-.3 0-.6-.1-.9-.3-.2-.2-.4-.5-.4-.9v-7.1zm12 .6c-.2-.2-.5-.3-.9-.5-.3-.1-.6-.2-1-.2s-.8.1-1.2.3c-.4.2-.7.4-.9.6-.3.3-.5.6-.6.9-.2.4-.2.7-.2 1.1 0 .4.1.8.3 1.1.2.3.4.7.7.9.3.3.6.5 1 .6.4.2.7.3 1.1.3.3 0 .6-.1 1-.2.3-.1.6-.3.9-.5.3-.2.5-.3.9-.3.3 0 .6.1.9.3.2.2.4.5.4.9 0 .3-.1.5-.2.7-.1.2-.3.3-.4.4 0 0-.2.1-.3.3-.2.1-.4.3-.7.4-.3.1-.6.3-1 .4-.4.1-.9.2-1.4.2-.7 0-1.4-.1-2.1-.4-.7-.3-1.2-.7-1.7-1.2s-.9-1.1-1.2-1.7c-.3-.7-.4-1.4-.4-2.1 0-.7.1-1.4.4-2.1.3-.7.7-1.2 1.2-1.7s1.1-.9 1.7-1.2c.7-.3 1.4-.4 2.1-.4.5 0 1 .1 1.4.2.4.1.7.2 1 .4.3.1.5.3.7.4.2.1.3.2.3.2l.4.4c.1.2.2.4.2.7 0 .3-.1.6-.4.9-.2.2-.5.4-.9.4-.5-.1-.8-.3-1.1-.5zm13.4 3.2c-.1.4-.2.9-.4 1.3-.3.7-.7 1.2-1.2 1.7s-1.1.9-1.7 1.2c-.7.3-1.4.4-2.1.4s-1.4-.1-2.1-.4c-.7-.3-1.2-.7-1.7-1.2s-.9-1.1-1.2-1.7c-.3-.7-.4-1.4-.4-2.1 0-.7.1-1.5.4-2.1.3-.7.7-1.2 1.2-1.7s1.1-.9 1.7-1.2c.7-.3 1.4-.4 2.1-.4.5 0 1 .1 1.4.2.4.1.7.2 1 .4.3.1.5.3.7.4.2.1.3.2.3.2l.4.4c.1.2.2.4.2.7 0 .3-.1.6-.4.9-.2.2-.5.4-.9.4-.3 0-.6-.1-.9-.3-.2-.2-.5-.3-.9-.5-.3-.1-.7-.2-1-.2-.4 0-.8.1-1.1.2-.4.2-.7.4-.9.6-.3.3-.5.6-.6 1-.2.4-.2.8-.2 1.2 0 .4.1.8.2 1.2.2.4.4.7.6.9.3.3.6.5.9.6.4.2.7.2 1.1.2.5 0 .9-.1 1.3-.3.4-.2.7-.5 1-.8h-2c-.3 0-.6-.1-.9-.4-.2-.2-.3-.5-.3-.9 0-.3.1-.6.3-.9.2-.2.5-.4.9-.4h4s.4 0 .8.3c.2.2.4.6.4 1.1z" fill="#fff"/><linearGradient id="SVGID_2_" gradientUnits="userSpaceOnUse" x1="67.307" y1="42.468" x2="67.307" y2="0"><stop offset="0" stop-color="#4625c1"/><stop offset="1" stop-color="#467ef7"/></linearGradient><path d="M4.9 6.3c41.4-8.4 83.5-8.4 124.9 0 3.1.6 5.3 4.5 4.8 8.5-.8 7.1-1.6 14.2-2.4 21.4-.5 4.1-3.2 6.8-6.1 6.2-38.9-7.9-78.5-7.9-117.4 0-3 .6-5.7-2.2-6.2-6.2C1.7 29.1.9 22 .1 14.8c-.5-4 1.6-7.9 4.8-8.5z" fill="url(#SVGID_2_)"/><linearGradient id="SVGID_3_" gradientUnits="userSpaceOnUse" x1="9.53" y1="34.667" x2="9.53" y2="10.824"><stop offset="0" stop-color="#61cbf7"/><stop offset="1" stop-color="#467ef7"/></linearGradient><path d="M5.4 13.7c1.1 6.3 2.2 12.6 3.3 19 .6 3.2 5.5 2.3 5-.8-1-6.3-2-12.7-3-19-.5-3.3-5.9-2.4-5.3.8z" fill="url(#SVGID_3_)"/><linearGradient id="SVGID_4_" gradientUnits="userSpaceOnUse" x1="28.434" y1="32.115" x2="28.434" y2="8.14"><stop offset="0" stop-color="#61cbf7"/><stop offset="1" stop-color="#467ef7"/></linearGradient><path d="M24.8 10.9c.8 6.4 1.5 12.7 2.3 19.1.4 3.2 5.4 2.6 5-.6-.7-6.4-1.3-12.8-2-19.2-.3-3.1-5.7-2.5-5.3.7z" fill="url(#SVGID_4_)"/><linearGradient id="SVGID_5_" gradientUnits="userSpaceOnUse" x1="47.426" y1="30.587" x2="47.426" y2="6.528"><stop offset="0" stop-color="#61cbf7"/><stop offset="1" stop-color="#467ef7"/></linearGradient><path d="M44.3 9.1l1.2 19.2c.2 3.2 5.2 2.9 5-.3l-.9-19.2c-.1-3.2-5.5-2.9-5.3.3z" fill="url(#SVGID_5_)"/><linearGradient id="SVGID_6_" gradientUnits="userSpaceOnUse" x1="66.535" y1="30.076" x2="66.535" y2="5.99"><stop offset="0" stop-color="#61cbf7"/><stop offset="1" stop-color="#467ef7"/></linearGradient><path d="M63.9 8.4c0 6.4.1 12.8.1 19.3 0 3.2 5 3.2 5.1 0 0-6.4.1-12.8.1-19.3 0-3.2-5.4-3.2-5.3 0z" fill="url(#SVGID_6_)"/><linearGradient id="SVGID_7_" gradientUnits="userSpaceOnUse" x1="85.643" y1="30.587" x2="85.643" y2="6.527"><stop offset="0" stop-color="#61cbf7"/><stop offset="1" stop-color="#467ef7"/></linearGradient><path d="M83.4 8.8L82.5 28c-.1 3.2 4.8 3.5 5 .3l1.2-19.2c.3-3.2-5.1-3.5-5.3-.3z" fill="url(#SVGID_7_)"/><linearGradient id="SVGID_8_" gradientUnits="userSpaceOnUse" x1="104.635" y1="32.117" x2="104.635" y2="8.138"><stop offset="0" stop-color="#61cbf7"/><stop offset="1" stop-color="#467ef7"/></linearGradient><path d="M103 10.3c-.7 6.4-1.3 12.8-2 19.2-.3 3.2 4.6 3.7 5 .6.8-6.4 1.5-12.7 2.3-19.1.4-3.3-5-3.9-5.3-.7z" fill="url(#SVGID_8_)"/><linearGradient id="SVGID_9_" gradientUnits="userSpaceOnUse" x1="123.54" y1="34.666" x2="123.54" y2="10.825"><stop offset="0" stop-color="#61cbf7"/><stop offset="1" stop-color="#467ef7"/></linearGradient><path d="M122.4 12.8c-1 6.3-2 12.7-3 19-.5 3.2 4.4 4 5 .8 1.1-6.3 2.2-12.6 3.3-19 .6-3.1-4.8-4-5.3-.8z" fill="url(#SVGID_9_)"/><linearGradient id="SVGID_10_" gradientUnits="userSpaceOnUse" x1="68.297" y1="148.341" x2="68.297" y2="89.702"><stop offset="0" stop-color="#4625c1"/><stop offset="1" stop-color="#467ef7"/></linearGradient><path d="M68.3 89.7c7.1 0 12.9 5.8 12.9 12.9v32.9c0 7.1-5.8 12.9-12.9 12.9-7.1 0-12.9-5.8-12.9-12.9v-32.9c0-7.1 5.8-12.9 12.9-12.9z" fill="url(#SVGID_10_)"/><linearGradient id="SVGID_11_" gradientUnits="userSpaceOnUse" x1="68.297" y1="143.738" x2="68.297" y2="117.555"><stop offset="0" stop-color="#467ef7"/><stop offset="1" stop-color="#61cbf7"/></linearGradient><path d="M68.3 117.6c5.1 0 9.3 4.2 9.3 9.3v7.6c0 5.1-4.2 9.3-9.3 9.3-5.1 0-9.3-4.2-9.3-9.3v-7.6c0-5.2 4.2-9.3 9.3-9.3z" fill="url(#SVGID_11_)"/><path d="M64.7 128.1c.4.5.7 1.1.7 1.9v1.8c0 .8-.3 1.4-.7 1.9-.4.5-1.1.7-1.9.7s-1.5-.2-1.9-.7c-.4-.5-.7-1.1-.7-1.9V130c0-.8.3-1.4.7-1.9.4-.5 1.1-.7 1.9-.7s1.5.2 1.9.7zm-2.9.9c-.3.3-.4.6-.4 1.1v1.6c0 .5.2.8.4 1.1s.6.4 1 .4.8-.1 1-.4.4-.6.4-1.1v-1.6c0-.5-.2-.8-.4-1.1-.3-.3-.6-.4-1-.4s-.8.1-1 .4zm9.1-1.5c0 .1.1.1.1.2v.7c0 .1 0 .1-.1.2s-.1.1-.2.1h-2.9v1.9h2.7c.1 0 .1 0 .2.1s.1.1.1.2v.7c0 .1 0 .1-.1.2s-.1.1-.2.1h-2.7v2.3c0 .1 0 .1-.1.2 0 .1-.1.1-.2.1h-.7c-.1 0-.1 0-.2-.1 0-.1-.1-.1-.1-.2v-6.4c0-.1 0-.1.1-.2 0-.1.1-.1.2-.1h3.8c.2-.1.2 0 .3 0zm5.4 0c0 .1.1.1.1.2v.7c0 .1 0 .1-.1.2s-.1.1-.2.1h-2.9v1.9h2.7c.1 0 .1 0 .2.1s.1.1.1.2v.7c0 .1 0 .1-.1.2s-.1.1-.2.1h-2.7v2.3c0 .1 0 .1-.1.2 0 .1-.1.1-.2.1h-.7c-.1 0-.1 0-.2-.1 0-.1-.1-.1-.1-.2v-6.4c0-.1 0-.1.1-.2 0-.1.1-.1.2-.1H76c.2-.1.2 0 .3 0z" fill="#4625c1"/><path d="M105.4 124.4v50c0 44.7-5.5 42.5-38.4 42.5h0" fill="none" stroke="#fff" stroke-width=".5" stroke-miterlimit="10"/><path d="M50.4 138.4s.4 17 17.9 16" fill="none" stroke="#3537ab" stroke-width=".5" stroke-miterlimit="10"/></svg>