<svg version="1.1" id="bg" xmlns="http://www.w3.org/2000/svg" x="0" y="0" viewBox="0 0 418 740" xml:space="preserve"><style>.st1{fill:#fff}</style><linearGradient id="SVGID_1_" gradientUnits="userSpaceOnUse" x1="1515.907" y1="1271.31" x2="1515.907" y2="1077.737"><stop offset="0" stop-color="#61cbf7"/><stop offset="1" stop-color="#467ef7"/></linearGradient><path d="M1565.8 1077.7h-99.7c-5.6 0-8.6 6.7-4.8 10.8l9.3 10.3c1 1.2 1.6 2.7 1.6 4.2l-.1 25.6-.1 13.3v105.3c0 13.3 10.7 24 24 24h39.1c13.3 0 24-10.7 24-24v-16.6c.2-1.8.3-3.6.3-5.4v-62.5l.1-33.7v-1.8l.1-12.8v-11.3c0-1.6.6-3.1 1.7-4.2l9.3-10.3c3.7-4.2.8-10.9-4.8-10.9z" fill="url(#SVGID_1_)"/><path class="st1" d="M1497 1106c-.7 0-1.2-.6-1.2-1.2v-3.9c0-.7.6-1.2 1.2-1.2.7 0 1.2.6 1.2 1.2v3.9c0 .7-.5 1.2-1.2 1.2zm5.2 5.2c0-.7.6-1.2 1.2-1.2h3.9c.7 0 1.2.6 1.2 1.2 0 .7-.6 1.2-1.2 1.2h-3.9c-.7.1-1.2-.5-1.2-1.2zm-1.5 3.7c.5-.5 1.3-.5 1.8 0l2.7 2.7c.5.5.5 1.3 0 1.8s-1.3.5-1.8 0l-2.7-2.7c-.5-.6-.5-1.3 0-1.8zm-7.3-7.3c-.5.5-1.3.5-1.8 0l-2.7-2.7c-.5-.5-.5-1.3 0-1.8s1.3-.5 1.8 0l2.7 2.7c.4.5.4 1.3 0 1.8zm7.3 0c-.5-.5-.5-1.3 0-1.8l2.7-2.7c.5-.5 1.3-.5 1.8 0s.5 1.3 0 1.8l-2.7 2.7c-.6.4-1.4.4-1.8 0zm-2.5 3.3v-.2s0-.1-.1-.1c-.1-.1-.2-.3-.4-.4 0 0-.1 0-.1-.1h-10.8c-.7 0-1.2.6-1.2 1.2 0 .7.6 1.2 1.2 1.2h7.3l-5.2 5.2c-.5.5-.5 1.3 0 1.8.2.2.6.4.9.4.3 0 .6-.1.9-.4l5.2-5.2v7.3c0 .7.6 1.2 1.2 1.2.7 0 1.2-.6 1.2-1.2v-10.3c-.1-.2-.1-.3-.1-.4zm17-4.7c.2-.2.5-.3.9-.3.3 0 .6.1.9.3.2.2.4.5.4.9v8.3c0 .3-.1.6-.4.9-.2.2-.5.3-.9.3-.3 0-.6-.1-.9-.3-.2-.2-.4-.5-.4-.9v-8.3c.1-.4.2-.7.4-.9zm5.5 2.1h-1c-.2 0-.3 0-.4-.1-.1-.1-.3-.2-.4-.3-.1-.1-.2-.2-.3-.4-.1-.1-.1-.3-.1-.4 0-.2 0-.3.1-.5s.2-.3.3-.4c.1-.1.2-.2.4-.3.1-.1.3-.1.4-.1h4.5c.2 0 .3 0 .4.1.1.1.3.2.4.3.1.1.2.2.3.4.1.2.1.3.1.5 0 .1 0 .3-.1.4-.1.1-.2.3-.3.4-.1.1-.2.2-.4.3-.1.1-.3.1-.4.1h-1.1v7.1c0 .4-.1.6-.4.9-.2.2-.5.3-.9.3-.3 0-.6-.1-.9-.3-.2-.2-.4-.5-.4-.9v-7.1zm12 .6c-.2-.2-.5-.3-.9-.5-.3-.1-.6-.2-1-.2s-.8.1-1.2.3c-.4.2-.7.4-.9.6-.3.3-.5.6-.6.9-.2.4-.2.7-.2 1.1 0 .4.1.8.3 1.1.2.3.4.7.7.9.3.3.6.5 1 .6.4.2.7.3 1.1.3.3 0 .6-.1 1-.2.3-.1.6-.3.9-.5.3-.2.5-.3.9-.3.3 0 .6.1.9.3.2.2.4.5.4.9 0 .3-.1.5-.2.7-.1.2-.3.3-.4.4 0 0-.2.1-.3.3-.2.1-.4.3-.7.4-.3.1-.6.3-1 .4-.4.1-.9.2-1.4.2-.7 0-1.4-.1-2.1-.4-.7-.3-1.2-.7-1.7-1.2s-.9-1.1-1.2-1.7c-.3-.7-.4-1.4-.4-2.1 0-.7.1-1.4.4-2.1.3-.7.7-1.2 1.2-1.7s1.1-.9 1.7-1.2c.7-.3 1.4-.4 2.1-.4.5 0 1 .1 1.4.2.4.1.7.2 1 .4.3.1.5.3.7.4.2.1.3.2.3.2l.4.4c.1.2.2.4.2.7 0 .3-.1.6-.4.9-.2.2-.5.4-.9.4-.6-.2-.9-.3-1.1-.5zm13.3 3.2c-.1.4-.2.9-.4 1.3-.3.7-.7 1.2-1.2 1.7s-1.1.9-1.7 1.2c-.7.3-1.4.4-2.1.4s-1.4-.1-2.1-.4c-.7-.3-1.2-.7-1.7-1.2s-.9-1.1-1.2-1.7c-.3-.7-.4-1.4-.4-2.1s.1-1.5.4-2.1c.3-.7.7-1.2 1.2-1.7s1.1-.9 1.7-1.2c.7-.3 1.4-.4 2.1-.4.5 0 1 .1 1.4.2.4.1.7.2 1 .4.3.1.5.3.7.4.2.1.3.2.3.2l.4.4c.1.2.2.4.2.7 0 .3-.1.6-.4.9-.2.2-.5.4-.9.4-.3 0-.6-.1-.9-.3-.2-.2-.5-.3-.9-.5-.3-.1-.7-.2-1-.2-.4 0-.8.1-1.1.2-.4.2-.7.4-.9.6-.3.3-.5.6-.6 1-.2.4-.2.8-.2 1.2 0 .4.1.8.2 1.2.2.4.4.7.6.9.3.3.6.5.9.6.4.2.7.2 1.1.2.5 0 .9-.1 1.3-.3s.7-.5 1-.8h-2.1c-.3 0-.6-.1-.9-.4-.2-.2-.3-.5-.3-.9 0-.3.1-.6.3-.9.2-.2.5-.4.9-.4h3.9s.4 0 .8.3c.5.2.7.5.6 1.1z"/><path d="M1446.6 1028.6c47.5-6.9 95.7-6.9 143.2 0 3.6.5 6 3.7 5.5 7-.9 5.9-1.9 11.7-2.8 17.6-.5 3.3-3.7 5.6-7 5.1-44.6-6.5-90-6.5-134.6 0-3.4.5-6.5-1.8-7-5.1-.9-5.9-1.9-11.7-2.8-17.6-.5-3.3 2-6.5 5.5-7z" fill="none"/><linearGradient id="SVGID_2_" gradientUnits="userSpaceOnUse" x1="1515.177" y1="1087.345" x2="1515.177" y2="1044.877"><stop offset="0" stop-color="#4625c1"/><stop offset="1" stop-color="#467ef7"/></linearGradient><path d="M1452.7 1051.2c41.4-8.4 83.5-8.4 124.9 0 3.1.6 5.3 4.5 4.8 8.5-.8 7.1-1.6 14.2-2.4 21.4-.5 4.1-3.2 6.8-6.1 6.2-38.9-7.9-78.5-7.9-117.4 0-2.9.6-5.7-2.2-6.1-6.2-.8-7.1-1.6-14.2-2.4-21.4-.5-4.1 1.6-7.9 4.7-8.5z" fill="url(#SVGID_2_)"/><linearGradient id="SVGID_3_" gradientUnits="userSpaceOnUse" x1="1457.4" y1="1079.544" x2="1457.4" y2="1055.701"><stop offset="0" stop-color="#61cbf7"/><stop offset="1" stop-color="#467ef7"/></linearGradient><path d="M1453.2 1058.6c1.1 6.3 2.2 12.6 3.3 19 .6 3.2 5.5 2.3 5-.8-1-6.3-2-12.7-3-19-.5-3.3-5.8-2.4-5.3.8z" fill="url(#SVGID_3_)"/><linearGradient id="SVGID_4_" gradientUnits="userSpaceOnUse" x1="1476.304" y1="1076.992" x2="1476.304" y2="1053.017"><stop offset="0" stop-color="#61cbf7"/><stop offset="1" stop-color="#467ef7"/></linearGradient><path d="M1472.7 1055.7c.8 6.4 1.5 12.7 2.3 19.1.4 3.2 5.4 2.6 5-.6-.7-6.4-1.3-12.8-2-19.2-.3-3.1-5.7-2.5-5.3.7z" fill="url(#SVGID_4_)"/><linearGradient id="SVGID_5_" gradientUnits="userSpaceOnUse" x1="1495.297" y1="1075.464" x2="1495.297" y2="1051.405"><stop offset="0" stop-color="#61cbf7"/><stop offset="1" stop-color="#467ef7"/></linearGradient><path d="M1492.2 1054l1.2 19.2c.2 3.2 5.2 2.9 5-.3l-.9-19.2c-.1-3.2-5.5-2.9-5.3.3z" fill="url(#SVGID_5_)"/><linearGradient id="SVGID_6_" gradientUnits="userSpaceOnUse" x1="1514.405" y1="1074.953" x2="1514.405" y2="1050.867"><stop offset="0" stop-color="#61cbf7"/><stop offset="1" stop-color="#467ef7"/></linearGradient><path d="M1511.7 1053.3c0 6.4.1 12.8.1 19.3 0 3.2 5 3.2 5.1 0 0-6.4.1-12.8.1-19.3.1-3.2-5.3-3.2-5.3 0z" fill="url(#SVGID_6_)"/><linearGradient id="SVGID_7_" gradientUnits="userSpaceOnUse" x1="1533.513" y1="1075.464" x2="1533.513" y2="1051.404"><stop offset="0" stop-color="#61cbf7"/><stop offset="1" stop-color="#467ef7"/></linearGradient><path d="M1531.3 1053.7l-.9 19.2c-.1 3.2 4.8 3.5 5 .3l1.2-19.2c.2-3.2-5.2-3.6-5.3-.3z" fill="url(#SVGID_7_)"/><linearGradient id="SVGID_8_" gradientUnits="userSpaceOnUse" x1="1552.505" y1="1076.994" x2="1552.505" y2="1053.015"><stop offset="0" stop-color="#61cbf7"/><stop offset="1" stop-color="#467ef7"/></linearGradient><path d="M1550.8 1055.2c-.7 6.4-1.3 12.8-2 19.2-.3 3.2 4.6 3.7 5 .6.8-6.4 1.5-12.7 2.3-19.1.4-3.4-4.9-4-5.3-.7z" fill="url(#SVGID_8_)"/><linearGradient id="SVGID_9_" gradientUnits="userSpaceOnUse" x1="1571.41" y1="1079.543" x2="1571.41" y2="1055.703"><stop offset="0" stop-color="#61cbf7"/><stop offset="1" stop-color="#467ef7"/></linearGradient><path d="M1570.3 1057.7c-1 6.3-2 12.7-3 19-.5 3.2 4.4 4 5 .8 1.1-6.3 2.2-12.6 3.3-19 .5-3.1-4.8-4-5.3-.8z" fill="url(#SVGID_9_)"/><linearGradient id="SVGID_10_" gradientUnits="userSpaceOnUse" x1="1516.167" y1="1193.218" x2="1516.167" y2="1134.579"><stop offset="0" stop-color="#4625c1"/><stop offset="1" stop-color="#467ef7"/></linearGradient><path d="M1516.2 1134.6c7.1 0 12.9 5.8 12.9 12.9v32.9c0 7.1-5.8 12.9-12.9 12.9-7.1 0-12.9-5.8-12.9-12.9v-32.9c0-7.2 5.8-12.9 12.9-12.9z" fill="url(#SVGID_10_)"/><path class="st1" d="M1516.2 1139.3c5.1 0 9.3 4.2 9.3 9.3v7.6c0 5.1-4.2 9.3-9.3 9.3-5.1 0-9.3-4.2-9.3-9.3v-7.6c0-5.1 4.1-9.3 9.3-9.3z"/><path d="M1511.3 1154.8c-.5-.4-.7-1-.7-1.8v-1.6c0-.8.3-1.4.7-1.8.5-.4 1.1-.6 1.9-.6.8 0 1.4.2 1.9.6.5.4.7 1 .7 1.8v1.6c0 .8-.3 1.4-.7 1.8s-1.1.6-1.9.6c-.8 0-1.5-.2-1.9-.6zm2.9-.8c.2-.2.4-.6.4-1.1v-1.4c0-.5-.1-.9-.4-1.1-.2-.2-.6-.4-.9-.4-.4 0-.7.1-1 .4-.2.2-.4.6-.4 1.1v1.4c0 .5.1.9.4 1.1.2.2.6.4 1 .4.3 0 .6-.1.9-.4zm2.9 1.3s-.1-.1-.1-.2v-5.9c0-.1 0-.1.1-.2s.1-.1.2-.1h.7c.1 0 .2.1.3.2l2.6 4v-3.9c0-.1 0-.1.1-.2s.1-.1.2-.1h.8c.1 0 .1 0 .2.1s.1.1.1.2v5.8c0 .1 0 .1-.1.2 0 0-.1.1-.2.1h-.7c-.1 0-.2-.1-.3-.2l-2.6-3.9v3.8c0 .1 0 .1-.1.2 0 0-.1.1-.2.1h-1z" fill="#4625c1"/><path d="M1553.2 1169.3v50c0 44.7-5.5 42.5-38.4 42.5h0" fill="none" stroke="#fff" stroke-width=".5" stroke-miterlimit="10"/><path d="M1498.2 1183.3s.4 17 17.9 16" fill="none" stroke="#3537ab" stroke-width=".5" stroke-miterlimit="10"/></svg>