<svg version="1.1" id="bg" xmlns="http://www.w3.org/2000/svg" x="0" y="0" viewBox="0 0 418 740" xml:space="preserve"><path d="M209 53.5c-1 0-1.8-.8-1.8-1.8V46c0-1 .8-1.8 1.8-1.8s1.8.8 1.8 1.8v5.7c0 1-.8 1.8-1.8 1.8zm7.6 7.7c0-1 .8-1.8 1.8-1.8h5.7c1 0 1.8.8 1.8 1.8s-.8 1.8-1.8 1.8h-5.7c-.9 0-1.8-.8-1.8-1.8zm-2.2 5.4c.7-.7 1.9-.7 2.6 0l4.1 4.1c.7.7.7 1.9 0 2.6-.7.7-1.9.7-2.6 0l-4.1-4.1c-.7-.8-.7-1.9 0-2.6zm-10.8-10.9c-.7.7-1.9.7-2.6 0l-4.1-4.1c-.7-.7-.7-1.9 0-2.6.7-.7 1.9-.7 2.6 0l4.1 4.1c.7.8.7 1.9 0 2.6zm10.8 0c-.7-.7-.7-1.9 0-2.6l4.1-4.1c.7-.7 1.9-.7 2.6 0 .7.7.7 1.9 0 2.6l-4.1 4.1c-.7.8-1.9.8-2.6 0zm-3.6 4.9c0-.1 0-.1-.1-.2 0 0 0-.1-.1-.1 0-.1-.1-.1-.1-.1-.1-.2-.3-.4-.5-.5l-.1-.1s-.1 0-.1-.1c0 0-.1 0-.1-.1h-15.8c-1 0-1.8.8-1.8 1.8s.8 1.8 1.8 1.8h10.8l-7.6 7.6c-.7.7-.7 1.9 0 2.6.4.4.8.5 1.3.5s.9-.2 1.3-.5l7.6-7.6v10.8c0 1 .8 1.8 1.8 1.8s1.8-.8 1.8-1.8V61.1c-.1-.1-.1-.3-.1-.5z" fill="#fff"/></svg>