<svg xmlns="http://www.w3.org/2000/svg" viewBox="0 0 36 36" width="36" height="36"><defs><clipPath clipPathUnits="userSpaceOnUse" id="cp1"><path d="M1 1h34v34H1z"/></clipPath></defs><style/><g id="Page 1" clip-path="url(#cp1)"><path id="Path 1" d="M19.88 8.48V2.75c0-1.01-.82-1.83-1.84-1.83-1.01 0-1.83.82-1.83 1.83v5.73c0 1.01.82 1.83 1.83 1.83 1.01 0 1.84-.82 1.84-1.83zm7.64 11.35h5.73a1.83 1.83 0 0 0 0-3.66h-5.73a1.83 1.83 0 0 0 0 3.66zm-4.07 6.14l4.05 4.05c.72.72 1.88.72 2.59 0 .72-.71.72-1.87 0-2.59l-4.05-4.05c-.72-.72-1.88-.72-2.59 0-.72.72-.72 1.88 0 2.59zM12.64 9.96L8.59 5.91c-.72-.72-1.88-.72-2.59 0-.72.72-.72 1.88 0 2.59l4.05 4.05c.72.72 1.88.72 2.6 0 .72-.72.72-1.88 0-2.6zm13.4 2.59l4.05-4.05c.72-.72.72-1.88 0-2.59-.72-.72-1.88-.72-2.59 0l-4.05 4.05c-.72.72-.72 1.88 0 2.6.72.72 1.88.72 2.59 0zm-6.24 4.89v-.01c-.02-.05-.03-.1-.05-.15v-.02c-.02-.05-.04-.1-.07-.15 0-.01-.01-.01-.01-.02l-.09-.15v-.01a1.84 1.84 0 0 0-.52-.52h-.01l-.15-.09c-.01 0-.01-.01-.02-.01-.05-.02-.09-.05-.14-.07-.01 0-.01-.01-.02-.01-.05-.02-.1-.04-.15-.05h-.02c-.05-.01-.11-.03-.16-.04-.11-.02-.23-.03-.35-.03H2.83a1.83 1.83 0 0 0 0 3.66h10.78l-7.62 7.62c-.72.72-.72 1.88 0 2.59a1.833 1.833 0 0 0 2.6 0l7.62-7.62v10.78c0 1.01.82 1.83 1.83 1.83 1.01 0 1.84-.82 1.84-1.83V17.93c0-.18-.03-.35-.07-.52z" fill="#fff"/></g></svg>