<svg xmlns="http://www.w3.org/2000/svg" version="1.1" id="Layer_1" x="0" y="0" viewBox="0 0 86.2 86.4" xml:space="preserve" width="86.2" height="86.4"><style type="text/css" id="style195"/><linearGradient id="SVGID_1_" gradientUnits="userSpaceOnUse" x1="391.105" y1="16.045" x2="405.443" y2="7.767" gradientTransform="translate(-355.1)"><stop offset="0" id="stop197" stop-color="#b43900"/><stop offset="1" id="stop199" stop-color="#e85318"/></linearGradient><path d="M43.2 23.8c-2.6 0-4.6-2.1-4.6-4.6V4.6C38.6 2 40.7 0 43.2 0c2.6 0 4.6 2.1 4.6 4.6v14.5c0 2.6-2.1 4.7-4.6 4.7z" id="path202" fill="url(#SVGID_1_)"/><linearGradient id="SVGID_2_" gradientUnits="userSpaceOnUse" x1="420.068" y1="48.735" x2="439.006" y2="37.801" gradientTransform="translate(-355.1)"><stop offset="0" id="stop204" stop-color="#b43900"/><stop offset="1" id="stop206" stop-color="#e85318"/></linearGradient><path d="M62.5 43.3c0-2.6 2.1-4.6 4.6-4.6h14.5c2.6 0 4.6 2.1 4.6 4.6 0 2.6-2.1 4.6-4.6 4.6H67.1c-2.5 0-4.6-2.1-4.6-4.6z" id="path209" fill="url(#SVGID_2_)"/><linearGradient id="SVGID_3_" gradientUnits="userSpaceOnUse" x1="414.727" y1="68.584" x2="426.031" y2="62.057" gradientTransform="translate(-355.1)"><stop offset="0" id="stop211" stop-color="#b43900"/><stop offset="1" id="stop213" stop-color="#e85318"/></linearGradient><path d="M56.9 56.9c1.8-1.8 4.8-1.8 6.6 0l10.3 10.3c1.8 1.8 1.8 4.8 0 6.6-1.8 1.8-4.8 1.8-6.6 0L56.9 63.5c-1.9-1.8-1.9-4.8 0-6.6z" id="path216" fill="url(#SVGID_3_)"/><linearGradient id="SVGID_4_" gradientUnits="userSpaceOnUse" x1="370.515" y1="24.326" x2="381.82" y2="17.799" gradientTransform="translate(-355.1)"><stop offset="0" id="stop218" stop-color="#b43900"/><stop offset="1" id="stop220" stop-color="#e85318"/></linearGradient><path d="M29.5 29.5c-1.8 1.8-4.8 1.8-6.6 0L12.6 19.2c-1.8-1.8-1.8-4.8 0-6.6 1.8-1.8 4.8-1.8 6.6 0l10.3 10.3c1.8 1.8 1.8 4.8 0 6.6z" id="path223" fill="url(#SVGID_4_)"/><linearGradient id="SVGID_5_" gradientUnits="userSpaceOnUse" x1="410.282" y1="26.893" x2="430.477" y2="15.233" gradientTransform="translate(-355.1)"><stop offset="0" id="stop225" stop-color="#b43900"/><stop offset="1" id="stop227" stop-color="#e85318"/></linearGradient><path d="M56.9 29.5c-1.8-1.8-1.8-4.8 0-6.6l10.3-10.3c1.8-1.8 4.8-1.8 6.6 0 1.8 1.8 1.8 4.8 0 6.6L63.5 29.5c-1.9 1.8-4.8 1.8-6.6 0z" id="path230" fill="url(#SVGID_5_)"/><linearGradient id="SVGID_6_" gradientUnits="userSpaceOnUse" x1="365.548" y1="70.203" x2="405.822" y2="46.951" gradientTransform="translate(-355.1)"><stop offset="0" id="stop232" stop-color="#b43900"/><stop offset="1" id="stop234" stop-color="#e85318"/></linearGradient><path d="M47.6 41.9c0-.1-.1-.3-.1-.4-.1-.1-.1-.2-.2-.4-.1-.1-.1-.3-.2-.4-.3-.5-.8-1-1.3-1.3-.1-.1-.2-.2-.4-.2h-.1c-.1-.1-.2-.1-.4-.2h-.1c-.1 0-.2-.1-.4-.1-.1 0-.3-.1-.4-.1-.3-.1-.6-.1-.9-.1H4.6C2 38.7 0 40.8 0 43.3c0 2.6 2.1 4.6 4.6 4.6h27.3L12.6 67.2c-1.8 1.8-1.8 4.8 0 6.6.9.9 2.1 1.4 3.3 1.4 1.2 0 2.4-.5 3.3-1.4l19.3-19.3v27.3c0 2.6 2.1 4.6 4.6 4.6 2.6 0 4.6-2.1 4.6-4.6V43.2c.1-.5.1-.9-.1-1.3z" id="path237" fill="url(#SVGID_6_)"/></svg>