<svg xmlns="http://www.w3.org/2000/svg" version="1.1" id="Layer_1" x="0" y="0" viewBox="0 0 329 149" xml:space="preserve" width="329" height="149"><style type="text/css" id="style1855"/><g id="g1957" transform="translate(0 -40.7)"><g id="g1955"><linearGradient id="SVGID_7_" gradientUnits="userSpaceOnUse" x1="3.234" y1="65.149" x2="3.234" y2="40.829"><stop offset="0" id="stop1857" stop-color="#b43900"/><stop offset="1" id="stop1859" stop-color="#e85318"/></linearGradient><path d="M1.9 64.9c-.2-.2-.3-.4-.3-.7V41.8c0-.3.1-.5.3-.7.2-.2.4-.3.7-.3H4c.3 0 .5.1.7.3.2.2.3.4.3.7v22.4c0 .3-.1.5-.3.7-.2.2-.4.3-.7.3H2.5c-.2-.1-.5-.1-.6-.3z" id="path1862" fill="url(#SVGID_7_)"/><linearGradient id="SVGID_8_" gradientUnits="userSpaceOnUse" x1="21.839" y1="65.149" x2="21.839" y2="40.829"><stop offset="0" id="stop1864" stop-color="#b43900"/><stop offset="1" id="stop1866" stop-color="#e85318"/></linearGradient><path d="M31 41.1c.2.2.3.4.3.7v22.4c0 .3-.1.5-.3.7-.2.2-.4.3-.7.3h-1.4c-.3 0-.5-.1-.7-.3-.2-.2-.2-.4-.2-.7v-9.8H15.7v9.8c0 .3-.1.5-.3.7-.2.2-.4.3-.7.3h-1.4c-.3 0-.5-.1-.7-.3-.2-.2-.3-.4-.3-.7V41.8c0-.3.1-.5.3-.7.2-.2.4-.3.7-.3h1.4c.3 0 .5.1.7.3.2.2.3.4.3.7v9.5H28v-9.5c0-.3.1-.5.3-.7.2-.2.4-.3.7-.3h1.4c.2 0 .4.1.6.3z" id="path1869" fill="url(#SVGID_8_)"/><linearGradient id="SVGID_9_" gradientUnits="userSpaceOnUse" x1="45.689" y1="65.149" x2="45.689" y2="40.829"><stop offset="0" id="stop1871" stop-color="#b43900"/><stop offset="1" id="stop1873" stop-color="#e85318"/></linearGradient><path d="M54.5 41.1c.2.2.3.4.3.7V43c0 .3-.1.5-.3.7-.2.2-.4.3-.7.3h-6.5v20.3c0 .3-.1.5-.3.7-.2.2-.4.3-.7.3H45c-.3 0-.5-.1-.7-.3-.2-.2-.3-.4-.3-.7V44h-6.5c-.3 0-.5-.1-.7-.3-.2-.2-.3-.4-.3-.7v-1.3c0-.3.1-.5.3-.7.2-.2.4-.3.7-.3h16.3c.3.1.5.2.7.4z" id="path1876" fill="url(#SVGID_9_)"/><linearGradient id="SVGID_10_" gradientUnits="userSpaceOnUse" x1="68.081" y1="65.149" x2="68.081" y2="40.829"><stop offset="0" id="stop1878" stop-color="#b43900"/><stop offset="1" id="stop1880" stop-color="#e85318"/></linearGradient><path d="M63.4 62h11.7c.3 0 .5.1.7.3.2.2.3.4.3.7v1.3c0 .3-.1.5-.3.7-.2.2-.4.3-.7.3h-14c-.3 0-.5-.1-.7-.3-.2-.2-.3-.4-.3-.7V41.8c0-.3.1-.5.3-.7.2-.2.4-.3.7-.3h13.8c.3 0 .5.1.7.3.2.2.3.4.3.7V43c0 .3-.1.5-.3.7-.2.2-.4.3-.7.3H63.4v7.3H74c.3 0 .5.1.7.3.2.2.3.4.3.7v1.3c0 .3-.1.5-.3.7-.2.2-.4.3-.7.3H63.4z" id="path1883" fill="url(#SVGID_10_)"/><linearGradient id="SVGID_11_" gradientUnits="userSpaceOnUse" x1="91.289" y1="65.149" x2="91.289" y2="40.829"><stop offset="0" id="stop1885" stop-color="#b43900"/><stop offset="1" id="stop1887" stop-color="#e85318"/></linearGradient><path d="M97.9 42.7c1.6 1.3 2.4 3.1 2.4 5.5 0 1.6-.4 3-1.1 4.1-.8 1.1-1.8 2-3 2.5-1.3.6-2.7.8-4.2.8h-6.4v8.5c0 .3-.1.5-.3.7-.2.2-.4.3-.7.3h-1.4c-.3 0-.5-.1-.7-.3-.2-.2-.3-.4-.3-.7V41.8c0-.3.1-.5.3-.7.2-.2.4-.3.7-.3H92c2.4 0 4.4.7 5.9 1.9zm-6.1 9.9c1.7 0 3-.4 3.9-1.1.9-.7 1.4-1.8 1.4-3.3 0-2.8-1.7-4.2-5.2-4.2h-6.2v8.6z" id="path1890" fill="url(#SVGID_11_)"/><linearGradient id="SVGID_12_" gradientUnits="userSpaceOnUse" x1="115.47" y1="65.149" x2="115.47" y2="40.829"><stop offset="0" id="stop1892" stop-color="#b43900"/><stop offset="1" id="stop1894" stop-color="#e85318"/></linearGradient><path d="M124.6 41.1c.2.2.3.4.3.7v22.4c0 .3-.1.5-.3.7-.2.2-.4.3-.7.3h-1.4c-.3 0-.5-.1-.7-.3-.2-.2-.3-.4-.3-.7v-9.8h-12.2v9.8c0 .3-.1.5-.3.7-.2.2-.4.3-.7.3H107c-.3 0-.5-.1-.7-.3-.2-.2-.3-.4-.3-.7V41.8c0-.3.1-.5.3-.7.2-.2.4-.3.7-.3h1.4c.3 0 .5.1.7.3.2.2.3.4.3.7v9.5h12.2v-9.5c0-.3.1-.5.3-.7.2-.2.4-.3.7-.3h1.4c.2 0 .4.1.6.3z" id="path1897" fill="url(#SVGID_12_)"/><linearGradient id="SVGID_13_" gradientUnits="userSpaceOnUse" x1="140.381" y1="65.149" x2="140.381" y2="40.829"><stop offset="0" id="stop1899" stop-color="#b43900"/><stop offset="1" id="stop1901" stop-color="#e85318"/></linearGradient><path d="M135.7 62h11.7c.3 0 .5.1.7.3.2.2.3.4.3.7v1.3c0 .3-.1.5-.3.7-.2.2-.4.3-.7.3h-14c-.3 0-.5-.1-.7-.3-.2-.2-.3-.4-.3-.7V41.8c0-.3.1-.5.3-.7.2-.2.4-.3.7-.3h13.8c.3 0 .5.1.7.3.2.2.3.4.3.7V43c0 .3-.1.5-.3.7-.2.2-.4.3-.7.3h-11.4v7.3h10.6c.3 0 .5.1.7.3.2.2.3.4.3.7v1.3c0 .3-.1.5-.3.7-.2.2-.4.3-.7.3h-10.6V62z" id="path1904" fill="url(#SVGID_13_)"/><linearGradient id="SVGID_14_" gradientUnits="userSpaceOnUse" x1="161.452" y1="65.149" x2="161.452" y2="40.829"><stop offset="0" id="stop1906" stop-color="#b43900"/><stop offset="1" id="stop1908" stop-color="#e85318"/></linearGradient><path d="M170.3 41.1c.2.2.3.4.3.7V43c0 .3-.1.5-.3.7-.2.2-.4.3-.7.3h-6.5v20.3c0 .3-.1.5-.3.7-.2.2-.4.3-.7.3h-1.4c-.3 0-.5-.1-.7-.3-.2-.2-.3-.4-.3-.7V44h-6.5c-.3 0-.5-.1-.7-.3-.2-.2-.3-.4-.3-.7v-1.3c0-.3.1-.5.3-.7.2-.2.4-.3.7-.3h16.3c.4.1.6.2.8.4z" id="path1911" fill="url(#SVGID_14_)"/><linearGradient id="SVGID_15_" gradientUnits="userSpaceOnUse" x1="191.434" y1="54.483" x2="191.434" y2="51.495"><stop offset="0" id="stop1913" stop-color="#b43900"/><stop offset="1" id="stop1915" stop-color="#e85318"/></linearGradient><path d="M185.6 54.2c-.2-.2-.3-.4-.3-.7v-1.1c0-.3.1-.5.3-.7.2-.2.4-.3.7-.3h10.2c.3 0 .5.1.7.3.2.2.3.4.3.7v1.1c0 .3-.1.5-.3.7-.2.2-.4.3-.7.3h-10.2c-.2 0-.5-.1-.7-.3z" id="path1918" fill="url(#SVGID_15_)"/><linearGradient id="SVGID_16_" gradientUnits="userSpaceOnUse" x1="223.328" y1="65.149" x2="223.328" y2="40.829"><stop offset="0" id="stop1920" stop-color="#b43900"/><stop offset="1" id="stop1922" stop-color="#e85318"/></linearGradient><path d="M217.3 59.7l-1.8 4.6c-.2.6-.7.9-1.4.9h-1.3c-.2 0-.4-.1-.5-.2-.2-.2-.2-.3-.2-.5 0-.1 0-.3.1-.5l8.5-21.9c.3-.8.8-1.1 1.6-1.1h2.1c.7 0 1.3.4 1.6 1.1l8.5 21.9c.1.2.1.4.1.5 0 .2-.1.4-.2.5-.2.2-.3.2-.5.2h-1.3c-.7 0-1.1-.3-1.4-.9l-1.8-4.6zm10.8-3.2l-4.8-12.4-4.8 12.4z" id="path1925" fill="url(#SVGID_16_)"/><linearGradient id="SVGID_17_" gradientUnits="userSpaceOnUse" x1="247.543" y1="65.149" x2="247.543" y2="40.829"><stop offset="0" id="stop1927" stop-color="#b43900"/><stop offset="1" id="stop1929" stop-color="#e85318"/></linearGradient><path d="M237.6 41.6c0-.2.1-.4.2-.5.2-.2.3-.2.5-.2h1.5c.4 0 .7.1.9.2.2.2.4.4.5.6l6.3 12.1 6.3-12.1c.2-.3.3-.5.5-.6.2-.2.5-.2.9-.2h1.5c.2 0 .4.1.5.2.2.2.2.3.2.5 0 .1-.1.3-.2.5l-8.3 16c-.9 1.6-1.6 2.8-2.2 3.7-.6.9-1.3 1.7-2.2 2.3-.9.7-1.9 1-3.1 1h-1.8c-.3 0-.5-.1-.7-.3-.2-.2-.3-.4-.3-.7V63c0-.3.1-.5.3-.7.2-.2.4-.3.7-.3h1.5c.6 0 1.1-.2 1.6-.6.5-.4.9-.9 1.3-1.5.3-.5.9-1.4 1.5-2.6l-7.9-15.2v-.5z" id="path1932" fill="url(#SVGID_17_)"/><linearGradient id="SVGID_18_" gradientUnits="userSpaceOnUse" x1="269.918" y1="68.971" x2="269.918" y2="40.829"><stop offset="0" id="stop1934" stop-color="#b43900"/><stop offset="1" id="stop1936" stop-color="#e85318"/></linearGradient><path d="M263.4 41.1c.2-.2.4-.3.7-.3h14.3c.3 0 .5.1.7.3.2.2.3.4.3.7V62h.8c.3 0 .5.1.7.3.2.2.3.4.3.7v5c0 .3-.1.5-.3.7-.2.2-.4.3-.7.3h-1.4c-.3 0-.5-.1-.7-.3-.2-.2-.3-.4-.3-.7v-2.9h-15.6V68c0 .3-.1.5-.3.7-.2.2-.4.3-.7.3h-1.4c-.3 0-.5-.1-.7-.3-.2-.2-.3-.4-.3-.7v-5c0-.3.1-.5.3-.7.2-.2.4-.3.7-.3h.6c1 0 1.7-.3 2.2-.9.4-.6.6-1.7.6-3.3v-16c-.1-.3 0-.5.2-.7zm2.2 20.9H276V44h-9.6v14.5c0 1.7-.3 2.9-.8 3.5z" id="path1939" fill="url(#SVGID_18_)"/><linearGradient id="SVGID_19_" gradientUnits="userSpaceOnUse" x1="296.375" y1="65.149" x2="296.375" y2="40.829"><stop offset="0" id="stop1941" stop-color="#b43900"/><stop offset="1" id="stop1943" stop-color="#e85318"/></linearGradient><path d="M288.2 65.1c-.3 0-.5-.1-.7-.3-.2-.2-.3-.4-.3-.7V41.8c0-.3.1-.5.3-.7.2-.2.4-.3.7-.3h1.4c.3 0 .5.1.7.3.2.2.3.4.3.7v17.1l11.3-17c.2-.3.4-.6.6-.8.2-.2.5-.3.8-.3h1.2c.3 0 .5.1.7.3.2.2.3.4.3.7v22.4c0 .3-.1.5-.3.7-.2.2-.4.3-.7.3h-1.4c-.3 0-.5-.1-.7-.3-.2-.2-.3-.4-.3-.7V47.1l-11.3 17c-.2.3-.4.6-.6.8-.2.2-.5.3-.8.3h-1.2z" id="path1946" fill="url(#SVGID_19_)"/><linearGradient id="SVGID_20_" gradientUnits="userSpaceOnUse" x1="319.877" y1="65.149" x2="319.877" y2="40.829"><stop offset="0" id="stop1948" stop-color="#b43900"/><stop offset="1" id="stop1950" stop-color="#e85318"/></linearGradient><path d="M328.7 41.1c.2.2.3.4.3.7V43c0 .3-.1.5-.3.7-.2.2-.4.3-.7.3h-6.5v20.3c0 .3-.1.5-.3.7-.2.2-.4.3-.7.3h-1.4c-.3 0-.5-.1-.7-.3-.2-.2-.3-.4-.3-.7V44h-6.5c-.3 0-.5-.1-.7-.3-.2-.2-.3-.4-.3-.7v-1.3c0-.3.1-.5.3-.7.2-.2.4-.3.7-.3H328c.3.1.5.2.7.4z" id="path1953" fill="url(#SVGID_20_)"/></g></g><g id="g1989" transform="translate(0 -40.7)"><g id="g1987"><linearGradient id="SVGID_21_" gradientUnits="userSpaceOnUse" x1="9.983" y1="188.143" x2="9.983" y2="84.614"><stop offset="0" id="stop1959" stop-color="#b43900"/><stop offset="1" id="stop1961" stop-color="#e85318"/></linearGradient><path d="M1.2 187c-.8-.8-1.2-1.7-1.2-2.8V88.6c0-1.1.4-2 1.2-2.8.8-.8 1.7-1.2 2.8-1.2h12c1.1 0 2 .4 2.8 1.2.8.8 1.2 1.7 1.2 2.8v95.5c0 1.1-.4 2-1.2 2.8-.8.8-1.7 1.2-2.8 1.2H4c-1.1 0-2-.3-2.8-1.1z" id="path1964" fill="url(#SVGID_21_)"/><linearGradient id="SVGID_22_" gradientUnits="userSpaceOnUse" x1="79.05" y1="188.143" x2="79.05" y2="84.614"><stop offset="0" id="stop1966" stop-color="#b43900"/><stop offset="1" id="stop1968" stop-color="#e85318"/></linearGradient><path d="M118.5 85.8c.8.8 1.2 1.7 1.2 2.8v10.5c0 1.1-.4 2-1.2 2.8-.8.8-1.7 1.2-2.8 1.2H89v81c0 1.1-.4 2-1.2 2.8-.8.8-1.7 1.2-2.8 1.2H73c-1.1 0-2-.4-2.8-1.2-.8-.8-1.2-1.7-1.2-2.8v-81H42.4c-1.1 0-2-.4-2.8-1.2-.8-.8-1.2-1.7-1.2-2.8V88.6c0-1.1.4-2 1.2-2.8.8-.8 1.7-1.2 2.8-1.2h73.2c1.1 0 2.1.4 2.9 1.2z" id="path1971" fill="url(#SVGID_22_)"/><linearGradient id="SVGID_23_" gradientUnits="userSpaceOnUse" x1="176.006" y1="189.622" x2="176.006" y2="83.135"><stop offset="0" id="stop1973" stop-color="#b43900"/><stop offset="1" id="stop1975" stop-color="#e85318"/></linearGradient><path d="M215.9 151.5c1.2 0 2.2.4 3 1.1.8.7 1.1 1.7 1 2.9-.4 5.7-2.2 11.2-5.4 16.4-3.2 5.2-8 9.5-14.5 12.8-6.5 3.3-14.5 5-24.2 5-13.2 0-23.6-3.7-31.1-11.2-7.5-7.4-11.6-17.3-12.4-29.7-.2-4.9-.3-9.1-.3-12.4 0-3.4.1-7.5.3-12.4.8-12.3 4.9-22.2 12.4-29.7 7.5-7.4 17.8-11.2 31.1-11.2 9.7 0 17.7 1.7 24.2 5s11.3 7.6 14.5 12.8c3.2 5.2 5 10.7 5.4 16.4.1 1.2-.2 2.1-1 2.9-.8.7-1.8 1.1-3 1.1h-12c-1 0-1.9-.3-2.8-1-.9-.7-1.4-1.6-1.6-2.8-.8-4.4-3.1-8.2-7-11.2-3.9-3.1-9.4-4.6-16.6-4.6-7.3 0-12.9 2.1-16.9 6.2-4 4.1-6.2 9.5-6.6 16.1-.2 4.9-.3 9.1-.3 12.4 0 3.4.1 7.5.3 12.4.4 6.6 2.6 12 6.6 16.1 4 4.1 9.6 6.2 16.9 6.2 7.2 0 12.8-1.5 16.7-4.6 3.9-3.1 6.3-6.8 7.1-11.2.2-1.2.7-2.1 1.6-2.8.8-.7 1.7-1 2.7-1z" id="path1978" fill="url(#SVGID_23_)"/><linearGradient id="SVGID_24_" gradientUnits="userSpaceOnUse" x1="282.04" y1="189.622" x2="282.04" y2="83.135"><stop offset="0" id="stop1980" stop-color="#b43900"/><stop offset="1" id="stop1982" stop-color="#e85318"/></linearGradient><path d="M307.4 88.2c6.5 3.4 11.1 7.3 13.8 11.8 2.8 4.5 4.3 8.7 4.6 12.5.1 1.2-.2 2.1-1 2.9-.8.7-1.8 1.1-3 1.1h-12c-1.8 0-3.1-.8-4-2.5-4.4-8.2-12.4-12.3-23.8-12.3-7.3 0-13.2 2-17.7 6s-6.9 9.3-7.2 16c-.1 2.5-.1 6.5-.1 12 0 5.6 0 9.7.1 12.1.3 7.9 2.6 13.8 7 17.6 4.3 3.8 10.3 5.8 17.9 5.8 16.7 0 25-7.6 25-22.8v-1.2h-18c-1.1 0-2-.4-2.8-1.2-.8-.8-1.2-1.7-1.2-2.8v-10.5c0-1.1.4-2 1.2-2.8.8-.8 1.7-1.2 2.8-1.2h34c1.1 0 2 .4 2.8 1.2.8.8 1.2 1.7 1.2 2.8V149c0 8-1.7 15-5.1 21.1-3.4 6.1-8.5 10.9-15.2 14.3-6.8 3.5-15 5.2-24.6 5.2-14.4 0-25.3-3.6-32.8-10.9-7.5-7.2-11.5-17.1-12-29.5-.1-2.5-.1-6.9-.1-13.2 0-6.3 0-10.7.1-13.2.5-12.1 4.5-21.8 12.1-29C257 86.6 267.9 83 282.1 83c10.4.1 18.8 1.8 25.3 5.2z" id="path1985" fill="url(#SVGID_24_)"/></g></g></svg>