<svg version="1.1" id="Слой_1" xmlns="http://www.w3.org/2000/svg" xmlns:xlink="http://www.w3.org/1999/xlink" x="0" y="0" viewBox="0 0 325.9 406.2" xml:space="preserve"><style>.st0,.st6{stroke:#bfccd3}.st0{fill:none;stroke-miterlimit:10;stroke-width:3}.st6{stroke-width:2}.st10,.st6,.st7{fill:none;stroke-miterlimit:10}.st7{stroke-width:.5;stroke:#53a9f4}.st10{stroke:#bfccd3}.st11{fill:#ff9b24}.st23{fill:none;stroke:#6535e4;stroke-width:.5;stroke-miterlimit:10}.st30{fill:#53a9f4}.st32{fill:#3537ab}.st34,.st35{fill:none;stroke-miterlimit:10}.st34{stroke-width:.5;stroke:#3537ab}.st35{stroke:#f5fbff}</style><path id="line5108" class="st0" d="M193.8 229.6l-47.5 169.3"/><path id="line5110" class="st0" d="M254.7 233.1l43 166.1"/><path id="line5112" class="st0" d="M230.1 233.1l-3.8 155.2"/><path id="polygon5114" fill="#f1f2f2" stroke="#bfccd3" stroke-width="2" stroke-miterlimit="10" d="M147.5 4.3h171.6l-1.2 278.3-184.6-3z"/><path id="path5116" d="M319 25.7l.1-21.4H147.5l-1 19.6c42-.4 108.7.9 172.5 1.8z" opacity=".19" fill="#bfccd3" stroke="#f1f2f2" stroke-width="2" stroke-miterlimit="10"/><g id="g5141" transform="translate(-36.7 -128.9)"><g id="g5139"><linearGradient id="path5123_1_" gradientUnits="userSpaceOnUse" x1="40.44" y1="369.738" x2="40.44" y2="386.938" gradientTransform="matrix(1 0 0 -1 158.3 547.096)"><stop offset="0" stop-color="#b63a00"/><stop offset="1" stop-color="#e85419"/></linearGradient><path id="path5123" d="M204.4 176.4c.2.2.2.3.2.4 0 .1-.1.3-.2.4-.1.1-.2.1-.4.1l-1.5-.1c-.3 0-.6-.1-.8-.4l-6.5-6.7-.2 6.2c0 .2-.1.3-.2.4-.1.1-.3.2-.5.2h-1c-.2 0-.3-.1-.4-.2-.1-.1-.2-.3-.2-.5l.6-15.5c0-.2.1-.3.2-.4.1-.1.3-.2.5-.2h1c.2 0 .3.1.4.2.1.1.2.3.2.5l-.2 5.6 6.6-5.6c.2-.2.5-.3.9-.3l1.4.1c.1 0 .3.1.4.2.1.1.1.2.1.4 0 .1-.1.3-.3.4l-8 6.8 7.9 8z" fill="url(#path5123_1_)"/><linearGradient id="path5130_1_" gradientUnits="userSpaceOnUse" x1="55.147" y1="369.57" x2="55.147" y2="386.395" gradientTransform="matrix(1 0 0 -1 158.3 547.096)"><stop offset="0" stop-color="#b63a00"/><stop offset="1" stop-color="#e85419"/></linearGradient><path id="path5130" d="M218.4 162.4c1.1.9 1.6 2.2 1.5 3.8 0 1.1-.3 2.1-.9 2.8-.5.8-1.3 1.3-2.2 1.7s-1.9.5-2.9.5l-4.4-.2-.2 5.9c0 .2-.1.3-.2.4-.1.1-.3.2-.5.2h-1c-.2 0-.3-.1-.4-.2-.1-.1-.2-.3-.2-.5l.6-15.5c0-.2.1-.3.2-.4.1-.1.3-.2.5-.2l6 .2c1.7.1 3 .6 4.1 1.5zm-4.5 6.6c1.2 0 2.1-.2 2.7-.7.6-.5 1-1.2 1-2.2.1-2-1.1-3-3.5-3.1l-4.3-.2-.2 5.9 4.3.3z" fill="url(#path5130_1_)"/><linearGradient id="path5137_1_" gradientUnits="userSpaceOnUse" x1="65.54" y1="369.008" x2="65.54" y2="385.833" gradientTransform="matrix(1 0 0 -1 158.3 547.096)"><stop offset="0" stop-color="#b63a00"/><stop offset="1" stop-color="#e85419"/></linearGradient><path id="path5137" d="M222.6 177.8c-.1-.1-.2-.3-.2-.5l.6-15.5c0-.2.1-.3.2-.4.1-.1.3-.2.5-.2h1c.2 0 .3.1.4.2.1.1.2.3.2.5l-.6 15.5c0 .2-.1.3-.2.4-.1.1-.3.2-.5.2h-1c-.2 0-.3 0-.4-.2z" fill="url(#path5137_1_)"/></g></g><path id="polyline5143" class="st6" d="M156.5 64.7l-10.2 201.7 159.8 1.2"/><path id="path5145" class="st7" d="M114.5 314.3s3.3 1.4 7.3.2"/><linearGradient id="path5152_1_" gradientUnits="userSpaceOnUse" x1="-63.498" y1="103.395" x2="9.09" y2="103.395" gradientTransform="matrix(1 0 0 -1 158.3 289.296)"><stop offset=".127" stop-color="#ff9b24"/><stop offset="1" stop-color="#ffcb3d"/></linearGradient><path id="path5152" d="M163.3 154.5c1.7-2.7 4.1-5.8 4.1-5.8 0-1-1.8-1.2-2.5-.6-8 6.6-12.5 7.8-12.5 7.8-2.5.7-6.2 1.8-6.2 1.8h-.1c3.4-2.4 9.1-7.6 6.8-8.5-2.5-.9-5.2 1.9-12.6 7.8-6.3 5 2 14.1 2 14.1s-24.9 33.6-28 35.7c-5.1-2.8-10.6-31-10.6-31s-10.4-11.7-8.7 13.1c1.7 24.8 13.5 34.5 13.5 34.5 8.3 6.7 35.2-41 39.4-48.6 3.3-.1 7.5-4 10.2-8.5.1 0 .3.1.5.1 1.4 0 2.5-1.2 2.5-2.8 0-.4-.1-.7-.2-1h.2c1.4 0 2.5-1.2 2.5-2.8 0-.4-.1-.7-.2-1 .6-.5 1-1.3 1-2.2 0-.7-.4-1.6-1.1-2.1zm-17.6 3.6z" fill="url(#path5152_1_)"/><g transform="translate(-36.7 -128.9)" id="g5192"><defs><path id="SVGID_1_" d="M292.8 262.3l10.2-29.4 31.4-44.8 1.4 198.1-141.7-4.7 26.5-57.4 24.2-7.3 12.8-35.7z"/></defs><clipPath id="SVGID_2_"><use xlink:href="#SVGID_1_" overflow="visible"/></clipPath><g id="g5190" clip-path="url(#SVGID_2_)"><path id="line5160" class="st10" d="M209.4 311.1l-5.3 104.6"/><path id="line5162" class="st10" d="M218.1 300.5L213 416.1"/><path id="line5164" class="st10" d="M226.9 289.9l-5 126.7"/><path id="line5166" class="st10" d="M235.6 279.3L230.8 417"/><path id="line5168" class="st10" d="M244.3 268.7l-4.6 148.7"/><path id="line5170" class="st10" d="M253 258.1l-4.4 159.7"/><path id="line5172" class="st10" d="M261.7 247.5l-4.2 170.7"/><path id="line5174" class="st10" d="M270.5 236.9l-4 181.7"/><path id="line5176" class="st10" d="M279.2 226.3L275.4 419"/><path id="line5178" class="st10" d="M287.9 215.7l-3.6 203.7"/><path id="line5180" class="st10" d="M296.6 205.1l-3.4 214.7"/><path id="line5182" class="st10" d="M305.3 194.5l-3.2 225.8"/><path id="line5184" class="st10" d="M314 183.9l-3 236.8"/><path id="line5186" class="st10" d="M322.8 173.3l-2.9 247.8"/><path id="line5188" class="st10" d="M331.5 162.7l-2.7 258.8"/></g></g><g id="g5198" transform="translate(-36.7 -128.9)"><g id="g5196"><path id="path5194" class="st11" d="M197.6 381.3c7.8-17 15.7-33.9 23.5-50.9 1-2.2 2.1-4.3 3-6.5-.6 1.6-1.6.5-.3.6.6 0 1.4-.4 2-.6 2.8-.8 5.6-1.7 8.4-2.5 3.9-1.2 9.3-1.8 12.9-3.9 2-1.1 2.4-4 3.1-6.1 2-5.5 3.9-10.9 5.9-16.4 1.6-4.3 3.8-8.8 4.8-13.3.5-2 .5-.5-.1-.3 1.4-.5 2.7-1.4 4-2.1 5-2.7 10.1-5.4 15.1-8.1 4.4-2.4 8.8-4.7 13.2-7.1 2.1-1.1 3-1.5 3.8-3.7 3.4-9.5 5.7-19.5 8.6-29.2 1-3.3.8-3.1 2.7-5.5 3.4-4.4 6.7-8.8 10.1-13.2 6-7.8 11.9-15.6 17.9-23.4 1.5-1.9-1.8-3.8-3.2-1.9-5.1 6.6-10.1 13.2-15.2 19.9-3.4 4.4-6.8 8.9-10.1 13.3-1.5 2-3.6 4-4.6 6.2-1.3 2.8-1.8 6.3-2.7 9.2-1.6 5.6-3.3 11.2-4.9 16.8l-1.8 6c-.2.6-.4 1.1-.5 1.7-.2.9 1.4-1 .5-.7-3.5 1.3-6.8 3.6-10 5.4-5.2 2.8-10.5 5.6-15.7 8.4-2.7 1.5-6.8 2.8-9.1 4.9-1.7 1.6-2.2 4.8-3 6.9-2 5.4-3.9 10.9-5.9 16.3l-2.7 7.5c-.5 1.5-1.9 3.8-1.9 5.3 0 .1-.3.7-.3.7-1.1-1.6 2.7-1.2.2-.9-2.2.2-4.6 1.4-6.7 2-5 1.5-10.2 2.8-15.1 4.6-2 .7-2.4 1.4-3.2 3.3-8.5 18.4-17 36.9-25.6 55.3-1.3 2.2 1.9 4.1 2.9 2z"/></g></g><linearGradient id="circle5205_1_" gradientUnits="userSpaceOnUse" x1="28.59" y1="89.043" x2="28.59" y2="100.725" gradientTransform="matrix(1 0 0 -1 158.3 289.296)"><stop offset="0" stop-color="#b63a00"/><stop offset="1" stop-color="#e85419"/></linearGradient><circle id="circle5205" cx="186.9" cy="194.4" r="5.8" fill="url(#circle5205_1_)"/><linearGradient id="circle5212_1_" gradientUnits="userSpaceOnUse" x1="64.39" y1="132.435" x2="64.39" y2="144.117" gradientTransform="matrix(1 0 0 -1 158.3 289.296)"><stop offset="0" stop-color="#b63a00"/><stop offset="1" stop-color="#e85419"/></linearGradient><circle id="circle5212" cx="222.7" cy="151" r="5.8" fill="url(#circle5212_1_)"/><linearGradient id="circle5219_1_" gradientUnits="userSpaceOnUse" x1="100.09" y1="151.522" x2="100.09" y2="163.204" gradientTransform="matrix(1 0 0 -1 158.3 289.296)"><stop offset="0" stop-color="#b63a00"/><stop offset="1" stop-color="#e85419"/></linearGradient><circle id="circle5219" cx="258.4" cy="131.9" r="5.8" fill="url(#circle5219_1_)"/><linearGradient id="circle5226_1_" gradientUnits="userSpaceOnUse" x1="109.59" y1="185.298" x2="109.59" y2="196.98" gradientTransform="matrix(1 0 0 -1 158.3 289.296)"><stop offset="0" stop-color="#b63a00"/><stop offset="1" stop-color="#e85419"/></linearGradient><circle id="circle5226" cx="267.9" cy="98.2" r="5.8" fill="url(#circle5226_1_)"/><path id="polyline5228" class="st6" d="M149.3 75.8l7.2-11.1 5.4 11.1"/><path id="polyline5230" class="st6" d="M301.2 261.4l6 6.2-8.1 5"/><linearGradient id="path5237_1_" gradientUnits="userSpaceOnUse" x1="-155.61" y1="88.002" x2="-50.31" y2="88.002" gradientTransform="matrix(1 0 0 -1 158.3 289.296)"><stop offset="0" stop-color="#467ef7"/><stop offset="1" stop-color="#61cbf7"/></linearGradient><path id="path5237" d="M97.2 224.9c-.3-4.1-1-16.2-1.7-27.5.1-2.2.1-4.4.1-6.7 4.4-1.9 7.3-2.7 12.4-6.5-2.6-11.7-8.4-30.2-16.5-37.6-2.2-2-3.7-3.2-4.9-3.9-3.9-2.5-9.4-3.7-11.2-4-8.9-1.6-19-1.5-30.5 1.3-3.6.7-7.4 1.8-11.4 3.5-12.7 5.5-26.4 21.2-30.8 30.9 6.5 2.3 12.8 5 17.7 9.8 2.8-4.8 6.6-9 10.5-12.6l-2 56.3s.3 16.6 1.8 24.3h2.6c3.2 11.7 10.6 17.7 25.7 7.6 7.4-4.9 15.4-8 22.1-10.5 6.7-1 12.7-2.2 17.6-3.8-.6-4.7-1.3-17.8-1.5-20.6z" fill="url(#path5237_1_)"/><path id="path5239" d="M97.2 227.4h-.3c.1-.1.2-.1.3 0z" fill="#61aaf7"/><linearGradient id="path5246_1_" gradientUnits="userSpaceOnUse" x1="-81.71" y1="-113.902" x2="-81.71" y2="43.598" gradientTransform="matrix(1 0 0 -1 158.3 289.296)"><stop offset="0" stop-color="#30259a"/><stop offset="1" stop-color="#33313d"/></linearGradient><path id="path5246" d="M98.6 245.7c-21.9 5.8-44.9 4.6-67.6 6.6 1.1 19.2 5.4 31 10.6 52.1C54.4 355.9 59.8 395 59.8 395l7 1.5L72 280c11.6 18.6 27.8 37.9 27.8 37.9.1.1-1.6 26.8-.7 43.9 2.8 54.1 4.9 38.4 5.2 40.7l6.7.7s11.1-89 11.2-89.1c-1.1-9.3-10.4-32.4-23.6-68.4z" fill="url(#path5246_1_)"/><linearGradient id="path5253_1_" gradientUnits="userSpaceOnUse" x1="-118.582" y1="-109.624" x2="-89.917" y2="-109.624" gradientTransform="matrix(1 0 0 -1 158.3 289.296)"><stop offset="0" stop-color="#467ef7"/><stop offset="1" stop-color="#61cbf7"/></linearGradient><path id="path5253" d="M40.2 404.6c-3-1.1 10.6-8.3 16.7-10 3.1-.9 6.3-1.2 9.6-1.4 1.1 3 2 9.3 2 9.3s-27.1 2.5-28.3 2.1z" fill="url(#path5253_1_)"/><linearGradient id="path5260_1_" gradientUnits="userSpaceOnUse" x1="-57.067" y1="-109.916" x2="-25.105" y2="-109.916" gradientTransform="matrix(1 0 0 -1 158.3 289.296)"><stop offset="0" stop-color="#467ef7"/><stop offset="1" stop-color="#61cbf7"/></linearGradient><path id="path5260" d="M132 406.1c4.6.4-5.1-5.9-10.5-8.5-13.4-6.4-16-5.2-20.3-5.2l.2 12.2c.1-.1 28.3 1.3 30.6 1.5z" fill="url(#path5260_1_)"/><path id="path5262" class="st7" d="M50.3 336.4s1.7 3.8 9.2 1.1"/><linearGradient id="path5269_1_" gradientUnits="userSpaceOnUse" x1="-117.854" y1="188.329" x2="-72.31" y2="188.329" gradientTransform="matrix(1 0 0 -1 158.3 289.296)"><stop offset=".127" stop-color="#ff9b24"/><stop offset="1" stop-color="#ffcb3d"/></linearGradient><path id="path5269" d="M86 93.3c0-.4-1.5-1.2-3.7-2.2.5-5.4.3-11.1-1-17-6-28.1-37.4-19.1-40-2-2.5 17.1 0 30.1 15 53.1l1.2 18.3s7.2 6.1 13.1-1.2l-1.1-15.8s9.6-13 12.3-31.1c2.2-.3 4.1-1 4.2-2.1z" fill="url(#path5269_1_)"/><path id="path5271" class="st11" d="M92.6 215.8c-.2-.2-.3-.2-.3-.2.1.1.2.2.3.2z"/><path id="path5273" class="st7" d="M46.8 256.9s-2.3 8.9-14.5 6.4"/><path id="path5275" class="st7" d="M92.6 250.4s2 6.5 11.1 6.9"/><path id="path5277" class="st7" d="M70.6 271.2l6.1-1.2s.9-8.2.7-13.6"/><linearGradient id="path5284_1_" gradientUnits="userSpaceOnUse" x1="-155.61" y1="109.115" x2="-137.353" y2="109.115" gradientTransform="matrix(1 0 0 -1 158.3 289.296)"><stop offset="0" stop-color="#33313d"/><stop offset="1" stop-color="#4625c1"/></linearGradient><path id="path5284" d="M2.7 174.5s13.4 16.4 17.7 9.8c4.3-6.7-17.7-9.8-17.7-9.8z" fill="url(#path5284_1_)"/><path id="path5286" class="st23" d="M27.7 159.8s.9 6.5 3.1 8.9"/><path id="path5288" class="st23" d="M29.9 170.3s-2 .7-5.5-2.2"/><g id="g5328" transform="translate(-36.7 -128.9)"><g id="g5326"><g id="g5297"><linearGradient id="path5295_1_" gradientUnits="userSpaceOnUse" x1="-64.666" y1="271.598" x2="-51.32" y2="271.598" gradientTransform="matrix(1 0 0 -1 158.3 547.096)"><stop offset="0" stop-color="#4625c1"/><stop offset="1" stop-color="#33313d"/></linearGradient><path id="path5295" d="M107 271.2c-2.2 1.3-7.4 3.6-12.4.2h-1l1.9 8.1 4.7-3.4 5.4 3.7 1.4-8.6z" fill="url(#path5295_1_)"/></g><g id="g5306"><linearGradient id="circle5304_1_" gradientUnits="userSpaceOnUse" x1="-58.321" y1="239.898" x2="-54.277" y2="239.898" gradientTransform="matrix(1 0 0 -1 158.3 547.096)"><stop offset="0" stop-color="#4625c1"/><stop offset="1" stop-color="#33313d"/></linearGradient><circle id="circle5304" cx="102" cy="307.2" r="2" fill="url(#circle5304_1_)"/></g><g id="g5315"><linearGradient id="circle5313_1_" gradientUnits="userSpaceOnUse" x1="-58.321" y1="248.998" x2="-54.277" y2="248.998" gradientTransform="matrix(1 0 0 -1 158.3 547.096)"><stop offset="0" stop-color="#4625c1"/><stop offset="1" stop-color="#33313d"/></linearGradient><circle id="circle5313" cx="102" cy="298.1" r="2" fill="url(#circle5313_1_)"/></g><g id="g5324"><linearGradient id="circle5322_1_" gradientUnits="userSpaceOnUse" x1="-58.645" y1="260.098" x2="-54.602" y2="260.098" gradientTransform="matrix(1 0 0 -1 158.3 547.096)"><stop offset="0" stop-color="#4625c1"/><stop offset="1" stop-color="#33313d"/></linearGradient><circle id="circle5322" cx="101.7" cy="287" r="2" fill="url(#circle5322_1_)"/></g></g></g><path id="path5330" class="st23" d="M94.8 172.3s-.4 20.6 1.4 33"/><linearGradient id="path5337_1_" gradientUnits="userSpaceOnUse" x1="-17.017" y1="279.448" x2="167.79" y2="279.448" gradientTransform="matrix(1 0 0 -1 158.3 289.296)"><stop offset="0" stop-color="#fff"/><stop offset="1" stop-color="#ccc"/></linearGradient><path id="path5337" d="M143.5 18.1l180.4 1.5c1.2 0 2.2-1 2.2-2.2V2.3c0-1.2-1-2.2-2.2-2.2H144.4c-1.2 0-2.1.9-2.2 2.1l-.9 13.6c-.1 1.3.9 2.3 2.2 2.3z" fill="url(#path5337_1_)"/><linearGradient id="path5344_1_" gradientUnits="userSpaceOnUse" x1="-158.208" y1="83.498" x2="-120.336" y2="83.498" gradientTransform="matrix(1 0 0 -1 158.3 289.296)"><stop offset=".127" stop-color="#ff9b24"/><stop offset="1" stop-color="#ffcb3d"/></linearGradient><path id="path5344" d="M36.6 223.3c1.5-.7 2-3.1.6-4.2-3.1-1.1-6.2.4-6.2.4l-.5-.9c.1-.1 3-1.5 6.2-.7 1.4-1.3.9-4.4-1.6-4.4-1.8 0-3.6.3-5.2 1.1-2.6 1.3-3.6 3.9-3.3 6.6-.7 1.2-1.1 2.6-1.1 4.1-.9.7-1.6 1.6-2 2.7-7.2-4.7-15-12.1-15.5-23.8-.2-4.8 1.8-13.4 5.4-21l.3-.6c.1-.3.3-.6.5-.9.7-1.3 1.4-2.6 2.2-3.9-3-1.3-6.7-2.2-9.5-2.8-.2.3-.3.7-.4 1-.2.4-.3.7-.4 1.1-.1.1-.1.3-.2.4-2.2 5.6-3.7 11.1-4.5 16.5-.6.8-1.1 1.9-1 2.7 0 .4.3 1 .6 1.6-.6 11.3 2.5 21.3 10.2 27.9 9 7.7 14.3 10.4 18.4 10.4 1 0 1.5-2.2 1.1-4.8h.2c.3 0 .6.1.9.1.3.1 1.9.7.8.2 1.2.5 2.7.4 3.4-.9.2-.4.3-1 .3-1.5-2-2.3-5.1-2.7-5.1-2.7l.1-1c.1 0 2.4.3 4.4 1.9.6-.3 1.1-.8 1.3-1.5.2-.6 0-1.4-.3-2-2.3-1.5-5.1-1.2-5.6-1.1.2-.4.4-.8.7-1.1.9.1 2.9.2 4.8 1.1z" fill="url(#path5344_1_)"/><path id="polygon5346" class="st30" d="M20.2 231.2l-2 3.3-2.3-1.6 2.4-3.3z"/><path id="path5348" d="M23 230.1l.1-.1c.9-1.4.5-3.2-.8-4.1-1.4-.9-3.2-.5-4.1.8l-.1.1c-.9 1.4-.5 3.2.8 4.1 1.4.9 3.2.5 4.1-.8z" fill="#d9dbe8"/><path id="path5350" class="st30" d="M22.5 229.7l.1-.1c.7-1.1.4-2.5-.7-3.3-1.1-.7-2.5-.4-3.3.7l-.1.1c-.7 1.1-.4 2.5.7 3.3 1.1.7 2.6.4 3.3-.7z"/><ellipse id="ellipse5352" transform="rotate(-89.257 56.323 84.411) scale(.99998)" class="st32" cx="56.3" cy="84.4" rx="1.3" ry="1.5"/><circle id="ellipse5354" class="st32" cx="75.1" cy="84.1" r="1.1"/><path id="path5356" d="M61.3 99.6c-3.7 1.1-5.2-.2-6.7-1.3-.5-.4-1.3.1-1.1.7.1.3.1.5.2.8 1.7 1.6 6 2.3 7.3 1.6.2-1.4.3-1.8.3-1.8z" fill="#fff"/><path id="path5358" class="st34" d="M66.6 83c.1 4.5-4.3 9.1-9.5 9.2s-9.3-4.4-9.4-8.8c-.1-4.5 4-8.1 9.2-8.3 5.2-.2 9.6 3.4 9.7 7.9z"/><path id="path5360" class="st34" d="M87.3 82.6c.1 4.5-4.3 9.1-9.5 9.2s-9.3-4.4-9.4-8.8 4-8.1 9.2-8.3c5.3-.1 9.6 3.4 9.7 7.9z"/><path id="path5362" class="st34" d="M70.9 96.4s15.4-.3 14.9-3-18.6-6.9-18.6-6.9"/><path id="path5364" class="st34" d="M66.3 81.2s1.1-.6 2.3.1"/><path id="path5366" class="st35" d="M56.9 77.6s5.1-.7 7.1 4.2"/><path id="path5368" class="st35" d="M76.4 77.2s5.1-.7 7.1 4.2"/><linearGradient id="path5375_1_" gradientUnits="userSpaceOnUse" x1="-119.654" y1="220.451" x2="-76.223" y2="220.451" gradientTransform="matrix(1 0 0 -1 158.3 289.296)"><stop offset="0" stop-color="#4625c1"/><stop offset="1" stop-color="#33313d"/></linearGradient><path id="path5375" d="M72.1 46.6c-17.7-5.7-33.8.1-29.6 12.2-1.3.5-2.4 1.6-2.9 3.4-2 7.3-.2 25.1-.2 25.1 3.4-1.4 5.4 5.2 5.4 5.2l2 .8S42.2 76.9 49 73.4s3.4-13.1 3.4-13.1 10.1 9 26 1.5c.1-.1 11.5-9.5-6.3-15.2z" fill="url(#path5375_1_)"/><path id="path5377" d="M79.3 58.1s-14.2 7.4-26.8-.8" fill="none" stroke="#d9dbe8" stroke-width=".5" stroke-miterlimit="10"/><path id="path5379" class="st34" d="M62.3 99.3c-3.7 1.1-6.3.1-7.7-1-.5-.4-1.3.1-1.1.7.6 2.7 2.8 6.1 5.4 5.8"/><ellipse id="ellipse5381" transform="rotate(-27.839 40.469 91.291)" class="st11" cx="40.5" cy="91.3" rx="4.1" ry="5.4"/><path id="path5383" d="M38.2 88.4s4-.4 4.3 4.9" fill="none" stroke="#ce7c24" stroke-width=".5" stroke-miterlimit="10"/></svg>