<svg version="1.1" id="bg" xmlns="http://www.w3.org/2000/svg" xmlns:xlink="http://www.w3.org/1999/xlink" x="0" y="0" viewBox="0 0 418 740" xml:space="preserve"><style>.st0{fill:#4625c1}.st7,.st8{stroke:#bfccd3;stroke-width:2;fill:none;stroke-miterlimit:10}.st8{stroke-width:.5;stroke:#53a9f4}.st12{fill:#ff9b24}.st24{fill:none;stroke:#6535e4;stroke-width:.5;stroke-miterlimit:10}.st31{fill:#53a9f4}.st33{fill:#3537ab}.st35{fill:none;stroke-miterlimit:10;stroke-width:.5;stroke:#3537ab}</style><ellipse class="st0" cx="216.7" cy="524.7" rx="162.4" ry="22.3"/><ellipse class="st0" cx="216.7" cy="524.7" rx="180" ry="24.7"/><path d="M247 358.4l-47.5 169.3m108.4-165.8l43 166.1m-67.6-166.1l-3.8 155.2" fill="none" stroke-miterlimit="10" stroke-width="3" stroke="#bfccd3"/><path fill="#f1f2f2" stroke="#bfccd3" stroke-width="2" stroke-miterlimit="10" d="M200.7 133.1h171.6l-1.2 278.3-184.6-3z"/><path d="M372.2 154.5l.1-21.4H200.7l-1 19.6c42-.4 108.7.9 172.5 1.8z" opacity=".19" fill="#bfccd3" stroke="#f1f2f2" stroke-width="2" stroke-miterlimit="10"/><linearGradient id="SVGID_1_" gradientUnits="userSpaceOnUse" x1="215.179" y1="177.26" x2="215.179" y2="160.076"><stop offset="0" stop-color="#b63a00"/><stop offset="1" stop-color="#e85419"/></linearGradient><path d="M220.9 176.3c.2.2.2.3.2.4 0 .1-.1.3-.2.4-.1.1-.2.1-.4.1l-1.5-.1c-.3 0-.6-.1-.8-.4l-6.5-6.7-.2 6.2c0 .2-.1.3-.2.4-.1.1-.3.2-.5.2h-1c-.2 0-.3-.1-.4-.2-.1-.1-.2-.3-.2-.5l.6-15.5c0-.2.1-.3.2-.4s.3-.2.5-.2h1c.2 0 .3.1.4.2s.2.3.2.5l-.2 5.6 6.6-5.6c.2-.2.5-.3.9-.3l1.4.1c.1 0 .3.1.4.2.1.1.1.2.1.4 0 .1-.1.3-.3.4l-8 6.8 7.9 8z" fill="url(#SVGID_1_)"/><linearGradient id="SVGID_2_" gradientUnits="userSpaceOnUse" x1="229.968" y1="177.428" x2="229.968" y2="160.603"><stop offset="0" stop-color="#b63a00"/><stop offset="1" stop-color="#e85419"/></linearGradient><path d="M234.9 162.3c1.1.9 1.6 2.2 1.5 3.8 0 1.1-.3 2.1-.9 2.8-.5.8-1.3 1.3-2.2 1.7s-1.9.5-2.9.5l-4.4-.2-.2 5.9c0 .2-.1.3-.2.4-.1.1-.3.2-.5.2h-1c-.2 0-.3-.1-.4-.2-.1-.1-.2-.3-.2-.5l.6-15.5c0-.2.1-.3.2-.4.1-.1.3-.2.5-.2l6 .2c1.7.1 3 .6 4.1 1.5zm-4.5 6.6c1.2 0 2.1-.2 2.7-.7.6-.5 1-1.2 1-2.2.1-2-1.1-3-3.5-3.1l-4.3-.2-.2 5.9 4.3.3z" fill="url(#SVGID_2_)"/><linearGradient id="SVGID_3_" gradientUnits="userSpaceOnUse" x1="240.3" y1="177.99" x2="240.3" y2="161.165"><stop offset="0" stop-color="#b63a00"/><stop offset="1" stop-color="#e85419"/></linearGradient><path d="M239.1 177.7c-.1-.1-.2-.3-.2-.5l.6-15.5c0-.2.1-.3.2-.4.1-.1.3-.2.5-.2h1c.2 0 .3.1.4.2s.2.3.2.5l-.6 15.5c0 .2-.1.3-.2.4-.1.1-.3.2-.5.2h-1c-.2 0-.3 0-.4-.2z" fill="url(#SVGID_3_)"/><path class="st7" d="M209.7 193.5l-10.2 201.7 159.8 1.2"/><path class="st8" d="M167.7 443.1s3.3 1.4 7.3.2"/><linearGradient id="SVGID_4_" gradientUnits="userSpaceOnUse" x1="148.023" y1="314.828" x2="220.615" y2="314.828"><stop offset=".127" stop-color="#ff9b24"/><stop offset="1" stop-color="#ffcb3d"/></linearGradient><path d="M216.5 283.3c1.7-2.7 4.1-5.8 4.1-5.8 0-1-1.8-1.2-2.5-.6-8 6.6-12.5 7.8-12.5 7.8-2.5.7-6.2 1.8-6.2 1.8h-.1c3.4-2.4 9.1-7.6 6.8-8.5-2.5-.9-5.2 1.9-12.6 7.8-6.3 5 2 14.1 2 14.1s-24.9 33.6-28 35.7c-5.1-2.8-10.6-31-10.6-31s-10.4-11.7-8.7 13.1c1.7 24.8 13.5 34.5 13.5 34.5 8.3 6.7 35.2-41 39.4-48.6 3.3-.1 7.5-4 10.2-8.5.1 0 .3.1.5.1 1.4 0 2.5-1.2 2.5-2.8 0-.4-.1-.7-.2-1h.2c1.4 0 2.5-1.2 2.5-2.8 0-.4-.1-.7-.2-1 .6-.5 1-1.3 1-2.2 0-.7-.4-1.6-1.1-2.1zm-17.6 3.6z" fill="url(#SVGID_4_)"/><defs><path id="SVGID_5_" d="M210.6 381.4l26.5-57.4 24.2-7.3 12.8-35.7 35.2-18.8 10.2-29.4 31.4-44.8 1.4 198.1z"/></defs><clipPath id="SVGID_6_"><use xlink:href="#SVGID_5_" overflow="visible"/></clipPath><g clip-path="url(#SVGID_6_)"><path d="M225.9 311l-5.3 104.6m14-115.2L229.5 416m13.9-126.2l-5 126.7m13.7-137.3l-4.8 137.7m13.5-148.3l-4.6 148.7M269.5 258l-4.4 159.7m13.1-170.3L274 418.1m13-181.3l-4 181.7m12.7-192.3l-3.8 192.7m12.5-203.3l-3.6 203.7M313.1 205l-3.4 214.7m12.1-225.3l-3.2 225.8m11.9-236.4l-3 236.8m11.8-247.4L336.4 421M348 162.6l-2.7 258.8" stroke="#bfccd3" fill="none" stroke-miterlimit="10"/></g><path class="st12" d="M214.1 381.2c7.8-17 15.7-33.9 23.5-50.9 1-2.2 2.1-4.3 3-6.5-.6 1.6-1.6.5-.3.6.6 0 1.4-.4 2-.6 2.8-.8 5.6-1.7 8.4-2.5 3.9-1.2 9.3-1.8 12.9-3.9 2-1.1 2.4-4 3.1-6.1 2-5.5 3.9-10.9 5.9-16.4 1.6-4.3 3.8-8.8 4.8-13.3.5-2 .5-.5-.1-.3 1.4-.5 2.7-1.4 4-2.1 5-2.7 10.1-5.4 15.1-8.1 4.4-2.4 8.8-4.7 13.2-7.1 2.1-1.1 3-1.5 3.8-3.7 3.4-9.5 5.7-19.5 8.6-29.2 1-3.3.8-3.1 2.7-5.5 3.4-4.4 6.7-8.8 10.1-13.2 6-7.8 11.9-15.6 17.9-23.4 1.5-1.9-1.8-3.8-3.2-1.9-5.1 6.6-10.1 13.2-15.2 19.9-3.4 4.4-6.8 8.9-10.1 13.3-1.5 2-3.6 4-4.6 6.2-1.3 2.8-1.8 6.3-2.7 9.2-1.6 5.6-3.3 11.2-4.9 16.8l-1.8 6c-.2.6-.4 1.1-.5 1.7-.2.9 1.4-1 .5-.7-3.5 1.3-6.8 3.6-10 5.4-5.2 2.8-10.5 5.6-15.7 8.4-2.7 1.5-6.8 2.8-9.1 4.9-1.7 1.6-2.2 4.8-3 6.9-2 5.4-3.9 10.9-5.9 16.3l-2.7 7.5c-.5 1.5-1.9 3.8-1.9 5.3 0 .1-.3.7-.3.7-1.1-1.6 2.7-1.2.2-.9-2.2.2-4.6 1.4-6.7 2-5 1.5-10.2 2.8-15.1 4.6-2 .7-2.4 1.4-3.2 3.3-8.5 18.4-17 36.9-25.6 55.3-1.3 2.2 1.9 4.1 2.9 2z"/><linearGradient id="SVGID_7_" gradientUnits="userSpaceOnUse" x1="240.106" y1="329.055" x2="240.106" y2="317.373"><stop offset="0" stop-color="#b63a00"/><stop offset="1" stop-color="#e85419"/></linearGradient><circle cx="240.1" cy="323.2" r="5.8" fill="url(#SVGID_7_)"/><linearGradient id="SVGID_8_" gradientUnits="userSpaceOnUse" x1="275.868" y1="285.663" x2="275.868" y2="273.981"><stop offset="0" stop-color="#b63a00"/><stop offset="1" stop-color="#e85419"/></linearGradient><circle cx="275.9" cy="279.8" r="5.8" fill="url(#SVGID_8_)"/><linearGradient id="SVGID_9_" gradientUnits="userSpaceOnUse" x1="311.573" y1="266.576" x2="311.573" y2="254.894"><stop offset="0" stop-color="#b63a00"/><stop offset="1" stop-color="#e85419"/></linearGradient><circle cx="311.6" cy="260.7" r="5.8" fill="url(#SVGID_9_)"/><linearGradient id="SVGID_10_" gradientUnits="userSpaceOnUse" x1="321.088" y1="232.805" x2="321.088" y2="221.124"><stop offset="0" stop-color="#b63a00"/><stop offset="1" stop-color="#e85419"/></linearGradient><circle cx="321.1" cy="227" r="5.8" fill="url(#SVGID_10_)"/><path class="st7" d="M202.5 204.6l7.2-11.1 5.4 11.1m139.3 185.6l6 6.2-8.1 5"/><linearGradient id="SVGID_11_" gradientUnits="userSpaceOnUse" x1="55.912" y1="330.199" x2="161.207" y2="330.199"><stop offset="0" stop-color="#467ef7"/><stop offset="1" stop-color="#61cbf7"/></linearGradient><path d="M150.4 353.7c-.3-4.1-1-16.2-1.7-27.5.1-2.2.1-4.4.1-6.7 4.4-1.9 7.3-2.7 12.4-6.5-2.6-11.7-8.4-30.2-16.5-37.6-2.2-2-3.7-3.2-4.9-3.9-3.9-2.5-9.4-3.7-11.2-4-8.9-1.6-19-1.5-30.5 1.3-3.6.7-7.4 1.8-11.4 3.5-12.7 5.5-26.4 21.2-30.8 30.9 6.5 2.3 12.8 5 17.7 9.8 2.8-4.8 6.6-9 10.5-12.6l-2 56.3s.3 16.6 1.8 24.3h2.6c3.2 11.7 10.6 17.7 25.7 7.6 7.4-4.9 15.4-8 22.1-10.5 6.7-1 12.7-2.2 17.6-3.8-.6-4.7-1.3-17.8-1.5-20.6z" fill="url(#SVGID_11_)"/><path d="M150.4 356.2h-.3c.1-.1.2-.1.3 0z" fill="#61aaf7"/><linearGradient id="SVGID_12_" gradientUnits="userSpaceOnUse" x1="129.805" y1="531.98" x2="129.805" y2="374.452"><stop offset="0" stop-color="#30259a"/><stop offset="1" stop-color="#33313d"/></linearGradient><path d="M151.8 374.5c-21.9 5.8-44.9 4.6-67.6 6.6 1.1 19.2 5.4 31 10.6 52.1 12.8 51.5 18.2 90.6 18.2 90.6l7 1.5 5.2-116.5c11.6 18.6 27.8 37.9 27.8 37.9.1.1-1.6 26.8-.7 43.9 2.8 54.1 4.9 38.4 5.2 40.7l6.7.7s11.1-89 11.2-89.1c-1.1-9.3-10.4-32.4-23.6-68.4z" fill="url(#SVGID_12_)"/><linearGradient id="SVGID_13_" gradientUnits="userSpaceOnUse" x1="92.928" y1="527.669" x2="121.593" y2="527.669"><stop offset="0" stop-color="#467ef7"/><stop offset="1" stop-color="#61cbf7"/></linearGradient><path d="M93.4 533.4c-3-1.1 10.6-8.3 16.7-10 3.1-.9 6.3-1.2 9.6-1.4 1.1 3 2 9.3 2 9.3s-27.1 2.5-28.3 2.1z" fill="url(#SVGID_13_)"/><linearGradient id="SVGID_14_" gradientUnits="userSpaceOnUse" x1="154.442" y1="527.99" x2="186.405" y2="527.99"><stop offset="0" stop-color="#467ef7"/><stop offset="1" stop-color="#61cbf7"/></linearGradient><path d="M185.2 534.9c4.6.4-5.1-5.9-10.5-8.5-13.4-6.4-16-5.2-20.3-5.2l.2 12.2c.1-.1 28.3 1.3 30.6 1.5z" fill="url(#SVGID_14_)"/><path class="st8" d="M103.5 465.2s1.7 3.8 9.2 1.1"/><linearGradient id="SVGID_15_" gradientUnits="userSpaceOnUse" x1="93.658" y1="229.8" x2="139.182" y2="229.8"><stop offset=".127" stop-color="#ff9b24"/><stop offset="1" stop-color="#ffcb3d"/></linearGradient><path d="M139.2 222.1c0-.4-1.5-1.2-3.7-2.2.5-5.4.3-11.1-1-17-6-28.1-37.4-19.1-40-2-2.5 17.1 0 30.1 15 53.1l1.2 18.3s7.2 6.1 13.1-1.2l-1.1-15.8s9.6-13 12.3-31.1c2.2-.3 4.1-1 4.2-2.1z" fill="url(#SVGID_15_)"/><path class="st12" d="M145.8 344.6c-.2-.2-.3-.2-.3-.2.1.1.2.2.3.2z"/><path class="st8" d="M100 385.7s-2.3 8.9-14.5 6.4m60.3-12.9s2 6.5 11.1 6.9M123.8 400l6.1-1.2s.9-8.2.7-13.6"/><linearGradient id="SVGID_16_" gradientUnits="userSpaceOnUse" x1="55.912" y1="308.966" x2="74.152" y2="308.966"><stop offset="0" stop-color="#33313d"/><stop offset="1" stop-color="#4625c1"/></linearGradient><path d="M55.9 303.3s13.4 16.4 17.7 9.8c4.3-6.7-17.7-9.8-17.7-9.8z" fill="url(#SVGID_16_)"/><path class="st24" d="M80.9 288.6s.9 6.5 3.1 8.9m-.9 1.6s-2 .7-5.5-2.2"/><linearGradient id="SVGID_17_" gradientUnits="userSpaceOnUse" x1="110.144" y1="275.474" x2="123.49" y2="275.474"><stop offset="0" stop-color="#4625c1"/><stop offset="1" stop-color="#33313d"/></linearGradient><path d="M123.5 271.1c-2.2 1.3-7.4 3.6-12.4.2h-1l1.9 8.1 4.7-3.4 5.4 3.7 1.4-8.6z" fill="url(#SVGID_17_)"/><linearGradient id="SVGID_18_" gradientUnits="userSpaceOnUse" x1="116.489" y1="307.118" x2="120.533" y2="307.118"><stop offset="0" stop-color="#4625c1"/><stop offset="1" stop-color="#33313d"/></linearGradient><circle cx="118.5" cy="307.1" r="2" fill="url(#SVGID_18_)"/><linearGradient id="SVGID_19_" gradientUnits="userSpaceOnUse" x1="116.489" y1="298.034" x2="120.533" y2="298.034"><stop offset="0" stop-color="#4625c1"/><stop offset="1" stop-color="#33313d"/></linearGradient><circle cx="118.5" cy="298" r="2" fill="url(#SVGID_19_)"/><linearGradient id="SVGID_20_" gradientUnits="userSpaceOnUse" x1="116.164" y1="286.906" x2="120.208" y2="286.906"><stop offset="0" stop-color="#4625c1"/><stop offset="1" stop-color="#33313d"/></linearGradient><circle cx="118.2" cy="286.9" r="2" fill="url(#SVGID_20_)"/><path class="st24" d="M148 301.1s-.4 20.6 1.4 33"/><linearGradient id="SVGID_21_" gradientUnits="userSpaceOnUse" x1="194.486" y1="138.656" x2="379.232" y2="138.656"><stop offset="0" stop-color="#fff"/><stop offset="1" stop-color="#ccc"/></linearGradient><path d="M196.7 146.9l180.4 1.5c1.2 0 2.2-1 2.2-2.2v-15.1c0-1.2-1-2.2-2.2-2.2H197.6c-1.2 0-2.1.9-2.2 2.1l-.9 13.6c-.1 1.3.9 2.3 2.2 2.3z" fill="url(#SVGID_21_)"/><linearGradient id="SVGID_22_" gradientUnits="userSpaceOnUse" x1="53.301" y1="334.749" x2="91.174" y2="334.749"><stop offset=".127" stop-color="#ff9b24"/><stop offset="1" stop-color="#ffcb3d"/></linearGradient><path d="M89.8 352.1c1.5-.7 2-3.1.6-4.2-3.1-1.1-6.2.4-6.2.4l-.5-.9c.1-.1 3-1.5 6.2-.7 1.4-1.3.9-4.4-1.6-4.4-1.8 0-3.6.3-5.2 1.1-2.6 1.3-3.6 3.9-3.3 6.6-.7 1.2-1.1 2.6-1.1 4.1-.9.7-1.6 1.6-2 2.7-7.2-4.7-15-12.1-15.5-23.8-.2-4.8 1.8-13.4 5.4-21l.3-.6c.1-.3.3-.6.5-.9.7-1.3 1.4-2.6 2.2-3.9-3-1.3-6.7-2.2-9.5-2.8-.2.3-.3.7-.4 1-.2.4-.3.7-.4 1.1-.1.1-.1.3-.2.4-2.2 5.6-3.7 11.1-4.5 16.5-.6.8-1.1 1.9-1 2.7 0 .4.3 1 .6 1.6-.6 11.3 2.5 21.3 10.2 27.9 9 7.7 14.3 10.4 18.4 10.4 1 0 1.5-2.2 1.1-4.8h.2c.3 0 .6.1.9.1.3.1 1.9.7.8.2 1.2.5 2.7.4 3.4-.9.2-.4.3-1 .3-1.5-2-2.3-5.1-2.7-5.1-2.7l.1-1c.1 0 2.4.3 4.4 1.9.6-.3 1.1-.8 1.3-1.5.2-.6 0-1.4-.3-2-2.3-1.5-5.1-1.2-5.6-1.1.2-.4.4-.8.7-1.1.9.1 2.9.2 4.8 1.1z" fill="url(#SVGID_22_)"/><path class="st31" d="M73.4 360l-2 3.3-2.3-1.6 2.4-3.3z"/><path d="M76.2 358.9l.1-.1c.9-1.4.5-3.2-.8-4.1-1.4-.9-3.2-.5-4.1.8l-.1.1c-.9 1.4-.5 3.2.8 4.1 1.4.9 3.2.5 4.1-.8z" fill="#d9dbe8"/><path class="st31" d="M75.7 358.5l.1-.1c.7-1.1.4-2.5-.7-3.3-1.1-.7-2.5-.4-3.3.7l-.1.1c-.7 1.1-.4 2.5.7 3.3 1.1.7 2.6.4 3.3-.7z"/><ellipse transform="matrix(.01297 -.9999 .9999 .01297 -105.067 320.038)" class="st33" cx="109.6" cy="213.2" rx="1.3" ry="1.5"/><ellipse transform="rotate(-15.138 128.344 212.945)" class="st33" cx="128.3" cy="212.9" rx="1.1" ry="1.1"/><path d="M114.5 228.4c-3.7 1.1-5.2-.2-6.7-1.3-.5-.4-1.3.1-1.1.7.1.3.1.5.2.8 1.7 1.6 6 2.3 7.3 1.6.2-1.4.3-1.8.3-1.8z" fill="#fff"/><path class="st35" d="M119.8 211.8c.1 4.5-4.3 9.1-9.5 9.2-5.2.1-9.3-4.4-9.4-8.8-.1-4.5 4-8.1 9.2-8.3s9.6 3.4 9.7 7.9zm20.7-.4c.1 4.5-4.3 9.1-9.5 9.2-5.2.1-9.3-4.4-9.4-8.8s4-8.1 9.2-8.3c5.3-.1 9.6 3.4 9.7 7.9z"/><path class="st35" d="M124.1 225.2s15.4-.3 14.9-3-18.6-6.9-18.6-6.9m-.9-5.3s1.1-.6 2.3.1"/><path d="M110.1 206.4s5.1-.7 7.1 4.2m12.4-4.6s5.1-.7 7.1 4.2" stroke="#f5fbff" fill="none" stroke-miterlimit="10"/><linearGradient id="SVGID_23_" gradientUnits="userSpaceOnUse" x1="91.876" y1="197.697" x2="135.318" y2="197.697"><stop offset="0" stop-color="#4625c1"/><stop offset="1" stop-color="#33313d"/></linearGradient><path d="M125.3 175.4c-17.7-5.7-33.8.1-29.6 12.2-1.3.5-2.4 1.6-2.9 3.4-2 7.3-.2 25.1-.2 25.1 3.4-1.4 5.4 5.2 5.4 5.2l2 .8s-4.6-16.4 2.2-19.9 3.4-13.1 3.4-13.1 10.1 9 26 1.5c.1-.1 11.5-9.5-6.3-15.2z" fill="url(#SVGID_23_)"/><path d="M132.5 186.9s-14.2 7.4-26.8-.8" fill="none" stroke="#d9dbe8" stroke-width=".5" stroke-miterlimit="10"/><path class="st35" d="M115.5 228.1c-3.7 1.1-6.3.1-7.7-1-.5-.4-1.3.1-1.1.7.6 2.7 2.8 6.1 5.4 5.8"/><ellipse transform="rotate(-27.839 93.665 220.141)" class="st12" cx="93.7" cy="220.1" rx="4.1" ry="5.4"/><path d="M91.4 217.2s4-.4 4.3 4.9" fill="none" stroke="#ce7c24" stroke-width=".5" stroke-miterlimit="10"/></svg>