<svg xmlns="http://www.w3.org/2000/svg" xmlns:xlink="http://www.w3.org/1999/xlink" version="1.1" id="bg" x="0" y="0" viewBox="0 0 360 420.5" xml:space="preserve" width="100%"><style type="text/css" id="style5102">.st0{fill:#4625c1}.st1,.st7{stroke:#bfccd3}.st1{fill:none;stroke-miterlimit:10;stroke-width:3}.st7{stroke-width:2}.st11,.st7,.st8{fill:none;stroke-miterlimit:10}.st8{stroke-width:.5;stroke:#53a9f4}.st11{stroke:#bfccd3}.st12{fill:#ff9b24}.st24{fill:none;stroke:#6535e4;stroke-width:.5;stroke-miterlimit:10}.st31{fill:#53a9f4}.st33{fill:#3537ab}.st35,.st36{fill:none;stroke-miterlimit:10}.st35{stroke-width:.5;stroke:#3537ab}.st36{stroke:#f5fbff}</style><ellipse class="st0" cx="180" cy="395.8" rx="162.4" ry="22.3" id="ellipse5104" fill="#4625c1"/><ellipse class="st0" cx="180" cy="395.8" rx="180" ry="24.7" id="ellipse5106" fill="#4625c1"/><path class="st1" id="line5108" fill="none" stroke="#bfccd3" stroke-width="3" stroke-miterlimit="10" d="M210.3 229.5l-47.5 169.3"/><path class="st1" id="line5110" fill="none" stroke="#bfccd3" stroke-width="3" stroke-miterlimit="10" d="M271.2 233l43 166.1"/><path class="st1" id="line5112" fill="none" stroke="#bfccd3" stroke-width="3" stroke-miterlimit="10" d="M246.6 233l-3.8 155.2"/><path id="polygon5114" fill="#f1f2f2" stroke="#bfccd3" stroke-width="2" stroke-miterlimit="10" d="M164 4.2h171.6l-1.2 278.3-184.6-3z"/><path d="M335.5 25.6l.1-21.4H164l-1 19.6c42-.4 108.7.9 172.5 1.8z" id="path5116" opacity=".19" fill="#bfccd3" stroke="#f1f2f2" stroke-width="2" stroke-miterlimit="10"/><g id="g5141" transform="translate(-36.7 -128.9)"><g id="g5139"><linearGradient id="SVGID_1_" gradientUnits="userSpaceOnUse" x1="215.179" y1="177.26" x2="215.179" y2="160.076"><stop offset="0" id="stop5118" stop-color="#b63a00"/><stop offset="1" id="stop5120" stop-color="#e85419"/></linearGradient><path d="M220.9 176.3c.2.2.2.3.2.4 0 .1-.1.3-.2.4-.1.1-.2.1-.4.1l-1.5-.1c-.3 0-.6-.1-.8-.4l-6.5-6.7-.2 6.2c0 .2-.1.3-.2.4-.1.1-.3.2-.5.2h-1c-.2 0-.3-.1-.4-.2-.1-.1-.2-.3-.2-.5l.6-15.5c0-.2.1-.3.2-.4.1-.1.3-.2.5-.2h1c.2 0 .3.1.4.2.1.1.2.3.2.5l-.2 5.6 6.6-5.6c.2-.2.5-.3.9-.3l1.4.1c.1 0 .3.1.4.2.1.1.1.2.1.4 0 .1-.1.3-.3.4l-8 6.8z" id="path5123" fill="url(#SVGID_1_)"/><linearGradient id="SVGID_2_" gradientUnits="userSpaceOnUse" x1="229.968" y1="177.428" x2="229.968" y2="160.603"><stop offset="0" id="stop5125" stop-color="#b63a00"/><stop offset="1" id="stop5127" stop-color="#e85419"/></linearGradient><path d="M234.9 162.3c1.1.9 1.6 2.2 1.5 3.8 0 1.1-.3 2.1-.9 2.8-.5.8-1.3 1.3-2.2 1.7-.9.4-1.9.5-2.9.5l-4.4-.2-.2 5.9c0 .2-.1.3-.2.4-.1.1-.3.2-.5.2h-1c-.2 0-.3-.1-.4-.2-.1-.1-.2-.3-.2-.5l.6-15.5c0-.2.1-.3.2-.4.1-.1.3-.2.5-.2l6 .2c1.7.1 3 .6 4.1 1.5zm-4.5 6.6c1.2 0 2.1-.2 2.7-.7.6-.5 1-1.2 1-2.2.1-2-1.1-3-3.5-3.1l-4.3-.2-.2 5.9z" id="path5130" fill="url(#SVGID_2_)"/><linearGradient id="SVGID_3_" gradientUnits="userSpaceOnUse" x1="240.3" y1="177.99" x2="240.3" y2="161.165"><stop offset="0" id="stop5132" stop-color="#b63a00"/><stop offset="1" id="stop5134" stop-color="#e85419"/></linearGradient><path d="M239.1 177.7c-.1-.1-.2-.3-.2-.5l.6-15.5c0-.2.1-.3.2-.4.1-.1.3-.2.5-.2h1c.2 0 .3.1.4.2.1.1.2.3.2.5l-.6 15.5c0 .2-.1.3-.2.4-.1.1-.3.2-.5.2h-1c-.2 0-.3 0-.4-.2z" id="path5137" fill="url(#SVGID_3_)"/></g></g><path class="st7" id="polyline5143" fill="none" stroke="#bfccd3" stroke-width="2" stroke-miterlimit="10" d="M173 64.6l-10.2 201.7 159.8 1.2"/><path class="st8" d="M131 314.2s3.3 1.4 7.3.2" id="path5145" fill="none" stroke="#53a9f4" stroke-width=".5" stroke-miterlimit="10"/><linearGradient id="SVGID_4_" gradientUnits="userSpaceOnUse" x1="148.023" y1="314.828" x2="220.615" y2="314.828" gradientTransform="translate(-36.7 -128.9)"><stop offset=".127" id="stop5147" stop-color="#ff9b24"/><stop offset="1" id="stop5149" stop-color="#ffcb3d"/></linearGradient><path d="M179.8 154.4c1.7-2.7 4.1-5.8 4.1-5.8 0-1-1.8-1.2-2.5-.6-8 6.6-12.5 7.8-12.5 7.8-2.5.7-6.2 1.8-6.2 1.8h-.1c3.4-2.4 9.1-7.6 6.8-8.5-2.5-.9-5.2 1.9-12.6 7.8-6.3 5 2 14.1 2 14.1s-24.9 33.6-28 35.7c-5.1-2.8-10.6-31-10.6-31s-10.4-11.7-8.7 13.1c1.7 24.8 13.5 34.5 13.5 34.5 8.3 6.7 35.2-41 39.4-48.6 3.3-.1 7.5-4 10.2-8.5.1 0 .3.1.5.1 1.4 0 2.5-1.2 2.5-2.8 0-.4-.1-.7-.2-1h.2c1.4 0 2.5-1.2 2.5-2.8 0-.4-.1-.7-.2-1 .6-.5 1-1.3 1-2.2 0-.7-.4-1.6-1.1-2.1zm-17.6 3.6z" id="path5152" fill="url(#SVGID_4_)"/><g id="g5192" transform="translate(-36.7 -128.9)"><defs id="defs5155"><path id="SVGID_5_" d="M309.3 262.2l10.2-29.4 31.4-44.8 1.4 198.1-141.7-4.7 26.5-57.4 24.2-7.3 12.8-35.7z"/></defs><clipPath id="SVGID_6_"><use xlink:href="#SVGID_5_" id="use5157" x="0" y="0" width="100%" height="100%" overflow="visible"/></clipPath><g clip-path="url(#SVGID_6_)" id="g5190"><path class="st11" id="line5160" fill="none" stroke="#bfccd3" stroke-miterlimit="10" d="M225.9 311l-5.3 104.6"/><path class="st11" id="line5162" fill="none" stroke="#bfccd3" stroke-miterlimit="10" d="M234.6 300.4L229.5 416"/><path class="st11" id="line5164" fill="none" stroke="#bfccd3" stroke-miterlimit="10" d="M243.4 289.8l-5 126.7"/><path class="st11" id="line5166" fill="none" stroke="#bfccd3" stroke-miterlimit="10" d="M252.1 279.2l-4.8 137.7"/><path class="st11" id="line5168" fill="none" stroke="#bfccd3" stroke-miterlimit="10" d="M260.8 268.6l-4.6 148.7"/><path class="st11" id="line5170" fill="none" stroke="#bfccd3" stroke-miterlimit="10" d="M269.5 258l-4.4 159.7"/><path class="st11" id="line5172" fill="none" stroke="#bfccd3" stroke-miterlimit="10" d="M278.2 247.4L274 418.1"/><path class="st11" id="line5174" fill="none" stroke="#bfccd3" stroke-miterlimit="10" d="M287 236.8l-4 181.7"/><path class="st11" id="line5176" fill="none" stroke="#bfccd3" stroke-miterlimit="10" d="M295.7 226.2l-3.8 192.7"/><path class="st11" id="line5178" fill="none" stroke="#bfccd3" stroke-miterlimit="10" d="M304.4 215.6l-3.6 203.7"/><path class="st11" id="line5180" fill="none" stroke="#bfccd3" stroke-miterlimit="10" d="M313.1 205l-3.4 214.7"/><path class="st11" id="line5182" fill="none" stroke="#bfccd3" stroke-miterlimit="10" d="M321.8 194.4l-3.2 225.8"/><path class="st11" id="line5184" fill="none" stroke="#bfccd3" stroke-miterlimit="10" d="M330.5 183.8l-3 236.8"/><path class="st11" id="line5186" fill="none" stroke="#bfccd3" stroke-miterlimit="10" d="M339.3 173.2L336.4 421"/><path class="st11" id="line5188" fill="none" stroke="#bfccd3" stroke-miterlimit="10" d="M348 162.6l-2.7 258.8"/></g></g><g id="g5198" transform="translate(-36.7 -128.9)"><g id="g5196"><path class="st12" d="M214.1 381.2c7.8-17 15.7-33.9 23.5-50.9 1-2.2 2.1-4.3 3-6.5-.6 1.6-1.6.5-.3.6.6 0 1.4-.4 2-.6 2.8-.8 5.6-1.7 8.4-2.5 3.9-1.2 9.3-1.8 12.9-3.9 2-1.1 2.4-4 3.1-6.1 2-5.5 3.9-10.9 5.9-16.4 1.6-4.3 3.8-8.8 4.8-13.3.5-2 .5-.5-.1-.3 1.4-.5 2.7-1.4 4-2.1 5-2.7 10.1-5.4 15.1-8.1 4.4-2.4 8.8-4.7 13.2-7.1 2.1-1.1 3-1.5 3.8-3.7 3.4-9.5 5.7-19.5 8.6-29.2 1-3.3.8-3.1 2.7-5.5 3.4-4.4 6.7-8.8 10.1-13.2 6-7.8 11.9-15.6 17.9-23.4 1.5-1.9-1.8-3.8-3.2-1.9-5.1 6.6-10.1 13.2-15.2 19.9-3.4 4.4-6.8 8.9-10.1 13.3-1.5 2-3.6 4-4.6 6.2-1.3 2.8-1.8 6.3-2.7 9.2-1.6 5.6-3.3 11.2-4.9 16.8l-1.8 6c-.2.6-.4 1.1-.5 1.7-.2.9 1.4-1 .5-.7-3.5 1.3-6.8 3.6-10 5.4-5.2 2.8-10.5 5.6-15.7 8.4-2.7 1.5-6.8 2.8-9.1 4.9-1.7 1.6-2.2 4.8-3 6.9-2 5.4-3.9 10.9-5.9 16.3l-2.7 7.5c-.5 1.5-1.9 3.8-1.9 5.3 0 .1-.3.7-.3.7-1.1-1.6 2.7-1.2.2-.9-2.2.2-4.6 1.4-6.7 2-5 1.5-10.2 2.8-15.1 4.6-2 .7-2.4 1.4-3.2 3.3-8.5 18.4-17 36.9-25.6 55.3-1.3 2.2 1.9 4.1 2.9 2z" id="path5194" fill="#ff9b24"/></g></g><linearGradient id="SVGID_7_" gradientUnits="userSpaceOnUse" x1="240.106" y1="329.055" x2="240.106" y2="317.373" gradientTransform="translate(-36.7 -128.9)"><stop offset="0" id="stop5200" stop-color="#b63a00"/><stop offset="1" id="stop5202" stop-color="#e85419"/></linearGradient><circle cx="203.4" cy="194.3" id="circle5205" r="5.8" fill="url(#SVGID_7_)"/><linearGradient id="SVGID_8_" gradientUnits="userSpaceOnUse" x1="275.868" y1="285.663" x2="275.868" y2="273.982" gradientTransform="translate(-36.7 -128.9)"><stop offset="0" id="stop5207" stop-color="#b63a00"/><stop offset="1" id="stop5209" stop-color="#e85419"/></linearGradient><circle cx="239.2" cy="150.9" id="circle5212" r="5.8" fill="url(#SVGID_8_)"/><linearGradient id="SVGID_9_" gradientUnits="userSpaceOnUse" x1="311.573" y1="266.576" x2="311.573" y2="254.894" gradientTransform="translate(-36.7 -128.9)"><stop offset="0" id="stop5214" stop-color="#b63a00"/><stop offset="1" id="stop5216" stop-color="#e85419"/></linearGradient><circle cx="274.9" cy="131.8" id="circle5219" r="5.8" fill="url(#SVGID_9_)"/><linearGradient id="SVGID_10_" gradientUnits="userSpaceOnUse" x1="321.088" y1="232.805" x2="321.088" y2="221.124" gradientTransform="translate(-36.7 -128.9)"><stop offset="0" id="stop5221" stop-color="#b63a00"/><stop offset="1" id="stop5223" stop-color="#e85419"/></linearGradient><circle cx="284.4" cy="98.1" id="circle5226" r="5.8" fill="url(#SVGID_10_)"/><path class="st7" id="polyline5228" fill="none" stroke="#bfccd3" stroke-width="2" stroke-miterlimit="10" d="M165.8 75.7l7.2-11.1 5.4 11.1"/><path class="st7" id="polyline5230" fill="none" stroke="#bfccd3" stroke-width="2" stroke-miterlimit="10" d="M317.7 261.3l6 6.2-8.1 5"/><linearGradient id="SVGID_11_" gradientUnits="userSpaceOnUse" x1="55.912" y1="330.199" x2="161.207" y2="330.199" gradientTransform="translate(-36.7 -128.9)"><stop offset="0" id="stop5232" stop-color="#467ef7"/><stop offset="1" id="stop5234" stop-color="#61cbf7"/></linearGradient><path d="M113.7 224.8c-.3-4.1-1-16.2-1.7-27.5.1-2.2.1-4.4.1-6.7 4.4-1.9 7.3-2.7 12.4-6.5-2.6-11.7-8.4-30.2-16.5-37.6-2.2-2-3.7-3.2-4.9-3.9-3.9-2.5-9.4-3.7-11.2-4-8.9-1.6-19-1.5-30.5 1.3-3.6.7-7.4 1.8-11.4 3.5-12.7 5.5-26.4 21.2-30.8 30.9 6.5 2.3 12.8 5 17.7 9.8 2.8-4.8 6.6-9 10.5-12.6l-2 56.3s.3 16.6 1.8 24.3h2.6c3.2 11.7 10.6 17.7 25.7 7.6 7.4-4.9 15.4-8 22.1-10.5 6.7-1 12.7-2.2 17.6-3.8-.6-4.7-1.3-17.8-1.5-20.6z" id="path5237" fill="url(#SVGID_11_)"/><path d="M113.7 227.3h-.3c.1-.1.2-.1.3 0z" id="path5239" fill="#61aaf7"/><linearGradient id="SVGID_12_" gradientUnits="userSpaceOnUse" x1="129.805" y1="531.98" x2="129.805" y2="374.452" gradientTransform="translate(-36.7 -128.9)"><stop offset="0" id="stop5241" stop-color="#30259a"/><stop offset="1" id="stop5243" stop-color="#33313d"/></linearGradient><path d="M115.1 245.6c-21.9 5.8-44.9 4.6-67.6 6.6 1.1 19.2 5.4 31 10.6 52.1 12.8 51.5 18.2 90.6 18.2 90.6l7 1.5 5.2-116.5c11.6 18.6 27.8 37.9 27.8 37.9.1.1-1.6 26.8-.7 43.9 2.8 54.1 4.9 38.4 5.2 40.7l6.7.7s11.1-89 11.2-89.1c-1.1-9.3-10.4-32.4-23.6-68.4z" id="path5246" fill="url(#SVGID_12_)"/><linearGradient id="SVGID_13_" gradientUnits="userSpaceOnUse" x1="92.928" y1="527.669" x2="121.593" y2="527.669" gradientTransform="translate(-36.7 -128.9)"><stop offset="0" id="stop5248" stop-color="#467ef7"/><stop offset="1" id="stop5250" stop-color="#61cbf7"/></linearGradient><path d="M56.7 404.5c-3-1.1 10.6-8.3 16.7-10 3.1-.9 6.3-1.2 9.6-1.4 1.1 3 2 9.3 2 9.3s-27.1 2.5-28.3 2.1z" id="path5253" fill="url(#SVGID_13_)"/><linearGradient id="SVGID_14_" gradientUnits="userSpaceOnUse" x1="154.442" y1="527.99" x2="186.405" y2="527.99" gradientTransform="translate(-36.7 -128.9)"><stop offset="0" id="stop5255" stop-color="#467ef7"/><stop offset="1" id="stop5257" stop-color="#61cbf7"/></linearGradient><path d="M148.5 406c4.6.4-5.1-5.9-10.5-8.5-13.4-6.4-16-5.2-20.3-5.2l.2 12.2c.1-.1 28.3 1.3 30.6 1.5z" id="path5260" fill="url(#SVGID_14_)"/><path class="st8" d="M66.8 336.3s1.7 3.8 9.2 1.1" id="path5262" fill="none" stroke="#53a9f4" stroke-width=".5" stroke-miterlimit="10"/><linearGradient id="SVGID_15_" gradientUnits="userSpaceOnUse" x1="93.658" y1="229.8" x2="139.182" y2="229.8" gradientTransform="translate(-36.7 -128.9)"><stop offset=".127" id="stop5264" stop-color="#ff9b24"/><stop offset="1" id="stop5266" stop-color="#ffcb3d"/></linearGradient><path d="M102.5 93.2c0-.4-1.5-1.2-3.7-2.2.5-5.4.3-11.1-1-17-6-28.1-37.4-19.1-40-2-2.5 17.1 0 30.1 15 53.1l1.2 18.3s7.2 6.1 13.1-1.2L86 126.4s9.6-13 12.3-31.1c2.2-.3 4.1-1 4.2-2.1z" id="path5269" fill="url(#SVGID_15_)"/><path class="st12" d="M109.1 215.7c-.2-.2-.3-.2-.3-.2.1.1.2.2.3.2z" id="path5271" fill="#ff9b24"/><path class="st8" d="M63.3 256.8s-2.3 8.9-14.5 6.4" id="path5273" fill="none" stroke="#53a9f4" stroke-width=".5" stroke-miterlimit="10"/><path class="st8" d="M109.1 250.3s2 6.5 11.1 6.9" id="path5275" fill="none" stroke="#53a9f4" stroke-width=".5" stroke-miterlimit="10"/><path class="st8" d="M87.1 271.1l6.1-1.2s.9-8.2.7-13.6" id="path5277" fill="none" stroke="#53a9f4" stroke-width=".5" stroke-miterlimit="10"/><linearGradient id="SVGID_16_" gradientUnits="userSpaceOnUse" x1="55.912" y1="308.966" x2="74.152" y2="308.966" gradientTransform="translate(-36.7 -128.9)"><stop offset="0" id="stop5279" stop-color="#33313d"/><stop offset="1" id="stop5281" stop-color="#4625c1"/></linearGradient><path d="M19.2 174.4s13.4 16.4 17.7 9.8c4.3-6.7-17.7-9.8-17.7-9.8z" id="path5284" fill="url(#SVGID_16_)"/><path class="st24" d="M44.2 159.7s.9 6.5 3.1 8.9" id="path5286" fill="none" stroke="#6535e4" stroke-width=".5" stroke-miterlimit="10"/><path class="st24" d="M46.4 170.2s-2 .7-5.5-2.2" id="path5288" fill="none" stroke="#6535e4" stroke-width=".5" stroke-miterlimit="10"/><g id="g5328" transform="translate(-36.7 -128.9)"><g id="g5326"><g id="g5297"><linearGradient id="SVGID_17_" gradientUnits="userSpaceOnUse" x1="110.144" y1="275.474" x2="123.49" y2="275.474"><stop offset="0" id="stop5290" stop-color="#4625c1"/><stop offset="1" id="stop5292" stop-color="#33313d"/></linearGradient><path d="M123.5 271.1c-2.2 1.3-7.4 3.6-12.4.2h-1l1.9 8.1 4.7-3.4 5.4 3.7z" id="path5295" fill="url(#SVGID_17_)"/></g><g id="g5306"><linearGradient id="SVGID_18_" gradientUnits="userSpaceOnUse" x1="116.489" y1="307.118" x2="120.533" y2="307.118"><stop offset="0" id="stop5299" stop-color="#4625c1"/><stop offset="1" id="stop5301" stop-color="#33313d"/></linearGradient><circle cx="118.5" cy="307.1" r="2" id="circle5304" fill="url(#SVGID_18_)"/></g><g id="g5315"><linearGradient id="SVGID_19_" gradientUnits="userSpaceOnUse" x1="116.489" y1="298.034" x2="120.533" y2="298.034"><stop offset="0" id="stop5308" stop-color="#4625c1"/><stop offset="1" id="stop5310" stop-color="#33313d"/></linearGradient><circle cx="118.5" cy="298" r="2" id="circle5313" fill="url(#SVGID_19_)"/></g><g id="g5324"><linearGradient id="SVGID_20_" gradientUnits="userSpaceOnUse" x1="116.164" y1="286.906" x2="120.208" y2="286.906"><stop offset="0" id="stop5317" stop-color="#4625c1"/><stop offset="1" id="stop5319" stop-color="#33313d"/></linearGradient><circle cx="118.2" cy="286.9" r="2" id="circle5322" fill="url(#SVGID_20_)"/></g></g></g><path class="st24" d="M111.3 172.2s-.4 20.6 1.4 33" id="path5330" fill="none" stroke="#6535e4" stroke-width=".5" stroke-miterlimit="10"/><linearGradient id="SVGID_21_" gradientUnits="userSpaceOnUse" x1="194.486" y1="138.656" x2="379.232" y2="138.656" gradientTransform="translate(-36.7 -128.9)"><stop offset="0" id="stop5332" stop-color="#fff"/><stop offset="1" id="stop5334" stop-color="#ccc"/></linearGradient><path d="M160 18l180.4 1.5c1.2 0 2.2-1 2.2-2.2V2.2c0-1.2-1-2.2-2.2-2.2H160.9c-1.2 0-2.1.9-2.2 2.1l-.9 13.6c-.1 1.3.9 2.3 2.2 2.3z" id="path5337" fill="url(#SVGID_21_)"/><linearGradient id="SVGID_22_" gradientUnits="userSpaceOnUse" x1="53.301" y1="334.749" x2="91.174" y2="334.749" gradientTransform="translate(-36.7 -128.9)"><stop offset=".127" id="stop5339" stop-color="#ff9b24"/><stop offset="1" id="stop5341" stop-color="#ffcb3d"/></linearGradient><path d="M53.1 223.2c1.5-.7 2-3.1.6-4.2-3.1-1.1-6.2.4-6.2.4l-.5-.9c.1-.1 3-1.5 6.2-.7 1.4-1.3.9-4.4-1.6-4.4-1.8 0-3.6.3-5.2 1.1-2.6 1.3-3.6 3.9-3.3 6.6-.7 1.2-1.1 2.6-1.1 4.1-.9.7-1.6 1.6-2 2.7-7.2-4.7-15-12.1-15.5-23.8-.2-4.8 1.8-13.4 5.4-21l.3-.6c.1-.3.3-.6.5-.9.7-1.3 1.4-2.6 2.2-3.9-3-1.3-6.7-2.2-9.5-2.8-.2.3-.3.7-.4 1-.2.4-.3.7-.4 1.1-.1.1-.1.3-.2.4-2.2 5.6-3.7 11.1-4.5 16.5-.6.8-1.1 1.9-1 2.7 0 .4.3 1 .6 1.6-.6 11.3 2.5 21.3 10.2 27.9 9 7.7 14.3 10.4 18.4 10.4 1 0 1.5-2.2 1.1-4.8h.2c.3 0 .6.1.9.1.3.1 1.9.7.8.2 1.2.5 2.7.4 3.4-.9.2-.4.3-1 .3-1.5-2-2.3-5.1-2.7-5.1-2.7l.1-1c.1 0 2.4.3 4.4 1.9.6-.3 1.1-.8 1.3-1.5.2-.6 0-1.4-.3-2-2.3-1.5-5.1-1.2-5.6-1.1.2-.4.4-.8.7-1.1.9.1 2.9.2 4.8 1.1z" id="path5344" fill="url(#SVGID_22_)"/><path class="st31" id="polygon5346" transform="translate(-36.7 -128.9)" fill="#53a9f4" d="M73.4 360l-2 3.3-2.3-1.6 2.4-3.3z"/><path d="M39.5 230l.1-.1c.9-1.4.5-3.2-.8-4.1-1.4-.9-3.2-.5-4.1.8l-.1.1c-.9 1.4-.5 3.2.8 4.1 1.4.9 3.2.5 4.1-.8z" id="path5348" fill="#d9dbe8"/><path class="st31" d="M39 229.6l.1-.1c.7-1.1.4-2.5-.7-3.3-1.1-.7-2.5-.4-3.3.7l-.1.1c-.7 1.1-.4 2.5.7 3.3 1.1.7 2.6.4 3.3-.7z" id="path5350" fill="#53a9f4"/><ellipse transform="rotate(-89.257)" class="st33" cx="-83.362" cy="73.92" rx="1.3" ry="1.5" id="ellipse5352" fill="#3537ab" stroke-width="1"/><circle transform="rotate(-15.136)" class="st33" cx="66.477" cy="105.013" id="ellipse5354" r="1.1" fill="#3537ab" stroke-width="1"/><path d="M77.8 99.5c-3.7 1.1-5.2-.2-6.7-1.3-.5-.4-1.3.1-1.1.7.1.3.1.5.2.8 1.7 1.6 6 2.3 7.3 1.6.2-1.4.3-1.8.3-1.8z" id="path5356" fill="#fff"/><path class="st35" d="M83.1 82.9c.1 4.5-4.3 9.1-9.5 9.2-5.2.1-9.3-4.4-9.4-8.8-.1-4.5 4-8.1 9.2-8.3 5.2-.2 9.6 3.4 9.7 7.9z" id="path5358" fill="none" stroke="#3537ab" stroke-width=".5" stroke-miterlimit="10"/><path class="st35" d="M103.8 82.5c.1 4.5-4.3 9.1-9.5 9.2-5.2.1-9.3-4.4-9.4-8.8-.1-4.4 4-8.1 9.2-8.3 5.3-.1 9.6 3.4 9.7 7.9z" id="path5360" fill="none" stroke="#3537ab" stroke-width=".5" stroke-miterlimit="10"/><path class="st35" d="M87.4 96.3s15.4-.3 14.9-3-18.6-6.9-18.6-6.9" id="path5362" fill="none" stroke="#3537ab" stroke-width=".5" stroke-miterlimit="10"/><path class="st35" d="M82.8 81.1s1.1-.6 2.3.1" id="path5364" fill="none" stroke="#3537ab" stroke-width=".5" stroke-miterlimit="10"/><path class="st36" d="M73.4 77.5s5.1-.7 7.1 4.2" id="path5366" fill="none" stroke="#f5fbff" stroke-miterlimit="10"/><path class="st36" d="M92.9 77.1s5.1-.7 7.1 4.2" id="path5368" fill="none" stroke="#f5fbff" stroke-miterlimit="10"/><linearGradient id="SVGID_23_" gradientUnits="userSpaceOnUse" x1="91.876" y1="197.697" x2="135.318" y2="197.697" gradientTransform="translate(-36.7 -128.9)"><stop offset="0" id="stop5370" stop-color="#4625c1"/><stop offset="1" id="stop5372" stop-color="#33313d"/></linearGradient><path d="M88.6 46.5c-17.7-5.7-33.8.1-29.6 12.2-1.3.5-2.4 1.6-2.9 3.4-2 7.3-.2 25.1-.2 25.1 3.4-1.4 5.4 5.2 5.4 5.2l2 .8s-4.6-16.4 2.2-19.9 3.4-13.1 3.4-13.1 10.1 9 26 1.5c.1-.1 11.5-9.5-6.3-15.2z" id="path5375" fill="url(#SVGID_23_)"/><path d="M95.8 58s-14.2 7.4-26.8-.8" id="path5377" fill="none" stroke="#d9dbe8" stroke-width=".5" stroke-miterlimit="10"/><path class="st35" d="M78.8 99.2c-3.7 1.1-6.3.1-7.7-1-.5-.4-1.3.1-1.1.7.6 2.7 2.8 6.1 5.4 5.8" id="path5379" fill="none" stroke="#3537ab" stroke-width=".5" stroke-miterlimit="10"/><ellipse transform="rotate(-27.839)" class="st12" cx="7.798" cy="107.251" rx="4.1" ry="5.4" id="ellipse5381" fill="#ff9b24" stroke-width="1"/><path d="M54.7 88.3s4-.4 4.3 4.9" id="path5383" fill="none" stroke="#ce7c24" stroke-width=".5" stroke-miterlimit="10"/></svg>