<svg version="1.1" id="bg" xmlns="http://www.w3.org/2000/svg" x="0" y="0" viewBox="0 0 100 100" xml:space="preserve"><style>.st0{fill:#fff}</style><path class="st0" d="M62.4 66c.4-.1.6-.4.7-.8.1-.4 0-.8-.3-1.1l-8.3-8.3c2.4-3.4 2.1-8-.9-10.9-2.9-2.9-7.6-3.3-10.9-.9l-8.3-8.3c-.3-.3-.7-.4-1.1-.3-.4.1-.7.4-.8.7L25.7 55c-2.3 6.2-5.8 11.8-10.4 16.4-1.9 1.9-1.9 4.9 0 6.8l5.2 5.2c1.9 1.9 4.9 1.9 6.8 0l.1-.1L38.1 94c.4.4 1.2.4 1.6 0 3.3-3.3 3.3-8.6 0-11.9l-4.8-4.8c2.8-1.8 5.7-3.2 8.8-4.3l18.7-7zM52 46.5c2 2 2.4 5.2.8 7.7l-8.5-8.5c2.5-1.5 5.7-1.2 7.7.8zM23.8 82.4c-.7 0-1.3-.3-1.8-.7l-5.2-5.2c-1-1-1-2.6 0-3.5.9-.9 1.7-1.8 2.6-2.8l8.9 8.9c-1 .8-1.9 1.7-2.8 2.6-.4.4-1 .7-1.7.7zm14.1 1.1c2.1 2.1 2.4 5.4.7 7.8l-9.7-9.7c1.3-1.1 2.6-2.2 3.9-3.1l5.1 5zm-7.8-5.8l-9.3-9.3c3-3.8 5.3-8.1 7-12.7L34 38.6l25.8 25.8-17.1 6.2c-4.5 1.8-8.7 4.1-12.6 7.1zm0 0"/><path class="st0" d="M60.1 40.9c-3.5-3.5-8.8-4.6-13.4-2.7-.6.2-.9.9-.6 1.5.2.6.9.9 1.5.6 3.8-1.5 8.1-.6 11 2.2 2.9 2.9 3.8 7.2 2.2 11-.2.6 0 1.3.6 1.5.6.2 1.3 0 1.5-.6 1.8-4.7.7-10-2.8-13.5zm0 0"/><path class="st0" d="M66.9 57.1c.6.2 1.3 0 1.5-.6 2.7-6.8 1.2-14.6-4-19.8-5.2-5.2-13-6.8-19.8-4-.4.2-.7.5-.7.9-.1.4.1.8.4 1.1.3.3.8.3 1.1.2 6-2.4 12.8-1 17.3 3.5s5.9 11.4 3.5 17.3c-.2.5.1 1.1.7 1.4zM79.7 4c-9.5 0-17.2 7.7-17.2 17.2s7.7 17.2 17.2 17.2 17.2-7.7 17.2-17.2S89.2 4 79.7 4zm0 32.2c-8.2 0-14.9-6.7-14.9-14.9s6.6-15 14.9-15S94.6 13 94.6 21.2c0 8.3-6.7 15-14.9 15zm0 0"/><path class="st0" d="M85.8 19.2c2.4 0 4.3-1.9 4.3-4.3s-1.9-4.3-4.3-4.3-4.3 1.9-4.3 4.3L76.3 18c-1.7-1.5-4.3-1.4-5.9.2-1.6 1.6-1.6 4.2-.1 5.9 1.5 1.7 4.1 1.9 5.8.4l5.4 3.4c.2 2.1 2 3.7 4.1 3.8 2.1.1 4-1.4 4.4-3.5.4-2.1-.8-4.1-2.8-4.8-2-.7-4.2.2-5.2 2.1l-4.6-2.9c.3-.9.3-1.9 0-2.8l4.7-2.7c.9 1.4 2.3 2.1 3.7 2.1zm0-6.2c1.1 0 2 .9 2 2s-.9 2-2 2-2-.9-2-2c.1-1.1.9-2 2-2zM73.5 23.2c-1.1 0-2-.9-2-2s.9-2 2-2 2 .9 2 2-.9 2-2 2zm12.3 2.3c1.1 0 2 .9 2 2s-.9 2-2 2-2-.9-2-2c.1-1.1.9-2 2-2zm-6.1 37.8c-9.5 0-17.2 7.7-17.2 17.2s7.7 17.2 17.2 17.2S96.9 90 96.9 80.5s-7.7-17.2-17.2-17.2zm0 32.2c-8.2 0-14.9-6.7-14.9-14.9s6.7-14.9 14.9-14.9 14.9 6.7 14.9 14.9-6.7 14.9-14.9 14.9zm0 0"/><path class="st0" d="M86.7 79.6l-9.4-5.8c-.4-.2-.8-.2-1.2 0-.4.2-.6.6-.6 1v11.6c0 .4.2.8.6 1 .4.2.8.2 1.2 0l9.4-5.8c.3-.2.5-.6.5-1 .1-.4-.1-.8-.5-1zm-8.8 4.7v-7.5l6 3.7-6 3.8zM20.3 38.5c9.5 0 17.2-7.7 17.2-17.2S29.9 4 20.3 4 3.1 11.7 3.1 21.2s7.7 17.3 17.2 17.3zm0-32.2c8.2 0 14.9 6.7 14.9 14.9s-6.7 14.9-14.9 14.9S5.4 29.5 5.4 21.2c0-8.2 6.7-14.9 14.9-14.9zm0 0"/><path class="st0" d="M13.3 28.1h8.2c1.7 0 3-1.4 3-3v-.2l4.2 2.3c.4.2.8.2 1.1 0 .3-.2.6-.6.6-1v-9.8c0-.4-.2-.8-.6-1-.3-.2-.8-.2-1.1 0l-4.2 2.3v-.2c0-1.7-1.4-3-3-3h-8.2c-1.7 0-3 1.4-3 3V25c0 1.7 1.3 3.1 3 3.1zm14.8-9.8v5.9l-3.6-2v-2l3.6-1.9zm-15.5-.8c0-.4.3-.8.8-.8h8.2c.4 0 .8.3.8.8V25c0 .4-.3.8-.8.8h-8.2c-.4 0-.8-.3-.8-.8v-7.5zm0 0"/></svg>