<svg xmlns="http://www.w3.org/2000/svg" xmlns:xlink="http://www.w3.org/1999/xlink" viewBox="0 0 418 801.3"><style>.st4{fill:#fff}</style><g id="bg"><linearGradient id="SVGID_1_" gradientUnits="userSpaceOnUse" x1="208.985" y1="795.901" x2="208.985" y2="0"><stop offset="0" stop-color="#bc3b0d"/><stop offset="1" stop-color="#e85419"/></linearGradient><path d="M0 0v767.7c3.3-.8 50.1-11.6 95.2 3.1 46.8 15.3 76.3 25.2 111 25.2s74-11.9 112.3-27.4S415 764 418 767V0H0z" fill="url(#SVGID_1_)"/><defs><path id="SVGID_41_" d="M0 0v767.7c3.3-.8 50.1-11.6 95.2 3.1 46.8 15.3 76.3 25.2 111 25.2s74-11.9 112.3-27.4S415 764 418 767V0H0z"/></defs><clipPath id="SVGID_3_"><use xlink:href="#SVGID_41_" overflow="visible"/></clipPath><g clip-path="url(#SVGID_3_)"><linearGradient id="SVGID_4_" gradientUnits="userSpaceOnUse" x1="206.651" y1="826.987" x2="206.651" y2="633.413"><stop offset="0" stop-color="#61cbf7"/><stop offset="1" stop-color="#467ef7"/></linearGradient><path d="M256.5 633.4h-99.7c-5.6 0-8.6 6.7-4.8 10.8l9.3 10.3c1 1.2 1.6 2.7 1.6 4.2l-.1 25.6-.1 13.3V803c0 13.3 10.7 24 24 24h39.1c13.3 0 24-10.7 24-24v-16.6c.2-1.8.3-3.6.3-5.4v-62.5l.1-33.7V683l.1-12.8v-11.3c0-1.6.6-3.1 1.7-4.2l9.3-10.3c3.8-4.3.8-11-4.8-11z" fill="url(#SVGID_4_)"/><path class="st4" d="M187.8 661.7c-.7 0-1.2-.6-1.2-1.2v-3.9c0-.7.6-1.2 1.2-1.2.7 0 1.2.6 1.2 1.2v3.9c0 .7-.6 1.2-1.2 1.2zm5.1 5.2c0-.7.6-1.2 1.2-1.2h3.9c.7 0 1.2.6 1.2 1.2 0 .7-.6 1.2-1.2 1.2h-3.9c-.6.1-1.2-.5-1.2-1.2zm-1.5 3.7c.5-.5 1.3-.5 1.8 0l2.7 2.7c.5.5.5 1.3 0 1.8s-1.3.5-1.8 0l-2.7-2.7c-.5-.6-.5-1.4 0-1.8zm-7.3-7.4c-.5.5-1.3.5-1.8 0l-2.7-2.7c-.5-.5-.5-1.3 0-1.8s1.3-.5 1.8 0l2.7 2.7c.5.6.5 1.3 0 1.8zm7.3 0c-.5-.5-.5-1.3 0-1.8l2.7-2.7c.5-.5 1.3-.5 1.8 0s.5 1.3 0 1.8l-2.7 2.7c-.5.5-1.3.5-1.8 0zm-2.5 3.3v-.2s0-.1-.1-.1c-.1-.1-.2-.3-.4-.4 0 0-.1 0-.1-.1h-10.8c-.7 0-1.2.6-1.2 1.2 0 .7.6 1.2 1.2 1.2h7.3l-5.2 5.2c-.5.5-.5 1.3 0 1.8.2.2.6.4.9.4.3 0 .6-.1.9-.4l5.2-5.2v7.3c0 .7.6 1.2 1.2 1.2.7 0 1.2-.6 1.2-1.2v-10.3c0-.1 0-.3-.1-.4zm17.1-4.6c.2-.2.5-.3.9-.3.3 0 .6.1.9.3.2.2.4.5.4.9v8.3c0 .3-.1.6-.4.9-.2.2-.5.3-.9.3-.3 0-.6-.1-.9-.3-.2-.2-.4-.5-.4-.9v-8.3c0-.4.1-.7.4-.9zm5.4 2.1h-1c-.2 0-.3 0-.4-.1-.1-.1-.3-.2-.4-.3-.1-.1-.2-.2-.3-.4-.1-.1-.1-.3-.1-.4 0-.2 0-.3.1-.5s.2-.3.3-.4c.1-.1.2-.2.4-.3.1-.1.3-.1.4-.1h4.5c.2 0 .3 0 .4.1.1.1.3.2.4.3.1.1.2.2.3.4.1.2.1.3.1.5 0 .1 0 .3-.1.4-.1.1-.2.3-.3.4-.1.1-.2.2-.4.3-.1.1-.3.1-.4.1h-1.1v7.1c0 .4-.1.6-.4.9-.2.2-.5.3-.9.3-.3 0-.6-.1-.9-.3-.2-.2-.4-.5-.4-.9V664zm12 .6c-.2-.2-.5-.3-.9-.5-.3-.1-.6-.2-1-.2s-.8.1-1.2.3c-.4.2-.7.4-.9.6-.3.3-.5.6-.6.9-.2.4-.2.7-.2 1.1 0 .4.1.8.3 1.1.2.3.4.7.7.9.3.3.6.5 1 .6.4.2.7.3 1.1.3.3 0 .6-.1 1-.2.3-.1.6-.3.9-.5.3-.2.5-.3.9-.3.3 0 .6.1.9.3.2.2.4.5.4.9 0 .3-.1.5-.2.7-.1.2-.3.3-.4.4 0 0-.2.1-.3.3-.2.1-.4.3-.7.4-.3.1-.6.3-1 .4-.4.1-.9.2-1.4.2-.7 0-1.4-.1-2.1-.4-.7-.3-1.2-.7-1.7-1.2s-.9-1.1-1.2-1.7c-.3-.7-.4-1.4-.4-2.1 0-.7.1-1.4.4-2.1.3-.7.7-1.2 1.2-1.7s1.1-.9 1.7-1.2c.7-.3 1.4-.4 2.1-.4.5 0 1 .1 1.4.2.4.1.7.2 1 .4.3.1.5.3.7.4.2.1.3.2.3.2l.4.4c.1.2.2.4.2.7 0 .3-.1.6-.4.9-.2.2-.5.4-.9.4-.5-.2-.8-.3-1.1-.5zm13.4 3.1c-.1.4-.2.9-.4 1.3-.3.7-.7 1.2-1.2 1.7s-1.1.9-1.7 1.2c-.7.3-1.4.4-2.1.4s-1.4-.1-2.1-.4c-.7-.3-1.2-.7-1.7-1.2s-.9-1.1-1.2-1.7c-.3-.7-.4-1.4-.4-2.1s.1-1.5.4-2.1c.3-.7.7-1.2 1.2-1.7s1.1-.9 1.7-1.2c.7-.3 1.4-.4 2.1-.4.5 0 1 .1 1.4.2.4.1.7.2 1 .4.3.1.5.3.7.4.2.1.3.2.3.2l.4.4c.1.2.2.4.2.7 0 .3-.1.6-.4.9-.2.2-.5.4-.9.4-.3 0-.6-.1-.9-.3-.2-.2-.5-.3-.9-.5-.3-.1-.7-.2-1-.2-.4 0-.8.1-1.1.2-.4.2-.7.4-.9.6-.3.3-.5.6-.6 1-.2.4-.2.8-.2 1.2 0 .4.1.8.2 1.2.2.4.4.7.6.9s.6.5.9.6c.4.2.7.2 1.1.2.5 0 .9-.1 1.3-.3.4-.2.7-.5 1-.8h-2.1c-.3 0-.6-.1-.9-.4-.2-.2-.3-.5-.3-.9 0-.3.1-.6.3-.9.2-.2.5-.4.9-.4h3.9s.4 0 .8.3.6.6.6 1.1z"/><path d="M137.4 584.3c47.5-6.9 95.7-6.9 143.2 0 3.6.5 6 3.7 5.5 7-.9 5.9-1.9 11.7-2.8 17.6-.5 3.3-3.7 5.6-7 5.1-44.6-6.5-90-6.5-134.6 0-3.4.5-6.5-1.8-7-5.1-.9-5.9-1.9-11.7-2.8-17.6-.6-3.3 1.9-6.5 5.5-7z" fill="none"/><linearGradient id="SVGID_5_" gradientUnits="userSpaceOnUse" x1="205.921" y1="643.021" x2="205.921" y2="600.554"><stop offset="0" stop-color="#4625c1"/><stop offset="1" stop-color="#467ef7"/></linearGradient><path d="M143.5 606.8c41.4-8.4 83.5-8.4 124.9 0 3.1.6 5.3 4.5 4.8 8.5-.8 7.1-1.6 14.2-2.4 21.4-.5 4.1-3.2 6.8-6.1 6.2-38.9-7.9-78.5-7.9-117.4 0-2.9.6-5.7-2.2-6.1-6.2-.8-7.1-1.6-14.2-2.4-21.4-.6-4 1.6-7.8 4.7-8.5z" fill="url(#SVGID_5_)"/><linearGradient id="SVGID_6_" gradientUnits="userSpaceOnUse" x1="148.144" y1="635.221" x2="148.144" y2="611.378"><stop offset="0" stop-color="#61cbf7"/><stop offset="1" stop-color="#467ef7"/></linearGradient><path d="M144 614.3c1.1 6.3 2.2 12.6 3.3 19 .6 3.2 5.5 2.3 5-.8-1-6.3-2-12.7-3-19-.5-3.3-5.9-2.4-5.3.8z" fill="url(#SVGID_6_)"/><linearGradient id="SVGID_8_" gradientUnits="userSpaceOnUse" x1="167.049" y1="632.669" x2="167.049" y2="608.694"><stop offset="0" stop-color="#61cbf7"/><stop offset="1" stop-color="#467ef7"/></linearGradient><path d="M163.4 611.4c.8 6.4 1.5 12.7 2.3 19.1.4 3.2 5.4 2.6 5-.6-.7-6.4-1.3-12.8-2-19.2-.3-3.1-5.7-2.5-5.3.7z" fill="url(#SVGID_8_)"/><linearGradient id="SVGID_9_" gradientUnits="userSpaceOnUse" x1="186.041" y1="631.141" x2="186.041" y2="607.082"><stop offset="0" stop-color="#61cbf7"/><stop offset="1" stop-color="#467ef7"/></linearGradient><path d="M182.9 609.7l1.2 19.2c.2 3.2 5.2 2.9 5-.3l-.9-19.2c-.1-3.3-5.5-3-5.3.3z" fill="url(#SVGID_9_)"/><linearGradient id="SVGID_10_" gradientUnits="userSpaceOnUse" x1="205.149" y1="630.63" x2="205.149" y2="606.544"><stop offset="0" stop-color="#61cbf7"/><stop offset="1" stop-color="#467ef7"/></linearGradient><path d="M202.5 609c0 6.4.1 12.8.1 19.3 0 3.2 5 3.2 5.1 0 0-6.4.1-12.8.1-19.3.1-3.3-5.4-3.3-5.3 0z" fill="url(#SVGID_10_)"/><linearGradient id="SVGID_11_" gradientUnits="userSpaceOnUse" x1="224.258" y1="631.141" x2="224.258" y2="607.081"><stop offset="0" stop-color="#61cbf7"/><stop offset="1" stop-color="#467ef7"/></linearGradient><path d="M222 609.4l-.9 19.2c-.1 3.2 4.8 3.5 5 .3l1.2-19.2c.3-3.3-5.1-3.6-5.3-.3z" fill="url(#SVGID_11_)"/><linearGradient id="SVGID_12_" gradientUnits="userSpaceOnUse" x1="243.249" y1="632.671" x2="243.249" y2="608.692"><stop offset="0" stop-color="#61cbf7"/><stop offset="1" stop-color="#467ef7"/></linearGradient><path d="M241.6 610.8c-.7 6.4-1.3 12.8-2 19.2-.3 3.2 4.6 3.7 5 .6.8-6.4 1.5-12.7 2.3-19.1.4-3.3-5-3.9-5.3-.7z" fill="url(#SVGID_12_)"/><linearGradient id="SVGID_14_" gradientUnits="userSpaceOnUse" x1="262.154" y1="635.22" x2="262.154" y2="611.38"><stop offset="0" stop-color="#61cbf7"/><stop offset="1" stop-color="#467ef7"/></linearGradient><path d="M261 613.4c-1 6.3-2 12.7-3 19-.5 3.2 4.4 4 5 .8 1.1-6.3 2.2-12.6 3.3-19 .6-3.1-4.8-4-5.3-.8z" fill="url(#SVGID_14_)"/><linearGradient id="SVGID_15_" gradientUnits="userSpaceOnUse" x1="206.911" y1="748.895" x2="206.911" y2="690.256"><stop offset="0" stop-color="#4625c1"/><stop offset="1" stop-color="#467ef7"/></linearGradient><path d="M206.9 690.3c7.1 0 12.9 5.8 12.9 12.9V736c0 7.1-5.8 12.9-12.9 12.9-7.1 0-12.9-5.8-12.9-12.9v-32.9c0-7.1 5.8-12.8 12.9-12.8z" fill="url(#SVGID_15_)"/><path class="st4" d="M206.9 695c5.1 0 9.3 4.2 9.3 9.3v7.6c0 5.1-4.2 9.3-9.3 9.3-5.1 0-9.3-4.2-9.3-9.3v-7.6c0-5.2 4.2-9.3 9.3-9.3z"/><path d="M205.9 705.3c.4.4.7 1 .7 1.8v1.6c0 .7-.3 1.3-.7 1.8-.4.5-1.1.7-1.9.7s-1.5-.2-1.9-.7c-.4-.5-.7-1-.7-1.8v-1.6c0-.7.3-1.3.7-1.8.4-.5 1.1-.7 1.9-.7s1.4.2 1.9.7zm-3 .8c-.3.2-.4.6-.4 1v1.6c0 .4.2.8.4 1 .3.2.6.4 1 .4s.8-.1 1-.4c.3-.2.4-.6.4-1v-1.6c0-.4-.2-.8-.4-1s-.6-.4-1-.4-.7.2-1 .4zm8.6 4.7l-2.5-3.7v3.7c0 .1 0 .1-.1.2 0 0-.1.1-.2.1h-.7c-.1 0-.1 0-.2-.1 0 0-.1-.1-.1-.2V705c0-.1 0-.1.1-.2 0 0 .1-.1.2-.1h.6c.1 0 .3.1.4.2l2.5 3.7v-3.7c0-.1 0-.1.1-.2 0 0 .1-.1.2-.1h.7c.1 0 .1 0 .2.1 0 0 .1.1.1.2v5.8c0 .1 0 .1-.1.2 0 0-.1.1-.2.1h-.6c-.2 0-.3-.1-.4-.2z" fill="#4625c1"/><path d="M244 725v50c0 44.7-5.5 42.5-38.4 42.5h0" fill="none" stroke="#fff" stroke-width=".5" stroke-miterlimit="10"/><path d="M189 739s.4 17 17.9 16" fill="none" stroke="#3537ab" stroke-width=".5" stroke-miterlimit="10"/></g></g></svg>