<svg xmlns="http://www.w3.org/2000/svg" xmlns:xlink="http://www.w3.org/1999/xlink" viewBox="0 0 418 796"><style>.st3{fill:#fff}.st5{fill:none}</style><g id="Слой_1"><g id="bg"><linearGradient id="SVGID_1_" gradientUnits="userSpaceOnUse" x1="210.329" y1="0" x2="210.329" y2="796"><stop offset="0" stop-color="#bc3b0d"/><stop offset="1" stop-color="#e85419"/></linearGradient><path d="M1.3 0v767.7c3.3-.8 50.1-11.6 95.2 3.1 46.8 15.3 76.3 25.2 111 25.2s74-11.9 112.3-27.4 96.5-4.6 99.5-1.6V0H1.3z" fill="url(#SVGID_1_)"/></g><path opacity=".15" fill="#fff" d="M270.5 635.8l148.8-460V0H0v176.7l143.3 464.7z"/><ellipse cx="215.1" cy="568.9" rx="162.4" ry="22.3" fill="#b2320f"/><path class="st3" d="M271.1 634L419.3 43.4V0H0v42.2l142.2 597.9z"/><path d="M121 550.5l8.9 38.1c24.7 2.1 54.2 3.2 85.2 3.2 25.2 0 48.4-.9 67.2-2.5l10.2-40.4c-21.2-1.6-48.4-2.7-77.4-2.7-34.9-.1-67.6 1.6-94.1 4.3z" fill="#e6e7e9"/><path class="st5" d="M136 631.7c-.9-5.9-1.9-11.7-2.8-17.6-.5-3.3 1.9-6.5 5.5-7 47.5-6.9 95.7-6.9 143.2 0 3.6.5 6 3.7 5.5 7-.9 5.9-1.8 11.7-2.8 17.6"/><defs><path id="SVGID_2_" d="M0 0v767.7c3.3-.8 50.1-11.6 95.2 3.1 46.8 15.3 76.3 25.2 111 25.2s74-11.9 112.3-27.4S415 764 418 767V0H0z"/></defs><clipPath id="SVGID_3_"><use xlink:href="#SVGID_2_" overflow="visible"/></clipPath><g clip-path="url(#SVGID_3_)"><linearGradient id="SVGID_4_" gradientUnits="userSpaceOnUse" x1="206.25" y1="796" x2="206.25" y2="827"><stop offset="0" stop-color="#61cbf7"/><stop offset="1" stop-color="#467ef7"/></linearGradient><path d="M162.7 803c0 13.3 10.7 24 24 24h39.1c13.3 0 24-10.7 24-24v-7h-87.1v7z" fill="url(#SVGID_4_)"/><linearGradient id="SVGID_5_" gradientUnits="userSpaceOnUse" x1="206.65" y1="633.4" x2="206.65" y2="796"><stop offset="0" stop-color="#61cbf7"/><stop offset="1" stop-color="#467ef7"/></linearGradient><path d="M250.1 781v-62.5l.1-33.7V683l.1-12.8v-11.3c0-1.6.6-3.1 1.7-4.2l9.3-10.3c3.8-4.3.8-11-4.8-11h-99.7c-5.6 0-8.6 6.7-4.8 10.8l9.3 10.3c1 1.2 1.6 2.7 1.6 4.2l-.1 25.6-.1 13.3V796h87.1v-9.6c.2-1.8.3-3.6.3-5.4z" fill="url(#SVGID_5_)"/><path class="st3" d="M187.8 655.4c-.6 0-1.2.5-1.2 1.2v3.9c0 .6.5 1.2 1.2 1.2.6 0 1.2-.5 1.2-1.2v-3.9c0-.6-.5-1.2-1.2-1.2zm10.2 10.3h-3.9c-.6 0-1.2.5-1.2 1.2s.6 1.3 1.2 1.2h3.9c.6 0 1.2-.5 1.2-1.2 0-.6-.5-1.2-1.2-1.2zm-4.8 4.9c-.5-.5-1.3-.5-1.8 0-.5.4-.5 1.2 0 1.8l2.7 2.7c.5.5 1.3.5 1.8 0s.5-1.3 0-1.8l-2.7-2.7zm-11.8-11.9c-.5-.5-1.3-.5-1.8 0s-.5 1.3 0 1.8l2.7 2.7c.5.5 1.3.5 1.8 0s.5-1.2 0-1.8l-2.7-2.7zm12.7 0l-2.7 2.7c-.5.5-.5 1.3 0 1.8s1.3.5 1.8 0l2.7-2.7c.5-.5.5-1.3 0-1.8s-1.3-.5-1.8 0zm-5.2 7.7c0-.1 0-.2-.1-.2-.1-.1-.2-.3-.4-.4 0 0-.1 0-.1-.1h-10.8c-.7 0-1.2.6-1.2 1.2 0 .7.6 1.2 1.2 1.2h7.3l-5.2 5.2c-.5.5-.5 1.3 0 1.8.2.2.6.4.9.4s.6-.1.9-.4l5.2-5.2v7.3c0 .7.6 1.2 1.2 1.2.7 0 1.2-.6 1.2-1.2v-10.3c0-.1 0-.3-.1-.5zm18-4.8c-.4 0-.7.1-.9.3-.3.2-.4.5-.4.9v8.3c0 .4.2.7.4.9.3.2.6.3.9.3.4 0 .7-.1.9-.3.3-.3.4-.6.4-.9v-8.3c0-.4-.2-.7-.4-.9-.3-.2-.6-.3-.9-.3zm8.8.3c-.1-.1-.3-.2-.4-.3-.1-.1-.2-.1-.4-.1h-4.5c-.1 0-.3 0-.4.1-.2.1-.3.2-.4.3-.1.1-.2.2-.3.4-.1.2-.1.3-.1.5 0 .1 0 .3.1.4.1.2.2.3.3.4.1.1.3.2.4.3s.2.1.4.1h1-.2v7.1c0 .4.2.7.4.9.3.2.6.3.9.3.4 0 .7-.1.9-.3.3-.3.4-.5.4-.9V664h1.1c.1 0 .3 0 .4-.1.2-.1.3-.2.4-.3.1-.1.2-.3.3-.4.1-.1.1-.3.1-.4 0-.2 0-.3-.1-.5s-.2-.3-.3-.4zm3.7 2.9c.2-.2.5-.4.9-.6.4-.2.8-.3 1.2-.3.4 0 .7.1 1 .2.4.2.7.3.9.5.3.2.6.3 1.1.5.4 0 .7-.2.9-.4.3-.3.4-.6.4-.9s-.1-.5-.2-.7l-.4-.4s-.1-.1-.3-.2c-.2-.1-.4-.3-.7-.4-.3-.2-.6-.3-1-.4-.4-.1-.9-.2-1.4-.2-.7 0-1.4.1-2.1.4-.6.3-1.2.7-1.7 1.2s-.9 1-1.2 1.7c-.3.7-.4 1.4-.4 2.1 0 .7.1 1.4.4 2.1.3.6.7 1.2 1.2 1.7s1 .9 1.7 1.2c.7.3 1.4.4 2.1.4.5 0 1-.1 1.4-.2.4-.1.7-.3 1-.4.3-.1.5-.3.7-.4.1-.2.3-.3.3-.3.1-.1.3-.2.4-.4.1-.2.2-.4.2-.7 0-.4-.2-.7-.4-.9-.3-.2-.6-.3-.9-.3-.4 0-.6.1-.9.3s-.6.4-.9.5c-.4.1-.7.2-1 .2-.4 0-.7-.1-1.1-.3-.4-.1-.7-.3-1-.6-.3-.2-.5-.6-.7-.9s-.3-.7-.3-1.1c0-.4 0-.7.2-1.1.1-.3.3-.6.6-.9zm16.8 1.8c-.4-.3-.8-.3-.8-.3h-3.9c-.4 0-.7.2-.9.4-.2.3-.3.6-.3.9 0 .4.1.7.3.9.3.3.6.4.9.4h2.1c-.3.3-.6.6-1 .8-.4.2-.8.3-1.3.3-.4 0-.7 0-1.1-.2-.3-.1-.7-.4-.9-.6s-.4-.5-.6-.9c-.1-.4-.2-.8-.2-1.2s0-.8.2-1.2c.1-.4.3-.7.6-1 .2-.2.5-.4.9-.6.3-.1.7-.2 1.1-.2.3 0 .7.1 1 .2.4.2.7.3.9.5.3.2.6.3.9.3.4 0 .7-.2.9-.4.3-.3.4-.6.4-.9s-.1-.5-.2-.7l-.4-.4s-.1-.1-.3-.2c-.2-.1-.4-.3-.7-.4-.3-.2-.6-.3-1-.4-.4-.1-.9-.2-1.4-.2-.7 0-1.4.1-2.1.4-.6.3-1.2.7-1.7 1.2s-.9 1-1.2 1.7c-.3.6-.4 1.4-.4 2.1s.1 1.4.4 2.1c.3.6.7 1.2 1.2 1.7s1 .9 1.7 1.2c.7.3 1.4.4 2.1.4s1.4-.1 2.1-.4c.6-.3 1.2-.7 1.7-1.2s.9-1 1.2-1.7c.2-.4.3-.9.4-1.3 0-.5-.2-.8-.6-1.1z"/><path class="st5" d="M280.6 584.3c-47.5-6.9-95.7-6.9-143.2 0-3.6.5-6.1 3.7-5.5 7 .9 5.9 1.9 11.7 2.8 17.6.5 3.3 3.6 5.6 7 5.1 44.6-6.5 90-6.5 134.6 0 3.3.5 6.5-1.8 7-5.1.9-5.9 1.9-11.7 2.8-17.6.5-3.3-1.9-6.5-5.5-7z"/><linearGradient id="SVGID_6_" gradientUnits="userSpaceOnUse" x1="205.986" y1="600.5" x2="205.986" y2="642.983"><stop offset="0" stop-color="#4625c1"/><stop offset="1" stop-color="#467ef7"/></linearGradient><path d="M268.4 606.8c-41.4-8.4-83.5-8.4-124.9 0-3.1.7-5.3 4.5-4.7 8.5.8 7.2 1.6 14.3 2.4 21.4.4 4 3.2 6.8 6.1 6.2 38.9-7.9 78.5-7.9 117.4 0 2.9.6 5.6-2.1 6.1-6.2.8-7.2 1.6-14.3 2.4-21.4.5-4-1.7-7.9-4.8-8.5z" fill="url(#SVGID_6_)"/><linearGradient id="SVGID_7_" gradientUnits="userSpaceOnUse" x1="148.145" y1="611.506" x2="148.145" y2="635.348"><stop offset="0" stop-color="#61cbf7"/><stop offset="1" stop-color="#467ef7"/></linearGradient><path d="M149.3 613.5c-.5-3.3-5.9-2.4-5.3.8 1.1 6.3 2.2 12.6 3.3 19 .6 3.2 5.5 2.3 5-.8-1-6.3-2-12.7-3-19z" fill="url(#SVGID_7_)"/><linearGradient id="SVGID_8_" gradientUnits="userSpaceOnUse" x1="167.051" y1="608.614" x2="167.051" y2="632.573"><stop offset="0" stop-color="#61cbf7"/><stop offset="1" stop-color="#467ef7"/></linearGradient><path d="M168.7 610.7c-.3-3.1-5.7-2.5-5.3.7.8 6.4 1.5 12.7 2.3 19.1.4 3.2 5.4 2.6 5-.6-.7-6.4-1.3-12.8-2-19.2z" fill="url(#SVGID_8_)"/><linearGradient id="SVGID_9_" gradientUnits="userSpaceOnUse" x1="186" y1="607.07" x2="186" y2="631.129"><stop offset="0" stop-color="#61cbf7"/><stop offset="1" stop-color="#467ef7"/></linearGradient><path d="M182.9 609.7l1.2 19.2c.2 3.2 5.2 2.9 5-.3l-.9-19.2c-.1-3.3-5.5-3-5.3.3z" fill="url(#SVGID_9_)"/><linearGradient id="SVGID_10_" gradientUnits="userSpaceOnUse" x1="205.15" y1="606.595" x2="205.15" y2="630.681"><stop offset="0" stop-color="#61cbf7"/><stop offset="1" stop-color="#467ef7"/></linearGradient><path d="M202.5 609c0 6.4.1 12.8.1 19.3 0 3.2 5 3.2 5.1 0 0-6.4.1-12.8.1-19.3.1-3.3-5.4-3.3-5.3 0z" fill="url(#SVGID_10_)"/><linearGradient id="SVGID_11_" gradientUnits="userSpaceOnUse" x1="224.205" y1="607.07" x2="224.205" y2="631.13"><stop offset="0" stop-color="#61cbf7"/><stop offset="1" stop-color="#467ef7"/></linearGradient><path d="M222 609.4l-.9 19.2c-.1 3.2 4.8 3.5 5 .3l1.2-19.2c.3-3.3-5.1-3.6-5.3-.3z" fill="url(#SVGID_11_)"/><linearGradient id="SVGID_12_" gradientUnits="userSpaceOnUse" x1="243.254" y1="608.688" x2="243.254" y2="632.68"><stop offset="0" stop-color="#61cbf7"/><stop offset="1" stop-color="#467ef7"/></linearGradient><path d="M241.6 610.8c-.7 6.4-1.3 12.8-2 19.2-.3 3.2 4.6 3.7 5 .6.8-6.4 1.5-12.7 2.3-19.1.4-3.3-5-3.9-5.3-.7z" fill="url(#SVGID_12_)"/><linearGradient id="SVGID_13_" gradientUnits="userSpaceOnUse" x1="262.155" y1="611.395" x2="262.155" y2="635.237"><stop offset="0" stop-color="#61cbf7"/><stop offset="1" stop-color="#467ef7"/></linearGradient><path d="M261 613.4c-1 6.3-2 12.7-3 19-.5 3.2 4.4 4 5 .8 1.1-6.3 2.2-12.6 3.3-19 .6-3.1-4.8-4-5.3-.8z" fill="url(#SVGID_13_)"/><linearGradient id="SVGID_14_" gradientUnits="userSpaceOnUse" x1="206.9" y1="690.3" x2="206.9" y2="748.9"><stop offset="0" stop-color="#4625c1"/><stop offset="1" stop-color="#467ef7"/></linearGradient><path d="M206.9 690.3c-7.1 0-12.9 5.7-12.9 12.8V736c0 7.1 5.8 12.9 12.9 12.9 7.1 0 12.9-5.8 12.9-12.9v-32.8c0-7.1-5.8-12.9-12.9-12.9z" fill="url(#SVGID_14_)"/><path class="st3" d="M206.9 695c-5.1 0-9.3 4.1-9.3 9.3v7.6c0 5.1 4.2 9.3 9.3 9.3 5.1 0 9.3-4.2 9.3-9.3v-7.6c0-5.1-4.2-9.3-9.3-9.3z"/><path d="M204 704.6c-.8 0-1.5.2-1.9.7-.4.5-.7 1.1-.7 1.8v1.6c0 .8.3 1.3.7 1.8.4.5 1.1.7 1.9.7s1.5-.2 1.9-.7c.4-.5.7-1.1.7-1.8v-1.6c0-.8-.3-1.4-.7-1.8-.5-.5-1.1-.7-1.9-.7zm1.3 3.3v.8c0 .4-.1.8-.4 1-.2.3-.6.4-1 .4s-.7-.2-1-.4c-.2-.2-.4-.6-.4-1v-1.6c0-.4.1-.8.4-1 .3-.2.6-.4 1-.4s.8.2 1 .4c.2.2.4.6.4 1v.8zm7.2-3.3h-.7c-.1 0-.2.1-.2.1-.1.1-.1.1-.1.2v3.7l-2.5-3.7c-.1-.1-.3-.2-.4-.2h-.6c-.1 0-.2.1-.2.1-.1.1-.1.1-.1.2v5.8c0 .1.1.2.1.2.1.1.1.1.2.1h.7c.1 0 .2-.1.2-.1.1-.1.1-.1.1-.2v-3.7l2.5 3.7c.1.1.2.2.4.2h.6c.1 0 .2-.1.2-.1.1-.1.1-.1.1-.2v-5.8c0-.1-.1-.2-.1-.2-.1-.1-.1-.1-.2-.1z" fill="#4625c1"/><path d="M244 725v50c0 44.7-5.5 42.5-38.4 42.5h0" fill="none" stroke="#fff" stroke-width=".5" stroke-miterlimit="10"/><path d="M189 739s.4 17 17.9 16" fill="none" stroke="#3537ab" stroke-width=".5" stroke-miterlimit="10"/></g></g><g id="Слой_2"><path class="st5" d="M419.3 254v542H192v254h418V254z"/><path class="st5" d="M192 254h227.3v542H192z"/></g></svg>