<svg version="1.1" id="bg" xmlns="http://www.w3.org/2000/svg" x="0" y="0" viewBox="0 0 100 100" xml:space="preserve"><style>.st0{fill:#fff}</style><path class="st0" d="M35.3 15.7h29.3v2.9H35.3zm43.3 47.7c0-2.8-2.3-5.1-5.1-5.1h-2.9V37.7h-2.9v20.5H64c-2.8 0-5.1 2.3-5.1 5.1 0 1.4.6 2.7 1.6 3.7-1 .9-1.6 2.2-1.6 3.7 0 1 .3 1.9.8 2.7-1.8.8-3 2.6-3 4.6 0 .8.2 1.5.5 2.2H45.6c0-4.5-2.2-8.5-5.7-10.8 3.3-1.3 5.7-4.5 5.7-8.2 0-.8-.7-1.5-1.5-1.5H32.4V45h-2.9v14.7c-2.4 0-4.4 2-4.4 4.4v32.3H28V64.1c0-.8.7-1.5 1.5-1.5h13c-.7 2.5-3 4.4-5.7 4.4h-4.4c-.8 0-1.5.7-1.5 1.5s.7 1.5 1.5 1.5c5.7 0 10.3 4.6 10.3 10.3v1.5c0 .8.7 1.5 1.5 1.5h8.6c-.3.7-.5 1.4-.5 2.2 0 2.8 2.3 5.1 5.1 5.1v5.9h2.9v-5.9h6.6c2.8 0 5.1-2.3 5.1-5.1 0-.8-.2-1.5-.5-2.2 2.7-.1 4.9-2.4 4.9-5.1 0-1-.3-1.9-.8-2.7 1.8-.8 3-2.6 3-4.6 0-1.4-.6-2.7-1.6-3.7 1-1.1 1.6-2.4 1.6-3.8zM66.9 87.6h-9.5c-1.2 0-2.2-1-2.2-2.2s1-2.2 2.2-2.2h9.5c1.2 0 2.2 1 2.2 2.2s-1 2.2-2.2 2.2zm4.4-7.4h-9.5c-1.2 0-2.2-1-2.2-2.2 0-1.2 1-2.2 2.2-2.2h9.5c1.2 0 2.2 1 2.2 2.2 0 1.2-1 2.2-2.2 2.2zm4.4-9.5c0 1.2-1 2.2-2.2 2.2H64c-1.2 0-2.2-1-2.2-2.2s1-2.2 2.2-2.2h9.5c1.2 0 2.2 1 2.2 2.2zm-11.8-5.1c-1.2 0-2.2-1-2.2-2.2s1-2.2 2.2-2.2h9.5c1.2 0 2.2 1 2.2 2.2s-1 2.2-2.2 2.2h-9.5zm-38-40.8c-.4-1.8-2-3.2-3.9-3.2-2.2 0-4 1.8-4 4-1.2-.2-2.3-.7-3.3-1.3l-.5-.3c-.4-.3-1-.3-1.5-.1-.5.3-.8.8-.8 1.3v1.2c0 1.8.5 3.5 1.5 4.9l-1.1 1.1c-.4.4-.5 1-.3 1.6.2.5.8.9 1.4.9h7.1c2.8 0 5.2-2.2 5.5-4.9l1.6-1.7c.3-.3.4-.7.4-1.1 0-.4-.2-.8-.6-1.1l-1.5-1.3zm-2.4 3.4c-.3.3-.4.6-.4 1 0 1.5-1.2 2.6-2.6 2.6h-3.7c.2-.5.1-1.2-.3-1.6-.7-.7-1.2-1.6-1.4-2.5 1.4.6 2.9.9 4.4.9.8 0 1.5-.7 1.5-1.5v-1.5c0-.6.5-1.1 1.1-1.1.6 0 1.1.5 1.1 1.1 0 .5.2.9.6 1.2l.7.5-1 .9z"/><path class="st0" d="M48.5 31.8v4.4h-2.9v2.9h2.9V45h2.9v-5.9h2.9v-2.9h-2.9v-2.9h2.9v-2.9H50c-.8 0-1.5.6-1.5 1.4z"/><path class="st0" d="M63.2 46.5V28.9c0-2.4-2-4.4-4.4-4.4H41.2c-2.4 0-4.4 2-4.4 4.4v17.6c0 2.4 2 4.4 4.4 4.4h17.6c2.4 0 4.4-2 4.4-4.4zm-23.5 0V28.9c0-.8.7-1.5 1.5-1.5h17.6c.8 0 1.5.7 1.5 1.5v17.6c0 .8-.7 1.5-1.5 1.5H41.2c-.8 0-1.5-.7-1.5-1.5zm-7.3-8.8V20.1c0-2.4-2-4.4-4.4-4.4H10.4c-2.4 0-4.4 2-4.4 4.4v17.6c0 2.4 2 4.4 4.4 4.4H28c2.4 0 4.4-2 4.4-4.4zm-23.5 0V20.1c0-.8.7-1.5 1.5-1.5H28c.8 0 1.5.7 1.5 1.5v17.6c0 .8-.7 1.5-1.5 1.5H10.4c-.8 0-1.5-.7-1.5-1.5zM89.6 8.4H72c-2.4 0-4.4 2-4.4 4.4v17.6c0 2.4 2 4.4 4.4 4.4h17.6c2.4 0 4.4-2 4.4-4.4V12.8c0-2.5-2-4.4-4.4-4.4zM72 11.3h17.6c.8 0 1.5.7 1.5 1.5v7.3H88c-.7-3.3-3.6-5.9-7.2-5.9-3.5 0-6.5 2.5-7.2 5.9h-3.1v-7.3c0-.8.7-1.5 1.5-1.5zm13.2 10.3c0 2.4-2 4.4-4.4 4.4-2.4 0-4.4-2-4.4-4.4s2-4.4 4.4-4.4c2.4 0 4.4 1.9 4.4 4.4zm4.4 10.2H72c-.8 0-1.5-.7-1.5-1.5V23h3.1c.7 3.3 3.6 5.9 7.2 5.9 3.5 0 6.5-2.5 7.2-5.9h3.1v7.3c0 .9-.7 1.5-1.5 1.5zM48.5 68.5h2.9v2.9h-2.9z"/></svg>