<svg xmlns="http://www.w3.org/2000/svg" version="1.1" id="bg" x="0" y="0" viewBox="0 0 210 370" width="210" xml:space="preserve" height="370"><style type="text/css" id="style277">.st1{fill:#fff}.st3{fill:#e6e7e9}.st4{fill:#1f9b83}.st5{fill:#ff9b24}.st6{fill:#53a9f4}.st10{fill:#3537ab}.st12,.st15{fill:none;stroke:#3537ab;stroke-width:.5;stroke-miterlimit:10}.st15{stroke:#fff}.st17{fill:#61aaf7}.st18{fill:none;stroke:#177563;stroke-width:.5;stroke-miterlimit:10}.st19{fill:#3dc1a7}.st20,.st21{fill:none;stroke-miterlimit:10}.st20{stroke-width:.5;stroke:#1f9b83}.st21{stroke:#fff}</style><g id="g309" transform="matrix(1.07068 0 0 1.00223 -223.237 -362.517)"><path class="st3" d="M374.3 652.8c-2.5-5-8.2-12.1-13.7-18.7-1.1 0-2.1 0-3-.1l.5-.3s-10.2-85.3-10.2-85.4c-4.6-2.3-27.8-13.2-63.2-12.5-.2-.3-.3-.5-.5-.8-11.9-15.4-15.6-26.5-14.7-34.8.3 0 .6.1.9.2 7.3 1 13.9.9 19.7.1l12.7 2.2.4-3.2 4.2 5.7 10.8-4.6-1.3-4.3 15.8 2.7.7-5.9c.6 1.1 3.2 1.2 3.1-1.7l2.8 1.3 11.1-3.5c4.2 1.1 8.9-.1 11.6-3.8.6-.9.3-1.8-.4-2.3 2.5-2.8 3.1-6.4 1.3-8-.3-.2-.5-.4-.8-.5-.4-.2-.8-.4-1.3-.4-.2 0-.3 0-.5.1-.1-.1-.2-.3-.3-.4l-1.3-2.4c.4-.4.8-.7 1.2-1 1.8-1.2-.2-3.9-2-2.7-.3.2-.6.4-.9.7l-.1-.2-3.8-12.3-10.9 1.6-4-7-7.9-.1-.9-5.4s-10.5-2.6-11-2.6c-.4 0-3.9.5-7.6 1-.6.1-1.2.1-1.9.1 3-3 12.6-13.4 17.9-28.2 2.4.1 4.5-.3 4.8-1.4 0-.2-.2-.5-.7-.9-.6-.6-1.5-1.3-2.7-2 .3-1 .5-2.1.8-3.1 3.2-1 6.5-3.5 5.3-9.2l-4.1-.4c.1-1.5.1-3 0-4.5-.1-3.4-1.2-11.7-2.3-16.3 0 0 7.6-8-10.2-13.7-17.8-5.7-33.9.2-29.6 12.3-2.9 7.3-4.2 22-4.3 23.7-1.6.8-2.8 2.3-3 4.1-.4 2.3.8 4.5 2.8 5.6h-.4c.6.3 1.2.5 1.7.5h.1c.8 8.5 3.7 18.2 9.3 30.7l-.7 4c-1 .7-2.1 1.5-3.1 2.1-5.1-.7-10.2-.6-15.3.1l1.6-1.2-6.9-7.3-10.2-3.1-9.4 7.9 8.7 2.3 7.3 3.2C191 468.2 221 557.1 221 557.1l1.4-.1c5.4 10.2 24.9 45 51.9 69.5 0 0-21.4 33.4-27.4 75.3h-.1c-.7 3.2-.7 9.7-.7 9.7s13.3 1.1 28.1 0c1.4-.1 1.9-2 .6-2.7-4-2.4-10.8-6-17.5-7.7l-5.1.3c2.6-5.1 25.6-49.7 39.2-75 0 0-2.9-22-10.2-46.6-.6-2-1.2-3.8-1.7-5.5 15.8-.9 36.2-3.2 55.5-8.9 1.1 12.5 5 40.7 17.9 68.5h-.8c-1.4 1.9-2.5 3.7-2.5 3.7s10.6 9.6 22.9 17.2c1 .7 2.5-.7 1.8-2z" id="path285" fill="#e6e7e9"/><path class="st3" d="M336 445.6l8.8 5.3c-2.1-5.5-8.8-5.3-8.8-5.3z" id="path287" fill="#e6e7e9"/><path class="st3" d="M341.2 443.8l6 5.2c-1.2-4.6-6-5.2-6-5.2z" id="path289" fill="#e6e7e9"/><path class="st3" d="M229.7 403l8.8 5.3c-2.1-5.5-8.8-5.3-8.8-5.3z" id="path291" fill="#e6e7e9"/><path class="st3" d="M239.7 433.3l-6.7-4.2c1.8 4.3 6.7 4.2 6.7 4.2z" id="path293" fill="#e6e7e9"/><path class="st3" d="M267.7 435l6.9 3.9c-2-4.1-6.9-3.9-6.9-3.9z" id="path295" fill="#e6e7e9"/><path class="st3" d="M224.1 454.8l-7.1-3.5c2.3 4 7.1 3.5 7.1 3.5z" id="path297" fill="#e6e7e9"/><path class="st3" d="M253.2 446.4l-7.1-3.5c2.3 4.1 7.1 3.5 7.1 3.5z" id="path299" fill="#e6e7e9"/><path class="st3" d="M297.9 505.5s7.7 5.5 14.8.8z" id="path301" fill="#e6e7e9"/><path class="st3" d="M309.1 510l-8.5-1.7s4.3 3.5 8.5 1.7z" id="path303" fill="#e6e7e9"/><path class="st3" id="polygon305" fill="#e6e7e9" d="M224.7 406.4l-10.6 1.1-5.6 10.9 8.9-1.2 12.4.1 4.1-6.8z"/><path class="st3" id="polygon307" fill="#e6e7e9" d="M230.3 444.4l-8.5-8.9-7.8 1.8 3.5 9.4 8.3 6.8 11.6-3.6z"/></g><path class="st4" id="polygon313" transform="matrix(1.07068 0 0 1.00223 -223.237 -362.517)" fill="#1f9b83" d="M348.4 519.3l-2.8-9.4-15.1 4.5 7 9.5z"/><path class="st4" id="polygon315" transform="matrix(1.07068 0 0 1.00223 -223.237 -362.517)" fill="#1f9b83" d="M363.9 508.9l-19.1-2.8-1.8 8.2 19.9 3.5z"/><path class="st4" id="polygon317" transform="matrix(1.07068 0 0 1.00223 -223.237 -362.517)" fill="#1f9b83" d="M334 512.6l-19.1-2.8-1.9 8.2 20 3.4z"/><path class="st5" d="M193.9 140.701c-2.462 3.107-6.745 3.608-10.385 2.005-2.141-.902-3.426 2.205-1.392 3.107 5.032 2.104 11.135 1.202 14.561-3.107 1.392-1.704-1.499-3.708-2.783-2.005z" id="path319" fill="#ff9b24" stroke-width="1.036"/><path class="st5" d="M194.543 127.773c1.927-1.203-.214-3.91-2.141-2.706a14.287 14.287 0 0 0-4.39 4.61c.963.601 1.927 1.303 2.998 2.004.75-1.603 1.927-3.006 3.533-3.908z" id="path321" fill="#ff9b24" stroke-width="1.036"/><ellipse transform="matrix(.6931 -.72084 .76476 .64431 0 0)" class="st5" cx="18.973" cy="234.787" rx="7.234" ry="4.579" id="ellipse323" fill="#ff9b24" stroke-width="1.037"/><path class="st6" d="M191.652 130.278s.214 1.804 2.142 1.704l-5.89 6.214s-2.14-2.806.215-8.52" id="path325" fill="#53a9f4" stroke-width="1.036"/><path d="M128.589 106.926c-7.067.802-12.848 2.305-17.56 4.61 3.32 3.007 6.532 6.114 10.172 9.12.964.702 1.927 1.404 2.891 2.206 4.925-.2 10.279-.1 16.06-1.003 24.305-4.008 42.935 10.123 48.61 15.134.749.702 2.034.401 2.462-.501.214-.501.428-1.002.75-1.503 1.712-2.406 3.533-2.606 3.533-2.606-.429-.401-19.059-30.769-66.918-25.457z" id="path327" fill="#6535e4" stroke-width="1.036"/><linearGradient id="SVGID_1_" gradientUnits="userSpaceOnUse" x1="320.56" y1="720.654" x2="320.56" y2="554.562" gradientTransform="matrix(1.07068 0 0 1.00223 -223.237 -362.517)"><stop offset="0" id="stop329" stop-color="#4625c1"/><stop offset="1" id="stop331" stop-color="#33313d"/></linearGradient><path d="M181.588 205.846c-5.675-2.706-38.117-16.938-86.511-11.225l-5.354 11.726-44.219 5.212s23.02 43.597 57.174 72.561c0 0-23.02 33.575-29.336 75.568h5.353s26.767-48.708 42.185-75.668c0 0-3.64-25.557-12.848-52.216 16.917-.902 38.759-3.207 59.423-8.92 1.285 12.929 5.567 42.595 20.557 71.258l6.531-2.405c0 .1-12.955-85.79-12.955-85.89z" id="path334" fill="url(#SVGID_1_)" stroke-width="1.036"/><path class="st4" d="M86.083 117.85l9.315-5.812 8.78 2.706 12.633-8.018s14.026-4.41 15.204-4.71c1.178-.201 17.345-2.406 18.309-2.406.535 0 11.777 2.606 11.777 2.606l.964 5.412 8.458.1 4.283 7.016 11.67-1.604 4.07 12.327 4.71 8.319-5.675 10.924-18.094 5.312-4.497-2.004-31.264 2.906-24.09 4.41-25.697-21.147z" id="path336" fill="#1f9b83" stroke-width="1.036"/><linearGradient id="SVGID_2_" gradientUnits="userSpaceOnUse" x1="245.238" y1="520.579" x2="342.99" y2="520.579" gradientTransform="matrix(1.07068 0 0 1.00223 -223.237 -362.517)"><stop offset="0" id="stop338" stop-color="#61cbf7"/><stop offset="1" id="stop340" stop-color="#467ef7"/></linearGradient><path d="M45.611 214.666l28.159-2.105c10.386-.802 30.622-7.016 38.116-14.031 2.142-2.005 3.426-3.508 1.392-5.913-44.54-54.22 17.345-54.922 27.945-67.15 5.353-6.213 2.248-13.63-3.212-18.44-3.64-.301-7.174-.702-10.6-1.504-9.208-2.205-18.844-2.205-28.159-.4-87.046 17.137-53.64 109.543-53.64 109.543z" id="path343" fill="url(#SVGID_2_)" stroke-width="1.036"/><ellipse transform="matrix(.99634 -.0855 .09747 .99524 0 0)" class="st5" cx="109.367" cy="71.612" rx="6.1" ry="5.515" id="ellipse345" fill="#ff9b24" stroke-width="1.036"/><ellipse transform="matrix(.11581 -.99327 .99482 .10164 0 0)" class="st10" cx="-44.293" cy="143.397" rx="1.404" ry="1.712" id="ellipse347" fill="#3537ab" stroke-width="1.036"/><ellipse transform="matrix(.99634 -.0855 .09747 .99524 0 0)" class="st10" cx="151.936" cy="74.762" id="ellipse349" rx="1.284" ry="1.203" fill="#3537ab" stroke-width="1.036"/><linearGradient id="SVGID_3_" gradientUnits="userSpaceOnUse" x1="315.274" y1="430.418" x2="362.029" y2="430.418" gradientTransform="matrix(1.07068 0 0 1.00223 -223.237 -362.517)"><stop offset=".127" id="stop351" stop-color="#ff9b24"/><stop offset="1" id="stop353" stop-color="#ffcb3d"/></linearGradient><path d="M160.71 68.34a53.11 53.11 0 0 0 2.248-17.238c-.107-4.21-1.927-16.136-3.32-19.042-8.565-17.339-35.76-4.21-41.22 10.223-6.318 16.737-6.103 30.267 6.21 55.924l-1.714 9.02c-.428 2.405.857 4.81 3.212 5.813 2.142 1.002 5.14 1.503 8.352.1a5.304 5.304 0 0 0 3.212-3.909l1.499-7.516s13.383-11.426 20.129-29.165c2.57.1 4.818-.3 5.139-1.403 0-.401-1.5-1.504-3.748-2.807z" id="path356" fill="url(#SVGID_3_)" stroke-width="1.036"/><path class="st12" d="M127.09 66.136s-.857 5.311 5.889 8.118" id="path358" fill="none" stroke="#3537ab" stroke-width=".518" stroke-miterlimit="10"/><path class="st12" d="M146.79 71.648s17.453 2.305 17.453-.501c0-2.807-19.487-10.023-19.487-10.023" id="path360" fill="none" stroke="#3537ab" stroke-width=".518" stroke-miterlimit="10"/><linearGradient id="SVGID_4_" gradientUnits="userSpaceOnUse" x1="319.95" y1="420.404" x2="364.954" y2="420.404" gradientTransform="matrix(1.07068 0 0 1.00223 -223.237 -362.517)"><stop offset="0" id="stop364" stop-color="#4625c1"/><stop offset="1" id="stop366" stop-color="#33313d"/></linearGradient><path d="M167.24 55.913l-47.966-4.11.321 5.513 2.998.902s5.46 12.327 20.664 2.706l1.606.601 11.243 4.41c.107-.1 13.383.3 11.135-10.022z" id="path369" fill="url(#SVGID_4_)" stroke-width="1.036"/><ellipse transform="matrix(.99634 -.0855 .09747 .99524 0 0)" class="st1" cx="129.493" cy="70.216" id="ellipse371" rx=".856" ry=".802" fill="#fff" stroke-width="1.036"/><ellipse transform="matrix(.99634 -.0855 .09747 .99524 0 0)" class="st1" cx="153.719" cy="75.213" id="ellipse373" rx=".856" ry=".802" fill="#fff" stroke-width="1.036"/><path class="st6" d="M195.078 291.837c-3.533 0-5.781-.1-9.315-.3-1.499 1.904-2.676 3.708-2.676 3.708s11.349 9.621 24.518 17.238c1.285.802 2.891-.601 2.249-1.904-2.784-4.91-8.887-12.027-14.776-18.742z" id="path375" fill="#53a9f4" stroke-width="1.036"/><path class="st6" d="M103 366.704c-4.283-2.406-11.564-6.014-18.737-7.717-3.748.2-7.495.5-11.242.801-.75 3.208-.75 9.722-.75 9.722s14.24 1.102 30.086 0c1.5-.2 2.035-2.105.643-2.806z" id="path377" fill="#53a9f4" stroke-width="1.036"/><path class="st15" d="M100.002 215.768s11.028 13.33 23.02 67.75" id="path379" fill="none" stroke="#fff" stroke-width=".518" stroke-miterlimit="10"/><path d="M117.133 66.837s-2.142 1.203-5.033-.1" id="path381" fill="none" stroke="#e6e7e9" stroke-width=".518" stroke-miterlimit="10"/><path class="st17" d="M146.47 140.3s-46.147-.801-60.173-21.347l-4.711 33.675s27.302 15.835 67.56-4.81z" id="path383" fill="#61aaf7" stroke-width="1.036"/><path class="st4" d="M147.861 104.621c-2.034-1.303-4.068-1.904-5.781-4.009-4.604.602-13.277-1.102-13.92-1.002-1.177.2-11.349 7.116-11.349 7.116l-3.747 2.405 5.889.2v1.003l-13.384-.602v.1l-1.07 6.816-1.071-.1.321-2.005-8.244-2.505-9.315 5.813.642 13.93c8.459 4.811 19.058 6.816 28.695 8.219 10.385 1.002 19.914 1.303 30.3-.702 1.82-.3 1.392-2.004 1.392-3.006.321-9.722 12.634-11.626 15.418-21.348.32-.701-14.026-9.722-14.776-10.323z" id="path385" fill="#1f9b83" stroke-width="1.036"/><ellipse class="st5" cx="195.4" cy="133.786" rx="2.463" ry="2.205" id="ellipse387" fill="#ff9b24" stroke-width="1.036"/><path class="st5" d="M196.363 139.098c0 1.202 0 3.808-1.392 3.808s-3.64-2.606-3.64-3.808c0-1.203 1.07-2.205 2.463-2.205 1.391 0 2.57 1.002 2.57 2.205z" id="path389" fill="#ff9b24" stroke-width="1.036"/><path class="st18" id="polyline391" transform="matrix(1.07068 0 0 1.00223 -223.237 -362.517)" fill="none" stroke="#177563" stroke-width=".5" stroke-miterlimit="10" d="M298.4 475.1l5.8 12.6-6 4"/><path class="st18" id="polyline393" transform="matrix(1.07068 0 0 1.00223 -223.237 -362.517)" fill="none" stroke="#177563" stroke-width=".5" stroke-miterlimit="10" d="M302 475.7l5.8 12.7-5.9 4"/><path class="st18" id="polyline395" transform="matrix(1.07068 0 0 1.00223 -223.237 -362.517)" fill="none" stroke="#177563" stroke-width=".5" stroke-miterlimit="10" d="M327.1 463.3l.9 15.4 9.8 1.7"/><path class="st18" id="polyline397" transform="matrix(1.07068 0 0 1.00223 -223.237 -362.517)" fill="none" stroke="#177563" stroke-width=".5" stroke-miterlimit="10" d="M324.5 466.2l.8 15.5 9.8 1.7"/><path class="st18" id="polyline399" transform="matrix(1.07068 0 0 1.00223 -223.237 -362.517)" fill="none" stroke="#177563" stroke-width=".5" stroke-miterlimit="10" d="M318.7 474.2l-3.7 17.3h-8"/><path class="st18" id="polyline401" transform="matrix(1.07068 0 0 1.00223 -223.237 -362.517)" fill="none" stroke="#177563" stroke-width=".5" stroke-miterlimit="10" d="M321 477.2l-3.7 17.3h-8"/><path class="st18" id="polyline403" transform="matrix(1.07068 0 0 1.00223 -223.237 -362.517)" fill="none" stroke="#177563" stroke-width=".5" stroke-miterlimit="10" d="M348.3 462.9l1.6 18.3 10.9 1.5"/><path class="st18" id="polyline405" transform="matrix(1.07068 0 0 1.00223 -223.237 -362.517)" fill="none" stroke="#177563" stroke-width=".5" stroke-miterlimit="10" d="M345.4 465.8l1.6 18.3 10.8 1.5"/><path class="st18" id="polyline407" transform="matrix(1.07068 0 0 1.00223 -223.237 -362.517)" fill="none" stroke="#177563" stroke-width=".5" stroke-miterlimit="10" d="M372.7 477.6l-2.8 13.6 12.3-.2.6-12.5"/><path class="st18" id="line409" fill="none" stroke="#177563" stroke-width=".518" stroke-miterlimit="10" d="M176.77 133.285l13.169.401"/><path class="st18" id="polyline411" transform="matrix(1.07068 0 0 1.00223 -223.237 -362.517)" fill="none" stroke="#177563" stroke-width=".5" stroke-miterlimit="10" d="M344.3 490.9l-8.8-5.3-11.7 12.9"/><path class="st18" id="polyline413" transform="matrix(1.07068 0 0 1.00223 -223.237 -362.517)" fill="none" stroke="#177563" stroke-width=".5" stroke-miterlimit="10" d="M345 496.3l-8.8-5.4-11.8 12.9"/><path class="st18" id="polyline415" transform="matrix(1.07068 0 0 1.00223 -223.237 -362.517)" fill="none" stroke="#177563" stroke-width=".5" stroke-miterlimit="10" d="M321.4 486h6.7l.7 4.8"/><ellipse transform="matrix(.99262 -.12125 .13807 .99042 0 0)" class="st19" cx="140.271" cy="129.09" rx="3.102" ry="3.713" id="ellipse417" fill="#3dc1a7" stroke-width="1.036"/><ellipse transform="matrix(.99262 -.12125 .13807 .99042 0 0)" class="st19" cx="118.561" cy="125.516" rx="3.102" ry="3.713" id="ellipse419" fill="#3dc1a7" stroke-width="1.036"/><ellipse transform="matrix(.99262 -.12125 .13807 .99042 0 0)" class="st19" cx="101.14" cy="146.757" rx="2.353" ry="2.81" id="ellipse421" fill="#3dc1a7" stroke-width="1.036"/><ellipse transform="matrix(.07936 -.99685 .99758 .06959 0 0)" class="st19" cx="-112.09" cy="118.699" rx="3.309" ry="2.783" id="ellipse423" fill="#3dc1a7" stroke-width="1.036"/><ellipse transform="matrix(.07936 -.99685 .99758 .06959 0 0)" class="st19" cx="-109.201" cy="190.134" rx="3.309" ry="2.783" id="ellipse425" fill="#3dc1a7" stroke-width="1.036"/><ellipse transform="matrix(.6072 -.79455 .83092 .5564 0 0)" class="st19" cx="-13.306" cy="210.609" rx="3.385" ry="2.725" id="ellipse427" fill="#3dc1a7" stroke-width="1.037"/><ellipse transform="matrix(.9519 -.30643 .34486 .93865 0 0)" class="st19" cx="117.804" cy="188.548" rx="3.51" ry="2.625" id="ellipse429" fill="#3dc1a7" stroke-width="1.036"/><ellipse transform="matrix(.6072 -.79455 .83092 .5564 0 0)" class="st19" cx="-30.187" cy="206.388" rx="3.385" ry="2.725" id="ellipse431" fill="#3dc1a7" stroke-width="1.037"/><ellipse transform="matrix(.6217 -.78325 .82097 .57097 0 0)" class="st19" cx="-35.807" cy="193.991" rx="3.389" ry="2.722" id="ellipse433" fill="#3dc1a7" stroke-width="1.037"/><ellipse transform="matrix(.6217 -.78325 .82097 .57097 0 0)" class="st19" cx="-45.218" cy="205.573" rx="3.389" ry="2.722" id="ellipse435" fill="#3dc1a7" stroke-width="1.037"/><ellipse transform="matrix(.96975 -.24411 .27612 .96112 0 0)" class="st19" cx="56.592" cy="142.432" rx="2.772" ry="3.323" id="ellipse437" fill="#3dc1a7" stroke-width="1.036"/><path class="st18" id="polyline439" transform="matrix(1.07068 0 0 1.00223 -223.237 -362.517)" fill="none" stroke="#177563" stroke-width=".5" stroke-miterlimit="10" d="M354.4 491.7l11.5-13 5 4.4"/><path class="st4" d="M146.255 135.39l3.32-7.818s11.563 2.606 11.884 2.606" id="path441" fill="#1f9b83" stroke-width="1.036"/><path class="st18" d="M146.255 135.39l3.32-7.818s11.563 2.606 11.884 2.606" id="path443" fill="none" stroke="#177563" stroke-width=".518" stroke-miterlimit="10"/><path class="st18" id="polyline445" transform="matrix(1.07068 0 0 1.00223 -223.237 -362.517)" fill="none" stroke="#177563" stroke-width=".5" stroke-miterlimit="10" d="M343.5 511.2l15.8 2.8 2.2-9.2"/><path class="st17" d="M149.146 147.817l-2.677-7.517s-48.502 4.11-59.637-18.841l-.75-5.713-3.96 31.17c8.458 3.507 17.451 6.213 24.946 11.425 11.242.3 25.482-2.105 42.078-10.524z" id="path447" fill="#61aaf7" stroke-width="1.036"/><g id="g459" transform="matrix(1.07068 0 0 1.00223 -223.237 -362.517)"><path class="st5" d="M360 504c3.3-2 7.2-.9 9.7 1.8 1.5 1.6 3.8-.8 2.4-2.4-3.5-3.8-9.2-5.1-13.7-2.3-1.9 1.1-.2 4 1.6 2.9z" id="path449" fill="#ff9b24"/><path class="st5" d="M360.4 501.3c.2-.3-.1.2 0 0s.2-.4.3-.7c.4-.7.8-1.3 1.4-1.8 1.9-1.9 4.4-1.8 6.9-.9 2 .7 2.9-2.5.9-3.2-5.2-1.8-10.7.4-12.6 5.7-.8 2.1 2.4 2.9 3.1.9z" id="path451" fill="#ff9b24"/><path class="st5" d="M353 495.4c.1.1.1.2.2.3-.1-.3.1.2.1.3.1.2.1.4.2.5.2.8.2 1.6-.3 2.4-1.1 1.8 1.8 3.5 2.9 1.7 1.3-2.1 1-4.7-.2-6.8-1-2-3.9-.3-2.9 1.6z" id="path453" fill="#ff9b24"/><path class="st5" d="M343.6 502.9l4.7-2.6c.1-.1.3-.1.4-.2 1.6-.6 11.9-3.8 16.1 4.3 4.6 8.9-.6 8.9-1.3 7.3-.6-1.3-1.2-5-3.5-5.9-2.6-1.1-6.1 2.4-10.6-1.3l-3.3 2.9a6.62 6.62 0 0 1-2.5-4.5z" id="path455" fill="#ff9b24"/><path class="st20" d="M355.1 498.5s-4.4.3-7.4 1.6" id="path457" fill="none" stroke="#1f9b83" stroke-width=".5" stroke-miterlimit="10"/></g><path class="st18" id="polyline461" transform="matrix(1.07068 0 0 1.00223 -223.237 -362.517)" fill="none" stroke="#177563" stroke-width=".5" stroke-miterlimit="10" d="M369 510.1l16.3-5.4-2.9-6.6"/><path class="st5" d="M192.402 144.41c0 1.202-1.071 2.204-2.463 2.204-1.392 0-3.533-1.703-3.533-3.006 0-1.303 1.07-2.205 2.462-2.205 1.392 0 3.534 1.704 3.534 3.007z" id="path463" fill="#ff9b24" stroke-width="1.036"/><path class="st18" id="polyline465" transform="matrix(1.07068 0 0 1.00223 -223.237 -362.517)" fill="none" stroke="#177563" stroke-width=".5" stroke-miterlimit="10" d="M334.6 517.2l3.4 5.5 8.5-4.5"/><path class="st21" id="line467" fill="none" stroke="#fff" stroke-width="1.036" stroke-miterlimit="10" d="M163.6 113.34l-1.392-12.026"/><path class="st21" id="line469" fill="none" stroke="#fff" stroke-width="1.036" stroke-miterlimit="10" d="M176.02 113.641l-1.82 7.116"/><path class="st20" d="M168.74 102.917s7.173-.2 9.422 5.312" id="path471" fill="none" stroke="#1f9b83" stroke-width=".518" stroke-miterlimit="10"/><path class="st20" d="M174.2 101.113s5.14.702 6.424 5.212" id="path473" fill="none" stroke="#1f9b83" stroke-width=".518" stroke-miterlimit="10"/><path class="st20" d="M54.926 60.222s7.174-.2 9.422 5.312" id="path475" fill="none" stroke="#1f9b83" stroke-width=".518" stroke-miterlimit="10"/><path class="st20" d="M65.633 90.69s-5.247.1-7.174-4.21" id="path477" fill="none" stroke="#1f9b83" stroke-width=".518" stroke-miterlimit="10"/><path class="st20" d="M95.612 92.394s5.246-.3 7.388 3.909" id="path479" fill="none" stroke="#1f9b83" stroke-width=".518" stroke-miterlimit="10"/><path class="st20" d="M48.93 112.138s-5.14.601-7.602-3.508" id="path481" fill="none" stroke="#1f9b83" stroke-width=".518" stroke-miterlimit="10"/><path class="st20" d="M80.087 103.72s-5.14.6-7.602-3.509" id="path483" fill="none" stroke="#1f9b83" stroke-width=".518" stroke-miterlimit="10"/><path class="st20" d="M127.947 162.95s8.244 5.513 15.846.803" id="path485" fill="none" stroke="#1f9b83" stroke-width=".518" stroke-miterlimit="10"/><path class="st20" d="M130.73 165.757s4.604 3.508 9.101 1.704" id="path487" fill="none" stroke="#1f9b83" stroke-width=".518" stroke-miterlimit="10"/><path class="st4" id="polygon489" transform="matrix(1.07068 0 0 1.00223 -223.237 -362.517)" fill="#1f9b83" d="M280.9 462.1l9.4-7.9 10.2 3.1 6.8 7.3-6.4 4.7-11.3-4.9z"/><ellipse transform="matrix(.07574 -.99713 .9978 .06641 0 0)" class="st19" cx="-92.975" cy="99.735" rx="2.607" ry="3.532" id="ellipse491" fill="#3dc1a7" stroke-width="1.036"/><path class="st4" id="polygon493" transform="matrix(1.07068 0 0 1.00223 -223.237 -362.517)" fill="#1f9b83" d="M238.6 437.3l5.5-10.9 10.7-1.2 9.1 4.1-4.1 6.8-12.3-.1z"/><ellipse transform="matrix(.95211 -.30575 .3441 .93893 0 0)" class="st19" cx="18.889" cy="79.686" rx="3.51" ry="2.625" id="ellipse495" fill="#3dc1a7" stroke-width="1.036"/><path class="st4" id="polygon497" transform="matrix(1.07068 0 0 1.00223 -223.237 -362.517)" fill="#1f9b83" d="M267.5 468.7l-11.7 3.7-8.2-6.8-3.5-9.4 7.7-1.9 8.6 8.9z"/><ellipse transform="matrix(.4743 -.88036 .9043 .4269 0 0)" class="st19" cx="-72.483" cy="92.01" rx="2.643" ry="3.489" id="ellipse499" fill="#3dc1a7" stroke-width="1.037"/><linearGradient id="SVGID_5_" gradientUnits="userSpaceOnUse" x1="314.254" y1="403.213" x2="359.981" y2="403.213" gradientTransform="matrix(1.07068 0 0 1.00223 -223.237 -362.517)"><stop offset="0" id="stop501" stop-color="#4625c1"/><stop offset="1" id="stop503" stop-color="#33313d"/></linearGradient><path d="M149.467 20.935c-19.058-5.713-36.296.2-31.692 12.327-3.32 7.718-4.604 23.954-4.604 23.954 4.176-.902 5.032 6.113 5.032 6.113l2.142 1.203s-1.928-17.238 6.53-19.644c4.819-1.403 6.21-5.311 6.532-8.418 5.782 1.703 15.953 3.207 26.981-1.704.107-.1 8.244-8.118-10.92-13.83z" id="path506" fill="url(#SVGID_5_)" stroke-width="1.036"/><path d="M158.461 31.659s-15.204 7.416-28.694-.802" id="path508" fill="none" stroke="#d9dbe8" stroke-width=".518" stroke-miterlimit="10"/><path class="st15" d="M101.608 158.541c-.857-.1-2.142-.702-2.998-.802-8.994-1.102-16.382-5.111-21.95-9.42" id="path510" fill="none" stroke="#fff" stroke-width=".518" stroke-miterlimit="10"/></svg>