<svg version="1.1" id="bg" xmlns="http://www.w3.org/2000/svg" x="0" y="0" viewBox="0 0 624 802.2" xml:space="preserve"><style>.st1{fill:#fff}.st3{fill:#e6e7e9}.st4{fill:#1f9b83}.st5{fill:#ff9b24}.st6{fill:#53a9f4}.st10{fill:#3537ab}.st15{fill:none;stroke-width:.5;stroke-miterlimit:10;stroke:#fff}.st17{fill:#61aaf7}.st18{fill:none;stroke:#177563;stroke-width:.5;stroke-miterlimit:10}.st19{fill:#3dc1a7}.st20{fill:none;stroke-miterlimit:10;stroke-width:.5;stroke:#1f9b83}</style><ellipse cx="307.5" cy="729.7" rx="162.4" ry="22.3" fill="#b2320f"/><path class="st1" d="M366.6 795.7L563.7 0 53.8 37.8l181.9 764.4z"/><path opacity=".15" fill="#fff" d="M366.6 795.7L624 0 0 37.8l235.7 764.4z"/><path class="st3" d="M374.3 652.8c-2.5-5-8.2-12.1-13.7-18.7-1.1 0-2.1 0-3-.1l.5-.3s-10.2-85.3-10.2-85.4c-4.6-2.3-27.8-13.2-63.2-12.5-.2-.3-.3-.5-.5-.8-11.9-15.4-15.6-26.5-14.7-34.8.3 0 .6.1.9.2 7.3 1 13.9.9 19.7.1l12.7 2.2.4-3.2 4.2 5.7 10.8-4.6-1.3-4.3 15.8 2.7.7-5.9c.6 1.1 3.2 1.2 3.1-1.7l2.8 1.3 11.1-3.5c4.2 1.1 8.9-.1 11.6-3.8.6-.9.3-1.8-.4-2.3 2.5-2.8 3.1-6.4 1.3-8-.3-.2-.5-.4-.8-.5-.4-.2-.8-.4-1.3-.4-.2 0-.3 0-.5.1-.1-.1-.2-.3-.3-.4l-1.3-2.4c.4-.4.8-.7 1.2-1 1.8-1.2-.2-3.9-2-2.7-.3.2-.6.4-.9.7l-.1-.2-3.8-12.3-10.9 1.6-4-7-7.9-.1-.9-5.4s-10.5-2.6-11-2.6c-.4 0-3.9.5-7.6 1-.6.1-1.2.1-1.9.1 3-3 12.6-13.4 17.9-28.2 2.4.1 4.5-.3 4.8-1.4 0-.2-.2-.5-.7-.9-.6-.6-1.5-1.3-2.7-2 .3-1 .5-2.1.8-3.1 3.2-1 6.5-3.5 5.3-9.2l-4.1-.4c.1-1.5.1-3 0-4.5-.1-3.4-1.2-11.7-2.3-16.3s7.6-8-10.2-13.7c-17.8-5.7-33.9.2-29.6 12.3-2.9 7.3-4.2 22-4.3 23.7-1.6.8-2.8 2.3-3 4.1-.4 2.3.8 4.5 2.8 5.6h-.4c.6.3 1.2.5 1.7.5h.1c.8 8.5 3.7 18.2 9.3 30.7l-.7 4c-1 .7-2.1 1.5-3.1 2.1-5.1-.7-10.2-.6-15.3.1l1.6-1.2-6.9-7.3-10.2-3.1-9.4 7.9 8.7 2.3 7.3 3.2C191 468.2 221 557.1 221 557.1l1.4-.1c5.4 10.2 24.9 45 51.9 69.5 0 0-21.4 33.4-27.4 75.3h-.1c-.7 3.2-.7 9.7-.7 9.7s13.3 1.1 28.1 0c1.4-.1 1.9-2 .6-2.7-4-2.4-10.8-6-17.5-7.7l-5.1.3c2.6-5.1 25.6-49.7 39.2-75 0 0-2.9-22-10.2-46.6-.6-2-1.2-3.8-1.7-5.5 15.8-.9 36.2-3.2 55.5-8.9 1.1 12.5 5 40.7 17.9 68.5h-.8c-1.4 1.9-2.5 3.7-2.5 3.7s10.6 9.6 22.9 17.2c1 .7 2.5-.7 1.8-2z"/><path class="st3" d="M336 445.6l8.8 5.3c-2.1-5.5-8.8-5.3-8.8-5.3zm5.2-1.8l6 5.2c-1.2-4.6-6-5.2-6-5.2zM229.7 403l8.8 5.3c-2.1-5.5-8.8-5.3-8.8-5.3zm10 30.3l-6.7-4.2c1.8 4.3 6.7 4.2 6.7 4.2zm28 1.7l6.9 3.9c-2-4.1-6.9-3.9-6.9-3.9zm-43.6 19.8l-7.1-3.5c2.3 4 7.1 3.5 7.1 3.5zm29.1-8.4l-7.1-3.5c2.3 4.1 7.1 3.5 7.1 3.5zm44.7 59.1s7.7 5.5 14.8.8l-14.8-.8zm11.2 4.5l-8.5-1.7s4.3 3.5 8.5 1.7zm-79.3-92.7l4.1-6.8-9.2-4.1-10.6 1.1-5.6 10.9 8.9-1.2zm-4 36.2l11.6-3.6-7.1-5.5-8.5-8.9-7.8 1.8 3.5 9.4zm151.9 296.8l9.6-40.5c-23.6-1.9-50.8-2.9-79.8-2.9-34.9 0-67.2 1.5-93.7 4.2l9 38.1c24.7 2.1 53.7 3.3 84.7 3.3 25.2 0 49-.8 70.2-2.2z"/><path class="st4" d="M330.5 514.4l7 9.5 10.9-4.6-2.8-9.4z"/><path class="st4" d="M343 514.3l19.9 3.5 1-8.9-19.1-2.8zm-30 3.7l20 3.4 1-8.8-19.1-2.8z"/><path class="st5" d="M389.6 502.1c-2.3 3.1-6.3 3.6-9.7 2-2-.9-3.2 2.2-1.3 3.1 4.7 2.1 10.4 1.2 13.6-3.1 1.3-1.7-1.4-3.7-2.6-2zm.6-12.9c1.8-1.2-.2-3.9-2-2.7-1.7 1.2-3.1 2.8-4.1 4.6.9.6 1.8 1.3 2.8 2 .7-1.6 1.8-3 3.3-3.9z"/><ellipse transform="rotate(-48.012 388.476 499.025)" class="st5" cx="388.5" cy="499" rx="7" ry="4.4"/><path class="st6" d="M387.5 491.7s.2 1.8 2 1.7l-5.5 6.2s-2-2.8.2-8.5"/><path d="M328.6 468.4c-6.6.8-12 2.3-16.4 4.6 3.1 3 6.1 6.1 9.5 9.1.9.7 1.8 1.4 2.7 2.2 4.6-.2 9.6-.1 15-1 22.7-4 40.1 10.1 45.4 15.1.7.7 1.9.4 2.3-.5.2-.5.4-1 .7-1.5 1.6-2.4 3.3-2.6 3.3-2.6-.4-.4-17.8-30.7-62.5-25.4z" fill="#6535e4"/><linearGradient id="SVGID_1_" gradientUnits="userSpaceOnUse" x1="320.56" y1="720.654" x2="320.56" y2="554.562"><stop offset="0" stop-color="#4625c1"/><stop offset="1" stop-color="#33313d"/></linearGradient><path d="M378.1 567.1c-5.3-2.7-35.6-16.9-80.8-11.2l-5 11.7-41.3 5.2s21.5 43.5 53.4 72.4c0 0-21.5 33.5-27.4 75.4h5s25-48.6 39.4-75.5c0 0-3.4-25.5-12-52.1 15.8-.9 36.2-3.2 55.5-8.9 1.2 12.9 5.2 42.5 19.2 71.1l6.1-2.4c0 .1-12.1-85.6-12.1-85.7z" fill="url(#SVGID_1_)"/><path class="st4" d="M288.9 479.3l8.7-5.8 8.2 2.7 11.8-8s13.1-4.4 14.2-4.7c1.1-.2 16.2-2.4 17.1-2.4.5 0 11 2.6 11 2.6l.9 5.4 7.9.1 4 7 10.9-1.6 3.8 12.3 4.4 8.3-5.3 10.9-16.9 5.3-4.2-2-29.2 2.9-22.5 4.4-24-21.1-.8-16.3z"/><linearGradient id="SVGID_2_" gradientUnits="userSpaceOnUse" x1="245.238" y1="520.579" x2="342.99" y2="520.579"><stop offset="0" stop-color="#61cbf7"/><stop offset="1" stop-color="#467ef7"/></linearGradient><path d="M251.1 575.9l26.3-2.1c9.7-.8 28.6-7 35.6-14 2-2 3.2-3.5 1.3-5.9-41.6-54.1 16.2-54.8 26.1-67 5-6.2 2.1-13.6-3-18.4-3.4-.3-6.7-.7-9.9-1.5-8.6-2.2-17.6-2.2-26.3-.4-81.3 17.1-50.1 109.3-50.1 109.3z" fill="url(#SVGID_2_)"/><ellipse transform="matrix(.9958 -.09129 .09129 .9958 -37.338 30.693)" class="st5" cx="316.8" cy="423.5" rx="5.7" ry="5.5"/><ellipse transform="rotate(-83.771 336.951 420.1)" class="st10" cx="336.9" cy="420.1" rx="1.4" ry="1.6"/><ellipse transform="matrix(.9958 -.09129 .09129 .9958 -37.124 34.33)" class="st10" cx="356.7" cy="423" rx="1.2" ry="1.2"/><linearGradient id="SVGID_3_" gradientUnits="userSpaceOnUse" x1="315.274" y1="430.418" x2="362.029" y2="430.418"><stop offset=".127" stop-color="#ff9b24"/><stop offset="1" stop-color="#ffcb3d"/></linearGradient><path d="M358.6 429.9c1.5-5.3 2.3-11.1 2.1-17.2-.1-4.2-1.8-16.1-3.1-19-8-17.3-33.4-4.2-38.5 10.2-5.9 16.7-5.7 30.2 5.8 55.8l-1.6 9c-.4 2.4.8 4.8 3 5.8 2 1 4.8 1.5 7.8.1 1.6-.7 2.7-2.2 3-3.9l1.4-7.5s12.5-11.4 18.8-29.1c2.4.1 4.5-.3 4.8-1.4 0-.4-1.4-1.5-3.5-2.8z" fill="url(#SVGID_3_)"/><path d="M327.2 427.7s-.8 5.3 5.5 8.1m12.9-2.6s16.3 2.3 16.3-.5-18.2-10-18.2-10" fill="none" stroke="#3537ab" stroke-width=".5" stroke-miterlimit="10"/><linearGradient id="SVGID_4_" gradientUnits="userSpaceOnUse" x1="319.95" y1="420.404" x2="364.954" y2="420.404"><stop offset="0" stop-color="#4625c1"/><stop offset="1" stop-color="#33313d"/></linearGradient><path d="M364.7 417.5l-44.8-4.1.3 5.5 2.8.9s5.1 12.3 19.3 2.7l1.5.6 10.5 4.4c.1-.1 12.5.3 10.4-10z" fill="url(#SVGID_4_)"/><ellipse transform="rotate(-5.238 335.403 420.362) scale(.99998)" class="st1" cx="335.4" cy="420.4" rx=".8" ry=".8"/><ellipse transform="matrix(.9958 -.09129 .09129 .9958 -37.145 34.483)" class="st1" cx="358.4" cy="423.3" rx=".8" ry=".8"/><path class="st6" d="M390.7 652.9c-3.3 0-5.4-.1-8.7-.3-1.4 1.9-2.5 3.7-2.5 3.7s10.6 9.6 22.9 17.2c1.2.8 2.7-.6 2.1-1.9-2.6-4.9-8.3-12-13.8-18.7zm-86 74.7c-4-2.4-10.8-6-17.5-7.7-3.5.2-7 .5-10.5.8-.7 3.2-.7 9.7-.7 9.7s13.3 1.1 28.1 0c1.4-.2 1.9-2.1.6-2.8z"/><path class="st15" d="M301.9 577s10.3 13.3 21.5 67.6"/><path d="M317.9 428.4s-2 1.2-4.7-.1" fill="none" stroke="#e6e7e9" stroke-width=".5" stroke-miterlimit="10"/><path class="st17" d="M345.3 501.7s-43.1-.8-56.2-21.3l-4.4 33.6s25.5 15.8 63.1-4.8l-2.5-7.5z"/><path class="st4" d="M346.6 466.1c-1.9-1.3-3.8-1.9-5.4-4-4.3.6-12.4-1.1-13-1-1.1.2-10.6 7.1-10.6 7.1l-3.5 2.4 5.5.2v1l-12.5-.6v.1l-1 6.8-1-.1.3-2-7.7-2.5-8.7 5.8.6 13.9c7.9 4.8 17.8 6.8 26.8 8.2 9.7 1 18.6 1.3 28.3-.7 1.7-.3 1.3-2 1.3-3 .3-9.7 11.8-11.6 14.4-21.3.3-.7-13.1-9.7-13.8-10.3z"/><ellipse class="st5" cx="391" cy="495.2" rx="2.3" ry="2.2"/><path class="st5" d="M391.9 500.5c0 1.2 0 3.8-1.3 3.8s-3.4-2.6-3.4-3.8 1-2.2 2.3-2.2 2.4 1 2.4 2.2z"/><path class="st18" d="M298.4 475.1l5.8 12.6-6 4"/><path class="st18" d="M302 475.7l5.8 12.7-5.9 4m25.2-29.1l.9 15.4 9.8 1.7"/><path class="st18" d="M324.5 466.2l.8 15.5 9.8 1.7m-16.4-9.2l-3.7 17.3h-8"/><path class="st18" d="M321 477.2l-3.7 17.3h-8m39-31.6l1.6 18.3 10.9 1.5"/><path class="st18" d="M345.4 465.8l1.6 18.3 10.8 1.5m14.9-8l-2.8 13.6 12.3-.2.6-12.5m-9.2 16.2l12.3.4m-41.6-4.2l-8.8-5.3-11.7 12.9"/><path class="st18" d="M345 496.3l-8.8-5.4-11.8 12.9m-3-17.8h6.7l.7 4.8"/><ellipse transform="rotate(-7.432 355.28 472.373)" class="st19" cx="355.2" cy="472.3" rx="2.9" ry="3.7"/><ellipse transform="rotate(-7.432 334.645 471.376)" class="st19" cx="334.6" cy="471.4" rx="2.9" ry="3.7"/><ellipse transform="rotate(-7.432 321.223 494.562)" class="st19" cx="321.2" cy="494.5" rx="2.2" ry="2.8"/><ellipse transform="rotate(-85.738 310.82 481.416) scale(.99997)" class="st19" cx="310.8" cy="481.4" rx="3.3" ry="2.6"/><ellipse transform="matrix(.07431 -.9972 .9972 .07431 -132.65 824.14)" class="st19" cx="377.6" cy="483.5" rx="3.3" ry="2.6"/><ellipse transform="rotate(-54.422 364.4 489.189)" class="st19" cx="364.4" cy="489.2" rx="3.3" ry="2.6"/><ellipse transform="rotate(-18.979 373.996 502.362)" class="st19" cx="374" cy="502.3" rx="3.3" ry="2.6"/><ellipse transform="rotate(-54.422 351.613 500.257)" class="st19" cx="351.6" cy="500.2" rx="3.3" ry="2.6"/><ellipse transform="rotate(-53.388 336.44 500.152)" class="st19" cx="336.4" cy="500.2" rx="3.3" ry="2.6"/><ellipse transform="rotate(-53.388 339.852 514.211)" class="st19" cx="339.9" cy="514.2" rx="3.3" ry="2.6"/><ellipse transform="rotate(-15.05 296.562 484.55)" class="st19" cx="296.5" cy="484.5" rx="2.6" ry="3.3"/><path class="st18" d="M354.4 491.7l11.5-13 5 4.4"/><path class="st4" d="M345.1 496.8l3.1-7.8s10.8 2.6 11.1 2.6"/><path class="st18" d="M345.1 496.8l3.1-7.8s10.8 2.6 11.1 2.6m-15.8 19.6l15.8 2.8 2.2-9.2"/><path class="st17" d="M347.8 509.2l-2.5-7.5s-45.3 4.1-55.7-18.8l-.7-5.7-3.7 31.1c7.9 3.5 16.3 6.2 23.3 11.4 10.5.3 23.8-2.1 39.3-10.5z"/><path class="st5" d="M360 504c3.3-2 7.2-.9 9.7 1.8 1.5 1.6 3.8-.8 2.4-2.4-3.5-3.8-9.2-5.1-13.7-2.3-1.9 1.1-.2 4 1.6 2.9z"/><path class="st5" d="M360.4 501.3c.2-.3-.1.2 0 0s.2-.4.3-.7c.4-.7.8-1.3 1.4-1.8 1.9-1.9 4.4-1.8 6.9-.9 2 .7 2.9-2.5.9-3.2-5.2-1.8-10.7.4-12.6 5.7-.8 2.1 2.4 2.9 3.1.9zm-7.4-5.9c.1.1.1.2.2.3-.1-.3.1.2.1.3.1.2.1.4.2.5.2.8.2 1.6-.3 2.4-1.1 1.8 1.8 3.5 2.9 1.7 1.3-2.1 1-4.7-.2-6.8-1-2-3.9-.3-2.9 1.6z"/><path class="st5" d="M343.6 502.9l4.7-2.6c.1-.1.3-.1.4-.2 1.6-.6 11.9-3.8 16.1 4.3 4.6 8.9-.6 8.9-1.3 7.3-.6-1.3-1.2-5-3.5-5.9-2.6-1.1-6.1 2.4-10.6-1.3l-3.3 2.9a6.62 6.62 0 0 1-2.5-4.5z"/><path class="st20" d="M355.1 498.5s-4.4.3-7.4 1.6"/><path class="st18" d="M369 510.1l16.3-5.4-2.9-6.6"/><path class="st5" d="M388.2 505.8c0 1.2-1 2.2-2.3 2.2-1.3 0-3.3-1.7-3.3-3s1-2.2 2.3-2.2c1.3 0 3.3 1.7 3.3 3z"/><path class="st18" d="M334.6 517.2l3.4 5.5 8.5-4.5"/><path d="M361.3 474.8l-1.3-12m12.9 12.3l-1.7 7.1" stroke="#fff" fill="none" stroke-miterlimit="10"/><path class="st20" d="M366.1 464.4s6.7-.2 8.8 5.3m-3.7-7.1s4.8.7 6 5.2m-117.4-46s6.7-.2 8.8 5.3m1.2 25.1s-4.9.1-6.7-4.2m34.7 5.9s4.9-.3 6.9 3.9m-50.5 15.8s-4.8.6-7.1-3.5m36.2-4.9s-4.8.6-7.1-3.5m51.8 62.6s7.7 5.5 14.8.8m-12.2 2s4.3 3.5 8.5 1.7"/><path class="st4" d="M300.9 469.3l-11.3-4.9-8.7-2.3 9.4-7.9 10.2 3.1 6.8 7.3z"/><ellipse transform="rotate(-85.933 294.844 460.782) scale(1.00002)" class="st19" cx="294.8" cy="460.8" rx="2.6" ry="3.3"/><path class="st4" d="M259.8 436.1l-12.3-.1-8.9 1.3 5.5-10.9 10.7-1.2 9.1 4.1z"/><ellipse transform="rotate(-18.933 250.911 430.578)" class="st19" cx="250.9" cy="430.6" rx="3.3" ry="2.6"/><path class="st4" d="M251.8 454.3l8.6 8.9 7.1 5.5-11.7 3.7-8.2-6.8-3.5-9.4z"/><ellipse transform="rotate(-63.237 254.16 464.534)" class="st19" cx="254.1" cy="464.5" rx="2.6" ry="3.3"/><linearGradient id="SVGID_5_" gradientUnits="userSpaceOnUse" x1="314.254" y1="403.213" x2="359.981" y2="403.213"><stop offset="0" stop-color="#4625c1"/><stop offset="1" stop-color="#33313d"/></linearGradient><path d="M348.1 382.6c-17.8-5.7-33.9.2-29.6 12.3-3.1 7.7-4.3 23.9-4.3 23.9 3.9-.9 4.7 6.1 4.7 6.1l2 1.2s-1.8-17.2 6.1-19.6c4.5-1.4 5.8-5.3 6.1-8.4 5.4 1.7 14.9 3.2 25.2-1.7.1-.1 7.7-8.1-10.2-13.8z" fill="url(#SVGID_5_)"/><path d="M356.5 393.3s-14.2 7.4-26.8-.8" fill="none" stroke="#d9dbe8" stroke-width=".5" stroke-miterlimit="10"/><path class="st15" d="M303.4 519.9c-.8-.1-2-.7-2.8-.8-8.4-1.1-15.3-5.1-20.5-9.4"/></svg>