<svg version="1.1" id="bg" xmlns="http://www.w3.org/2000/svg" x="0" y="0" viewBox="0 0 100 100" xml:space="preserve"><style>.st0{fill:#fff}</style><path class="st0" d="M13.9 9.4c-2.2 0-3.9 1.8-3.9 3.9 0 2.2 1.8 3.9 3.9 3.9 2.2 0 3.9-1.8 3.9-3.9 0-2.2-1.7-3.9-3.9-3.9zm0 5.2c-.7 0-1.3-.6-1.3-1.3 0-.7.6-1.3 1.3-1.3.7 0 1.3.6 1.3 1.3-.1.7-.6 1.3-1.3 1.3zm10-5.2c-2.2 0-3.9 1.8-3.9 3.9 0 2.2 1.8 3.9 3.9 3.9 2.2 0 3.9-1.8 3.9-3.9.1-2.2-1.7-3.9-3.9-3.9zm0 5.2c-.7 0-1.3-.6-1.3-1.3 0-.7.6-1.3 1.3-1.3.7 0 1.3.6 1.3 1.3 0 .7-.6 1.3-1.3 1.3zM34 9.4c-2.2 0-3.9 1.8-3.9 3.9 0 2.2 1.8 3.9 3.9 3.9 2.2 0 3.9-1.8 3.9-3.9 0-2.2-1.8-3.9-3.9-3.9zm0 5.2c-.7 0-1.3-.6-1.3-1.3 0-.7.6-1.3 1.3-1.3.7 0 1.3.6 1.3 1.3-.1.7-.7 1.3-1.3 1.3zm0 0"/><path class="st0" d="M89.8 4.2H10c-3.3 0-5.9 2.7-5.9 5.9V90c0 3.3 2.7 5.9 5.9 5.9h79.8c3.3 0 5.9-2.7 5.9-5.9V69.6c0-.7-.6-1.3-1.3-1.3-.7 0-1.3.6-1.3 1.3V90c0 1.8-1.4 3.2-3.2 3.2H10c-1.8 0-3.2-1.4-3.2-3.2V22.5H93v38.8c0 .7.6 1.3 1.3 1.3.7 0 1.3-.6 1.3-1.3V10.1c.1-3.2-2.5-5.9-5.8-5.9zM93 19.8H6.8v-9.7c0-1.8 1.4-3.2 3.2-3.2h79.8c1.8 0 3.2 1.4 3.2 3.2v9.7zm0 0"/><path class="st0" d="M86.7 32c0-2.3-1.9-4.2-4.2-4.2H17.2c-2.3 0-4.2 1.9-4.2 4.2v7.9c0 .7.6 1.3 1.3 1.3.7 0 1.3-.6 1.3-1.3V32c0-.9.7-1.6 1.6-1.6h65.3c.9 0 1.6.7 1.6 1.6v24.6c0 .9-.7 1.6-1.6 1.6h-4.2L64.5 42.6c-.4-.5-1-.7-1.6-.7-.6 0-1.2.2-1.6.6L54 49.8l-9.8-11.1c-.4-.5-1-.7-1.6-.7-.6 0-1.2.2-1.6.6L21.4 58.1h-4.3c-.9 0-1.6-.7-1.6-1.6v-8.2c0-.7-.6-1.3-1.3-1.3-.7 0-1.3.6-1.3 1.3v8.2c0 2.3 1.9 4.2 4.2 4.2h65.3c2.3 0 4.2-1.9 4.2-4.2V32zM25.2 58.1l17.2-17.2 13.1 14.7c.5.6 1.3.6 1.9.1.6-.5.6-1.3.1-1.9l-1.8-2 7-7 11.8 13.3H25.2zm-8 6.4c-2.3 0-4.2 1.9-4.2 4.2V82c0 2.3 1.9 4.2 4.2 4.2h26c2.3 0 4.2-1.9 4.2-4.2V68.8c0-2.3-1.9-4.2-4.2-4.2h-26zm27.5 4.3V82c0 .9-.7 1.6-1.6 1.6h-26c-.9 0-1.6-.7-1.6-1.6V68.8c0-.9.7-1.6 1.6-1.6h26c.9 0 1.6.7 1.6 1.6zm11.8-4.3c-2.3 0-4.2 1.9-4.2 4.2V82c0 2.3 1.9 4.2 4.2 4.2h26c2.3 0 4.2-1.9 4.2-4.2V68.8c0-2.3-1.9-4.2-4.2-4.2h-26zM84 68.8V82c0 .9-.7 1.6-1.6 1.6h-26c-.9 0-1.6-.7-1.6-1.6V68.8c0-.9.7-1.6 1.6-1.6h26c.9 0 1.6.7 1.6 1.6zm0 0"/><path class="st0" d="M19.8 72.3h3.6c.7 0 1.3-.6 1.3-1.3 0-.7-.6-1.3-1.3-1.3h-3.6c-.7 0-1.3.6-1.3 1.3-.1.7.5 1.3 1.3 1.3zm0 4.5h1.9c.7 0 1.3-.6 1.3-1.3 0-.7-.6-1.3-1.3-1.3h-1.9c-.7 0-1.3.6-1.3 1.3-.1.7.5 1.3 1.3 1.3zm20.7-2.6h-5c-.7 0-1.3.6-1.3 1.3 0 .7.6 1.3 1.3 1.3h5c.7 0 1.3-.6 1.3-1.3.1-.7-.5-1.3-1.3-1.3zM28 72.3h12.2c.7 0 1.3-.6 1.3-1.3 0-.7-.6-1.3-1.3-1.3H28c-.7 0-1.3.6-1.3 1.3 0 .7.6 1.3 1.3 1.3zm12.2 6.1h-3.6c-.7 0-1.3.6-1.3 1.3 0 .7.6 1.3 1.3 1.3h3.6c.7 0 1.3-.6 1.3-1.3 0-.7-.6-1.3-1.3-1.3zm-8.2 0H19.8c-.7 0-1.3.6-1.3 1.3 0 .7.6 1.3 1.3 1.3H32c.7 0 1.3-.6 1.3-1.3 0-.7-.6-1.3-1.3-1.3zm-6.2-1.6H31c.7 0 1.3-.6 1.3-1.3 0-.7-.6-1.3-1.3-1.3h-5.2c-.7 0-1.3.6-1.3 1.3 0 .7.6 1.3 1.3 1.3zm33.3-4.5h3.6c.7 0 1.3-.6 1.3-1.3 0-.7-.6-1.3-1.3-1.3h-3.6c-.7 0-1.3.6-1.3 1.3-.1.7.5 1.3 1.3 1.3zm0 4.5H61c.7 0 1.3-.6 1.3-1.3 0-.7-.6-1.3-1.3-1.3h-1.9c-.7 0-1.3.6-1.3 1.3-.1.7.5 1.3 1.3 1.3zm20.7-2.6h-5c-.7 0-1.3.6-1.3 1.3 0 .7.6 1.3 1.3 1.3h5c.7 0 1.3-.6 1.3-1.3.1-.7-.5-1.3-1.3-1.3zm-12.5-1.9h12.2c.7 0 1.3-.6 1.3-1.3 0-.7-.6-1.3-1.3-1.3H67.3c-.7 0-1.3.6-1.3 1.3 0 .7.6 1.3 1.3 1.3zm12.2 6.1h-3.6c-.7 0-1.3.6-1.3 1.3 0 .7.6 1.3 1.3 1.3h3.6c.7 0 1.3-.6 1.3-1.3 0-.7-.6-1.3-1.3-1.3zm-8.3 0H59.1c-.7 0-1.3.6-1.3 1.3 0 .7.6 1.3 1.3 1.3h12.2c.7 0 1.3-.6 1.3-1.3 0-.7-.6-1.3-1.4-1.3zm-6.1-1.6h5.2c.7 0 1.3-.6 1.3-1.3 0-.7-.6-1.3-1.3-1.3h-5.2c-.7 0-1.3.6-1.3 1.3 0 .7.6 1.3 1.3 1.3zm12.3-39.1c0-2.8-2.3-5.1-5.1-5.1s-5.1 2.3-5.1 5.1 2.3 5.1 5.1 5.1 5.1-2.3 5.1-5.1zm-7.6 0c0-1.3 1.1-2.4 2.4-2.4 1.3 0 2.4 1.1 2.4 2.4 0 1.3-1.1 2.4-2.4 2.4-1.3 0-2.4-1.1-2.4-2.4zm0 0"/></svg>