<svg version="1.1" id="Layer_1" xmlns="http://www.w3.org/2000/svg" x="0" y="0" viewBox="0 0 1000 1000" xml:space="preserve"><path d="M298.8 272.8c-12.1 0-22 9.9-22 22s9.9 22 22 22 22-9.9 22-22-9.9-22-22-22zm0 29c-3.9 0-7-3.1-7-7s3.1-7 7-7 7 3.1 7 7-3.2 7-7 7zm56-29c-12.1 0-22 9.9-22 22s9.9 22 22 22 22-9.9 22-22-9.8-22-22-22zm0 29c-3.9 0-7-3.1-7-7s3.1-7 7-7 7 3.1 7 7-3.1 7-7 7zm56.1-29c-12.1 0-22 9.9-22 22s9.9 22 22 22 22-9.9 22-22-9.9-22-22-22zm0 29c-3.9 0-7-3.1-7-7s3.1-7 7-7 7 3.1 7 7-3.2 7-7 7zm0 0"/><path d="M723 244H277c-18.2 0-33 14.8-33 33v446c0 18.2 14.8 33 33 33h446c18.2 0 33-14.8 33-33V609.4c0-4.1-3.4-7.5-7.5-7.5s-7.5 3.4-7.5 7.5V723c0 9.9-8.1 18-18 18H277c-9.9 0-18-8.1-18-18V346h482v217c0 4.1 3.4 7.5 7.5 7.5s7.5-3.4 7.5-7.5V277c0-18.2-14.8-33-33-33zm18 87H259v-54c0-9.9 8.1-18 18-18h446c9.9 0 18 8.1 18 18v54zm0 0"/><path d="M705.5 398.9c0-13.1-10.6-23.7-23.7-23.7H317.1c-13.1 0-23.7 10.6-23.7 23.7V443c0 4.1 3.4 7.5 7.5 7.5s7.5-3.4 7.5-7.5v-44.1c0-4.8 3.9-8.7 8.7-8.7h364.6c4.8 0 8.7 3.9 8.7 8.7v137.3c0 4.8-3.9 8.7-8.7 8.7h-23.6l-76.9-86.7c-2.2-2.5-5.5-4-8.9-4.1-3.4-.1-6.7 1.2-9.1 3.6l-40.7 40.7-54.9-61.8c-2.2-2.5-5.5-4-8.8-4.1-3.4-.1-6.7 1.2-9.1 3.6L340.9 545h-23.8c-4.8 0-8.7-3.9-8.7-8.7v-45.9c0-4.1-3.4-7.5-7.5-7.5s-7.5 3.4-7.5 7.5v45.9c0 13.1 10.6 23.7 23.7 23.7h364.6c13.1 0 23.7-10.6 23.7-23.7V398.9zM362.1 545l96.3-96.2 73 82.3c2.8 3.1 7.5 3.4 10.6.6 3.1-2.8 3.4-7.5.6-10.6l-10-11.3 39.4-39.3 66.2 74.6H362.1zm-45 36c-13.1 0-23.7 10.6-23.7 23.7v73.6c0 13.1 10.6 23.7 23.7 23.7h145.1c13.1 0 23.7-10.6 23.7-23.7v-73.6c0-13.1-10.6-23.7-23.7-23.7H317.1zm153.8 23.7v73.6c0 4.8-3.9 8.7-8.7 8.7H317.1c-4.8 0-8.7-3.9-8.7-8.7v-73.6c0-4.8 3.9-8.7 8.7-8.7h145.1c4.8 0 8.7 3.9 8.7 8.7zm65.8-23.7c-13.1 0-23.7 10.6-23.7 23.7v73.6c0 13.1 10.6 23.7 23.7 23.7h145.1c13.1 0 23.7-10.6 23.7-23.7v-73.6c0-13.1-10.6-23.7-23.7-23.7H536.7zm153.8 23.7v73.6c0 4.8-3.9 8.7-8.7 8.7H536.7c-4.8 0-8.7-3.9-8.7-8.7v-73.6c0-4.8 3.9-8.7 8.7-8.7h145.1c4.8 0 8.7 3.9 8.7 8.7zm0 0"/><path d="M331.7 624.3H352c4.1 0 7.5-3.4 7.5-7.5s-3.4-7.5-7.5-7.5h-20.3c-4.1 0-7.5 3.4-7.5 7.5s3.3 7.5 7.5 7.5zm0 25.4h10.5c4.1 0 7.5-3.4 7.5-7.5s-3.4-7.5-7.5-7.5h-10.5c-4.1 0-7.5 3.4-7.5 7.5s3.3 7.5 7.5 7.5zm116-15h-28c-4.1 0-7.5 3.4-7.5 7.5s3.4 7.5 7.5 7.5h28c4.1 0 7.5-3.4 7.5-7.5 0-4.2-3.4-7.5-7.5-7.5zm-70-10.4h68c4.1 0 7.5-3.4 7.5-7.5s-3.4-7.5-7.5-7.5h-68c-4.1 0-7.5 3.4-7.5 7.5s3.3 7.5 7.5 7.5zm68 34.4h-20.3c-4.1 0-7.5 3.4-7.5 7.5s3.4 7.5 7.5 7.5h20.3c4.1 0 7.5-3.4 7.5-7.5 0-4.2-3.4-7.5-7.5-7.5zm-46 0h-68c-4.1 0-7.5 3.4-7.5 7.5s3.4 7.5 7.5 7.5h68c4.1 0 7.5-3.4 7.5-7.5 0-4.2-3.4-7.5-7.5-7.5zm-34.2-9h29.2c4.1 0 7.5-3.4 7.5-7.5s-3.4-7.5-7.5-7.5h-29.2c-4.1 0-7.5 3.4-7.5 7.5s3.3 7.5 7.5 7.5zm185.7-25.4h20.3c4.1 0 7.5-3.4 7.5-7.5s-3.4-7.5-7.5-7.5h-20.3c-4.1 0-7.5 3.4-7.5 7.5s3.4 7.5 7.5 7.5zm0 25.4h10.5c4.1 0 7.5-3.4 7.5-7.5s-3.4-7.5-7.5-7.5h-10.5c-4.1 0-7.5 3.4-7.5 7.5s3.4 7.5 7.5 7.5zm116-15h-28c-4.1 0-7.5 3.4-7.5 7.5s3.4 7.5 7.5 7.5h28c4.1 0 7.5-3.4 7.5-7.5 0-4.2-3.3-7.5-7.5-7.5zm-70-10.4h68c4.1 0 7.5-3.4 7.5-7.5s-3.4-7.5-7.5-7.5h-68c-4.1 0-7.5 3.4-7.5 7.5s3.4 7.5 7.5 7.5zm68 34.4h-20.3c-4.1 0-7.5 3.4-7.5 7.5s3.4 7.5 7.5 7.5h20.3c4.1 0 7.5-3.4 7.5-7.5 0-4.2-3.3-7.5-7.5-7.5zm-46 0h-68c-4.1 0-7.5 3.4-7.5 7.5s3.4 7.5 7.5 7.5h68c4.1 0 7.5-3.4 7.5-7.5 0-4.2-3.3-7.5-7.5-7.5zm-34.2-9h29.2c4.1 0 7.5-3.4 7.5-7.5s-3.4-7.5-7.5-7.5H585c-4.1 0-7.5 3.4-7.5 7.5s3.4 7.5 7.5 7.5zm68.3-218.9c0-15.8-12.8-28.6-28.6-28.6s-28.6 12.8-28.6 28.6 12.8 28.6 28.6 28.6 28.6-12.9 28.6-28.6zm-42.1 0c0-7.5 6.1-13.6 13.6-13.6s13.6 6.1 13.6 13.6-6.1 13.6-13.6 13.6c-7.5-.1-13.6-6.1-13.6-13.6zm0 0"/></svg>