<svg xmlns="http://www.w3.org/2000/svg" viewBox="0 0 20 20" width="20" height="20">
	<defs>
		<clipPath clipPathUnits="userSpaceOnUse" id="cp1">
			<path d="M1 0L20 0L20 19L1 19Z" />
		</clipPath>
	</defs>
	<style>
		tspan { white-space:pre }
		.shp0 { fill: #ffffff } 
	</style>
	<g id="Page 1 copy" clip-path="url(#cp1)">
		<path id="Path 1 copy" class="shp0" d="M19.8,1.44c0,0 0,0 0,-0.01c-0.02,-0.05 -0.03,-0.1 -0.05,-0.15c0,0 0,-0.01 0,-0.02c-0.02,-0.05 -0.04,-0.1 -0.07,-0.14c0,-0.01 -0.01,-0.01 -0.01,-0.02c-0.03,-0.05 -0.05,-0.1 -0.09,-0.15c0,0 0,0 0,-0.01c-0.14,-0.21 -0.31,-0.39 -0.52,-0.52c0,0 0,0 -0.01,0c-0.05,-0.03 -0.1,-0.06 -0.15,-0.09c-0.01,0 -0.01,-0.01 -0.02,-0.01c-0.05,-0.03 -0.09,-0.05 -0.14,-0.07c-0.01,0 -0.01,0 -0.02,-0.01c-0.05,-0.02 -0.1,-0.04 -0.15,-0.05c0,0 -0.01,0 -0.01,0c-0.05,-0.01 -0.1,-0.03 -0.16,-0.04h0c-0.11,-0.02 -0.23,-0.03 -0.35,-0.03h-15.21c-1.01,0 -1.84,0.82 -1.84,1.84c0,1.01 0.82,1.84 1.84,1.84h10.78l-7.63,7.62c-0.71,0.72 -0.71,1.88 0,2.59c0.36,0.36 0.83,0.54 1.3,0.54c0.47,0 0.94,-0.18 1.3,-0.54l7.62,-7.62v10.78c0,1.01 0.82,1.83 1.83,1.83c1.01,0 1.84,-0.82 1.84,-1.83v-15.21c0,-0.18 -0.03,-0.35 -0.08,-0.52z" />
	</g>
</svg>