<?xml version="1.0" encoding="utf-8"?>
<!-- Generator: Adobe Illustrator 22.0.1, SVG Export Plug-In . SVG Version: 6.00 Build 0)  -->
<svg version="1.1" id="bg" xmlns="http://www.w3.org/2000/svg" xmlns:xlink="http://www.w3.org/1999/xlink" x="0px" y="0px"
	 viewBox="0 0 39.3 25.2" style="enable-background:new 0 0 39.3 25.2;" xml:space="preserve">
<style type="text/css">
	.st0{fill:#FFFFFF;}
</style>
<path class="st0" d="M39.1,13.5C39.1,13.5,39.1,13.5,39.1,13.5c0-0.1,0.1-0.1,0.1-0.2c0,0,0,0,0,0c0,0,0-0.1,0.1-0.2c0,0,0,0,0,0
	c0-0.1,0-0.1,0-0.2c0,0,0,0,0,0c0-0.2,0-0.5,0-0.7c0,0,0,0,0,0c0-0.1,0-0.1,0-0.2c0,0,0,0,0,0c0-0.1,0-0.1-0.1-0.1c0,0,0,0,0,0
	c0,0,0-0.1-0.1-0.1c0,0,0,0,0,0c0,0-0.1-0.1-0.1-0.1l0,0c-0.1-0.1-0.1-0.2-0.2-0.3L28,0.5c-0.7-0.7-1.9-0.7-2.6,0
	c-0.7,0.7-0.7,1.9,0,2.6l7.6,7.6l-31.2,0c-1,0-1.8,0.8-1.8,1.8c0,0.5,0.2,1,0.5,1.3c0.3,0.3,0.8,0.5,1.3,0.5l31.2,0L25.4,22
	c-0.7,0.7-0.7,1.9,0,2.6c0.7,0.7,1.9,0.7,2.6,0l10.8-10.8C38.9,13.8,39,13.6,39.1,13.5z"/>
</svg>
