<?xml version="1.0" encoding="utf-8"?>
<!-- Generator: Adobe Illustrator 22.0.1, SVG Export Plug-In . SVG Version: 6.00 Build 0)  -->
<svg version="1.1" xmlns="http://www.w3.org/2000/svg" xmlns:xlink="http://www.w3.org/1999/xlink" x="0px" y="0px"
	 viewBox="0 0 418 285" style="enable-background:new 0 0 418 285;" xml:space="preserve">
<style type="text/css">
	.st0{fill:url(#SVGID_1_);}
	.st1{fill:#61AAF7;}
	.st2{fill:#6535E4;}
	.st3{fill:#E85419;}
	.st4{fill:#FFFFFF;}
	.st5{fill:#E6E7E9;}
	.st6{fill:#FFFFFF;stroke:#BFCCD3;stroke-width:5;stroke-miterlimit:10;}
	.st7{fill:none;stroke:#BFCCD3;stroke-width:2;stroke-miterlimit:10;}
	.st8{fill:none;stroke:#E85419;stroke-width:5;stroke-miterlimit:10;}
	.st9{fill:none;stroke:#6435E3;stroke-miterlimit:10;}
	.st10{fill:#FF9B24;}
	.st11{fill:#2031A7;}
	.st12{fill:none;stroke:#FFFFFF;stroke-miterlimit:10;}
	.st13{fill:none;stroke:#F6FBFF;stroke-miterlimit:10;}
	.st14{fill:#3537AB;}
	.st15{fill:none;stroke:#3537AB;stroke-width:0.5;stroke-miterlimit:10;}
	.st16{fill:none;stroke:#F5FBFF;stroke-miterlimit:10;}
	.st17{fill:#6C75FF;}
	.st18{fill:#BFCCD3;}
	.st19{fill:#F6FBFF;}
	.st20{fill:#1F9B83;}
	.st21{fill:#53A9F4;}
	.st22{fill:none;stroke:#3F89F2;stroke-miterlimit:10;}
	.st23{fill:none;stroke:#177563;stroke-width:0.5;stroke-miterlimit:10;}
	.st24{fill:#3DC1A7;}
	.st25{fill:none;stroke:#1F9B83;stroke-width:0.5;stroke-miterlimit:10;}
	.st26{fill:#4094D3;}
	.st27{fill:none;stroke:#53A9F4;stroke-width:0.5;stroke-miterlimit:10;}
	.st28{fill:#33313D;}
	.st29{fill:none;stroke:#D9DBE8;stroke-miterlimit:10;}
	.st30{fill:#FF8F55;}
	.st31{fill:#D9DBE8;}
	.st32{fill:#FFFFFF;stroke:#3537AB;stroke-width:0.5;stroke-miterlimit:10;}
	.st33{fill:#4625C1;}
	.st34{fill:none;stroke:#BFCCD3;stroke-width:3;stroke-miterlimit:10;}
	.st35{fill:#C64214;}
	.st36{fill:#F1F2F2;stroke:#BFCCD3;stroke-width:2;stroke-miterlimit:10;}
	.st37{clip-path:url(#SVGID_3_);}
	.st38{fill:none;stroke:#BFCCD3;stroke-miterlimit:10;}
	.st39{opacity:0.19;fill:#BFCCD3;stroke:#F1F2F2;stroke-width:2;stroke-miterlimit:10;}
	.st40{fill:url(#SVGID_4_);}
	.st41{fill:url(#SVGID_5_);}
	.st42{fill:url(#SVGID_6_);}
	.st43{clip-path:url(#SVGID_8_);}
	.st44{fill:url(#SVGID_9_);}
	.st45{fill:url(#SVGID_10_);}
	.st46{fill:url(#SVGID_11_);}
	.st47{fill:url(#SVGID_12_);}
	.st48{fill:#CE4617;}
	.st49{clip-path:url(#SVGID_14_);}
	.st50{fill:none;}
	.st51{fill:none;stroke:#FFFFFF;stroke-width:0.5;stroke-miterlimit:10;}
	.st52{fill:none;stroke:#E6E7E9;stroke-width:0.5;stroke-miterlimit:10;}
	.st53{fill:none;stroke:#61AAF7;stroke-miterlimit:10;}
	.st54{fill:none;stroke:#D9DBE8;stroke-width:0.5;stroke-miterlimit:10;}
	.st55{fill:none;stroke:#6535E4;stroke-width:0.5;stroke-miterlimit:10;}
	.st56{fill:#B2320F;}
	.st57{opacity:0.15;fill:#FFFFFF;}
	.st58{fill:url(#SVGID_15_);}
	.st59{fill:url(#SVGID_16_);}
	.st60{fill:url(#SVGID_17_);}
	.st61{fill:url(#SVGID_18_);}
	.st62{fill:url(#SVGID_19_);}
	.st63{fill:url(#SVGID_20_);}
	.st64{fill:url(#SVGID_21_);}
	.st65{fill:url(#SVGID_22_);}
	.st66{fill:url(#SVGID_23_);}
	.st67{fill:url(#SVGID_24_);}
	.st68{fill:url(#SVGID_25_);}
	.st69{fill:url(#SVGID_26_);}
	.st70{fill:url(#SVGID_27_);}
	.st71{fill:url(#SVGID_28_);}
	.st72{fill:url(#SVGID_29_);}
	.st73{fill:url(#SVGID_30_);}
	.st74{fill:url(#SVGID_31_);}
	.st75{fill:url(#SVGID_32_);}
	.st76{fill:url(#SVGID_33_);}
	.st77{fill:url(#SVGID_34_);}
	.st78{fill:url(#SVGID_35_);}
	.st79{fill:url(#SVGID_36_);}
	.st80{fill:url(#SVGID_37_);}
	.st81{fill:url(#SVGID_38_);}
	.st82{fill:none;stroke:#CE7C24;stroke-width:0.5;stroke-miterlimit:10;}
	.st83{fill:url(#SVGID_39_);}
	.st84{fill:url(#SVGID_40_);}
	.st85{fill:url(#SVGID_41_);}
	.st86{clip-path:url(#SVGID_43_);}
	.st87{fill:url(#SVGID_44_);}
	.st88{fill:url(#SVGID_45_);}
	.st89{fill:url(#SVGID_46_);}
	.st90{fill:url(#SVGID_47_);}
	.st91{fill:url(#SVGID_48_);}
	.st92{fill:url(#SVGID_49_);}
	.st93{fill:url(#SVGID_50_);}
	.st94{fill:url(#SVGID_51_);}
	.st95{fill:url(#SVGID_52_);}
	.st96{fill:url(#SVGID_53_);}
	.st97{fill:url(#SVGID_54_);}
	.st98{opacity:0.1;clip-path:url(#SVGID_56_);}
</style>
<g id="Layer_1">
</g>
<g id="bg">
	<linearGradient id="SVGID_1_" gradientUnits="userSpaceOnUse" x1="209.0153" y1="285" x2="209.0153" y2="0">
		<stop  offset="0" style="stop-color:#BC3B0D"/>
		<stop  offset="1" style="stop-color:#E85419"/>
	</linearGradient>
	<path class="st0" d="M0,0v222.6l0,4.6v29.6c3.3-0.8,50.1-11.6,95.2,3.1c46.8,15.3,76.3,25.2,111,25.2s74-11.9,112.3-27.4
		s96.6-4.5,99.6-1.5v-27V0H0z"/>
	<g>
		<defs>
			<path id="SVGID_55_" d="M0,0v222.6l0,4.6v29.6c3.3-0.8,50.1-11.6,95.2,3.1c46.8,15.3,76.3,25.2,111,25.2s74-11.9,112.3-27.4
				s96.6-4.5,99.6-1.5v-27V0H0z"/>
		</defs>
		<clipPath id="SVGID_3_">
			<use xlink:href="#SVGID_55_"  style="overflow:visible;"/>
		</clipPath>
		<g style="opacity:0.1;clip-path:url(#SVGID_3_);">
			<g>
				<path class="st4" d="M123.3,184.3c1-0.4,1.7-1.2,2-2.2c0.2-1-0.1-2.1-0.8-2.9l-22.5-22.5c6.6-9.1,5.6-21.7-2.3-29.6
					c-8-8-20.5-8.9-29.6-2.3l-22.5-22.5c-0.7-0.8-1.8-1.1-2.9-0.8c-1,0.2-1.9,1-2.2,2l-18.5,50.9c-6.1,16.7-15.8,31.9-28.3,44.5
					c-5.1,5.1-5.1,13.3,0,18.4l14,14c5.1,5.1,13.3,5.1,18.4,0c0.1-0.1,0.2-0.2,0.3-0.3l28.9,28.9c1.2,1.2,3.2,1.2,4.4,0
					c8.9-8.9,8.9-23.4,0-32.3l-12.9-12.9c7.5-4.8,15.5-8.7,23.8-11.7L123.3,184.3z M95.2,131.6c5.5,5.5,6.5,14.2,2.3,20.8l-23-23
					C81,125.1,89.7,126,95.2,131.6L95.2,131.6z M18.7,228.8c-1.8,0-3.5-0.7-4.8-2l-14-14c-2.7-2.6-2.7-6.9,0-9.6
					c2.4-2.4,4.7-4.9,6.9-7.5l24.2,24.2c-2.6,2.2-5.1,4.5-7.5,6.9C22.3,228.1,20.5,228.8,18.7,228.8L18.7,228.8z M57.1,231.9
					c5.7,5.7,6.5,14.6,2,21.2l-26.4-26.4c3.4-3,7-5.9,10.7-8.5L57.1,231.9z M35.9,215.9l-25.1-25.1c8-10.4,14.4-22,18.9-34.3
					l16.8-46.3l70,70L70.3,197C57.9,201.5,46.3,207.9,35.9,215.9L35.9,215.9z M35.9,215.9"/>
				<path class="st4" d="M117.1,116.2c-9.5-9.6-23.9-12.5-36.4-7.4c-1.6,0.6-2.4,2.4-1.7,4c0.6,1.6,2.4,2.4,4,1.7
					c10.2-4.1,21.9-1.7,29.7,6.1c7.8,7.8,10.2,19.5,6.1,29.7c-0.6,1.6,0.1,3.4,1.7,4c1.6,0.6,3.4-0.1,4-1.7
					C129.6,140.1,126.7,125.8,117.1,116.2L117.1,116.2z M117.1,116.2"/>
				<path class="st4" d="M135.6,160.1c1.6,0.6,3.4-0.1,4-1.7c7.4-18.5,3.1-39.6-11-53.7c-14.1-14.1-35.2-18.4-53.7-11
					c-1,0.4-1.8,1.3-1.9,2.4c-0.2,1.1,0.3,2.2,1.2,2.9c0.9,0.7,2.1,0.8,3.1,0.4c16.2-6.5,34.7-2.7,47,9.6
					c12.3,12.3,16.1,30.8,9.6,47C133.2,157.7,134,159.5,135.6,160.1L135.6,160.1z M135.6,160.1"/>
				<path class="st4" d="M170.2,16.3c-25.8,0-46.7,20.9-46.7,46.7s20.9,46.7,46.7,46.7s46.7-20.9,46.7-46.7
					C216.8,37.2,195.9,16.3,170.2,16.3L170.2,16.3z M170.2,103.5c-22.4,0-40.5-18.1-40.5-40.5s18.1-40.5,40.5-40.5
					s40.5,18.1,40.5,40.5C210.6,85.3,192.5,103.4,170.2,103.5L170.2,103.5z M170.2,103.5"/>
				<path class="st4" d="M186.9,57.6c6.4,0,11.6-5.2,11.6-11.6c0-6.4-5.2-11.6-11.6-11.6c-6.4,0-11.6,5.1-11.6,11.5L161,54.2
					c-4.6-4-11.6-3.7-15.9,0.7c-4.3,4.4-4.4,11.4-0.3,15.9c4.1,4.5,11.1,5.1,15.9,1.2l14.7,9.2c0.6,5.7,5.3,10.1,11.1,10.4
					c5.8,0.2,10.8-3.8,11.9-9.4c1.1-5.7-2.2-11.2-7.6-13.1c-5.4-1.9-11.4,0.5-14.1,5.6l-12.3-7.7c0.9-2.4,0.9-5.1,0.1-7.5l12.7-7.3
					C179.2,55.5,182.9,57.6,186.9,57.6L186.9,57.6z M186.9,40.6c3,0,5.4,2.4,5.4,5.4c0,3-2.4,5.4-5.4,5.4c-3,0-5.4-2.4-5.4-5.4
					C181.5,43,183.9,40.6,186.9,40.6L186.9,40.6z M153.4,68.4c-3,0-5.4-2.4-5.4-5.4c0-3,2.4-5.4,5.4-5.4c3,0,5.4,2.4,5.4,5.4
					C158.8,66,156.4,68.4,153.4,68.4L153.4,68.4z M186.9,74.6c3,0,5.4,2.4,5.4,5.4c0,3-2.4,5.4-5.4,5.4c-3,0-5.4-2.4-5.4-5.4
					C181.5,77,183.9,74.6,186.9,74.6L186.9,74.6z M186.9,74.6"/>
				<path class="st4" d="M170.2,177.1c-25.8,0-46.7,20.9-46.7,46.7s20.9,46.7,46.7,46.7s46.7-20.9,46.7-46.7
					C216.8,198,195.9,177.1,170.2,177.1L170.2,177.1z M170.2,264.2c-22.4,0-40.5-18.1-40.5-40.5s18.1-40.5,40.5-40.5
					s40.5,18.1,40.5,40.5C210.6,246.1,192.5,264.2,170.2,264.2L170.2,264.2z M170.2,264.2"/>
				<path class="st4" d="M189.3,221.1l-25.4-15.7c-1-0.6-2.2-0.6-3.1-0.1c-1,0.5-1.6,1.6-1.6,2.7v31.4c0,1.1,0.6,2.2,1.6,2.7
					c1,0.5,2.2,0.5,3.1-0.1l25.4-15.7c0.9-0.6,1.5-1.6,1.5-2.6C190.8,222.7,190.2,221.7,189.3,221.1L189.3,221.1z M165.4,233.9
					v-20.3l16.4,10.1L165.4,233.9z M165.4,233.9"/>
				<path class="st4" d="M9.4,109.7c25.8,0,46.7-20.9,46.7-46.7S35.2,16.3,9.4,16.3S-37.3,37.2-37.3,63
					C-37.2,88.8-16.4,109.6,9.4,109.7L9.4,109.7z M9.4,22.5c22.4,0,40.5,18.1,40.5,40.5s-18.1,40.5-40.5,40.5S-31.1,85.3-31.1,63
					C-31,40.6-12.9,22.5,9.4,22.5L9.4,22.5z M9.4,22.5"/>
				<path class="st4" d="M-9.6,81.5h22.2c4.6,0,8.3-3.7,8.3-8.3v-0.5L32.1,79c1,0.5,2.1,0.5,3.1-0.1c0.9-0.6,1.5-1.6,1.5-2.7V49.7
					c0-1.1-0.6-2.1-1.5-2.7c-0.9-0.6-2.1-0.6-3.1-0.1l-11.3,6.2v-0.5c0-4.6-3.7-8.3-8.3-8.3H-9.6c-4.6,0-8.3,3.7-8.3,8.3v20.5
					C-17.9,77.8-14.2,81.5-9.6,81.5L-9.6,81.5z M30.5,54.9V71l-9.7-5.3v-5.4L30.5,54.9z M-11.7,52.7c0-1.1,0.9-2.1,2.1-2.1h22.2
					c1.1,0,2.1,0.9,2.1,2.1v20.5c0,1.1-0.9,2.1-2.1,2.1H-9.6c-1.1,0-2.1-0.9-2.1-2.1V52.7z M-11.7,52.7"/>
			</g>
		</g>
	</g>
</g>
</svg>
