<?xml version="1.0" encoding="utf-8"?>
<!-- Generator: Adobe Illustrator 22.0.1, SVG Export Plug-In . SVG Version: 6.00 Build 0)  -->
<svg version="1.1" id="Слой_1" xmlns="http://www.w3.org/2000/svg" xmlns:xlink="http://www.w3.org/1999/xlink" x="0px" y="0px"
	 viewBox="0 0 418 796" style="enable-background:new 0 0 418 796;" xml:space="preserve">
<style type="text/css">
	.st0{fill:url(#SVGID_1_);}
	.st1{fill:#4625C1;}
	.st2{fill:none;}
	.st3{clip-path:url(#SVGID_3_);}
	.st4{fill:url(#SVGID_4_);}
	.st5{fill:#FFFFFF;}
	.st6{fill:url(#SVGID_5_);}
	.st7{fill:url(#SVGID_6_);}
	.st8{fill:url(#SVGID_7_);}
	.st9{fill:url(#SVGID_8_);}
	.st10{fill:url(#SVGID_9_);}
	.st11{fill:url(#SVGID_10_);}
	.st12{fill:url(#SVGID_11_);}
	.st13{fill:url(#SVGID_12_);}
	.st14{fill:url(#SVGID_13_);}
	.st15{fill:url(#SVGID_14_);}
	.st16{fill:none;stroke:#FFFFFF;stroke-width:0.5;stroke-miterlimit:10;}
	.st17{fill:none;stroke:#3537AB;stroke-width:0.5;stroke-miterlimit:10;}
</style>
<g id="Layer_1">
</g>
<g id="bg">
	
		<linearGradient id="SVGID_1_" gradientUnits="userSpaceOnUse" x1="210.3" y1="798" x2="210.3" y2="2.0001" gradientTransform="matrix(1 0 0 -1 0 798)">
		<stop  offset="0" style="stop-color:#4625C1"/>
		<stop  offset="1" style="stop-color:#467EF7"/>
	</linearGradient>
	<path class="st0" d="M1.3,0v733.5v4.6v29.6c3.3-0.8,50.1-11.6,95.2,3.1c46.8,15.3,76.3,25.2,111,25.2s74-11.9,112.3-27.4
		s96.5-4.6,99.5-1.6v-27V0H1.3z"/>
</g>
<ellipse class="st1" cx="215.1" cy="568.9" rx="162.4" ry="22.3"/>
<path class="st2" d="M136,631.7c-0.9-5.9-1.9-11.7-2.8-17.6c-0.5-3.3,1.9-6.5,5.5-7c47.5-6.9,95.7-6.9,143.2,0c3.6,0.5,6,3.7,5.5,7
	c-0.9,5.9-1.8,11.7-2.8,17.6"/>
<g id="Слой_2_1_">
	<polygon class="st2" points="419.3,254 419.3,796 192,796 192,1050 610,1050 610,254 	"/>
	<rect x="192" y="254" class="st2" width="227.3" height="542"/>
</g>
<path class="st2" d="M1.3,0v733.5v4.6v29.6c3.3-0.8,50.1-11.6,95.2,3.1c46.8,15.3,76.3,25.2,111,25.2s74-11.9,112.3-27.4
	s96.5-4.6,99.5-1.6v-27V0H1.3z"/>
<g>
	<defs>
		<path id="SVGID_2_" d="M1.3,0v733.5v4.6v29.6c3.3-0.8,50.1-11.6,95.2,3.1c46.8,15.3,76.3,25.2,111,25.2s74-11.9,112.3-27.4
			s96.5-4.6,99.5-1.6v-27V0H1.3z"/>
	</defs>
	<clipPath id="SVGID_3_">
		<use xlink:href="#SVGID_2_"  style="overflow:visible;"/>
	</clipPath>
	<g class="st3">
		
			<linearGradient id="SVGID_4_" gradientUnits="userSpaceOnUse" x1="207.96" y1="-29" x2="207.96" y2="164.6" gradientTransform="matrix(1 0 0 -1 0 798)">
			<stop  offset="0" style="stop-color:#61CBF7"/>
			<stop  offset="1" style="stop-color:#467EF7"/>
		</linearGradient>
		<path class="st4" d="M257.8,633.4h-99.7c-5.6,0-8.6,6.7-4.8,10.8l9.3,10.3c1,1.2,1.6,2.7,1.6,4.2l-0.1,25.6l-0.1,13.3v15.3l0,0
			v9.1v58.9c0,0.2,0,0.5,0,0.7V803c0,13.3,10.7,24,24,24h39.1c13.3,0,24-10.7,24-24v-16.6c0.2-1.8,0.3-3.6,0.3-5.4v-62.5l0.1-33.7
			V683l0.1-12.8v-4.1v-6.8c0-0.1,0-0.3,0-0.4c0-1.6,0.6-3.1,1.7-4.2l9.3-10.3C266.4,640.1,263.5,633.4,257.8,633.4z"/>
		<g>
			<g>
				<path class="st5" d="M189.1,661.7c-0.7,0-1.2-0.6-1.2-1.2v-3.9c0-0.7,0.6-1.2,1.2-1.2c0.7,0,1.2,0.6,1.2,1.2v3.9
					C190.3,661.2,189.8,661.7,189.1,661.7z"/>
				<path class="st5" d="M194.3,666.9c0-0.7,0.6-1.2,1.2-1.2h3.9c0.7,0,1.2,0.6,1.2,1.2c0,0.7-0.6,1.2-1.2,1.2h-3.9
					C194.8,668.2,194.3,667.6,194.3,666.9z"/>
				<path class="st5" d="M192.7,670.6c0.5-0.5,1.3-0.5,1.8,0l2.7,2.7c0.5,0.5,0.5,1.3,0,1.8s-1.3,0.5-1.8,0l-2.7-2.7
					C192.3,671.8,192.3,671,192.7,670.6z"/>
				<path class="st5" d="M185.4,663.2c-0.5,0.5-1.3,0.5-1.8,0l-2.7-2.7c-0.5-0.5-0.5-1.3,0-1.8s1.3-0.5,1.8,0l2.7,2.7
					C185.9,662,185.9,662.7,185.4,663.2z"/>
				<path class="st5" d="M192.7,663.2c-0.5-0.5-0.5-1.3,0-1.8l2.7-2.7c0.5-0.5,1.3-0.5,1.8,0s0.5,1.3,0,1.8l-2.7,2.7
					C194,663.7,193.2,663.7,192.7,663.2z"/>
				<path class="st5" d="M190.3,666.5L190.3,666.5L190.3,666.5L190.3,666.5v-0.2l0,0c0,0,0-0.1-0.1-0.1l0,0
					c-0.1-0.1-0.2-0.3-0.4-0.4l0,0c0,0-0.1,0-0.1-0.1l0,0h-0.1l0,0h-0.1l0,0h-0.1l0,0c-0.1,0-0.2,0-0.2,0h-10.3
					c-0.7,0-1.2,0.6-1.2,1.2c0,0.7,0.6,1.2,1.2,1.2h7.3l-5.2,5.2c-0.5,0.5-0.5,1.3,0,1.8c0.2,0.2,0.6,0.4,0.9,0.4s0.6-0.1,0.9-0.4
					l5.2-5.2v7.3c0,0.7,0.6,1.2,1.2,1.2c0.7,0,1.2-0.6,1.2-1.2v-10.3C190.3,666.8,190.3,666.6,190.3,666.5z"/>
				<path class="st5" d="M207.3,661.9c0.2-0.2,0.5-0.3,0.9-0.3c0.3,0,0.6,0.1,0.9,0.3c0.2,0.2,0.4,0.5,0.4,0.9v8.3
					c0,0.3-0.1,0.6-0.4,0.9c-0.2,0.2-0.5,0.3-0.9,0.3c-0.3,0-0.6-0.1-0.9-0.3c-0.2-0.2-0.4-0.5-0.4-0.9v-8.3
					C207,662.4,207.1,662.1,207.3,661.9z"/>
				<path class="st5" d="M212.8,664h-1c-0.2,0-0.3,0-0.4-0.1s-0.3-0.2-0.4-0.3s-0.2-0.2-0.3-0.4c-0.1-0.1-0.1-0.3-0.1-0.4
					c0-0.2,0-0.3,0.1-0.5s0.2-0.3,0.3-0.4c0.1-0.1,0.2-0.2,0.4-0.3c0.1-0.1,0.3-0.1,0.4-0.1h4.5c0.2,0,0.3,0,0.4,0.1
					c0.1,0.1,0.3,0.2,0.4,0.3c0.1,0.1,0.2,0.2,0.3,0.4s0.1,0.3,0.1,0.5c0,0.1,0,0.3-0.1,0.4c-0.1,0.1-0.2,0.3-0.3,0.4
					c-0.1,0.1-0.2,0.2-0.4,0.3c-0.1,0.1-0.3,0.1-0.4,0.1h-1.1v7.1c0,0.4-0.1,0.6-0.4,0.9c-0.2,0.2-0.5,0.3-0.9,0.3
					c-0.3,0-0.6-0.1-0.9-0.3c-0.2-0.2-0.4-0.5-0.4-0.9V664H212.8z"/>
				<path class="st5" d="M224.8,664.6c-0.2-0.2-0.5-0.3-0.9-0.5c-0.3-0.1-0.6-0.2-1-0.2s-0.8,0.1-1.2,0.3s-0.7,0.4-0.9,0.6
					c-0.3,0.3-0.5,0.6-0.6,0.9c-0.2,0.4-0.2,0.7-0.2,1.1c0,0.4,0.1,0.8,0.3,1.1c0.2,0.3,0.4,0.7,0.7,0.9c0.3,0.3,0.6,0.5,1,0.6
					c0.4,0.2,0.7,0.3,1.1,0.3c0.3,0,0.6-0.1,1-0.2c0.3-0.1,0.6-0.3,0.9-0.5c0.3-0.2,0.5-0.3,0.9-0.3c0.3,0,0.6,0.1,0.9,0.3
					c0.2,0.2,0.4,0.5,0.4,0.9c0,0.3-0.1,0.5-0.2,0.7c-0.1,0.2-0.3,0.3-0.4,0.4c0,0-0.2,0.1-0.3,0.3c-0.2,0.1-0.4,0.3-0.7,0.4
					c-0.3,0.1-0.6,0.3-1,0.4c-0.4,0.1-0.9,0.2-1.4,0.2c-0.7,0-1.4-0.1-2.1-0.4c-0.7-0.3-1.2-0.7-1.7-1.2s-0.9-1.1-1.2-1.7
					c-0.3-0.7-0.4-1.4-0.4-2.1c0-0.7,0.1-1.4,0.4-2.1c0.3-0.7,0.7-1.2,1.2-1.7s1.1-0.9,1.7-1.2c0.7-0.3,1.4-0.4,2.1-0.4
					c0.5,0,1,0.1,1.4,0.2c0.4,0.1,0.7,0.2,1,0.4c0.3,0.1,0.5,0.3,0.7,0.4c0.2,0.1,0.3,0.2,0.3,0.2c0.1,0.1,0.2,0.2,0.4,0.4
					c0.1,0.2,0.2,0.4,0.2,0.7s-0.1,0.6-0.4,0.9c-0.2,0.2-0.5,0.4-0.9,0.4C225.3,664.9,225,664.8,224.8,664.6z"/>
				<path class="st5" d="M238.1,667.7c-0.1,0.4-0.2,0.9-0.4,1.3c-0.3,0.7-0.7,1.2-1.2,1.7s-1.1,0.9-1.7,1.2
					c-0.7,0.3-1.4,0.4-2.1,0.4s-1.4-0.1-2.1-0.4c-0.7-0.3-1.2-0.7-1.7-1.2s-0.9-1.1-1.2-1.7c-0.3-0.7-0.4-1.4-0.4-2.1
					s0.1-1.5,0.4-2.1c0.3-0.7,0.7-1.2,1.2-1.7s1.1-0.9,1.7-1.2c0.7-0.3,1.4-0.4,2.1-0.4c0.5,0,1,0.1,1.4,0.2c0.4,0.1,0.7,0.2,1,0.4
					c0.3,0.1,0.5,0.3,0.7,0.4c0.2,0.1,0.3,0.2,0.3,0.2c0.1,0.1,0.2,0.2,0.4,0.4c0.1,0.2,0.2,0.4,0.2,0.7s-0.1,0.6-0.4,0.9
					c-0.2,0.2-0.5,0.4-0.9,0.4c-0.3,0-0.6-0.1-0.9-0.3c-0.2-0.2-0.5-0.3-0.9-0.5c-0.3-0.1-0.7-0.2-1-0.2c-0.4,0-0.8,0.1-1.1,0.2
					c-0.4,0.2-0.7,0.4-0.9,0.6c-0.3,0.3-0.5,0.6-0.6,1c-0.2,0.4-0.2,0.8-0.2,1.2s0.1,0.8,0.2,1.2c0.2,0.4,0.4,0.7,0.6,0.9
					s0.6,0.5,0.9,0.6c0.4,0.2,0.7,0.2,1.1,0.2c0.5,0,0.9-0.1,1.3-0.3c0.4-0.2,0.7-0.5,1-0.8h-2.1c-0.3,0-0.6-0.1-0.9-0.4
					c-0.2-0.2-0.3-0.5-0.3-0.9c0-0.3,0.1-0.6,0.3-0.9c0.2-0.2,0.5-0.4,0.9-0.4h3.9c0,0,0.4,0,0.8,0.3
					C238,666.9,238.2,667.2,238.1,667.7z"/>
			</g>
		</g>
		<g>
			
				<linearGradient id="SVGID_5_" gradientUnits="userSpaceOnUse" x1="207.286" y1="155.0167" x2="207.286" y2="197.5" gradientTransform="matrix(1 0 0 -1 0 798)">
				<stop  offset="0" style="stop-color:#4625C1"/>
				<stop  offset="1" style="stop-color:#467EF7"/>
			</linearGradient>
			<path class="st6" d="M144.8,606.8c41.4-8.4,83.5-8.4,124.9,0c3.1,0.6,5.3,4.5,4.8,8.5c-0.8,7.1-1.6,14.2-2.4,21.4
				c-0.5,4.1-3.2,6.8-6.1,6.2c-38.9-7.9-78.5-7.9-117.4,0c-2.9,0.6-5.7-2.2-6.1-6.2c-0.8-7.1-1.6-14.2-2.4-21.4
				C139.5,611.3,141.7,607.5,144.8,606.8z"/>
			<g>
				<g>
					
						<linearGradient id="SVGID_6_" gradientUnits="userSpaceOnUse" x1="149.4513" y1="162.7793" x2="149.4513" y2="186.622" gradientTransform="matrix(1 0 0 -1 0 798)">
						<stop  offset="0" style="stop-color:#61CBF7"/>
						<stop  offset="1" style="stop-color:#467EF7"/>
					</linearGradient>
					<path class="st7" d="M145.3,614.3c1.1,6.3,2.2,12.6,3.3,19c0.6,3.2,5.5,2.3,5-0.8c-1-6.3-2-12.7-3-19
						C150.1,610.2,144.8,611.1,145.3,614.3L145.3,614.3z"/>
				</g>
				<g>
					
						<linearGradient id="SVGID_7_" gradientUnits="userSpaceOnUse" x1="168.3508" y1="165.3307" x2="168.3508" y2="189.2892" gradientTransform="matrix(1 0 0 -1 0 798)">
						<stop  offset="0" style="stop-color:#61CBF7"/>
						<stop  offset="1" style="stop-color:#467EF7"/>
					</linearGradient>
					<path class="st8" d="M164.7,611.4c0.8,6.4,1.5,12.7,2.3,19.1c0.4,3.2,5.4,2.6,5-0.6c-0.7-6.4-1.3-12.8-2-19.2
						C169.7,607.6,164.3,608.2,164.7,611.4L164.7,611.4z"/>
				</g>
				<g>
					
						<linearGradient id="SVGID_8_" gradientUnits="userSpaceOnUse" x1="187.3002" y1="166.8447" x2="187.3002" y2="190.9036" gradientTransform="matrix(1 0 0 -1 0 798)">
						<stop  offset="0" style="stop-color:#61CBF7"/>
						<stop  offset="1" style="stop-color:#467EF7"/>
					</linearGradient>
					<path class="st9" d="M184.2,609.7c0.4,6.4,0.8,12.8,1.2,19.2c0.2,3.2,5.2,2.9,5-0.3c-0.3-6.4-0.6-12.8-0.9-19.2
						C189.4,606.1,184,606.4,184.2,609.7L184.2,609.7z"/>
				</g>
				<g>
					
						<linearGradient id="SVGID_9_" gradientUnits="userSpaceOnUse" x1="206.4507" y1="167.3701" x2="206.4507" y2="191.4564" gradientTransform="matrix(1 0 0 -1 0 798)">
						<stop  offset="0" style="stop-color:#61CBF7"/>
						<stop  offset="1" style="stop-color:#467EF7"/>
					</linearGradient>
					<path class="st10" d="M203.8,609c0,6.4,0.1,12.8,0.1,19.3c0,3.2,5,3.2,5.1,0c0-6.4,0.1-12.8,0.1-19.3
						C209.2,605.7,203.8,605.7,203.8,609L203.8,609z"/>
				</g>
				<g>
					
						<linearGradient id="SVGID_10_" gradientUnits="userSpaceOnUse" x1="225.602" y1="166.8447" x2="225.602" y2="190.9044" gradientTransform="matrix(1 0 0 -1 0 798)">
						<stop  offset="0" style="stop-color:#61CBF7"/>
						<stop  offset="1" style="stop-color:#467EF7"/>
					</linearGradient>
					<path class="st11" d="M223.4,609.4c-0.3,6.4-0.6,12.8-0.9,19.2c-0.1,3.2,4.8,3.5,5,0.3c0.4-6.4,0.8-12.8,1.2-19.2
						C228.9,606.4,223.5,606.1,223.4,609.4L223.4,609.4z"/>
				</g>
				<g>
					
						<linearGradient id="SVGID_11_" gradientUnits="userSpaceOnUse" x1="244.554" y1="165.3196" x2="244.554" y2="189.3118" gradientTransform="matrix(1 0 0 -1 0 798)">
						<stop  offset="0" style="stop-color:#61CBF7"/>
						<stop  offset="1" style="stop-color:#467EF7"/>
					</linearGradient>
					<path class="st12" d="M242.9,610.8c-0.7,6.4-1.3,12.8-2,19.2c-0.3,3.2,4.6,3.7,5,0.6c0.8-6.4,1.5-12.7,2.3-19.1
						C248.6,608.2,243.2,607.6,242.9,610.8L242.9,610.8z"/>
				</g>
				<g>
					
						<linearGradient id="SVGID_12_" gradientUnits="userSpaceOnUse" x1="263.4554" y1="162.7629" x2="263.4554" y2="186.6049" gradientTransform="matrix(1 0 0 -1 0 798)">
						<stop  offset="0" style="stop-color:#61CBF7"/>
						<stop  offset="1" style="stop-color:#467EF7"/>
					</linearGradient>
					<path class="st13" d="M262.3,613.4c-1,6.3-2,12.7-3,19c-0.5,3.2,4.4,4,5,0.8c1.1-6.3,2.2-12.6,3.3-19
						C268.2,611.1,262.8,610.2,262.3,613.4L262.3,613.4z"/>
				</g>
			</g>
		</g>
		
			<linearGradient id="SVGID_13_" gradientUnits="userSpaceOnUse" x1="208.2" y1="49.1" x2="208.2" y2="107.7" gradientTransform="matrix(1 0 0 -1 0 798)">
			<stop  offset="0" style="stop-color:#4625C1"/>
			<stop  offset="1" style="stop-color:#467EF7"/>
		</linearGradient>
		<path class="st14" d="M208.2,690.3L208.2,690.3c7.1,0,12.9,5.8,12.9,12.9V736c0,7.1-5.8,12.9-12.9,12.9l0,0
			c-7.1,0-12.9-5.8-12.9-12.9v-32.9C195.4,696,201.1,690.3,208.2,690.3z"/>
		
			<linearGradient id="SVGID_14_" gradientUnits="userSpaceOnUse" x1="208.2" y1="53.2705" x2="208.2" y2="79.4705" gradientTransform="matrix(1 0 0 -1 0 798)">
			<stop  offset="0" style="stop-color:#61CBF7"/>
			<stop  offset="1" style="stop-color:#467EF7"/>
		</linearGradient>
		<path class="st15" d="M208.2,718.5L208.2,718.5c5.1,0,9.3,4.2,9.3,9.3v7.6c0,5.1-4.2,9.3-9.3,9.3l0,0c-5.1,0-9.3-4.2-9.3-9.3v-7.6
			C198.9,722.7,203.1,718.5,208.2,718.5z"/>
		<g>
			<path class="st1" d="M204.9,728.9c0.4,0.4,0.7,1,0.7,1.8c0,0.3,0,0.5,0,0.7c0,0.3,0,0.6,0,0.9c0,0.7-0.3,1.3-0.7,1.8
				s-1.1,0.7-1.9,0.7c-0.8,0-1.5-0.2-1.9-0.7c-0.4-0.5-0.7-1-0.7-1.8c0-0.3,0-0.6,0-0.9c0-0.2,0-0.4,0-0.7c0-0.7,0.3-1.3,0.7-1.8
				c0.4-0.5,1.1-0.7,1.9-0.7C203.8,728.2,204.4,728.4,204.9,728.9z M201.9,729.7c-0.3,0.2-0.4,0.6-0.4,1c0,0.3,0,0.6,0,0.8
				s0,0.5,0,0.8c0,0.4,0.2,0.8,0.4,1c0.3,0.2,0.6,0.4,1,0.4s0.8-0.1,1-0.4c0.3-0.2,0.4-0.6,0.4-1c0-0.1,0-0.4,0-0.8
				c0-0.4,0-0.6,0-0.8c0-0.4-0.2-0.8-0.4-1c-0.2-0.2-0.6-0.4-1-0.4S202.2,729.4,201.9,729.7z"/>
			<path class="st1" d="M211,728.3c0,0,0.1,0.1,0.1,0.2v0.6c0,0.1,0,0.1-0.1,0.2s-0.1,0.1-0.2,0.1h-2.9v1.7h2.7c0.1,0,0.1,0,0.2,0.1
				c0.1,0.1,0.1,0.1,0.1,0.2v0.6c0,0.1,0,0.1-0.1,0.2c0,0-0.1,0.1-0.2,0.1h-2.7v2.1c0,0.1,0,0.1-0.1,0.2c0,0-0.1,0.1-0.2,0.1h-0.7
				c-0.1,0-0.1,0-0.2-0.1c0,0-0.1-0.1-0.1-0.2v-5.8c0-0.1,0-0.1,0.1-0.2c0,0,0.1-0.1,0.2-0.1h3.8C210.9,728.3,211,728.3,211,728.3z"
				/>
			<path class="st1" d="M216.4,728.3c0,0,0.1,0.1,0.1,0.2v0.6c0,0.1,0,0.1-0.1,0.2s-0.1,0.1-0.2,0.1h-2.9v1.7h2.7
				c0.1,0,0.1,0,0.2,0.1c0.1,0.1,0.1,0.1,0.1,0.2v0.6c0,0.1,0,0.1-0.1,0.2c0,0-0.1,0.1-0.2,0.1h-2.7v2.1c0,0.1,0,0.1-0.1,0.2
				c0,0-0.1,0.1-0.2,0.1h-0.7c-0.1,0-0.1,0-0.2-0.1c0,0-0.1-0.1-0.1-0.2v-5.8c0-0.1,0-0.1,0.1-0.2c0,0,0.1-0.1,0.2-0.1h3.8
				C216.3,728.3,216.4,728.3,216.4,728.3z"/>
		</g>
		<path class="st16" d="M245.3,725v50c0,44.7-5.5,42.5-38.4,42.5l0,0"/>
		<path class="st17" d="M190.3,739c0,0,0.4,17,17.9,16"/>
	</g>
</g>
</svg>
