<?xml version="1.0" encoding="utf-8"?>
<!-- Generator: Adobe Illustrator 22.0.1, SVG Export Plug-In . SVG Version: 6.00 Build 0)  -->
<svg version="1.1" xmlns="http://www.w3.org/2000/svg" xmlns:xlink="http://www.w3.org/1999/xlink" x="0px" y="0px"
	 viewBox="0 0 418 801.3" style="enable-background:new 0 0 418 801.3;" xml:space="preserve">
<style type="text/css">
	.st0{fill:url(#SVGID_1_);}
	.st1{fill:#61AAF7;}
	.st2{fill:#6535E4;}
	.st3{fill:#E85419;}
	.st4{fill:#FFFFFF;}
	.st5{fill:#E6E7E9;}
	.st6{fill:#FFFFFF;stroke:#BFCCD3;stroke-width:5;stroke-miterlimit:10;}
	.st7{fill:none;stroke:#BFCCD3;stroke-width:2;stroke-miterlimit:10;}
	.st8{fill:none;stroke:#E85419;stroke-width:5;stroke-miterlimit:10;}
	.st9{fill:none;stroke:#6435E3;stroke-miterlimit:10;}
	.st10{fill:#FF9B24;}
	.st11{fill:#2031A7;}
	.st12{fill:none;stroke:#FFFFFF;stroke-miterlimit:10;}
	.st13{fill:none;stroke:#F6FBFF;stroke-miterlimit:10;}
	.st14{fill:#3537AB;}
	.st15{fill:none;stroke:#3537AB;stroke-width:0.5;stroke-miterlimit:10;}
	.st16{fill:none;stroke:#F5FBFF;stroke-miterlimit:10;}
	.st17{fill:#6C75FF;}
	.st18{fill:#BFCCD3;}
	.st19{fill:#F6FBFF;}
	.st20{fill:#1F9B83;}
	.st21{fill:#53A9F4;}
	.st22{fill:none;stroke:#3F89F2;stroke-miterlimit:10;}
	.st23{fill:none;stroke:#177563;stroke-width:0.5;stroke-miterlimit:10;}
	.st24{fill:#3DC1A7;}
	.st25{fill:none;stroke:#1F9B83;stroke-width:0.5;stroke-miterlimit:10;}
	.st26{fill:#4094D3;}
	.st27{fill:none;stroke:#53A9F4;stroke-width:0.5;stroke-miterlimit:10;}
	.st28{fill:#33313D;}
	.st29{fill:none;stroke:#D9DBE8;stroke-miterlimit:10;}
	.st30{fill:#FF8F55;}
	.st31{fill:#D9DBE8;}
	.st32{fill:#FFFFFF;stroke:#3537AB;stroke-width:0.5;stroke-miterlimit:10;}
	.st33{fill:#4625C1;}
	.st34{fill:none;stroke:#BFCCD3;stroke-width:3;stroke-miterlimit:10;}
	.st35{fill:#C64214;}
	.st36{fill:#F1F2F2;stroke:#BFCCD3;stroke-width:2;stroke-miterlimit:10;}
	.st37{clip-path:url(#SVGID_3_);}
	.st38{fill:none;stroke:#BFCCD3;stroke-miterlimit:10;}
	.st39{opacity:0.19;fill:#BFCCD3;stroke:#F1F2F2;stroke-width:2;stroke-miterlimit:10;}
	.st40{fill:url(#SVGID_4_);}
	.st41{fill:url(#SVGID_5_);}
	.st42{fill:url(#SVGID_6_);}
	.st43{clip-path:url(#SVGID_8_);}
	.st44{fill:url(#SVGID_9_);}
	.st45{fill:url(#SVGID_10_);}
	.st46{fill:url(#SVGID_11_);}
	.st47{fill:url(#SVGID_12_);}
	.st48{fill:#CE4617;}
	.st49{clip-path:url(#SVGID_14_);}
	.st50{fill:none;}
	.st51{fill:none;stroke:#FFFFFF;stroke-width:0.5;stroke-miterlimit:10;}
	.st52{fill:none;stroke:#E6E7E9;stroke-width:0.5;stroke-miterlimit:10;}
	.st53{fill:none;stroke:#61AAF7;stroke-miterlimit:10;}
	.st54{fill:none;stroke:#D9DBE8;stroke-width:0.5;stroke-miterlimit:10;}
	.st55{fill:none;stroke:#6535E4;stroke-width:0.5;stroke-miterlimit:10;}
	.st56{fill:#B2320F;}
	.st57{opacity:0.15;fill:#FFFFFF;}
	.st58{fill:url(#SVGID_15_);}
	.st59{fill:url(#SVGID_16_);}
	.st60{fill:url(#SVGID_17_);}
	.st61{fill:url(#SVGID_18_);}
	.st62{fill:url(#SVGID_19_);}
	.st63{fill:url(#SVGID_20_);}
	.st64{fill:url(#SVGID_21_);}
	.st65{fill:url(#SVGID_22_);}
	.st66{fill:url(#SVGID_23_);}
	.st67{fill:url(#SVGID_24_);}
	.st68{fill:url(#SVGID_25_);}
	.st69{fill:url(#SVGID_26_);}
	.st70{fill:url(#SVGID_27_);}
	.st71{fill:url(#SVGID_28_);}
	.st72{fill:url(#SVGID_29_);}
	.st73{fill:url(#SVGID_30_);}
	.st74{fill:url(#SVGID_31_);}
	.st75{fill:url(#SVGID_32_);}
	.st76{fill:url(#SVGID_33_);}
	.st77{fill:url(#SVGID_34_);}
	.st78{fill:url(#SVGID_35_);}
	.st79{fill:url(#SVGID_36_);}
	.st80{fill:url(#SVGID_37_);}
	.st81{fill:url(#SVGID_38_);}
	.st82{fill:none;stroke:#CE7C24;stroke-width:0.5;stroke-miterlimit:10;}
	.st83{fill:url(#SVGID_39_);}
	.st84{fill:url(#SVGID_40_);}
	.st85{clip-path:url(#SVGID_42_);}
	.st86{fill:url(#SVGID_43_);}
	.st87{fill:url(#SVGID_44_);}
	.st88{fill:url(#SVGID_45_);}
	.st89{fill:url(#SVGID_46_);}
	.st90{fill:url(#SVGID_47_);}
	.st91{fill:url(#SVGID_48_);}
	.st92{fill:url(#SVGID_49_);}
	.st93{fill:url(#SVGID_50_);}
	.st94{fill:url(#SVGID_51_);}
	.st95{fill:url(#SVGID_52_);}
	.st96{fill:url(#SVGID_53_);}
	.st97{clip-path:url(#SVGID_55_);}
	.st98{fill:url(#SVGID_56_);}
	.st99{fill:url(#SVGID_57_);}
	.st100{fill:url(#SVGID_58_);}
	.st101{fill:url(#SVGID_59_);}
	.st102{fill:url(#SVGID_60_);}
	.st103{fill:url(#SVGID_61_);}
	.st104{fill:url(#SVGID_62_);}
	.st105{fill:url(#SVGID_63_);}
	.st106{fill:url(#SVGID_64_);}
	.st107{fill:url(#SVGID_65_);}
	.st108{fill:url(#SVGID_66_);}
</style>
<g id="Layer_1">
</g>
<g id="bg">
	<linearGradient id="SVGID_1_" gradientUnits="userSpaceOnUse" x1="209.0153" y1="795.9009" x2="209.0153" y2="0">
		<stop  offset="0" style="stop-color:#4625C1"/>
		<stop  offset="1" style="stop-color:#467EF7"/>
	</linearGradient>
	<path class="st0" d="M0,0v733.5l0,4.6v29.6c3.3-0.8,50.1-11.6,95.2,3.1c46.8,15.3,76.3,25.2,111,25.2s74-11.9,112.3-27.4
		S415,764,418,767v-27V0H0z"/>
	<g>
		<defs>
			<path id="SVGID_54_" d="M0,0v733.5l0,4.6v29.6c3.3-0.8,50.1-11.6,95.2,3.1c46.8,15.3,76.3,25.2,111,25.2s74-11.9,112.3-27.4
				S415,764,418,767v-27V0H0z"/>
		</defs>
		<clipPath id="SVGID_3_">
			<use xlink:href="#SVGID_54_"  style="overflow:visible;"/>
		</clipPath>
		<g class="st37">
			<linearGradient id="SVGID_4_" gradientUnits="userSpaceOnUse" x1="206.6818" y1="826.9872" x2="206.6818" y2="633.4135">
				<stop  offset="0" style="stop-color:#61CBF7"/>
				<stop  offset="1" style="stop-color:#467EF7"/>
			</linearGradient>
			<path class="st40" d="M256.5,633.4h-99.7c-5.6,0-8.6,6.7-4.8,10.8l9.3,10.3c1,1.2,1.6,2.7,1.6,4.2l-0.1,25.6l-0.1,13.3l0,15.3h0
				v9.1l0,58.9c0,0.2,0,0.5,0,0.7V803c0,13.3,10.7,24,24,24h39.1c13.3,0,24-10.7,24-24v-16.6c0.2-1.8,0.3-3.6,0.3-5.4l0-62.5
				l0.1-33.7l0-1.8l0.1-12.8l0-4.1l0-6.8c0-0.1,0-0.3,0-0.4c0-1.6,0.6-3.1,1.7-4.2l9.3-10.3C265.1,640.1,262.2,633.4,256.5,633.4z"
				/>
			<g>
				<g>
					<path class="st4" d="M187.8,661.7c-0.7,0-1.2-0.6-1.2-1.2v-3.9c0-0.7,0.6-1.2,1.2-1.2c0.7,0,1.2,0.6,1.2,1.2v3.9
						C189,661.2,188.5,661.7,187.8,661.7z"/>
					<path class="st4" d="M193,666.9c0-0.7,0.6-1.2,1.2-1.2h3.9c0.7,0,1.2,0.6,1.2,1.2c0,0.7-0.6,1.2-1.2,1.2h-3.9
						C193.5,668.2,193,667.6,193,666.9z"/>
					<path class="st4" d="M191.4,670.6c0.5-0.5,1.3-0.5,1.8,0l2.7,2.7c0.5,0.5,0.5,1.3,0,1.8c-0.5,0.5-1.3,0.5-1.8,0l-2.7-2.7
						C191,671.8,191,671,191.4,670.6z"/>
					<path class="st4" d="M184.1,663.2c-0.5,0.5-1.3,0.5-1.8,0l-2.7-2.7c-0.5-0.5-0.5-1.3,0-1.8c0.5-0.5,1.3-0.5,1.8,0l2.7,2.7
						C184.6,662,184.6,662.7,184.1,663.2z"/>
					<path class="st4" d="M191.4,663.2c-0.5-0.5-0.5-1.3,0-1.8l2.7-2.7c0.5-0.5,1.3-0.5,1.8,0c0.5,0.5,0.5,1.3,0,1.8l-2.7,2.7
						C192.7,663.7,191.9,663.7,191.4,663.2z"/>
					<path class="st4" d="M189,666.5C189,666.5,189,666.5,189,666.5c0,0,0-0.1,0-0.1c0,0,0,0,0,0c0,0,0-0.1,0-0.1c0,0,0,0,0,0
						c0,0,0-0.1-0.1-0.1c0,0,0,0,0,0c-0.1-0.1-0.2-0.3-0.4-0.4c0,0,0,0,0,0c0,0-0.1,0-0.1-0.1c0,0,0,0,0,0c0,0-0.1,0-0.1,0
						c0,0,0,0,0,0c0,0-0.1,0-0.1,0c0,0,0,0,0,0c0,0-0.1,0-0.1,0h0c-0.1,0-0.2,0-0.2,0h-10.3c-0.7,0-1.2,0.6-1.2,1.2
						c0,0.7,0.6,1.2,1.2,1.2h7.3l-5.2,5.2c-0.5,0.5-0.5,1.3,0,1.8c0.2,0.2,0.6,0.4,0.9,0.4c0.3,0,0.6-0.1,0.9-0.4l5.2-5.2v7.3
						c0,0.7,0.6,1.2,1.2,1.2c0.7,0,1.2-0.6,1.2-1.2v-10.3C189,666.8,189,666.6,189,666.5z"/>
					<path class="st4" d="M206,661.9c0.2-0.2,0.5-0.3,0.9-0.3c0.3,0,0.6,0.1,0.9,0.3c0.2,0.2,0.4,0.5,0.4,0.9v8.3
						c0,0.3-0.1,0.6-0.4,0.9c-0.2,0.2-0.5,0.3-0.9,0.3c-0.3,0-0.6-0.1-0.9-0.3c-0.2-0.2-0.4-0.5-0.4-0.9v-8.3
						C205.7,662.4,205.8,662.1,206,661.9z"/>
					<path class="st4" d="M211.5,664h-1c-0.2,0-0.3,0-0.4-0.1c-0.1-0.1-0.3-0.2-0.4-0.3c-0.1-0.1-0.2-0.2-0.3-0.4
						c-0.1-0.1-0.1-0.3-0.1-0.4c0-0.2,0-0.3,0.1-0.5c0.1-0.2,0.2-0.3,0.3-0.4c0.1-0.1,0.2-0.2,0.4-0.3c0.1-0.1,0.3-0.1,0.4-0.1h4.5
						c0.2,0,0.3,0,0.4,0.1c0.1,0.1,0.3,0.2,0.4,0.3c0.1,0.1,0.2,0.2,0.3,0.4c0.1,0.2,0.1,0.3,0.1,0.5c0,0.1,0,0.3-0.1,0.4
						c-0.1,0.1-0.2,0.3-0.3,0.4c-0.1,0.1-0.2,0.2-0.4,0.3c-0.1,0.1-0.3,0.1-0.4,0.1h-1.1v7.1c0,0.4-0.1,0.6-0.4,0.9
						c-0.2,0.2-0.5,0.3-0.9,0.3c-0.3,0-0.6-0.1-0.9-0.3c-0.2-0.2-0.4-0.5-0.4-0.9V664z"/>
					<path class="st4" d="M223.5,664.6c-0.2-0.2-0.5-0.3-0.9-0.5c-0.3-0.1-0.6-0.2-1-0.2c-0.4,0-0.8,0.1-1.2,0.3
						c-0.4,0.2-0.7,0.4-0.9,0.6c-0.3,0.3-0.5,0.6-0.6,0.9c-0.2,0.4-0.2,0.7-0.2,1.1c0,0.4,0.1,0.8,0.3,1.1c0.2,0.3,0.4,0.7,0.7,0.9
						c0.3,0.3,0.6,0.5,1,0.6c0.4,0.2,0.7,0.3,1.1,0.3c0.3,0,0.6-0.1,1-0.2c0.3-0.1,0.6-0.3,0.9-0.5c0.3-0.2,0.5-0.3,0.9-0.3
						c0.3,0,0.6,0.1,0.9,0.3c0.2,0.2,0.4,0.5,0.4,0.9c0,0.3-0.1,0.5-0.2,0.7c-0.1,0.2-0.3,0.3-0.4,0.4c0,0-0.2,0.1-0.3,0.3
						c-0.2,0.1-0.4,0.3-0.7,0.4c-0.3,0.1-0.6,0.3-1,0.4c-0.4,0.1-0.9,0.2-1.4,0.2c-0.7,0-1.4-0.1-2.1-0.4c-0.7-0.3-1.2-0.7-1.7-1.2
						c-0.5-0.5-0.9-1.1-1.2-1.7c-0.3-0.7-0.4-1.4-0.4-2.1c0-0.7,0.1-1.4,0.4-2.1c0.3-0.7,0.7-1.2,1.2-1.7c0.5-0.5,1.1-0.9,1.7-1.2
						c0.7-0.3,1.4-0.4,2.1-0.4c0.5,0,1,0.1,1.4,0.2c0.4,0.1,0.7,0.2,1,0.4c0.3,0.1,0.5,0.3,0.7,0.4c0.2,0.1,0.3,0.2,0.3,0.2
						c0.1,0.1,0.2,0.2,0.4,0.4c0.1,0.2,0.2,0.4,0.2,0.7c0,0.3-0.1,0.6-0.4,0.9c-0.2,0.2-0.5,0.4-0.9,0.4
						C224,664.9,223.7,664.8,223.5,664.6z"/>
					<path class="st4" d="M236.8,667.7c-0.1,0.4-0.2,0.9-0.4,1.3c-0.3,0.7-0.7,1.2-1.2,1.7c-0.5,0.5-1.1,0.9-1.7,1.2
						c-0.7,0.3-1.4,0.4-2.1,0.4s-1.4-0.1-2.1-0.4c-0.7-0.3-1.2-0.7-1.7-1.2c-0.5-0.5-0.9-1.1-1.2-1.7c-0.3-0.7-0.4-1.4-0.4-2.1
						s0.1-1.5,0.4-2.1c0.3-0.7,0.7-1.2,1.2-1.7c0.5-0.5,1.1-0.9,1.7-1.2c0.7-0.3,1.4-0.4,2.1-0.4c0.5,0,1,0.1,1.4,0.2
						c0.4,0.1,0.7,0.2,1,0.4c0.3,0.1,0.5,0.3,0.7,0.4c0.2,0.1,0.3,0.2,0.3,0.2c0.1,0.1,0.2,0.2,0.4,0.4c0.1,0.2,0.2,0.4,0.2,0.7
						c0,0.3-0.1,0.6-0.4,0.9c-0.2,0.2-0.5,0.4-0.9,0.4c-0.3,0-0.6-0.1-0.9-0.3c-0.2-0.2-0.5-0.3-0.9-0.5c-0.3-0.1-0.7-0.2-1-0.2
						c-0.4,0-0.8,0.1-1.1,0.2c-0.4,0.2-0.7,0.4-0.9,0.6c-0.3,0.3-0.5,0.6-0.6,1c-0.2,0.4-0.2,0.8-0.2,1.2c0,0.4,0.1,0.8,0.2,1.2
						c0.2,0.4,0.4,0.7,0.6,0.9s0.6,0.5,0.9,0.6c0.4,0.2,0.7,0.2,1.1,0.2c0.5,0,0.9-0.1,1.3-0.3c0.4-0.2,0.7-0.5,1-0.8h-2.1
						c-0.3,0-0.6-0.1-0.9-0.4c-0.2-0.2-0.3-0.5-0.3-0.9c0-0.3,0.1-0.6,0.3-0.9c0.2-0.2,0.5-0.4,0.9-0.4h3.9c0,0,0.4,0,0.8,0.3
						C236.7,666.9,236.9,667.2,236.8,667.7z"/>
				</g>
			</g>
			<path class="st50" d="M137.4,584.3c47.5-6.9,95.7-6.9,143.2,0c3.6,0.5,6,3.7,5.5,7c-0.9,5.9-1.9,11.7-2.8,17.6
				c-0.5,3.3-3.7,5.6-7,5.1c-44.6-6.5-90-6.5-134.6,0c-3.4,0.5-6.5-1.8-7-5.1c-0.9-5.9-1.9-11.7-2.8-17.6
				C131.4,588,133.8,584.8,137.4,584.3z"/>
			<g>
				<linearGradient id="SVGID_5_" gradientUnits="userSpaceOnUse" x1="205.9519" y1="643.0215" x2="205.9519" y2="600.554">
					<stop  offset="0" style="stop-color:#4625C1"/>
					<stop  offset="1" style="stop-color:#467EF7"/>
				</linearGradient>
				<path class="st41" d="M143.5,606.8c41.4-8.4,83.5-8.4,124.9,0c3.1,0.6,5.3,4.5,4.8,8.5c-0.8,7.1-1.6,14.2-2.4,21.4
					c-0.5,4.1-3.2,6.8-6.1,6.2c-38.9-7.9-78.5-7.9-117.4,0c-2.9,0.6-5.7-2.2-6.1-6.2c-0.8-7.1-1.6-14.2-2.4-21.4
					C138.2,611.3,140.4,607.5,143.5,606.8z"/>
				<g>
					<g>
						<linearGradient id="SVGID_6_" gradientUnits="userSpaceOnUse" x1="148.1746" y1="635.2207" x2="148.1746" y2="611.378">
							<stop  offset="0" style="stop-color:#61CBF7"/>
							<stop  offset="1" style="stop-color:#467EF7"/>
						</linearGradient>
						<path class="st42" d="M144,614.3c1.1,6.3,2.2,12.6,3.3,19c0.6,3.2,5.5,2.3,5-0.8c-1-6.3-2-12.7-3-19
							C148.8,610.2,143.5,611.1,144,614.3C144,614.3,144,614.3,144,614.3z"/>
					</g>
					<g>
						<linearGradient id="SVGID_8_" gradientUnits="userSpaceOnUse" x1="167.0793" y1="632.6693" x2="167.0793" y2="608.6938">
							<stop  offset="0" style="stop-color:#61CBF7"/>
							<stop  offset="1" style="stop-color:#467EF7"/>
						</linearGradient>
						<path style="fill:url(#SVGID_8_);" d="M163.4,611.4c0.8,6.4,1.5,12.7,2.3,19.1c0.4,3.2,5.4,2.6,5-0.6
							c-0.7-6.4-1.3-12.8-2-19.2C168.4,607.6,163,608.2,163.4,611.4C163.4,611.4,163.4,611.4,163.4,611.4z"/>
					</g>
					<g>
						<linearGradient id="SVGID_9_" gradientUnits="userSpaceOnUse" x1="186.0715" y1="631.1407" x2="186.0715" y2="607.0818">
							<stop  offset="0" style="stop-color:#61CBF7"/>
							<stop  offset="1" style="stop-color:#467EF7"/>
						</linearGradient>
						<path class="st44" d="M182.9,609.7c0.4,6.4,0.8,12.8,1.2,19.2c0.2,3.2,5.2,2.9,5-0.3c-0.3-6.4-0.6-12.8-0.9-19.2
							C188.1,606.1,182.7,606.4,182.9,609.7L182.9,609.7z"/>
					</g>
					<g>
						<linearGradient id="SVGID_10_" gradientUnits="userSpaceOnUse" x1="205.1798" y1="630.6299" x2="205.1798" y2="606.5436">
							<stop  offset="0" style="stop-color:#61CBF7"/>
							<stop  offset="1" style="stop-color:#467EF7"/>
						</linearGradient>
						<path class="st45" d="M202.5,609c0,6.4,0.1,12.8,0.1,19.3c0,3.2,5,3.2,5.1,0c0-6.4,0.1-12.8,0.1-19.3
							C207.9,605.7,202.5,605.7,202.5,609C202.5,609,202.5,609,202.5,609z"/>
					</g>
					<g>
						<linearGradient id="SVGID_11_" gradientUnits="userSpaceOnUse" x1="224.2881" y1="631.1409" x2="224.2881" y2="607.0812">
							<stop  offset="0" style="stop-color:#61CBF7"/>
							<stop  offset="1" style="stop-color:#467EF7"/>
						</linearGradient>
						<path class="st46" d="M222.1,609.4c-0.3,6.4-0.6,12.8-0.9,19.2c-0.1,3.2,4.8,3.5,5,0.3c0.4-6.4,0.8-12.8,1.2-19.2
							C227.6,606.4,222.2,606.1,222.1,609.4L222.1,609.4z"/>
					</g>
					<g>
						<linearGradient id="SVGID_12_" gradientUnits="userSpaceOnUse" x1="243.2798" y1="632.6707" x2="243.2798" y2="608.6922">
							<stop  offset="0" style="stop-color:#61CBF7"/>
							<stop  offset="1" style="stop-color:#467EF7"/>
						</linearGradient>
						<path class="st47" d="M241.6,610.8c-0.7,6.4-1.3,12.8-2,19.2c-0.3,3.2,4.6,3.7,5,0.6c0.8-6.4,1.5-12.7,2.3-19.1
							C247.3,608.2,241.9,607.6,241.6,610.8C241.6,610.8,241.6,610.8,241.6,610.8z"/>
					</g>
					<g>
						<linearGradient id="SVGID_14_" gradientUnits="userSpaceOnUse" x1="262.1846" y1="635.2203" x2="262.1846" y2="611.3795">
							<stop  offset="0" style="stop-color:#61CBF7"/>
							<stop  offset="1" style="stop-color:#467EF7"/>
						</linearGradient>
						<path style="fill:url(#SVGID_14_);" d="M261,613.4c-1,6.3-2,12.7-3,19c-0.5,3.2,4.4,4,5,0.8c1.1-6.3,2.2-12.6,3.3-19
							C266.9,611.1,261.5,610.2,261,613.4C261,613.4,261,613.4,261,613.4z"/>
					</g>
				</g>
			</g>
			<linearGradient id="SVGID_15_" gradientUnits="userSpaceOnUse" x1="206.942" y1="748.8949" x2="206.942" y2="690.2562">
				<stop  offset="0" style="stop-color:#4625C1"/>
				<stop  offset="1" style="stop-color:#467EF7"/>
			</linearGradient>
			<path class="st58" d="M206.9,690.3L206.9,690.3c7.1,0,12.9,5.8,12.9,12.9V736c0,7.1-5.8,12.9-12.9,12.9h0
				c-7.1,0-12.9-5.8-12.9-12.9v-32.9C194.1,696,199.8,690.3,206.9,690.3z"/>
			<linearGradient id="SVGID_16_" gradientUnits="userSpaceOnUse" x1="206.9419" y1="744.7295" x2="206.9419" y2="718.5472">
				<stop  offset="0" style="stop-color:#61CBF7"/>
				<stop  offset="1" style="stop-color:#467EF7"/>
			</linearGradient>
			<path class="st59" d="M206.9,718.5L206.9,718.5c5.1,0,9.3,4.2,9.3,9.3v7.6c0,5.1-4.2,9.3-9.3,9.3h0c-5.1,0-9.3-4.2-9.3-9.3v-7.6
				C197.6,722.7,201.8,718.5,206.9,718.5z"/>
			<g>
				<path class="st33" d="M203.6,728.9c0.4,0.4,0.7,1,0.7,1.8c0,0.3,0,0.5,0,0.7c0,0.3,0,0.6,0,0.9c0,0.7-0.3,1.3-0.7,1.8
					c-0.4,0.5-1.1,0.7-1.9,0.7s-1.5-0.2-1.9-0.7c-0.4-0.5-0.7-1-0.7-1.8c0-0.3,0-0.6,0-0.9c0-0.2,0-0.4,0-0.7c0-0.7,0.3-1.3,0.7-1.8
					c0.4-0.5,1.1-0.7,1.9-0.7S203.1,728.4,203.6,728.9z M200.6,729.7c-0.3,0.2-0.4,0.6-0.4,1c0,0.3,0,0.6,0,0.8c0,0.2,0,0.5,0,0.8
					c0,0.4,0.2,0.8,0.4,1c0.3,0.2,0.6,0.4,1,0.4s0.8-0.1,1-0.4c0.3-0.2,0.4-0.6,0.4-1c0-0.1,0-0.4,0-0.8c0-0.4,0-0.6,0-0.8
					c0-0.4-0.2-0.8-0.4-1s-0.6-0.4-1-0.4S200.9,729.4,200.6,729.7z"/>
				<path class="st33" d="M209.7,728.3c0,0,0.1,0.1,0.1,0.2v0.6c0,0.1,0,0.1-0.1,0.2s-0.1,0.1-0.2,0.1h-2.9v1.7h2.7
					c0.1,0,0.1,0,0.2,0.1s0.1,0.1,0.1,0.2v0.6c0,0.1,0,0.1-0.1,0.2c0,0-0.1,0.1-0.2,0.1h-2.7v2.1c0,0.1,0,0.1-0.1,0.2
					c0,0-0.1,0.1-0.2,0.1h-0.7c-0.1,0-0.1,0-0.2-0.1c0,0-0.1-0.1-0.1-0.2v-5.8c0-0.1,0-0.1,0.1-0.2c0,0,0.1-0.1,0.2-0.1h3.8
					C209.6,728.3,209.7,728.3,209.7,728.3z"/>
				<path class="st33" d="M215.1,728.3c0,0,0.1,0.1,0.1,0.2v0.6c0,0.1,0,0.1-0.1,0.2s-0.1,0.1-0.2,0.1h-2.9v1.7h2.7
					c0.1,0,0.1,0,0.2,0.1s0.1,0.1,0.1,0.2v0.6c0,0.1,0,0.1-0.1,0.2c0,0-0.1,0.1-0.2,0.1h-2.7v2.1c0,0.1,0,0.1-0.1,0.2
					c0,0-0.1,0.1-0.2,0.1h-0.7c-0.1,0-0.1,0-0.2-0.1c0,0-0.1-0.1-0.1-0.2v-5.8c0-0.1,0-0.1,0.1-0.2c0,0,0.1-0.1,0.2-0.1h3.8
					C215,728.3,215.1,728.3,215.1,728.3z"/>
			</g>
			<path class="st51" d="M244,725v50c0,44.7-5.5,42.5-38.4,42.5h0"/>
			<path class="st15" d="M189,739c0,0,0.4,17,17.9,16"/>
		</g>
	</g>
</g>
</svg>
