<?xml version="1.0" encoding="utf-8"?>
<!-- Generator: Adobe Illustrator 22.0.1, SVG Export Plug-In . SVG Version: 6.00 Build 0)  -->
<svg version="1.1" id="bg" xmlns="http://www.w3.org/2000/svg" xmlns:xlink="http://www.w3.org/1999/xlink" x="0px" y="0px"
	 viewBox="0 0 100 100" style="enable-background:new 0 0 100 100;" xml:space="preserve">
<style type="text/css">
	.st0{fill:#FFFFFF;}
	.st1{fill:none;stroke:#FFFFFF;stroke-width:2.5;stroke-miterlimit:10;}
</style>
<g>
	<g>
		<g>
			<rect x="26.2" y="45.8" class="st1" width="7" height="14.1"/>
			<rect x="38.6" y="40.3" class="st1" width="7" height="19.5"/>
			<rect x="51" y="32.2" class="st1" width="7" height="27.6"/>
			<rect x="63.3" y="23.9" class="st1" width="7" height="36"/>
			<path class="st1" d="M25.2,38.4c0,0,26.7-9.1,35.8-26.3"/>
			<polyline class="st1" points="54.2,13 63.4,8.6 62.8,18.4 			"/>
		</g>
	</g>
	<g>
		<g>
			<g>
				<g>
					<path class="st1" d="M76.3,19.7h8.5c3.4,0,6.1,2.7,6.1,6.1v41.7c0,3.4-2.7,6.1-6.1,6.1H13c-3.4,0-6.1-2.7-6.1-6.1V25.8
						c0-3.4,2.7-6.1,6.1-6.1h33.1"/>
				</g>
				<path class="st1" d="M4.6,79.2c0,3.4,2,8.2,4.4,8.2H90c2.4,0,4.4-4.8,4.4-8.2H60.3c-0.9,0-1.6,0.5-1.6,1.2
					c0,0.7-0.7,1.2-1.6,1.2H41.8c-0.9,0-1.6-0.5-1.6-1.2c0-0.7-0.7-1.2-1.6-1.2H4.6z"/>
			</g>
		</g>
	</g>
	<g>
		<polyline class="st1" points="76.6,26.2 84.3,26.2 84.3,67 13.4,67 13.4,26.2 36.5,26.2 		"/>
	</g>
</g>
</svg>
