<?xml version="1.0" encoding="utf-8"?>
<!-- Generator: Adobe Illustrator 22.0.1, SVG Export Plug-In . SVG Version: 6.00 Build 0)  -->
<svg version="1.1" id="Layer_1" xmlns="http://www.w3.org/2000/svg" xmlns:xlink="http://www.w3.org/1999/xlink" x="0px" y="0px"
	 viewBox="0 0 600 600" style="enable-background:new 0 0 600 600;" xml:space="preserve">
<style type="text/css">
	.st0{fill:none;stroke:#424243;stroke-width:3;stroke-linecap:round;stroke-linejoin:round;stroke-miterlimit:10;}
</style>
<g>
	<g>
		<g>
			<rect x="274" y="142.5" class="st0" width="9.1" height="18.1"/>
			<rect x="290" y="135.5" class="st0" width="9.1" height="25.2"/>
			<rect x="306" y="125" class="st0" width="9.1" height="35.6"/>
			<rect x="322" y="114.3" class="st0" width="9.1" height="46.4"/>
			<path class="st0" d="M272.8,133c0,0,34.4-11.8,46.1-33.9"/>
			<polyline class="st0" points="310.2,100.3 322,94.6 321.3,107.3 			"/>
		</g>
	</g>
	<g>
		<g>
			<g>
				<g>
					<path class="st0" d="M338.7,108.9h10.9c4.3,0,7.8,3.5,7.8,7.8v53.8c0,4.3-3.5,7.8-7.8,7.8H257c-4.3,0-7.8-3.5-7.8-7.8v-53.8
						c0-4.3,3.5-7.8,7.8-7.8h42.7"/>
				</g>
				<path class="st0" d="M246.2,185.6c0,4.4,2.6,10.5,5.7,10.5h104.4c3.2,0,5.7-6.1,5.7-10.5h-43.9c-1.1,0-2,0.7-2,1.6
					c0,0.9-0.9,1.6-2,1.6h-19.8c-1.1,0-2-0.7-2-1.6c0-0.9-0.9-1.6-2-1.6H246.2z"/>
			</g>
		</g>
	</g>
	<g>
		<polyline class="st0" points="339.2,117.3 349,117.3 349,169.9 257.6,169.9 257.6,117.3 287.4,117.3 		"/>
	</g>
</g>
</svg>
