<?xml version="1.0" encoding="utf-8"?>
<!-- Generator: Adobe Illustrator 22.0.1, SVG Export Plug-In . SVG Version: 6.00 Build 0)  -->
<svg version="1.1" xmlns="http://www.w3.org/2000/svg" xmlns:xlink="http://www.w3.org/1999/xlink" x="0px" y="0px"
	 viewBox="0 0 1920 836.7" style="enable-background:new 0 0 1920 836.7;" xml:space="preserve">
<style type="text/css">
	.st0{fill:#AA2F00;}
	.st1{fill:url(#SVGID_1_);}
	.st2{clip-path:url(#SVGID_3_);}
	.st3{fill:none;}
	.st4{clip-path:url(#SVGID_5_);}
	.st5{fill:#E5E5E5;}
	.st6{opacity:0.71;}
	.st7{fill:url(#SVGID_8_);}
	.st8{clip-path:url(#SVGID_10_);}
	.st9{fill:#4625C1;}
	.st10{fill:url(#SVGID_11_);}
	.st11{fill:#61AAF7;}
	.st12{fill:#6535E4;}
	.st13{fill:#E85419;}
	.st14{fill:#FFFFFF;}
	.st15{fill:#E6E7E9;}
	.st16{fill:#FFFFFF;stroke:#BFCCD3;stroke-width:5;stroke-miterlimit:10;}
	.st17{fill:none;stroke:#BFCCD3;stroke-width:2;stroke-miterlimit:10;}
	.st18{fill:none;stroke:#E85419;stroke-width:5;stroke-miterlimit:10;}
	.st19{fill:none;stroke:#6435E3;stroke-miterlimit:10;}
	.st20{fill:#FF9B24;}
	.st21{fill:#2031A7;}
	.st22{fill:none;stroke:#FFFFFF;stroke-miterlimit:10;}
	.st23{fill:none;stroke:#F6FBFF;stroke-miterlimit:10;}
	.st24{fill:#3537AB;}
	.st25{fill:none;stroke:#3537AB;stroke-width:0.5;stroke-miterlimit:10;}
	.st26{fill:none;stroke:#F5FBFF;stroke-miterlimit:10;}
	.st27{fill:#6C75FF;}
	.st28{fill:#BFCCD3;}
	.st29{fill:#F6FBFF;}
	.st30{fill:#1F9B83;}
	.st31{fill:#53A9F4;}
	.st32{fill:none;stroke:#3F89F2;stroke-miterlimit:10;}
	.st33{fill:none;stroke:#177563;stroke-width:0.5;stroke-miterlimit:10;}
	.st34{fill:#3DC1A7;}
	.st35{fill:none;stroke:#1F9B83;stroke-width:0.5;stroke-miterlimit:10;}
	.st36{fill:none;stroke:#53A9F4;stroke-width:0.5;stroke-miterlimit:10;}
	.st37{fill:#FFFFFF;stroke:#3537AB;stroke-width:0.5;stroke-miterlimit:10;}
	.st38{fill:#33313D;}
	.st39{fill:none;stroke:#D9DBE8;stroke-miterlimit:10;}
	.st40{fill:#4094D3;}
	.st41{fill:#D9DBE8;}
	.st42{fill:none;stroke:#BFCCD3;stroke-width:3;stroke-miterlimit:10;}
	.st43{fill:#F1F2F2;stroke:#BFCCD3;stroke-width:2;stroke-miterlimit:10;}
	.st44{opacity:0.19;fill:#BFCCD3;stroke:#F1F2F2;stroke-width:2;stroke-miterlimit:10;}
	.st45{fill:url(#SVGID_12_);}
	.st46{fill:url(#SVGID_13_);}
	.st47{fill:url(#SVGID_14_);}
	.st48{clip-path:url(#SVGID_16_);}
	.st49{fill:none;stroke:#BFCCD3;stroke-miterlimit:10;}
	.st50{fill:url(#SVGID_17_);}
	.st51{fill:url(#SVGID_18_);}
	.st52{fill:url(#SVGID_19_);}
	.st53{fill:url(#SVGID_20_);}
	.st54{fill:#CE4617;}
	.st55{clip-path:url(#SVGID_22_);}
	.st56{fill:none;stroke:#FFFFFF;stroke-width:0.5;stroke-miterlimit:10;}
	.st57{fill:none;stroke:#E6E7E9;stroke-width:0.5;stroke-miterlimit:10;}
	.st58{fill:none;stroke:#61AAF7;stroke-miterlimit:10;}
	.st59{fill:none;stroke:#D9DBE8;stroke-width:0.5;stroke-miterlimit:10;}
	.st60{fill:none;stroke:#6535E4;stroke-width:0.5;stroke-miterlimit:10;}
	.st61{fill:url(#SVGID_23_);}
	.st62{fill:url(#SVGID_24_);}
	.st63{fill:url(#SVGID_25_);}
	.st64{fill:url(#SVGID_26_);}
	.st65{fill:url(#SVGID_27_);}
	.st66{fill:url(#SVGID_28_);}
	.st67{fill:url(#SVGID_29_);}
	.st68{fill:url(#SVGID_30_);}
	.st69{fill:url(#SVGID_31_);}
	.st70{fill:none;stroke:#CE7C24;stroke-width:0.5;stroke-miterlimit:10;}
	.st71{fill:url(#SVGID_32_);}
	.st72{fill:url(#SVGID_33_);}
	.st73{fill:url(#SVGID_34_);}
	.st74{clip-path:url(#SVGID_36_);}
	.st75{fill:url(#SVGID_37_);}
	.st76{fill:url(#SVGID_38_);}
	.st77{fill:url(#SVGID_39_);}
	.st78{fill:url(#SVGID_40_);}
	.st79{fill:url(#SVGID_41_);}
	.st80{fill:url(#SVGID_42_);}
	.st81{fill:url(#SVGID_43_);}
	.st82{fill:url(#SVGID_44_);}
	.st83{fill:url(#SVGID_45_);}
	.st84{fill:url(#SVGID_46_);}
	.st85{fill:url(#SVGID_47_);}
	.st86{opacity:0.1;clip-path:url(#SVGID_49_);}
	.st87{fill:url(#SVGID_50_);}
	.st88{opacity:0.1;clip-path:url(#SVGID_52_);}
	.st89{clip-path:url(#SVGID_54_);}
	.st90{fill:url(#SVGID_55_);}
	.st91{fill:url(#SVGID_56_);}
	.st92{fill:url(#SVGID_57_);}
	.st93{fill:url(#SVGID_58_);}
	.st94{fill:url(#SVGID_59_);}
	.st95{fill:url(#SVGID_60_);}
	.st96{fill:url(#SVGID_61_);}
	.st97{fill:url(#SVGID_62_);}
	.st98{fill:url(#SVGID_63_);}
	.st99{fill:url(#SVGID_64_);}
	.st100{fill:url(#SVGID_65_);}
	.st101{fill:url(#SVGID_66_);}
	.st102{fill:url(#SVGID_67_);}
	.st103{fill:url(#SVGID_68_);}
	.st104{fill:url(#SVGID_69_);}
	.st105{clip-path:url(#SVGID_71_);}
	.st106{fill:url(#SVGID_72_);}
	.st107{fill:url(#SVGID_73_);}
	.st108{fill:url(#SVGID_74_);}
	.st109{fill:url(#SVGID_75_);}
	.st110{fill:url(#SVGID_76_);}
	.st111{fill:url(#SVGID_77_);}
	.st112{fill:url(#SVGID_78_);}
	.st113{fill:url(#SVGID_79_);}
	.st114{fill:url(#SVGID_80_);}
	.st115{fill:url(#SVGID_81_);}
	.st116{fill:url(#SVGID_82_);}
	.st117{fill:url(#SVGID_83_);}
	.st118{fill:url(#SVGID_84_);}
	.st119{fill:url(#SVGID_85_);}
	.st120{fill:url(#SVGID_86_);}
	.st121{fill:url(#SVGID_87_);}
	.st122{fill:url(#SVGID_88_);}
	.st123{fill:#B2320F;}
	.st124{opacity:0.15;fill:#FFFFFF;}
	.st125{fill:url(#SVGID_89_);}
	.st126{fill:url(#SVGID_90_);}
	.st127{fill:url(#SVGID_91_);}
	.st128{fill:url(#SVGID_92_);}
	.st129{fill:url(#SVGID_93_);}
	.st130{clip-path:url(#SVGID_95_);}
	.st131{fill:url(#SVGID_96_);}
	.st132{fill:url(#SVGID_97_);}
	.st133{fill:url(#SVGID_98_);}
	.st134{fill:url(#SVGID_99_);}
	.st135{fill:url(#SVGID_100_);}
	.st136{fill:url(#SVGID_101_);}
	.st137{fill:url(#SVGID_102_);}
	.st138{fill:url(#SVGID_103_);}
	.st139{fill:url(#SVGID_104_);}
	.st140{fill:url(#SVGID_105_);}
	.st141{fill:url(#SVGID_106_);}
	.st142{clip-path:url(#SVGID_108_);}
</style>
<g id="Layer_1">
</g>
<g id="Layer_3">
	<linearGradient id="SVGID_1_" gradientUnits="userSpaceOnUse" x1="960" y1="836.7477" x2="960" y2="0">
		<stop  offset="0" style="stop-color:#BC3B0D"/>
		<stop  offset="1" style="stop-color:#E85419"/>
	</linearGradient>
	<path class="st1" d="M0,607.8c0,0,124.4,160.5,261,198c136.5,37.5,241.5,52.5,630-22.5s820.5,22.5,1029-159V0L0,0V607.8z"/>
	<g>
		<defs>
			<path id="SVGID_2_" d="M0,607.8c0,0,124.4,160.5,261,198c136.5,37.5,241.5,52.5,630-22.5s820.5,22.5,1029-159V0L0,0V607.8z"/>
		</defs>
		<clipPath id="SVGID_3_">
			<use xlink:href="#SVGID_2_"  style="overflow:visible;"/>
		</clipPath>
		<g class="st2">
			<path class="st0" d="M63.9,316.9L63.9,316.9c-19.9,14.8-48.1,10.7-63-9.3l-53.7-72.2c-14.8-19.9-10.7-48.1,9.3-63l0,0
				c19.9-14.8,48.1-10.7,63,9.3l53.7,72.2C88,273.8,83.8,302,63.9,316.9z"/>
			<path class="st0" d="M-43.1,409L-43.1,409c0-12.8,10.4-23.2,23.2-23.2h43.5c12.8,0,23.2,10.4,23.2,23.2v0
				c0,12.8-10.4,23.2-23.2,23.2h-43.5C-32.7,432.2-43.1,421.8-43.1,409z"/>
			<path class="st0" d="M126.2,410.7L126.2,410.7c4.1-5.2,11.6-6,16.8-1.9l17.5,13.9c5.2,4.1,6,11.6,1.9,16.8l0,0
				c-4.1,5.2-11.6,6-16.8,1.9l-17.5-13.9C123,423.3,122.1,415.8,126.2,410.7z"/>
			<path class="st0" d="M92.7,504.6L92.7,504.6c2.4-3,6.7-3.5,9.7-1.1l2.4,1.9c3,2.4,3.5,6.7,1.1,9.7h0c-2.4,3-6.7,3.5-9.7,1.1
				l-2.4-1.9C90.8,512,90.3,507.6,92.7,504.6z"/>
			<path class="st0" d="M252.2,442.6L252.2,442.6c2.4-3,6.7-3.5,9.7-1.1l2.4,1.9c3,2.4,3.5,6.7,1.1,9.7l0,0c-2.4,3-6.7,3.5-9.7,1.1
				l-2.4-1.9C250.3,450,249.8,445.6,252.2,442.6z"/>
		</g>
		<g class="st2">
			<path class="st0" d="M1852.5,257.2L1852.5,257.2c17.8,17.8,46.6,18,64.3,0.4l63.9-63.5c17.6-17.5,17.5-46.1-0.4-63.9v0
				c-17.8-17.8-46.6-18-64.3-0.4l-63.9,63.5C1834.5,210.8,1834.7,239.4,1852.5,257.2z"/>
			<path class="st0" d="M1946.5,364.9L1946.5,364.9c1.8-12.7-7.1-24.7-20-26.6l-43.5-6.7c-12.8-2-24.7,6.8-26.5,19.5v0
				c-1.8,12.7,7.1,24.7,20,26.6l43.5,6.7C1932.8,386.4,1944.7,377.7,1946.5,364.9z"/>
			<path class="st0" d="M1776.9,340.7L1776.9,340.7c-3.4-5.8-10.8-7.8-16.5-4.5l-19.5,11.1c-5.7,3.3-7.7,10.6-4.3,16.4v0
				c3.4,5.8,10.8,7.8,16.5,4.5l19.5-11.1C1778.4,353.8,1780.3,346.5,1776.9,340.7z"/>
			<path class="st0" d="M1797.2,439.1L1797.2,439.1c-2-3.3-6.2-4.5-9.6-2.6l-2.6,1.5c-3.3,1.9-4.4,6.1-2.5,9.5v0
				c2,3.3,6.2,4.5,9.6,2.6l2.6-1.5C1798,446.7,1799.1,442.4,1797.2,439.1z"/>
			<path class="st0" d="M1646.5,353.2L1646.5,353.2c-2-3.3-6.2-4.5-9.6-2.6l-2.6,1.5c-3.3,1.9-4.4,6.1-2.5,9.5l0,0
				c2,3.3,6.2,4.5,9.6,2.6l2.6-1.5C1647.3,360.8,1648.4,356.5,1646.5,353.2z"/>
		</g>
	</g>
	<path class="st3" d="M0,607.8c0,0,124.4,160.5,261,198c136.5,37.5,241.5,52.5,630-22.5s820.5,22.5,1029-159V0L0,0V607.8z"/>
</g>
<g id="bg">
	<g>
		<path class="st123" d="M368.4,510.5c-31.7,4.1-51.5,9.9-51.5,16.3c0,6.9,22.8,13.1,58.6,17.2L368.4,510.5z"/>
		<path class="st123" d="M578.1,509.1l-8,36.2c43.2-4,71.6-10.8,71.6-18.5C641.7,519.6,616.7,513.2,578.1,509.1z"/>
	</g>
	<path class="st124" d="M216,0l178.5,648.1c17.5-5.4,35.5-8.2,53.5-9.1c25-1,49-8,74-5c10.1,1.2,20.4,2.4,30.7,4.3L737.1,0H216z"/>
	<path class="st14" d="M259.7,0l139.7,656.8c47.7-14.1,99.2-13.5,146.2-0.7L690.9,0H259.7z"/>
	<path class="st15" d="M570.1,545.3l8-36.2c-27.4-2.9-61.6-4.6-98.8-4.6c-42.9,0-81.9,2.3-110.9,6l7.1,33.4
		c28.1,3.2,64.3,5.2,103.8,5.2C512.9,549.1,544.1,547.7,570.1,545.3z"/>
	<g>
		<path class="st15" d="M546.1,449.9c-2.5-5-8.2-12.1-13.7-18.7c-1.1,0-2.1,0-3-0.1l0.5-0.3c0,0-10.2-85.3-10.2-85.4
			c-4.6-2.3-27.8-13.2-63.2-12.5c-0.2-0.3-0.3-0.5-0.5-0.8c-11.9-15.4-15.6-26.5-14.7-34.8c0.3,0,0.6,0.1,0.9,0.2
			c7.3,1,13.9,0.9,19.7,0.1l12.7,2.2l0.4-3.2l4.2,5.7l10.8-4.6l-1.3-4.3l15.8,2.7l0.7-5.9c0.6,1.1,3.2,1.2,3.1-1.7l2.8,1.3l11.1-3.5
			c4.2,1.1,8.9-0.1,11.6-3.8c0.6-0.9,0.3-1.8-0.4-2.3c2.5-2.8,3.1-6.4,1.3-8c-0.3-0.2-0.5-0.4-0.8-0.5c-0.4-0.2-0.8-0.4-1.3-0.4
			c-0.2,0-0.3,0-0.5,0.1c-0.1-0.1-0.2-0.3-0.3-0.4l-1.3-2.4c0.4-0.4,0.8-0.7,1.2-1c1.8-1.2-0.2-3.9-2-2.7c-0.3,0.2-0.6,0.4-0.9,0.7
			l-0.1-0.2l-3.8-12.3l-10.9,1.6l-4-7l-7.9-0.1l-0.9-5.4c0,0-10.5-2.6-11-2.6c-0.4,0-3.9,0.5-7.6,1c-0.6,0.1-1.2,0.1-1.9,0.1
			c3-3,12.6-13.4,17.9-28.2c2.4,0.1,4.5-0.3,4.8-1.4c0-0.2-0.2-0.5-0.7-0.9c-0.6-0.6-1.5-1.3-2.7-2c0.3-1,0.5-2.1,0.8-3.1
			c3.2-1,6.5-3.5,5.3-9.2l-4.1-0.4c0.1-1.5,0.1-3,0-4.5c-0.1-3.4-1.2-11.7-2.3-16.3c0,0,0,0,0,0s7.6-8-10.2-13.7
			c-17.8-5.7-33.9,0.2-29.6,12.3c-2.9,7.3-4.2,22-4.3,23.7c-1.6,0.8-2.8,2.3-3,4.1c-0.4,2.3,0.8,4.5,2.8,5.6l-0.4,0
			c0.6,0.3,1.2,0.5,1.7,0.5c0,0,0.1,0,0.1,0c0.8,8.5,3.7,18.2,9.3,30.7l-0.7,4c-1,0.7-2.1,1.5-3.1,2.1c-5.1-0.7-10.2-0.6-15.3,0.1
			l1.6-1.2l-6.9-7.3l-10.2-3.1l-9.4,7.9l8.7,2.3l7.3,3.2c-75.9,19.5-45.8,108.3-45.8,108.3l1.4-0.1c5.4,10.2,24.9,45,51.9,69.5
			c0,0-21.4,33.4-27.4,75.3c0,0-0.1,0-0.1,0c-0.7,3.2-0.7,9.7-0.7,9.7s13.3,1.1,28.1,0c1.4-0.1,1.9-2,0.6-2.7
			c-4-2.4-10.8-6-17.5-7.7c-1.7,0.1-3.4,0.2-5.1,0.3c2.6-5.1,25.6-49.7,39.2-75c0,0-2.9-22-10.2-46.6c-0.6-2-1.2-3.8-1.7-5.5
			c15.8-0.9,36.2-3.2,55.5-8.9c1.1,12.5,5,40.7,17.9,68.5c-0.3,0-0.5,0-0.8,0c-1.4,1.9-2.5,3.7-2.5,3.7s10.6,9.6,22.9,17.2
			C545.3,452.5,546.8,451.2,546.1,449.9z"/>
		<path class="st15" d="M507.8,242.7l8.8,5.3C514.4,242.5,507.8,242.7,507.8,242.7z"/>
		<path class="st15" d="M512.9,240.8l6,5.2C517.8,241.5,512.9,240.8,512.9,240.8z"/>
		<path class="st15" d="M401.5,200.1l8.8,5.3C408.2,199.9,401.5,200.1,401.5,200.1z"/>
		<path class="st15" d="M411.5,230.4l-6.7-4.2C406.6,230.5,411.5,230.4,411.5,230.4z"/>
		<path class="st15" d="M439.5,232.1l6.9,3.9C444.4,231.9,439.5,232.1,439.5,232.1z"/>
		<path class="st15" d="M395.9,251.9l-7.1-3.5C391.1,252.4,395.9,251.9,395.9,251.9z"/>
		<path class="st15" d="M425,243.5l-7.1-3.5C420.1,244,425,243.5,425,243.5z"/>
		<path class="st15" d="M469.7,302.6c0,0,7.7,5.5,14.8,0.8L469.7,302.6z"/>
		<path class="st15" d="M480.8,307l-8.5-1.7C472.3,305.4,476.7,308.9,480.8,307z"/>
		<polygon class="st15" points="401.5,214.3 405.6,207.5 396.4,203.5 385.8,204.6 380.3,215.5 389.2,214.3 		"/>
		<polygon class="st15" points="397.5,250.6 409.2,246.9 402.1,241.4 393.5,232.6 385.8,234.4 389.3,243.8 		"/>
	</g>
	<polygon class="st30" points="502.3,311.5 509.3,321 520.1,316.4 517.4,307 	"/>
	<polygon class="st30" points="514.7,311.4 534.7,314.8 535.7,306 516.6,303.2 	"/>
	<polygon class="st30" points="484.8,315.1 504.7,318.5 505.7,309.6 486.6,306.9 	"/>
	<path class="st20" d="M561.3,299.2c-2.3,3.1-6.3,3.6-9.7,2c-2-0.9-3.2,2.2-1.3,3.1c4.7,2.1,10.4,1.2,13.6-3.1
		C565.2,299.5,562.6,297.5,561.3,299.2L561.3,299.2z"/>
	<path class="st20" d="M561.9,286.2c1.8-1.2-0.2-3.9-2-2.7c-1.7,1.2-3.1,2.8-4.1,4.6c0.9,0.6,1.8,1.3,2.8,2
		C559.3,288.6,560.5,287.2,561.9,286.2z"/>
	<ellipse transform="matrix(0.669 -0.7433 0.7433 0.669 -34.6302 514.4339)" class="st20" cx="560.2" cy="296.1" rx="7" ry="4.4"/>
	<path class="st31" d="M559.3,288.8c0,0,0.2,1.8,2,1.7l-5.5,6.2c0,0-2-2.8,0.2-8.5"/>
	<path class="st12" d="M500.3,265.5c-6.6,0.8-12,2.3-16.4,4.6c3.1,3,6.1,6.1,9.5,9.1c0.9,0.7,1.8,1.4,2.7,2.2c4.6-0.2,9.6-0.1,15-1
		c22.7-4,40.1,10.1,45.4,15.1c0.7,0.7,1.9,0.4,2.3-0.5c0.2-0.5,0.4-1,0.7-1.5c1.6-2.4,3.3-2.6,3.3-2.6
		C562.5,290.5,545.1,260.2,500.3,265.5z"/>
	<linearGradient id="SVGID_5_" gradientUnits="userSpaceOnUse" x1="492.3167" y1="517.7236" x2="492.3167" y2="351.6308">
		<stop  offset="0" style="stop-color:#4625C1"/>
		<stop  offset="1" style="stop-color:#33313D"/>
	</linearGradient>
	<path style="fill:url(#SVGID_5_);" d="M549.8,364.2c-5.3-2.7-35.6-16.9-80.8-11.2l-5,11.7l-41.3,5.2c0,0,21.5,43.5,53.4,72.4
		c0,0-21.5,33.5-27.4,75.4h5c0,0,25-48.6,39.4-75.5c0,0-3.4-25.5-12-52.1c15.8-0.9,36.2-3.2,55.5-8.9c1.2,12.9,5.2,42.5,19.2,71.1
		l6.1-2.4C561.9,450,549.8,364.3,549.8,364.2z"/>
	<path class="st30" d="M460.7,276.4l8.7-5.8l8.2,2.7l11.8-8c0,0,13.1-4.4,14.2-4.7c1.1-0.2,16.2-2.4,17.1-2.4c0.5,0,11,2.6,11,2.6
		l0.9,5.4l7.9,0.1l4,7l10.9-1.6L559,284l4.4,8.3l-5.3,10.9l-16.9,5.3l-4.2-2l-29.2,2.9l-22.5,4.4l-24-21.1L460.7,276.4z"/>
	<linearGradient id="SVGID_7_" gradientUnits="userSpaceOnUse" x1="416.995" y1="317.648" x2="514.7473" y2="317.648">
		<stop  offset="0" style="stop-color:#61CBF7"/>
		<stop  offset="1" style="stop-color:#467EF7"/>
	</linearGradient>
	<path style="fill:url(#SVGID_7_);" d="M422.9,373l26.3-2.1c9.7-0.8,28.6-7,35.6-14c2-2,3.2-3.5,1.3-5.9
		c-41.6-54.1,16.2-54.8,26.1-67c5-6.2,2.1-13.6-3-18.4c-3.4-0.3-6.7-0.7-9.9-1.5c-8.6-2.2-17.6-2.2-26.3-0.4
		C391.7,280.8,422.9,373,422.9,373z"/>
	
		<ellipse transform="matrix(0.9958 -9.128795e-02 9.128795e-02 0.9958 -18.0957 45.5249)" class="st20" cx="488.6" cy="220.6" rx="5.7" ry="5.5"/>
	
		<ellipse transform="matrix(0.1085 -0.9941 0.9941 0.1085 237.6311 699.307)" class="st24" cx="508.7" cy="217.2" rx="1.4" ry="1.6"/>
	
		<ellipse transform="matrix(0.9958 -9.128795e-02 9.128795e-02 0.9958 -17.8822 49.1622)" class="st24" cx="528.5" cy="220.1" rx="1.2" ry="1.2"/>
	<linearGradient id="SVGID_8_" gradientUnits="userSpaceOnUse" x1="487.0311" y1="227.4875" x2="533.786" y2="227.4875">
		<stop  offset="0.127" style="stop-color:#FF9B24"/>
		<stop  offset="1" style="stop-color:#FFCB3D"/>
	</linearGradient>
	<path class="st7" d="M530.3,226.9c1.5-5.3,2.3-11.1,2.1-17.2c-0.1-4.2-1.8-16.1-3.1-19c-8-17.3-33.4-4.2-38.5,10.2
		c-5.9,16.7-5.7,30.2,5.8,55.7l-1.6,9c-0.4,2.4,0.8,4.8,3,5.8c2,1,4.8,1.5,7.8,0.1c1.6-0.7,2.7-2.2,3-3.9l1.4-7.5
		c0,0,12.5-11.4,18.8-29.1c2.4,0.1,4.5-0.3,4.8-1.4C533.9,229.3,532.4,228.2,530.3,226.9z"/>
	<path class="st25" d="M498.9,224.8c0,0-0.8,5.3,5.5,8.1"/>
	<path class="st25" d="M517.3,230.3c0,0,16.3,2.3,16.3-0.5c0-2.8-18.2-10-18.2-10"/>
	<linearGradient id="SVGID_10_" gradientUnits="userSpaceOnUse" x1="491.7077" y1="217.4731" x2="536.7115" y2="217.4731">
		<stop  offset="0" style="stop-color:#4625C1"/>
		<stop  offset="1" style="stop-color:#33313D"/>
	</linearGradient>
	<path style="fill:url(#SVGID_10_);" d="M536.5,214.6l-44.8-4.1l0.3,5.5l2.8,0.9c0,0,5.1,12.3,19.3,2.7l1.5,0.6l10.5,4.4
		C526.1,224.5,538.6,224.8,536.5,214.6z"/>
	
		<ellipse transform="matrix(0.9958 -9.128795e-02 9.128795e-02 0.9958 -17.7329 47.2068)" class="st14" cx="507.2" cy="217.5" rx="0.8" ry="0.8"/>
	
		<ellipse transform="matrix(0.9958 -9.128795e-02 9.128795e-02 0.9958 -17.9025 49.3146)" class="st14" cx="530.1" cy="220.4" rx="0.8" ry="0.8"/>
	<path class="st31" d="M562.5,450c-3.3,0-5.4-0.1-8.7-0.3c-1.4,1.9-2.5,3.7-2.5,3.7s10.6,9.6,22.9,17.2c1.2,0.8,2.7-0.6,2.1-1.9
		C573.7,463.7,568,456.7,562.5,450z"/>
	<path class="st31" d="M476.5,524.6c-4-2.4-10.8-6-17.5-7.7c-3.5,0.2-7,0.5-10.5,0.8c-0.7,3.2-0.7,9.7-0.7,9.7s13.3,1.1,28.1,0
		C477.3,527.2,477.7,525.4,476.5,524.6z"/>
	<path class="st56" d="M473.7,374c0,0,10.3,13.3,21.5,67.6"/>
	<path class="st57" d="M489.7,225.4c0,0-2,1.2-4.7-0.1"/>
	<path class="st11" d="M517,298.8c0,0-43.1-0.8-56.2-21.3l-4.4,33.6c0,0,25.5,15.8,63.1-4.8L517,298.8z"/>
	<path class="st30" d="M518.4,263.2c-1.9-1.3-3.8-1.9-5.4-4c-4.3,0.6-12.4-1.1-13-1c-1.1,0.2-10.6,7.1-10.6,7.1l-3.5,2.4l5.5,0.2
		l0,1l-12.5-0.6l0,0.1l-1,6.8l-1-0.1l0.3-2l-7.7-2.5l-8.7,5.8l0.6,13.9c7.9,4.8,17.8,6.8,26.8,8.2c9.7,1,18.6,1.3,28.3-0.7
		c1.7-0.3,1.3-2,1.3-3c0.3-9.7,11.8-11.6,14.4-21.3C532.5,272.8,519,263.8,518.4,263.2z"/>
	<ellipse class="st20" cx="562.7" cy="292.2" rx="2.3" ry="2.2"/>
	<path class="st20" d="M563.6,297.6c0,1.2,0,3.8-1.3,3.8s-3.4-2.6-3.4-3.8c0-1.2,1-2.2,2.3-2.2S563.6,296.4,563.6,297.6z"/>
	<polyline class="st33" points="470.1,272.1 475.9,284.8 470,288.8 	"/>
	<polyline class="st33" points="473.8,272.8 479.6,285.4 473.6,289.4 	"/>
	<polyline class="st33" points="498.9,260.3 499.7,275.8 509.6,277.5 	"/>
	<polyline class="st33" points="496.2,263.3 497.1,278.8 506.9,280.5 	"/>
	<polyline class="st33" points="490.4,271.3 486.8,288.6 478.8,288.6 	"/>
	<polyline class="st33" points="492.8,274.3 489.1,291.6 481.1,291.6 	"/>
	<polyline class="st33" points="520,260 521.7,278.3 532.5,279.8 	"/>
	<polyline class="st33" points="517.1,262.9 518.8,281.2 529.6,282.7 	"/>
	<polyline class="st33" points="544.5,274.6 541.7,288.3 554,288.1 554.5,275.6 	"/>
	<line class="st33" x1="545.3" y1="291.8" x2="557.6" y2="292.2"/>
	<polyline class="st33" points="516,288 507.3,282.7 495.5,295.5 	"/>
	<polyline class="st33" points="516.7,293.3 507.9,288 496.2,300.9 	"/>
	<polyline class="st33" points="493.2,283.1 499.8,283.1 500.5,287.9 	"/>
	<ellipse transform="matrix(0.9916 -0.1294 0.1294 0.9916 -30.4346 70.4621)" class="st34" cx="527" cy="269.4" rx="2.9" ry="3.7"/>
	
		<ellipse transform="matrix(0.9916 -0.1294 0.1294 0.9916 -30.4789 67.7837)" class="st34" cx="506.3" cy="268.4" rx="2.9" ry="3.7"/>
	
		<ellipse transform="matrix(0.9916 -0.1294 0.1294 0.9916 -33.592 66.2417)" class="st34" cx="492.9" cy="291.6" rx="2.2" ry="2.8"/>
	
		<ellipse transform="matrix(7.431381e-02 -0.9972 0.9972 7.431381e-02 169.0004 739.0287)" class="st34" cx="482.6" cy="278.5" rx="3.3" ry="2.6"/>
	
		<ellipse transform="matrix(7.431381e-02 -0.9972 0.9972 7.431381e-02 228.7131 807.572)" class="st34" cx="549.4" cy="280.6" rx="3.3" ry="2.6"/>
	
		<ellipse transform="matrix(0.5818 -0.8133 0.8133 0.5818 -8.6026 555.7641)" class="st34" cx="536.2" cy="286.2" rx="3.3" ry="2.6"/>
	
		<ellipse transform="matrix(0.9456 -0.3252 0.3252 0.9456 -67.7029 193.7583)" class="st34" cx="545.7" cy="299.4" rx="3.3" ry="2.6"/>
	
		<ellipse transform="matrix(0.5818 -0.8133 0.8133 0.5818 -22.9509 549.993)" class="st34" cx="523.4" cy="297.3" rx="3.3" ry="2.6"/>
	
		<ellipse transform="matrix(0.5964 -0.8027 0.8027 0.5964 -33.473 527.8867)" class="st34" cx="508.2" cy="297.2" rx="3.3" ry="2.6"/>
	
		<ellipse transform="matrix(0.5964 -0.8027 0.8027 0.5964 -43.382 536.2992)" class="st34" cx="511.6" cy="311.3" rx="3.3" ry="2.6"/>
	
		<ellipse transform="matrix(0.9657 -0.2597 0.2597 0.9657 -57.0657 131.2826)" class="st34" cx="468.3" cy="281.6" rx="2.6" ry="3.3"/>
	<polyline class="st33" points="526.2,288.8 537.7,275.8 542.7,280.1 	"/>
	<path class="st30" d="M516.9,293.8l3.1-7.8c0,0,10.8,2.6,11.1,2.6"/>
	<path class="st33" d="M516.9,293.8l3.1-7.8c0,0,10.8,2.6,11.1,2.6"/>
	<polyline class="st33" points="515.2,308.3 531,311.1 533.3,301.9 	"/>
	<path class="st11" d="M519.5,306.2l-2.5-7.5c0,0-45.3,4.1-55.7-18.8l-0.7-5.7l-3.7,31.1c7.9,3.5,16.3,6.2,23.3,11.4
		C490.7,317,504.1,314.7,519.5,306.2z"/>
	<g>
		<path class="st20" d="M531.8,301.1c3.3-2,7.2-0.9,9.7,1.8c1.5,1.6,3.8-0.8,2.4-2.4c-3.5-3.8-9.2-5.1-13.7-2.3
			C528.2,299.3,529.9,302.2,531.8,301.1L531.8,301.1z"/>
		<path class="st20" d="M532.2,298.4C532.3,298.1,532.1,298.6,532.2,298.4c0.1-0.2,0.2-0.4,0.3-0.7c0.4-0.7,0.8-1.3,1.4-1.8
			c1.9-1.9,4.4-1.8,6.9-0.9c2,0.7,2.9-2.5,0.9-3.2c-5.2-1.8-10.7,0.4-12.6,5.7C528.3,299.5,531.5,300.4,532.2,298.4L532.2,298.4z"/>
		<path class="st20" d="M524.8,292.4c0.1,0.1,0.1,0.2,0.2,0.3c-0.1-0.3,0.1,0.2,0.1,0.3c0.1,0.2,0.1,0.4,0.2,0.5
			c0.2,0.8,0.2,1.6-0.3,2.4c-1.1,1.8,1.8,3.5,2.9,1.7c1.3-2.1,1-4.7-0.2-6.8C526.7,288.9,523.8,290.6,524.8,292.4L524.8,292.4z"/>
		<path class="st20" d="M515.3,300l4.7-2.6c0.1-0.1,0.3-0.1,0.4-0.2c1.6-0.6,11.9-3.8,16.1,4.3c4.6,8.9-0.6,8.9-1.3,7.3
			c-0.6-1.3-1.2-5-3.5-5.9c-2.6-1.1-6.1,2.4-10.6-1.3l-3.3,2.9l0,0C516.4,303.4,515.5,301.8,515.3,300L515.3,300z"/>
		<path class="st35" d="M526.9,295.5c0,0-4.4,0.3-7.4,1.6"/>
	</g>
	<polyline class="st33" points="540.8,307.2 557.1,301.8 554.1,295.2 	"/>
	<path class="st20" d="M560,302.8c0,1.2-1,2.2-2.3,2.2s-3.3-1.7-3.3-3c0-1.2,1-2.2,2.3-2.2S560,301.6,560,302.8z"/>
	<polyline class="st33" points="506.4,314.3 509.8,319.7 518.2,315.3 	"/>
	<line class="st22" x1="533" y1="271.9" x2="531.8" y2="259.8"/>
	<line class="st22" x1="544.7" y1="272.1" x2="542.9" y2="279.3"/>
	<path class="st35" d="M537.8,261.5c0,0,6.7-0.2,8.8,5.3"/>
	<path class="st35" d="M543,259.7c0,0,4.8,0.7,6,5.2"/>
	<path class="st35" d="M431.6,218.9c0,0,6.7-0.2,8.8,5.3"/>
	<path class="st35" d="M441.5,249.2c0,0-4.9,0.1-6.7-4.2"/>
	<path class="st35" d="M469.6,251c0,0,4.9-0.3,6.9,3.9"/>
	<path class="st35" d="M426,270.7c0,0-4.8,0.6-7.1-3.5"/>
	<path class="st35" d="M455,262.3c0,0-4.8,0.6-7.1-3.5"/>
	<path class="st35" d="M499.7,321.4c0,0,7.7,5.5,14.8,0.8"/>
	<path class="st35" d="M502.4,324.2c0,0,4.3,3.5,8.5,1.7"/>
	<polygon class="st30" points="472.7,266.4 461.4,261.5 452.7,259.2 462,251.3 472.2,254.4 479.1,261.7 	"/>
	
		<ellipse transform="matrix(7.092636e-02 -0.9975 0.9975 7.092636e-02 176.3062 704.9894)" class="st34" cx="466.6" cy="257.9" rx="2.6" ry="3.3"/>
	<polygon class="st30" points="431.6,233.2 419.3,233.1 410.4,234.3 415.9,223.4 426.5,222.3 435.7,226.4 	"/>
	
		<ellipse transform="matrix(0.9459 -0.3245 0.3245 0.9459 -51.0115 149.4652)" class="st34" cx="422.7" cy="227.7" rx="3.3" ry="2.6"/>
	<polygon class="st30" points="423.6,251.4 432.1,260.3 439.3,265.8 427.6,269.4 419.4,262.6 415.9,253.2 	"/>
	
		<ellipse transform="matrix(0.4503 -0.8929 0.8929 0.4503 0.5447 524.0968)" class="st34" cx="425.9" cy="261.6" rx="2.6" ry="3.3"/>
	<linearGradient id="SVGID_11_" gradientUnits="userSpaceOnUse" x1="486.0115" y1="200.282" x2="531.7379" y2="200.282">
		<stop  offset="0" style="stop-color:#4625C1"/>
		<stop  offset="1" style="stop-color:#33313D"/>
	</linearGradient>
	<path class="st10" d="M519.9,179.7c-17.8-5.7-33.9,0.2-29.6,12.3c-3.1,7.7-4.3,23.9-4.3,23.9c3.9-0.9,4.7,6.1,4.7,6.1l2,1.2
		c0,0-1.8-17.2,6.1-19.6c4.5-1.4,5.8-5.3,6.1-8.4c5.4,1.7,14.9,3.2,25.2-1.7C530.1,193.4,537.7,185.4,519.9,179.7z"/>
	<path class="st59" d="M528.2,190.4c0,0-14.2,7.4-26.8-0.8"/>
	<path class="st56" d="M475.1,317c-0.8-0.1-2-0.7-2.8-0.8c-8.4-1.1-15.3-5.1-20.5-9.4"/>
	<g>
		<defs>
			<path id="SVGID_94_" d="M0,607.8c0,0,124.4,160.5,261,198c136.5,37.5,241.5,52.5,630-22.5s820.5,22.5,1029-159V0L0,0V607.8z"/>
		</defs>
		<clipPath id="SVGID_12_">
			<use xlink:href="#SVGID_94_"  style="overflow:visible;"/>
		</clipPath>
		<g style="clip-path:url(#SVGID_12_);">
			<linearGradient id="SVGID_13_" gradientUnits="userSpaceOnUse" x1="473.5269" y1="904.2479" x2="473.5269" y2="656.2269">
				<stop  offset="0" style="stop-color:#61CBF7"/>
				<stop  offset="1" style="stop-color:#467EF7"/>
			</linearGradient>
			<path class="st46" d="M537.4,656.2H409.7c-7.2,0-11,8.5-6.2,13.9l11.9,13.2c1.3,1.5,2.1,3.4,2.1,5.4l-0.2,32.8l-0.1,17.1l0,19.5
				h0v11.7l0,75.4c0,0.3,0,0.6,0,0.9v27.3c0,17,13.8,30.8,30.8,30.8h50.1c17,0,30.8-13.8,30.8-30.8v-21.3c0.3-2.3,0.4-4.6,0.4-6.9
				l0-80.1l0.1-43.2l0-2.3l0.1-16.4l0-5.3l0-8.7c0-0.2,0-0.4,0-0.6c0-2,0.8-3.9,2.2-5.4l11.9-13.2
				C548.4,664.8,544.6,656.2,537.4,656.2z"/>
			<g>
				<g>
					<path class="st14" d="M449.3,692.5c-0.9,0-1.6-0.7-1.6-1.6v-5c0-0.9,0.7-1.6,1.6-1.6c0.9,0,1.6,0.7,1.6,1.6v5
						C450.9,691.8,450.2,692.5,449.3,692.5z"/>
					<path class="st14" d="M455.9,699.2c0-0.9,0.7-1.6,1.6-1.6h5c0.9,0,1.6,0.7,1.6,1.6c0,0.9-0.7,1.6-1.6,1.6h-5
						C456.6,700.7,455.9,700,455.9,699.2z"/>
					<path class="st14" d="M454,703.8c0.6-0.6,1.6-0.6,2.2,0l3.5,3.5c0.6,0.6,0.6,1.6,0,2.2c-0.6,0.6-1.6,0.6-2.2,0l-3.5-3.5
						C453.4,705.4,453.4,704.4,454,703.8z"/>
					<path class="st14" d="M444.6,694.4c-0.6,0.6-1.6,0.6-2.2,0l-3.5-3.5c-0.6-0.6-0.6-1.6,0-2.2c0.6-0.6,1.6-0.6,2.2,0l3.5,3.5
						C445.2,692.8,445.2,693.8,444.6,694.4z"/>
					<path class="st14" d="M454,694.4c-0.6-0.6-0.6-1.6,0-2.2l3.5-3.5c0.6-0.6,1.6-0.6,2.2,0c0.6,0.6,0.6,1.6,0,2.2l-3.5,3.5
						C455.6,695.1,454.6,695.1,454,694.4z"/>
					<path class="st14" d="M450.8,698.7C450.8,698.7,450.8,698.7,450.8,698.7c0,0,0-0.1,0-0.1c0,0,0,0,0,0c0,0,0-0.1-0.1-0.1
						c0,0,0,0,0,0c0,0,0-0.1-0.1-0.1c0,0,0,0,0,0c-0.1-0.2-0.3-0.3-0.5-0.5c0,0,0,0,0,0c0,0-0.1-0.1-0.1-0.1c0,0,0,0,0,0
						c0,0-0.1,0-0.1-0.1c0,0,0,0,0,0c0,0-0.1,0-0.1,0c0,0,0,0,0,0c0,0-0.1,0-0.1,0h0c-0.1,0-0.2,0-0.3,0h-13.2
						c-0.9,0-1.6,0.7-1.6,1.6c0,0.9,0.7,1.6,1.6,1.6h9.3l-6.6,6.6c-0.6,0.6-0.6,1.6,0,2.2c0.3,0.3,0.7,0.5,1.1,0.5
						c0.4,0,0.8-0.2,1.1-0.5l6.6-6.6v9.3c0,0.9,0.7,1.6,1.6,1.6c0.9,0,1.6-0.7,1.6-1.6v-13.2C450.9,699,450.9,698.8,450.8,698.7z"/>
					<path class="st14" d="M472.7,692.7c0.3-0.3,0.7-0.4,1.1-0.4c0.4,0,0.8,0.1,1.1,0.4c0.3,0.3,0.5,0.7,0.5,1.1v10.7
						c0,0.4-0.2,0.8-0.5,1.1c-0.3,0.3-0.7,0.4-1.1,0.4c-0.4,0-0.8-0.1-1.1-0.4c-0.3-0.3-0.5-0.7-0.5-1.1v-10.7
						C472.2,693.3,472.4,693,472.7,692.7z"/>
					<path class="st14" d="M479.7,695.4h-1.3c-0.2,0-0.4,0-0.6-0.1c-0.2-0.1-0.3-0.2-0.5-0.4c-0.1-0.1-0.3-0.3-0.3-0.5
						c-0.1-0.2-0.1-0.4-0.1-0.5c0-0.2,0-0.4,0.1-0.6c0.1-0.2,0.2-0.4,0.3-0.5c0.1-0.1,0.3-0.3,0.5-0.3c0.2-0.1,0.4-0.1,0.6-0.1h5.8
						c0.2,0,0.4,0,0.6,0.1c0.2,0.1,0.4,0.2,0.5,0.3c0.1,0.1,0.3,0.3,0.3,0.5c0.1,0.2,0.1,0.4,0.1,0.6c0,0.2,0,0.4-0.1,0.5
						c-0.1,0.2-0.2,0.3-0.3,0.5c-0.1,0.1-0.3,0.3-0.5,0.4c-0.2,0.1-0.4,0.1-0.6,0.1h-1.3v9.1c0,0.5-0.2,0.8-0.5,1.1
						c-0.3,0.3-0.7,0.4-1.1,0.4c-0.4,0-0.8-0.1-1.1-0.4c-0.3-0.3-0.5-0.6-0.5-1.1V695.4z"/>
					<path class="st14" d="M495,696.2c-0.3-0.2-0.7-0.4-1.1-0.6c-0.4-0.2-0.8-0.2-1.3-0.3c-0.5,0-1,0.1-1.5,0.3
						c-0.5,0.2-0.9,0.5-1.2,0.8c-0.3,0.3-0.6,0.7-0.8,1.2c-0.2,0.5-0.3,0.9-0.3,1.5c0,0.5,0.1,1,0.3,1.4c0.2,0.4,0.5,0.8,0.9,1.2
						c0.4,0.3,0.8,0.6,1.2,0.8c0.5,0.2,0.9,0.3,1.4,0.4c0.4,0,0.8-0.1,1.2-0.2c0.4-0.2,0.8-0.4,1.1-0.6c0.3-0.3,0.7-0.4,1.1-0.4
						c0.4,0,0.8,0.1,1.1,0.4c0.3,0.3,0.5,0.7,0.5,1.1c0,0.4-0.1,0.6-0.3,0.9c-0.2,0.2-0.3,0.4-0.5,0.5c-0.1,0.1-0.2,0.2-0.4,0.3
						c-0.2,0.2-0.5,0.3-0.9,0.5c-0.4,0.2-0.8,0.3-1.3,0.5c-0.5,0.1-1.1,0.2-1.8,0.2c-1,0-1.9-0.2-2.7-0.6c-0.8-0.4-1.6-0.9-2.2-1.5
						c-0.6-0.6-1.1-1.4-1.5-2.2c-0.4-0.8-0.5-1.8-0.5-2.7c0-1,0.2-1.9,0.5-2.7c0.4-0.8,0.9-1.6,1.5-2.2c0.6-0.6,1.4-1.1,2.2-1.5
						c0.8-0.4,1.7-0.5,2.7-0.5c0.7,0,1.3,0.1,1.8,0.2c0.5,0.1,0.9,0.3,1.3,0.5c0.4,0.2,0.6,0.3,0.9,0.5c0.2,0.2,0.3,0.3,0.4,0.3
						c0.1,0.1,0.3,0.3,0.5,0.5c0.2,0.2,0.3,0.5,0.3,0.9c0,0.4-0.2,0.8-0.5,1.1c-0.3,0.3-0.7,0.5-1.1,0.5
						C495.7,696.6,495.4,696.4,495,696.2z"/>
					<path class="st14" d="M512.1,700.2c-0.1,0.6-0.2,1.1-0.5,1.6c-0.4,0.8-0.9,1.6-1.5,2.2c-0.6,0.6-1.4,1.1-2.2,1.5
						c-0.8,0.4-1.7,0.5-2.7,0.5c-1,0-1.9-0.2-2.7-0.5c-0.8-0.4-1.6-0.9-2.2-1.5c-0.6-0.6-1.1-1.4-1.5-2.2c-0.4-0.8-0.5-1.7-0.5-2.7
						c0-1,0.2-1.9,0.5-2.7c0.4-0.8,0.9-1.6,1.5-2.2c0.6-0.6,1.4-1.1,2.2-1.5c0.8-0.4,1.7-0.6,2.7-0.6c0.7,0,1.3,0.1,1.8,0.2
						c0.5,0.1,1,0.3,1.3,0.5c0.4,0.2,0.6,0.3,0.9,0.5c0.2,0.2,0.3,0.3,0.4,0.3c0.1,0.1,0.3,0.3,0.5,0.5c0.2,0.2,0.3,0.5,0.3,0.9
						c0,0.4-0.2,0.8-0.5,1.1c-0.3,0.3-0.7,0.5-1.1,0.5c-0.4,0-0.8-0.1-1.1-0.4c-0.3-0.2-0.7-0.4-1.1-0.6c-0.4-0.2-0.8-0.2-1.3-0.2
						c-0.5,0-1,0.1-1.5,0.3c-0.5,0.2-0.9,0.5-1.2,0.8c-0.3,0.3-0.6,0.8-0.8,1.2c-0.2,0.5-0.3,1-0.3,1.5c0,0.5,0.1,1,0.3,1.5
						s0.5,0.9,0.8,1.2c0.3,0.3,0.7,0.6,1.2,0.8c0.5,0.2,0.9,0.3,1.5,0.3c0.6,0,1.2-0.1,1.7-0.4c0.5-0.2,0.9-0.6,1.3-1h-2.7
						c-0.4,0-0.8-0.2-1.1-0.5c-0.3-0.3-0.4-0.7-0.4-1.1c0-0.4,0.1-0.8,0.4-1.1c0.3-0.3,0.7-0.5,1.1-0.5h5.1c0,0,0.6,0,1,0.4
						C511.9,699.1,512.2,699.5,512.1,700.2z"/>
				</g>
			</g>
			<g>
				<linearGradient id="SVGID_14_" gradientUnits="userSpaceOnUse" x1="472.5917" y1="668.5375" x2="472.5917" y2="614.1249">
					<stop  offset="0" style="stop-color:#4625C1"/>
					<stop  offset="1" style="stop-color:#467EF7"/>
				</linearGradient>
				<path class="st47" d="M392.6,622.2c53.1-10.7,106.9-10.7,160,0c4,0.8,6.8,5.7,6.2,10.9c-1,9.1-2.1,18.2-3.1,27.4
					c-0.6,5.2-4.1,8.7-7.9,8c-49.9-10.1-100.5-10.1-150.4,0c-3.7,0.8-7.3-2.8-7.9-8c-1-9.1-2.1-18.2-3.1-27.4
					C385.8,627.9,388.6,623,392.6,622.2z"/>
				<g>
					<g>
						<linearGradient id="SVGID_16_" gradientUnits="userSpaceOnUse" x1="398.5632" y1="658.5424" x2="398.5632" y2="627.9934">
							<stop  offset="0" style="stop-color:#61CBF7"/>
							<stop  offset="1" style="stop-color:#467EF7"/>
						</linearGradient>
						<path style="fill:url(#SVGID_16_);" d="M393.2,631.7c1.4,8.1,2.8,16.2,4.2,24.3c0.7,4,7,3,6.4-1.1c-1.3-8.1-2.6-16.2-3.9-24.4
							C399.4,626.5,392.5,627.6,393.2,631.7C393.2,631.7,393.2,631.7,393.2,631.7z"/>
					</g>
					<g>
						<linearGradient id="SVGID_17_" gradientUnits="userSpaceOnUse" x1="422.7854" y1="655.2734" x2="422.7854" y2="624.5542">
							<stop  offset="0" style="stop-color:#61CBF7"/>
							<stop  offset="1" style="stop-color:#467EF7"/>
						</linearGradient>
						<path class="st50" d="M418.1,628c1,8.2,1.9,16.3,2.9,24.5c0.5,4.1,6.9,3.4,6.4-0.7c-0.8-8.2-1.7-16.4-2.5-24.5
							C424.5,623.2,417.6,623.9,418.1,628C418.1,628,418.1,628,418.1,628z"/>
					</g>
					<g>
						<linearGradient id="SVGID_18_" gradientUnits="userSpaceOnUse" x1="447.1196" y1="653.3148" x2="447.1196" y2="622.4889">
							<stop  offset="0" style="stop-color:#61CBF7"/>
							<stop  offset="1" style="stop-color:#467EF7"/>
						</linearGradient>
						<path class="st51" d="M443.1,625.8c0.5,8.2,1,16.4,1.5,24.6c0.3,4.1,6.7,3.8,6.5-0.4c-0.4-8.2-0.8-16.4-1.2-24.6
							C449.8,621.3,442.8,621.7,443.1,625.8L443.1,625.8z"/>
					</g>
					<g>
						<linearGradient id="SVGID_19_" gradientUnits="userSpaceOnUse" x1="471.6025" y1="652.6604" x2="471.6025" y2="621.7993">
							<stop  offset="0" style="stop-color:#61CBF7"/>
							<stop  offset="1" style="stop-color:#467EF7"/>
						</linearGradient>
						<path class="st52" d="M468.2,624.9c0.1,8.2,0.1,16.4,0.2,24.7c0,4.1,6.4,4.1,6.5,0c0.1-8.2,0.1-16.4,0.2-24.7
							C475.1,620.8,468.1,620.8,468.2,624.9C468.2,624.9,468.2,624.9,468.2,624.9z"/>
					</g>
					<g>
						<linearGradient id="SVGID_20_" gradientUnits="userSpaceOnUse" x1="496.0854" y1="653.3151" x2="496.0854" y2="622.4881">
							<stop  offset="0" style="stop-color:#61CBF7"/>
							<stop  offset="1" style="stop-color:#467EF7"/>
						</linearGradient>
						<path class="st53" d="M493.2,625.4c-0.4,8.2-0.8,16.4-1.2,24.6c-0.2,4.1,6.2,4.5,6.5,0.4c0.5-8.2,1-16.4,1.5-24.6
							C500.4,621.7,493.4,621.3,493.2,625.4L493.2,625.4z"/>
					</g>
					<g>
						<linearGradient id="SVGID_22_" gradientUnits="userSpaceOnUse" x1="520.4191" y1="655.2753" x2="520.4191" y2="624.5521">
							<stop  offset="0" style="stop-color:#61CBF7"/>
							<stop  offset="1" style="stop-color:#467EF7"/>
						</linearGradient>
						<path style="fill:url(#SVGID_22_);" d="M518.3,627.3c-0.8,8.2-1.7,16.4-2.5,24.5c-0.4,4.1,5.9,4.8,6.4,0.7
							c1-8.2,1.9-16.3,2.9-24.5C525.6,623.9,518.7,623.2,518.3,627.3C518.3,627.3,518.3,627.3,518.3,627.3z"/>
					</g>
					<g>
						<linearGradient id="SVGID_23_" gradientUnits="userSpaceOnUse" x1="544.6412" y1="658.5419" x2="544.6412" y2="627.9953">
							<stop  offset="0" style="stop-color:#61CBF7"/>
							<stop  offset="1" style="stop-color:#467EF7"/>
						</linearGradient>
						<path class="st61" d="M543.2,630.6c-1.3,8.1-2.6,16.2-3.9,24.4c-0.6,4.1,5.7,5.1,6.4,1.1c1.4-8.1,2.8-16.2,4.2-24.3
							C550.7,627.6,543.8,626.5,543.2,630.6C543.2,630.6,543.2,630.6,543.2,630.6z"/>
					</g>
				</g>
			</g>
			<linearGradient id="SVGID_24_" gradientUnits="userSpaceOnUse" x1="473.8603" y1="804.1902" x2="473.8603" y2="729.0579">
				<stop  offset="0" style="stop-color:#4625C1"/>
				<stop  offset="1" style="stop-color:#467EF7"/>
			</linearGradient>
			<path class="st62" d="M472.9,729.1h2c8.6,0,15.5,6.9,15.5,15.5v44.2c0,8.6-6.9,15.5-15.5,15.5h-2c-8.6,0-15.5-6.9-15.5-15.5
				v-44.2C457.4,736,464.3,729.1,472.9,729.1z"/>
			<path class="st14" d="M473.9,735.1L473.9,735.1c6.6,0,11.9,5.3,11.9,11.9v9.7c0,6.6-5.3,11.9-11.9,11.9l0,0
				c-6.6,0-11.9-5.3-11.9-11.9V747C461.9,740.4,467.3,735.1,473.9,735.1z"/>
			<g>
				<path class="st9" d="M472.5,748.3c0.6,0.6,0.9,1.3,0.9,2.3c0,0.4,0,0.7,0,0.9c0,0.3,0,0.7,0,1.1c0,0.9-0.4,1.7-0.9,2.2
					c-0.6,0.6-1.4,0.9-2.5,0.9s-1.9-0.3-2.5-0.9c-0.6-0.6-0.9-1.3-0.9-2.2c0-0.4,0-0.8,0-1.1c0-0.3,0-0.6,0-0.9
					c0-0.9,0.4-1.7,0.9-2.3s1.4-0.9,2.5-0.9S472,747.7,472.5,748.3z M468.8,749.4c-0.3,0.3-0.5,0.7-0.5,1.3c0,0.4,0,0.7,0,1
					c0,0.3,0,0.6,0,1c0,0.5,0.2,1,0.5,1.3c0.3,0.3,0.8,0.5,1.3,0.5s1-0.2,1.3-0.5c0.3-0.3,0.5-0.7,0.5-1.3c0-0.2,0-0.5,0-1
					c0-0.5,0-0.8,0-1c0-0.5-0.2-1-0.5-1.3c-0.3-0.3-0.8-0.5-1.3-0.5S469.1,749.1,468.8,749.4z"/>
				<path class="st9" d="M479.8,755.4l-3.2-4.8v4.8c0,0.1,0,0.2-0.1,0.2s-0.1,0.1-0.2,0.1h-0.9c-0.1,0-0.2,0-0.2-0.1
					s-0.1-0.1-0.1-0.2v-7.4c0-0.1,0-0.2,0.1-0.2s0.1-0.1,0.2-0.1h0.8c0.2,0,0.3,0.1,0.5,0.3l3.2,4.8v-4.8c0-0.1,0-0.2,0.1-0.2
					s0.1-0.1,0.2-0.1h0.9c0.1,0,0.2,0,0.2,0.1s0.1,0.1,0.1,0.2v7.4c0,0.1,0,0.2-0.1,0.2s-0.1,0.1-0.2,0.1h-0.8
					C480,755.6,479.9,755.6,479.8,755.4z"/>
			</g>
			<path class="st56" d="M521.4,773.6v64.1c0,57.3-7,54.4-49.1,54.4h0"/>
			<path class="st25" d="M450.9,791.5c0,0,0.5,21.8,23,20.5"/>
		</g>
	</g>
</g>
</svg>
