<?xml version="1.0" encoding="utf-8"?>
<!-- Generator: Adobe Illustrator 22.0.1, SVG Export Plug-In . SVG Version: 6.00 Build 0)  -->
<svg version="1.1" xmlns="http://www.w3.org/2000/svg" xmlns:xlink="http://www.w3.org/1999/xlink" x="0px" y="0px"
	 viewBox="0 0 1920 522.5" style="enable-background:new 0 0 1920 522.5;" xml:space="preserve">
<style type="text/css">
	.st0{fill:#AA2F00;}
	.st1{fill:url(#SVGID_1_);}
	.st2{clip-path:url(#SVGID_3_);}
	.st3{fill:none;}
	.st4{clip-path:url(#SVGID_5_);}
	.st5{fill:#E5E5E5;}
	.st6{opacity:0.71;}
	.st7{fill:url(#SVGID_8_);}
	.st8{clip-path:url(#SVGID_10_);}
	.st9{fill:#4625C1;}
	.st10{fill:url(#SVGID_11_);}
	.st11{fill:#61AAF7;}
	.st12{fill:#6535E4;}
	.st13{fill:#E85419;}
	.st14{fill:#FFFFFF;}
	.st15{fill:#E6E7E9;}
	.st16{fill:#FFFFFF;stroke:#BFCCD3;stroke-width:5;stroke-miterlimit:10;}
	.st17{fill:none;stroke:#BFCCD3;stroke-width:2;stroke-miterlimit:10;}
	.st18{fill:none;stroke:#E85419;stroke-width:5;stroke-miterlimit:10;}
	.st19{fill:none;stroke:#6435E3;stroke-miterlimit:10;}
	.st20{fill:#FF9B24;}
	.st21{fill:#2031A7;}
	.st22{fill:none;stroke:#FFFFFF;stroke-miterlimit:10;}
	.st23{fill:none;stroke:#F6FBFF;stroke-miterlimit:10;}
	.st24{fill:#3537AB;}
	.st25{fill:none;stroke:#3537AB;stroke-width:0.5;stroke-miterlimit:10;}
	.st26{fill:none;stroke:#F5FBFF;stroke-miterlimit:10;}
	.st27{fill:#6C75FF;}
	.st28{fill:#BFCCD3;}
	.st29{fill:#F6FBFF;}
	.st30{fill:#1F9B83;}
	.st31{fill:#53A9F4;}
	.st32{fill:none;stroke:#3F89F2;stroke-miterlimit:10;}
	.st33{fill:none;stroke:#177563;stroke-width:0.5;stroke-miterlimit:10;}
	.st34{fill:#3DC1A7;}
	.st35{fill:none;stroke:#1F9B83;stroke-width:0.5;stroke-miterlimit:10;}
	.st36{fill:none;stroke:#53A9F4;stroke-width:0.5;stroke-miterlimit:10;}
	.st37{fill:#FFFFFF;stroke:#3537AB;stroke-width:0.5;stroke-miterlimit:10;}
	.st38{fill:#33313D;}
	.st39{fill:none;stroke:#D9DBE8;stroke-miterlimit:10;}
	.st40{fill:#4094D3;}
	.st41{fill:#D9DBE8;}
	.st42{fill:none;stroke:#BFCCD3;stroke-width:3;stroke-miterlimit:10;}
	.st43{fill:#F1F2F2;stroke:#BFCCD3;stroke-width:2;stroke-miterlimit:10;}
	.st44{opacity:0.19;fill:#BFCCD3;stroke:#F1F2F2;stroke-width:2;stroke-miterlimit:10;}
	.st45{fill:url(#SVGID_12_);}
	.st46{fill:url(#SVGID_13_);}
	.st47{fill:url(#SVGID_14_);}
	.st48{clip-path:url(#SVGID_16_);}
	.st49{fill:none;stroke:#BFCCD3;stroke-miterlimit:10;}
	.st50{fill:url(#SVGID_17_);}
	.st51{fill:url(#SVGID_18_);}
	.st52{fill:url(#SVGID_19_);}
	.st53{fill:url(#SVGID_20_);}
	.st54{fill:#CE4617;}
	.st55{clip-path:url(#SVGID_22_);}
	.st56{fill:none;stroke:#FFFFFF;stroke-width:0.5;stroke-miterlimit:10;}
	.st57{fill:none;stroke:#E6E7E9;stroke-width:0.5;stroke-miterlimit:10;}
	.st58{fill:none;stroke:#61AAF7;stroke-miterlimit:10;}
	.st59{fill:none;stroke:#D9DBE8;stroke-width:0.5;stroke-miterlimit:10;}
	.st60{fill:none;stroke:#6535E4;stroke-width:0.5;stroke-miterlimit:10;}
	.st61{fill:url(#SVGID_23_);}
	.st62{fill:url(#SVGID_24_);}
	.st63{fill:url(#SVGID_25_);}
	.st64{fill:url(#SVGID_26_);}
	.st65{fill:url(#SVGID_27_);}
	.st66{fill:url(#SVGID_28_);}
	.st67{fill:url(#SVGID_29_);}
	.st68{fill:url(#SVGID_30_);}
	.st69{fill:url(#SVGID_31_);}
	.st70{fill:none;stroke:#CE7C24;stroke-width:0.5;stroke-miterlimit:10;}
	.st71{fill:url(#SVGID_32_);}
	.st72{fill:url(#SVGID_33_);}
	.st73{fill:url(#SVGID_34_);}
	.st74{clip-path:url(#SVGID_36_);}
	.st75{fill:url(#SVGID_37_);}
	.st76{fill:url(#SVGID_38_);}
	.st77{fill:url(#SVGID_39_);}
	.st78{fill:url(#SVGID_40_);}
	.st79{fill:url(#SVGID_41_);}
	.st80{fill:url(#SVGID_42_);}
	.st81{fill:url(#SVGID_43_);}
	.st82{fill:url(#SVGID_44_);}
	.st83{fill:url(#SVGID_45_);}
	.st84{fill:url(#SVGID_46_);}
	.st85{fill:url(#SVGID_47_);}
	.st86{opacity:0.1;clip-path:url(#SVGID_49_);}
	.st87{fill:url(#SVGID_50_);}
	.st88{opacity:0.1;clip-path:url(#SVGID_52_);}
	.st89{clip-path:url(#SVGID_54_);}
	.st90{fill:url(#SVGID_55_);}
	.st91{fill:url(#SVGID_56_);}
	.st92{fill:url(#SVGID_57_);}
	.st93{fill:url(#SVGID_58_);}
	.st94{fill:url(#SVGID_59_);}
	.st95{fill:url(#SVGID_60_);}
	.st96{fill:url(#SVGID_61_);}
	.st97{fill:url(#SVGID_62_);}
	.st98{fill:url(#SVGID_63_);}
	.st99{fill:url(#SVGID_64_);}
	.st100{fill:url(#SVGID_65_);}
	.st101{fill:url(#SVGID_66_);}
	.st102{fill:url(#SVGID_67_);}
	.st103{fill:url(#SVGID_68_);}
	.st104{fill:url(#SVGID_69_);}
	.st105{clip-path:url(#SVGID_71_);}
	.st106{fill:url(#SVGID_72_);}
	.st107{fill:url(#SVGID_73_);}
	.st108{fill:url(#SVGID_74_);}
	.st109{fill:url(#SVGID_75_);}
	.st110{fill:url(#SVGID_76_);}
	.st111{fill:url(#SVGID_77_);}
	.st112{fill:url(#SVGID_78_);}
	.st113{fill:url(#SVGID_79_);}
	.st114{fill:url(#SVGID_80_);}
	.st115{fill:url(#SVGID_81_);}
	.st116{fill:url(#SVGID_82_);}
	.st117{fill:url(#SVGID_83_);}
	.st118{fill:url(#SVGID_84_);}
	.st119{fill:url(#SVGID_85_);}
	.st120{fill:url(#SVGID_86_);}
	.st121{fill:url(#SVGID_87_);}
	.st122{fill:url(#SVGID_88_);}
	.st123{fill:#B2320F;}
	.st124{opacity:0.15;fill:#FFFFFF;}
	.st125{fill:url(#SVGID_89_);}
	.st126{fill:url(#SVGID_90_);}
	.st127{fill:url(#SVGID_91_);}
	.st128{fill:url(#SVGID_92_);}
	.st129{fill:url(#SVGID_93_);}
	.st130{clip-path:url(#SVGID_95_);}
	.st131{fill:url(#SVGID_96_);}
	.st132{fill:url(#SVGID_97_);}
	.st133{fill:url(#SVGID_98_);}
	.st134{fill:url(#SVGID_99_);}
	.st135{fill:url(#SVGID_100_);}
	.st136{fill:url(#SVGID_101_);}
	.st137{fill:url(#SVGID_102_);}
	.st138{fill:url(#SVGID_103_);}
	.st139{fill:url(#SVGID_104_);}
	.st140{fill:url(#SVGID_105_);}
	.st141{fill:url(#SVGID_106_);}
	.st142{clip-path:url(#SVGID_108_);}
</style>
<g id="Layer_1">
</g>
<g id="Layer_3">
</g>
<g id="bg">
	
		<linearGradient id="SVGID_1_" gradientUnits="userSpaceOnUse" x1="959.9991" y1="151.2893" x2="959.9991" y2="-314.2297" gradientTransform="matrix(-1 0 0 -1 1919.9991 208.2889)">
		<stop  offset="0" style="stop-color:#BC3B0D"/>
		<stop  offset="1" style="stop-color:#E85419"/>
	</linearGradient>
	<path class="st1" d="M1920,134.4c0,0-98.9-46-235.5-68s-283.5-4-672,40S208.4,35.9,0,142.4v380.1h1920V134.4z"/>
	<g>
		<defs>
			<path id="SVGID_107_" d="M1920,134.4c0,0-98.9-46-235.5-68s-283.5-4-672,40S208.4,35.9,0,142.4v380.1h1920V134.4z"/>
		</defs>
		<clipPath id="SVGID_3_">
			<use xlink:href="#SVGID_107_"  style="overflow:visible;"/>
		</clipPath>
		<g class="st2">
			<path class="st0" d="M360.7,148.4L360.7,148.4c-8.5,24.9-34.4,38.6-57.9,30.5l-84.9-29.3c-23.4-8.1-35.5-34.8-27-59.8l0,0
				c8.5-24.9,34.4-38.6,57.9-30.5l84.9,29.3C357.1,96.7,369.2,123.4,360.7,148.4z"/>
			<path class="st0" d="M321.9,292.9L321.9,292.9c-7.1-11-4.1-26.3,6.6-34.2l36.5-26.6c10.8-7.8,25.2-5.3,32.3,5.8l0,0
				c7.1,11,4.1,26.3-6.6,34.2l-36.5,26.6C343.4,306.5,328.9,303.9,321.9,292.9z"/>
			<path class="st0" d="M464.7,190.9L464.7,190.9c0.6-6.9,6.4-12.3,13-11.9l22.3,1.3c6.6,0.4,11.5,6.3,10.9,13.3v0
				c-0.6,6.9-6.4,12.3-13,11.9l-22.3-1.3C469,203.8,464.1,197.9,464.7,190.9z"/>
			<path class="st0" d="M488.5,292.2L488.5,292.2c0.3-4,3.7-7.1,7.5-6.9l3,0.2c3.8,0.2,6.6,3.7,6.3,7.7v0c-0.3,4-3.7,7.1-7.5,6.9
				l-3-0.2C491,299.6,488.2,296.2,488.5,292.2z"/>
			<path class="st0" d="M604.9,191.7L604.9,191.7c0.3-4,3.7-7.1,7.5-6.9l3,0.2c3.8,0.2,6.6,3.7,6.3,7.7v0c-0.3,4-3.7,7.1-7.5,6.9
				l-3-0.2C607.4,199.2,604.5,195.8,604.9,191.7z"/>
		</g>
		<g class="st2">
			<path class="st0" d="M1824,494.9L1824,494.9c-1.7,6.8-8.3,11.1-14.8,9.6l-21.8-4.9c-6.4-1.4-10.3-8.1-8.6-14.8l0,0
				c1.7-6.8,8.3-11.1,14.8-9.6l21.8,4.9C1821.9,481.5,1825.7,488.1,1824,494.9z"/>
			<path class="st0" d="M1877.8,416.8L1877.8,416.8c-2.5,3.2-7,3.8-10.1,1.5l-2.4-1.8c-3.1-2.3-3.5-6.7-1-9.9l0,0
				c2.5-3.2,7-3.8,10.1-1.5l2.4,1.8C1879.9,409.2,1880.3,413.7,1877.8,416.8z"/>
			<path class="st0" d="M1707.6,423.2L1707.6,423.2c-2.5,3.2-7,3.8-10.1,1.5l-2.4-1.8c-3.1-2.3-3.5-6.7-1-9.9l0,0
				c2.5-3.2,7-3.8,10.1-1.5l2.4,1.8C1709.7,415.6,1710.2,420.1,1707.6,423.2z"/>
		</g>
	</g>
</g>
</svg>
