<?xml version="1.0" encoding="utf-8"?>
<!-- Generator: Adobe Illustrator 22.0.1, SVG Export Plug-In . SVG Version: 6.00 Build 0)  -->
<svg version="1.1" xmlns="http://www.w3.org/2000/svg" xmlns:xlink="http://www.w3.org/1999/xlink" x="0px" y="0px"
	 viewBox="0 0 1920.7 521" style="enable-background:new 0 0 1920.7 521;" xml:space="preserve">
<style type="text/css">
	.st0{fill:#AA2F00;}
	.st1{fill:url(#SVGID_1_);}
	.st2{clip-path:url(#SVGID_3_);}
	.st3{fill:none;}
	.st4{clip-path:url(#SVGID_5_);}
	.st5{fill:#E5E5E5;}
	.st6{fill:url(#SVGID_6_);}
	.st7{clip-path:url(#SVGID_8_);}
	.st8{fill:#4625C1;}
	.st9{fill:url(#SVGID_9_);}
	.st10{fill:#61AAF7;}
	.st11{fill:#6535E4;}
	.st12{fill:#E85419;}
	.st13{fill:#FFFFFF;}
	.st14{fill:#E6E7E9;}
	.st15{fill:#FFFFFF;stroke:#BFCCD3;stroke-width:5;stroke-miterlimit:10;}
	.st16{fill:none;stroke:#BFCCD3;stroke-width:2;stroke-miterlimit:10;}
	.st17{fill:none;stroke:#E85419;stroke-width:5;stroke-miterlimit:10;}
	.st18{fill:none;stroke:#6435E3;stroke-miterlimit:10;}
	.st19{fill:#FF9B24;}
	.st20{fill:#2031A7;}
	.st21{fill:none;stroke:#FFFFFF;stroke-miterlimit:10;}
	.st22{fill:none;stroke:#F6FBFF;stroke-miterlimit:10;}
	.st23{fill:#3537AB;}
	.st24{fill:none;stroke:#3537AB;stroke-width:0.5;stroke-miterlimit:10;}
	.st25{fill:none;stroke:#F5FBFF;stroke-miterlimit:10;}
	.st26{fill:#6C75FF;}
	.st27{fill:#BFCCD3;}
	.st28{fill:#F6FBFF;}
	.st29{fill:#1F9B83;}
	.st30{fill:#53A9F4;}
	.st31{fill:none;stroke:#3F89F2;stroke-miterlimit:10;}
	.st32{fill:none;stroke:#177563;stroke-width:0.5;stroke-miterlimit:10;}
	.st33{fill:#3DC1A7;}
	.st34{fill:none;stroke:#1F9B83;stroke-width:0.5;stroke-miterlimit:10;}
	.st35{fill:none;stroke:#53A9F4;stroke-width:0.5;stroke-miterlimit:10;}
	.st36{fill:#FFFFFF;stroke:#3537AB;stroke-width:0.5;stroke-miterlimit:10;}
	.st37{fill:#33313D;}
	.st38{fill:none;stroke:#D9DBE8;stroke-miterlimit:10;}
	.st39{fill:#4094D3;}
	.st40{fill:#D9DBE8;}
	.st41{fill:none;stroke:#BFCCD3;stroke-width:3;stroke-miterlimit:10;}
	.st42{fill:#F1F2F2;stroke:#BFCCD3;stroke-width:2;stroke-miterlimit:10;}
	.st43{opacity:0.19;fill:#BFCCD3;stroke:#F1F2F2;stroke-width:2;stroke-miterlimit:10;}
	.st44{fill:url(#SVGID_10_);}
	.st45{fill:url(#SVGID_11_);}
	.st46{fill:url(#SVGID_12_);}
	.st47{clip-path:url(#SVGID_14_);}
	.st48{fill:none;stroke:#BFCCD3;stroke-miterlimit:10;}
	.st49{fill:url(#SVGID_15_);}
	.st50{fill:url(#SVGID_16_);}
	.st51{fill:url(#SVGID_17_);}
	.st52{fill:url(#SVGID_18_);}
	.st53{fill:#CE4617;}
	.st54{clip-path:url(#SVGID_20_);}
	.st55{fill:none;stroke:#FFFFFF;stroke-width:0.5;stroke-miterlimit:10;}
	.st56{fill:none;stroke:#E6E7E9;stroke-width:0.5;stroke-miterlimit:10;}
	.st57{fill:none;stroke:#61AAF7;stroke-miterlimit:10;}
	.st58{fill:none;stroke:#D9DBE8;stroke-width:0.5;stroke-miterlimit:10;}
	.st59{fill:none;stroke:#6535E4;stroke-width:0.5;stroke-miterlimit:10;}
	.st60{fill:url(#SVGID_21_);}
	.st61{fill:url(#SVGID_22_);}
	.st62{fill:url(#SVGID_23_);}
	.st63{fill:url(#SVGID_24_);}
	.st64{fill:url(#SVGID_25_);}
	.st65{fill:url(#SVGID_26_);}
	.st66{fill:url(#SVGID_27_);}
	.st67{fill:url(#SVGID_28_);}
	.st68{fill:url(#SVGID_29_);}
	.st69{fill:none;stroke:#CE7C24;stroke-width:0.5;stroke-miterlimit:10;}
	.st70{fill:url(#SVGID_30_);}
	.st71{fill:url(#SVGID_31_);}
	.st72{fill:url(#SVGID_32_);}
	.st73{clip-path:url(#SVGID_34_);}
	.st74{fill:url(#SVGID_35_);}
	.st75{fill:url(#SVGID_36_);}
	.st76{fill:url(#SVGID_37_);}
	.st77{fill:url(#SVGID_38_);}
	.st78{fill:url(#SVGID_39_);}
	.st79{fill:url(#SVGID_40_);}
	.st80{fill:url(#SVGID_41_);}
	.st81{fill:url(#SVGID_42_);}
	.st82{fill:url(#SVGID_43_);}
	.st83{fill:url(#SVGID_44_);}
	.st84{fill:url(#SVGID_45_);}
	.st85{opacity:0.1;clip-path:url(#SVGID_47_);}
	.st86{fill:url(#SVGID_48_);}
	.st87{opacity:0.1;clip-path:url(#SVGID_50_);}
	.st88{clip-path:url(#SVGID_52_);}
	.st89{fill:url(#SVGID_53_);}
	.st90{fill:url(#SVGID_54_);}
	.st91{fill:url(#SVGID_55_);}
	.st92{fill:url(#SVGID_56_);}
	.st93{fill:url(#SVGID_57_);}
	.st94{fill:url(#SVGID_58_);}
	.st95{fill:url(#SVGID_59_);}
	.st96{fill:url(#SVGID_60_);}
	.st97{fill:url(#SVGID_61_);}
	.st98{fill:url(#SVGID_62_);}
	.st99{fill:url(#SVGID_63_);}
	.st100{fill:url(#SVGID_64_);}
	.st101{fill:url(#SVGID_65_);}
	.st102{fill:url(#SVGID_66_);}
	.st103{fill:url(#SVGID_67_);}
	.st104{clip-path:url(#SVGID_69_);}
	.st105{fill:url(#SVGID_70_);}
	.st106{fill:url(#SVGID_71_);}
	.st107{fill:url(#SVGID_72_);}
	.st108{fill:url(#SVGID_73_);}
	.st109{fill:url(#SVGID_74_);}
	.st110{fill:url(#SVGID_75_);}
	.st111{fill:url(#SVGID_76_);}
	.st112{fill:url(#SVGID_77_);}
	.st113{fill:url(#SVGID_78_);}
	.st114{fill:url(#SVGID_79_);}
	.st115{fill:url(#SVGID_80_);}
	.st116{fill:url(#SVGID_81_);}
	.st117{fill:url(#SVGID_82_);}
	.st118{fill:url(#SVGID_83_);}
	.st119{fill:url(#SVGID_84_);}
	.st120{fill:url(#SVGID_85_);}
	.st121{fill:url(#SVGID_86_);}
	.st122{fill:#B2320F;}
	.st123{opacity:0.15;fill:#FFFFFF;}
	.st124{fill:url(#SVGID_87_);}
	.st125{fill:url(#SVGID_88_);}
	.st126{fill:url(#SVGID_89_);}
	.st127{fill:url(#SVGID_90_);}
	.st128{fill:url(#SVGID_91_);}
	.st129{clip-path:url(#SVGID_93_);}
	.st130{fill:url(#SVGID_94_);}
	.st131{fill:url(#SVGID_95_);}
	.st132{fill:url(#SVGID_96_);}
	.st133{fill:url(#SVGID_97_);}
	.st134{fill:url(#SVGID_98_);}
	.st135{fill:url(#SVGID_99_);}
	.st136{fill:url(#SVGID_100_);}
	.st137{fill:url(#SVGID_101_);}
	.st138{fill:url(#SVGID_102_);}
	.st139{fill:url(#SVGID_103_);}
	.st140{fill:url(#SVGID_104_);}
	.st141{clip-path:url(#SVGID_106_);}
	.st142{fill:url(#SVGID_107_);}
	.st143{opacity:0.1;clip-path:url(#SVGID_109_);}
</style>
<g id="Layer_1">
</g>
<g id="Layer_3">
</g>
<g id="bg">
	
		<linearGradient id="SVGID_1_" gradientUnits="userSpaceOnUse" x1="960.611" y1="520.4958" x2="960.611" y2="0.9509" gradientTransform="matrix(1 -1.073073e-03 1.073073e-03 1 -0.4506 1.1099)">
		<stop  offset="0" style="stop-color:#BC3B0D"/>
		<stop  offset="1" style="stop-color:#E85419"/>
	</linearGradient>
	<path class="st1" d="M0.7,347.5c0,0,210.2,272,891.2,134.9c387.9-78.1,820.6,21.6,1028.8-160.1L1920,0L0,2.1L0.7,347.5z"/>
	<g>
		<defs>
			<path id="SVGID_108_" d="M0.7,347.5c0,0,210.2,272,891.2,134.9c387.9-78.1,820.6,21.6,1028.8-160.1L1920,0L0,2.1L0.7,347.5z"/>
		</defs>
		<clipPath id="SVGID_3_">
			<use xlink:href="#SVGID_108_"  style="overflow:visible;"/>
		</clipPath>
		<g style="opacity:0.1;clip-path:url(#SVGID_3_);">
			<g>
				<path class="st13" d="M1398.5,306.4c2.1-1,3.6-2.9,3.9-5.2c0.3-2.3-0.5-4.6-2.3-6.1l-52.6-45.4c12.9-20.9,8.8-48.1-9.8-64.1
					c-18.6-16-46.1-16.2-64.9-0.4l-52.6-45.4c-1.8-1.5-4.2-2-6.4-1.4c-2.2,0.7-3.9,2.4-4.6,4.6L1177.3,257
					c-10.6,37.3-29.2,71.9-54.5,101.4c-10.2,11.9-8.9,29.8,2.9,40l32.7,28.2c11.9,10.2,29.8,8.9,40-2.9c0.2-0.2,0.4-0.4,0.5-0.6
					l67.6,58.3c2.8,2.4,7.1,2.1,9.5-0.7c18-20.9,15.7-52.4-5.2-70.5l-30.1-26c15.5-11.6,32.3-21.4,49.9-29.4L1398.5,306.4z
					 M1328.9,195.9c12.9,11.2,16.4,29.8,8.3,44.9l-53.8-46.5C1297,184.1,1316,184.8,1328.9,195.9L1328.9,195.9z M1178,419.9
					c-3.9,0.3-7.8-1-10.8-3.6l-32.7-28.2c-6.2-5.3-6.9-14.7-1.5-20.9c4.9-5.6,9.5-11.5,13.9-17.5l56.5,48.8
					c-5.3,5.2-10.4,10.7-15.3,16.3C1185.6,417.8,1181.9,419.6,1178,419.9L1178,419.9z M1262,420.5c13.2,11.4,16.5,30.7,7.7,45.8
					l-61.7-53.3c6.9-7.2,14.2-13.9,21.9-20.3L1262,420.5z M1213.4,389.2l-58.7-50.7c15.8-24,27.8-50.2,35.7-77.8l29.3-103.6
					l163.7,141.3l-98.2,44.1C1259,354.3,1234.8,370.1,1213.4,389.2L1213.4,389.2z M1213.4,389.2"/>
				<path class="st13" d="M1374.3,159c-22.3-19.3-54-23.4-80.5-10.3c-3.4,1.6-4.7,5.7-3.1,9.1c1.6,3.4,5.7,4.7,9.1,3.1
					c21.6-10.6,47.4-7.3,65.7,8.4c18.2,15.7,25.3,40.8,18,63.7c-1.1,3.6,0.8,7.4,4.4,8.5c3.6,1.1,7.4-0.8,8.5-4.4
					C1405.3,209,1396.6,178.3,1374.3,159L1374.3,159z M1374.3,159"/>
				<path class="st13" d="M1421.5,251.6c3.6,1.1,7.4-0.8,8.5-4.4c13.3-41.4,0.5-86.8-32.5-115.2c-32.9-28.4-79.7-34.4-118.7-15.3
					c-2.2,1.1-3.6,3.2-3.8,5.6c-0.2,2.4,1,4.8,3,6.1c2,1.3,4.6,1.5,6.8,0.4c34.2-16.8,75.1-11.5,103.9,13.3
					c28.8,24.9,40,64.6,28.4,100.9C1416,246.7,1418,250.5,1421.5,251.6L1421.5,251.6z M1421.5,251.6"/>
				<path class="st13" d="M1473.8-67.1c-56.2,4.1-98.3,53-94.2,109.2s53,98.3,109.2,94.2c56.2-4.1,98.3-53,94.2-109.2
					C1578.7-29.1,1529.9-71.2,1473.8-67.1L1473.8-67.1z M1487.7,122.7c-48.7,3.6-91.1-33-94.7-81.7c-3.6-48.7,33-91.1,81.7-94.7
					c48.7-3.6,91.1,33,94.7,81.7C1572.9,76.7,1536.4,119.1,1487.7,122.7L1487.7,122.7z M1487.7,122.7"/>
				<path class="st13" d="M1516.9,20c13.9-1,24.4-13.1,23.4-27.1c-1-13.9-13.1-24.4-27-23.4c-13.9,1-24.4,13.1-23.5,27l-30,20.4
					c-10.7-8-25.9-6.2-34.5,4c-8.6,10.3-7.8,25.5,2,34.7c9.7,9.2,25,9.3,34.7,0.1l33.6,17.7c2.2,12.4,13.2,21.2,25.8,20.8
					c12.6-0.4,22.9-10,24.3-22.5c1.4-12.5-6.6-24.1-18.7-27.3c-12.2-3.2-24.8,3-29.8,14.6l-28.1-14.9c1.5-5.4,1.2-11.2-0.9-16.5
					l26.4-18C1499.7,16.7,1508.2,20.7,1516.9,20L1516.9,20z M1514.2-16.9c6.5-0.5,12.1,4.4,12.6,10.9c0.5,6.5-4.4,12.1-10.9,12.6
					c-6.5,0.5-12.1-4.4-12.6-10.9C1502.8-10.8,1507.7-16.5,1514.2-16.9L1514.2-16.9z M1445.6,49c-6.5,0.5-12.1-4.4-12.6-10.9
					c-0.5-6.5,4.4-12.1,10.9-12.6c6.5-0.5,12.1,4.4,12.6,10.9C1456.9,42.8,1452.1,48.5,1445.6,49L1445.6,49z M1519.6,57.2
					c6.5-0.5,12.1,4.4,12.6,10.9c0.5,6.5-4.4,12.1-10.9,12.6c-6.5,0.5-12.1-4.4-12.6-10.9C1508.3,63.3,1513.1,57.6,1519.6,57.2
					L1519.6,57.2z M1519.6,57.2"/>
				<path class="st13" d="M1499.5,283c-56.2,4.1-98.3,53-94.2,109.2c4.1,56.2,53,98.3,109.2,94.2c56.2-4.1,98.3-53,94.2-109.2
					C1604.5,321.1,1555.7,279,1499.5,283L1499.5,283z M1513.5,472.9c-48.7,3.6-91.1-33-94.7-81.7s33-91.1,81.7-94.7
					c48.7-3.6,91.1,33,94.7,81.7C1598.7,426.9,1562.2,469.2,1513.5,472.9L1513.5,472.9z M1513.5,472.9"/>
				<path class="st13" d="M1548.3,375.9l-57.8-30.1c-2.2-1.1-4.8-1-6.8,0.3c-2,1.3-3.2,3.7-3,6.1l5,68.4c0.2,2.4,1.7,4.6,3.9,5.6
					c2.2,1,4.8,0.8,6.8-0.7l52.8-38.3c1.9-1.4,2.9-3.6,2.8-6C1551.8,379,1550.4,377,1548.3,375.9L1548.3,375.9z M1498.3,407.5
					l-3.3-44.2l37.3,19.5L1498.3,407.5z M1498.3,407.5"/>
				<path class="st13" d="M1138.5,162c56.2-4.1,98.3-53,94.2-109.2c-4.1-56.2-53-98.3-109.2-94.2s-98.3,53-94.2,109.2
					C1033.6,123.9,1082.4,166,1138.5,162L1138.5,162z M1124.6-27.9c48.7-3.6,91.1,33,94.7,81.7s-33,91.1-81.7,94.7
					c-48.7,3.6-91.1-33-94.7-81.7C1039.4,18.1,1075.9-24.2,1124.6-27.9L1124.6-27.9z M1124.6-27.9"/>
				<path class="st13" d="M1092.6,103.7l48.3-3.6c9.9-0.7,17.4-9.4,16.7-19.3l-0.1-1.1l25.7,11.7c2.2,1,4.7,0.8,6.7-0.6
					c2-1.4,3.1-3.7,2.9-6.1l-4.3-57.8c-0.2-2.4-1.6-4.5-3.7-5.6c-2.1-1.1-4.7-0.9-6.7,0.4l-23.7,15.4l-0.1-1.1
					c-0.7-9.9-9.4-17.4-19.3-16.7l-48.3,3.6c-9.9,0.7-17.4,9.4-16.7,19.3l3.3,44.7C1074,97,1082.6,104.4,1092.6,103.7L1092.6,103.7z
					 M1175.8,39.4l2.6,35l-22-10.1l-0.9-11.8L1175.8,39.4z M1083.4,41.3c-0.2-2.5,1.7-4.6,4.2-4.8l48.3-3.6c2.5-0.2,4.6,1.7,4.8,4.2
					l3.3,44.7c0.2,2.5-1.7,4.6-4.2,4.8l-48.3,3.6c-2.5,0.2-4.6-1.7-4.8-4.2L1083.4,41.3z M1083.4,41.3"/>
			</g>
		</g>
	</g>
</g>
</svg>
