<?xml version="1.0" encoding="utf-8"?>
<!-- Generator: Adobe Illustrator 22.0.1, SVG Export Plug-In . SVG Version: 6.00 Build 0)  -->
<svg version="1.1" xmlns="http://www.w3.org/2000/svg" xmlns:xlink="http://www.w3.org/1999/xlink" x="0px" y="0px"
	 viewBox="0 0 1920 836.7" style="enable-background:new 0 0 1920 836.7;" xml:space="preserve">
<style type="text/css">
	.st0{fill:#AA2F00;}
	.st1{fill:url(#SVGID_1_);}
	.st2{clip-path:url(#SVGID_3_);}
	.st3{fill:none;}
	.st4{clip-path:url(#SVGID_5_);}
	.st5{fill:#E5E5E5;}
	.st6{opacity:0.71;}
	.st7{fill:url(#SVGID_8_);}
	.st8{clip-path:url(#SVGID_10_);}
	.st9{fill:#4625C1;}
	.st10{fill:url(#SVGID_11_);}
	.st11{fill:#61AAF7;}
	.st12{fill:#6535E4;}
	.st13{fill:#E85419;}
	.st14{fill:#FFFFFF;}
	.st15{fill:#E6E7E9;}
	.st16{fill:#FFFFFF;stroke:#BFCCD3;stroke-width:5;stroke-miterlimit:10;}
	.st17{fill:none;stroke:#BFCCD3;stroke-width:2;stroke-miterlimit:10;}
	.st18{fill:none;stroke:#E85419;stroke-width:5;stroke-miterlimit:10;}
	.st19{fill:none;stroke:#6435E3;stroke-miterlimit:10;}
	.st20{fill:#FF9B24;}
	.st21{fill:#2031A7;}
	.st22{fill:none;stroke:#FFFFFF;stroke-miterlimit:10;}
	.st23{fill:none;stroke:#F6FBFF;stroke-miterlimit:10;}
	.st24{fill:#3537AB;}
	.st25{fill:none;stroke:#3537AB;stroke-width:0.5;stroke-miterlimit:10;}
	.st26{fill:none;stroke:#F5FBFF;stroke-miterlimit:10;}
	.st27{fill:#6C75FF;}
	.st28{fill:#BFCCD3;}
	.st29{fill:#F6FBFF;}
	.st30{fill:#1F9B83;}
	.st31{fill:#53A9F4;}
	.st32{fill:none;stroke:#3F89F2;stroke-miterlimit:10;}
	.st33{fill:none;stroke:#177563;stroke-width:0.5;stroke-miterlimit:10;}
	.st34{fill:#3DC1A7;}
	.st35{fill:none;stroke:#1F9B83;stroke-width:0.5;stroke-miterlimit:10;}
	.st36{fill:none;stroke:#53A9F4;stroke-width:0.5;stroke-miterlimit:10;}
	.st37{fill:#FFFFFF;stroke:#3537AB;stroke-width:0.5;stroke-miterlimit:10;}
	.st38{fill:#33313D;}
	.st39{fill:none;stroke:#D9DBE8;stroke-miterlimit:10;}
	.st40{fill:#4094D3;}
	.st41{fill:#D9DBE8;}
	.st42{fill:none;stroke:#BFCCD3;stroke-width:3;stroke-miterlimit:10;}
	.st43{fill:#F1F2F2;stroke:#BFCCD3;stroke-width:2;stroke-miterlimit:10;}
	.st44{opacity:0.19;fill:#BFCCD3;stroke:#F1F2F2;stroke-width:2;stroke-miterlimit:10;}
	.st45{fill:url(#SVGID_12_);}
	.st46{fill:url(#SVGID_13_);}
	.st47{fill:url(#SVGID_14_);}
	.st48{clip-path:url(#SVGID_16_);}
	.st49{fill:none;stroke:#BFCCD3;stroke-miterlimit:10;}
	.st50{fill:url(#SVGID_17_);}
	.st51{fill:url(#SVGID_18_);}
	.st52{fill:url(#SVGID_19_);}
	.st53{fill:url(#SVGID_20_);}
	.st54{fill:#CE4617;}
	.st55{clip-path:url(#SVGID_22_);}
	.st56{fill:none;stroke:#FFFFFF;stroke-width:0.5;stroke-miterlimit:10;}
	.st57{fill:none;stroke:#E6E7E9;stroke-width:0.5;stroke-miterlimit:10;}
	.st58{fill:none;stroke:#61AAF7;stroke-miterlimit:10;}
	.st59{fill:none;stroke:#D9DBE8;stroke-width:0.5;stroke-miterlimit:10;}
	.st60{fill:none;stroke:#6535E4;stroke-width:0.5;stroke-miterlimit:10;}
	.st61{fill:url(#SVGID_23_);}
	.st62{fill:url(#SVGID_24_);}
	.st63{fill:url(#SVGID_25_);}
	.st64{fill:url(#SVGID_26_);}
	.st65{fill:url(#SVGID_27_);}
	.st66{fill:url(#SVGID_28_);}
	.st67{fill:url(#SVGID_29_);}
	.st68{fill:url(#SVGID_30_);}
	.st69{fill:url(#SVGID_31_);}
	.st70{fill:none;stroke:#CE7C24;stroke-width:0.5;stroke-miterlimit:10;}
	.st71{fill:url(#SVGID_32_);}
	.st72{fill:url(#SVGID_33_);}
	.st73{fill:url(#SVGID_34_);}
	.st74{clip-path:url(#SVGID_36_);}
	.st75{fill:url(#SVGID_37_);}
	.st76{fill:url(#SVGID_38_);}
	.st77{fill:url(#SVGID_39_);}
	.st78{fill:url(#SVGID_40_);}
	.st79{fill:url(#SVGID_41_);}
	.st80{fill:url(#SVGID_42_);}
	.st81{fill:url(#SVGID_43_);}
	.st82{fill:url(#SVGID_44_);}
	.st83{fill:url(#SVGID_45_);}
	.st84{fill:url(#SVGID_46_);}
	.st85{fill:url(#SVGID_47_);}
	.st86{opacity:0.1;clip-path:url(#SVGID_49_);}
	.st87{fill:url(#SVGID_50_);}
	.st88{opacity:0.1;clip-path:url(#SVGID_52_);}
	.st89{clip-path:url(#SVGID_54_);}
	.st90{fill:url(#SVGID_55_);}
	.st91{fill:url(#SVGID_56_);}
	.st92{fill:url(#SVGID_57_);}
	.st93{fill:url(#SVGID_58_);}
	.st94{fill:url(#SVGID_59_);}
	.st95{fill:url(#SVGID_60_);}
	.st96{fill:url(#SVGID_61_);}
	.st97{fill:url(#SVGID_62_);}
	.st98{fill:url(#SVGID_63_);}
	.st99{fill:url(#SVGID_64_);}
	.st100{fill:url(#SVGID_65_);}
	.st101{fill:url(#SVGID_66_);}
	.st102{fill:url(#SVGID_67_);}
	.st103{fill:url(#SVGID_68_);}
	.st104{fill:url(#SVGID_69_);}
	.st105{clip-path:url(#SVGID_71_);}
	.st106{fill:url(#SVGID_72_);}
	.st107{fill:url(#SVGID_73_);}
	.st108{fill:url(#SVGID_74_);}
	.st109{fill:url(#SVGID_75_);}
	.st110{fill:url(#SVGID_76_);}
	.st111{fill:url(#SVGID_77_);}
	.st112{fill:url(#SVGID_78_);}
	.st113{fill:url(#SVGID_79_);}
	.st114{fill:url(#SVGID_80_);}
	.st115{fill:url(#SVGID_81_);}
	.st116{fill:url(#SVGID_82_);}
	.st117{fill:url(#SVGID_83_);}
	.st118{fill:url(#SVGID_84_);}
	.st119{fill:url(#SVGID_85_);}
	.st120{fill:url(#SVGID_86_);}
	.st121{fill:url(#SVGID_87_);}
	.st122{fill:url(#SVGID_88_);}
	.st123{fill:#B2320F;}
	.st124{opacity:0.15;fill:#FFFFFF;}
	.st125{fill:url(#SVGID_89_);}
	.st126{fill:url(#SVGID_90_);}
	.st127{fill:url(#SVGID_91_);}
	.st128{fill:url(#SVGID_92_);}
	.st129{fill:url(#SVGID_93_);}
	.st130{clip-path:url(#SVGID_95_);}
	.st131{fill:url(#SVGID_96_);}
	.st132{fill:url(#SVGID_97_);}
	.st133{fill:url(#SVGID_98_);}
	.st134{fill:url(#SVGID_99_);}
	.st135{fill:url(#SVGID_100_);}
	.st136{fill:url(#SVGID_101_);}
	.st137{fill:url(#SVGID_102_);}
	.st138{fill:url(#SVGID_103_);}
	.st139{fill:url(#SVGID_104_);}
	.st140{fill:url(#SVGID_105_);}
	.st141{fill:url(#SVGID_106_);}
	.st142{clip-path:url(#SVGID_108_);}
</style>
<g id="Layer_1">
</g>
<g id="Layer_3">
</g>
<g id="bg">
	<linearGradient id="SVGID_1_" gradientUnits="userSpaceOnUse" x1="960" y1="836.7477" x2="960" y2="0">
		<stop  offset="0" style="stop-color:#4625C1"/>
		<stop  offset="1" style="stop-color:#467EF7"/>
	</linearGradient>
	<path class="st1" d="M0,607.8c0,0,124.4,160.5,261,198c136.5,37.5,241.5,52.5,630-22.5s820.5,22.5,1029-159V0L0,0V607.8z"/>
	<g>
		<defs>
			<path id="SVGID_9_" d="M0,607.8c0,0,124.4,160.5,261,198c136.5,37.5,241.5,52.5,630-22.5s820.5,22.5,1029-159V0L0,0V607.8z"/>
		</defs>
		<clipPath id="SVGID_3_">
			<use xlink:href="#SVGID_9_"  style="overflow:visible;"/>
		</clipPath>
		<g class="st2">
			<path class="st9" d="M63.9,316.9L63.9,316.9c-19.9,14.8-48.1,10.7-63-9.3l-53.7-72.2c-14.8-19.9-10.7-48.1,9.3-63l0,0
				c19.9-14.8,48.1-10.7,63,9.3l53.7,72.2C88,273.8,83.8,302,63.9,316.9z"/>
			<path class="st9" d="M-43.1,409L-43.1,409c0-12.8,10.4-23.2,23.2-23.2h43.5c12.8,0,23.2,10.4,23.2,23.2v0
				c0,12.8-10.4,23.2-23.2,23.2h-43.5C-32.7,432.2-43.1,421.8-43.1,409z"/>
			<path class="st9" d="M126.2,410.7L126.2,410.7c4.1-5.2,11.6-6,16.8-1.9l17.5,13.9c5.2,4.1,6,11.6,1.9,16.8l0,0
				c-4.1,5.2-11.6,6-16.8,1.9l-17.5-13.9C123,423.3,122.1,415.8,126.2,410.7z"/>
			<path class="st9" d="M92.7,504.6L92.7,504.6c2.4-3,6.7-3.5,9.7-1.1l2.4,1.9c3,2.4,3.5,6.7,1.1,9.7h0c-2.4,3-6.7,3.5-9.7,1.1
				l-2.4-1.9C90.8,512,90.3,507.6,92.7,504.6z"/>
			<path class="st9" d="M252.2,442.6L252.2,442.6c2.4-3,6.7-3.5,9.7-1.1l2.4,1.9c3,2.4,3.5,6.7,1.1,9.7l0,0c-2.4,3-6.7,3.5-9.7,1.1
				l-2.4-1.9C250.3,450,249.8,445.6,252.2,442.6z"/>
		</g>
		<g class="st2">
			<g>
				<path class="st9" d="M1852.5,257.2L1852.5,257.2c17.8,17.8,46.6,18,64.3,0.4l63.9-63.5c17.6-17.5,17.5-46.1-0.4-63.9v0
					c-17.8-17.8-46.6-18-64.3-0.4l-63.9,63.5C1834.5,210.8,1834.7,239.4,1852.5,257.2z"/>
				<path class="st9" d="M1946.5,364.9L1946.5,364.9c1.8-12.7-7.1-24.7-20-26.6l-43.5-6.7c-12.8-2-24.7,6.8-26.5,19.5v0
					c-1.8,12.7,7.1,24.7,20,26.6l43.5,6.7C1932.8,386.4,1944.7,377.7,1946.5,364.9z"/>
				<path class="st9" d="M1776.9,340.7L1776.9,340.7c-3.4-5.8-10.8-7.8-16.5-4.5l-19.5,11.1c-5.7,3.3-7.7,10.6-4.3,16.4v0
					c3.4,5.8,10.8,7.8,16.5,4.5l19.5-11.1C1778.4,353.8,1780.3,346.5,1776.9,340.7z"/>
				<path class="st9" d="M1797.2,439.1L1797.2,439.1c-2-3.3-6.2-4.5-9.6-2.6l-2.6,1.5c-3.3,1.9-4.4,6.1-2.5,9.5v0
					c2,3.3,6.2,4.5,9.6,2.6l2.6-1.5C1798,446.7,1799.1,442.4,1797.2,439.1z"/>
				<path class="st9" d="M1646.5,353.2L1646.5,353.2c-2-3.3-6.2-4.5-9.6-2.6l-2.6,1.5c-3.3,1.9-4.4,6.1-2.5,9.5l0,0
					c2,3.3,6.2,4.5,9.6,2.6l2.6-1.5C1647.3,360.8,1648.4,356.5,1646.5,353.2z"/>
			</g>
		</g>
	</g>
	<path class="st3" d="M0,607.8c0,0,124.4,160.5,261,198c136.5,37.5,241.5,52.5,630-22.5s820.5,22.5,1029-159V0L0,0V607.8z"/>
	<g>
		<defs>
			<path id="SVGID_53_" d="M0,607.8c0,0,124.4,160.5,261,198c136.5,37.5,241.5,52.5,630-22.5s820.5,22.5,1029-159V0L0,0V607.8z"/>
		</defs>
		<clipPath id="SVGID_5_">
			<use xlink:href="#SVGID_53_"  style="overflow:visible;"/>
		</clipPath>
		<g class="st4">
			<linearGradient id="SVGID_7_" gradientUnits="userSpaceOnUse" x1="473.5269" y1="904.2479" x2="473.5269" y2="656.2269">
				<stop  offset="0" style="stop-color:#61CBF7"/>
				<stop  offset="1" style="stop-color:#467EF7"/>
			</linearGradient>
			<path style="fill:url(#SVGID_7_);" d="M537.4,656.2H409.7c-7.2,0-11,8.5-6.2,13.9l11.9,13.2c1.3,1.5,2.1,3.4,2.1,5.4l-0.2,32.8
				l-0.1,17.1l0,19.5h0v11.7l0,75.4c0,0.3,0,0.6,0,0.9v27.3c0,17,13.8,30.8,30.8,30.8h50.1c17,0,30.8-13.8,30.8-30.8v-21.3
				c0.3-2.3,0.4-4.6,0.4-6.9l0-80.1l0.1-43.2l0-2.3l0.1-16.4l0-5.3l0-8.7c0-0.2,0-0.4,0-0.6c0-2,0.8-3.9,2.2-5.4l11.9-13.2
				C548.4,664.8,544.6,656.2,537.4,656.2z"/>
			<g>
				<g>
					<path class="st14" d="M449.3,692.5c-0.9,0-1.6-0.7-1.6-1.6v-5c0-0.9,0.7-1.6,1.6-1.6c0.9,0,1.6,0.7,1.6,1.6v5
						C450.9,691.8,450.2,692.5,449.3,692.5z"/>
					<path class="st14" d="M455.9,699.2c0-0.9,0.7-1.6,1.6-1.6h5c0.9,0,1.6,0.7,1.6,1.6c0,0.9-0.7,1.6-1.6,1.6h-5
						C456.6,700.7,455.9,700,455.9,699.2z"/>
					<path class="st14" d="M454,703.8c0.6-0.6,1.6-0.6,2.2,0l3.5,3.5c0.6,0.6,0.6,1.6,0,2.2c-0.6,0.6-1.6,0.6-2.2,0l-3.5-3.5
						C453.4,705.4,453.4,704.4,454,703.8z"/>
					<path class="st14" d="M444.6,694.4c-0.6,0.6-1.6,0.6-2.2,0l-3.5-3.5c-0.6-0.6-0.6-1.6,0-2.2c0.6-0.6,1.6-0.6,2.2,0l3.5,3.5
						C445.2,692.8,445.2,693.8,444.6,694.4z"/>
					<path class="st14" d="M454,694.4c-0.6-0.6-0.6-1.6,0-2.2l3.5-3.5c0.6-0.6,1.6-0.6,2.2,0c0.6,0.6,0.6,1.6,0,2.2l-3.5,3.5
						C455.6,695.1,454.6,695.1,454,694.4z"/>
					<path class="st14" d="M450.8,698.7C450.8,698.7,450.8,698.7,450.8,698.7c0,0,0-0.1,0-0.1c0,0,0,0,0,0c0,0,0-0.1-0.1-0.1
						c0,0,0,0,0,0c0,0,0-0.1-0.1-0.1c0,0,0,0,0,0c-0.1-0.2-0.3-0.3-0.5-0.5c0,0,0,0,0,0c0,0-0.1-0.1-0.1-0.1c0,0,0,0,0,0
						c0,0-0.1,0-0.1-0.1c0,0,0,0,0,0c0,0-0.1,0-0.1,0c0,0,0,0,0,0c0,0-0.1,0-0.1,0h0c-0.1,0-0.2,0-0.3,0h-13.2
						c-0.9,0-1.6,0.7-1.6,1.6c0,0.9,0.7,1.6,1.6,1.6h9.3l-6.6,6.6c-0.6,0.6-0.6,1.6,0,2.2c0.3,0.3,0.7,0.5,1.1,0.5
						c0.4,0,0.8-0.2,1.1-0.5l6.6-6.6v9.3c0,0.9,0.7,1.6,1.6,1.6c0.9,0,1.6-0.7,1.6-1.6v-13.2C450.9,699,450.9,698.8,450.8,698.7z"/>
					<path class="st14" d="M472.7,692.7c0.3-0.3,0.7-0.4,1.1-0.4c0.4,0,0.8,0.1,1.1,0.4c0.3,0.3,0.5,0.7,0.5,1.1v10.7
						c0,0.4-0.2,0.8-0.5,1.1c-0.3,0.3-0.7,0.4-1.1,0.4c-0.4,0-0.8-0.1-1.1-0.4c-0.3-0.3-0.5-0.7-0.5-1.1v-10.7
						C472.2,693.3,472.4,693,472.7,692.7z"/>
					<path class="st14" d="M479.7,695.4h-1.3c-0.2,0-0.4,0-0.6-0.1c-0.2-0.1-0.3-0.2-0.5-0.4c-0.1-0.1-0.3-0.3-0.3-0.5
						c-0.1-0.2-0.1-0.4-0.1-0.5c0-0.2,0-0.4,0.1-0.6c0.1-0.2,0.2-0.4,0.3-0.5c0.1-0.1,0.3-0.3,0.5-0.3c0.2-0.1,0.4-0.1,0.6-0.1h5.8
						c0.2,0,0.4,0,0.6,0.1c0.2,0.1,0.4,0.2,0.5,0.3c0.1,0.1,0.3,0.3,0.3,0.5c0.1,0.2,0.1,0.4,0.1,0.6c0,0.2,0,0.4-0.1,0.5
						c-0.1,0.2-0.2,0.3-0.3,0.5c-0.1,0.1-0.3,0.3-0.5,0.4c-0.2,0.1-0.4,0.1-0.6,0.1h-1.3v9.1c0,0.5-0.2,0.8-0.5,1.1
						c-0.3,0.3-0.7,0.4-1.1,0.4c-0.4,0-0.8-0.1-1.1-0.4c-0.3-0.3-0.5-0.6-0.5-1.1V695.4z"/>
					<path class="st14" d="M495,696.2c-0.3-0.2-0.7-0.4-1.1-0.6c-0.4-0.2-0.8-0.2-1.3-0.3c-0.5,0-1,0.1-1.5,0.3
						c-0.5,0.2-0.9,0.5-1.2,0.8c-0.3,0.3-0.6,0.7-0.8,1.2c-0.2,0.5-0.3,0.9-0.3,1.5c0,0.5,0.1,1,0.3,1.4c0.2,0.4,0.5,0.8,0.9,1.2
						c0.4,0.3,0.8,0.6,1.2,0.8c0.5,0.2,0.9,0.3,1.4,0.4c0.4,0,0.8-0.1,1.2-0.2c0.4-0.2,0.8-0.4,1.1-0.6c0.3-0.3,0.7-0.4,1.1-0.4
						c0.4,0,0.8,0.1,1.1,0.4c0.3,0.3,0.5,0.7,0.5,1.1c0,0.4-0.1,0.6-0.3,0.9c-0.2,0.2-0.3,0.4-0.5,0.5c-0.1,0.1-0.2,0.2-0.4,0.3
						c-0.2,0.2-0.5,0.3-0.9,0.5c-0.4,0.2-0.8,0.3-1.3,0.5c-0.5,0.1-1.1,0.2-1.8,0.2c-1,0-1.9-0.2-2.7-0.6c-0.8-0.4-1.6-0.9-2.2-1.5
						c-0.6-0.6-1.1-1.4-1.5-2.2c-0.4-0.8-0.5-1.8-0.5-2.7c0-1,0.2-1.9,0.5-2.7c0.4-0.8,0.9-1.6,1.5-2.2c0.6-0.6,1.4-1.1,2.2-1.5
						c0.8-0.4,1.7-0.5,2.7-0.5c0.7,0,1.3,0.1,1.8,0.2c0.5,0.1,0.9,0.3,1.3,0.5c0.4,0.2,0.6,0.3,0.9,0.5c0.2,0.2,0.3,0.3,0.4,0.3
						c0.1,0.1,0.3,0.3,0.5,0.5c0.2,0.2,0.3,0.5,0.3,0.9c0,0.4-0.2,0.8-0.5,1.1c-0.3,0.3-0.7,0.5-1.1,0.5
						C495.7,696.6,495.4,696.4,495,696.2z"/>
					<path class="st14" d="M512.1,700.2c-0.1,0.6-0.2,1.1-0.5,1.6c-0.4,0.8-0.9,1.6-1.5,2.2c-0.6,0.6-1.4,1.1-2.2,1.5
						c-0.8,0.4-1.7,0.5-2.7,0.5c-1,0-1.9-0.2-2.7-0.5c-0.8-0.4-1.6-0.9-2.2-1.5c-0.6-0.6-1.1-1.4-1.5-2.2c-0.4-0.8-0.5-1.7-0.5-2.7
						c0-1,0.2-1.9,0.5-2.7c0.4-0.8,0.9-1.6,1.5-2.2c0.6-0.6,1.4-1.1,2.2-1.5c0.8-0.4,1.7-0.6,2.7-0.6c0.7,0,1.3,0.1,1.8,0.2
						c0.5,0.1,1,0.3,1.3,0.5c0.4,0.2,0.6,0.3,0.9,0.5c0.2,0.2,0.3,0.3,0.4,0.3c0.1,0.1,0.3,0.3,0.5,0.5c0.2,0.2,0.3,0.5,0.3,0.9
						c0,0.4-0.2,0.8-0.5,1.1c-0.3,0.3-0.7,0.5-1.1,0.5c-0.4,0-0.8-0.1-1.1-0.4c-0.3-0.2-0.7-0.4-1.1-0.6c-0.4-0.2-0.8-0.2-1.3-0.2
						c-0.5,0-1,0.1-1.5,0.3c-0.5,0.2-0.9,0.5-1.2,0.8c-0.3,0.3-0.6,0.8-0.8,1.2c-0.2,0.5-0.3,1-0.3,1.5c0,0.5,0.1,1,0.3,1.5
						s0.5,0.9,0.8,1.2c0.3,0.3,0.7,0.6,1.2,0.8c0.5,0.2,0.9,0.3,1.5,0.3c0.6,0,1.2-0.1,1.7-0.4c0.5-0.2,0.9-0.6,1.3-1h-2.7
						c-0.4,0-0.8-0.2-1.1-0.5c-0.3-0.3-0.4-0.7-0.4-1.1c0-0.4,0.1-0.8,0.4-1.1c0.3-0.3,0.7-0.5,1.1-0.5h5.1c0,0,0.6,0,1,0.4
						C511.9,699.1,512.2,699.5,512.1,700.2z"/>
				</g>
			</g>
			<g>
				<linearGradient id="SVGID_8_" gradientUnits="userSpaceOnUse" x1="472.5917" y1="668.5375" x2="472.5917" y2="614.1249">
					<stop  offset="0" style="stop-color:#4625C1"/>
					<stop  offset="1" style="stop-color:#467EF7"/>
				</linearGradient>
				<path class="st7" d="M392.6,622.2c53.1-10.7,106.9-10.7,160,0c4,0.8,6.8,5.7,6.2,10.9c-1,9.1-2.1,18.2-3.1,27.4
					c-0.6,5.2-4.1,8.7-7.9,8c-49.9-10.1-100.5-10.1-150.4,0c-3.7,0.8-7.3-2.8-7.9-8c-1-9.1-2.1-18.2-3.1-27.4
					C385.8,627.9,388.6,623,392.6,622.2z"/>
				<g>
					<g>
						<linearGradient id="SVGID_10_" gradientUnits="userSpaceOnUse" x1="398.5632" y1="658.5424" x2="398.5632" y2="627.9934">
							<stop  offset="0" style="stop-color:#61CBF7"/>
							<stop  offset="1" style="stop-color:#467EF7"/>
						</linearGradient>
						<path style="fill:url(#SVGID_10_);" d="M393.2,631.7c1.4,8.1,2.8,16.2,4.2,24.3c0.7,4,7,3,6.4-1.1c-1.3-8.1-2.6-16.2-3.9-24.4
							C399.4,626.5,392.5,627.6,393.2,631.7C393.2,631.7,393.2,631.7,393.2,631.7z"/>
					</g>
					<g>
						<linearGradient id="SVGID_11_" gradientUnits="userSpaceOnUse" x1="422.7854" y1="655.2734" x2="422.7854" y2="624.5542">
							<stop  offset="0" style="stop-color:#61CBF7"/>
							<stop  offset="1" style="stop-color:#467EF7"/>
						</linearGradient>
						<path class="st10" d="M418.1,628c1,8.2,1.9,16.3,2.9,24.5c0.5,4.1,6.9,3.4,6.4-0.7c-0.8-8.2-1.7-16.4-2.5-24.5
							C424.5,623.2,417.6,623.9,418.1,628C418.1,628,418.1,628,418.1,628z"/>
					</g>
					<g>
						<linearGradient id="SVGID_12_" gradientUnits="userSpaceOnUse" x1="447.1196" y1="653.3148" x2="447.1196" y2="622.4889">
							<stop  offset="0" style="stop-color:#61CBF7"/>
							<stop  offset="1" style="stop-color:#467EF7"/>
						</linearGradient>
						<path class="st45" d="M443.1,625.8c0.5,8.2,1,16.4,1.5,24.6c0.3,4.1,6.7,3.8,6.5-0.4c-0.4-8.2-0.8-16.4-1.2-24.6
							C449.8,621.3,442.8,621.7,443.1,625.8L443.1,625.8z"/>
					</g>
					<g>
						<linearGradient id="SVGID_13_" gradientUnits="userSpaceOnUse" x1="471.6025" y1="652.6604" x2="471.6025" y2="621.7993">
							<stop  offset="0" style="stop-color:#61CBF7"/>
							<stop  offset="1" style="stop-color:#467EF7"/>
						</linearGradient>
						<path class="st46" d="M468.2,624.9c0.1,8.2,0.1,16.4,0.2,24.7c0,4.1,6.4,4.1,6.5,0c0.1-8.2,0.1-16.4,0.2-24.7
							C475.1,620.8,468.1,620.8,468.2,624.9C468.2,624.9,468.2,624.9,468.2,624.9z"/>
					</g>
					<g>
						<linearGradient id="SVGID_14_" gradientUnits="userSpaceOnUse" x1="496.0854" y1="653.3151" x2="496.0854" y2="622.4881">
							<stop  offset="0" style="stop-color:#61CBF7"/>
							<stop  offset="1" style="stop-color:#467EF7"/>
						</linearGradient>
						<path class="st47" d="M493.2,625.4c-0.4,8.2-0.8,16.4-1.2,24.6c-0.2,4.1,6.2,4.5,6.5,0.4c0.5-8.2,1-16.4,1.5-24.6
							C500.4,621.7,493.4,621.3,493.2,625.4L493.2,625.4z"/>
					</g>
					<g>
						<linearGradient id="SVGID_16_" gradientUnits="userSpaceOnUse" x1="520.4191" y1="655.2753" x2="520.4191" y2="624.5521">
							<stop  offset="0" style="stop-color:#61CBF7"/>
							<stop  offset="1" style="stop-color:#467EF7"/>
						</linearGradient>
						<path style="fill:url(#SVGID_16_);" d="M518.3,627.3c-0.8,8.2-1.7,16.4-2.5,24.5c-0.4,4.1,5.9,4.8,6.4,0.7
							c1-8.2,1.9-16.3,2.9-24.5C525.6,623.9,518.7,623.2,518.3,627.3C518.3,627.3,518.3,627.3,518.3,627.3z"/>
					</g>
					<g>
						<linearGradient id="SVGID_17_" gradientUnits="userSpaceOnUse" x1="544.6412" y1="658.5419" x2="544.6412" y2="627.9953">
							<stop  offset="0" style="stop-color:#61CBF7"/>
							<stop  offset="1" style="stop-color:#467EF7"/>
						</linearGradient>
						<path class="st50" d="M543.2,630.6c-1.3,8.1-2.6,16.2-3.9,24.4c-0.6,4.1,5.7,5.1,6.4,1.1c1.4-8.1,2.8-16.2,4.2-24.3
							C550.7,627.6,543.8,626.5,543.2,630.6C543.2,630.6,543.2,630.6,543.2,630.6z"/>
					</g>
				</g>
			</g>
			<linearGradient id="SVGID_18_" gradientUnits="userSpaceOnUse" x1="473.8603" y1="804.1902" x2="473.8603" y2="729.0579">
				<stop  offset="0" style="stop-color:#4625C1"/>
				<stop  offset="1" style="stop-color:#467EF7"/>
			</linearGradient>
			<path class="st51" d="M472.9,729.1h2c8.6,0,15.5,6.9,15.5,15.5v44.2c0,8.6-6.9,15.5-15.5,15.5h-2c-8.6,0-15.5-6.9-15.5-15.5
				v-44.2C457.4,736,464.3,729.1,472.9,729.1z"/>
			<linearGradient id="SVGID_19_" gradientUnits="userSpaceOnUse" x1="473.8603" y1="798.9028" x2="473.8603" y2="765.356">
				<stop  offset="0" style="stop-color:#61CBF7"/>
				<stop  offset="1" style="stop-color:#467EF7"/>
			</linearGradient>
			<path class="st52" d="M473.9,765.4L473.9,765.4c6.6,0,11.9,5.3,11.9,11.9v9.7c0,6.6-5.3,11.9-11.9,11.9l0,0
				c-6.6,0-11.9-5.3-11.9-11.9v-9.7C461.9,770.7,467.3,765.4,473.9,765.4z"/>
			<g>
				<path class="st9" d="M469.5,778.6c0.6,0.6,0.9,1.3,0.9,2.3c0,0.4,0,0.7,0,0.9c0,0.3,0,0.7,0,1.1c0,0.9-0.4,1.7-0.9,2.2
					c-0.6,0.6-1.4,0.9-2.5,0.9s-1.9-0.3-2.5-0.9c-0.6-0.6-0.9-1.3-0.9-2.2c0-0.4,0-0.8,0-1.1c0-0.3,0-0.6,0-0.9
					c0-0.9,0.4-1.7,0.9-2.3s1.4-0.9,2.5-0.9S469,778,469.5,778.6z M465.8,779.6c-0.3,0.3-0.5,0.7-0.5,1.3c0,0.4,0,0.7,0,1
					c0,0.3,0,0.6,0,1c0,0.5,0.2,1,0.5,1.3c0.3,0.3,0.8,0.5,1.3,0.5s1-0.2,1.3-0.5c0.3-0.3,0.5-0.7,0.5-1.3c0-0.2,0-0.5,0-1
					c0-0.5,0-0.8,0-1c0-0.5-0.2-1-0.5-1.3c-0.3-0.3-0.8-0.5-1.3-0.5S466.1,779.3,465.8,779.6z"/>
				<path class="st9" d="M477.4,777.9c0.1,0.1,0.1,0.1,0.1,0.2v0.8c0,0.1,0,0.2-0.1,0.2s-0.1,0.1-0.2,0.1h-3.7v2.2h3.4
					c0.1,0,0.2,0,0.2,0.1s0.1,0.1,0.1,0.2v0.8c0,0.1,0,0.2-0.1,0.2s-0.1,0.1-0.2,0.1h-3.4v2.6c0,0.1,0,0.2-0.1,0.2s-0.1,0.1-0.2,0.1
					h-0.9c-0.1,0-0.2,0-0.2-0.1s-0.1-0.1-0.1-0.2v-7.4c0-0.1,0-0.2,0.1-0.2s0.1-0.1,0.2-0.1h4.9
					C477.3,777.8,477.4,777.9,477.4,777.9z"/>
				<path class="st9" d="M484.3,777.9c0.1,0.1,0.1,0.1,0.1,0.2v0.8c0,0.1,0,0.2-0.1,0.2s-0.1,0.1-0.2,0.1h-3.7v2.2h3.4
					c0.1,0,0.2,0,0.2,0.1s0.1,0.1,0.1,0.2v0.8c0,0.1,0,0.2-0.1,0.2s-0.1,0.1-0.2,0.1h-3.4v2.6c0,0.1,0,0.2-0.1,0.2s-0.1,0.1-0.2,0.1
					h-0.9c-0.1,0-0.2,0-0.2-0.1s-0.1-0.1-0.1-0.2v-7.4c0-0.1,0-0.2,0.1-0.2s0.1-0.1,0.2-0.1h4.9
					C484.2,777.8,484.2,777.9,484.3,777.9z"/>
			</g>
			<path class="st56" d="M521.4,773.6v64.1c0,57.3-7,54.4-49.1,54.4h0"/>
			<path class="st25" d="M450.9,791.5c0,0,0.5,21.8,23,20.5"/>
		</g>
	</g>
	<g>
		<ellipse class="st9" cx="479.2" cy="526.2" rx="162.4" ry="22.3"/>
		<line class="st42" x1="509.5" y1="359.9" x2="462" y2="529.1"/>
		<line class="st42" x1="570.4" y1="363.3" x2="613.4" y2="529.5"/>
		<line class="st42" x1="545.8" y1="363.3" x2="542" y2="518.5"/>
		<polygon class="st43" points="463.2,134.5 634.8,134.5 633.6,412.9 449,409.9 		"/>
		<path class="st44" d="M634.7,155.9l0.1-21.4H463.2l-1,19.6C504.2,153.8,570.9,155.1,634.7,155.9z"/>
		<g>
			<g>
				<linearGradient id="SVGID_20_" gradientUnits="userSpaceOnUse" x1="477.6863" y1="178.7238" x2="477.6863" y2="161.5394">
					<stop  offset="0" style="stop-color:#B63A00"/>
					<stop  offset="1" style="stop-color:#E85419"/>
				</linearGradient>
				<path class="st53" d="M483.4,177.8c0.2,0.2,0.2,0.3,0.2,0.4c0,0.1-0.1,0.3-0.2,0.4c-0.1,0.1-0.2,0.1-0.4,0.1l-1.5-0.1
					c-0.3,0-0.6-0.1-0.8-0.4l-6.5-6.7l-0.2,6.2c0,0.2-0.1,0.3-0.2,0.4c-0.1,0.1-0.3,0.2-0.5,0.2l-1,0c-0.2,0-0.3-0.1-0.4-0.2
					c-0.1-0.1-0.2-0.3-0.2-0.5l0.6-15.5c0-0.2,0.1-0.3,0.2-0.4s0.3-0.2,0.5-0.2l1,0c0.2,0,0.3,0.1,0.4,0.2s0.2,0.3,0.2,0.5l-0.2,5.6
					l6.6-5.6c0.2-0.2,0.5-0.3,0.9-0.3l1.4,0.1c0.1,0,0.3,0.1,0.4,0.2c0.1,0.1,0.1,0.2,0.1,0.4c0,0.1-0.1,0.3-0.3,0.4l-8,6.8
					L483.4,177.8z"/>
				<linearGradient id="SVGID_22_" gradientUnits="userSpaceOnUse" x1="492.4751" y1="178.8917" x2="492.4751" y2="162.0666">
					<stop  offset="0" style="stop-color:#B63A00"/>
					<stop  offset="1" style="stop-color:#E85419"/>
				</linearGradient>
				<path style="fill:url(#SVGID_22_);" d="M497.4,163.7c1.1,0.9,1.6,2.2,1.5,3.8c0,1.1-0.3,2.1-0.9,2.8c-0.5,0.8-1.3,1.3-2.2,1.7
					s-1.9,0.5-2.9,0.5l-4.4-0.2l-0.2,5.9c0,0.2-0.1,0.3-0.2,0.4c-0.1,0.1-0.3,0.2-0.5,0.2l-1,0c-0.2,0-0.3-0.1-0.4-0.2
					c-0.1-0.1-0.2-0.3-0.2-0.5l0.6-15.5c0-0.2,0.1-0.3,0.2-0.4c0.1-0.1,0.3-0.2,0.5-0.2l6,0.2C495,162.3,496.3,162.8,497.4,163.7z
					 M492.9,170.4c1.2,0,2.1-0.2,2.7-0.7c0.6-0.5,1-1.2,1-2.2c0.1-2-1.1-3-3.5-3.1l-4.3-0.2l-0.2,5.9L492.9,170.4z"/>
				<linearGradient id="SVGID_23_" gradientUnits="userSpaceOnUse" x1="502.8073" y1="179.4542" x2="502.8073" y2="162.6289">
					<stop  offset="0" style="stop-color:#B63A00"/>
					<stop  offset="1" style="stop-color:#E85419"/>
				</linearGradient>
				<path class="st61" d="M501.6,179.2c-0.1-0.1-0.2-0.3-0.2-0.5l0.6-15.5c0-0.2,0.1-0.3,0.2-0.4c0.1-0.1,0.3-0.2,0.5-0.2l1,0
					c0.2,0,0.3,0.1,0.4,0.2s0.2,0.3,0.2,0.5l-0.6,15.5c0,0.2-0.1,0.3-0.2,0.4c-0.1,0.1-0.3,0.2-0.5,0.2l-1,0
					C501.8,179.4,501.7,179.3,501.6,179.2z"/>
			</g>
		</g>
		<polyline class="st17" points="472.2,195 462,396.7 621.8,397.9 		"/>
		<path class="st36" d="M430.2,444.6c0,0,3.3,1.4,7.3,0.2"/>
		<linearGradient id="SVGID_24_" gradientUnits="userSpaceOnUse" x1="410.5305" y1="316.2915" x2="483.1218" y2="316.2915">
			<stop  offset="0.127" style="stop-color:#FF9B24"/>
			<stop  offset="1" style="stop-color:#FFCB3D"/>
		</linearGradient>
		<path class="st62" d="M479,284.8c1.7-2.7,4.1-5.8,4.1-5.8c0-1-1.8-1.2-2.5-0.6c-8,6.6-12.5,7.8-12.5,7.8c-2.5,0.7-6.2,1.8-6.2,1.8
			c0,0,0,0-0.1,0c3.4-2.4,9.1-7.6,6.8-8.5c-2.5-0.9-5.2,1.9-12.6,7.8c-6.3,5,2,14.1,2,14.1s-24.9,33.6-28,35.7
			c-5.1-2.8-10.6-31-10.6-31s-10.4-11.7-8.7,13.1c1.7,24.8,13.5,34.5,13.5,34.5c8.3,6.7,35.2-41,39.4-48.6c3.3-0.1,7.5-4,10.2-8.5
			c0.1,0,0.3,0.1,0.5,0.1c1.4,0,2.5-1.2,2.5-2.8c0-0.4-0.1-0.7-0.2-1c0.1,0,0.1,0,0.2,0c1.4,0,2.5-1.2,2.5-2.8c0-0.4-0.1-0.7-0.2-1
			c0.6-0.5,1-1.3,1-2.2C480.1,286.1,479.7,285.3,479,284.8z M461.4,288.4C461.4,288.4,461.4,288.4,461.4,288.4L461.4,288.4
			C461.4,288.4,461.4,288.4,461.4,288.4z"/>
		<g>
			<defs>
				<polygon id="SVGID_70_" points="473.1,382.9 499.6,325.5 523.8,318.2 536.7,282.5 571.8,263.6 582,234.3 613.4,189.5 
					614.8,387.6 				"/>
			</defs>
			<clipPath id="SVGID_25_">
				<use xlink:href="#SVGID_70_"  style="overflow:visible;"/>
			</clipPath>
			<g style="clip-path:url(#SVGID_25_);">
				<line class="st49" x1="488.4" y1="312.4" x2="483.1" y2="417.1"/>
				<line class="st49" x1="497.2" y1="301.8" x2="492" y2="417.5"/>
				<line class="st49" x1="505.9" y1="291.2" x2="500.9" y2="417.9"/>
				<line class="st49" x1="514.6" y1="280.6" x2="509.8" y2="418.3"/>
				<line class="st49" x1="523.3" y1="270" x2="518.7" y2="418.7"/>
				<line class="st49" x1="532" y1="259.5" x2="527.6" y2="419.2"/>
				<line class="st49" x1="540.7" y1="248.9" x2="536.6" y2="419.6"/>
				<line class="st49" x1="549.5" y1="238.3" x2="545.5" y2="420"/>
				<line class="st49" x1="558.2" y1="227.7" x2="554.4" y2="420.4"/>
				<line class="st49" x1="566.9" y1="217.1" x2="563.3" y2="420.8"/>
				<line class="st49" x1="575.6" y1="206.5" x2="572.2" y2="421.2"/>
				<line class="st49" x1="584.3" y1="195.9" x2="581.1" y2="421.6"/>
				<line class="st49" x1="593" y1="185.3" x2="590" y2="422"/>
				<line class="st49" x1="601.8" y1="174.7" x2="598.9" y2="422.4"/>
				<line class="st49" x1="610.5" y1="164.1" x2="607.8" y2="422.9"/>
			</g>
		</g>
		<g>
			<g>
				<path class="st20" d="M476.6,382.6c7.8-17,15.7-33.9,23.5-50.9c1-2.2,2.1-4.3,3-6.5c-0.6,1.6-1.6,0.5-0.3,0.6
					c0.6,0,1.4-0.4,2-0.6c2.8-0.8,5.6-1.7,8.4-2.5c3.9-1.2,9.3-1.8,12.9-3.9c2-1.1,2.4-4,3.1-6.1c2-5.5,3.9-10.9,5.9-16.4
					c1.6-4.3,3.8-8.8,4.8-13.3c0.5-2,0.5-0.5-0.1-0.3c1.4-0.5,2.7-1.4,4-2.1c5-2.7,10.1-5.4,15.1-8.1c4.4-2.4,8.8-4.7,13.2-7.1
					c2.1-1.1,3-1.5,3.8-3.7c3.4-9.5,5.7-19.5,8.6-29.2c1-3.3,0.8-3.1,2.7-5.5c3.4-4.4,6.7-8.8,10.1-13.2c6-7.8,11.9-15.6,17.9-23.4
					c1.5-1.9-1.8-3.8-3.2-1.9c-5.1,6.6-10.1,13.2-15.2,19.9c-3.4,4.4-6.8,8.9-10.1,13.3c-1.5,2-3.6,4-4.6,6.2
					c-1.3,2.8-1.8,6.3-2.7,9.2c-1.6,5.6-3.3,11.2-4.9,16.8c-0.6,2-1.2,4-1.8,6c-0.2,0.6-0.4,1.1-0.5,1.7c-0.2,0.9,1.4-1,0.5-0.7
					c-3.5,1.3-6.8,3.6-10,5.4c-5.2,2.8-10.5,5.6-15.7,8.4c-2.7,1.5-6.8,2.8-9.1,4.9c-1.7,1.6-2.2,4.8-3,6.9
					c-2,5.4-3.9,10.9-5.9,16.3c-0.9,2.5-1.8,5-2.7,7.5c-0.5,1.5-1.9,3.8-1.9,5.3c0,0.1-0.3,0.7-0.3,0.7c-1.1-1.6,2.7-1.2,0.2-0.9
					c-2.2,0.2-4.6,1.4-6.7,2c-5,1.5-10.2,2.8-15.1,4.6c-2,0.7-2.4,1.4-3.2,3.3c-8.5,18.4-17,36.9-25.6,55.3
					C472.4,382.9,475.6,384.8,476.6,382.6L476.6,382.6z"/>
			</g>
		</g>
		<linearGradient id="SVGID_26_" gradientUnits="userSpaceOnUse" x1="502.6129" y1="330.519" x2="502.6129" y2="318.8374">
			<stop  offset="0" style="stop-color:#B63A00"/>
			<stop  offset="1" style="stop-color:#E85419"/>
		</linearGradient>
		<circle class="st64" cx="502.6" cy="324.7" r="5.8"/>
		<linearGradient id="SVGID_27_" gradientUnits="userSpaceOnUse" x1="538.3748" y1="287.1269" x2="538.3748" y2="275.4454">
			<stop  offset="0" style="stop-color:#B63A00"/>
			<stop  offset="1" style="stop-color:#E85419"/>
		</linearGradient>
		<circle class="st65" cx="538.4" cy="281.3" r="5.8"/>
		<linearGradient id="SVGID_28_" gradientUnits="userSpaceOnUse" x1="574.0802" y1="268.0395" x2="574.0802" y2="256.3579">
			<stop  offset="0" style="stop-color:#B63A00"/>
			<stop  offset="1" style="stop-color:#E85419"/>
		</linearGradient>
		<circle class="st66" cx="574.1" cy="262.2" r="5.8"/>
		<linearGradient id="SVGID_29_" gradientUnits="userSpaceOnUse" x1="583.5952" y1="234.269" x2="583.5952" y2="222.5874">
			<stop  offset="0" style="stop-color:#B63A00"/>
			<stop  offset="1" style="stop-color:#E85419"/>
		</linearGradient>
		<circle class="st67" cx="583.6" cy="228.4" r="5.8"/>
		<polyline class="st17" points="465,206.1 472.2,195 477.6,206.1 		"/>
		<polyline class="st17" points="616.9,391.6 622.9,397.9 614.8,402.9 		"/>
		<linearGradient id="SVGID_30_" gradientUnits="userSpaceOnUse" x1="318.4192" y1="331.6631" x2="423.7136" y2="331.6631">
			<stop  offset="0" style="stop-color:#467EF7"/>
			<stop  offset="1" style="stop-color:#61CBF7"/>
		</linearGradient>
		<path class="st68" d="M412.9,355.2c-0.3-4.1-1-16.2-1.7-27.5c0.1-2.2,0.1-4.4,0.1-6.7c4.4-1.9,7.3-2.7,12.4-6.5
			c-2.6-11.7-8.4-30.2-16.5-37.6c-2.2-2-3.7-3.2-4.9-3.9c-3.9-2.5-9.4-3.7-11.2-4c-8.9-1.6-19-1.5-30.5,1.3
			c-3.6,0.7-7.4,1.8-11.4,3.5c-12.7,5.5-26.4,21.2-30.8,30.9c6.5,2.3,12.8,5,17.7,9.8c2.8-4.8,6.6-9,10.5-12.6l-2,56.3
			c0,0,0.3,16.6,1.8,24.3c0.8,0,1.7,0,2.6,0c3.2,11.7,10.6,17.7,25.7,7.6c7.4-4.9,15.4-8,22.1-10.5c6.7-1,12.7-2.2,17.6-3.8
			C413.8,371.1,413.1,358,412.9,355.2z"/>
		<path class="st11" d="M412.9,357.6c-0.1,0-0.2,0-0.3,0c0,0,0,0,0,0C412.7,357.6,412.8,357.6,412.9,357.6z"/>
		<linearGradient id="SVGID_31_" gradientUnits="userSpaceOnUse" x1="392.3123" y1="533.4436" x2="392.3123" y2="375.9157">
			<stop  offset="0" style="stop-color:#30259A"/>
			<stop  offset="1" style="stop-color:#33313D"/>
		</linearGradient>
		<path class="st69" d="M414.3,375.9c-21.9,5.8-44.9,4.6-67.6,6.6c1.1,19.2,5.4,31,10.6,52.1c12.8,51.5,18.2,90.6,18.2,90.6l7,1.5
			l5.2-116.5c11.6,18.6,27.8,37.9,27.8,37.9c0.1,0.1-1.6,26.8-0.7,43.9c2.8,54.1,4.9,38.4,5.2,40.7l6.7,0.7c0,0,11.1-89,11.2-89.1
			C436.8,435.1,427.5,411.9,414.3,375.9z"/>
		<linearGradient id="SVGID_32_" gradientUnits="userSpaceOnUse" x1="355.4352" y1="529.1332" x2="384.1" y2="529.1332">
			<stop  offset="0" style="stop-color:#467EF7"/>
			<stop  offset="1" style="stop-color:#61CBF7"/>
		</linearGradient>
		<path class="st71" d="M355.9,534.8c-3-1.1,10.6-8.3,16.7-10c3.1-0.9,6.3-1.2,9.6-1.4c1.1,3,2,9.3,2,9.3S357.1,535.3,355.9,534.8z"
			/>
		<linearGradient id="SVGID_33_" gradientUnits="userSpaceOnUse" x1="416.9495" y1="529.4542" x2="448.9117" y2="529.4542">
			<stop  offset="0" style="stop-color:#467EF7"/>
			<stop  offset="1" style="stop-color:#61CBF7"/>
		</linearGradient>
		<path class="st72" d="M447.7,536.4c4.6,0.4-5.1-5.9-10.5-8.5c-13.4-6.4-16-5.2-20.3-5.2l0.2,12.2
			C417.2,534.8,445.4,536.2,447.7,536.4z"/>
		<path class="st36" d="M366,466.7c0,0,1.7,3.8,9.2,1.1"/>
		<linearGradient id="SVGID_34_" gradientUnits="userSpaceOnUse" x1="356.1654" y1="231.2641" x2="401.6893" y2="231.2641">
			<stop  offset="0.127" style="stop-color:#FF9B24"/>
			<stop  offset="1" style="stop-color:#FFCB3D"/>
		</linearGradient>
		<path class="st73" d="M401.7,223.6c0-0.4-1.5-1.2-3.7-2.2c0.5-5.4,0.3-11.1-1-17c-6-28.1-37.4-19.1-40-2c-2.5,17.1,0,30.1,15,53.1
			l1.2,18.3c0,0,7.2,6.1,13.1-1.2l-1.1-15.8c0,0,9.6-13,12.3-31.1C399.7,225.4,401.6,224.7,401.7,223.6z"/>
		<path class="st20" d="M408.3,346.1c-0.2-0.2-0.3-0.2-0.3-0.2C408.1,345.9,408.2,346,408.3,346.1z"/>
		<path class="st36" d="M362.5,387.2c0,0-2.3,8.9-14.5,6.4"/>
		<path class="st36" d="M408.3,380.7c0,0,2,6.5,11.1,6.9"/>
		<path class="st36" d="M386.3,401.4l6.1-1.2c0,0,0.9-8.2,0.7-13.6"/>
		<linearGradient id="SVGID_36_" gradientUnits="userSpaceOnUse" x1="318.4191" y1="310.4294" x2="336.6588" y2="310.4294">
			<stop  offset="0" style="stop-color:#33313D"/>
			<stop  offset="1" style="stop-color:#4625C1"/>
		</linearGradient>
		<path style="fill:url(#SVGID_36_);" d="M318.4,304.8c0,0,13.4,16.4,17.7,9.8C340.4,307.8,318.4,304.8,318.4,304.8z"/>
		<path class="st60" d="M343.4,290c0,0,0.9,6.5,3.1,8.9"/>
		<path class="st60" d="M345.6,300.5c0,0-2,0.7-5.5-2.2"/>
		<g>
			<g>
				<g>
					<linearGradient id="SVGID_37_" gradientUnits="userSpaceOnUse" x1="372.6512" y1="276.9381" x2="385.9971" y2="276.9381">
						<stop  offset="0" style="stop-color:#4625C1"/>
						<stop  offset="1" style="stop-color:#33313D"/>
					</linearGradient>
					<path class="st75" d="M386,272.6c-2.2,1.3-7.4,3.6-12.4,0.2l-1,0l1.9,8.1l4.7-3.4l5.4,3.7L386,272.6z"/>
				</g>
				<g>
					<linearGradient id="SVGID_38_" gradientUnits="userSpaceOnUse" x1="378.9963" y1="308.5814" x2="383.0401" y2="308.5814">
						<stop  offset="0" style="stop-color:#4625C1"/>
						<stop  offset="1" style="stop-color:#33313D"/>
					</linearGradient>
					<circle class="st76" cx="381" cy="308.6" r="2"/>
				</g>
				<g>
					<linearGradient id="SVGID_39_" gradientUnits="userSpaceOnUse" x1="378.9963" y1="299.4975" x2="383.0401" y2="299.4975">
						<stop  offset="0" style="stop-color:#4625C1"/>
						<stop  offset="1" style="stop-color:#33313D"/>
					</linearGradient>
					<circle class="st77" cx="381" cy="299.5" r="2"/>
				</g>
				<g>
					<linearGradient id="SVGID_40_" gradientUnits="userSpaceOnUse" x1="378.6714" y1="288.3699" x2="382.7152" y2="288.3699">
						<stop  offset="0" style="stop-color:#4625C1"/>
						<stop  offset="1" style="stop-color:#33313D"/>
					</linearGradient>
					<circle class="st78" cx="380.7" cy="288.4" r="2"/>
				</g>
			</g>
		</g>
		<path class="st60" d="M410.5,302.6c0,0-0.4,20.6,1.4,33"/>
		<linearGradient id="SVGID_41_" gradientUnits="userSpaceOnUse" x1="456.9931" y1="140.12" x2="641.7395" y2="140.12">
			<stop  offset="0" style="stop-color:#FFFFFF"/>
			<stop  offset="1" style="stop-color:#CCCCCC"/>
		</linearGradient>
		<path class="st79" d="M459.2,148.4l180.4,1.5c1.2,0,2.2-1,2.2-2.2v-15.1c0-1.2-1-2.2-2.2-2.2H460.1c-1.2,0-2.1,0.9-2.2,2.1
			l-0.9,13.6C456.9,147.3,457.9,148.4,459.2,148.4z"/>
		<linearGradient id="SVGID_42_" gradientUnits="userSpaceOnUse" x1="315.8084" y1="336.2133" x2="353.6812" y2="336.2133">
			<stop  offset="0.127" style="stop-color:#FF9B24"/>
			<stop  offset="1" style="stop-color:#FFCB3D"/>
		</linearGradient>
		<path class="st80" d="M352.3,353.6c1.5-0.7,2-3.1,0.6-4.2c-3.1-1.1-6.2,0.4-6.2,0.4l-0.5-0.9c0.1-0.1,3-1.5,6.2-0.7
			c1.4-1.3,0.9-4.4-1.6-4.4c-1.8,0-3.6,0.3-5.2,1.1c-2.6,1.3-3.6,3.9-3.3,6.6c-0.7,1.2-1.1,2.6-1.1,4.1c-0.9,0.7-1.6,1.6-2,2.7
			c-7.2-4.7-15-12.1-15.5-23.8c-0.2-4.8,1.8-13.4,5.4-21c0.1-0.2,0.2-0.4,0.3-0.6c0.1-0.3,0.3-0.6,0.5-0.9c0.7-1.3,1.4-2.6,2.2-3.9
			c-3-1.3-6.7-2.2-9.5-2.8c-0.2,0.3-0.3,0.7-0.4,1c0,0,0,0,0,0c-0.2,0.4-0.3,0.7-0.4,1.1c-0.1,0.1-0.1,0.3-0.2,0.4c0,0,0,0,0,0
			c-2.2,5.6-3.7,11.1-4.5,16.5c-0.6,0.8-1.1,1.9-1,2.7c0,0.4,0.3,1,0.6,1.6c-0.6,11.3,2.5,21.3,10.2,27.9c9,7.7,14.3,10.4,18.4,10.4
			c0,0,0,0,0,0c1,0,1.5-2.2,1.1-4.8c0.1,0,0.2,0,0.2,0c0.3,0,0.6,0.1,0.9,0.1c0.3,0.1,1.9,0.7,0.8,0.2c1.2,0.5,2.7,0.4,3.4-0.9
			c0.2-0.4,0.3-1,0.3-1.5c-2-2.3-5.1-2.7-5.1-2.7l0.1-1c0.1,0,2.4,0.3,4.4,1.9c0.6-0.3,1.1-0.8,1.3-1.5c0.2-0.6,0-1.4-0.3-2
			c-2.3-1.5-5.1-1.2-5.6-1.1c0.2-0.4,0.4-0.8,0.7-1.1C348.4,352.6,350.4,352.6,352.3,353.6z"/>
		<polygon class="st31" points="336,361.4 333.9,364.8 331.6,363.2 334,359.9 		"/>
		<path class="st41" d="M338.7,360.3l0.1-0.1c0.9-1.4,0.5-3.2-0.8-4.1l0,0c-1.4-0.9-3.2-0.5-4.1,0.8l-0.1,0.1
			c-0.9,1.4-0.5,3.2,0.8,4.1l0,0C336,362.1,337.8,361.7,338.7,360.3z"/>
		<path class="st31" d="M338.2,360l0.1-0.1c0.7-1.1,0.4-2.5-0.7-3.3l0,0c-1.1-0.7-2.5-0.4-3.3,0.7l-0.1,0.1
			c-0.7,1.1-0.4,2.5,0.7,3.3l0,0C336,361.4,337.5,361.1,338.2,360z"/>
		
			<ellipse transform="matrix(1.297009e-02 -0.9999 0.9999 1.297009e-02 152.5714 583.9675)" class="st24" cx="372.1" cy="214.7" rx="1.3" ry="1.5"/>
		
			<ellipse transform="matrix(0.9653 -0.2611 0.2611 0.9653 -42.4221 109.493)" class="st24" cx="390.9" cy="214.4" rx="1.1" ry="1.1"/>
		<path class="st14" d="M377,229.8c-3.7,1.1-5.2-0.2-6.7-1.3c-0.5-0.4-1.3,0.1-1.1,0.7c0.1,0.3,0.1,0.5,0.2,0.8
			c1.7,1.6,6,2.3,7.3,1.6C376.9,230.2,377,229.8,377,229.8z"/>
		<path class="st25" d="M382.3,213.3c0.1,4.5-4.3,9.1-9.5,9.2s-9.3-4.4-9.4-8.8c-0.1-4.5,4-8.1,9.2-8.3
			C377.9,205.3,382.2,208.8,382.3,213.3z"/>
		<path class="st25" d="M403,212.8c0.1,4.5-4.3,9.1-9.5,9.2s-9.3-4.4-9.4-8.8c-0.1-4.5,4-8.1,9.2-8.3
			C398.6,204.9,402.9,208.4,403,212.8z"/>
		<path class="st25" d="M386.6,226.7c0,0,15.4-0.3,14.9-3s-18.6-6.9-18.6-6.9"/>
		<path class="st25" d="M382.1,211.5c0,0,1.1-0.6,2.3,0.1"/>
		<path class="st26" d="M372.6,207.8c0,0,5.1-0.7,7.1,4.2"/>
		<path class="st26" d="M392.1,207.4c0,0,5.1-0.7,7.1,4.2"/>
		<linearGradient id="SVGID_43_" gradientUnits="userSpaceOnUse" x1="354.3835" y1="199.1604" x2="397.8253" y2="199.1604">
			<stop  offset="0" style="stop-color:#4625C1"/>
			<stop  offset="1" style="stop-color:#33313D"/>
		</linearGradient>
		<path class="st81" d="M387.8,176.9c-17.7-5.7-33.8,0.1-29.6,12.2c-1.3,0.5-2.4,1.6-2.9,3.4c-2,7.3-0.2,25.1-0.2,25.1
			c3.4-1.4,5.4,5.2,5.4,5.2l2,0.8c0,0-4.6-16.4,2.2-19.9c6.8-3.5,3.4-13.1,3.4-13.1s10.1,9,26,1.5
			C394.2,192,405.6,182.6,387.8,176.9z"/>
		<path class="st59" d="M395,188.4c0,0-14.2,7.4-26.8-0.8"/>
		<path class="st25" d="M378,229.6c-3.7,1.1-6.3,0.1-7.7-1c-0.5-0.4-1.3,0.1-1.1,0.7c0.6,2.7,2.8,6.1,5.4,5.8"/>
		
			<ellipse transform="matrix(0.8843 -0.467 0.467 0.8843 -62.2641 191.9835)" class="st20" cx="356.2" cy="221.6" rx="4.1" ry="5.4"/>
		<path class="st70" d="M353.9,218.7c0,0,4-0.4,4.3,4.9"/>
	</g>
</g>
</svg>
