<?xml version="1.0" encoding="utf-8"?>
<!-- Generator: Adobe Illustrator 22.0.1, SVG Export Plug-In . SVG Version: 6.00 Build 0)  -->
<svg version="1.1" xmlns="http://www.w3.org/2000/svg" xmlns:xlink="http://www.w3.org/1999/xlink" x="0px" y="0px"
	 viewBox="0 0 402 360.5" style="enable-background:new 0 0 402 360.5;" xml:space="preserve">
<style type="text/css">
	.st0{fill:url(#SVGID_1_);}
	.st1{clip-path:url(#SVGID_3_);}
	.st2{fill:#AA2F00;}
	.st3{fill:none;}
	.st4{clip-path:url(#SVGID_5_);}
	.st5{fill:#E5E5E5;}
	.st6{fill:#B2320F;}
	.st7{fill:url(#SVGID_6_);}
	.st8{clip-path:url(#SVGID_8_);}
	.st9{fill:#4625C1;}
	.st10{fill:url(#SVGID_9_);}
	.st11{fill:#61AAF7;}
	.st12{fill:#6535E4;}
	.st13{fill:#E85419;}
	.st14{fill:#FFFFFF;}
	.st15{fill:#E6E7E9;}
	.st16{fill:#FFFFFF;stroke:#BFCCD3;stroke-width:5;stroke-miterlimit:10;}
	.st17{fill:none;stroke:#BFCCD3;stroke-width:2;stroke-miterlimit:10;}
	.st18{fill:none;stroke:#E85419;stroke-width:5;stroke-miterlimit:10;}
	.st19{fill:none;stroke:#6435E3;stroke-miterlimit:10;}
	.st20{fill:#FF9B24;}
	.st21{fill:#2031A7;}
	.st22{fill:none;stroke:#FFFFFF;stroke-miterlimit:10;}
	.st23{fill:none;stroke:#F6FBFF;stroke-miterlimit:10;}
	.st24{fill:#3537AB;}
	.st25{fill:none;stroke:#3537AB;stroke-width:0.5;stroke-miterlimit:10;}
	.st26{fill:none;stroke:#F5FBFF;stroke-miterlimit:10;}
	.st27{fill:#6C75FF;}
	.st28{fill:#BFCCD3;}
	.st29{fill:#F6FBFF;}
	.st30{fill:#1F9B83;}
	.st31{fill:#53A9F4;}
	.st32{fill:none;stroke:#3F89F2;stroke-miterlimit:10;}
	.st33{fill:none;stroke:#177563;stroke-width:0.5;stroke-miterlimit:10;}
	.st34{fill:#3DC1A7;}
	.st35{fill:none;stroke:#1F9B83;stroke-width:0.5;stroke-miterlimit:10;}
	.st36{fill:none;stroke:#53A9F4;stroke-width:0.5;stroke-miterlimit:10;}
	.st37{fill:#FFFFFF;stroke:#3537AB;stroke-width:0.5;stroke-miterlimit:10;}
	.st38{fill:#33313D;}
	.st39{fill:none;stroke:#D9DBE8;stroke-miterlimit:10;}
	.st40{fill:#4094D3;}
	.st41{fill:#D9DBE8;}
	.st42{fill:none;stroke:#BFCCD3;stroke-width:3;stroke-miterlimit:10;}
	.st43{fill:#F1F2F2;stroke:#BFCCD3;stroke-width:2;stroke-miterlimit:10;}
	.st44{opacity:0.19;fill:#BFCCD3;stroke:#F1F2F2;stroke-width:2;stroke-miterlimit:10;}
	.st45{fill:url(#SVGID_10_);}
	.st46{fill:url(#SVGID_11_);}
	.st47{fill:url(#SVGID_12_);}
	.st48{clip-path:url(#SVGID_14_);}
	.st49{fill:none;stroke:#BFCCD3;stroke-miterlimit:10;}
	.st50{fill:url(#SVGID_15_);}
	.st51{fill:url(#SVGID_16_);}
	.st52{fill:url(#SVGID_17_);}
	.st53{fill:url(#SVGID_18_);}
	.st54{fill:#CE4617;}
	.st55{clip-path:url(#SVGID_20_);}
	.st56{fill:none;stroke:#FFFFFF;stroke-width:0.5;stroke-miterlimit:10;}
	.st57{fill:none;stroke:#E6E7E9;stroke-width:0.5;stroke-miterlimit:10;}
	.st58{fill:none;stroke:#61AAF7;stroke-miterlimit:10;}
	.st59{fill:none;stroke:#D9DBE8;stroke-width:0.5;stroke-miterlimit:10;}
	.st60{fill:none;stroke:#6535E4;stroke-width:0.5;stroke-miterlimit:10;}
	.st61{opacity:0.15;fill:#FFFFFF;}
	.st62{fill:url(#SVGID_21_);}
	.st63{fill:url(#SVGID_22_);}
	.st64{fill:url(#SVGID_23_);}
	.st65{fill:url(#SVGID_24_);}
	.st66{fill:url(#SVGID_25_);}
	.st67{fill:url(#SVGID_26_);}
	.st68{fill:url(#SVGID_27_);}
	.st69{fill:url(#SVGID_28_);}
	.st70{fill:url(#SVGID_29_);}
	.st71{fill:url(#SVGID_30_);}
	.st72{fill:url(#SVGID_31_);}
	.st73{fill:url(#SVGID_32_);}
	.st74{fill:url(#SVGID_33_);}
	.st75{fill:url(#SVGID_34_);}
	.st76{fill:url(#SVGID_35_);}
	.st77{fill:url(#SVGID_36_);}
	.st78{fill:url(#SVGID_37_);}
	.st79{fill:url(#SVGID_38_);}
	.st80{fill:url(#SVGID_39_);}
	.st81{fill:url(#SVGID_40_);}
	.st82{fill:url(#SVGID_41_);}
	.st83{fill:url(#SVGID_42_);}
	.st84{fill:url(#SVGID_43_);}
	.st85{fill:url(#SVGID_44_);}
	.st86{fill:none;stroke:#CE7C24;stroke-width:0.5;stroke-miterlimit:10;}
	.st87{fill:url(#SVGID_45_);}
	.st88{fill:url(#SVGID_46_);}
	.st89{fill:url(#SVGID_47_);}
	.st90{clip-path:url(#SVGID_49_);}
	.st91{fill:url(#SVGID_50_);}
	.st92{fill:url(#SVGID_51_);}
	.st93{fill:url(#SVGID_52_);}
	.st94{fill:url(#SVGID_53_);}
	.st95{fill:url(#SVGID_54_);}
	.st96{fill:url(#SVGID_55_);}
	.st97{fill:url(#SVGID_56_);}
	.st98{fill:url(#SVGID_57_);}
	.st99{fill:url(#SVGID_58_);}
	.st100{fill:url(#SVGID_59_);}
	.st101{fill:url(#SVGID_60_);}
	.st102{opacity:0.1;clip-path:url(#SVGID_62_);}
	.st103{fill:url(#SVGID_63_);}
	.st104{opacity:0.1;clip-path:url(#SVGID_65_);}
	.st105{clip-path:url(#SVGID_67_);}
	.st106{fill:url(#SVGID_68_);}
	.st107{fill:url(#SVGID_69_);}
	.st108{fill:url(#SVGID_70_);}
	.st109{fill:url(#SVGID_71_);}
	.st110{fill:url(#SVGID_72_);}
	.st111{fill:url(#SVGID_73_);}
	.st112{fill:url(#SVGID_74_);}
	.st113{fill:url(#SVGID_75_);}
	.st114{fill:url(#SVGID_76_);}
	.st115{fill:url(#SVGID_77_);}
	.st116{fill:url(#SVGID_78_);}
	.st117{fill:url(#SVGID_79_);}
	.st118{fill:url(#SVGID_80_);}
	.st119{fill:url(#SVGID_81_);}
	.st120{fill:url(#SVGID_82_);}
	.st121{fill:url(#SVGID_83_);}
	.st122{fill:url(#SVGID_84_);}
	.st123{fill:url(#SVGID_85_);}
	.st124{fill:url(#SVGID_86_);}
	.st125{fill:url(#SVGID_87_);}
	.st126{clip-path:url(#SVGID_89_);}
	.st127{fill:url(#SVGID_90_);}
	.st128{fill:url(#SVGID_91_);}
	.st129{fill:url(#SVGID_92_);}
	.st130{fill:url(#SVGID_93_);}
	.st131{fill:url(#SVGID_94_);}
	.st132{fill:url(#SVGID_95_);}
	.st133{fill:url(#SVGID_96_);}
	.st134{fill:url(#SVGID_97_);}
	.st135{fill:url(#SVGID_98_);}
	.st136{fill:url(#SVGID_99_);}
	.st137{fill:url(#SVGID_100_);}
	.st138{fill:url(#SVGID_101_);}
	.st139{fill:url(#SVGID_102_);}
	.st140{fill:url(#SVGID_103_);}
	.st141{fill:url(#SVGID_104_);}
	.st142{fill:url(#SVGID_105_);}
	.st143{fill:url(#SVGID_106_);}
	.st144{clip-path:url(#SVGID_108_);}
	.st145{fill:url(#SVGID_109_);}
	.st146{fill:url(#SVGID_110_);}
	.st147{fill:url(#SVGID_111_);}
	.st148{fill:url(#SVGID_112_);}
	.st149{fill:url(#SVGID_113_);}
	.st150{fill:url(#SVGID_114_);}
	.st151{fill:url(#SVGID_115_);}
	.st152{fill:url(#SVGID_116_);}
	.st153{fill:url(#SVGID_117_);}
	.st154{fill:url(#SVGID_118_);}
</style>
<g id="Layer_1">
</g>
<g id="Layer_3">
	<g>
		<defs>
			<rect id="SVGID_4_" y="-78" transform="matrix(-1 -1.224647e-16 1.224647e-16 -1 401.9799 317.024)" width="402" height="473"/>
		</defs>
		<clipPath id="SVGID_1_">
			<use xlink:href="#SVGID_4_"  style="overflow:visible;"/>
		</clipPath>
		<g style="clip-path:url(#SVGID_1_);">
			<g>
				<path class="st5" d="M327.6,204.9L327.6,204.9c17.8-17.8,46.6-18,64.3-0.4l63.9,63.5c17.6,17.5,17.5,46.1-0.4,63.9l0,0
					c-17.8,17.8-46.6,18-64.3,0.4l-63.9-63.5C309.6,251.2,309.7,222.6,327.6,204.9z"/>
				<path class="st5" d="M421.5,97.1L421.5,97.1c1.8,12.7-7.1,24.7-20,26.6l-43.5,6.7c-12.8,2-24.7-6.8-26.5-19.5v0
					c-1.8-12.7,7.1-24.7,20-26.6l43.5-6.7C407.8,75.7,419.7,84.4,421.5,97.1z"/>
				<path class="st5" d="M252,121.3L252,121.3c-3.4,5.8-10.8,7.8-16.5,4.5L216,114.7c-5.7-3.3-7.7-10.6-4.3-16.4l0,0
					c3.4-5.8,10.8-7.8,16.5-4.5l19.5,11.1C253.4,108.3,255.4,115.6,252,121.3z"/>
				<path class="st5" d="M272.2,23L272.2,23c-2,3.3-6.2,4.5-9.6,2.6l-2.6-1.5c-3.3-1.9-4.4-6.1-2.5-9.5v0c2-3.3,6.2-4.5,9.6-2.6
					l2.6,1.5C273.1,15.4,274.2,19.6,272.2,23z"/>
				<path class="st5" d="M121.5,108.9L121.5,108.9c-2,3.3-6.2,4.5-9.6,2.6l-2.6-1.5c-3.3-1.9-4.4-6.1-2.5-9.5l0,0
					c2-3.3,6.2-4.5,9.6-2.6l2.6,1.5C122.4,101.3,123.5,105.6,121.5,108.9z"/>
			</g>
		</g>
	</g>
</g>
<g id="bg">
</g>
</svg>
