<?xml version="1.0" encoding="utf-8"?>
<!-- Generator: Adobe Illustrator 22.0.1, SVG Export Plug-In . SVG Version: 6.00 Build 0)  -->
<svg version="1.1" id="Layer_1" xmlns="http://www.w3.org/2000/svg" xmlns:xlink="http://www.w3.org/1999/xlink" x="0px" y="0px"
	 viewBox="0 0 1000 1000" style="enable-background:new 0 0 1000 1000;" xml:space="preserve">
<style type="text/css">
	.st0{fill:#FFFFFF;}
</style>
<g>
	<path class="st0" d="M499.4,494c-3.5,0-6.4,2.9-6.4,6.4c0,3.5,2.9,6.4,6.4,6.4c3.5,0,6.4-2.9,6.4-6.4
		C505.8,496.9,502.9,494,499.4,494L499.4,494z M501.1,500.4H500v3.8h-1.4v-3.8h-1v-1.3l1,0l0-0.8c0-1.1,0.3-1.7,1.6-1.7h1.1v1.3
		h-0.7c-0.5,0-0.5,0.2-0.5,0.5v0.7h1.2L501.1,500.4z M501.1,500.4"/>
</g>
</svg>
