<?xml version="1.0" encoding="utf-8"?>
<!-- Generator: Adobe Illustrator 22.0.1, SVG Export Plug-In . SVG Version: 6.00 Build 0)  -->
<svg version="1.1" id="Layer_1" xmlns="http://www.w3.org/2000/svg" xmlns:xlink="http://www.w3.org/1999/xlink" x="0px" y="0px"
	 viewBox="0 0 1000 1000" style="enable-background:new 0 0 1000 1000;" xml:space="preserve">
<style type="text/css">
	.st0{fill:#FFFFFF;}
</style>
<g>
	<path class="st0" d="M510,493.6l-0.4,0.1l-2,0.2l-0.6,0.9l-0.4-0.1l-1.6-1.4l-0.2-0.7l-0.3-0.8l-1-0.9l-1.2-0.2l0,0.5l1.2,1.1
		l0.6,0.7l-0.6,0.3l-0.5-0.2l-0.8-0.3l0-0.6l-1-0.4l-0.3,1.5l-1,0.2l0.1,0.8l1.3,0.3l0.2-1.3l1.1,0.2l0.5,0.3h0.8l0.6,1.1l1.5,1.5
		l-0.1,0.6l-1.2-0.2l-2.1,1.1l-1.5,1.8l-0.2,0.8h-0.5l-1-0.5l-1,0.5l0.2,1l0.4-0.5l0.7,0l-0.1,0.9l0.6,0.2l0.6,0.7l1-0.3l1.2,0.2
		l1.3,0.4l0.7,0.1l1.1,1.3l2.2,1.3l-1.4,2.7l-1.5,0.7l-0.6,1.5l-2.2,1.4l-0.2,0.8c5.5-1.3,9.6-6.3,9.6-12.2
		C512.1,498,511.3,495.6,510,493.6L510,493.6z M510,493.6"/>
	<path class="st0" d="M501,507.1l-0.9-1.7l0.8-1.8l-0.8-0.3l-0.9-0.9l-2.1-0.5l-0.7-1.5v0.9h-0.3l-1.8-2.4v-2l-1.3-2.1l-2.1,0.4
		h-1.4l-0.7-0.5l0.9-0.7l-0.9,0.2c-1.1,1.9-1.7,4-1.7,6.3c0,6.9,5.6,12.6,12.6,12.6c0.5,0,1.1,0,1.6-0.1l-0.1-1.5
		c0,0,0.6-2.3,0.6-2.3C501.6,509.1,501,507.1,501,507.1L501,507.1z M501,507.1"/>
	<path class="st0" d="M491.7,492.1l2.2-0.3l1-0.6l1.2,0.3l1.8-0.1l0.6-1l0.9,0.2l2.2-0.2l0.6-0.7l0.9-0.6l1.2,0.2l0.5-0.1
		c-1.6-0.8-3.4-1.2-5.4-1.2c-3.9,0-7.4,1.8-9.7,4.6h0L491.7,492.1z M500.1,489.3l1.3-0.7l0.8,0.5l-1.2,0.9l-1.1,0.1l-0.5-0.3
		L500.1,489.3z M496.3,489.4l0.6,0.2l0.7-0.2l0.4,0.7l-1.7,0.4l-0.8-0.5C495.5,490,496.3,489.5,496.3,489.4L496.3,489.4z
		 M496.3,489.4"/>
</g>
</svg>
