<?xml version="1.0" encoding="utf-8"?>
<!-- Generator: Adobe Illustrator 22.0.1, SVG Export Plug-In . SVG Version: 6.00 Build 0)  -->
<svg version="1.1" id="bg" xmlns="http://www.w3.org/2000/svg" xmlns:xlink="http://www.w3.org/1999/xlink" x="0px" y="0px"
	 viewBox="0 0 134.6 226.4" style="enable-background:new 0 0 134.6 226.4;" xml:space="preserve">
<style type="text/css">
	.st0{fill:url(#SVGID_1_);}
	.st1{fill:#FFFFFF;}
	.st2{fill:url(#SVGID_2_);}
	.st3{fill:url(#SVGID_3_);}
	.st4{fill:url(#SVGID_4_);}
	.st5{fill:url(#SVGID_5_);}
	.st6{fill:url(#SVGID_6_);}
	.st7{fill:url(#SVGID_7_);}
	.st8{fill:url(#SVGID_8_);}
	.st9{fill:url(#SVGID_9_);}
	.st10{fill:url(#SVGID_10_);}
	.st11{fill:url(#SVGID_11_);}
	.st12{fill:#4625C1;}
	.st13{fill:none;stroke:#FFFFFF;stroke-width:0.5;stroke-miterlimit:10;}
	.st14{fill:none;stroke:#3537AB;stroke-width:0.5;stroke-miterlimit:10;}
</style>
<linearGradient id="SVGID_1_" gradientUnits="userSpaceOnUse" x1="68.0366" y1="226.4332" x2="68.0366" y2="32.8595">
	<stop  offset="0" style="stop-color:#61CBF7"/>
	<stop  offset="1" style="stop-color:#467EF7"/>
</linearGradient>
<path class="st0" d="M117.9,32.9H18.2c-5.6,0-8.6,6.7-4.8,10.8L22.6,54c1,1.2,1.6,2.7,1.6,4.2l-0.1,25.6l-0.1,13.3l0,15.3h0v9.1
	l0,58.9c0,0.2,0,0.5,0,0.7v21.3c0,13.3,10.7,24,24,24h39.1c13.3,0,24-10.7,24-24v-16.6c0.2-1.8,0.3-3.6,0.3-5.4l0-62.5l0.1-33.7
	l0-1.8l0.1-12.8l0-4.1l0-6.8c0-0.1,0-0.3,0-0.4c0-1.6,0.6-3.1,1.7-4.2l9.3-10.3C126.5,39.5,123.5,32.9,117.9,32.9z"/>
<g>
	<g>
		<path class="st1" d="M49.1,61.2c-0.7,0-1.2-0.6-1.2-1.2V56c0-0.7,0.6-1.2,1.2-1.2c0.7,0,1.2,0.6,1.2,1.2v3.9
			C50.4,60.6,49.8,61.2,49.1,61.2z"/>
		<path class="st1" d="M54.3,66.4c0-0.7,0.6-1.2,1.2-1.2h3.9c0.7,0,1.2,0.6,1.2,1.2c0,0.7-0.6,1.2-1.2,1.2h-3.9
			C54.9,67.6,54.3,67,54.3,66.4z"/>
		<path class="st1" d="M52.8,70c0.5-0.5,1.3-0.5,1.8,0l2.7,2.7c0.5,0.5,0.5,1.3,0,1.8c-0.5,0.5-1.3,0.5-1.8,0l-2.7-2.7
			C52.3,71.3,52.3,70.5,52.8,70z"/>
		<path class="st1" d="M45.5,62.7c-0.5,0.5-1.3,0.5-1.8,0L41,59.9c-0.5-0.5-0.5-1.3,0-1.8c0.5-0.5,1.3-0.5,1.8,0l2.7,2.7
			C46,61.4,46,62.2,45.5,62.7z"/>
		<path class="st1" d="M52.8,62.7c-0.5-0.5-0.5-1.3,0-1.8l2.7-2.7c0.5-0.5,1.3-0.5,1.8,0c0.5,0.5,0.5,1.3,0,1.8l-2.7,2.7
			C54.1,63.2,53.3,63.2,52.8,62.7z"/>
		<path class="st1" d="M50.3,66C50.3,66,50.3,66,50.3,66c0,0,0-0.1,0-0.1c0,0,0,0,0,0c0,0,0-0.1,0-0.1c0,0,0,0,0,0
			c0,0,0-0.1-0.1-0.1c0,0,0,0,0,0c-0.1-0.1-0.2-0.3-0.4-0.4c0,0,0,0,0,0c0,0-0.1,0-0.1-0.1c0,0,0,0,0,0c0,0-0.1,0-0.1,0c0,0,0,0,0,0
			c0,0-0.1,0-0.1,0c0,0,0,0,0,0c0,0-0.1,0-0.1,0h0c-0.1,0-0.2,0-0.2,0H38.9c-0.7,0-1.2,0.6-1.2,1.2c0,0.7,0.6,1.2,1.2,1.2h7.3
			L41,72.7c-0.5,0.5-0.5,1.3,0,1.8c0.2,0.2,0.6,0.4,0.9,0.4c0.3,0,0.6-0.1,0.9-0.4l5.2-5.2v7.3c0,0.7,0.6,1.2,1.2,1.2
			c0.7,0,1.2-0.6,1.2-1.2V66.3C50.4,66.2,50.4,66.1,50.3,66z"/>
		<path class="st1" d="M67.4,61.3c0.2-0.2,0.5-0.3,0.9-0.3c0.3,0,0.6,0.1,0.9,0.3c0.2,0.2,0.4,0.5,0.4,0.9v8.3
			c0,0.3-0.1,0.6-0.4,0.9c-0.2,0.2-0.5,0.3-0.9,0.3c-0.3,0-0.6-0.1-0.9-0.3c-0.2-0.2-0.4-0.5-0.4-0.9v-8.3
			C67,61.8,67.1,61.5,67.4,61.3z"/>
		<path class="st1" d="M72.8,63.4h-1c-0.2,0-0.3,0-0.4-0.1c-0.1-0.1-0.3-0.2-0.4-0.3c-0.1-0.1-0.2-0.2-0.3-0.4
			c-0.1-0.1-0.1-0.3-0.1-0.4c0-0.2,0-0.3,0.1-0.5c0.1-0.2,0.2-0.3,0.3-0.4c0.1-0.1,0.2-0.2,0.4-0.3c0.1-0.1,0.3-0.1,0.4-0.1h4.5
			c0.2,0,0.3,0,0.4,0.1c0.1,0.1,0.3,0.2,0.4,0.3c0.1,0.1,0.2,0.2,0.3,0.4c0.1,0.2,0.1,0.3,0.1,0.5c0,0.1,0,0.3-0.1,0.4
			c-0.1,0.1-0.2,0.3-0.3,0.4c-0.1,0.1-0.2,0.2-0.4,0.3c-0.1,0.1-0.3,0.1-0.4,0.1h-1.1v7.1c0,0.4-0.1,0.6-0.4,0.9
			c-0.2,0.2-0.5,0.3-0.9,0.3c-0.3,0-0.6-0.1-0.9-0.3c-0.2-0.2-0.4-0.5-0.4-0.9V63.4z"/>
		<path class="st1" d="M84.8,64c-0.2-0.2-0.5-0.3-0.9-0.5c-0.3-0.1-0.6-0.2-1-0.2c-0.4,0-0.8,0.1-1.2,0.3c-0.4,0.2-0.7,0.4-0.9,0.6
			c-0.3,0.3-0.5,0.6-0.6,0.9c-0.2,0.4-0.2,0.7-0.2,1.1c0,0.4,0.1,0.8,0.3,1.1c0.2,0.3,0.4,0.7,0.7,0.9c0.3,0.3,0.6,0.5,1,0.6
			c0.4,0.2,0.7,0.3,1.1,0.3c0.3,0,0.6-0.1,1-0.2c0.3-0.1,0.6-0.3,0.9-0.5c0.3-0.2,0.5-0.3,0.9-0.3c0.3,0,0.6,0.1,0.9,0.3
			c0.2,0.2,0.4,0.5,0.4,0.9c0,0.3-0.1,0.5-0.2,0.7c-0.1,0.2-0.3,0.3-0.4,0.4c0,0-0.2,0.1-0.3,0.3c-0.2,0.1-0.4,0.3-0.7,0.4
			c-0.3,0.1-0.6,0.3-1,0.4c-0.4,0.1-0.9,0.2-1.4,0.2c-0.7,0-1.4-0.1-2.1-0.4c-0.7-0.3-1.2-0.7-1.7-1.2c-0.5-0.5-0.9-1.1-1.2-1.7
			c-0.3-0.7-0.4-1.4-0.4-2.1c0-0.7,0.1-1.4,0.4-2.1c0.3-0.7,0.7-1.2,1.2-1.7c0.5-0.5,1.1-0.9,1.7-1.2c0.7-0.3,1.4-0.4,2.1-0.4
			c0.5,0,1,0.1,1.4,0.2c0.4,0.1,0.7,0.2,1,0.4c0.3,0.1,0.5,0.3,0.7,0.4c0.2,0.1,0.3,0.2,0.3,0.2c0.1,0.1,0.2,0.2,0.4,0.4
			c0.1,0.2,0.2,0.4,0.2,0.7c0,0.3-0.1,0.6-0.4,0.9c-0.2,0.2-0.5,0.4-0.9,0.4C85.4,64.4,85.1,64.2,84.8,64z"/>
		<path class="st1" d="M98.2,67.2c-0.1,0.4-0.2,0.9-0.4,1.3c-0.3,0.7-0.7,1.2-1.2,1.7c-0.5,0.5-1.1,0.9-1.7,1.2
			c-0.7,0.3-1.4,0.4-2.1,0.4s-1.4-0.1-2.1-0.4c-0.7-0.3-1.2-0.7-1.7-1.2c-0.5-0.5-0.9-1.1-1.2-1.7c-0.3-0.7-0.4-1.4-0.4-2.1
			c0-0.7,0.1-1.5,0.4-2.1c0.3-0.7,0.7-1.2,1.2-1.7c0.5-0.5,1.1-0.9,1.7-1.2c0.7-0.3,1.4-0.4,2.1-0.4c0.5,0,1,0.1,1.4,0.2
			c0.4,0.1,0.7,0.2,1,0.4c0.3,0.1,0.5,0.3,0.7,0.4c0.2,0.1,0.3,0.2,0.3,0.2c0.1,0.1,0.2,0.2,0.4,0.4c0.1,0.2,0.2,0.4,0.2,0.7
			c0,0.3-0.1,0.6-0.4,0.9c-0.2,0.2-0.5,0.4-0.9,0.4c-0.3,0-0.6-0.1-0.9-0.3c-0.2-0.2-0.5-0.3-0.9-0.5c-0.3-0.1-0.7-0.2-1-0.2
			c-0.4,0-0.8,0.1-1.1,0.2c-0.4,0.2-0.7,0.4-0.9,0.6c-0.3,0.3-0.5,0.6-0.6,1c-0.2,0.4-0.2,0.8-0.2,1.2c0,0.4,0.1,0.8,0.2,1.2
			c0.2,0.4,0.4,0.7,0.6,0.9c0.3,0.3,0.6,0.5,0.9,0.6c0.4,0.2,0.7,0.2,1.1,0.2c0.5,0,0.9-0.1,1.3-0.3c0.4-0.2,0.7-0.5,1-0.8H93
			c-0.3,0-0.6-0.1-0.9-0.4c-0.2-0.2-0.3-0.5-0.3-0.9c0-0.3,0.1-0.6,0.3-0.9c0.2-0.2,0.5-0.4,0.9-0.4H97c0,0,0.4,0,0.8,0.3
			C98,66.3,98.2,66.7,98.2,67.2z"/>
	</g>
</g>
<g>
	<linearGradient id="SVGID_2_" gradientUnits="userSpaceOnUse" x1="67.3067" y1="42.4675" x2="67.3067" y2="3.637979e-12">
		<stop  offset="0" style="stop-color:#4625C1"/>
		<stop  offset="1" style="stop-color:#467EF7"/>
	</linearGradient>
	<path class="st2" d="M4.9,6.3c41.4-8.4,83.5-8.4,124.9,0c3.1,0.6,5.3,4.5,4.8,8.5c-0.8,7.1-1.6,14.2-2.4,21.4
		c-0.5,4.1-3.2,6.8-6.1,6.2c-38.9-7.9-78.5-7.9-117.4,0C5.7,43,3,40.2,2.5,36.2c-0.8-7.1-1.6-14.2-2.4-21.4
		C-0.4,10.8,1.7,6.9,4.9,6.3z"/>
	<g>
		<g>
			<linearGradient id="SVGID_3_" gradientUnits="userSpaceOnUse" x1="9.5295" y1="34.6667" x2="9.5295" y2="10.824">
				<stop  offset="0" style="stop-color:#61CBF7"/>
				<stop  offset="1" style="stop-color:#467EF7"/>
			</linearGradient>
			<path class="st3" d="M5.4,13.7c1.1,6.3,2.2,12.6,3.3,19c0.6,3.2,5.5,2.3,5-0.8c-1-6.3-2-12.7-3-19C10.2,9.6,4.8,10.5,5.4,13.7
				C5.4,13.7,5.4,13.7,5.4,13.7z"/>
		</g>
		<g>
			<linearGradient id="SVGID_4_" gradientUnits="userSpaceOnUse" x1="28.4342" y1="32.1153" x2="28.4342" y2="8.1398">
				<stop  offset="0" style="stop-color:#61CBF7"/>
				<stop  offset="1" style="stop-color:#467EF7"/>
			</linearGradient>
			<path class="st4" d="M24.8,10.9c0.8,6.4,1.5,12.7,2.3,19.1c0.4,3.2,5.4,2.6,5-0.6c-0.7-6.4-1.3-12.8-2-19.2
				C29.8,7.1,24.4,7.7,24.8,10.9C24.8,10.9,24.8,10.9,24.8,10.9z"/>
		</g>
		<g>
			<linearGradient id="SVGID_5_" gradientUnits="userSpaceOnUse" x1="47.4264" y1="30.5867" x2="47.4264" y2="6.5278">
				<stop  offset="0" style="stop-color:#61CBF7"/>
				<stop  offset="1" style="stop-color:#467EF7"/>
			</linearGradient>
			<path class="st5" d="M44.3,9.1c0.4,6.4,0.8,12.8,1.2,19.2c0.2,3.2,5.2,2.9,5-0.3c-0.3-6.4-0.6-12.8-0.9-19.2
				C49.5,5.6,44.1,5.9,44.3,9.1L44.3,9.1z"/>
		</g>
		<g>
			<linearGradient id="SVGID_6_" gradientUnits="userSpaceOnUse" x1="66.5347" y1="30.0759" x2="66.5347" y2="5.9896">
				<stop  offset="0" style="stop-color:#61CBF7"/>
				<stop  offset="1" style="stop-color:#467EF7"/>
			</linearGradient>
			<path class="st6" d="M63.9,8.4c0,6.4,0.1,12.8,0.1,19.3c0,3.2,5,3.2,5.1,0c0-6.4,0.1-12.8,0.1-19.3C69.2,5.2,63.8,5.2,63.9,8.4
				C63.9,8.4,63.9,8.4,63.9,8.4z"/>
		</g>
		<g>
			<linearGradient id="SVGID_7_" gradientUnits="userSpaceOnUse" x1="85.643" y1="30.5869" x2="85.643" y2="6.5272">
				<stop  offset="0" style="stop-color:#61CBF7"/>
				<stop  offset="1" style="stop-color:#467EF7"/>
			</linearGradient>
			<path class="st7" d="M83.4,8.8c-0.3,6.4-0.6,12.8-0.9,19.2c-0.1,3.2,4.8,3.5,5,0.3c0.4-6.4,0.8-12.8,1.2-19.2
				C89,5.9,83.6,5.6,83.4,8.8L83.4,8.8z"/>
		</g>
		<g>
			<linearGradient id="SVGID_8_" gradientUnits="userSpaceOnUse" x1="104.6347" y1="32.1167" x2="104.6347" y2="8.1382">
				<stop  offset="0" style="stop-color:#61CBF7"/>
				<stop  offset="1" style="stop-color:#467EF7"/>
			</linearGradient>
			<path class="st8" d="M103,10.3c-0.7,6.4-1.3,12.8-2,19.2c-0.3,3.2,4.6,3.7,5,0.6c0.8-6.4,1.5-12.7,2.3-19.1
				C108.7,7.7,103.3,7.1,103,10.3C103,10.3,103,10.3,103,10.3z"/>
		</g>
		<g>
			<linearGradient id="SVGID_9_" gradientUnits="userSpaceOnUse" x1="123.5395" y1="34.6662" x2="123.5395" y2="10.8255">
				<stop  offset="0" style="stop-color:#61CBF7"/>
				<stop  offset="1" style="stop-color:#467EF7"/>
			</linearGradient>
			<path class="st9" d="M122.4,12.8c-1,6.3-2,12.7-3,19c-0.5,3.2,4.4,4,5,0.8c1.1-6.3,2.2-12.6,3.3-19
				C128.3,10.5,122.9,9.6,122.4,12.8C122.4,12.8,122.4,12.8,122.4,12.8z"/>
		</g>
	</g>
</g>
<linearGradient id="SVGID_10_" gradientUnits="userSpaceOnUse" x1="68.2968" y1="148.3409" x2="68.2968" y2="89.7021">
	<stop  offset="0" style="stop-color:#4625C1"/>
	<stop  offset="1" style="stop-color:#467EF7"/>
</linearGradient>
<path class="st10" d="M68.3,89.7L68.3,89.7c7.1,0,12.9,5.8,12.9,12.9v32.9c0,7.1-5.8,12.9-12.9,12.9h0c-7.1,0-12.9-5.8-12.9-12.9
	v-32.9C55.4,95.5,61.2,89.7,68.3,89.7z"/>
<linearGradient id="SVGID_11_" gradientUnits="userSpaceOnUse" x1="68.2968" y1="143.7375" x2="68.2968" y2="117.5552">
	<stop  offset="0" style="stop-color:#467EF7"/>
	<stop  offset="1" style="stop-color:#61CBF7"/>
</linearGradient>
<path class="st11" d="M68.3,117.6L68.3,117.6c5.1,0,9.3,4.2,9.3,9.3v7.6c0,5.1-4.2,9.3-9.3,9.3h0c-5.1,0-9.3-4.2-9.3-9.3v-7.6
	C59,121.7,63.2,117.6,68.3,117.6z"/>
<g>
	<path class="st12" d="M64.7,128.1c0.4,0.5,0.7,1.1,0.7,1.9c0,0.3,0,0.6,0,0.8c0,0.3,0,0.6,0,1c0,0.8-0.3,1.4-0.7,1.9
		c-0.4,0.5-1.1,0.7-1.9,0.7s-1.5-0.2-1.9-0.7c-0.4-0.5-0.7-1.1-0.7-1.9c0-0.4,0-0.7,0-1c0-0.2,0-0.5,0-0.8c0-0.8,0.3-1.4,0.7-1.9
		c0.4-0.5,1.1-0.7,1.9-0.7S64.3,127.6,64.7,128.1z M61.8,129c-0.3,0.3-0.4,0.6-0.4,1.1c0,0.3,0,0.6,0,0.8c0,0.2,0,0.5,0,0.8
		c0,0.5,0.2,0.8,0.4,1.1s0.6,0.4,1,0.4s0.8-0.1,1-0.4s0.4-0.6,0.4-1.1c0-0.2,0-0.4,0-0.8c0-0.4,0-0.7,0-0.8c0-0.5-0.2-0.8-0.4-1.1
		c-0.3-0.3-0.6-0.4-1-0.4S62,128.7,61.8,129z"/>
	<path class="st12" d="M70.9,127.5c0,0.1,0.1,0.1,0.1,0.2v0.7c0,0.1,0,0.1-0.1,0.2s-0.1,0.1-0.2,0.1h-2.9v1.9h2.7
		c0.1,0,0.1,0,0.2,0.1s0.1,0.1,0.1,0.2v0.7c0,0.1,0,0.1-0.1,0.2s-0.1,0.1-0.2,0.1h-2.7v2.3c0,0.1,0,0.1-0.1,0.2
		c0,0.1-0.1,0.1-0.2,0.1h-0.7c-0.1,0-0.1,0-0.2-0.1c0-0.1-0.1-0.1-0.1-0.2v-6.4c0-0.1,0-0.1,0.1-0.2c0-0.1,0.1-0.1,0.2-0.1h3.8
		C70.8,127.4,70.8,127.5,70.9,127.5z"/>
	<path class="st12" d="M76.3,127.5c0,0.1,0.1,0.1,0.1,0.2v0.7c0,0.1,0,0.1-0.1,0.2s-0.1,0.1-0.2,0.1h-2.9v1.9h2.7
		c0.1,0,0.1,0,0.2,0.1s0.1,0.1,0.1,0.2v0.7c0,0.1,0,0.1-0.1,0.2s-0.1,0.1-0.2,0.1h-2.7v2.3c0,0.1,0,0.1-0.1,0.2
		c0,0.1-0.1,0.1-0.2,0.1h-0.7c-0.1,0-0.1,0-0.2-0.1c0-0.1-0.1-0.1-0.1-0.2v-6.4c0-0.1,0-0.1,0.1-0.2c0-0.1,0.1-0.1,0.2-0.1h3.8
		C76.2,127.4,76.2,127.5,76.3,127.5z"/>
</g>
<path class="st13" d="M105.4,124.4v50c0,44.7-5.5,42.5-38.4,42.5h0"/>
<path class="st14" d="M50.4,138.4c0,0,0.4,17,17.9,16"/>
</svg>
