<?xml version="1.0" encoding="utf-8"?>
<!-- Generator: Adobe Illustrator 22.0.1, SVG Export Plug-In . SVG Version: 6.00 Build 0)  -->
<svg version="1.1" id="bg" xmlns="http://www.w3.org/2000/svg" xmlns:xlink="http://www.w3.org/1999/xlink" x="0px" y="0px"
	 viewBox="0 0 418 740" style="enable-background:new 0 0 418 740;" xml:space="preserve">
<style type="text/css">
	.st0{fill:url(#SVGID_1_);}
	.st1{fill:#FFFFFF;}
	.st2{fill:none;}
	.st3{fill:url(#SVGID_2_);}
	.st4{fill:url(#SVGID_3_);}
	.st5{fill:url(#SVGID_4_);}
	.st6{fill:url(#SVGID_5_);}
	.st7{fill:url(#SVGID_6_);}
	.st8{fill:url(#SVGID_7_);}
	.st9{fill:url(#SVGID_8_);}
	.st10{fill:url(#SVGID_9_);}
	.st11{fill:url(#SVGID_10_);}
	.st12{fill:#4625C1;}
	.st13{fill:none;stroke:#FFFFFF;stroke-width:0.5;stroke-miterlimit:10;}
	.st14{fill:none;stroke:#3537AB;stroke-width:0.5;stroke-miterlimit:10;}
</style>
<linearGradient id="SVGID_1_" gradientUnits="userSpaceOnUse" x1="1515.9069" y1="1271.3103" x2="1515.9069" y2="1077.7366">
	<stop  offset="0" style="stop-color:#61CBF7"/>
	<stop  offset="1" style="stop-color:#467EF7"/>
</linearGradient>
<path class="st0" d="M1565.8,1077.7h-99.7c-5.6,0-8.6,6.7-4.8,10.8l9.3,10.3c1,1.2,1.6,2.7,1.6,4.2l-0.1,25.6l-0.1,13.3l0,15.3h0
	v9.1l0,58.9c0,0.2,0,0.5,0,0.7v21.3c0,13.3,10.7,24,24,24h39.1c13.3,0,24-10.7,24-24v-16.6c0.2-1.8,0.3-3.6,0.3-5.4l0-62.5l0.1-33.7
	l0-1.8l0.1-12.8l0-4.1l0-6.8c0-0.1,0-0.3,0-0.4c0-1.6,0.6-3.1,1.7-4.2l9.3-10.3C1574.3,1084.4,1571.4,1077.7,1565.8,1077.7z"/>
<g>
	<g>
		<path class="st1" d="M1497,1106c-0.7,0-1.2-0.6-1.2-1.2v-3.9c0-0.7,0.6-1.2,1.2-1.2c0.7,0,1.2,0.6,1.2,1.2v3.9
			C1498.2,1105.5,1497.7,1106,1497,1106z"/>
		<path class="st1" d="M1502.2,1111.2c0-0.7,0.6-1.2,1.2-1.2h3.9c0.7,0,1.2,0.6,1.2,1.2c0,0.7-0.6,1.2-1.2,1.2h-3.9
			C1502.7,1112.5,1502.2,1111.9,1502.2,1111.2z"/>
		<path class="st1" d="M1500.7,1114.9c0.5-0.5,1.3-0.5,1.8,0l2.7,2.7c0.5,0.5,0.5,1.3,0,1.8c-0.5,0.5-1.3,0.5-1.8,0l-2.7-2.7
			C1500.2,1116.1,1500.2,1115.4,1500.7,1114.9z"/>
		<path class="st1" d="M1493.4,1107.6c-0.5,0.5-1.3,0.5-1.8,0l-2.7-2.7c-0.5-0.5-0.5-1.3,0-1.8c0.5-0.5,1.3-0.5,1.8,0l2.7,2.7
			C1493.8,1106.3,1493.8,1107.1,1493.4,1107.6z"/>
		<path class="st1" d="M1500.7,1107.6c-0.5-0.5-0.5-1.3,0-1.8l2.7-2.7c0.5-0.5,1.3-0.5,1.8,0c0.5,0.5,0.5,1.3,0,1.8l-2.7,2.7
			C1501.9,1108,1501.1,1108,1500.7,1107.6z"/>
		<path class="st1" d="M1498.2,1110.9C1498.2,1110.9,1498.2,1110.9,1498.2,1110.9c0,0,0-0.1,0-0.1c0,0,0,0,0,0c0,0,0-0.1,0-0.1
			c0,0,0,0,0,0c0,0,0-0.1-0.1-0.1c0,0,0,0,0,0c-0.1-0.1-0.2-0.3-0.4-0.4c0,0,0,0,0,0c0,0-0.1,0-0.1-0.1c0,0,0,0,0,0c0,0-0.1,0-0.1,0
			c0,0,0,0,0,0c0,0-0.1,0-0.1,0c0,0,0,0,0,0c0,0-0.1,0-0.1,0h0c-0.1,0-0.2,0-0.2,0h-10.3c-0.7,0-1.2,0.6-1.2,1.2
			c0,0.7,0.6,1.2,1.2,1.2h7.3l-5.2,5.2c-0.5,0.5-0.5,1.3,0,1.8c0.2,0.2,0.6,0.4,0.9,0.4c0.3,0,0.6-0.1,0.9-0.4l5.2-5.2v7.3
			c0,0.7,0.6,1.2,1.2,1.2c0.7,0,1.2-0.6,1.2-1.2v-10.3C1498.2,1111.1,1498.2,1111,1498.2,1110.9z"/>
		<path class="st1" d="M1515.2,1106.2c0.2-0.2,0.5-0.3,0.9-0.3c0.3,0,0.6,0.1,0.9,0.3c0.2,0.2,0.4,0.5,0.4,0.9v8.3
			c0,0.3-0.1,0.6-0.4,0.9c-0.2,0.2-0.5,0.3-0.9,0.3c-0.3,0-0.6-0.1-0.9-0.3c-0.2-0.2-0.4-0.5-0.4-0.9v-8.3
			C1514.9,1106.7,1515,1106.4,1515.2,1106.2z"/>
		<path class="st1" d="M1520.7,1108.3h-1c-0.2,0-0.3,0-0.4-0.1c-0.1-0.1-0.3-0.2-0.4-0.3c-0.1-0.1-0.2-0.2-0.3-0.4
			c-0.1-0.1-0.1-0.3-0.1-0.4c0-0.2,0-0.3,0.1-0.5c0.1-0.2,0.2-0.3,0.3-0.4c0.1-0.1,0.2-0.2,0.4-0.3c0.1-0.1,0.3-0.1,0.4-0.1h4.5
			c0.2,0,0.3,0,0.4,0.1c0.1,0.1,0.3,0.2,0.4,0.3c0.1,0.1,0.2,0.2,0.3,0.4c0.1,0.2,0.1,0.3,0.1,0.5c0,0.1,0,0.3-0.1,0.4
			c-0.1,0.1-0.2,0.3-0.3,0.4c-0.1,0.1-0.2,0.2-0.4,0.3c-0.1,0.1-0.3,0.1-0.4,0.1h-1.1v7.1c0,0.4-0.1,0.6-0.4,0.9
			c-0.2,0.2-0.5,0.3-0.9,0.3c-0.3,0-0.6-0.1-0.9-0.3c-0.2-0.2-0.4-0.5-0.4-0.9V1108.3z"/>
		<path class="st1" d="M1532.7,1108.9c-0.2-0.2-0.5-0.3-0.9-0.5c-0.3-0.1-0.6-0.2-1-0.2c-0.4,0-0.8,0.1-1.2,0.3
			c-0.4,0.2-0.7,0.4-0.9,0.6c-0.3,0.3-0.5,0.6-0.6,0.9c-0.2,0.4-0.2,0.7-0.2,1.1c0,0.4,0.1,0.8,0.3,1.1c0.2,0.3,0.4,0.7,0.7,0.9
			c0.3,0.3,0.6,0.5,1,0.6c0.4,0.2,0.7,0.3,1.1,0.3c0.3,0,0.6-0.1,1-0.2c0.3-0.1,0.6-0.3,0.9-0.5c0.3-0.2,0.5-0.3,0.9-0.3
			c0.3,0,0.6,0.1,0.9,0.3c0.2,0.2,0.4,0.5,0.4,0.9c0,0.3-0.1,0.5-0.2,0.7c-0.1,0.2-0.3,0.3-0.4,0.4c0,0-0.2,0.1-0.3,0.3
			c-0.2,0.1-0.4,0.3-0.7,0.4c-0.3,0.1-0.6,0.3-1,0.4c-0.4,0.1-0.9,0.2-1.4,0.2c-0.7,0-1.4-0.1-2.1-0.4c-0.7-0.3-1.2-0.7-1.7-1.2
			c-0.5-0.5-0.9-1.1-1.2-1.7c-0.3-0.7-0.4-1.4-0.4-2.1c0-0.7,0.1-1.4,0.4-2.1c0.3-0.7,0.7-1.2,1.2-1.7c0.5-0.5,1.1-0.9,1.7-1.2
			c0.7-0.3,1.4-0.4,2.1-0.4c0.5,0,1,0.1,1.4,0.2c0.4,0.1,0.7,0.2,1,0.4c0.3,0.1,0.5,0.3,0.7,0.4c0.2,0.1,0.3,0.2,0.3,0.2
			c0.1,0.1,0.2,0.2,0.4,0.4c0.1,0.2,0.2,0.4,0.2,0.7c0,0.3-0.1,0.6-0.4,0.9c-0.2,0.2-0.5,0.4-0.9,0.4
			C1533.2,1109.2,1532.9,1109.1,1532.7,1108.9z"/>
		<path class="st1" d="M1546,1112.1c-0.1,0.4-0.2,0.9-0.4,1.3c-0.3,0.7-0.7,1.2-1.2,1.7c-0.5,0.5-1.1,0.9-1.7,1.2
			c-0.7,0.3-1.4,0.4-2.1,0.4s-1.4-0.1-2.1-0.4c-0.7-0.3-1.2-0.7-1.7-1.2c-0.5-0.5-0.9-1.1-1.2-1.7c-0.3-0.7-0.4-1.4-0.4-2.1
			s0.1-1.5,0.4-2.1c0.3-0.7,0.7-1.2,1.2-1.7c0.5-0.5,1.1-0.9,1.7-1.2c0.7-0.3,1.4-0.4,2.1-0.4c0.5,0,1,0.1,1.4,0.2
			c0.4,0.1,0.7,0.2,1,0.4c0.3,0.1,0.5,0.3,0.7,0.4c0.2,0.1,0.3,0.2,0.3,0.2c0.1,0.1,0.2,0.2,0.4,0.4c0.1,0.2,0.2,0.4,0.2,0.7
			c0,0.3-0.1,0.6-0.4,0.9c-0.2,0.2-0.5,0.4-0.9,0.4c-0.3,0-0.6-0.1-0.9-0.3c-0.2-0.2-0.5-0.3-0.9-0.5c-0.3-0.1-0.7-0.2-1-0.2
			c-0.4,0-0.8,0.1-1.1,0.2c-0.4,0.2-0.7,0.4-0.9,0.6c-0.3,0.3-0.5,0.6-0.6,1c-0.2,0.4-0.2,0.8-0.2,1.2c0,0.4,0.1,0.8,0.2,1.2
			c0.2,0.4,0.4,0.7,0.6,0.9c0.3,0.3,0.6,0.5,0.9,0.6c0.4,0.2,0.7,0.2,1.1,0.2c0.5,0,0.9-0.1,1.3-0.3s0.7-0.5,1-0.8h-2.1
			c-0.3,0-0.6-0.1-0.9-0.4c-0.2-0.2-0.3-0.5-0.3-0.9c0-0.3,0.1-0.6,0.3-0.9c0.2-0.2,0.5-0.4,0.9-0.4h3.9c0,0,0.4,0,0.8,0.3
			C1545.9,1111.2,1546.1,1111.5,1546,1112.1z"/>
	</g>
</g>
<path class="st2" d="M1446.6,1028.6c47.5-6.9,95.7-6.9,143.2,0c3.6,0.5,6,3.7,5.5,7c-0.9,5.9-1.9,11.7-2.8,17.6
	c-0.5,3.3-3.7,5.6-7,5.1c-44.6-6.5-90-6.5-134.6,0c-3.4,0.5-6.5-1.8-7-5.1c-0.9-5.9-1.9-11.7-2.8-17.6
	C1440.6,1032.3,1443.1,1029.1,1446.6,1028.6z"/>
<g>
	<linearGradient id="SVGID_2_" gradientUnits="userSpaceOnUse" x1="1515.1769" y1="1087.3446" x2="1515.1769" y2="1044.8771">
		<stop  offset="0" style="stop-color:#4625C1"/>
		<stop  offset="1" style="stop-color:#467EF7"/>
	</linearGradient>
	<path class="st3" d="M1452.7,1051.2c41.4-8.4,83.5-8.4,124.9,0c3.1,0.6,5.3,4.5,4.8,8.5c-0.8,7.1-1.6,14.2-2.4,21.4
		c-0.5,4.1-3.2,6.8-6.1,6.2c-38.9-7.9-78.5-7.9-117.4,0c-2.9,0.6-5.7-2.2-6.1-6.2c-0.8-7.1-1.6-14.2-2.4-21.4
		C1447.5,1055.6,1449.6,1051.8,1452.7,1051.2z"/>
	<g>
		<g>
			<linearGradient id="SVGID_3_" gradientUnits="userSpaceOnUse" x1="1457.3997" y1="1079.5437" x2="1457.3997" y2="1055.701">
				<stop  offset="0" style="stop-color:#61CBF7"/>
				<stop  offset="1" style="stop-color:#467EF7"/>
			</linearGradient>
			<path class="st4" d="M1453.2,1058.6c1.1,6.3,2.2,12.6,3.3,19c0.6,3.2,5.5,2.3,5-0.8c-1-6.3-2-12.7-3-19
				C1458,1054.5,1452.7,1055.4,1453.2,1058.6C1453.2,1058.6,1453.2,1058.6,1453.2,1058.6z"/>
		</g>
		<g>
			<linearGradient id="SVGID_4_" gradientUnits="userSpaceOnUse" x1="1476.3044" y1="1076.9923" x2="1476.3044" y2="1053.0168">
				<stop  offset="0" style="stop-color:#61CBF7"/>
				<stop  offset="1" style="stop-color:#467EF7"/>
			</linearGradient>
			<path class="st5" d="M1472.7,1055.7c0.8,6.4,1.5,12.7,2.3,19.1c0.4,3.2,5.4,2.6,5-0.6c-0.7-6.4-1.3-12.8-2-19.2
				C1477.7,1051.9,1472.3,1052.5,1472.7,1055.7C1472.7,1055.7,1472.7,1055.7,1472.7,1055.7z"/>
		</g>
		<g>
			<linearGradient id="SVGID_5_" gradientUnits="userSpaceOnUse" x1="1495.2966" y1="1075.4637" x2="1495.2966" y2="1051.4049">
				<stop  offset="0" style="stop-color:#61CBF7"/>
				<stop  offset="1" style="stop-color:#467EF7"/>
			</linearGradient>
			<path class="st6" d="M1492.2,1054c0.4,6.4,0.8,12.8,1.2,19.2c0.2,3.2,5.2,2.9,5-0.3c-0.3-6.4-0.6-12.8-0.9-19.2
				C1497.4,1050.5,1492,1050.8,1492.2,1054L1492.2,1054z"/>
		</g>
		<g>
			<linearGradient id="SVGID_6_" gradientUnits="userSpaceOnUse" x1="1514.4049" y1="1074.953" x2="1514.4049" y2="1050.8667">
				<stop  offset="0" style="stop-color:#61CBF7"/>
				<stop  offset="1" style="stop-color:#467EF7"/>
			</linearGradient>
			<path class="st7" d="M1511.7,1053.3c0,6.4,0.1,12.8,0.1,19.3c0,3.2,5,3.2,5.1,0c0-6.4,0.1-12.8,0.1-19.3
				C1517.1,1050.1,1511.7,1050.1,1511.7,1053.3C1511.7,1053.3,1511.7,1053.3,1511.7,1053.3z"/>
		</g>
		<g>
			<linearGradient id="SVGID_7_" gradientUnits="userSpaceOnUse" x1="1533.5132" y1="1075.464" x2="1533.5132" y2="1051.4043">
				<stop  offset="0" style="stop-color:#61CBF7"/>
				<stop  offset="1" style="stop-color:#467EF7"/>
			</linearGradient>
			<path class="st8" d="M1531.3,1053.7c-0.3,6.4-0.6,12.8-0.9,19.2c-0.1,3.2,4.8,3.5,5,0.3c0.4-6.4,0.8-12.8,1.2-19.2
				C1536.8,1050.8,1531.4,1050.4,1531.3,1053.7L1531.3,1053.7z"/>
		</g>
		<g>
			<linearGradient id="SVGID_8_" gradientUnits="userSpaceOnUse" x1="1552.5049" y1="1076.9938" x2="1552.5049" y2="1053.0153">
				<stop  offset="0" style="stop-color:#61CBF7"/>
				<stop  offset="1" style="stop-color:#467EF7"/>
			</linearGradient>
			<path class="st9" d="M1550.8,1055.2c-0.7,6.4-1.3,12.8-2,19.2c-0.3,3.2,4.6,3.7,5,0.6c0.8-6.4,1.5-12.7,2.3-19.1
				C1556.5,1052.5,1551.2,1051.9,1550.8,1055.2C1550.8,1055.2,1550.8,1055.2,1550.8,1055.2z"/>
		</g>
		<g>
			<linearGradient id="SVGID_9_" gradientUnits="userSpaceOnUse" x1="1571.4097" y1="1079.5433" x2="1571.4097" y2="1055.7025">
				<stop  offset="0" style="stop-color:#61CBF7"/>
				<stop  offset="1" style="stop-color:#467EF7"/>
			</linearGradient>
			<path class="st10" d="M1570.3,1057.7c-1,6.3-2,12.7-3,19c-0.5,3.2,4.4,4,5,0.8c1.1-6.3,2.2-12.6,3.3-19
				C1576.1,1055.4,1570.8,1054.5,1570.3,1057.7C1570.3,1057.7,1570.3,1057.7,1570.3,1057.7z"/>
		</g>
	</g>
</g>
<linearGradient id="SVGID_10_" gradientUnits="userSpaceOnUse" x1="1516.167" y1="1193.2179" x2="1516.167" y2="1134.5792">
	<stop  offset="0" style="stop-color:#4625C1"/>
	<stop  offset="1" style="stop-color:#467EF7"/>
</linearGradient>
<path class="st11" d="M1516.2,1134.6L1516.2,1134.6c7.1,0,12.9,5.8,12.9,12.9v32.9c0,7.1-5.8,12.9-12.9,12.9l0,0
	c-7.1,0-12.9-5.8-12.9-12.9v-32.9C1503.3,1140.3,1509.1,1134.6,1516.2,1134.6z"/>
<path class="st1" d="M1516.2,1139.3L1516.2,1139.3c5.1,0,9.3,4.2,9.3,9.3v7.6c0,5.1-4.2,9.3-9.3,9.3l0,0c-5.1,0-9.3-4.2-9.3-9.3
	v-7.6C1506.9,1143.5,1511,1139.3,1516.2,1139.3z"/>
<path class="st12" d="M1511.3,1154.8c-0.5-0.4-0.7-1-0.7-1.8c0-0.2,0-0.4,0-0.8c0-0.3,0-0.6,0-0.8c0-0.8,0.3-1.4,0.7-1.8
	c0.5-0.4,1.1-0.6,1.9-0.6c0.8,0,1.4,0.2,1.9,0.6c0.5,0.4,0.7,1,0.7,1.8c0,0.3,0,0.6,0,0.8c0,0.2,0,0.4,0,0.8c0,0.8-0.3,1.4-0.7,1.8
	s-1.1,0.6-1.9,0.6C1512.4,1155.4,1511.7,1155.2,1511.3,1154.8z M1514.2,1154c0.2-0.2,0.4-0.6,0.4-1.1c0-0.4,0-0.6,0-0.7
	c0-0.1,0-0.4,0-0.7c0-0.5-0.1-0.9-0.4-1.1c-0.2-0.2-0.6-0.4-0.9-0.4c-0.4,0-0.7,0.1-1,0.4c-0.2,0.2-0.4,0.6-0.4,1.1
	c0,0.2,0,0.4,0,0.7c0,0.3,0,0.5,0,0.7c0,0.5,0.1,0.9,0.4,1.1c0.2,0.2,0.6,0.4,1,0.4C1513.6,1154.4,1513.9,1154.3,1514.2,1154z"/>
<path class="st12" d="M1517.1,1155.3c0,0-0.1-0.1-0.1-0.2v-5.9c0-0.1,0-0.1,0.1-0.2s0.1-0.1,0.2-0.1h0.7c0.1,0,0.2,0.1,0.3,0.2
	l2.6,4v-3.9c0-0.1,0-0.1,0.1-0.2s0.1-0.1,0.2-0.1h0.8c0.1,0,0.1,0,0.2,0.1s0.1,0.1,0.1,0.2v5.8c0,0.1,0,0.1-0.1,0.2
	c0,0-0.1,0.1-0.2,0.1h-0.7c-0.1,0-0.2-0.1-0.3-0.2l-2.6-3.9v3.8c0,0.1,0,0.1-0.1,0.2c0,0-0.1,0.1-0.2,0.1h-0.8
	C1517.2,1155.3,1517.1,1155.3,1517.1,1155.3z"/>
<path class="st13" d="M1553.2,1169.3v50c0,44.7-5.5,42.5-38.4,42.5l0,0"/>
<path class="st14" d="M1498.2,1183.3c0,0,0.4,17,17.9,16"/>
</svg>
