<?xml version="1.0" encoding="UTF-8" standalone="no"?>
<!-- Generator: Adobe Illustrator 22.0.1, SVG Export Plug-In . SVG Version: 6.00 Build 0)  -->

<svg
   xmlns:dc="http://purl.org/dc/elements/1.1/"
   xmlns:cc="http://creativecommons.org/ns#"
   xmlns:rdf="http://www.w3.org/1999/02/22-rdf-syntax-ns#"
   xmlns:svg="http://www.w3.org/2000/svg"
   xmlns="http://www.w3.org/2000/svg"
   xmlns:sodipodi="http://sodipodi.sourceforge.net/DTD/sodipodi-0.dtd"
   xmlns:inkscape="http://www.inkscape.org/namespaces/inkscape"
   version="1.1"
   id="bg"
   x="0px"
   y="0px"
   viewBox="0 0 134.54456 226.3"
   xml:space="preserve"
   sodipodi:docname="flashlight-on.svg"
   width="134.54456"
   height="226.3"
   inkscape:version="0.92.4 (5da689c313, 2019-01-14)"><metadata
   id="metadata274"><rdf:RDF><cc:Work
       rdf:about=""><dc:format>image/svg+xml</dc:format><dc:type
         rdf:resource="http://purl.org/dc/dcmitype/StillImage" /><dc:title></dc:title></cc:Work></rdf:RDF></metadata><defs
   id="defs272" /><sodipodi:namedview
   pagecolor="#ffffff"
   bordercolor="#666666"
   borderopacity="1"
   objecttolerance="10"
   gridtolerance="10"
   guidetolerance="10"
   inkscape:pageopacity="0"
   inkscape:pageshadow="2"
   inkscape:window-width="1920"
   inkscape:window-height="1017"
   id="namedview270"
   showgrid="false"
   inkscape:zoom="2.2918919"
   inkscape:cx="10.028051"
   inkscape:cy="107.5562"
   inkscape:window-x="-8"
   inkscape:window-y="-8"
   inkscape:window-maximized="1"
   inkscape:current-layer="bg" />
<style
   type="text/css"
   id="style143">
	.st0{fill:url(#SVGID_1_);}
	.st1{fill:#FFFFFF;}
	.st2{fill:none;}
	.st3{fill:url(#SVGID_2_);}
	.st4{fill:url(#SVGID_3_);}
	.st5{fill:url(#SVGID_4_);}
	.st6{fill:url(#SVGID_5_);}
	.st7{fill:url(#SVGID_6_);}
	.st8{fill:url(#SVGID_7_);}
	.st9{fill:url(#SVGID_8_);}
	.st10{fill:url(#SVGID_9_);}
	.st11{fill:url(#SVGID_10_);}
	.st12{fill:#4625C1;}
	.st13{fill:none;stroke:#FFFFFF;stroke-width:0.5;stroke-miterlimit:10;}
	.st14{fill:none;stroke:#3537AB;stroke-width:0.5;stroke-miterlimit:10;}
</style>
<linearGradient
   id="SVGID_1_"
   gradientUnits="userSpaceOnUse"
   x1="1515.9069"
   y1="1271.3103"
   x2="1515.9069"
   y2="1077.7366"
   gradientTransform="translate(-1447.9264,-1044.9)">
	<stop
   offset="0"
   style="stop-color:#61CBF7"
   id="stop145" />
	<stop
   offset="1"
   style="stop-color:#467EF7"
   id="stop147" />
</linearGradient>
<path
   class="st0"
   d="M 117.87361,32.8 H 18.173613 c -5.6,0 -8.6000001,6.7 -4.8,10.8 l 9.3,10.3 c 1,1.2 1.6,2.7 1.6,4.2 l -0.1,25.6 -0.1,13.3 v 15.3 0 9.1 58.9 c 0,0.2 0,0.5 0,0.7 v 21.3 c 0,13.3 10.7,24 24,24 h 39.1 c 13.299997,0 23.999997,-10.7 23.999997,-24 v -16.6 c 0.2,-1.8 0.3,-3.6 0.3,-5.4 v -62.5 l 0.1,-33.7 v -1.8 l 0.1,-12.8 v -4.1 -6.8 c 0,-0.1 0,-0.3 0,-0.4 0,-1.6 0.6,-3.1 1.7,-4.2 l 9.3,-10.3 c 3.7,-4.2 0.8,-10.9 -4.8,-10.9 z"
   id="path150"
   style="fill:url(#SVGID_1_)"
   inkscape:connector-curvature="0" />
<g
   id="g174"
   transform="translate(-1447.9264,-1044.9)">
	<g
   id="g172">
		<path
   class="st1"
   d="m 1497,1106 c -0.7,0 -1.2,-0.6 -1.2,-1.2 v -3.9 c 0,-0.7 0.6,-1.2 1.2,-1.2 0.7,0 1.2,0.6 1.2,1.2 v 3.9 c 0,0.7 -0.5,1.2 -1.2,1.2 z"
   id="path152"
   inkscape:connector-curvature="0"
   style="fill:#ffffff" />
		<path
   class="st1"
   d="m 1502.2,1111.2 c 0,-0.7 0.6,-1.2 1.2,-1.2 h 3.9 c 0.7,0 1.2,0.6 1.2,1.2 0,0.7 -0.6,1.2 -1.2,1.2 h -3.9 c -0.7,0.1 -1.2,-0.5 -1.2,-1.2 z"
   id="path154"
   inkscape:connector-curvature="0"
   style="fill:#ffffff" />
		<path
   class="st1"
   d="m 1500.7,1114.9 c 0.5,-0.5 1.3,-0.5 1.8,0 l 2.7,2.7 c 0.5,0.5 0.5,1.3 0,1.8 -0.5,0.5 -1.3,0.5 -1.8,0 l -2.7,-2.7 c -0.5,-0.6 -0.5,-1.3 0,-1.8 z"
   id="path156"
   inkscape:connector-curvature="0"
   style="fill:#ffffff" />
		<path
   class="st1"
   d="m 1493.4,1107.6 c -0.5,0.5 -1.3,0.5 -1.8,0 l -2.7,-2.7 c -0.5,-0.5 -0.5,-1.3 0,-1.8 0.5,-0.5 1.3,-0.5 1.8,0 l 2.7,2.7 c 0.4,0.5 0.4,1.3 0,1.8 z"
   id="path158"
   inkscape:connector-curvature="0"
   style="fill:#ffffff" />
		<path
   class="st1"
   d="m 1500.7,1107.6 c -0.5,-0.5 -0.5,-1.3 0,-1.8 l 2.7,-2.7 c 0.5,-0.5 1.3,-0.5 1.8,0 0.5,0.5 0.5,1.3 0,1.8 l -2.7,2.7 c -0.6,0.4 -1.4,0.4 -1.8,0 z"
   id="path160"
   inkscape:connector-curvature="0"
   style="fill:#ffffff" />
		<path
   class="st1"
   d="m 1498.2,1110.9 c 0,0 0,0 0,0 0,0 0,-0.1 0,-0.1 0,0 0,0 0,0 0,0 0,-0.1 0,-0.1 0,0 0,0 0,0 0,0 0,-0.1 -0.1,-0.1 0,0 0,0 0,0 -0.1,-0.1 -0.2,-0.3 -0.4,-0.4 0,0 0,0 0,0 0,0 -0.1,0 -0.1,-0.1 0,0 0,0 0,0 0,0 -0.1,0 -0.1,0 0,0 0,0 0,0 0,0 -0.1,0 -0.1,0 0,0 0,0 0,0 0,0 -0.1,0 -0.1,0 v 0 c -0.1,0 -0.2,0 -0.2,0 h -10.3 c -0.7,0 -1.2,0.6 -1.2,1.2 0,0.7 0.6,1.2 1.2,1.2 h 7.3 l -5.2,5.2 c -0.5,0.5 -0.5,1.3 0,1.8 0.2,0.2 0.6,0.4 0.9,0.4 0.3,0 0.6,-0.1 0.9,-0.4 l 5.2,-5.2 v 7.3 c 0,0.7 0.6,1.2 1.2,1.2 0.7,0 1.2,-0.6 1.2,-1.2 v -10.3 c -0.1,-0.2 -0.1,-0.3 -0.1,-0.4 z"
   id="path162"
   inkscape:connector-curvature="0"
   style="fill:#ffffff" />
		<path
   class="st1"
   d="m 1515.2,1106.2 c 0.2,-0.2 0.5,-0.3 0.9,-0.3 0.3,0 0.6,0.1 0.9,0.3 0.2,0.2 0.4,0.5 0.4,0.9 v 8.3 c 0,0.3 -0.1,0.6 -0.4,0.9 -0.2,0.2 -0.5,0.3 -0.9,0.3 -0.3,0 -0.6,-0.1 -0.9,-0.3 -0.2,-0.2 -0.4,-0.5 -0.4,-0.9 v -8.3 c 0.1,-0.4 0.2,-0.7 0.4,-0.9 z"
   id="path164"
   inkscape:connector-curvature="0"
   style="fill:#ffffff" />
		<path
   class="st1"
   d="m 1520.7,1108.3 h -1 c -0.2,0 -0.3,0 -0.4,-0.1 -0.1,-0.1 -0.3,-0.2 -0.4,-0.3 -0.1,-0.1 -0.2,-0.2 -0.3,-0.4 -0.1,-0.1 -0.1,-0.3 -0.1,-0.4 0,-0.2 0,-0.3 0.1,-0.5 0.1,-0.2 0.2,-0.3 0.3,-0.4 0.1,-0.1 0.2,-0.2 0.4,-0.3 0.1,-0.1 0.3,-0.1 0.4,-0.1 h 4.5 c 0.2,0 0.3,0 0.4,0.1 0.1,0.1 0.3,0.2 0.4,0.3 0.1,0.1 0.2,0.2 0.3,0.4 0.1,0.2 0.1,0.3 0.1,0.5 0,0.1 0,0.3 -0.1,0.4 -0.1,0.1 -0.2,0.3 -0.3,0.4 -0.1,0.1 -0.2,0.2 -0.4,0.3 -0.1,0.1 -0.3,0.1 -0.4,0.1 h -1.1 v 7.1 c 0,0.4 -0.1,0.6 -0.4,0.9 -0.2,0.2 -0.5,0.3 -0.9,0.3 -0.3,0 -0.6,-0.1 -0.9,-0.3 -0.2,-0.2 -0.4,-0.5 -0.4,-0.9 v -7.1 z"
   id="path166"
   inkscape:connector-curvature="0"
   style="fill:#ffffff" />
		<path
   class="st1"
   d="m 1532.7,1108.9 c -0.2,-0.2 -0.5,-0.3 -0.9,-0.5 -0.3,-0.1 -0.6,-0.2 -1,-0.2 -0.4,0 -0.8,0.1 -1.2,0.3 -0.4,0.2 -0.7,0.4 -0.9,0.6 -0.3,0.3 -0.5,0.6 -0.6,0.9 -0.2,0.4 -0.2,0.7 -0.2,1.1 0,0.4 0.1,0.8 0.3,1.1 0.2,0.3 0.4,0.7 0.7,0.9 0.3,0.3 0.6,0.5 1,0.6 0.4,0.2 0.7,0.3 1.1,0.3 0.3,0 0.6,-0.1 1,-0.2 0.3,-0.1 0.6,-0.3 0.9,-0.5 0.3,-0.2 0.5,-0.3 0.9,-0.3 0.3,0 0.6,0.1 0.9,0.3 0.2,0.2 0.4,0.5 0.4,0.9 0,0.3 -0.1,0.5 -0.2,0.7 -0.1,0.2 -0.3,0.3 -0.4,0.4 0,0 -0.2,0.1 -0.3,0.3 -0.2,0.1 -0.4,0.3 -0.7,0.4 -0.3,0.1 -0.6,0.3 -1,0.4 -0.4,0.1 -0.9,0.2 -1.4,0.2 -0.7,0 -1.4,-0.1 -2.1,-0.4 -0.7,-0.3 -1.2,-0.7 -1.7,-1.2 -0.5,-0.5 -0.9,-1.1 -1.2,-1.7 -0.3,-0.7 -0.4,-1.4 -0.4,-2.1 0,-0.7 0.1,-1.4 0.4,-2.1 0.3,-0.7 0.7,-1.2 1.2,-1.7 0.5,-0.5 1.1,-0.9 1.7,-1.2 0.7,-0.3 1.4,-0.4 2.1,-0.4 0.5,0 1,0.1 1.4,0.2 0.4,0.1 0.7,0.2 1,0.4 0.3,0.1 0.5,0.3 0.7,0.4 0.2,0.1 0.3,0.2 0.3,0.2 0.1,0.1 0.2,0.2 0.4,0.4 0.1,0.2 0.2,0.4 0.2,0.7 0,0.3 -0.1,0.6 -0.4,0.9 -0.2,0.2 -0.5,0.4 -0.9,0.4 -0.6,-0.2 -0.9,-0.3 -1.1,-0.5 z"
   id="path168"
   inkscape:connector-curvature="0"
   style="fill:#ffffff" />
		<path
   class="st1"
   d="m 1546,1112.1 c -0.1,0.4 -0.2,0.9 -0.4,1.3 -0.3,0.7 -0.7,1.2 -1.2,1.7 -0.5,0.5 -1.1,0.9 -1.7,1.2 -0.7,0.3 -1.4,0.4 -2.1,0.4 -0.7,0 -1.4,-0.1 -2.1,-0.4 -0.7,-0.3 -1.2,-0.7 -1.7,-1.2 -0.5,-0.5 -0.9,-1.1 -1.2,-1.7 -0.3,-0.7 -0.4,-1.4 -0.4,-2.1 0,-0.7 0.1,-1.5 0.4,-2.1 0.3,-0.7 0.7,-1.2 1.2,-1.7 0.5,-0.5 1.1,-0.9 1.7,-1.2 0.7,-0.3 1.4,-0.4 2.1,-0.4 0.5,0 1,0.1 1.4,0.2 0.4,0.1 0.7,0.2 1,0.4 0.3,0.1 0.5,0.3 0.7,0.4 0.2,0.1 0.3,0.2 0.3,0.2 0.1,0.1 0.2,0.2 0.4,0.4 0.1,0.2 0.2,0.4 0.2,0.7 0,0.3 -0.1,0.6 -0.4,0.9 -0.2,0.2 -0.5,0.4 -0.9,0.4 -0.3,0 -0.6,-0.1 -0.9,-0.3 -0.2,-0.2 -0.5,-0.3 -0.9,-0.5 -0.3,-0.1 -0.7,-0.2 -1,-0.2 -0.4,0 -0.8,0.1 -1.1,0.2 -0.4,0.2 -0.7,0.4 -0.9,0.6 -0.3,0.3 -0.5,0.6 -0.6,1 -0.2,0.4 -0.2,0.8 -0.2,1.2 0,0.4 0.1,0.8 0.2,1.2 0.2,0.4 0.4,0.7 0.6,0.9 0.3,0.3 0.6,0.5 0.9,0.6 0.4,0.2 0.7,0.2 1.1,0.2 0.5,0 0.9,-0.1 1.3,-0.3 0.4,-0.2 0.7,-0.5 1,-0.8 h -2.1 c -0.3,0 -0.6,-0.1 -0.9,-0.4 -0.2,-0.2 -0.3,-0.5 -0.3,-0.9 0,-0.3 0.1,-0.6 0.3,-0.9 0.2,-0.2 0.5,-0.4 0.9,-0.4 h 3.9 c 0,0 0.4,0 0.8,0.3 0.5,0.2 0.7,0.5 0.6,1.1 z"
   id="path170"
   inkscape:connector-curvature="0"
   style="fill:#ffffff" />
	</g>
</g>
<path
   class="st2"
   d="m -1.3263866,-16.3 c 47.4999996,-6.9 95.7000016,-6.9 143.1999966,0 3.6,0.5 6,3.7 5.5,7 -0.9,5.9 -1.9,11.7 -2.8,17.6 -0.5,3.3 -3.7,5.6 -7,5.1 -44.599997,-6.5 -89.999997,-6.5 -134.5999966,0 -3.39999998,0.5 -6.5,-1.8 -7,-5.1 -0.9,-5.9 -1.9,-11.7 -2.8,-17.6 -0.5,-3.3 2,-6.5 5.5,-7 z"
   id="path176"
   inkscape:connector-curvature="0"
   style="fill:none" />
<g
   id="g250"
   transform="translate(-1447.9264,-1044.9)">
	<linearGradient
   id="SVGID_2_"
   gradientUnits="userSpaceOnUse"
   x1="1515.1769"
   y1="1087.3446"
   x2="1515.1769"
   y2="1044.8771">
		<stop
   offset="0"
   style="stop-color:#4625C1"
   id="stop178" />
		<stop
   offset="1"
   style="stop-color:#467EF7"
   id="stop180" />
	</linearGradient>
	<path
   class="st3"
   d="m 1452.7,1051.2 c 41.4,-8.4 83.5,-8.4 124.9,0 3.1,0.6 5.3,4.5 4.8,8.5 -0.8,7.1 -1.6,14.2 -2.4,21.4 -0.5,4.1 -3.2,6.8 -6.1,6.2 -38.9,-7.9 -78.5,-7.9 -117.4,0 -2.9,0.6 -5.7,-2.2 -6.1,-6.2 -0.8,-7.1 -1.6,-14.2 -2.4,-21.4 -0.5,-4.1 1.6,-7.9 4.7,-8.5 z"
   id="path183"
   style="fill:url(#SVGID_2_)"
   inkscape:connector-curvature="0" />
	<g
   id="g248">
		<g
   id="g192">
			<linearGradient
   id="SVGID_3_"
   gradientUnits="userSpaceOnUse"
   x1="1457.3997"
   y1="1079.5437"
   x2="1457.3997"
   y2="1055.701">
				<stop
   offset="0"
   style="stop-color:#61CBF7"
   id="stop185" />
				<stop
   offset="1"
   style="stop-color:#467EF7"
   id="stop187" />
			</linearGradient>
			<path
   class="st4"
   d="m 1453.2,1058.6 c 1.1,6.3 2.2,12.6 3.3,19 0.6,3.2 5.5,2.3 5,-0.8 -1,-6.3 -2,-12.7 -3,-19 -0.5,-3.3 -5.8,-2.4 -5.3,0.8 0,0 0,0 0,0 z"
   id="path190"
   style="fill:url(#SVGID_3_)"
   inkscape:connector-curvature="0" />
		</g>
		<g
   id="g201">
			<linearGradient
   id="SVGID_4_"
   gradientUnits="userSpaceOnUse"
   x1="1476.3044"
   y1="1076.9923"
   x2="1476.3044"
   y2="1053.0168">
				<stop
   offset="0"
   style="stop-color:#61CBF7"
   id="stop194" />
				<stop
   offset="1"
   style="stop-color:#467EF7"
   id="stop196" />
			</linearGradient>
			<path
   class="st5"
   d="m 1472.7,1055.7 c 0.8,6.4 1.5,12.7 2.3,19.1 0.4,3.2 5.4,2.6 5,-0.6 -0.7,-6.4 -1.3,-12.8 -2,-19.2 -0.3,-3.1 -5.7,-2.5 -5.3,0.7 0,0 0,0 0,0 z"
   id="path199"
   style="fill:url(#SVGID_4_)"
   inkscape:connector-curvature="0" />
		</g>
		<g
   id="g210">
			<linearGradient
   id="SVGID_5_"
   gradientUnits="userSpaceOnUse"
   x1="1495.2966"
   y1="1075.4637"
   x2="1495.2966"
   y2="1051.4049">
				<stop
   offset="0"
   style="stop-color:#61CBF7"
   id="stop203" />
				<stop
   offset="1"
   style="stop-color:#467EF7"
   id="stop205" />
			</linearGradient>
			<path
   class="st6"
   d="m 1492.2,1054 c 0.4,6.4 0.8,12.8 1.2,19.2 0.2,3.2 5.2,2.9 5,-0.3 -0.3,-6.4 -0.6,-12.8 -0.9,-19.2 -0.1,-3.2 -5.5,-2.9 -5.3,0.3 z"
   id="path208"
   style="fill:url(#SVGID_5_)"
   inkscape:connector-curvature="0" />
		</g>
		<g
   id="g219">
			<linearGradient
   id="SVGID_6_"
   gradientUnits="userSpaceOnUse"
   x1="1514.4049"
   y1="1074.953"
   x2="1514.4049"
   y2="1050.8667">
				<stop
   offset="0"
   style="stop-color:#61CBF7"
   id="stop212" />
				<stop
   offset="1"
   style="stop-color:#467EF7"
   id="stop214" />
			</linearGradient>
			<path
   class="st7"
   d="m 1511.7,1053.3 c 0,6.4 0.1,12.8 0.1,19.3 0,3.2 5,3.2 5.1,0 0,-6.4 0.1,-12.8 0.1,-19.3 0.1,-3.2 -5.3,-3.2 -5.3,0 0,0 0,0 0,0 z"
   id="path217"
   style="fill:url(#SVGID_6_)"
   inkscape:connector-curvature="0" />
		</g>
		<g
   id="g228">
			<linearGradient
   id="SVGID_7_"
   gradientUnits="userSpaceOnUse"
   x1="1533.5132"
   y1="1075.464"
   x2="1533.5132"
   y2="1051.4043">
				<stop
   offset="0"
   style="stop-color:#61CBF7"
   id="stop221" />
				<stop
   offset="1"
   style="stop-color:#467EF7"
   id="stop223" />
			</linearGradient>
			<path
   class="st8"
   d="m 1531.3,1053.7 c -0.3,6.4 -0.6,12.8 -0.9,19.2 -0.1,3.2 4.8,3.5 5,0.3 0.4,-6.4 0.8,-12.8 1.2,-19.2 0.2,-3.2 -5.2,-3.6 -5.3,-0.3 z"
   id="path226"
   style="fill:url(#SVGID_7_)"
   inkscape:connector-curvature="0" />
		</g>
		<g
   id="g237">
			<linearGradient
   id="SVGID_8_"
   gradientUnits="userSpaceOnUse"
   x1="1552.5049"
   y1="1076.9938"
   x2="1552.5049"
   y2="1053.0153">
				<stop
   offset="0"
   style="stop-color:#61CBF7"
   id="stop230" />
				<stop
   offset="1"
   style="stop-color:#467EF7"
   id="stop232" />
			</linearGradient>
			<path
   class="st9"
   d="m 1550.8,1055.2 c -0.7,6.4 -1.3,12.8 -2,19.2 -0.3,3.2 4.6,3.7 5,0.6 0.8,-6.4 1.5,-12.7 2.3,-19.1 0.4,-3.4 -4.9,-4 -5.3,-0.7 0,0 0,0 0,0 z"
   id="path235"
   style="fill:url(#SVGID_8_)"
   inkscape:connector-curvature="0" />
		</g>
		<g
   id="g246">
			<linearGradient
   id="SVGID_9_"
   gradientUnits="userSpaceOnUse"
   x1="1571.4097"
   y1="1079.5433"
   x2="1571.4097"
   y2="1055.7025">
				<stop
   offset="0"
   style="stop-color:#61CBF7"
   id="stop239" />
				<stop
   offset="1"
   style="stop-color:#467EF7"
   id="stop241" />
			</linearGradient>
			<path
   class="st10"
   d="m 1570.3,1057.7 c -1,6.3 -2,12.7 -3,19 -0.5,3.2 4.4,4 5,0.8 1.1,-6.3 2.2,-12.6 3.3,-19 0.5,-3.1 -4.8,-4 -5.3,-0.8 0,0 0,0 0,0 z"
   id="path244"
   style="fill:url(#SVGID_9_)"
   inkscape:connector-curvature="0" />
		</g>
	</g>
</g>
<linearGradient
   id="SVGID_10_"
   gradientUnits="userSpaceOnUse"
   x1="1516.167"
   y1="1193.2179"
   x2="1516.167"
   y2="1134.5792"
   gradientTransform="translate(-1447.9264,-1044.9)">
	<stop
   offset="0"
   style="stop-color:#4625C1"
   id="stop252" />
	<stop
   offset="1"
   style="stop-color:#467EF7"
   id="stop254" />
</linearGradient>
<path
   class="st11"
   d="m 68.273613,89.7 v 0 c 7.1,0 12.9,5.8 12.9,12.9 v 32.9 c 0,7.1 -5.8,12.9 -12.9,12.9 v 0 c -7.1,0 -12.9,-5.8 -12.9,-12.9 v -32.9 c 0,-7.2 5.8,-12.9 12.9,-12.9 z"
   id="path257"
   style="fill:url(#SVGID_10_)"
   inkscape:connector-curvature="0" />
<path
   class="st1"
   d="m 68.273613,94.4 v 0 c 5.1,0 9.3,4.2 9.3,9.3 v 7.6 c 0,5.1 -4.2,9.3 -9.3,9.3 v 0 c -5.1,0 -9.3,-4.2 -9.3,-9.3 v -7.6 c 0,-5.1 4.1,-9.3 9.3,-9.3 z"
   id="path259"
   inkscape:connector-curvature="0"
   style="fill:#ffffff" />
<path
   class="st12"
   d="m 63.373613,109.9 c -0.5,-0.4 -0.7,-1 -0.7,-1.8 0,-0.2 0,-0.4 0,-0.8 0,-0.3 0,-0.6 0,-0.8 0,-0.8 0.3,-1.4 0.7,-1.8 0.5,-0.4 1.1,-0.6 1.9,-0.6 0.8,0 1.4,0.2 1.9,0.6 0.5,0.4 0.7,1 0.7,1.8 0,0.3 0,0.6 0,0.8 0,0.2 0,0.4 0,0.8 0,0.8 -0.3,1.4 -0.7,1.8 -0.4,0.4 -1.1,0.6 -1.9,0.6 -0.8,0 -1.5,-0.2 -1.9,-0.6 z m 2.9,-0.8 c 0.2,-0.2 0.4,-0.6 0.4,-1.1 0,-0.4 0,-0.6 0,-0.7 0,-0.1 0,-0.4 0,-0.7 0,-0.5 -0.1,-0.9 -0.4,-1.1 -0.2,-0.2 -0.6,-0.4 -0.9,-0.4 -0.4,0 -0.7,0.1 -1,0.4 -0.2,0.2 -0.4,0.6 -0.4,1.1 0,0.2 0,0.4 0,0.7 0,0.3 0,0.5 0,0.7 0,0.5 0.1,0.9 0.4,1.1 0.2,0.2 0.6,0.4 1,0.4 0.3,0 0.6,-0.1 0.9,-0.4 z"
   id="path261"
   inkscape:connector-curvature="0"
   style="fill:#4625c1" />
<path
   class="st12"
   d="m 69.173613,110.4 c 0,0 -0.1,-0.1 -0.1,-0.2 v -5.9 c 0,-0.1 0,-0.1 0.1,-0.2 0.1,-0.1 0.1,-0.1 0.2,-0.1 h 0.7 c 0.1,0 0.2,0.1 0.3,0.2 l 2.6,4 v -3.9 c 0,-0.1 0,-0.1 0.1,-0.2 0.1,-0.1 0.1,-0.1 0.2,-0.1 h 0.8 c 0.1,0 0.1,0 0.2,0.1 0.1,0.1 0.1,0.1 0.1,0.2 v 5.8 c 0,0.1 0,0.1 -0.1,0.2 0,0 -0.1,0.1 -0.2,0.1 h -0.7 c -0.1,0 -0.2,-0.1 -0.3,-0.2 l -2.6,-3.9 v 3.8 c 0,0.1 0,0.1 -0.1,0.2 0,0 -0.1,0.1 -0.2,0.1 h -0.8 c -0.1,0 -0.2,0 -0.2,0 z"
   id="path263"
   inkscape:connector-curvature="0"
   style="fill:#4625c1" />
<path
   class="st13"
   d="m 105.27361,124.4 v 50 c 0,44.7 -5.499995,42.5 -38.399997,42.5 v 0"
   id="path265"
   inkscape:connector-curvature="0"
   style="fill:none;stroke:#ffffff;stroke-width:0.5;stroke-miterlimit:10" />
<path
   class="st14"
   d="m 50.273613,138.4 c 0,0 0.4,17 17.9,16"
   id="path267"
   inkscape:connector-curvature="0"
   style="fill:none;stroke:#3537ab;stroke-width:0.5;stroke-miterlimit:10" />
</svg>