<?xml version="1.0" encoding="utf-8"?>
<!-- Generator: Adobe Illustrator 22.0.1, SVG Export Plug-In . SVG Version: 6.00 Build 0)  -->
<svg version="1.1" id="bg" xmlns="http://www.w3.org/2000/svg" xmlns:xlink="http://www.w3.org/1999/xlink" x="0px" y="0px"
	 viewBox="0 0 418 740" style="enable-background:new 0 0 418 740;" xml:space="preserve">
<style type="text/css">
	.st0{fill:#FFFFFF;}
</style>
<path class="st0" d="M209,53.5c-1,0-1.8-0.8-1.8-1.8v-5.7c0-1,0.8-1.8,1.8-1.8c1,0,1.8,0.8,1.8,1.8v5.7
	C210.8,52.7,210,53.5,209,53.5z"/>
<path class="st0" d="M216.6,61.2c0-1,0.8-1.8,1.8-1.8h5.7c1,0,1.8,0.8,1.8,1.8c0,1-0.8,1.8-1.8,1.8h-5.7
	C217.5,63,216.6,62.2,216.6,61.2z"/>
<path class="st0" d="M214.4,66.6c0.7-0.7,1.9-0.7,2.6,0l4.1,4.1c0.7,0.7,0.7,1.9,0,2.6c-0.7,0.7-1.9,0.7-2.6,0l-4.1-4.1
	C213.7,68.4,213.7,67.3,214.4,66.6z"/>
<path class="st0" d="M203.6,55.7c-0.7,0.7-1.9,0.7-2.6,0l-4.1-4.1c-0.7-0.7-0.7-1.9,0-2.6c0.7-0.7,1.9-0.7,2.6,0l4.1,4.1
	C204.3,53.9,204.3,55,203.6,55.7z"/>
<path class="st0" d="M214.4,55.7c-0.7-0.7-0.7-1.9,0-2.6l4.1-4.1c0.7-0.7,1.9-0.7,2.6,0c0.7,0.7,0.7,1.9,0,2.6l-4.1,4.1
	C216.3,56.5,215.1,56.5,214.4,55.7z"/>
<path class="st0" d="M210.8,60.6C210.8,60.6,210.8,60.6,210.8,60.6c0-0.1,0-0.1-0.1-0.2c0,0,0,0,0,0c0,0,0-0.1-0.1-0.1c0,0,0,0,0,0
	c0-0.1-0.1-0.1-0.1-0.1c0,0,0,0,0,0c-0.1-0.2-0.3-0.4-0.5-0.5c0,0,0,0,0,0c0,0-0.1-0.1-0.1-0.1c0,0,0,0,0,0c0,0-0.1,0-0.1-0.1
	c0,0,0,0,0,0c0,0-0.1,0-0.1-0.1c0,0,0,0,0,0c-0.1,0-0.1,0-0.2,0h0c-0.1,0-0.2,0-0.4,0h-15.2c-1,0-1.8,0.8-1.8,1.8
	c0,1,0.8,1.8,1.8,1.8h10.8l-7.6,7.6c-0.7,0.7-0.7,1.9,0,2.6c0.4,0.4,0.8,0.5,1.3,0.5c0.5,0,0.9-0.2,1.3-0.5l7.6-7.6v10.8
	c0,1,0.8,1.8,1.8,1.8c1,0,1.8-0.8,1.8-1.8V61.1C210.8,61,210.8,60.8,210.8,60.6z"/>
</svg>
