<svg xmlns="http://www.w3.org/2000/svg" viewBox="0 0 36 36" width="36" height="36">
	<defs>
		<clipPath clipPathUnits="userSpaceOnUse" id="cp1">
			<path d="M1 1L35 1L35 35L1 35Z" />
		</clipPath>
	</defs>
	<style>
		tspan { white-space:pre }
		.shp0 { fill: #ffffff } 
	</style>
	<g id="Page 1" clip-path="url(#cp1)">
		<path id="Path 1" class="shp0" d="M19.88,8.48v-5.73c0,-1.01 -0.82,-1.83 -1.84,-1.83c-1.01,0 -1.83,0.82 -1.83,1.83v5.73c0,1.01 0.82,1.83 1.83,1.83c1.01,0 1.84,-0.82 1.84,-1.83zM27.52,19.83h5.73c1.01,0 1.83,-0.82 1.83,-1.83c0,-1.01 -0.82,-1.83 -1.83,-1.83h-5.73c-1.01,0 -1.83,0.82 -1.83,1.83c0,1.01 0.82,1.83 1.83,1.83zM23.45,25.97l4.05,4.05c0.72,0.72 1.88,0.72 2.59,0c0.72,-0.71 0.72,-1.87 0,-2.59l-4.05,-4.05c-0.72,-0.72 -1.88,-0.72 -2.59,0c-0.72,0.72 -0.72,1.88 0,2.59zM12.64,9.96l-4.05,-4.05c-0.72,-0.72 -1.88,-0.72 -2.59,0c-0.72,0.72 -0.72,1.88 0,2.59l4.05,4.05c0.72,0.72 1.88,0.72 2.6,0c0.72,-0.72 0.72,-1.88 0,-2.6zM26.04,12.55l4.05,-4.05c0.72,-0.72 0.72,-1.88 0,-2.59c-0.72,-0.72 -1.88,-0.72 -2.59,0l-4.05,4.05c-0.72,0.72 -0.72,1.88 0,2.6c0.72,0.72 1.88,0.72 2.59,0zM19.8,17.44c0,0 0,0 0,-0.01c-0.02,-0.05 -0.03,-0.1 -0.05,-0.15c0,0 0,-0.01 0,-0.02c-0.02,-0.05 -0.04,-0.1 -0.07,-0.15c0,-0.01 -0.01,-0.01 -0.01,-0.02c-0.03,-0.05 -0.06,-0.1 -0.09,-0.15c0,0 0,0 0,-0.01c-0.14,-0.21 -0.31,-0.38 -0.52,-0.52c0,0 0,0 -0.01,0c-0.05,-0.03 -0.1,-0.06 -0.15,-0.09c-0.01,0 -0.01,-0.01 -0.02,-0.01c-0.05,-0.02 -0.09,-0.05 -0.14,-0.07c-0.01,0 -0.01,-0.01 -0.02,-0.01c-0.05,-0.02 -0.1,-0.04 -0.15,-0.05c-0.01,0 -0.01,0 -0.02,0c-0.05,-0.01 -0.11,-0.03 -0.16,-0.04h0c-0.11,-0.02 -0.23,-0.03 -0.35,-0.03h-15.21c-1.01,0 -1.83,0.82 -1.83,1.83c0,1.01 0.82,1.83 1.83,1.83h10.78l-7.62,7.62c-0.72,0.72 -0.72,1.88 0,2.59c0.36,0.36 0.83,0.54 1.3,0.54c0.47,0 0.94,-0.18 1.3,-0.54l7.62,-7.62v10.78c0,1.01 0.82,1.83 1.83,1.83c1.01,0 1.84,-0.82 1.84,-1.83v-15.21c0,-0.18 -0.03,-0.35 -0.07,-0.52z" />
	</g>
</svg>