<?xml version="1.0" encoding="UTF-8" standalone="no"?>
<!-- Generator: Adobe Illustrator 22.0.1, SVG Export Plug-In . SVG Version: 6.00 Build 0)  -->

<svg
   xmlns:dc="http://purl.org/dc/elements/1.1/"
   xmlns:cc="http://creativecommons.org/ns#"
   xmlns:rdf="http://www.w3.org/1999/02/22-rdf-syntax-ns#"
   xmlns:svg="http://www.w3.org/2000/svg"
   xmlns="http://www.w3.org/2000/svg"
   xmlns:sodipodi="http://sodipodi.sourceforge.net/DTD/sodipodi-0.dtd"
   xmlns:inkscape="http://www.inkscape.org/namespaces/inkscape"
   version="1.1"
   id="Layer_1"
   x="0px"
   y="0px"
   viewBox="0 0 86.199998 86.399991"
   xml:space="preserve"
   sodipodi:docname="logo-orange-icon.svg"
   width="86.199997"
   height="86.399994"
   inkscape:version="0.92.3 (2405546, 2018-03-11)"><metadata
   id="metadata378"><rdf:RDF><cc:Work
       rdf:about=""><dc:format>image/svg+xml</dc:format><dc:type
         rdf:resource="http://purl.org/dc/dcmitype/StillImage" /><dc:title></dc:title></cc:Work></rdf:RDF></metadata><defs
   id="defs376" /><sodipodi:namedview
   pagecolor="#ffffff"
   bordercolor="#666666"
   borderopacity="1"
   objecttolerance="10"
   gridtolerance="10"
   guidetolerance="10"
   inkscape:pageopacity="0"
   inkscape:pageshadow="2"
   inkscape:window-width="1366"
   inkscape:window-height="705"
   id="namedview374"
   showgrid="false"
   inkscape:zoom="2.5487087"
   inkscape:cx="96.979785"
   inkscape:cy="77.377014"
   inkscape:window-x="-8"
   inkscape:window-y="-8"
   inkscape:window-maximized="1"
   inkscape:current-layer="Layer_1" />
<style
   type="text/css"
   id="style195">
	.st0{fill:url(#SVGID_1_);}
	.st1{fill:url(#SVGID_2_);}
	.st2{fill:url(#SVGID_3_);}
	.st3{fill:url(#SVGID_4_);}
	.st4{fill:url(#SVGID_5_);}
	.st5{fill:url(#SVGID_6_);}
	.st6{fill:url(#SVGID_7_);}
	.st7{fill:url(#SVGID_8_);}
	.st8{fill:url(#SVGID_9_);}
	.st9{fill:url(#SVGID_10_);}
	.st10{fill:url(#SVGID_11_);}
	.st11{fill:url(#SVGID_12_);}
	.st12{fill:url(#SVGID_13_);}
	.st13{fill:url(#SVGID_14_);}
	.st14{fill:url(#SVGID_15_);}
	.st15{fill:url(#SVGID_16_);}
	.st16{fill:url(#SVGID_17_);}
	.st17{fill:url(#SVGID_18_);}
	.st18{fill:url(#SVGID_19_);}
	.st19{fill:url(#SVGID_20_);}
	.st20{fill:url(#SVGID_21_);}
	.st21{fill:url(#SVGID_22_);}
	.st22{fill:url(#SVGID_23_);}
	.st23{fill:url(#SVGID_24_);}
</style>
<linearGradient
   id="SVGID_1_"
   gradientUnits="userSpaceOnUse"
   x1="391.1051"
   y1="16.045099"
   x2="405.44312"
   y2="7.7670999"
   gradientTransform="translate(-355.1)">
	<stop
   offset="0"
   style="stop-color:#B43900"
   id="stop197" />
	<stop
   offset="1"
   style="stop-color:#E85318"
   id="stop199" />
</linearGradient>
<path
   class="st0"
   d="m 43.2,23.8 c -2.6,0 -4.6,-2.1 -4.6,-4.6 V 4.6 C 38.6,2 40.7,0 43.2,0 c 2.6,0 4.6,2.1 4.6,4.6 v 14.5 c 0,2.6 -2.1,4.7 -4.6,4.7 z"
   id="path202"
   style="fill:url(#SVGID_1_)"
   inkscape:connector-curvature="0" />
<linearGradient
   id="SVGID_2_"
   gradientUnits="userSpaceOnUse"
   x1="420.06769"
   y1="48.735001"
   x2="439.00641"
   y2="37.8008"
   gradientTransform="translate(-355.1)">
	<stop
   offset="0"
   style="stop-color:#B43900"
   id="stop204" />
	<stop
   offset="1"
   style="stop-color:#E85318"
   id="stop206" />
</linearGradient>
<path
   class="st1"
   d="m 62.5,43.3 c 0,-2.6 2.1,-4.6 4.6,-4.6 h 14.5 c 2.6,0 4.6,2.1 4.6,4.6 0,2.6 -2.1,4.6 -4.6,4.6 H 67.1 c -2.5,0 -4.6,-2.1 -4.6,-4.6 z"
   id="path209"
   style="fill:url(#SVGID_2_)"
   inkscape:connector-curvature="0" />
<linearGradient
   id="SVGID_3_"
   gradientUnits="userSpaceOnUse"
   x1="414.72699"
   y1="68.583504"
   x2="426.0311"
   y2="62.057098"
   gradientTransform="translate(-355.1)">
	<stop
   offset="0"
   style="stop-color:#B43900"
   id="stop211" />
	<stop
   offset="1"
   style="stop-color:#E85318"
   id="stop213" />
</linearGradient>
<path
   class="st2"
   d="m 56.9,56.899995 c 1.8,-1.8 4.8,-1.8 6.6,0 l 10.3,10.3 c 1.8,1.8 1.8,4.8 0,6.6 -1.8,1.8 -4.8,1.8 -6.6,0 l -10.3,-10.3 c -1.9,-1.8 -1.9,-4.8 0,-6.6 z"
   id="path216"
   style="fill:url(#SVGID_3_)"
   inkscape:connector-curvature="0" />
<linearGradient
   id="SVGID_4_"
   gradientUnits="userSpaceOnUse"
   x1="370.51459"
   y1="24.3265"
   x2="381.82001"
   y2="17.799299"
   gradientTransform="translate(-355.1)">
	<stop
   offset="0"
   style="stop-color:#B43900"
   id="stop218" />
	<stop
   offset="1"
   style="stop-color:#E85318"
   id="stop220" />
</linearGradient>
<path
   class="st3"
   d="m 29.5,29.5 c -1.8,1.8 -4.8,1.8 -6.6,0 L 12.6,19.2 c -1.8,-1.8 -1.8,-4.8 0,-6.6 1.8,-1.8 4.8,-1.8 6.6,0 l 10.3,10.3 c 1.8,1.8 1.8,4.8 0,6.6 z"
   id="path223"
   style="fill:url(#SVGID_4_)"
   inkscape:connector-curvature="0" />
<linearGradient
   id="SVGID_5_"
   gradientUnits="userSpaceOnUse"
   x1="410.28159"
   y1="26.892799"
   x2="430.4772"
   y2="15.2329"
   gradientTransform="translate(-355.1)">
	<stop
   offset="0"
   style="stop-color:#B43900"
   id="stop225" />
	<stop
   offset="1"
   style="stop-color:#E85318"
   id="stop227" />
</linearGradient>
<path
   class="st4"
   d="m 56.9,29.5 c -1.8,-1.8 -1.8,-4.8 0,-6.6 L 67.2,12.6 c 1.8,-1.8 4.8,-1.8 6.6,0 1.8,1.8 1.8,4.8 0,6.6 L 63.5,29.5 c -1.9,1.8 -4.8,1.8 -6.6,0 z"
   id="path230"
   style="fill:url(#SVGID_5_)"
   inkscape:connector-curvature="0" />
<linearGradient
   id="SVGID_6_"
   gradientUnits="userSpaceOnUse"
   x1="365.5484"
   y1="70.2033"
   x2="405.82211"
   y2="46.951302"
   gradientTransform="translate(-355.1)">
	<stop
   offset="0"
   style="stop-color:#B43900"
   id="stop232" />
	<stop
   offset="1"
   style="stop-color:#E85318"
   id="stop234" />
</linearGradient>
<path
   class="st5"
   d="m 47.6,41.9 c 0,0 0,0 0,0 0,-0.1 -0.1,-0.3 -0.1,-0.4 0,0 0,0 0,0 -0.1,-0.1 -0.1,-0.2 -0.2,-0.4 0,0 0,0 0,0 -0.1,-0.1 -0.1,-0.3 -0.2,-0.4 0,0 0,0 0,0 -0.3,-0.5 -0.8,-1 -1.3,-1.3 0,0 0,0 0,0 -0.1,-0.1 -0.2,-0.2 -0.4,-0.2 0,0 0,0 -0.1,0 -0.1,-0.1 -0.2,-0.1 -0.4,-0.2 0,0 0,0 -0.1,0 -0.1,0 -0.2,-0.1 -0.4,-0.1 0,0 0,0 0,0 -0.1,0 -0.3,-0.1 -0.4,-0.1 v 0 C 43.7,38.7 43.4,38.7 43.1,38.7 H 4.6 C 2,38.7 0,40.8 0,43.3 c 0,2.6 2.1,4.6 4.6,4.6 H 31.9 L 12.6,67.199995 c -1.8,1.8 -1.8,4.8 0,6.6 0.9,0.9 2.1,1.4 3.3,1.4 1.2,0 2.4,-0.5 3.3,-1.4 l 19.3,-19.3 v 27.3 c 0,2.6 2.1,4.6 4.6,4.6 2.6,0 4.6,-2.1 4.6,-4.6 V 43.2 c 0.1,-0.5 0.1,-0.9 -0.1,-1.3 z"
   id="path237"
   style="fill:url(#SVGID_6_)"
   inkscape:connector-curvature="0" />


</svg>