<?xml version="1.0" encoding="UTF-8" standalone="no"?>
<!-- Generator: Adobe Illustrator 22.0.1, SVG Export Plug-In . SVG Version: 6.00 Build 0)  -->

<svg
   xmlns:dc="http://purl.org/dc/elements/1.1/"
   xmlns:cc="http://creativecommons.org/ns#"
   xmlns:rdf="http://www.w3.org/1999/02/22-rdf-syntax-ns#"
   xmlns:svg="http://www.w3.org/2000/svg"
   xmlns="http://www.w3.org/2000/svg"
   xmlns:sodipodi="http://sodipodi.sourceforge.net/DTD/sodipodi-0.dtd"
   xmlns:inkscape="http://www.inkscape.org/namespaces/inkscape"
   version="1.1"
   id="Layer_1"
   x="0px"
   y="0px"
   viewBox="0 0 329.00001 149"
   xml:space="preserve"
   sodipodi:docname="logo-orange.svg"
   width="329"
   height="149"
   inkscape:version="0.92.3 (2405546, 2018-03-11)"><metadata
   id="metadata1996"><rdf:RDF><cc:Work
       rdf:about=""><dc:format>image/svg+xml</dc:format><dc:type
         rdf:resource="http://purl.org/dc/dcmitype/StillImage" /><dc:title></dc:title></cc:Work></rdf:RDF></metadata><defs
   id="defs1994" /><sodipodi:namedview
   pagecolor="#ffffff"
   bordercolor="#666666"
   borderopacity="1"
   objecttolerance="10"
   gridtolerance="10"
   guidetolerance="10"
   inkscape:pageopacity="0"
   inkscape:pageshadow="2"
   inkscape:window-width="640"
   inkscape:window-height="480"
   id="namedview1992"
   showgrid="false"
   inkscape:zoom="0.85182965"
   inkscape:cx="166.7"
   inkscape:cy="94.899997"
   inkscape:window-x="0"
   inkscape:window-y="0"
   inkscape:window-maximized="0"
   inkscape:current-layer="Layer_1" />
<style
   type="text/css"
   id="style1855">
	.st0{fill:url(#SVGID_1_);}
	.st1{fill:url(#SVGID_2_);}
	.st2{fill:url(#SVGID_3_);}
	.st3{fill:url(#SVGID_4_);}
	.st4{fill:url(#SVGID_5_);}
	.st5{fill:url(#SVGID_6_);}
	.st6{fill:url(#SVGID_7_);}
	.st7{fill:url(#SVGID_8_);}
	.st8{fill:url(#SVGID_9_);}
	.st9{fill:url(#SVGID_10_);}
	.st10{fill:url(#SVGID_11_);}
	.st11{fill:url(#SVGID_12_);}
	.st12{fill:url(#SVGID_13_);}
	.st13{fill:url(#SVGID_14_);}
	.st14{fill:url(#SVGID_15_);}
	.st15{fill:url(#SVGID_16_);}
	.st16{fill:url(#SVGID_17_);}
	.st17{fill:url(#SVGID_18_);}
	.st18{fill:url(#SVGID_19_);}
	.st19{fill:url(#SVGID_20_);}
	.st20{fill:url(#SVGID_21_);}
	.st21{fill:url(#SVGID_22_);}
	.st22{fill:url(#SVGID_23_);}
	.st23{fill:url(#SVGID_24_);}
</style>
<g
   id="g1957"
   transform="translate(0,-40.7)">
	<g
   id="g1955">
		<linearGradient
   id="SVGID_7_"
   gradientUnits="userSpaceOnUse"
   x1="3.234"
   y1="65.149399"
   x2="3.234"
   y2="40.8293">
			<stop
   offset="0"
   style="stop-color:#B43900"
   id="stop1857" />
			<stop
   offset="1"
   style="stop-color:#E85318"
   id="stop1859" />
		</linearGradient>
		<path
   class="st6"
   d="M 1.9,64.9 C 1.7,64.7 1.6,64.5 1.6,64.2 V 41.8 c 0,-0.3 0.1,-0.5 0.3,-0.7 0.2,-0.2 0.4,-0.3 0.7,-0.3 H 4 c 0.3,0 0.5,0.1 0.7,0.3 0.2,0.2 0.3,0.4 0.3,0.7 V 64.2 C 5,64.5 4.9,64.7 4.7,64.9 4.5,65.1 4.3,65.2 4,65.2 H 2.5 C 2.3,65.1 2,65.1 1.9,64.9 Z"
   id="path1862"
   inkscape:connector-curvature="0"
   style="fill:url(#SVGID_7_)" />
		<linearGradient
   id="SVGID_8_"
   gradientUnits="userSpaceOnUse"
   x1="21.839001"
   y1="65.149399"
   x2="21.839001"
   y2="40.8293">
			<stop
   offset="0"
   style="stop-color:#B43900"
   id="stop1864" />
			<stop
   offset="1"
   style="stop-color:#E85318"
   id="stop1866" />
		</linearGradient>
		<path
   class="st7"
   d="m 31,41.1 c 0.2,0.2 0.3,0.4 0.3,0.7 v 22.4 c 0,0.3 -0.1,0.5 -0.3,0.7 -0.2,0.2 -0.4,0.3 -0.7,0.3 h -1.4 c -0.3,0 -0.5,-0.1 -0.7,-0.3 C 28,64.7 28,64.5 28,64.2 V 54.4 H 15.7 v 9.8 c 0,0.3 -0.1,0.5 -0.3,0.7 -0.2,0.2 -0.4,0.3 -0.7,0.3 h -1.4 c -0.3,0 -0.5,-0.1 -0.7,-0.3 -0.2,-0.2 -0.3,-0.4 -0.3,-0.7 V 41.8 c 0,-0.3 0.1,-0.5 0.3,-0.7 0.2,-0.2 0.4,-0.3 0.7,-0.3 h 1.4 c 0.3,0 0.5,0.1 0.7,0.3 0.2,0.2 0.3,0.4 0.3,0.7 v 9.5 H 28 v -9.5 c 0,-0.3 0.1,-0.5 0.3,-0.7 0.2,-0.2 0.4,-0.3 0.7,-0.3 h 1.4 c 0.2,0 0.4,0.1 0.6,0.3 z"
   id="path1869"
   inkscape:connector-curvature="0"
   style="fill:url(#SVGID_8_)" />
		<linearGradient
   id="SVGID_9_"
   gradientUnits="userSpaceOnUse"
   x1="45.689301"
   y1="65.149399"
   x2="45.689301"
   y2="40.8293">
			<stop
   offset="0"
   style="stop-color:#B43900"
   id="stop1871" />
			<stop
   offset="1"
   style="stop-color:#E85318"
   id="stop1873" />
		</linearGradient>
		<path
   class="st8"
   d="m 54.5,41.1 c 0.2,0.2 0.3,0.4 0.3,0.7 V 43 c 0,0.3 -0.1,0.5 -0.3,0.7 -0.2,0.2 -0.4,0.3 -0.7,0.3 h -6.5 v 20.3 c 0,0.3 -0.1,0.5 -0.3,0.7 -0.2,0.2 -0.4,0.3 -0.7,0.3 H 45 C 44.7,65.3 44.5,65.2 44.3,65 44.1,64.8 44,64.6 44,64.3 V 44 H 37.5 C 37.2,44 37,43.9 36.8,43.7 36.6,43.5 36.5,43.3 36.5,43 v -1.3 c 0,-0.3 0.1,-0.5 0.3,-0.7 0.2,-0.2 0.4,-0.3 0.7,-0.3 h 16.3 c 0.3,0.1 0.5,0.2 0.7,0.4 z"
   id="path1876"
   inkscape:connector-curvature="0"
   style="fill:url(#SVGID_9_)" />
		<linearGradient
   id="SVGID_10_"
   gradientUnits="userSpaceOnUse"
   x1="68.0811"
   y1="65.149399"
   x2="68.0811"
   y2="40.8293">
			<stop
   offset="0"
   style="stop-color:#B43900"
   id="stop1878" />
			<stop
   offset="1"
   style="stop-color:#E85318"
   id="stop1880" />
		</linearGradient>
		<path
   class="st9"
   d="m 63.4,62 h 11.7 c 0.3,0 0.5,0.1 0.7,0.3 0.2,0.2 0.3,0.4 0.3,0.7 v 1.3 c 0,0.3 -0.1,0.5 -0.3,0.7 -0.2,0.2 -0.4,0.3 -0.7,0.3 h -14 c -0.3,0 -0.5,-0.1 -0.7,-0.3 -0.2,-0.2 -0.3,-0.4 -0.3,-0.7 V 41.8 c 0,-0.3 0.1,-0.5 0.3,-0.7 0.2,-0.2 0.4,-0.3 0.7,-0.3 h 13.8 c 0.3,0 0.5,0.1 0.7,0.3 0.2,0.2 0.3,0.4 0.3,0.7 V 43 c 0,0.3 -0.1,0.5 -0.3,0.7 -0.2,0.2 -0.4,0.3 -0.7,0.3 H 63.4 v 7.3 H 74 c 0.3,0 0.5,0.1 0.7,0.3 0.2,0.2 0.3,0.4 0.3,0.7 v 1.3 c 0,0.3 -0.1,0.5 -0.3,0.7 -0.2,0.2 -0.4,0.3 -0.7,0.3 H 63.4 Z"
   id="path1883"
   inkscape:connector-curvature="0"
   style="fill:url(#SVGID_10_)" />
		<linearGradient
   id="SVGID_11_"
   gradientUnits="userSpaceOnUse"
   x1="91.288902"
   y1="65.149399"
   x2="91.288902"
   y2="40.8293">
			<stop
   offset="0"
   style="stop-color:#B43900"
   id="stop1885" />
			<stop
   offset="1"
   style="stop-color:#E85318"
   id="stop1887" />
		</linearGradient>
		<path
   class="st10"
   d="m 97.9,42.7 c 1.6,1.3 2.4,3.1 2.4,5.5 0,1.6 -0.4,3 -1.1,4.1 -0.8,1.1 -1.8,2 -3,2.5 -1.3,0.6 -2.7,0.8 -4.2,0.8 h -6.4 v 8.5 c 0,0.3 -0.1,0.5 -0.3,0.7 -0.2,0.2 -0.4,0.3 -0.7,0.3 h -1.4 c -0.3,0 -0.5,-0.1 -0.7,-0.3 -0.2,-0.2 -0.3,-0.4 -0.3,-0.7 V 41.8 c 0,-0.3 0.1,-0.5 0.3,-0.7 0.2,-0.2 0.4,-0.3 0.7,-0.3 H 92 c 2.4,0 4.4,0.7 5.9,1.9 z m -6.1,9.9 c 1.7,0 3,-0.4 3.9,-1.1 0.9,-0.7 1.4,-1.8 1.4,-3.3 0,-2.8 -1.7,-4.2 -5.2,-4.2 h -6.2 v 8.6 z"
   id="path1890"
   inkscape:connector-curvature="0"
   style="fill:url(#SVGID_11_)" />
		<linearGradient
   id="SVGID_12_"
   gradientUnits="userSpaceOnUse"
   x1="115.4699"
   y1="65.149399"
   x2="115.4699"
   y2="40.8293">
			<stop
   offset="0"
   style="stop-color:#B43900"
   id="stop1892" />
			<stop
   offset="1"
   style="stop-color:#E85318"
   id="stop1894" />
		</linearGradient>
		<path
   class="st11"
   d="m 124.6,41.1 c 0.2,0.2 0.3,0.4 0.3,0.7 v 22.4 c 0,0.3 -0.1,0.5 -0.3,0.7 -0.2,0.2 -0.4,0.3 -0.7,0.3 h -1.4 c -0.3,0 -0.5,-0.1 -0.7,-0.3 -0.2,-0.2 -0.3,-0.4 -0.3,-0.7 v -9.8 h -12.2 v 9.8 c 0,0.3 -0.1,0.5 -0.3,0.7 -0.2,0.2 -0.4,0.3 -0.7,0.3 H 107 c -0.3,0 -0.5,-0.1 -0.7,-0.3 -0.2,-0.2 -0.3,-0.4 -0.3,-0.7 V 41.8 c 0,-0.3 0.1,-0.5 0.3,-0.7 0.2,-0.2 0.4,-0.3 0.7,-0.3 h 1.4 c 0.3,0 0.5,0.1 0.7,0.3 0.2,0.2 0.3,0.4 0.3,0.7 v 9.5 h 12.2 v -9.5 c 0,-0.3 0.1,-0.5 0.3,-0.7 0.2,-0.2 0.4,-0.3 0.7,-0.3 h 1.4 c 0.2,0 0.4,0.1 0.6,0.3 z"
   id="path1897"
   inkscape:connector-curvature="0"
   style="fill:url(#SVGID_12_)" />
		<linearGradient
   id="SVGID_13_"
   gradientUnits="userSpaceOnUse"
   x1="140.38071"
   y1="65.149399"
   x2="140.38071"
   y2="40.8293">
			<stop
   offset="0"
   style="stop-color:#B43900"
   id="stop1899" />
			<stop
   offset="1"
   style="stop-color:#E85318"
   id="stop1901" />
		</linearGradient>
		<path
   class="st12"
   d="m 135.7,62 h 11.7 c 0.3,0 0.5,0.1 0.7,0.3 0.2,0.2 0.3,0.4 0.3,0.7 v 1.3 c 0,0.3 -0.1,0.5 -0.3,0.7 -0.2,0.2 -0.4,0.3 -0.7,0.3 h -14 c -0.3,0 -0.5,-0.1 -0.7,-0.3 -0.2,-0.2 -0.3,-0.4 -0.3,-0.7 V 41.8 c 0,-0.3 0.1,-0.5 0.3,-0.7 0.2,-0.2 0.4,-0.3 0.7,-0.3 h 13.8 c 0.3,0 0.5,0.1 0.7,0.3 0.2,0.2 0.3,0.4 0.3,0.7 V 43 c 0,0.3 -0.1,0.5 -0.3,0.7 -0.2,0.2 -0.4,0.3 -0.7,0.3 h -11.4 v 7.3 h 10.6 c 0.3,0 0.5,0.1 0.7,0.3 0.2,0.2 0.3,0.4 0.3,0.7 v 1.3 c 0,0.3 -0.1,0.5 -0.3,0.7 -0.2,0.2 -0.4,0.3 -0.7,0.3 H 135.8 V 62 Z"
   id="path1904"
   inkscape:connector-curvature="0"
   style="fill:url(#SVGID_13_)" />
		<linearGradient
   id="SVGID_14_"
   gradientUnits="userSpaceOnUse"
   x1="161.45219"
   y1="65.149399"
   x2="161.45219"
   y2="40.8293">
			<stop
   offset="0"
   style="stop-color:#B43900"
   id="stop1906" />
			<stop
   offset="1"
   style="stop-color:#E85318"
   id="stop1908" />
		</linearGradient>
		<path
   class="st13"
   d="m 170.3,41.1 c 0.2,0.2 0.3,0.4 0.3,0.7 V 43 c 0,0.3 -0.1,0.5 -0.3,0.7 -0.2,0.2 -0.4,0.3 -0.7,0.3 h -6.5 v 20.3 c 0,0.3 -0.1,0.5 -0.3,0.7 -0.2,0.2 -0.4,0.3 -0.7,0.3 h -1.4 c -0.3,0 -0.5,-0.1 -0.7,-0.3 -0.2,-0.2 -0.3,-0.4 -0.3,-0.7 V 44 h -6.5 c -0.3,0 -0.5,-0.1 -0.7,-0.3 -0.2,-0.2 -0.3,-0.4 -0.3,-0.7 v -1.3 c 0,-0.3 0.1,-0.5 0.3,-0.7 0.2,-0.2 0.4,-0.3 0.7,-0.3 h 16.3 c 0.4,0.1 0.6,0.2 0.8,0.4 z"
   id="path1911"
   inkscape:connector-curvature="0"
   style="fill:url(#SVGID_14_)" />
		<linearGradient
   id="SVGID_15_"
   gradientUnits="userSpaceOnUse"
   x1="191.4342"
   y1="54.4832"
   x2="191.4342"
   y2="51.495399">
			<stop
   offset="0"
   style="stop-color:#B43900"
   id="stop1913" />
			<stop
   offset="1"
   style="stop-color:#E85318"
   id="stop1915" />
		</linearGradient>
		<path
   class="st14"
   d="m 185.6,54.2 c -0.2,-0.2 -0.3,-0.4 -0.3,-0.7 v -1.1 c 0,-0.3 0.1,-0.5 0.3,-0.7 0.2,-0.2 0.4,-0.3 0.7,-0.3 h 10.2 c 0.3,0 0.5,0.1 0.7,0.3 0.2,0.2 0.3,0.4 0.3,0.7 v 1.1 c 0,0.3 -0.1,0.5 -0.3,0.7 -0.2,0.2 -0.4,0.3 -0.7,0.3 h -10.2 c -0.2,0 -0.5,-0.1 -0.7,-0.3 z"
   id="path1918"
   inkscape:connector-curvature="0"
   style="fill:url(#SVGID_15_)" />
		<linearGradient
   id="SVGID_16_"
   gradientUnits="userSpaceOnUse"
   x1="223.328"
   y1="65.149399"
   x2="223.328"
   y2="40.8293">
			<stop
   offset="0"
   style="stop-color:#B43900"
   id="stop1920" />
			<stop
   offset="1"
   style="stop-color:#E85318"
   id="stop1922" />
		</linearGradient>
		<path
   class="st15"
   d="m 217.3,59.7 -1.8,4.6 c -0.2,0.6 -0.7,0.9 -1.4,0.9 h -1.3 c -0.2,0 -0.4,-0.1 -0.5,-0.2 -0.2,-0.2 -0.2,-0.3 -0.2,-0.5 0,-0.1 0,-0.3 0.1,-0.5 l 8.5,-21.9 c 0.3,-0.8 0.8,-1.1 1.6,-1.1 h 2.1 c 0.7,0 1.3,0.4 1.6,1.1 l 8.5,21.9 c 0.1,0.2 0.1,0.4 0.1,0.5 0,0.2 -0.1,0.4 -0.2,0.5 -0.2,0.2 -0.3,0.2 -0.5,0.2 h -1.3 c -0.7,0 -1.1,-0.3 -1.4,-0.9 l -1.8,-4.6 z m 10.8,-3.2 -4.8,-12.4 -4.8,12.4 z"
   id="path1925"
   inkscape:connector-curvature="0"
   style="fill:url(#SVGID_16_)" />
		<linearGradient
   id="SVGID_17_"
   gradientUnits="userSpaceOnUse"
   x1="247.5434"
   y1="65.149399"
   x2="247.5434"
   y2="40.8293">
			<stop
   offset="0"
   style="stop-color:#B43900"
   id="stop1927" />
			<stop
   offset="1"
   style="stop-color:#E85318"
   id="stop1929" />
		</linearGradient>
		<path
   class="st16"
   d="m 237.6,41.6 c 0,-0.2 0.1,-0.4 0.2,-0.5 0.2,-0.2 0.3,-0.2 0.5,-0.2 h 1.5 c 0.4,0 0.7,0.1 0.9,0.2 0.2,0.2 0.4,0.4 0.5,0.6 l 6.3,12.1 6.3,-12.1 c 0.2,-0.3 0.3,-0.5 0.5,-0.6 0.2,-0.2 0.5,-0.2 0.9,-0.2 h 1.5 c 0.2,0 0.4,0.1 0.5,0.2 0.2,0.2 0.2,0.3 0.2,0.5 0,0.1 -0.1,0.3 -0.2,0.5 l -8.3,16 c -0.9,1.6 -1.6,2.8 -2.2,3.7 -0.6,0.9 -1.3,1.7 -2.2,2.3 -0.9,0.7 -1.9,1 -3.1,1 h -1.8 c -0.3,0 -0.5,-0.1 -0.7,-0.3 -0.2,-0.2 -0.3,-0.4 -0.3,-0.7 V 63 c 0,-0.3 0.1,-0.5 0.3,-0.7 0.2,-0.2 0.4,-0.3 0.7,-0.3 h 1.5 c 0.6,0 1.1,-0.2 1.6,-0.6 0.5,-0.4 0.9,-0.9 1.3,-1.5 0.3,-0.5 0.9,-1.4 1.5,-2.6 l -7.9,-15.2 c 0,-0.2 0,-0.4 0,-0.5 z"
   id="path1932"
   inkscape:connector-curvature="0"
   style="fill:url(#SVGID_17_)" />
		<linearGradient
   id="SVGID_18_"
   gradientUnits="userSpaceOnUse"
   x1="269.91821"
   y1="68.971199"
   x2="269.91821"
   y2="40.8293">
			<stop
   offset="0"
   style="stop-color:#B43900"
   id="stop1934" />
			<stop
   offset="1"
   style="stop-color:#E85318"
   id="stop1936" />
		</linearGradient>
		<path
   class="st17"
   d="m 263.4,41.1 c 0.2,-0.2 0.4,-0.3 0.7,-0.3 h 14.3 c 0.3,0 0.5,0.1 0.7,0.3 0.2,0.2 0.3,0.4 0.3,0.7 V 62 h 0.8 c 0.3,0 0.5,0.1 0.7,0.3 0.2,0.2 0.3,0.4 0.3,0.7 v 5 c 0,0.3 -0.1,0.5 -0.3,0.7 -0.2,0.2 -0.4,0.3 -0.7,0.3 h -1.4 c -0.3,0 -0.5,-0.1 -0.7,-0.3 -0.2,-0.2 -0.3,-0.4 -0.3,-0.7 V 65.1 H 262.2 V 68 c 0,0.3 -0.1,0.5 -0.3,0.7 -0.2,0.2 -0.4,0.3 -0.7,0.3 h -1.4 c -0.3,0 -0.5,-0.1 -0.7,-0.3 -0.2,-0.2 -0.3,-0.4 -0.3,-0.7 v -5 c 0,-0.3 0.1,-0.5 0.3,-0.7 0.2,-0.2 0.4,-0.3 0.7,-0.3 h 0.6 c 1,0 1.7,-0.3 2.2,-0.9 0.4,-0.6 0.6,-1.7 0.6,-3.3 v -16 c -0.1,-0.3 0,-0.5 0.2,-0.7 z M 265.6,62 H 276 V 44 h -9.6 v 14.5 c 0,1.7 -0.3,2.9 -0.8,3.5 z"
   id="path1939"
   inkscape:connector-curvature="0"
   style="fill:url(#SVGID_18_)" />
		<linearGradient
   id="SVGID_19_"
   gradientUnits="userSpaceOnUse"
   x1="296.37469"
   y1="65.149399"
   x2="296.37469"
   y2="40.8293">
			<stop
   offset="0"
   style="stop-color:#B43900"
   id="stop1941" />
			<stop
   offset="1"
   style="stop-color:#E85318"
   id="stop1943" />
		</linearGradient>
		<path
   class="st18"
   d="m 288.2,65.1 c -0.3,0 -0.5,-0.1 -0.7,-0.3 -0.2,-0.2 -0.3,-0.4 -0.3,-0.7 V 41.8 c 0,-0.3 0.1,-0.5 0.3,-0.7 0.2,-0.2 0.4,-0.3 0.7,-0.3 h 1.4 c 0.3,0 0.5,0.1 0.7,0.3 0.2,0.2 0.3,0.4 0.3,0.7 v 17.1 l 11.3,-17 c 0.2,-0.3 0.4,-0.6 0.6,-0.8 0.2,-0.2 0.5,-0.3 0.8,-0.3 h 1.2 c 0.3,0 0.5,0.1 0.7,0.3 0.2,0.2 0.3,0.4 0.3,0.7 v 22.4 c 0,0.3 -0.1,0.5 -0.3,0.7 -0.2,0.2 -0.4,0.3 -0.7,0.3 h -1.4 c -0.3,0 -0.5,-0.1 -0.7,-0.3 -0.2,-0.2 -0.3,-0.4 -0.3,-0.7 V 47.1 l -11.3,17 c -0.2,0.3 -0.4,0.6 -0.6,0.8 -0.2,0.2 -0.5,0.3 -0.8,0.3 h -1.2 z"
   id="path1946"
   inkscape:connector-curvature="0"
   style="fill:url(#SVGID_19_)" />
		<linearGradient
   id="SVGID_20_"
   gradientUnits="userSpaceOnUse"
   x1="319.87741"
   y1="65.149399"
   x2="319.87741"
   y2="40.8293">
			<stop
   offset="0"
   style="stop-color:#B43900"
   id="stop1948" />
			<stop
   offset="1"
   style="stop-color:#E85318"
   id="stop1950" />
		</linearGradient>
		<path
   class="st19"
   d="m 328.7,41.1 c 0.2,0.2 0.3,0.4 0.3,0.7 V 43 c 0,0.3 -0.1,0.5 -0.3,0.7 -0.2,0.2 -0.4,0.3 -0.7,0.3 h -6.5 v 20.3 c 0,0.3 -0.1,0.5 -0.3,0.7 -0.2,0.2 -0.4,0.3 -0.7,0.3 h -1.4 c -0.3,0 -0.5,-0.1 -0.7,-0.3 -0.2,-0.2 -0.3,-0.4 -0.3,-0.7 V 44 h -6.5 c -0.3,0 -0.5,-0.1 -0.7,-0.3 -0.2,-0.2 -0.3,-0.4 -0.3,-0.7 v -1.3 c 0,-0.3 0.1,-0.5 0.3,-0.7 0.2,-0.2 0.4,-0.3 0.7,-0.3 H 328 c 0.3,0.1 0.5,0.2 0.7,0.4 z"
   id="path1953"
   inkscape:connector-curvature="0"
   style="fill:url(#SVGID_20_)" />
	</g>
</g>
<g
   id="g1989"
   transform="translate(0,-40.7)">
	<g
   id="g1987">
		<linearGradient
   id="SVGID_21_"
   gradientUnits="userSpaceOnUse"
   x1="9.9834003"
   y1="188.1432"
   x2="9.9834003"
   y2="84.613899">
			<stop
   offset="0"
   style="stop-color:#B43900"
   id="stop1959" />
			<stop
   offset="1"
   style="stop-color:#E85318"
   id="stop1961" />
		</linearGradient>
		<path
   class="st20"
   d="M 1.2,187 C 0.4,186.2 0,185.3 0,184.2 V 88.6 C 0,87.5 0.4,86.6 1.2,85.8 2,85 2.9,84.6 4,84.6 h 12 c 1.1,0 2,0.4 2.8,1.2 0.8,0.8 1.2,1.7 1.2,2.8 v 95.5 c 0,1.1 -0.4,2 -1.2,2.8 -0.8,0.8 -1.7,1.2 -2.8,1.2 H 4 c -1.1,0 -2,-0.3 -2.8,-1.1 z"
   id="path1964"
   inkscape:connector-curvature="0"
   style="fill:url(#SVGID_21_)" />
		<linearGradient
   id="SVGID_22_"
   gradientUnits="userSpaceOnUse"
   x1="79.050301"
   y1="188.1432"
   x2="79.050301"
   y2="84.613899">
			<stop
   offset="0"
   style="stop-color:#B43900"
   id="stop1966" />
			<stop
   offset="1"
   style="stop-color:#E85318"
   id="stop1968" />
		</linearGradient>
		<path
   class="st21"
   d="m 118.5,85.8 c 0.8,0.8 1.2,1.7 1.2,2.8 v 10.5 c 0,1.1 -0.4,2 -1.2,2.8 -0.8,0.8 -1.7,1.2 -2.8,1.2 H 89 v 81 c 0,1.1 -0.4,2 -1.2,2.8 -0.8,0.8 -1.7,1.2 -2.8,1.2 H 73 c -1.1,0 -2,-0.4 -2.8,-1.2 -0.8,-0.8 -1.2,-1.7 -1.2,-2.8 v -81 H 42.4 c -1.1,0 -2,-0.4 -2.8,-1.2 -0.8,-0.8 -1.2,-1.7 -1.2,-2.8 V 88.6 c 0,-1.1 0.4,-2 1.2,-2.8 0.8,-0.8 1.7,-1.2 2.8,-1.2 h 73.2 c 1.1,0 2.1,0.4 2.9,1.2 z"
   id="path1971"
   inkscape:connector-curvature="0"
   style="fill:url(#SVGID_22_)" />
		<linearGradient
   id="SVGID_23_"
   gradientUnits="userSpaceOnUse"
   x1="176.0061"
   y1="189.6217"
   x2="176.0061"
   y2="83.134903">
			<stop
   offset="0"
   style="stop-color:#B43900"
   id="stop1973" />
			<stop
   offset="1"
   style="stop-color:#E85318"
   id="stop1975" />
		</linearGradient>
		<path
   class="st22"
   d="m 215.9,151.5 c 1.2,0 2.2,0.4 3,1.1 0.8,0.7 1.1,1.7 1,2.9 -0.4,5.7 -2.2,11.2 -5.4,16.4 -3.2,5.2 -8,9.5 -14.5,12.8 -6.5,3.3 -14.5,5 -24.2,5 -13.2,0 -23.6,-3.7 -31.1,-11.2 -7.5,-7.4 -11.6,-17.3 -12.4,-29.7 -0.2,-4.9 -0.3,-9.1 -0.3,-12.4 0,-3.4 0.1,-7.5 0.3,-12.4 0.8,-12.3 4.9,-22.2 12.4,-29.7 7.5,-7.4 17.8,-11.2 31.1,-11.2 9.7,0 17.7,1.7 24.2,5 6.5,3.3 11.3,7.6 14.5,12.8 3.2,5.2 5,10.7 5.4,16.4 0.1,1.2 -0.2,2.1 -1,2.9 -0.8,0.7 -1.8,1.1 -3,1.1 h -12 c -1,0 -1.9,-0.3 -2.8,-1 -0.9,-0.7 -1.4,-1.6 -1.6,-2.8 -0.8,-4.4 -3.1,-8.2 -7,-11.2 -3.9,-3.1 -9.4,-4.6 -16.6,-4.6 -7.3,0 -12.9,2.1 -16.9,6.2 -4,4.1 -6.2,9.5 -6.6,16.1 -0.2,4.9 -0.3,9.1 -0.3,12.4 0,3.4 0.1,7.5 0.3,12.4 0.4,6.6 2.6,12 6.6,16.1 4,4.1 9.6,6.2 16.9,6.2 7.2,0 12.8,-1.5 16.7,-4.6 3.9,-3.1 6.3,-6.8 7.1,-11.2 0.2,-1.2 0.7,-2.1 1.6,-2.8 0.8,-0.7 1.7,-1 2.7,-1 z"
   id="path1978"
   inkscape:connector-curvature="0"
   style="fill:url(#SVGID_23_)" />
		<linearGradient
   id="SVGID_24_"
   gradientUnits="userSpaceOnUse"
   x1="282.03961"
   y1="189.6217"
   x2="282.03961"
   y2="83.134903">
			<stop
   offset="0"
   style="stop-color:#B43900"
   id="stop1980" />
			<stop
   offset="1"
   style="stop-color:#E85318"
   id="stop1982" />
		</linearGradient>
		<path
   class="st23"
   d="m 307.4,88.2 c 6.5,3.4 11.1,7.3 13.8,11.8 2.8,4.5 4.3,8.7 4.6,12.5 0.1,1.2 -0.2,2.1 -1,2.9 -0.8,0.7 -1.8,1.1 -3,1.1 h -12 c -1.8,0 -3.1,-0.8 -4,-2.5 -4.4,-8.2 -12.4,-12.3 -23.8,-12.3 -7.3,0 -13.2,2 -17.7,6 -4.5,4 -6.9,9.3 -7.2,16 -0.1,2.5 -0.1,6.5 -0.1,12 0,5.6 0,9.7 0.1,12.1 0.3,7.9 2.6,13.8 7,17.6 4.3,3.8 10.3,5.8 17.9,5.8 16.7,0 25,-7.6 25,-22.8 v -1.2 h -18 c -1.1,0 -2,-0.4 -2.8,-1.2 -0.8,-0.8 -1.2,-1.7 -1.2,-2.8 v -10.5 c 0,-1.1 0.4,-2 1.2,-2.8 0.8,-0.8 1.7,-1.2 2.8,-1.2 h 34 c 1.1,0 2,0.4 2.8,1.2 0.8,0.8 1.2,1.7 1.2,2.8 V 149 c 0,8 -1.7,15 -5.1,21.1 -3.4,6.1 -8.5,10.9 -15.2,14.3 -6.8,3.5 -15,5.2 -24.6,5.2 -14.4,0 -25.3,-3.6 -32.8,-10.9 -7.5,-7.2 -11.5,-17.1 -12,-29.5 -0.1,-2.5 -0.1,-6.9 -0.1,-13.2 0,-6.3 0,-10.7 0.1,-13.2 0.5,-12.1 4.5,-21.8 12.1,-29 7.6,-7.2 18.5,-10.8 32.7,-10.8 10.4,0.1 18.8,1.8 25.3,5.2 z"
   id="path1985"
   inkscape:connector-curvature="0"
   style="fill:url(#SVGID_24_)" />
	</g>
</g>
</svg>