<?xml version="1.0" encoding="utf-8"?>
<!-- Generator: Adobe Illustrator 22.0.1, SVG Export Plug-In . SVG Version: 6.00 Build 0)  -->
<svg version="1.1" id="Слой_1" xmlns="http://www.w3.org/2000/svg" xmlns:xlink="http://www.w3.org/1999/xlink" x="0px" y="0px"
	 viewBox="0 0 325.9 406.2" style="enable-background:new 0 0 325.9 406.2;" xml:space="preserve">
<style type="text/css">
	.st0{fill:none;stroke:#BFCCD3;stroke-width:3;stroke-miterlimit:10;}
	.st1{fill:#F1F2F2;stroke:#BFCCD3;stroke-width:2;stroke-miterlimit:10;}
	.st2{opacity:0.19;fill:#BFCCD3;stroke:#F1F2F2;stroke-width:2;stroke-miterlimit:10;enable-background:new    ;}
	.st3{fill:url(#path5123_1_);}
	.st4{fill:url(#path5130_1_);}
	.st5{fill:url(#path5137_1_);}
	.st6{fill:none;stroke:#BFCCD3;stroke-width:2;stroke-miterlimit:10;}
	.st7{fill:none;stroke:#53A9F4;stroke-width:0.5;stroke-miterlimit:10;}
	.st8{fill:url(#path5152_1_);}
	.st9{clip-path:url(#SVGID_2_);}
	.st10{fill:none;stroke:#BFCCD3;stroke-miterlimit:10;}
	.st11{fill:#FF9B24;}
	.st12{fill:url(#circle5205_1_);}
	.st13{fill:url(#circle5212_1_);}
	.st14{fill:url(#circle5219_1_);}
	.st15{fill:url(#circle5226_1_);}
	.st16{fill:url(#path5237_1_);}
	.st17{fill:#61AAF7;}
	.st18{fill:url(#path5246_1_);}
	.st19{fill:url(#path5253_1_);}
	.st20{fill:url(#path5260_1_);}
	.st21{fill:url(#path5269_1_);}
	.st22{fill:url(#path5284_1_);}
	.st23{fill:none;stroke:#6535E4;stroke-width:0.5;stroke-miterlimit:10;}
	.st24{fill:url(#path5295_1_);}
	.st25{fill:url(#circle5304_1_);}
	.st26{fill:url(#circle5313_1_);}
	.st27{fill:url(#circle5322_1_);}
	.st28{fill:url(#path5337_1_);}
	.st29{fill:url(#path5344_1_);}
	.st30{fill:#53A9F4;}
	.st31{fill:#D9DBE8;}
	.st32{fill:#3537AB;}
	.st33{fill:#FFFFFF;}
	.st34{fill:none;stroke:#3537AB;stroke-width:0.5;stroke-miterlimit:10;}
	.st35{fill:none;stroke:#F5FBFF;stroke-miterlimit:10;}
	.st36{fill:url(#path5375_1_);}
	.st37{fill:none;stroke:#D9DBE8;stroke-width:0.5;stroke-miterlimit:10;}
	.st38{fill:none;stroke:#CE7C24;stroke-width:0.5;stroke-miterlimit:10;}
</style>
<line id="line5108" class="st0" x1="193.8" y1="229.6" x2="146.3" y2="398.9"/>
<line id="line5110" class="st0" x1="254.7" y1="233.1" x2="297.7" y2="399.2"/>
<line id="line5112" class="st0" x1="230.1" y1="233.1" x2="226.3" y2="388.3"/>
<polygon id="polygon5114" class="st1" points="147.5,4.3 319.1,4.3 317.9,282.6 133.3,279.6 "/>
<path id="path5116" class="st2" d="M319,25.7l0.1-21.4H147.5l-1,19.6
	C188.5,23.5,255.2,24.8,319,25.7z"/>
<g id="g5141" transform="translate(-36.700002,-128.9)">
	<g id="g5139">
		
			<linearGradient id="path5123_1_" gradientUnits="userSpaceOnUse" x1="40.4402" y1="369.738" x2="40.4402" y2="386.938" gradientTransform="matrix(1 0 0 -1 158.3 547.0961)">
			<stop  offset="0" style="stop-color:#B63A00"/>
			<stop  offset="1" style="stop-color:#E85419"/>
		</linearGradient>
		<path id="path5123" class="st3" d="M204.4,176.4c0.2,0.2,0.2,0.3,0.2,0.4c0,0.1-0.1,0.3-0.2,0.4
			c-0.1,0.1-0.2,0.1-0.4,0.1l-1.5-0.1c-0.3,0-0.6-0.1-0.8-0.4l-6.5-6.7l-0.2,6.2c0,0.2-0.1,0.3-0.2,0.4c-0.1,0.1-0.3,0.2-0.5,0.2h-1
			c-0.2,0-0.3-0.1-0.4-0.2c-0.1-0.1-0.2-0.3-0.2-0.5l0.6-15.5c0-0.2,0.1-0.3,0.2-0.4c0.1-0.1,0.3-0.2,0.5-0.2h1
			c0.2,0,0.3,0.1,0.4,0.2c0.1,0.1,0.2,0.3,0.2,0.5l-0.2,5.6l6.6-5.6c0.2-0.2,0.5-0.3,0.9-0.3l1.4,0.1c0.1,0,0.3,0.1,0.4,0.2
			c0.1,0.1,0.1,0.2,0.1,0.4c0,0.1-0.1,0.3-0.3,0.4l-8,6.8L204.4,176.4z"/>
		
			<linearGradient id="path5130_1_" gradientUnits="userSpaceOnUse" x1="55.1465" y1="369.5701" x2="55.1465" y2="386.3953" gradientTransform="matrix(1 0 0 -1 158.3 547.0961)">
			<stop  offset="0" style="stop-color:#B63A00"/>
			<stop  offset="1" style="stop-color:#E85419"/>
		</linearGradient>
		<path id="path5130" class="st4" d="M218.4,162.4c1.1,0.9,1.6,2.2,1.5,3.8c0,1.1-0.3,2.1-0.9,2.8
			c-0.5,0.8-1.3,1.3-2.2,1.7s-1.9,0.5-2.9,0.5l-4.4-0.2l-0.2,5.9c0,0.2-0.1,0.3-0.2,0.4c-0.1,0.1-0.3,0.2-0.5,0.2h-1
			c-0.2,0-0.3-0.1-0.4-0.2c-0.1-0.1-0.2-0.3-0.2-0.5l0.6-15.5c0-0.2,0.1-0.3,0.2-0.4c0.1-0.1,0.3-0.2,0.5-0.2l6,0.2
			C216,161,217.3,161.5,218.4,162.4L218.4,162.4z M213.9,169c1.2,0,2.1-0.2,2.7-0.7c0.6-0.5,1-1.2,1-2.2c0.1-2-1.1-3-3.5-3.1
			l-4.3-0.2l-0.2,5.9L213.9,169z"/>
		
			<linearGradient id="path5137_1_" gradientUnits="userSpaceOnUse" x1="65.5402" y1="369.0076" x2="65.5402" y2="385.8329" gradientTransform="matrix(1 0 0 -1 158.3 547.0961)">
			<stop  offset="0" style="stop-color:#B63A00"/>
			<stop  offset="1" style="stop-color:#E85419"/>
		</linearGradient>
		<path id="path5137" class="st5" d="M222.6,177.8c-0.1-0.1-0.2-0.3-0.2-0.5l0.6-15.5
			c0-0.2,0.1-0.3,0.2-0.4c0.1-0.1,0.3-0.2,0.5-0.2h1c0.2,0,0.3,0.1,0.4,0.2c0.1,0.1,0.2,0.3,0.2,0.5l-0.6,15.5
			c0,0.2-0.1,0.3-0.2,0.4c-0.1,0.1-0.3,0.2-0.5,0.2h-1C222.8,178,222.7,178,222.6,177.8z"/>
	</g>
</g>
<polyline id="polyline5143" class="st6" points="156.5,64.7 146.3,266.4 306.1,267.6 "/>
<path id="path5145" class="st7" d="M114.5,314.3c0,0,3.3,1.4,7.3,0.2"/>
<linearGradient id="path5152_1_" gradientUnits="userSpaceOnUse" x1="-63.4976" y1="103.3953" x2="9.0902" y2="103.3953" gradientTransform="matrix(1 0 0 -1 158.3 289.2961)">
	<stop  offset="0.127" style="stop-color:#FF9B24"/>
	<stop  offset="1" style="stop-color:#FFCB3D"/>
</linearGradient>
<path id="path5152" class="st8" d="M163.3,154.5c1.7-2.7,4.1-5.8,4.1-5.8c0-1-1.8-1.2-2.5-0.6
	c-8,6.6-12.5,7.8-12.5,7.8c-2.5,0.7-6.2,1.8-6.2,1.8s0,0-0.1,0c3.4-2.4,9.1-7.6,6.8-8.5c-2.5-0.9-5.2,1.9-12.6,7.8
	c-6.3,5,2,14.1,2,14.1s-24.9,33.6-28,35.7c-5.1-2.8-10.6-31-10.6-31s-10.4-11.7-8.7,13.1c1.7,24.8,13.5,34.5,13.5,34.5
	c8.3,6.7,35.2-41,39.4-48.6c3.3-0.1,7.5-4,10.2-8.5c0.1,0,0.3,0.1,0.5,0.1c1.4,0,2.5-1.2,2.5-2.8c0-0.4-0.1-0.7-0.2-1
	c0.1,0,0.1,0,0.2,0c1.4,0,2.5-1.2,2.5-2.8c0-0.4-0.1-0.7-0.2-1c0.6-0.5,1-1.3,1-2.2C164.4,155.9,164,155,163.3,154.5L163.3,154.5z
	 M145.7,158.1L145.7,158.1L145.7,158.1L145.7,158.1z"/>
<g id="g5192" transform="translate(-36.700002,-128.9)">
	<g>
		<defs>
			<polygon id="SVGID_1_" points="292.8,262.3 303,232.9 334.4,188.1 335.8,386.2 194.1,381.5 220.6,324.1 244.8,316.8 257.6,281.1 
							"/>
		</defs>
		<clipPath id="SVGID_2_">
			<use xlink:href="#SVGID_1_"  style="overflow:visible;"/>
		</clipPath>
		<g id="g5190" class="st9">
			<line id="line5160" class="st10" x1="209.4" y1="311.1" x2="204.1" y2="415.7"/>
			<line id="line5162" class="st10" x1="218.1" y1="300.5" x2="213" y2="416.1"/>
			<line id="line5164" class="st10" x1="226.9" y1="289.9" x2="221.9" y2="416.6"/>
			<line id="line5166" class="st10" x1="235.6" y1="279.3" x2="230.8" y2="417"/>
			<line id="line5168" class="st10" x1="244.3" y1="268.7" x2="239.7" y2="417.4"/>
			<line id="line5170" class="st10" x1="253" y1="258.1" x2="248.6" y2="417.8"/>
			<line id="line5172" class="st10" x1="261.7" y1="247.5" x2="257.5" y2="418.2"/>
			<line id="line5174" class="st10" x1="270.5" y1="236.9" x2="266.5" y2="418.6"/>
			<line id="line5176" class="st10" x1="279.2" y1="226.3" x2="275.4" y2="419"/>
			<line id="line5178" class="st10" x1="287.9" y1="215.7" x2="284.3" y2="419.4"/>
			<line id="line5180" class="st10" x1="296.6" y1="205.1" x2="293.2" y2="419.8"/>
			<line id="line5182" class="st10" x1="305.3" y1="194.5" x2="302.1" y2="420.3"/>
			<line id="line5184" class="st10" x1="314" y1="183.9" x2="311" y2="420.7"/>
			<line id="line5186" class="st10" x1="322.8" y1="173.3" x2="319.9" y2="421.1"/>
			<line id="line5188" class="st10" x1="331.5" y1="162.7" x2="328.8" y2="421.5"/>
		</g>
	</g>
</g>
<g id="g5198" transform="translate(-36.700002,-128.9)">
	<g id="g5196">
		<path id="path5194" class="st11" d="M197.6,381.3c7.8-17,15.7-33.9,23.5-50.9
			c1-2.2,2.1-4.3,3-6.5c-0.6,1.6-1.6,0.5-0.3,0.6c0.6,0,1.4-0.4,2-0.6c2.8-0.8,5.6-1.7,8.4-2.5c3.9-1.2,9.3-1.8,12.9-3.9
			c2-1.1,2.4-4,3.1-6.1c2-5.5,3.9-10.9,5.9-16.4c1.6-4.3,3.8-8.8,4.8-13.3c0.5-2,0.5-0.5-0.1-0.3c1.4-0.5,2.7-1.4,4-2.1
			c5-2.7,10.1-5.4,15.1-8.1c4.4-2.4,8.8-4.7,13.2-7.1c2.1-1.1,3-1.5,3.8-3.7c3.4-9.5,5.7-19.5,8.6-29.2c1-3.3,0.8-3.1,2.7-5.5
			c3.4-4.4,6.7-8.8,10.1-13.2c6-7.8,11.9-15.6,17.9-23.4c1.5-1.9-1.8-3.8-3.2-1.9c-5.1,6.6-10.1,13.2-15.2,19.9
			c-3.4,4.4-6.8,8.9-10.1,13.3c-1.5,2-3.6,4-4.6,6.2c-1.3,2.8-1.8,6.3-2.7,9.2c-1.6,5.6-3.3,11.2-4.9,16.8c-0.6,2-1.2,4-1.8,6
			c-0.2,0.6-0.4,1.1-0.5,1.7c-0.2,0.9,1.4-1,0.5-0.7c-3.5,1.3-6.8,3.6-10,5.4c-5.2,2.8-10.5,5.6-15.7,8.4c-2.7,1.5-6.8,2.8-9.1,4.9
			c-1.7,1.6-2.2,4.8-3,6.9c-2,5.4-3.9,10.9-5.9,16.3c-0.9,2.5-1.8,5-2.7,7.5c-0.5,1.5-1.9,3.8-1.9,5.3c0,0.1-0.3,0.7-0.3,0.7
			c-1.1-1.6,2.7-1.2,0.2-0.9c-2.2,0.2-4.6,1.4-6.7,2c-5,1.5-10.2,2.8-15.1,4.6c-2,0.7-2.4,1.4-3.2,3.3c-8.5,18.4-17,36.9-25.6,55.3
			C193.4,381.5,196.6,383.4,197.6,381.3L197.6,381.3z"/>
	</g>
</g>
<linearGradient id="circle5205_1_" gradientUnits="userSpaceOnUse" x1="28.5902" y1="89.0429" x2="28.5902" y2="100.7245" gradientTransform="matrix(1 0 0 -1 158.3 289.2961)">
	<stop  offset="0" style="stop-color:#B63A00"/>
	<stop  offset="1" style="stop-color:#E85419"/>
</linearGradient>
<circle id="circle5205" class="st12" cx="186.9" cy="194.4" r="5.8"/>
<linearGradient id="circle5212_1_" gradientUnits="userSpaceOnUse" x1="64.3902" y1="132.435" x2="64.3902" y2="144.1165" gradientTransform="matrix(1 0 0 -1 158.3 289.2961)">
	<stop  offset="0" style="stop-color:#B63A00"/>
	<stop  offset="1" style="stop-color:#E85419"/>
</linearGradient>
<circle id="circle5212" class="st13" cx="222.7" cy="151" r="5.8"/>
<linearGradient id="circle5219_1_" gradientUnits="userSpaceOnUse" x1="100.0902" y1="151.5224" x2="100.0902" y2="163.2039" gradientTransform="matrix(1 0 0 -1 158.3 289.2961)">
	<stop  offset="0" style="stop-color:#B63A00"/>
	<stop  offset="1" style="stop-color:#E85419"/>
</linearGradient>
<circle id="circle5219" class="st14" cx="258.4" cy="131.9" r="5.8"/>
<linearGradient id="circle5226_1_" gradientUnits="userSpaceOnUse" x1="109.5902" y1="185.298" x2="109.5902" y2="196.9796" gradientTransform="matrix(1 0 0 -1 158.3 289.2961)">
	<stop  offset="0" style="stop-color:#B63A00"/>
	<stop  offset="1" style="stop-color:#E85419"/>
</linearGradient>
<circle id="circle5226" class="st15" cx="267.9" cy="98.2" r="5.8"/>
<polyline id="polyline5228" class="st6" points="149.3,75.8 156.5,64.7 161.9,75.8 "/>
<polyline id="polyline5230" class="st6" points="301.2,261.4 307.2,267.6 299.1,272.6 "/>
<linearGradient id="path5237_1_" gradientUnits="userSpaceOnUse" x1="-155.6098" y1="88.0018" x2="-50.3098" y2="88.0018" gradientTransform="matrix(1 0 0 -1 158.3 289.2961)">
	<stop  offset="0" style="stop-color:#467EF7"/>
	<stop  offset="1" style="stop-color:#61CBF7"/>
</linearGradient>
<path id="path5237" class="st16" d="M97.2,224.9c-0.3-4.1-1-16.2-1.7-27.5
	c0.1-2.2,0.1-4.4,0.1-6.7c4.4-1.9,7.3-2.7,12.4-6.5c-2.6-11.7-8.4-30.2-16.5-37.6c-2.2-2-3.7-3.2-4.9-3.9c-3.9-2.5-9.4-3.7-11.2-4
	c-8.9-1.6-19-1.5-30.5,1.3c-3.6,0.7-7.4,1.8-11.4,3.5C20.8,149,7.1,164.7,2.7,174.4c6.5,2.3,12.8,5,17.7,9.8
	c2.8-4.8,6.6-9,10.5-12.6l-2,56.3c0,0,0.3,16.6,1.8,24.3c0.8,0,1.7,0,2.6,0c3.2,11.7,10.6,17.7,25.7,7.6c7.4-4.9,15.4-8,22.1-10.5
	c6.7-1,12.7-2.2,17.6-3.8C98.1,240.8,97.4,227.7,97.2,224.9L97.2,224.9z"/>
<path id="path5239" class="st17" d="M97.2,227.4c-0.1,0-0.2,0-0.3,0l0,0
	C97,227.3,97.1,227.3,97.2,227.4z"/>
<linearGradient id="path5246_1_" gradientUnits="userSpaceOnUse" x1="-81.7098" y1="-113.902" x2="-81.7098" y2="43.598" gradientTransform="matrix(1 0 0 -1 158.3 289.2961)">
	<stop  offset="0" style="stop-color:#30259A"/>
	<stop  offset="1" style="stop-color:#33313D"/>
</linearGradient>
<path id="path5246" class="st18" d="M98.6,245.7c-21.9,5.8-44.9,4.6-67.6,6.6
	c1.1,19.2,5.4,31,10.6,52.1C54.4,355.9,59.8,395,59.8,395l7,1.5L72,280c11.6,18.6,27.8,37.9,27.8,37.9c0.1,0.1-1.6,26.8-0.7,43.9
	c2.8,54.1,4.9,38.4,5.2,40.7l6.7,0.7c0,0,11.1-89,11.2-89.1C121.1,304.8,111.8,281.7,98.6,245.7z"/>
<linearGradient id="path5253_1_" gradientUnits="userSpaceOnUse" x1="-118.5817" y1="-109.6236" x2="-89.9169" y2="-109.6236" gradientTransform="matrix(1 0 0 -1 158.3 289.2961)">
	<stop  offset="0" style="stop-color:#467EF7"/>
	<stop  offset="1" style="stop-color:#61CBF7"/>
</linearGradient>
<path id="path5253" class="st19" d="M40.2,404.6c-3-1.1,10.6-8.3,16.7-10c3.1-0.9,6.3-1.2,9.6-1.4
	c1.1,3,2,9.3,2,9.3S41.4,405,40.2,404.6z"/>
<linearGradient id="path5260_1_" gradientUnits="userSpaceOnUse" x1="-57.0674" y1="-109.9164" x2="-25.1052" y2="-109.9164" gradientTransform="matrix(1 0 0 -1 158.3 289.2961)">
	<stop  offset="0" style="stop-color:#467EF7"/>
	<stop  offset="1" style="stop-color:#61CBF7"/>
</linearGradient>
<path id="path5260" class="st20" d="M132,406.1c4.6,0.4-5.1-5.9-10.5-8.5
	c-13.4-6.4-16-5.2-20.3-5.2l0.2,12.2C101.5,404.5,129.7,405.9,132,406.1z"/>
<path id="path5262" class="st7" d="M50.3,336.4c0,0,1.7,3.8,9.2,1.1"/>
<linearGradient id="path5269_1_" gradientUnits="userSpaceOnUse" x1="-117.8544" y1="188.3292" x2="-72.3098" y2="188.3292" gradientTransform="matrix(1 0 0 -1 158.3 289.2961)">
	<stop  offset="0.127" style="stop-color:#FF9B24"/>
	<stop  offset="1" style="stop-color:#FFCB3D"/>
</linearGradient>
<path id="path5269" class="st21" d="M86,93.3c0-0.4-1.5-1.2-3.7-2.2c0.5-5.4,0.3-11.1-1-17
	c-6-28.1-37.4-19.1-40-2c-2.5,17.1,0,30.1,15,53.1l1.2,18.3c0,0,7.2,6.1,13.1-1.2l-1.1-15.8c0,0,9.6-13,12.3-31.1
	C84,95.1,85.9,94.4,86,93.3z"/>
<path id="path5271" class="st11" d="M92.6,215.8c-0.2-0.2-0.3-0.2-0.3-0.2
	C92.4,215.7,92.5,215.8,92.6,215.8z"/>
<path id="path5273" class="st7" d="M46.8,256.9c0,0-2.3,8.9-14.5,6.4"/>
<path id="path5275" class="st7" d="M92.6,250.4c0,0,2,6.5,11.1,6.9"/>
<path id="path5277" class="st7" d="M70.6,271.2l6.1-1.2c0,0,0.9-8.2,0.7-13.6"/>
<linearGradient id="path5284_1_" gradientUnits="userSpaceOnUse" x1="-155.6098" y1="109.1152" x2="-137.3526" y2="109.1152" gradientTransform="matrix(1 0 0 -1 158.3 289.2961)">
	<stop  offset="0" style="stop-color:#33313D"/>
	<stop  offset="1" style="stop-color:#4625C1"/>
</linearGradient>
<path id="path5284" class="st22" d="M2.7,174.5c0,0,13.4,16.4,17.7,9.8
	C24.7,177.6,2.7,174.5,2.7,174.5z"/>
<path id="path5286" class="st23" d="M27.7,159.8c0,0,0.9,6.5,3.1,8.9"/>
<path id="path5288" class="st23" d="M29.9,170.3c0,0-2,0.7-5.5-2.2"/>
<g id="g5328" transform="translate(-36.700002,-128.9)">
	<g id="g5326">
		<g id="g5297">
			
				<linearGradient id="path5295_1_" gradientUnits="userSpaceOnUse" x1="-64.6657" y1="271.598" x2="-51.3198" y2="271.598" gradientTransform="matrix(1 0 0 -1 158.3 547.0961)">
				<stop  offset="0" style="stop-color:#4625C1"/>
				<stop  offset="1" style="stop-color:#33313D"/>
			</linearGradient>
			<path id="path5295" class="st24" d="M107,271.2c-2.2,1.3-7.4,3.6-12.4,0.2h-1l1.9,8.1l4.7-3.4
				l5.4,3.7L107,271.2z"/>
		</g>
		<g id="g5306">
			
				<linearGradient id="circle5304_1_" gradientUnits="userSpaceOnUse" x1="-58.3206" y1="239.898" x2="-54.2768" y2="239.898" gradientTransform="matrix(1 0 0 -1 158.3 547.0961)">
				<stop  offset="0" style="stop-color:#4625C1"/>
				<stop  offset="1" style="stop-color:#33313D"/>
			</linearGradient>
			<circle id="circle5304" class="st25" cx="102" cy="307.2" r="2"/>
		</g>
		<g id="g5315">
			
				<linearGradient id="circle5313_1_" gradientUnits="userSpaceOnUse" x1="-58.3206" y1="248.998" x2="-54.2768" y2="248.998" gradientTransform="matrix(1 0 0 -1 158.3 547.0961)">
				<stop  offset="0" style="stop-color:#4625C1"/>
				<stop  offset="1" style="stop-color:#33313D"/>
			</linearGradient>
			<circle id="circle5313" class="st26" cx="102" cy="298.1" r="2"/>
		</g>
		<g id="g5324">
			
				<linearGradient id="circle5322_1_" gradientUnits="userSpaceOnUse" x1="-58.6455" y1="260.0981" x2="-54.6016" y2="260.0981" gradientTransform="matrix(1 0 0 -1 158.3 547.0961)">
				<stop  offset="0" style="stop-color:#4625C1"/>
				<stop  offset="1" style="stop-color:#33313D"/>
			</linearGradient>
			<circle id="circle5322" class="st27" cx="101.7" cy="287" r="2"/>
		</g>
	</g>
</g>
<path id="path5330" class="st23" d="M94.8,172.3c0,0-0.4,20.6,1.4,33"/>
<linearGradient id="path5337_1_" gradientUnits="userSpaceOnUse" x1="-17.0167" y1="279.4481" x2="167.7902" y2="279.4481" gradientTransform="matrix(1 0 0 -1 158.3 289.2961)">
	<stop  offset="0" style="stop-color:#FFFFFF"/>
	<stop  offset="1" style="stop-color:#CCCCCC"/>
</linearGradient>
<path id="path5337" class="st28" d="M143.5,18.1l180.4,1.5c1.2,0,2.2-1,2.2-2.2V2.3
	c0-1.2-1-2.2-2.2-2.2H144.4c-1.2,0-2.1,0.9-2.2,2.1l-0.9,13.6C141.2,17.1,142.2,18.1,143.5,18.1z"/>
<linearGradient id="path5344_1_" gradientUnits="userSpaceOnUse" x1="-158.2084" y1="83.498" x2="-120.3356" y2="83.498" gradientTransform="matrix(1 0 0 -1 158.3 289.2961)">
	<stop  offset="0.127" style="stop-color:#FF9B24"/>
	<stop  offset="1" style="stop-color:#FFCB3D"/>
</linearGradient>
<path id="path5344" class="st29" d="M36.6,223.3c1.5-0.7,2-3.1,0.6-4.2c-3.1-1.1-6.2,0.4-6.2,0.4
	l-0.5-0.9c0.1-0.1,3-1.5,6.2-0.7c1.4-1.3,0.9-4.4-1.6-4.4c-1.8,0-3.6,0.3-5.2,1.1c-2.6,1.3-3.6,3.9-3.3,6.6
	c-0.7,1.2-1.1,2.6-1.1,4.1c-0.9,0.7-1.6,1.6-2,2.7c-7.2-4.7-15-12.1-15.5-23.8c-0.2-4.8,1.8-13.4,5.4-21c0.1-0.2,0.2-0.4,0.3-0.6
	c0.1-0.3,0.3-0.6,0.5-0.9c0.7-1.3,1.4-2.6,2.2-3.9c-3-1.3-6.7-2.2-9.5-2.8c-0.2,0.3-0.3,0.7-0.4,1l0,0c-0.2,0.4-0.3,0.7-0.4,1.1
	c-0.1,0.1-0.1,0.3-0.2,0.4l0,0c-2.2,5.6-3.7,11.1-4.5,16.5c-0.6,0.8-1.1,1.9-1,2.7c0,0.4,0.3,1,0.6,1.6
	c-0.6,11.3,2.5,21.3,10.2,27.9c9,7.7,14.3,10.4,18.4,10.4l0,0c1,0,1.5-2.2,1.1-4.8c0.1,0,0.2,0,0.2,0c0.3,0,0.6,0.1,0.9,0.1
	c0.3,0.1,1.9,0.7,0.8,0.2c1.2,0.5,2.7,0.4,3.4-0.9c0.2-0.4,0.3-1,0.3-1.5c-2-2.3-5.1-2.7-5.1-2.7l0.1-1c0.1,0,2.4,0.3,4.4,1.9
	c0.6-0.3,1.1-0.8,1.3-1.5c0.2-0.6,0-1.4-0.3-2c-2.3-1.5-5.1-1.2-5.6-1.1c0.2-0.4,0.4-0.8,0.7-1.1C32.7,222.3,34.7,222.4,36.6,223.3
	L36.6,223.3z"/>
<polygon id="polygon5346" class="st30" points="20.2,231.2 18.2,234.5 15.9,232.9 18.3,229.6 "/>
<path id="path5348" class="st31" d="M23,230.1l0.1-0.1c0.9-1.4,0.5-3.2-0.8-4.1l0,0
	c-1.4-0.9-3.2-0.5-4.1,0.8l-0.1,0.1c-0.9,1.4-0.5,3.2,0.8,4.1l0,0C20.3,231.8,22.1,231.4,23,230.1z"/>
<path id="path5350" class="st30" d="M22.5,229.7l0.1-0.1c0.7-1.1,0.4-2.5-0.7-3.3l0,0
	c-1.1-0.7-2.5-0.4-3.3,0.7l-0.1,0.1c-0.7,1.1-0.4,2.5,0.7,3.3l0,0C20.3,231.1,21.8,230.8,22.5,229.7z"/>
<ellipse id="ellipse5352" transform="matrix(1.297030e-02 -0.9999 0.9999 1.297030e-02 -28.8121 139.6352)" class="st32" cx="56.3" cy="84.4" rx="1.3" ry="1.5"/>
<circle id="ellipse5354" class="st32" cx="75.1" cy="84.1" r="1.1"/>
<path id="path5356" class="st33" d="M61.3,99.6c-3.7,1.1-5.2-0.2-6.7-1.3
	c-0.5-0.4-1.3,0.1-1.1,0.7c0.1,0.3,0.1,0.5,0.2,0.8c1.7,1.6,6,2.3,7.3,1.6C61.2,100,61.3,99.6,61.3,99.6z"/>
<path id="path5358" class="st34" d="M66.6,83c0.1,4.5-4.3,9.1-9.5,9.2s-9.3-4.4-9.4-8.8
	c-0.1-4.5,4-8.1,9.2-8.3C62.1,74.9,66.5,78.5,66.6,83z"/>
<path id="path5360" class="st34" d="M87.3,82.6c0.1,4.5-4.3,9.1-9.5,9.2s-9.3-4.4-9.4-8.8
	s4-8.1,9.2-8.3C82.9,74.6,87.2,78.1,87.3,82.6z"/>
<path id="path5362" class="st34" d="M70.9,96.4c0,0,15.4-0.3,14.9-3s-18.6-6.9-18.6-6.9"/>
<path id="path5364" class="st34" d="M66.3,81.2c0,0,1.1-0.6,2.3,0.1"/>
<path id="path5366" class="st35" d="M56.9,77.6c0,0,5.1-0.7,7.1,4.2"/>
<path id="path5368" class="st35" d="M76.4,77.2c0,0,5.1-0.7,7.1,4.2"/>
<linearGradient id="path5375_1_" gradientUnits="userSpaceOnUse" x1="-119.6537" y1="220.4508" x2="-76.223" y2="220.4508" gradientTransform="matrix(1 0 0 -1 158.3 289.2961)">
	<stop  offset="0" style="stop-color:#4625C1"/>
	<stop  offset="1" style="stop-color:#33313D"/>
</linearGradient>
<path id="path5375" class="st36" d="M72.1,46.6c-17.7-5.7-33.8,0.1-29.6,12.2
	c-1.3,0.5-2.4,1.6-2.9,3.4c-2,7.3-0.2,25.1-0.2,25.1c3.4-1.4,5.4,5.2,5.4,5.2l2,0.8c0,0-4.6-16.4,2.2-19.9s3.4-13.1,3.4-13.1
	s10.1,9,26,1.5C78.5,61.7,89.9,52.3,72.1,46.6z"/>
<path id="path5377" class="st37" d="M79.3,58.1c0,0-14.2,7.4-26.8-0.8"/>
<path id="path5379" class="st34" d="M62.3,99.3c-3.7,1.1-6.3,0.1-7.7-1c-0.5-0.4-1.3,0.1-1.1,0.7
	c0.6,2.7,2.8,6.1,5.4,5.8"/>
<ellipse id="ellipse5381" transform="matrix(0.8843 -0.467 0.467 0.8843 -37.9492 29.4648)" class="st11" cx="40.5" cy="91.3" rx="4.1" ry="5.4"/>
<path id="path5383" class="st38" d="M38.2,88.4c0,0,4-0.4,4.3,4.9"/>
</svg>
