<?xml version="1.0" encoding="utf-8"?>
<!-- Generator: Adobe Illustrator 22.0.1, SVG Export Plug-In . SVG Version: 6.00 Build 0)  -->
<svg version="1.1" id="bg" xmlns="http://www.w3.org/2000/svg" xmlns:xlink="http://www.w3.org/1999/xlink" x="0px" y="0px"
	 viewBox="0 0 418 740" style="enable-background:new 0 0 418 740;" xml:space="preserve">
<style type="text/css">
	.st0{fill:#4625C1;}
	.st1{fill:none;stroke:#BFCCD3;stroke-width:3;stroke-miterlimit:10;}
	.st2{fill:#F1F2F2;stroke:#BFCCD3;stroke-width:2;stroke-miterlimit:10;}
	.st3{opacity:0.19;fill:#BFCCD3;stroke:#F1F2F2;stroke-width:2;stroke-miterlimit:10;}
	.st4{fill:url(#SVGID_1_);}
	.st5{fill:url(#SVGID_2_);}
	.st6{fill:url(#SVGID_3_);}
	.st7{fill:none;stroke:#BFCCD3;stroke-width:2;stroke-miterlimit:10;}
	.st8{fill:none;stroke:#53A9F4;stroke-width:0.5;stroke-miterlimit:10;}
	.st9{fill:url(#SVGID_4_);}
	.st10{clip-path:url(#SVGID_6_);}
	.st11{fill:none;stroke:#BFCCD3;stroke-miterlimit:10;}
	.st12{fill:#FF9B24;}
	.st13{fill:url(#SVGID_7_);}
	.st14{fill:url(#SVGID_8_);}
	.st15{fill:url(#SVGID_9_);}
	.st16{fill:url(#SVGID_10_);}
	.st17{fill:url(#SVGID_11_);}
	.st18{fill:#61AAF7;}
	.st19{fill:url(#SVGID_12_);}
	.st20{fill:url(#SVGID_13_);}
	.st21{fill:url(#SVGID_14_);}
	.st22{fill:url(#SVGID_15_);}
	.st23{fill:url(#SVGID_16_);}
	.st24{fill:none;stroke:#6535E4;stroke-width:0.5;stroke-miterlimit:10;}
	.st25{fill:url(#SVGID_17_);}
	.st26{fill:url(#SVGID_18_);}
	.st27{fill:url(#SVGID_19_);}
	.st28{fill:url(#SVGID_20_);}
	.st29{fill:url(#SVGID_21_);}
	.st30{fill:url(#SVGID_22_);}
	.st31{fill:#53A9F4;}
	.st32{fill:#D9DBE8;}
	.st33{fill:#3537AB;}
	.st34{fill:#FFFFFF;}
	.st35{fill:none;stroke:#3537AB;stroke-width:0.5;stroke-miterlimit:10;}
	.st36{fill:none;stroke:#F5FBFF;stroke-miterlimit:10;}
	.st37{fill:url(#SVGID_23_);}
	.st38{fill:none;stroke:#D9DBE8;stroke-width:0.5;stroke-miterlimit:10;}
	.st39{fill:none;stroke:#CE7C24;stroke-width:0.5;stroke-miterlimit:10;}
</style>
<ellipse class="st0" cx="216.7" cy="524.7" rx="162.4" ry="22.3"/>
<ellipse class="st0" cx="216.7" cy="524.7" rx="180" ry="24.7"/>
<line class="st1" x1="247" y1="358.4" x2="199.5" y2="527.7"/>
<line class="st1" x1="307.9" y1="361.9" x2="350.9" y2="528"/>
<line class="st1" x1="283.3" y1="361.9" x2="279.5" y2="517.1"/>
<polygon class="st2" points="200.7,133.1 372.3,133.1 371.1,411.4 186.5,408.4 "/>
<path class="st3" d="M372.2,154.5l0.1-21.4H200.7l-1,19.6C241.7,152.3,308.4,153.6,372.2,154.5z"/>
<g>
	<g>
		<linearGradient id="SVGID_1_" gradientUnits="userSpaceOnUse" x1="215.1792" y1="177.26" x2="215.1792" y2="160.0755">
			<stop  offset="0" style="stop-color:#B63A00"/>
			<stop  offset="1" style="stop-color:#E85419"/>
		</linearGradient>
		<path class="st4" d="M220.9,176.3c0.2,0.2,0.2,0.3,0.2,0.4c0,0.1-0.1,0.3-0.2,0.4c-0.1,0.1-0.2,0.1-0.4,0.1l-1.5-0.1
			c-0.3,0-0.6-0.1-0.8-0.4l-6.5-6.7l-0.2,6.2c0,0.2-0.1,0.3-0.2,0.4c-0.1,0.1-0.3,0.2-0.5,0.2l-1,0c-0.2,0-0.3-0.1-0.4-0.2
			c-0.1-0.1-0.2-0.3-0.2-0.5l0.6-15.5c0-0.2,0.1-0.3,0.2-0.4s0.3-0.2,0.5-0.2l1,0c0.2,0,0.3,0.1,0.4,0.2s0.2,0.3,0.2,0.5l-0.2,5.6
			l6.6-5.6c0.2-0.2,0.5-0.3,0.9-0.3l1.4,0.1c0.1,0,0.3,0.1,0.4,0.2c0.1,0.1,0.1,0.2,0.1,0.4c0,0.1-0.1,0.3-0.3,0.4l-8,6.8
			L220.9,176.3z"/>
		<linearGradient id="SVGID_2_" gradientUnits="userSpaceOnUse" x1="229.968" y1="177.4279" x2="229.968" y2="160.6027">
			<stop  offset="0" style="stop-color:#B63A00"/>
			<stop  offset="1" style="stop-color:#E85419"/>
		</linearGradient>
		<path class="st5" d="M234.9,162.3c1.1,0.9,1.6,2.2,1.5,3.8c0,1.1-0.3,2.1-0.9,2.8c-0.5,0.8-1.3,1.3-2.2,1.7s-1.9,0.5-2.9,0.5
			l-4.4-0.2l-0.2,5.9c0,0.2-0.1,0.3-0.2,0.4c-0.1,0.1-0.3,0.2-0.5,0.2l-1,0c-0.2,0-0.3-0.1-0.4-0.2c-0.1-0.1-0.2-0.3-0.2-0.5
			l0.6-15.5c0-0.2,0.1-0.3,0.2-0.4c0.1-0.1,0.3-0.2,0.5-0.2l6,0.2C232.5,160.9,233.8,161.4,234.9,162.3z M230.4,168.9
			c1.2,0,2.1-0.2,2.7-0.7c0.6-0.5,1-1.2,1-2.2c0.1-2-1.1-3-3.5-3.1l-4.3-0.2l-0.2,5.9L230.4,168.9z"/>
		<linearGradient id="SVGID_3_" gradientUnits="userSpaceOnUse" x1="240.3002" y1="177.9904" x2="240.3002" y2="161.1651">
			<stop  offset="0" style="stop-color:#B63A00"/>
			<stop  offset="1" style="stop-color:#E85419"/>
		</linearGradient>
		<path class="st6" d="M239.1,177.7c-0.1-0.1-0.2-0.3-0.2-0.5l0.6-15.5c0-0.2,0.1-0.3,0.2-0.4c0.1-0.1,0.3-0.2,0.5-0.2l1,0
			c0.2,0,0.3,0.1,0.4,0.2s0.2,0.3,0.2,0.5l-0.6,15.5c0,0.2-0.1,0.3-0.2,0.4c-0.1,0.1-0.3,0.2-0.5,0.2l-1,0
			C239.3,177.9,239.2,177.9,239.1,177.7z"/>
	</g>
</g>
<polyline class="st7" points="209.7,193.5 199.5,395.2 359.3,396.4 "/>
<path class="st8" d="M167.7,443.1c0,0,3.3,1.4,7.3,0.2"/>
<linearGradient id="SVGID_4_" gradientUnits="userSpaceOnUse" x1="148.0234" y1="314.8277" x2="220.6147" y2="314.8277">
	<stop  offset="0.127" style="stop-color:#FF9B24"/>
	<stop  offset="1" style="stop-color:#FFCB3D"/>
</linearGradient>
<path class="st9" d="M216.5,283.3c1.7-2.7,4.1-5.8,4.1-5.8c0-1-1.8-1.2-2.5-0.6c-8,6.6-12.5,7.8-12.5,7.8c-2.5,0.7-6.2,1.8-6.2,1.8
	c0,0,0,0-0.1,0c3.4-2.4,9.1-7.6,6.8-8.5c-2.5-0.9-5.2,1.9-12.6,7.8c-6.3,5,2,14.1,2,14.1s-24.9,33.6-28,35.7
	c-5.1-2.8-10.6-31-10.6-31s-10.4-11.7-8.7,13.1c1.7,24.8,13.5,34.5,13.5,34.5c8.3,6.7,35.2-41,39.4-48.6c3.3-0.1,7.5-4,10.2-8.5
	c0.1,0,0.3,0.1,0.5,0.1c1.4,0,2.5-1.2,2.5-2.8c0-0.4-0.1-0.7-0.2-1c0.1,0,0.1,0,0.2,0c1.4,0,2.5-1.2,2.5-2.8c0-0.4-0.1-0.7-0.2-1
	c0.6-0.5,1-1.3,1-2.2C217.6,284.7,217.2,283.8,216.5,283.3z M198.9,286.9C198.9,286.9,198.9,286.9,198.9,286.9L198.9,286.9
	C198.9,286.9,198.9,286.9,198.9,286.9z"/>
<g>
	<defs>
		<polygon id="SVGID_5_" points="210.6,381.4 237.1,324 261.3,316.7 274.1,281 309.3,262.2 319.5,232.8 350.9,188 352.3,386.1 		"/>
	</defs>
	<clipPath id="SVGID_6_">
		<use xlink:href="#SVGID_5_"  style="overflow:visible;"/>
	</clipPath>
	<g class="st10">
		<line class="st11" x1="225.9" y1="311" x2="220.6" y2="415.6"/>
		<line class="st11" x1="234.6" y1="300.4" x2="229.5" y2="416"/>
		<line class="st11" x1="243.4" y1="289.8" x2="238.4" y2="416.5"/>
		<line class="st11" x1="252.1" y1="279.2" x2="247.3" y2="416.9"/>
		<line class="st11" x1="260.8" y1="268.6" x2="256.2" y2="417.3"/>
		<line class="st11" x1="269.5" y1="258" x2="265.1" y2="417.7"/>
		<line class="st11" x1="278.2" y1="247.4" x2="274" y2="418.1"/>
		<line class="st11" x1="287" y1="236.8" x2="283" y2="418.5"/>
		<line class="st11" x1="295.7" y1="226.2" x2="291.9" y2="418.9"/>
		<line class="st11" x1="304.4" y1="215.6" x2="300.8" y2="419.3"/>
		<line class="st11" x1="313.1" y1="205" x2="309.7" y2="419.7"/>
		<line class="st11" x1="321.8" y1="194.4" x2="318.6" y2="420.2"/>
		<line class="st11" x1="330.5" y1="183.8" x2="327.5" y2="420.6"/>
		<line class="st11" x1="339.3" y1="173.2" x2="336.4" y2="421"/>
		<line class="st11" x1="348" y1="162.6" x2="345.3" y2="421.4"/>
	</g>
</g>
<g>
	<g>
		<path class="st12" d="M214.1,381.2c7.8-17,15.7-33.9,23.5-50.9c1-2.2,2.1-4.3,3-6.5c-0.6,1.6-1.6,0.5-0.3,0.6c0.6,0,1.4-0.4,2-0.6
			c2.8-0.8,5.6-1.7,8.4-2.5c3.9-1.2,9.3-1.8,12.9-3.9c2-1.1,2.4-4,3.1-6.1c2-5.5,3.9-10.9,5.9-16.4c1.6-4.3,3.8-8.8,4.8-13.3
			c0.5-2,0.5-0.5-0.1-0.3c1.4-0.5,2.7-1.4,4-2.1c5-2.7,10.1-5.4,15.1-8.1c4.4-2.4,8.8-4.7,13.2-7.1c2.1-1.1,3-1.5,3.8-3.7
			c3.4-9.5,5.7-19.5,8.6-29.2c1-3.3,0.8-3.1,2.7-5.5c3.4-4.4,6.7-8.8,10.1-13.2c6-7.8,11.9-15.6,17.9-23.4c1.5-1.9-1.8-3.8-3.2-1.9
			c-5.1,6.6-10.1,13.2-15.2,19.9c-3.4,4.4-6.8,8.9-10.1,13.3c-1.5,2-3.6,4-4.6,6.2c-1.3,2.8-1.8,6.3-2.7,9.2
			c-1.6,5.6-3.3,11.2-4.9,16.8c-0.6,2-1.2,4-1.8,6c-0.2,0.6-0.4,1.1-0.5,1.7c-0.2,0.9,1.4-1,0.5-0.7c-3.5,1.3-6.8,3.6-10,5.4
			c-5.2,2.8-10.5,5.6-15.7,8.4c-2.7,1.5-6.8,2.8-9.1,4.9c-1.7,1.6-2.2,4.8-3,6.9c-2,5.4-3.9,10.9-5.9,16.3c-0.9,2.5-1.8,5-2.7,7.5
			c-0.5,1.5-1.9,3.8-1.9,5.3c0,0.1-0.3,0.7-0.3,0.7c-1.1-1.6,2.7-1.2,0.2-0.9c-2.2,0.2-4.6,1.4-6.7,2c-5,1.5-10.2,2.8-15.1,4.6
			c-2,0.7-2.4,1.4-3.2,3.3c-8.5,18.4-17,36.9-25.6,55.3C209.9,381.4,213.1,383.3,214.1,381.2L214.1,381.2z"/>
	</g>
</g>
<linearGradient id="SVGID_7_" gradientUnits="userSpaceOnUse" x1="240.1059" y1="329.0551" x2="240.1059" y2="317.3735">
	<stop  offset="0" style="stop-color:#B63A00"/>
	<stop  offset="1" style="stop-color:#E85419"/>
</linearGradient>
<circle class="st13" cx="240.1" cy="323.2" r="5.8"/>
<linearGradient id="SVGID_8_" gradientUnits="userSpaceOnUse" x1="275.8677" y1="285.6631" x2="275.8677" y2="273.9815">
	<stop  offset="0" style="stop-color:#B63A00"/>
	<stop  offset="1" style="stop-color:#E85419"/>
</linearGradient>
<circle class="st14" cx="275.9" cy="279.8" r="5.8"/>
<linearGradient id="SVGID_9_" gradientUnits="userSpaceOnUse" x1="311.5731" y1="266.5756" x2="311.5731" y2="254.8941">
	<stop  offset="0" style="stop-color:#B63A00"/>
	<stop  offset="1" style="stop-color:#E85419"/>
</linearGradient>
<circle class="st15" cx="311.6" cy="260.7" r="5.8"/>
<linearGradient id="SVGID_10_" gradientUnits="userSpaceOnUse" x1="321.0881" y1="232.8051" x2="321.0881" y2="221.1235">
	<stop  offset="0" style="stop-color:#B63A00"/>
	<stop  offset="1" style="stop-color:#E85419"/>
</linearGradient>
<circle class="st16" cx="321.1" cy="227" r="5.8"/>
<polyline class="st7" points="202.5,204.6 209.7,193.5 215.1,204.6 "/>
<polyline class="st7" points="354.4,390.2 360.4,396.4 352.3,401.4 "/>
<linearGradient id="SVGID_11_" gradientUnits="userSpaceOnUse" x1="55.9121" y1="330.1992" x2="161.2065" y2="330.1992">
	<stop  offset="0" style="stop-color:#467EF7"/>
	<stop  offset="1" style="stop-color:#61CBF7"/>
</linearGradient>
<path class="st17" d="M150.4,353.7c-0.3-4.1-1-16.2-1.7-27.5c0.1-2.2,0.1-4.4,0.1-6.7c4.4-1.9,7.3-2.7,12.4-6.5
	c-2.6-11.7-8.4-30.2-16.5-37.6c-2.2-2-3.7-3.2-4.9-3.9c-3.9-2.5-9.4-3.7-11.2-4c-8.9-1.6-19-1.5-30.5,1.3c-3.6,0.7-7.4,1.8-11.4,3.5
	c-12.7,5.5-26.4,21.2-30.8,30.9c6.5,2.3,12.8,5,17.7,9.8c2.8-4.8,6.6-9,10.5-12.6l-2,56.3c0,0,0.3,16.6,1.8,24.3c0.8,0,1.7,0,2.6,0
	c3.2,11.7,10.6,17.7,25.7,7.6c7.4-4.9,15.4-8,22.1-10.5c6.7-1,12.7-2.2,17.6-3.8C151.3,369.6,150.6,356.5,150.4,353.7z"/>
<path class="st18" d="M150.4,356.2c-0.1,0-0.2,0-0.3,0c0,0,0,0,0,0C150.2,356.1,150.3,356.1,150.4,356.2z"/>
<linearGradient id="SVGID_12_" gradientUnits="userSpaceOnUse" x1="129.8053" y1="531.9797" x2="129.8053" y2="374.4519">
	<stop  offset="0" style="stop-color:#30259A"/>
	<stop  offset="1" style="stop-color:#33313D"/>
</linearGradient>
<path class="st19" d="M151.8,374.5c-21.9,5.8-44.9,4.6-67.6,6.6c1.1,19.2,5.4,31,10.6,52.1c12.8,51.5,18.2,90.6,18.2,90.6l7,1.5
	l5.2-116.5c11.6,18.6,27.8,37.9,27.8,37.9c0.1,0.1-1.6,26.8-0.7,43.9c2.8,54.1,4.9,38.4,5.2,40.7l6.7,0.7c0,0,11.1-89,11.2-89.1
	C174.3,433.6,165,410.5,151.8,374.5z"/>
<linearGradient id="SVGID_13_" gradientUnits="userSpaceOnUse" x1="92.9281" y1="527.6693" x2="121.5929" y2="527.6693">
	<stop  offset="0" style="stop-color:#467EF7"/>
	<stop  offset="1" style="stop-color:#61CBF7"/>
</linearGradient>
<path class="st20" d="M93.4,533.4c-3-1.1,10.6-8.3,16.7-10c3.1-0.9,6.3-1.2,9.6-1.4c1.1,3,2,9.3,2,9.3S94.6,533.8,93.4,533.4z"/>
<linearGradient id="SVGID_14_" gradientUnits="userSpaceOnUse" x1="154.4424" y1="527.9903" x2="186.4046" y2="527.9903">
	<stop  offset="0" style="stop-color:#467EF7"/>
	<stop  offset="1" style="stop-color:#61CBF7"/>
</linearGradient>
<path class="st21" d="M185.2,534.9c4.6,0.4-5.1-5.9-10.5-8.5c-13.4-6.4-16-5.2-20.3-5.2l0.2,12.2
	C154.7,533.3,182.9,534.7,185.2,534.9z"/>
<path class="st8" d="M103.5,465.2c0,0,1.7,3.8,9.2,1.1"/>
<linearGradient id="SVGID_15_" gradientUnits="userSpaceOnUse" x1="93.6583" y1="229.8003" x2="139.1822" y2="229.8003">
	<stop  offset="0.127" style="stop-color:#FF9B24"/>
	<stop  offset="1" style="stop-color:#FFCB3D"/>
</linearGradient>
<path class="st22" d="M139.2,222.1c0-0.4-1.5-1.2-3.7-2.2c0.5-5.4,0.3-11.1-1-17c-6-28.1-37.4-19.1-40-2c-2.5,17.1,0,30.1,15,53.1
	l1.2,18.3c0,0,7.2,6.1,13.1-1.2l-1.1-15.8c0,0,9.6-13,12.3-31.1C137.2,223.9,139.1,223.2,139.2,222.1z"/>
<path class="st12" d="M145.8,344.6c-0.2-0.2-0.3-0.2-0.3-0.2C145.6,344.5,145.7,344.6,145.8,344.6z"/>
<path class="st8" d="M100,385.7c0,0-2.3,8.9-14.5,6.4"/>
<path class="st8" d="M145.8,379.2c0,0,2,6.5,11.1,6.9"/>
<path class="st8" d="M123.8,400l6.1-1.2c0,0,0.9-8.2,0.7-13.6"/>
<linearGradient id="SVGID_16_" gradientUnits="userSpaceOnUse" x1="55.912" y1="308.9655" x2="74.1517" y2="308.9655">
	<stop  offset="0" style="stop-color:#33313D"/>
	<stop  offset="1" style="stop-color:#4625C1"/>
</linearGradient>
<path class="st23" d="M55.9,303.3c0,0,13.4,16.4,17.7,9.8C77.9,306.4,55.9,303.3,55.9,303.3z"/>
<path class="st24" d="M80.9,288.6c0,0,0.9,6.5,3.1,8.9"/>
<path class="st24" d="M83.1,299.1c0,0-2,0.7-5.5-2.2"/>
<g>
	<g>
		<g>
			<linearGradient id="SVGID_17_" gradientUnits="userSpaceOnUse" x1="110.1441" y1="275.4742" x2="123.49" y2="275.4742">
				<stop  offset="0" style="stop-color:#4625C1"/>
				<stop  offset="1" style="stop-color:#33313D"/>
			</linearGradient>
			<path class="st25" d="M123.5,271.1c-2.2,1.3-7.4,3.6-12.4,0.2l-1,0l1.9,8.1l4.7-3.4l5.4,3.7L123.5,271.1z"/>
		</g>
		<g>
			<linearGradient id="SVGID_18_" gradientUnits="userSpaceOnUse" x1="116.4892" y1="307.1176" x2="120.533" y2="307.1176">
				<stop  offset="0" style="stop-color:#4625C1"/>
				<stop  offset="1" style="stop-color:#33313D"/>
			</linearGradient>
			<circle class="st26" cx="118.5" cy="307.1" r="2"/>
		</g>
		<g>
			<linearGradient id="SVGID_19_" gradientUnits="userSpaceOnUse" x1="116.4892" y1="298.0336" x2="120.533" y2="298.0336">
				<stop  offset="0" style="stop-color:#4625C1"/>
				<stop  offset="1" style="stop-color:#33313D"/>
			</linearGradient>
			<circle class="st27" cx="118.5" cy="298" r="2"/>
		</g>
		<g>
			<linearGradient id="SVGID_20_" gradientUnits="userSpaceOnUse" x1="116.1643" y1="286.906" x2="120.2082" y2="286.906">
				<stop  offset="0" style="stop-color:#4625C1"/>
				<stop  offset="1" style="stop-color:#33313D"/>
			</linearGradient>
			<circle class="st28" cx="118.2" cy="286.9" r="2"/>
		</g>
	</g>
</g>
<path class="st24" d="M148,301.1c0,0-0.4,20.6,1.4,33"/>
<linearGradient id="SVGID_21_" gradientUnits="userSpaceOnUse" x1="194.486" y1="138.6561" x2="379.2324" y2="138.6561">
	<stop  offset="0" style="stop-color:#FFFFFF"/>
	<stop  offset="1" style="stop-color:#CCCCCC"/>
</linearGradient>
<path class="st29" d="M196.7,146.9l180.4,1.5c1.2,0,2.2-1,2.2-2.2v-15.1c0-1.2-1-2.2-2.2-2.2H197.6c-1.2,0-2.1,0.9-2.2,2.1
	l-0.9,13.6C194.4,145.9,195.4,146.9,196.7,146.9z"/>
<linearGradient id="SVGID_22_" gradientUnits="userSpaceOnUse" x1="53.3014" y1="334.7494" x2="91.1742" y2="334.7494">
	<stop  offset="0.127" style="stop-color:#FF9B24"/>
	<stop  offset="1" style="stop-color:#FFCB3D"/>
</linearGradient>
<path class="st30" d="M89.8,352.1c1.5-0.7,2-3.1,0.6-4.2c-3.1-1.1-6.2,0.4-6.2,0.4l-0.5-0.9c0.1-0.1,3-1.5,6.2-0.7
	c1.4-1.3,0.9-4.4-1.6-4.4c-1.8,0-3.6,0.3-5.2,1.1c-2.6,1.3-3.6,3.9-3.3,6.6c-0.7,1.2-1.1,2.6-1.1,4.1c-0.9,0.7-1.6,1.6-2,2.7
	c-7.2-4.7-15-12.1-15.5-23.8c-0.2-4.8,1.8-13.4,5.4-21c0.1-0.2,0.2-0.4,0.3-0.6c0.1-0.3,0.3-0.6,0.5-0.9c0.7-1.3,1.4-2.6,2.2-3.9
	c-3-1.3-6.7-2.2-9.5-2.8c-0.2,0.3-0.3,0.7-0.4,1c0,0,0,0,0,0c-0.2,0.4-0.3,0.7-0.4,1.1c-0.1,0.1-0.1,0.3-0.2,0.4c0,0,0,0,0,0
	c-2.2,5.6-3.7,11.1-4.5,16.5c-0.6,0.8-1.1,1.9-1,2.7c0,0.4,0.3,1,0.6,1.6c-0.6,11.3,2.5,21.3,10.2,27.9c9,7.7,14.3,10.4,18.4,10.4
	c0,0,0,0,0,0c1,0,1.5-2.2,1.1-4.8c0.1,0,0.2,0,0.2,0c0.3,0,0.6,0.1,0.9,0.1c0.3,0.1,1.9,0.7,0.8,0.2c1.2,0.5,2.7,0.4,3.4-0.9
	c0.2-0.4,0.3-1,0.3-1.5c-2-2.3-5.1-2.7-5.1-2.7l0.1-1c0.1,0,2.4,0.3,4.4,1.9c0.6-0.3,1.1-0.8,1.3-1.5c0.2-0.6,0-1.4-0.3-2
	c-2.3-1.5-5.1-1.2-5.6-1.1c0.2-0.4,0.4-0.8,0.7-1.1C85.9,351.1,87.9,351.2,89.8,352.1z"/>
<polygon class="st31" points="73.4,360 71.4,363.3 69.1,361.7 71.5,358.4 "/>
<path class="st32" d="M76.2,358.9l0.1-0.1c0.9-1.4,0.5-3.2-0.8-4.1h0c-1.4-0.9-3.2-0.5-4.1,0.8l-0.1,0.1c-0.9,1.4-0.5,3.2,0.8,4.1h0
	C73.5,360.6,75.3,360.2,76.2,358.9z"/>
<path class="st31" d="M75.7,358.5l0.1-0.1c0.7-1.1,0.4-2.5-0.7-3.3l0,0c-1.1-0.7-2.5-0.4-3.3,0.7l-0.1,0.1c-0.7,1.1-0.4,2.5,0.7,3.3
	l0,0C73.5,359.9,75,359.6,75.7,358.5z"/>
<ellipse transform="matrix(1.297009e-02 -0.9999 0.9999 1.297009e-02 -105.0673 320.0375)" class="st33" cx="109.6" cy="213.2" rx="1.3" ry="1.5"/>
<ellipse transform="matrix(0.9653 -0.2611 0.2611 0.9653 -51.1463 40.8997)" class="st33" cx="128.3" cy="212.9" rx="1.1" ry="1.1"/>
<path class="st34" d="M114.5,228.4c-3.7,1.1-5.2-0.2-6.7-1.3c-0.5-0.4-1.3,0.1-1.1,0.7c0.1,0.3,0.1,0.5,0.2,0.8
	c1.7,1.6,6,2.3,7.3,1.6C114.4,228.8,114.5,228.4,114.5,228.4z"/>
<path class="st35" d="M119.8,211.8c0.1,4.5-4.3,9.1-9.5,9.2c-5.2,0.1-9.3-4.4-9.4-8.8c-0.1-4.5,4-8.1,9.2-8.3
	S119.7,207.3,119.8,211.8z"/>
<path class="st35" d="M140.5,211.4c0.1,4.5-4.3,9.1-9.5,9.2c-5.2,0.1-9.3-4.4-9.4-8.8s4-8.1,9.2-8.3
	C136.1,203.4,140.4,206.9,140.5,211.4z"/>
<path class="st35" d="M124.1,225.2c0,0,15.4-0.3,14.9-3s-18.6-6.9-18.6-6.9"/>
<path class="st35" d="M119.5,210c0,0,1.1-0.6,2.3,0.1"/>
<path class="st36" d="M110.1,206.4c0,0,5.1-0.7,7.1,4.2"/>
<path class="st36" d="M129.6,206c0,0,5.1-0.7,7.1,4.2"/>
<linearGradient id="SVGID_23_" gradientUnits="userSpaceOnUse" x1="91.8764" y1="197.6966" x2="135.3182" y2="197.6966">
	<stop  offset="0" style="stop-color:#4625C1"/>
	<stop  offset="1" style="stop-color:#33313D"/>
</linearGradient>
<path class="st37" d="M125.3,175.4c-17.7-5.7-33.8,0.1-29.6,12.2c-1.3,0.5-2.4,1.6-2.9,3.4c-2,7.3-0.2,25.1-0.2,25.1
	c3.4-1.4,5.4,5.2,5.4,5.2l2,0.8c0,0-4.6-16.4,2.2-19.9c6.8-3.5,3.4-13.1,3.4-13.1s10.1,9,26,1.5
	C131.7,190.5,143.1,181.1,125.3,175.4z"/>
<path class="st38" d="M132.5,186.9c0,0-14.2,7.4-26.8-0.8"/>
<path class="st35" d="M115.5,228.1c-3.7,1.1-6.3,0.1-7.7-1c-0.5-0.4-1.3,0.1-1.1,0.7c0.6,2.7,2.8,6.1,5.4,5.8"/>
<ellipse transform="matrix(0.8843 -0.467 0.467 0.8843 -91.9654 69.2201)" class="st12" cx="93.7" cy="220.1" rx="4.1" ry="5.4"/>
<path class="st39" d="M91.4,217.2c0,0,4-0.4,4.3,4.9"/>
</svg>
