<?xml version="1.0" encoding="UTF-8" standalone="no"?>
<!-- Generator: Adobe Illustrator 22.0.1, SVG Export Plug-In . SVG Version: 6.00 Build 0)  -->

<svg
   xmlns:dc="http://purl.org/dc/elements/1.1/"
   xmlns:cc="http://creativecommons.org/ns#"
   xmlns:rdf="http://www.w3.org/1999/02/22-rdf-syntax-ns#"
   xmlns:svg="http://www.w3.org/2000/svg"
   xmlns="http://www.w3.org/2000/svg"
   xmlns:xlink="http://www.w3.org/1999/xlink"
   xmlns:sodipodi="http://sodipodi.sourceforge.net/DTD/sodipodi-0.dtd"
   xmlns:inkscape="http://www.inkscape.org/namespaces/inkscape"
   version="1.1"
   id="bg"
   x="0px"
   y="0px"
   viewBox="0 0 360 420.50003"
   xml:space="preserve"
   sodipodi:docname="man.svg"
   width="100%"
   inkscape:version="0.92.3 (2405546, 2018-03-11)"><metadata
   id="metadata5390"><rdf:RDF><cc:Work
       rdf:about=""><dc:format>image/svg+xml</dc:format><dc:type
         rdf:resource="http://purl.org/dc/dcmitype/StillImage" /><dc:title></dc:title></cc:Work></rdf:RDF></metadata><defs
   id="defs5388" /><sodipodi:namedview
   pagecolor="#ffffff"
   bordercolor="#666666"
   borderopacity="1"
   objecttolerance="10"
   gridtolerance="10"
   guidetolerance="10"
   inkscape:pageopacity="0"
   inkscape:pageshadow="2"
   inkscape:window-width="1366"
   inkscape:window-height="705"
   id="namedview5386"
   showgrid="false"
   inkscape:zoom="0.72432432"
   inkscape:cx="172.3"
   inkscape:cy="289.84779"
   inkscape:window-x="-8"
   inkscape:window-y="-8"
   inkscape:window-maximized="1"
   inkscape:current-layer="bg" />
<style
   type="text/css"
   id="style5102">
	.st0{fill:#4625C1;}
	.st1{fill:none;stroke:#BFCCD3;stroke-width:3;stroke-miterlimit:10;}
	.st2{fill:#F1F2F2;stroke:#BFCCD3;stroke-width:2;stroke-miterlimit:10;}
	.st3{opacity:0.19;fill:#BFCCD3;stroke:#F1F2F2;stroke-width:2;stroke-miterlimit:10;}
	.st4{fill:url(#SVGID_1_);}
	.st5{fill:url(#SVGID_2_);}
	.st6{fill:url(#SVGID_3_);}
	.st7{fill:none;stroke:#BFCCD3;stroke-width:2;stroke-miterlimit:10;}
	.st8{fill:none;stroke:#53A9F4;stroke-width:0.5;stroke-miterlimit:10;}
	.st9{fill:url(#SVGID_4_);}
	.st10{clip-path:url(#SVGID_6_);}
	.st11{fill:none;stroke:#BFCCD3;stroke-miterlimit:10;}
	.st12{fill:#FF9B24;}
	.st13{fill:url(#SVGID_7_);}
	.st14{fill:url(#SVGID_8_);}
	.st15{fill:url(#SVGID_9_);}
	.st16{fill:url(#SVGID_10_);}
	.st17{fill:url(#SVGID_11_);}
	.st18{fill:#61AAF7;}
	.st19{fill:url(#SVGID_12_);}
	.st20{fill:url(#SVGID_13_);}
	.st21{fill:url(#SVGID_14_);}
	.st22{fill:url(#SVGID_15_);}
	.st23{fill:url(#SVGID_16_);}
	.st24{fill:none;stroke:#6535E4;stroke-width:0.5;stroke-miterlimit:10;}
	.st25{fill:url(#SVGID_17_);}
	.st26{fill:url(#SVGID_18_);}
	.st27{fill:url(#SVGID_19_);}
	.st28{fill:url(#SVGID_20_);}
	.st29{fill:url(#SVGID_21_);}
	.st30{fill:url(#SVGID_22_);}
	.st31{fill:#53A9F4;}
	.st32{fill:#D9DBE8;}
	.st33{fill:#3537AB;}
	.st34{fill:#FFFFFF;}
	.st35{fill:none;stroke:#3537AB;stroke-width:0.5;stroke-miterlimit:10;}
	.st36{fill:none;stroke:#F5FBFF;stroke-miterlimit:10;}
	.st37{fill:url(#SVGID_23_);}
	.st38{fill:none;stroke:#D9DBE8;stroke-width:0.5;stroke-miterlimit:10;}
	.st39{fill:none;stroke:#CE7C24;stroke-width:0.5;stroke-miterlimit:10;}
</style>
<ellipse
   class="st0"
   cx="180"
   cy="395.80002"
   rx="162.39999"
   ry="22.299999"
   id="ellipse5104"
   style="fill:#4625c1" />
<ellipse
   class="st0"
   cx="180"
   cy="395.80002"
   rx="180"
   ry="24.700001"
   id="ellipse5106"
   style="fill:#4625c1" />
<line
   class="st1"
   x1="210.3"
   y1="229.5"
   x2="162.8"
   y2="398.80002"
   id="line5108"
   style="fill:none;stroke:#bfccd3;stroke-width:3;stroke-miterlimit:10" />
<line
   class="st1"
   x1="271.20001"
   y1="233"
   x2="314.20001"
   y2="399.10001"
   id="line5110"
   style="fill:none;stroke:#bfccd3;stroke-width:3;stroke-miterlimit:10" />
<line
   class="st1"
   x1="246.59999"
   y1="233"
   x2="242.8"
   y2="388.19998"
   id="line5112"
   style="fill:none;stroke:#bfccd3;stroke-width:3;stroke-miterlimit:10" />
<polygon
   class="st2"
   points="200.7,133.1 372.3,133.1 371.1,411.4 186.5,408.4 "
   id="polygon5114"
   style="fill:#f1f2f2;stroke:#bfccd3;stroke-width:2;stroke-miterlimit:10"
   transform="translate(-36.700002,-128.9)" />
<path
   class="st3"
   d="M 335.5,25.6 335.6,4.2 H 164 l -1,19.6 c 42,-0.4 108.7,0.9 172.5,1.8 z"
   id="path5116"
   inkscape:connector-curvature="0"
   style="opacity:0.18999999;fill:#bfccd3;stroke:#f1f2f2;stroke-width:2;stroke-miterlimit:10" />
<g
   id="g5141"
   transform="translate(-36.700002,-128.9)">
	<g
   id="g5139">
		<linearGradient
   id="SVGID_1_"
   gradientUnits="userSpaceOnUse"
   x1="215.1792"
   y1="177.25999"
   x2="215.1792"
   y2="160.0755">
			<stop
   offset="0"
   style="stop-color:#B63A00"
   id="stop5118" />
			<stop
   offset="1"
   style="stop-color:#E85419"
   id="stop5120" />
		</linearGradient>
		<path
   class="st4"
   d="m 220.9,176.3 c 0.2,0.2 0.2,0.3 0.2,0.4 0,0.1 -0.1,0.3 -0.2,0.4 -0.1,0.1 -0.2,0.1 -0.4,0.1 l -1.5,-0.1 c -0.3,0 -0.6,-0.1 -0.8,-0.4 l -6.5,-6.7 -0.2,6.2 c 0,0.2 -0.1,0.3 -0.2,0.4 -0.1,0.1 -0.3,0.2 -0.5,0.2 h -1 c -0.2,0 -0.3,-0.1 -0.4,-0.2 -0.1,-0.1 -0.2,-0.3 -0.2,-0.5 l 0.6,-15.5 c 0,-0.2 0.1,-0.3 0.2,-0.4 0.1,-0.1 0.3,-0.2 0.5,-0.2 h 1 c 0.2,0 0.3,0.1 0.4,0.2 0.1,0.1 0.2,0.3 0.2,0.5 l -0.2,5.6 6.6,-5.6 c 0.2,-0.2 0.5,-0.3 0.9,-0.3 l 1.4,0.1 c 0.1,0 0.3,0.1 0.4,0.2 0.1,0.1 0.1,0.2 0.1,0.4 0,0.1 -0.1,0.3 -0.3,0.4 l -8,6.8 z"
   id="path5123"
   inkscape:connector-curvature="0"
   style="fill:url(#SVGID_1_)" />
		<linearGradient
   id="SVGID_2_"
   gradientUnits="userSpaceOnUse"
   x1="229.968"
   y1="177.4279"
   x2="229.968"
   y2="160.60271">
			<stop
   offset="0"
   style="stop-color:#B63A00"
   id="stop5125" />
			<stop
   offset="1"
   style="stop-color:#E85419"
   id="stop5127" />
		</linearGradient>
		<path
   class="st5"
   d="m 234.9,162.3 c 1.1,0.9 1.6,2.2 1.5,3.8 0,1.1 -0.3,2.1 -0.9,2.8 -0.5,0.8 -1.3,1.3 -2.2,1.7 -0.9,0.4 -1.9,0.5 -2.9,0.5 l -4.4,-0.2 -0.2,5.9 c 0,0.2 -0.1,0.3 -0.2,0.4 -0.1,0.1 -0.3,0.2 -0.5,0.2 h -1 c -0.2,0 -0.3,-0.1 -0.4,-0.2 -0.1,-0.1 -0.2,-0.3 -0.2,-0.5 l 0.6,-15.5 c 0,-0.2 0.1,-0.3 0.2,-0.4 0.1,-0.1 0.3,-0.2 0.5,-0.2 l 6,0.2 c 1.7,0.1 3,0.6 4.1,1.5 z m -4.5,6.6 c 1.2,0 2.1,-0.2 2.7,-0.7 0.6,-0.5 1,-1.2 1,-2.2 0.1,-2 -1.1,-3 -3.5,-3.1 l -4.3,-0.2 -0.2,5.9 z"
   id="path5130"
   inkscape:connector-curvature="0"
   style="fill:url(#SVGID_2_)" />
		<linearGradient
   id="SVGID_3_"
   gradientUnits="userSpaceOnUse"
   x1="240.3002"
   y1="177.9904"
   x2="240.3002"
   y2="161.1651">
			<stop
   offset="0"
   style="stop-color:#B63A00"
   id="stop5132" />
			<stop
   offset="1"
   style="stop-color:#E85419"
   id="stop5134" />
		</linearGradient>
		<path
   class="st6"
   d="m 239.1,177.7 c -0.1,-0.1 -0.2,-0.3 -0.2,-0.5 l 0.6,-15.5 c 0,-0.2 0.1,-0.3 0.2,-0.4 0.1,-0.1 0.3,-0.2 0.5,-0.2 h 1 c 0.2,0 0.3,0.1 0.4,0.2 0.1,0.1 0.2,0.3 0.2,0.5 l -0.6,15.5 c 0,0.2 -0.1,0.3 -0.2,0.4 -0.1,0.1 -0.3,0.2 -0.5,0.2 h -1 c -0.2,0 -0.3,0 -0.4,-0.2 z"
   id="path5137"
   inkscape:connector-curvature="0"
   style="fill:url(#SVGID_3_)" />
	</g>
</g>
<polyline
   class="st7"
   points="209.7,193.5 199.5,395.2 359.3,396.4 "
   id="polyline5143"
   style="fill:none;stroke:#bfccd3;stroke-width:2;stroke-miterlimit:10"
   transform="translate(-36.700002,-128.9)" />
<path
   class="st8"
   d="m 131,314.2 c 0,0 3.3,1.4 7.3,0.2"
   id="path5145"
   inkscape:connector-curvature="0"
   style="fill:none;stroke:#53a9f4;stroke-width:0.5;stroke-miterlimit:10" />
<linearGradient
   id="SVGID_4_"
   gradientUnits="userSpaceOnUse"
   x1="148.02341"
   y1="314.8277"
   x2="220.6147"
   y2="314.8277"
   gradientTransform="translate(-36.700002,-128.9)">
	<stop
   offset="0.127"
   style="stop-color:#FF9B24"
   id="stop5147" />
	<stop
   offset="1"
   style="stop-color:#FFCB3D"
   id="stop5149" />
</linearGradient>
<path
   class="st9"
   d="m 179.8,154.4 c 1.7,-2.7 4.1,-5.8 4.1,-5.8 0,-1 -1.8,-1.2 -2.5,-0.6 -8,6.6 -12.5,7.8 -12.5,7.8 -2.5,0.7 -6.2,1.8 -6.2,1.8 0,0 0,0 -0.1,0 3.4,-2.4 9.1,-7.6 6.8,-8.5 -2.5,-0.9 -5.2,1.9 -12.6,7.8 -6.3,5 2,14.1 2,14.1 0,0 -24.9,33.6 -28,35.7 -5.1,-2.8 -10.6,-31 -10.6,-31 0,0 -10.4,-11.7 -8.7,13.1 1.7,24.8 13.5,34.5 13.5,34.5 8.3,6.7 35.2,-41 39.4,-48.6 3.3,-0.1 7.5,-4 10.2,-8.5 0.1,0 0.3,0.1 0.5,0.1 1.4,0 2.5,-1.2 2.5,-2.8 0,-0.4 -0.1,-0.7 -0.2,-1 0.1,0 0.1,0 0.2,0 1.4,0 2.5,-1.2 2.5,-2.8 0,-0.4 -0.1,-0.7 -0.2,-1 0.6,-0.5 1,-1.3 1,-2.2 0,-0.7 -0.4,-1.6 -1.1,-2.1 z m -17.6,3.6 c 0,0 0,0 0,0 v 0 c 0,0 0,0 0,0 z"
   id="path5152"
   inkscape:connector-curvature="0"
   style="fill:url(#SVGID_4_)" />
<g
   id="g5192"
   transform="translate(-36.700002,-128.9)">
	<defs
   id="defs5155">
		<polygon
   id="SVGID_5_"
   points="309.3,262.2 319.5,232.8 350.9,188 352.3,386.1 210.6,381.4 237.1,324 261.3,316.7 274.1,281 " />
	</defs>
	<clipPath
   id="SVGID_6_">
		<use
   xlink:href="#SVGID_5_"
   style="overflow:visible"
   id="use5157"
   x="0"
   y="0"
   width="100%"
   height="100%" />
	</clipPath>
	<g
   class="st10"
   clip-path="url(#SVGID_6_)"
   id="g5190">
		<line
   class="st11"
   x1="225.89999"
   y1="311"
   x2="220.60001"
   y2="415.60001"
   id="line5160"
   style="fill:none;stroke:#bfccd3;stroke-miterlimit:10" />
		<line
   class="st11"
   x1="234.60001"
   y1="300.39999"
   x2="229.5"
   y2="416"
   id="line5162"
   style="fill:none;stroke:#bfccd3;stroke-miterlimit:10" />
		<line
   class="st11"
   x1="243.39999"
   y1="289.79999"
   x2="238.39999"
   y2="416.5"
   id="line5164"
   style="fill:none;stroke:#bfccd3;stroke-miterlimit:10" />
		<line
   class="st11"
   x1="252.10001"
   y1="279.20001"
   x2="247.3"
   y2="416.89999"
   id="line5166"
   style="fill:none;stroke:#bfccd3;stroke-miterlimit:10" />
		<line
   class="st11"
   x1="260.79999"
   y1="268.60001"
   x2="256.20001"
   y2="417.29999"
   id="line5168"
   style="fill:none;stroke:#bfccd3;stroke-miterlimit:10" />
		<line
   class="st11"
   x1="269.5"
   y1="258"
   x2="265.10001"
   y2="417.70001"
   id="line5170"
   style="fill:none;stroke:#bfccd3;stroke-miterlimit:10" />
		<line
   class="st11"
   x1="278.20001"
   y1="247.39999"
   x2="274"
   y2="418.10001"
   id="line5172"
   style="fill:none;stroke:#bfccd3;stroke-miterlimit:10" />
		<line
   class="st11"
   x1="287"
   y1="236.8"
   x2="283"
   y2="418.5"
   id="line5174"
   style="fill:none;stroke:#bfccd3;stroke-miterlimit:10" />
		<line
   class="st11"
   x1="295.70001"
   y1="226.2"
   x2="291.89999"
   y2="418.89999"
   id="line5176"
   style="fill:none;stroke:#bfccd3;stroke-miterlimit:10" />
		<line
   class="st11"
   x1="304.39999"
   y1="215.60001"
   x2="300.79999"
   y2="419.29999"
   id="line5178"
   style="fill:none;stroke:#bfccd3;stroke-miterlimit:10" />
		<line
   class="st11"
   x1="313.10001"
   y1="205"
   x2="309.70001"
   y2="419.70001"
   id="line5180"
   style="fill:none;stroke:#bfccd3;stroke-miterlimit:10" />
		<line
   class="st11"
   x1="321.79999"
   y1="194.39999"
   x2="318.60001"
   y2="420.20001"
   id="line5182"
   style="fill:none;stroke:#bfccd3;stroke-miterlimit:10" />
		<line
   class="st11"
   x1="330.5"
   y1="183.8"
   x2="327.5"
   y2="420.60001"
   id="line5184"
   style="fill:none;stroke:#bfccd3;stroke-miterlimit:10" />
		<line
   class="st11"
   x1="339.29999"
   y1="173.2"
   x2="336.39999"
   y2="421"
   id="line5186"
   style="fill:none;stroke:#bfccd3;stroke-miterlimit:10" />
		<line
   class="st11"
   x1="348"
   y1="162.60001"
   x2="345.29999"
   y2="421.39999"
   id="line5188"
   style="fill:none;stroke:#bfccd3;stroke-miterlimit:10" />
	</g>
</g>
<g
   id="g5198"
   transform="translate(-36.700002,-128.9)">
	<g
   id="g5196">
		<path
   class="st12"
   d="m 214.1,381.2 c 7.8,-17 15.7,-33.9 23.5,-50.9 1,-2.2 2.1,-4.3 3,-6.5 -0.6,1.6 -1.6,0.5 -0.3,0.6 0.6,0 1.4,-0.4 2,-0.6 2.8,-0.8 5.6,-1.7 8.4,-2.5 3.9,-1.2 9.3,-1.8 12.9,-3.9 2,-1.1 2.4,-4 3.1,-6.1 2,-5.5 3.9,-10.9 5.9,-16.4 1.6,-4.3 3.8,-8.8 4.8,-13.3 0.5,-2 0.5,-0.5 -0.1,-0.3 1.4,-0.5 2.7,-1.4 4,-2.1 5,-2.7 10.1,-5.4 15.1,-8.1 4.4,-2.4 8.8,-4.7 13.2,-7.1 2.1,-1.1 3,-1.5 3.8,-3.7 3.4,-9.5 5.7,-19.5 8.6,-29.2 1,-3.3 0.8,-3.1 2.7,-5.5 3.4,-4.4 6.7,-8.8 10.1,-13.2 6,-7.8 11.9,-15.6 17.9,-23.4 1.5,-1.9 -1.8,-3.8 -3.2,-1.9 -5.1,6.6 -10.1,13.2 -15.2,19.9 -3.4,4.4 -6.8,8.9 -10.1,13.3 -1.5,2 -3.6,4 -4.6,6.2 -1.3,2.8 -1.8,6.3 -2.7,9.2 -1.6,5.6 -3.3,11.2 -4.9,16.8 -0.6,2 -1.2,4 -1.8,6 -0.2,0.6 -0.4,1.1 -0.5,1.7 -0.2,0.9 1.4,-1 0.5,-0.7 -3.5,1.3 -6.8,3.6 -10,5.4 -5.2,2.8 -10.5,5.6 -15.7,8.4 -2.7,1.5 -6.8,2.8 -9.1,4.9 -1.7,1.6 -2.2,4.8 -3,6.9 -2,5.4 -3.9,10.9 -5.9,16.3 -0.9,2.5 -1.8,5 -2.7,7.5 -0.5,1.5 -1.9,3.8 -1.9,5.3 0,0.1 -0.3,0.7 -0.3,0.7 -1.1,-1.6 2.7,-1.2 0.2,-0.9 -2.2,0.2 -4.6,1.4 -6.7,2 -5,1.5 -10.2,2.8 -15.1,4.6 -2,0.7 -2.4,1.4 -3.2,3.3 -8.5,18.4 -17,36.9 -25.6,55.3 -1.3,2.2 1.9,4.1 2.9,2 z"
   id="path5194"
   inkscape:connector-curvature="0"
   style="fill:#ff9b24" />
	</g>
</g>
<linearGradient
   id="SVGID_7_"
   gradientUnits="userSpaceOnUse"
   x1="240.1059"
   y1="329.05511"
   x2="240.1059"
   y2="317.3735"
   gradientTransform="translate(-36.700002,-128.9)">
	<stop
   offset="0"
   style="stop-color:#B63A00"
   id="stop5200" />
	<stop
   offset="1"
   style="stop-color:#E85419"
   id="stop5202" />
</linearGradient>
<circle
   class="st13"
   cx="203.40001"
   cy="194.30002"
   id="circle5205"
   r="5.8000002"
   style="fill:url(#SVGID_7_)" />
<linearGradient
   id="SVGID_8_"
   gradientUnits="userSpaceOnUse"
   x1="275.86771"
   y1="285.66309"
   x2="275.86771"
   y2="273.98151"
   gradientTransform="translate(-36.700002,-128.9)">
	<stop
   offset="0"
   style="stop-color:#B63A00"
   id="stop5207" />
	<stop
   offset="1"
   style="stop-color:#E85419"
   id="stop5209" />
</linearGradient>
<circle
   class="st14"
   cx="239.2"
   cy="150.89999"
   id="circle5212"
   r="5.8000002"
   style="fill:url(#SVGID_8_)" />
<linearGradient
   id="SVGID_9_"
   gradientUnits="userSpaceOnUse"
   x1="311.57309"
   y1="266.57559"
   x2="311.57309"
   y2="254.8941"
   gradientTransform="translate(-36.700002,-128.9)">
	<stop
   offset="0"
   style="stop-color:#B63A00"
   id="stop5214" />
	<stop
   offset="1"
   style="stop-color:#E85419"
   id="stop5216" />
</linearGradient>
<circle
   class="st15"
   cx="274.90002"
   cy="131.80002"
   id="circle5219"
   r="5.8000002"
   style="fill:url(#SVGID_9_)" />
<linearGradient
   id="SVGID_10_"
   gradientUnits="userSpaceOnUse"
   x1="321.0881"
   y1="232.8051"
   x2="321.0881"
   y2="221.1235"
   gradientTransform="translate(-36.700002,-128.9)">
	<stop
   offset="0"
   style="stop-color:#B63A00"
   id="stop5221" />
	<stop
   offset="1"
   style="stop-color:#E85419"
   id="stop5223" />
</linearGradient>
<circle
   class="st16"
   cx="284.40002"
   cy="98.099998"
   id="circle5226"
   r="5.8000002"
   style="fill:url(#SVGID_10_)" />
<polyline
   class="st7"
   points="202.5,204.6 209.7,193.5 215.1,204.6 "
   id="polyline5228"
   style="fill:none;stroke:#bfccd3;stroke-width:2;stroke-miterlimit:10"
   transform="translate(-36.700002,-128.9)" />
<polyline
   class="st7"
   points="354.4,390.2 360.4,396.4 352.3,401.4 "
   id="polyline5230"
   style="fill:none;stroke:#bfccd3;stroke-width:2;stroke-miterlimit:10"
   transform="translate(-36.700002,-128.9)" />
<linearGradient
   id="SVGID_11_"
   gradientUnits="userSpaceOnUse"
   x1="55.912102"
   y1="330.19919"
   x2="161.2065"
   y2="330.19919"
   gradientTransform="translate(-36.700002,-128.9)">
	<stop
   offset="0"
   style="stop-color:#467EF7"
   id="stop5232" />
	<stop
   offset="1"
   style="stop-color:#61CBF7"
   id="stop5234" />
</linearGradient>
<path
   class="st17"
   d="m 113.7,224.8 c -0.3,-4.1 -1,-16.2 -1.7,-27.5 0.1,-2.2 0.1,-4.4 0.1,-6.7 4.4,-1.9 7.3,-2.7 12.4,-6.5 -2.6,-11.7 -8.4,-30.2 -16.5,-37.6 -2.2,-2 -3.7,-3.2 -4.9,-3.9 -3.900002,-2.5 -9.400002,-3.7 -11.200002,-4 -8.9,-1.6 -19,-1.5 -30.5,1.3 -3.6,0.7 -7.4,1.8 -11.4,3.5 -12.7,5.5 -26.400001,21.2 -30.800001,30.9 6.5,2.3 12.800001,5 17.700001,9.8 2.8,-4.8 6.6,-9 10.5,-12.6 l -2,56.3 c 0,0 0.3,16.6 1.8,24.3 0.8,0 1.7,0 2.6,0 3.2,11.7 10.6,17.7 25.7,7.6 7.4,-4.9 15.4,-8 22.1,-10.5 C 104.3,248.2 110.3,247 115.2,245.4 c -0.6,-4.7 -1.3,-17.8 -1.5,-20.6 z"
   id="path5237"
   inkscape:connector-curvature="0"
   style="fill:url(#SVGID_11_)" />
<path
   class="st18"
   d="m 113.7,227.3 c -0.1,0 -0.2,0 -0.3,0 0,0 0,0 0,0 0.1,-0.1 0.2,-0.1 0.3,0 z"
   id="path5239"
   inkscape:connector-curvature="0"
   style="fill:#61aaf7" />
<linearGradient
   id="SVGID_12_"
   gradientUnits="userSpaceOnUse"
   x1="129.8053"
   y1="531.97968"
   x2="129.8053"
   y2="374.4519"
   gradientTransform="translate(-36.700002,-128.9)">
	<stop
   offset="0"
   style="stop-color:#30259A"
   id="stop5241" />
	<stop
   offset="1"
   style="stop-color:#33313D"
   id="stop5243" />
</linearGradient>
<path
   class="st19"
   d="m 115.1,245.6 c -21.900002,5.8 -44.900002,4.6 -67.600002,6.6 1.1,19.2 5.4,31 10.6,52.1 12.8,51.5 18.2,90.6 18.2,90.6 l 7,1.5 5.2,-116.5 C 100.1,298.5 116.3,317.8 116.3,317.8 c 0.1,0.1 -1.6,26.8 -0.7,43.9 2.8,54.1 4.9,38.4 5.2,40.7 l 6.7,0.7 c 0,0 11.1,-89 11.2,-89.1 -1.1,-9.3 -10.4,-32.4 -23.6,-68.4 z"
   id="path5246"
   inkscape:connector-curvature="0"
   style="fill:url(#SVGID_12_)" />
<linearGradient
   id="SVGID_13_"
   gradientUnits="userSpaceOnUse"
   x1="92.928101"
   y1="527.66931"
   x2="121.5929"
   y2="527.66931"
   gradientTransform="translate(-36.700002,-128.9)">
	<stop
   offset="0"
   style="stop-color:#467EF7"
   id="stop5248" />
	<stop
   offset="1"
   style="stop-color:#61CBF7"
   id="stop5250" />
</linearGradient>
<path
   class="st20"
   d="m 56.699998,404.5 c -3,-1.1 10.6,-8.3 16.7,-10 3.1,-0.9 6.3,-1.2 9.6,-1.4 1.1,3 2,9.3 2,9.3 0,0 -27.1,2.5 -28.3,2.1 z"
   id="path5253"
   inkscape:connector-curvature="0"
   style="fill:url(#SVGID_13_)" />
<linearGradient
   id="SVGID_14_"
   gradientUnits="userSpaceOnUse"
   x1="154.4424"
   y1="527.9903"
   x2="186.4046"
   y2="527.9903"
   gradientTransform="translate(-36.700002,-128.9)">
	<stop
   offset="0"
   style="stop-color:#467EF7"
   id="stop5255" />
	<stop
   offset="1"
   style="stop-color:#61CBF7"
   id="stop5257" />
</linearGradient>
<path
   class="st21"
   d="m 148.5,406 c 4.6,0.4 -5.1,-5.9 -10.5,-8.5 -13.4,-6.4 -16,-5.2 -20.3,-5.2 l 0.2,12.2 c 0.1,-0.1 28.3,1.3 30.6,1.5 z"
   id="path5260"
   inkscape:connector-curvature="0"
   style="fill:url(#SVGID_14_)" />
<path
   class="st8"
   d="m 66.799998,336.3 c 0,0 1.7,3.8 9.2,1.1"
   id="path5262"
   inkscape:connector-curvature="0"
   style="fill:none;stroke:#53a9f4;stroke-width:0.5;stroke-miterlimit:10" />
<linearGradient
   id="SVGID_15_"
   gradientUnits="userSpaceOnUse"
   x1="93.658302"
   y1="229.80029"
   x2="139.18221"
   y2="229.80029"
   gradientTransform="translate(-36.700002,-128.9)">
	<stop
   offset="0.127"
   style="stop-color:#FF9B24"
   id="stop5264" />
	<stop
   offset="1"
   style="stop-color:#FFCB3D"
   id="stop5266" />
</linearGradient>
<path
   class="st22"
   d="m 102.5,93.2 c 0,-0.4 -1.5,-1.2 -3.700002,-2.2 0.5,-5.4 0.3,-11.1 -1,-17 -6,-28.1 -37.4,-19.1 -40,-2 -2.5,17.1 0,30.1 15,53.1 l 1.2,18.3 c 0,0 7.2,6.1 13.1,-1.2 l -1.1,-15.8 c 0,0 9.6,-13 12.3,-31.1 C 100.5,95 102.4,94.3 102.5,93.2 Z"
   id="path5269"
   inkscape:connector-curvature="0"
   style="fill:url(#SVGID_15_)" />
<path
   class="st12"
   d="m 109.1,215.7 c -0.2,-0.2 -0.3,-0.2 -0.3,-0.2 0.1,0.1 0.2,0.2 0.3,0.2 z"
   id="path5271"
   inkscape:connector-curvature="0"
   style="fill:#ff9b24" />
<path
   class="st8"
   d="m 63.299998,256.8 c 0,0 -2.3,8.9 -14.5,6.4"
   id="path5273"
   inkscape:connector-curvature="0"
   style="fill:none;stroke:#53a9f4;stroke-width:0.5;stroke-miterlimit:10" />
<path
   class="st8"
   d="m 109.1,250.3 c 0,0 2,6.5 11.1,6.9"
   id="path5275"
   inkscape:connector-curvature="0"
   style="fill:none;stroke:#53a9f4;stroke-width:0.5;stroke-miterlimit:10" />
<path
   class="st8"
   d="m 87.099998,271.1 6.1,-1.2 c 0,0 0.9,-8.2 0.7,-13.6"
   id="path5277"
   inkscape:connector-curvature="0"
   style="fill:none;stroke:#53a9f4;stroke-width:0.5;stroke-miterlimit:10" />
<linearGradient
   id="SVGID_16_"
   gradientUnits="userSpaceOnUse"
   x1="55.911999"
   y1="308.96552"
   x2="74.151703"
   y2="308.96552"
   gradientTransform="translate(-36.700002,-128.9)">
	<stop
   offset="0"
   style="stop-color:#33313D"
   id="stop5279" />
	<stop
   offset="1"
   style="stop-color:#4625C1"
   id="stop5281" />
</linearGradient>
<path
   class="st23"
   d="m 19.199997,174.4 c 0,0 13.400001,16.4 17.700001,9.8 4.3,-6.7 -17.700001,-9.8 -17.700001,-9.8 z"
   id="path5284"
   inkscape:connector-curvature="0"
   style="fill:url(#SVGID_16_)" />
<path
   class="st24"
   d="m 44.199998,159.7 c 0,0 0.9,6.5 3.1,8.9"
   id="path5286"
   inkscape:connector-curvature="0"
   style="fill:none;stroke:#6535e4;stroke-width:0.5;stroke-miterlimit:10" />
<path
   class="st24"
   d="m 46.399998,170.2 c 0,0 -2,0.7 -5.5,-2.2"
   id="path5288"
   inkscape:connector-curvature="0"
   style="fill:none;stroke:#6535e4;stroke-width:0.5;stroke-miterlimit:10" />
<g
   id="g5328"
   transform="translate(-36.700002,-128.9)">
	<g
   id="g5326">
		<g
   id="g5297">
			<linearGradient
   id="SVGID_17_"
   gradientUnits="userSpaceOnUse"
   x1="110.1441"
   y1="275.47421"
   x2="123.49"
   y2="275.47421">
				<stop
   offset="0"
   style="stop-color:#4625C1"
   id="stop5290" />
				<stop
   offset="1"
   style="stop-color:#33313D"
   id="stop5292" />
			</linearGradient>
			<path
   class="st25"
   d="m 123.5,271.1 c -2.2,1.3 -7.4,3.6 -12.4,0.2 h -1 l 1.9,8.1 4.7,-3.4 5.4,3.7 z"
   id="path5295"
   inkscape:connector-curvature="0"
   style="fill:url(#SVGID_17_)" />
		</g>
		<g
   id="g5306">
			<linearGradient
   id="SVGID_18_"
   gradientUnits="userSpaceOnUse"
   x1="116.4892"
   y1="307.11761"
   x2="120.533"
   y2="307.11761">
				<stop
   offset="0"
   style="stop-color:#4625C1"
   id="stop5299" />
				<stop
   offset="1"
   style="stop-color:#33313D"
   id="stop5301" />
			</linearGradient>
			<circle
   class="st26"
   cx="118.5"
   cy="307.10001"
   r="2"
   id="circle5304"
   style="fill:url(#SVGID_18_)" />
		</g>
		<g
   id="g5315">
			<linearGradient
   id="SVGID_19_"
   gradientUnits="userSpaceOnUse"
   x1="116.4892"
   y1="298.0336"
   x2="120.533"
   y2="298.0336">
				<stop
   offset="0"
   style="stop-color:#4625C1"
   id="stop5308" />
				<stop
   offset="1"
   style="stop-color:#33313D"
   id="stop5310" />
			</linearGradient>
			<circle
   class="st27"
   cx="118.5"
   cy="298"
   r="2"
   id="circle5313"
   style="fill:url(#SVGID_19_)" />
		</g>
		<g
   id="g5324">
			<linearGradient
   id="SVGID_20_"
   gradientUnits="userSpaceOnUse"
   x1="116.1643"
   y1="286.90601"
   x2="120.2082"
   y2="286.90601">
				<stop
   offset="0"
   style="stop-color:#4625C1"
   id="stop5317" />
				<stop
   offset="1"
   style="stop-color:#33313D"
   id="stop5319" />
			</linearGradient>
			<circle
   class="st28"
   cx="118.2"
   cy="286.89999"
   r="2"
   id="circle5322"
   style="fill:url(#SVGID_20_)" />
		</g>
	</g>
</g>
<path
   class="st24"
   d="m 111.3,172.2 c 0,0 -0.4,20.6 1.4,33"
   id="path5330"
   inkscape:connector-curvature="0"
   style="fill:none;stroke:#6535e4;stroke-width:0.5;stroke-miterlimit:10" />
<linearGradient
   id="SVGID_21_"
   gradientUnits="userSpaceOnUse"
   x1="194.48599"
   y1="138.6561"
   x2="379.23239"
   y2="138.6561"
   gradientTransform="translate(-36.700002,-128.9)">
	<stop
   offset="0"
   style="stop-color:#FFFFFF"
   id="stop5332" />
	<stop
   offset="1"
   style="stop-color:#CCCCCC"
   id="stop5334" />
</linearGradient>
<path
   class="st29"
   d="m 160,18 180.4,1.5 c 1.2,0 2.2,-1 2.2,-2.2 V 2.2 C 342.6,1 341.6,0 340.4,0 H 160.9 c -1.2,0 -2.1,0.9 -2.2,2.1 l -0.9,13.6 c -0.1,1.3 0.9,2.3 2.2,2.3 z"
   id="path5337"
   inkscape:connector-curvature="0"
   style="fill:url(#SVGID_21_)" />
<linearGradient
   id="SVGID_22_"
   gradientUnits="userSpaceOnUse"
   x1="53.301399"
   y1="334.74939"
   x2="91.174202"
   y2="334.74939"
   gradientTransform="translate(-36.700002,-128.9)">
	<stop
   offset="0.127"
   style="stop-color:#FF9B24"
   id="stop5339" />
	<stop
   offset="1"
   style="stop-color:#FFCB3D"
   id="stop5341" />
</linearGradient>
<path
   class="st30"
   d="m 53.099998,223.2 c 1.5,-0.7 2,-3.1 0.6,-4.2 -3.1,-1.1 -6.2,0.4 -6.2,0.4 l -0.5,-0.9 c 0.1,-0.1 3,-1.5 6.2,-0.7 1.4,-1.3 0.9,-4.4 -1.6,-4.4 -1.8,0 -3.6,0.3 -5.2,1.1 -2.6,1.3 -3.6,3.9 -3.3,6.6 -0.7,1.2 -1.1,2.6 -1.1,4.1 -0.9,0.7 -1.6,1.6 -2,2.7 -7.2,-4.7 -15.000001,-12.1 -15.500001,-23.8 -0.2,-4.8 1.8,-13.4 5.400001,-21 0.1,-0.2 0.2,-0.4 0.3,-0.6 0.1,-0.3 0.3,-0.6 0.5,-0.9 0.7,-1.3 1.4,-2.6 2.2,-3.9 -3,-1.3 -6.700001,-2.2 -9.500001,-2.8 -0.2,0.3 -0.3,0.7 -0.4,1 0,0 0,0 0,0 -0.2,0.4 -0.3,0.7 -0.4,1.1 -0.1,0.1 -0.1,0.3 -0.2,0.4 0,0 0,0 0,0 -2.2,5.6 -3.7,11.1 -4.5,16.5 -0.6,0.8 -1.1,1.9 -1,2.7 0,0.4 0.3,1 0.6,1.6 -0.6,11.3 2.5,21.3 10.200001,27.9 9,7.7 14.3,10.4 18.4,10.4 0,0 0,0 0,0 1,0 1.5,-2.2 1.1,-4.8 0.1,0 0.2,0 0.2,0 0.3,0 0.6,0.1 0.9,0.1 0.3,0.1 1.9,0.7 0.8,0.2 1.2,0.5 2.7,0.4 3.4,-0.9 0.2,-0.4 0.3,-1 0.3,-1.5 -2,-2.3 -5.1,-2.7 -5.1,-2.7 l 0.1,-1 c 0.1,0 2.4,0.3 4.4,1.9 0.6,-0.3 1.1,-0.8 1.3,-1.5 0.2,-0.6 0,-1.4 -0.3,-2 -2.3,-1.5 -5.1,-1.2 -5.6,-1.1 0.2,-0.4 0.4,-0.8 0.7,-1.1 0.9,0.1 2.9,0.2 4.8,1.1 z"
   id="path5344"
   inkscape:connector-curvature="0"
   style="fill:url(#SVGID_22_)" />
<polygon
   class="st31"
   points="73.4,360 71.4,363.3 69.1,361.7 71.5,358.4 "
   id="polygon5346"
   style="fill:#53a9f4"
   transform="translate(-36.700002,-128.9)" />
<path
   class="st32"
   d="m 39.499998,230 0.1,-0.1 c 0.9,-1.4 0.5,-3.2 -0.8,-4.1 v 0 c -1.4,-0.9 -3.2,-0.5 -4.1,0.8 l -0.1,0.1 c -0.9,1.4 -0.5,3.2 0.8,4.1 v 0 c 1.4,0.9 3.2,0.5 4.1,-0.8 z"
   id="path5348"
   inkscape:connector-curvature="0"
   style="fill:#d9dbe8" />
<path
   class="st31"
   d="m 38.999998,229.6 0.1,-0.1 c 0.7,-1.1 0.4,-2.5 -0.7,-3.3 v 0 c -1.1,-0.7 -2.5,-0.4 -3.3,0.7 l -0.1,0.1 c -0.7,1.1 -0.4,2.5 0.7,3.3 v 0 c 1.1,0.7 2.6,0.4 3.3,-0.7 z"
   id="path5350"
   inkscape:connector-curvature="0"
   style="fill:#53a9f4" />
<ellipse
   transform="rotate(-89.256836)"
   class="st33"
   cx="-83.361931"
   cy="73.920341"
   rx="1.2999793"
   ry="1.4999762"
   id="ellipse5352"
   style="fill:#3537ab;stroke-width:0.99998415" />
<circle
   transform="rotate(-15.135518)"
   class="st33"
   cx="66.476685"
   cy="105.01299"
   id="ellipse5354"
   r="1.0999875"
   style="fill:#3537ab;stroke-width:0.99998868" />
<path
   class="st34"
   d="m 77.799998,99.5 c -3.7,1.1 -5.2,-0.2 -6.7,-1.3 -0.5,-0.4 -1.3,0.1 -1.1,0.7 0.1,0.3 0.1,0.5 0.2,0.8 1.7,1.6 6,2.3 7.3,1.6 0.2,-1.4 0.3,-1.8 0.3,-1.8 z"
   id="path5356"
   inkscape:connector-curvature="0"
   style="fill:#ffffff" />
<path
   class="st35"
   d="m 83.099998,82.9 c 0.1,4.5 -4.3,9.1 -9.5,9.2 -5.2,0.1 -9.3,-4.4 -9.4,-8.8 -0.1,-4.5 4,-8.1 9.2,-8.3 5.2,-0.2 9.6,3.4 9.7,7.9 z"
   id="path5358"
   inkscape:connector-curvature="0"
   style="fill:none;stroke:#3537ab;stroke-width:0.5;stroke-miterlimit:10" />
<path
   class="st35"
   d="m 103.8,82.5 c 0.1,4.5 -4.300002,9.1 -9.500002,9.2 -5.2,0.1 -9.3,-4.4 -9.4,-8.8 -0.1,-4.4 4,-8.1 9.2,-8.3 5.3,-0.1 9.600002,3.4 9.700002,7.9 z"
   id="path5360"
   inkscape:connector-curvature="0"
   style="fill:none;stroke:#3537ab;stroke-width:0.5;stroke-miterlimit:10" />
<path
   class="st35"
   d="m 87.399998,96.3 c 0,0 15.400002,-0.3 14.900002,-3 -0.5,-2.7 -18.600002,-6.9 -18.600002,-6.9"
   id="path5362"
   inkscape:connector-curvature="0"
   style="fill:none;stroke:#3537ab;stroke-width:0.5;stroke-miterlimit:10" />
<path
   class="st35"
   d="m 82.799998,81.1 c 0,0 1.1,-0.6 2.3,0.1"
   id="path5364"
   inkscape:connector-curvature="0"
   style="fill:none;stroke:#3537ab;stroke-width:0.5;stroke-miterlimit:10" />
<path
   class="st36"
   d="m 73.399998,77.5 c 0,0 5.1,-0.7 7.1,4.2"
   id="path5366"
   inkscape:connector-curvature="0"
   style="fill:none;stroke:#f5fbff;stroke-miterlimit:10" />
<path
   class="st36"
   d="m 92.899998,77.1 c 0,0 5.1,-0.7 7.1,4.2"
   id="path5368"
   inkscape:connector-curvature="0"
   style="fill:none;stroke:#f5fbff;stroke-miterlimit:10" />
<linearGradient
   id="SVGID_23_"
   gradientUnits="userSpaceOnUse"
   x1="91.876404"
   y1="197.69659"
   x2="135.31821"
   y2="197.69659"
   gradientTransform="translate(-36.700002,-128.9)">
	<stop
   offset="0"
   style="stop-color:#4625C1"
   id="stop5370" />
	<stop
   offset="1"
   style="stop-color:#33313D"
   id="stop5372" />
</linearGradient>
<path
   class="st37"
   d="m 88.599998,46.5 c -17.7,-5.7 -33.8,0.1 -29.6,12.2 -1.3,0.5 -2.4,1.6 -2.9,3.4 -2,7.3 -0.2,25.1 -0.2,25.1 3.4,-1.4 5.4,5.2 5.4,5.2 l 2,0.8 c 0,0 -4.6,-16.4 2.2,-19.9 6.8,-3.5 3.4,-13.1 3.4,-13.1 0,0 10.1,9 26,1.5 0.1,-0.1 11.500002,-9.5 -6.3,-15.2 z"
   id="path5375"
   inkscape:connector-curvature="0"
   style="fill:url(#SVGID_23_)" />
<path
   class="st38"
   d="m 95.799998,58 c 0,0 -14.2,7.4 -26.8,-0.8"
   id="path5377"
   inkscape:connector-curvature="0"
   style="fill:none;stroke:#d9dbe8;stroke-width:0.5;stroke-miterlimit:10" />
<path
   class="st35"
   d="m 78.799998,99.2 c -3.7,1.1 -6.3,0.1 -7.7,-1 -0.5,-0.4 -1.3,0.1 -1.1,0.7 0.6,2.7 2.8,6.1 5.4,5.8"
   id="path5379"
   inkscape:connector-curvature="0"
   style="fill:none;stroke:#3537ab;stroke-width:0.5;stroke-miterlimit:10" />
<ellipse
   transform="rotate(-27.838594)"
   class="st12"
   cx="7.7984734"
   cy="107.2509"
   rx="4.1001549"
   ry="5.4002037"
   id="ellipse5381"
   style="fill:#ff9b24;stroke-width:1.00003779" />
<path
   class="st39"
   d="m 54.699998,88.3 c 0,0 4,-0.4 4.3,4.9"
   id="path5383"
   inkscape:connector-curvature="0"
   style="fill:none;stroke:#ce7c24;stroke-width:0.5;stroke-miterlimit:10" />
</svg>