<?xml version="1.0" encoding="utf-8"?>
<!-- Generator: Adobe Illustrator 22.0.1, SVG Export Plug-In . SVG Version: 6.00 Build 0)  -->
<svg version="1.1" id="bg" xmlns="http://www.w3.org/2000/svg" xmlns:xlink="http://www.w3.org/1999/xlink" x="0px" y="0px"
	 viewBox="0 0 100 100" style="enable-background:new 0 0 100 100;" xml:space="preserve">
<style type="text/css">
	.st0{fill:#FFFFFF;}
	.st1{fill:none;stroke:#FFFFFF;stroke-width:2.5;stroke-miterlimit:10;}
</style>
<g>
	<path class="st0" d="M62.4,66c0.4-0.1,0.6-0.4,0.7-0.8c0.1-0.4,0-0.8-0.3-1.1l-8.3-8.3c2.4-3.4,2.1-8-0.9-10.9
		c-2.9-2.9-7.6-3.3-10.9-0.9l-8.3-8.3c-0.3-0.3-0.7-0.4-1.1-0.3c-0.4,0.1-0.7,0.4-0.8,0.7L25.7,55c-2.3,6.2-5.8,11.8-10.4,16.4
		c-1.9,1.9-1.9,4.9,0,6.8l5.2,5.2c1.9,1.9,4.9,1.9,6.8,0c0,0,0.1-0.1,0.1-0.1l10.7,10.7c0.4,0.4,1.2,0.4,1.6,0
		c3.3-3.3,3.3-8.6,0-11.9l-4.8-4.8c2.8-1.8,5.7-3.2,8.8-4.3L62.4,66z M52,46.5c2,2,2.4,5.2,0.8,7.7l-8.5-8.5
		C46.8,44.2,50,44.5,52,46.5L52,46.5z M23.8,82.4c-0.7,0-1.3-0.3-1.8-0.7l-5.2-5.2c-1-1-1-2.6,0-3.5c0.9-0.9,1.7-1.8,2.6-2.8
		l8.9,8.9c-1,0.8-1.9,1.7-2.8,2.6C25.1,82.1,24.5,82.4,23.8,82.4L23.8,82.4z M37.9,83.5c2.1,2.1,2.4,5.4,0.7,7.8l-9.7-9.7
		c1.3-1.1,2.6-2.2,3.9-3.1L37.9,83.5z M30.1,77.7l-9.3-9.3c3-3.8,5.3-8.1,7-12.7l6.2-17.1l25.8,25.8l-17.1,6.2
		C38.2,72.4,34,74.7,30.1,77.7L30.1,77.7z M30.1,77.7"/>
	<path class="st0" d="M60.1,40.9c-3.5-3.5-8.8-4.6-13.4-2.7c-0.6,0.2-0.9,0.9-0.6,1.5c0.2,0.6,0.9,0.9,1.5,0.6
		c3.8-1.5,8.1-0.6,11,2.2c2.9,2.9,3.8,7.2,2.2,11c-0.2,0.6,0,1.3,0.6,1.5c0.6,0.2,1.3,0,1.5-0.6C64.7,49.7,63.6,44.4,60.1,40.9
		L60.1,40.9z M60.1,40.9"/>
	<path class="st0" d="M66.9,57.1c0.6,0.2,1.3,0,1.5-0.6c2.7-6.8,1.2-14.6-4-19.8c-5.2-5.2-13-6.8-19.8-4c-0.4,0.2-0.7,0.5-0.7,0.9
		c-0.1,0.4,0.1,0.8,0.4,1.1c0.3,0.3,0.8,0.3,1.1,0.2c6-2.4,12.8-1,17.3,3.5c4.5,4.5,5.9,11.4,3.5,17.3C66,56.2,66.3,56.8,66.9,57.1
		L66.9,57.1z M66.9,57.1"/>
	<path class="st0" d="M79.7,4c-9.5,0-17.2,7.7-17.2,17.2s7.7,17.2,17.2,17.2s17.2-7.7,17.2-17.2C96.9,11.7,89.2,4,79.7,4L79.7,4z
		 M79.7,36.2c-8.2,0-14.9-6.7-14.9-14.9S71.4,6.3,79.7,6.3S94.6,13,94.6,21.2C94.6,29.5,87.9,36.2,79.7,36.2L79.7,36.2z M79.7,36.2"
		/>
	<path class="st0" d="M85.8,19.2c2.4,0,4.3-1.9,4.3-4.3c0-2.4-1.9-4.3-4.3-4.3c-2.4,0-4.3,1.9-4.3,4.3L76.3,18
		c-1.7-1.5-4.3-1.4-5.9,0.2c-1.6,1.6-1.6,4.2-0.1,5.9c1.5,1.7,4.1,1.9,5.8,0.4l5.4,3.4c0.2,2.1,2,3.7,4.1,3.8c2.1,0.1,4-1.4,4.4-3.5
		c0.4-2.1-0.8-4.1-2.8-4.8c-2-0.7-4.2,0.2-5.2,2.1l-4.6-2.9c0.3-0.9,0.3-1.9,0-2.8l4.7-2.7C83,18.5,84.4,19.2,85.8,19.2L85.8,19.2z
		 M85.8,13c1.1,0,2,0.9,2,2c0,1.1-0.9,2-2,2c-1.1,0-2-0.9-2-2C83.9,13.9,84.7,13,85.8,13L85.8,13z M73.5,23.2c-1.1,0-2-0.9-2-2
		c0-1.1,0.9-2,2-2c1.1,0,2,0.9,2,2C75.5,22.3,74.6,23.2,73.5,23.2L73.5,23.2z M85.8,25.5c1.1,0,2,0.9,2,2c0,1.1-0.9,2-2,2
		c-1.1,0-2-0.9-2-2C83.9,26.4,84.7,25.5,85.8,25.5L85.8,25.5z M85.8,25.5"/>
	<path class="st0" d="M79.7,63.3c-9.5,0-17.2,7.7-17.2,17.2s7.7,17.2,17.2,17.2s17.2-7.7,17.2-17.2C96.9,71,89.2,63.3,79.7,63.3
		L79.7,63.3z M79.7,95.5c-8.2,0-14.9-6.7-14.9-14.9s6.7-14.9,14.9-14.9s14.9,6.7,14.9,14.9C94.6,88.8,87.9,95.5,79.7,95.5L79.7,95.5
		z M79.7,95.5"/>
	<path class="st0" d="M86.7,79.6l-9.4-5.8c-0.4-0.2-0.8-0.2-1.2,0c-0.4,0.2-0.6,0.6-0.6,1v11.6c0,0.4,0.2,0.8,0.6,1
		c0.4,0.2,0.8,0.2,1.2,0l9.4-5.8c0.3-0.2,0.5-0.6,0.5-1C87.3,80.2,87.1,79.8,86.7,79.6L86.7,79.6z M77.9,84.3v-7.5l6,3.7L77.9,84.3z
		 M77.9,84.3"/>
	<path class="st0" d="M20.3,38.5c9.5,0,17.2-7.7,17.2-17.2S29.9,4,20.3,4S3.1,11.7,3.1,21.2C3.1,30.7,10.8,38.5,20.3,38.5L20.3,38.5
		z M20.3,6.3c8.2,0,14.9,6.7,14.9,14.9s-6.7,14.9-14.9,14.9S5.4,29.5,5.4,21.2C5.4,13,12.1,6.3,20.3,6.3L20.3,6.3z M20.3,6.3"/>
	<path class="st0" d="M13.3,28.1h8.2c1.7,0,3-1.4,3-3v-0.2l4.2,2.3c0.4,0.2,0.8,0.2,1.1,0c0.3-0.2,0.6-0.6,0.6-1v-9.8
		c0-0.4-0.2-0.8-0.6-1c-0.3-0.2-0.8-0.2-1.1,0l-4.2,2.3v-0.2c0-1.7-1.4-3-3-3h-8.2c-1.7,0-3,1.4-3,3V25
		C10.3,26.7,11.6,28.1,13.3,28.1L13.3,28.1z M28.1,18.3v5.9l-3.6-2v-2L28.1,18.3z M12.6,17.5c0-0.4,0.3-0.8,0.8-0.8h8.2
		c0.4,0,0.8,0.3,0.8,0.8V25c0,0.4-0.3,0.8-0.8,0.8h-8.2c-0.4,0-0.8-0.3-0.8-0.8V17.5z M12.6,17.5"/>
</g>
</svg>
