<?xml version="1.0" encoding="utf-8"?>
<!-- Generator: Adobe Illustrator 22.0.1, SVG Export Plug-In . SVG Version: 6.00 Build 0)  -->
<svg version="1.1" xmlns="http://www.w3.org/2000/svg" xmlns:xlink="http://www.w3.org/1999/xlink" x="0px" y="0px"
	 viewBox="0 0 418 796" style="enable-background:new 0 0 418 796;" xml:space="preserve">
<style type="text/css">
	.st0{fill:url(#SVGID_1_);}
	.st1{opacity:0.15;fill:#FFFFFF;enable-background:new    ;}
	.st2{fill:#B2320F;}
	.st3{fill:#FFFFFF;}
	.st4{fill:#E6E7E9;}
	.st5{fill:none;}
	.st6{clip-path:url(#SVGID_3_);}
	.st7{fill:url(#SVGID_4_);}
	.st8{fill:url(#SVGID_5_);}
	.st9{fill:url(#SVGID_6_);}
	.st10{fill:url(#SVGID_7_);}
	.st11{fill:url(#SVGID_8_);}
	.st12{fill:url(#SVGID_9_);}
	.st13{fill:url(#SVGID_10_);}
	.st14{fill:url(#SVGID_11_);}
	.st15{fill:url(#SVGID_12_);}
	.st16{fill:url(#SVGID_13_);}
	.st17{fill:url(#SVGID_14_);}
	.st18{fill:#4625C1;}
	.st19{fill:none;stroke:#FFFFFF;stroke-width:0.5;stroke-miterlimit:10;}
	.st20{fill:none;stroke:#3537AB;stroke-width:0.5;stroke-miterlimit:10;}
</style>
<g id="Слой_1">
	<g id="Layer_1">
	</g>
	<g id="bg">
		<linearGradient id="SVGID_1_" gradientUnits="userSpaceOnUse" x1="210.3292" y1="0" x2="210.3292" y2="795.9999">
			<stop  offset="0" style="stop-color:#BC3B0D"/>
			<stop  offset="1" style="stop-color:#E85419"/>
		</linearGradient>
		<path class="st0" d="M1.3,0v733.5v4.6v29.6c3.3-0.8,50.1-11.6,95.2,3.1c46.8,15.3,76.3,25.2,111,25.2s74-11.9,112.3-27.4
			s96.5-4.6,99.5-1.6v-27V0H1.3z"/>
	</g>
	<polygon class="st1" points="270.5,635.8 419.3,175.8 419.3,0 0,0 0,176.7 143.3,641.4 	"/>
	<ellipse class="st2" cx="215.1" cy="568.9" rx="162.4" ry="22.3"/>
	<polygon class="st3" points="271.1,634 419.3,43.4 419.3,0 0,0 0,42.2 142.2,640.1 	"/>
	<path class="st4" d="M121,550.5l8.9,38.1c24.7,2.1,54.2,3.2,85.2,3.2c25.2,0,48.4-0.9,67.2-2.5l10.2-40.4
		c-21.2-1.6-48.4-2.7-77.4-2.7C180.2,546.1,147.5,547.8,121,550.5z"/>
	<path class="st5" d="M136,631.7c-0.9-5.9-1.9-11.7-2.8-17.6c-0.5-3.3,1.9-6.5,5.5-7c47.5-6.9,95.7-6.9,143.2,0c3.6,0.5,6,3.7,5.5,7
		c-0.9,5.9-1.8,11.7-2.8,17.6"/>
	<g>
		<g>
			<defs>
				<path id="SVGID_2_" d="M0,0v733.5v4.6v29.6c3.3-0.8,50.1-11.6,95.2,3.1c46.8,15.3,76.3,25.2,111,25.2s74-11.9,112.3-27.4
					S415,764,418,767v-27V0H0z"/>
			</defs>
			<clipPath id="SVGID_3_">
				<use xlink:href="#SVGID_2_"  style="overflow:visible;"/>
			</clipPath>
			<g class="st6">
				<linearGradient id="SVGID_4_" gradientUnits="userSpaceOnUse" x1="206.25" y1="795.9999" x2="206.25" y2="827">
					<stop  offset="0" style="stop-color:#61CBF7"/>
					<stop  offset="1" style="stop-color:#467EF7"/>
				</linearGradient>
				<path class="st7" d="M162.7,803c0,13.3,10.7,24,24,24h39.1c13.3,0,24-10.7,24-24v-7h-87.1V803z"/>
				<linearGradient id="SVGID_5_" gradientUnits="userSpaceOnUse" x1="206.65" y1="633.4" x2="206.65" y2="795.9999">
					<stop  offset="0" style="stop-color:#61CBF7"/>
					<stop  offset="1" style="stop-color:#467EF7"/>
				</linearGradient>
				<path class="st8" d="M250.1,781v-62.5l0.1-33.7V683l0.1-12.8v-4.1v-6.8c0-0.1,0-0.3,0-0.4c0-1.6,0.6-3.1,1.7-4.2l9.3-10.3
					c3.8-4.3,0.8-11-4.8-11h-99.7c-5.6,0-8.6,6.7-4.8,10.8l9.3,10.3c1,1.2,1.6,2.7,1.6,4.2l-0.1,25.6l-0.1,13.3v15.3v9.1v58.9
					c0,0.2,0,0.5,0,0.7V796h87.1v-9.6C250,784.6,250.1,782.8,250.1,781z"/>
				<g>
					<g>
						<path class="st3" d="M187.8,655.4c-0.6,0-1.2,0.5-1.2,1.2v3.9c0,0.6,0.5,1.2,1.2,1.2c0.6,0,1.2-0.5,1.2-1.2v-3.9
							C189,656,188.5,655.4,187.8,655.4z"/>
						<path class="st3" d="M198,665.7h-3.9c-0.6,0-1.2,0.5-1.2,1.2c0,0.7,0.6,1.3,1.2,1.2h3.9c0.6,0,1.2-0.5,1.2-1.2
							C199.2,666.3,198.7,665.7,198,665.7z"/>
						<path class="st3" d="M193.2,670.6c-0.5-0.5-1.3-0.5-1.8,0c-0.5,0.4-0.5,1.2,0,1.8l2.7,2.7c0.5,0.5,1.3,0.5,1.8,0
							s0.5-1.3,0-1.8L193.2,670.6z"/>
						<path class="st3" d="M181.4,658.7c-0.5-0.5-1.3-0.5-1.8,0s-0.5,1.3,0,1.8l2.7,2.7c0.5,0.5,1.3,0.5,1.8,0s0.5-1.2,0-1.8
							L181.4,658.7z"/>
						<path class="st3" d="M194.1,658.7l-2.7,2.7c-0.5,0.5-0.5,1.3,0,1.8s1.3,0.5,1.8,0l2.7-2.7c0.5-0.5,0.5-1.3,0-1.8
							S194.6,658.2,194.1,658.7z"/>
						<path class="st3" d="M188.9,666.4L188.9,666.4c0-0.1,0-0.2-0.1-0.2c-0.1-0.1-0.2-0.3-0.4-0.4c0,0-0.1,0-0.1-0.1h-0.1h-0.1H188
							c-0.1,0-0.2,0-0.2,0h-10.3c-0.7,0-1.2,0.6-1.2,1.2c0,0.7,0.6,1.2,1.2,1.2h7.3l-5.2,5.2c-0.5,0.5-0.5,1.3,0,1.8
							c0.2,0.2,0.6,0.4,0.9,0.4s0.6-0.1,0.9-0.4l5.2-5.2v7.3c0,0.7,0.6,1.2,1.2,1.2c0.7,0,1.2-0.6,1.2-1.2v-10.3
							C189,666.8,189,666.6,188.9,666.4L188.9,666.4z"/>
						<path class="st3" d="M206.9,661.6c-0.4,0-0.7,0.1-0.9,0.3c-0.3,0.2-0.4,0.5-0.4,0.9v8.3c0,0.4,0.2,0.7,0.4,0.9
							c0.3,0.2,0.6,0.3,0.9,0.3c0.4,0,0.7-0.1,0.9-0.3c0.3-0.3,0.4-0.6,0.4-0.9v-8.3c0-0.4-0.2-0.7-0.4-0.9
							C207.5,661.7,207.2,661.6,206.9,661.6z"/>
						<path class="st3" d="M215.7,661.9c-0.1-0.1-0.3-0.2-0.4-0.3c-0.1-0.1-0.2-0.1-0.4-0.1h-4.5c-0.1,0-0.3,0-0.4,0.1
							c-0.2,0.1-0.3,0.2-0.4,0.3c-0.1,0.1-0.2,0.2-0.3,0.4c-0.1,0.2-0.1,0.3-0.1,0.5c0,0.1,0,0.3,0.1,0.4c0.1,0.2,0.2,0.3,0.3,0.4
							c0.1,0.1,0.3,0.2,0.4,0.3s0.2,0.1,0.4,0.1h0.8h0.2h-0.2v7.1c0,0.4,0.2,0.7,0.4,0.9c0.3,0.2,0.6,0.3,0.9,0.3
							c0.4,0,0.7-0.1,0.9-0.3c0.3-0.3,0.4-0.5,0.4-0.9V664h1.1c0.1,0,0.3,0,0.4-0.1c0.2-0.1,0.3-0.2,0.4-0.3
							c0.1-0.1,0.2-0.3,0.3-0.4c0.1-0.1,0.1-0.3,0.1-0.4c0-0.2,0-0.3-0.1-0.5C215.9,662.1,215.8,662,215.7,661.9z"/>
						<path class="st3" d="M219.4,664.8c0.2-0.2,0.5-0.4,0.9-0.6c0.4-0.2,0.8-0.3,1.2-0.3c0.4,0,0.7,0.1,1,0.2
							c0.4,0.2,0.7,0.3,0.9,0.5c0.3,0.2,0.6,0.3,1.1,0.5c0.4,0,0.7-0.2,0.9-0.4c0.3-0.3,0.4-0.6,0.4-0.9s-0.1-0.5-0.2-0.7
							c-0.2-0.2-0.3-0.3-0.4-0.4c0,0-0.1-0.1-0.3-0.2c-0.2-0.1-0.4-0.3-0.7-0.4c-0.3-0.2-0.6-0.3-1-0.4c-0.4-0.1-0.9-0.2-1.4-0.2
							c-0.7,0-1.4,0.1-2.1,0.4c-0.6,0.3-1.2,0.7-1.7,1.2s-0.9,1-1.2,1.7c-0.3,0.7-0.4,1.4-0.4,2.1c0,0.7,0.1,1.4,0.4,2.1
							c0.3,0.6,0.7,1.2,1.2,1.7s1,0.9,1.7,1.2c0.7,0.3,1.4,0.4,2.1,0.4c0.5,0,1-0.1,1.4-0.2c0.4-0.1,0.7-0.3,1-0.4
							c0.3-0.1,0.5-0.3,0.7-0.4c0.1-0.2,0.3-0.3,0.3-0.3c0.1-0.1,0.3-0.2,0.4-0.4c0.1-0.2,0.2-0.4,0.2-0.7c0-0.4-0.2-0.7-0.4-0.9
							c-0.3-0.2-0.6-0.3-0.9-0.3c-0.4,0-0.6,0.1-0.9,0.3s-0.6,0.4-0.9,0.5c-0.4,0.1-0.7,0.2-1,0.2c-0.4,0-0.7-0.1-1.1-0.3
							c-0.4-0.1-0.7-0.3-1-0.6c-0.3-0.2-0.5-0.6-0.7-0.9s-0.3-0.7-0.3-1.1c0-0.4,0-0.7,0.2-1.1C218.9,665.4,219.1,665.1,219.4,664.8
							z"/>
						<path class="st3" d="M236.2,666.6c-0.4-0.3-0.8-0.3-0.8-0.3h-3.9c-0.4,0-0.7,0.2-0.9,0.4c-0.2,0.3-0.3,0.6-0.3,0.9
							c0,0.4,0.1,0.7,0.3,0.9c0.3,0.3,0.6,0.4,0.9,0.4h2.1c-0.3,0.3-0.6,0.6-1,0.8c-0.4,0.2-0.8,0.3-1.3,0.3c-0.4,0-0.7,0-1.1-0.2
							c-0.3-0.1-0.7-0.4-0.9-0.6s-0.4-0.5-0.6-0.9c-0.1-0.4-0.2-0.8-0.2-1.2s0-0.8,0.2-1.2c0.1-0.4,0.3-0.7,0.6-1
							c0.2-0.2,0.5-0.4,0.9-0.6c0.3-0.1,0.7-0.2,1.1-0.2c0.3,0,0.7,0.1,1,0.2c0.4,0.2,0.7,0.3,0.9,0.5c0.3,0.2,0.6,0.3,0.9,0.3
							c0.4,0,0.7-0.2,0.9-0.4c0.3-0.3,0.4-0.6,0.4-0.9s-0.1-0.5-0.2-0.7c-0.2-0.2-0.3-0.3-0.4-0.4c0,0-0.1-0.1-0.3-0.2
							c-0.2-0.1-0.4-0.3-0.7-0.4c-0.3-0.2-0.6-0.3-1-0.4c-0.4-0.1-0.9-0.2-1.4-0.2c-0.7,0-1.4,0.1-2.1,0.4c-0.6,0.3-1.2,0.7-1.7,1.2
							s-0.9,1-1.2,1.7c-0.3,0.6-0.4,1.4-0.4,2.1s0.1,1.4,0.4,2.1c0.3,0.6,0.7,1.2,1.2,1.7s1,0.9,1.7,1.2c0.7,0.3,1.4,0.4,2.1,0.4
							s1.4-0.1,2.1-0.4c0.6-0.3,1.2-0.7,1.7-1.2s0.9-1,1.2-1.7c0.2-0.4,0.3-0.9,0.4-1.3C236.8,667.2,236.6,666.9,236.2,666.6z"/>
					</g>
				</g>
				<path class="st5" d="M280.6,584.3c-47.5-6.9-95.7-6.9-143.2,0c-3.6,0.5-6.1,3.7-5.5,7c0.9,5.9,1.9,11.7,2.8,17.6
					c0.5,3.3,3.6,5.6,7,5.1c44.6-6.5,90-6.5,134.6,0c3.3,0.5,6.5-1.8,7-5.1c0.9-5.9,1.9-11.7,2.8-17.6
					C286.6,588,284.2,584.8,280.6,584.3z"/>
				<g>
					<linearGradient id="SVGID_6_" gradientUnits="userSpaceOnUse" x1="205.986" y1="600.5" x2="205.986" y2="642.9833">
						<stop  offset="0" style="stop-color:#4625C1"/>
						<stop  offset="1" style="stop-color:#467EF7"/>
					</linearGradient>
					<path class="st9" d="M268.4,606.8c-41.4-8.4-83.5-8.4-124.9,0c-3.1,0.7-5.3,4.5-4.7,8.5c0.8,7.2,1.6,14.3,2.4,21.4
						c0.4,4,3.2,6.8,6.1,6.2c38.9-7.9,78.5-7.9,117.4,0c2.9,0.6,5.6-2.1,6.1-6.2c0.8-7.2,1.6-14.3,2.4-21.4
						C273.7,611.3,271.5,607.4,268.4,606.8z"/>
					<g>
						<g>
							<linearGradient id="SVGID_7_" gradientUnits="userSpaceOnUse" x1="148.1446" y1="611.5056" x2="148.1446" y2="635.3483">
								<stop  offset="0" style="stop-color:#61CBF7"/>
								<stop  offset="1" style="stop-color:#467EF7"/>
							</linearGradient>
							<path class="st10" d="M149.3,613.5c-0.5-3.3-5.9-2.4-5.3,0.8c1.1,6.3,2.2,12.6,3.3,19c0.6,3.2,5.5,2.3,5-0.8
								C151.3,626.2,150.3,619.8,149.3,613.5z"/>
						</g>
						<g>
							<linearGradient id="SVGID_8_" gradientUnits="userSpaceOnUse" x1="167.0508" y1="608.6141" x2="167.0508" y2="632.5726">
								<stop  offset="0" style="stop-color:#61CBF7"/>
								<stop  offset="1" style="stop-color:#467EF7"/>
							</linearGradient>
							<path class="st11" d="M168.7,610.7c-0.3-3.1-5.7-2.5-5.3,0.7c0.8,6.4,1.5,12.7,2.3,19.1c0.4,3.2,5.4,2.6,5-0.6
								C170,623.5,169.4,617.1,168.7,610.7z"/>
						</g>
						<g>
							<linearGradient id="SVGID_9_" gradientUnits="userSpaceOnUse" x1="186.0002" y1="607.0699" x2="186.0002" y2="631.1288">
								<stop  offset="0" style="stop-color:#61CBF7"/>
								<stop  offset="1" style="stop-color:#467EF7"/>
							</linearGradient>
							<path class="st12" d="M182.9,609.7c0.4,6.4,0.8,12.8,1.2,19.2c0.2,3.2,5.2,2.9,5-0.3c-0.3-6.4-0.6-12.8-0.9-19.2
								C188.1,606.1,182.7,606.4,182.9,609.7z"/>
						</g>
						<g>
							<linearGradient id="SVGID_10_" gradientUnits="userSpaceOnUse" x1="205.15" y1="606.5951" x2="205.15" y2="630.6814">
								<stop  offset="0" style="stop-color:#61CBF7"/>
								<stop  offset="1" style="stop-color:#467EF7"/>
							</linearGradient>
							<path class="st13" d="M202.5,609c0,6.4,0.1,12.8,0.1,19.3c0,3.2,5,3.2,5.1,0c0-6.4,0.1-12.8,0.1-19.3
								C207.9,605.7,202.4,605.7,202.5,609z"/>
						</g>
						<g>
							<linearGradient id="SVGID_11_" gradientUnits="userSpaceOnUse" x1="224.2053" y1="607.0699" x2="224.2053" y2="631.1296">
								<stop  offset="0" style="stop-color:#61CBF7"/>
								<stop  offset="1" style="stop-color:#467EF7"/>
							</linearGradient>
							<path class="st14" d="M222,609.4c-0.3,6.4-0.6,12.8-0.9,19.2c-0.1,3.2,4.8,3.5,5,0.3c0.4-6.4,0.8-12.8,1.2-19.2
								C227.6,606.4,222.2,606.1,222,609.4z"/>
						</g>
						<g>
							<linearGradient id="SVGID_12_" gradientUnits="userSpaceOnUse" x1="243.254" y1="608.6882" x2="243.254" y2="632.6804">
								<stop  offset="0" style="stop-color:#61CBF7"/>
								<stop  offset="1" style="stop-color:#467EF7"/>
							</linearGradient>
							<path class="st15" d="M241.6,610.8c-0.7,6.4-1.3,12.8-2,19.2c-0.3,3.2,4.6,3.7,5,0.6c0.8-6.4,1.5-12.7,2.3-19.1
								C247.3,608.2,241.9,607.6,241.6,610.8z"/>
						</g>
						<g>
							<linearGradient id="SVGID_13_" gradientUnits="userSpaceOnUse" x1="262.1554" y1="611.3951" x2="262.1554" y2="635.2371">
								<stop  offset="0" style="stop-color:#61CBF7"/>
								<stop  offset="1" style="stop-color:#467EF7"/>
							</linearGradient>
							<path class="st16" d="M261,613.4c-1,6.3-2,12.7-3,19c-0.5,3.2,4.4,4,5,0.8c1.1-6.3,2.2-12.6,3.3-19
								C266.9,611.1,261.5,610.2,261,613.4z"/>
						</g>
					</g>
				</g>
				<linearGradient id="SVGID_14_" gradientUnits="userSpaceOnUse" x1="206.9" y1="690.3" x2="206.9" y2="748.9">
					<stop  offset="0" style="stop-color:#4625C1"/>
					<stop  offset="1" style="stop-color:#467EF7"/>
				</linearGradient>
				<path class="st17" d="M206.9,690.3c-7.1,0-12.9,5.7-12.9,12.8V736c0,7.1,5.8,12.9,12.9,12.9c7.1,0,12.9-5.8,12.9-12.9v-32.8
					C219.8,696.1,214,690.3,206.9,690.3z"/>
				<path class="st3" d="M206.9,695c-5.1,0-9.3,4.1-9.3,9.3v7.6c0,5.1,4.2,9.3,9.3,9.3c5.1,0,9.3-4.2,9.3-9.3v-7.6
					C216.2,699.2,212,695,206.9,695z"/>
				<g>
					<path class="st18" d="M204,704.6c-0.8,0-1.5,0.2-1.9,0.7c-0.4,0.5-0.7,1.1-0.7,1.8c0,0.3,0,0.5,0,0.7c0,0.3,0,0.6,0,0.9
						c0,0.8,0.3,1.3,0.7,1.8c0.4,0.5,1.1,0.7,1.9,0.7s1.5-0.2,1.9-0.7c0.4-0.5,0.7-1.1,0.7-1.8c0-0.3,0-0.6,0-0.9c0-0.2,0-0.4,0-0.7
						c0-0.8-0.3-1.4-0.7-1.8C205.4,704.8,204.8,704.6,204,704.6z M205.3,707.9c0,0.4,0,0.7,0,0.8c0,0.4-0.1,0.8-0.4,1
						c-0.2,0.3-0.6,0.4-1,0.4c-0.4,0-0.7-0.2-1-0.4c-0.2-0.2-0.4-0.6-0.4-1c0-0.3,0-0.6,0-0.8s0-0.5,0-0.8c0-0.4,0.1-0.8,0.4-1
						c0.3-0.2,0.6-0.4,1-0.4c0.4,0,0.8,0.2,1,0.4c0.2,0.2,0.4,0.6,0.4,1C205.3,707.3,205.3,707.5,205.3,707.9z"/>
					<path class="st18" d="M212.5,704.6h-0.7c-0.1,0-0.2,0.1-0.2,0.1c-0.1,0.1-0.1,0.1-0.1,0.2v3.7l-2.5-3.7
						c-0.1-0.1-0.3-0.2-0.4-0.2H208c-0.1,0-0.2,0.1-0.2,0.1c-0.1,0.1-0.1,0.1-0.1,0.2v5.8c0,0.1,0.1,0.2,0.1,0.2
						c0.1,0.1,0.1,0.1,0.2,0.1h0.7c0.1,0,0.2-0.1,0.2-0.1c0.1-0.1,0.1-0.1,0.1-0.2v-3.7l2.5,3.7c0.1,0.1,0.2,0.2,0.4,0.2h0.6
						c0.1,0,0.2-0.1,0.2-0.1c0.1-0.1,0.1-0.1,0.1-0.2v-5.8c0-0.1-0.1-0.2-0.1-0.2C212.6,704.6,212.6,704.6,212.5,704.6z"/>
				</g>
				<path class="st19" d="M244,725v50c0,44.7-5.5,42.5-38.4,42.5l0,0"/>
				<path class="st20" d="M189,739c0,0,0.4,17,17.9,16"/>
			</g>
		</g>
	</g>
</g>
<g id="Слой_2">
	<polygon class="st5" points="419.3,254 419.3,796 192,796 192,1050 610,1050 610,254 	"/>
	<rect x="192" y="254" class="st5" width="227.3" height="542"/>
</g>
</svg>
