<?xml version="1.0" encoding="utf-8"?>
<!-- Generator: Adobe Illustrator 22.0.1, SVG Export Plug-In . SVG Version: 6.00 Build 0)  -->
<svg version="1.1" id="bg" xmlns="http://www.w3.org/2000/svg" xmlns:xlink="http://www.w3.org/1999/xlink" x="0px" y="0px"
	 viewBox="0 0 418 740" style="enable-background:new 0 0 418 740;" xml:space="preserve">
<style type="text/css">
	.st0{fill:#FFFFFF;}
</style>
<path class="st0" d="M227.8,160.4C227.8,160.4,227.8,160.4,227.8,160.4c0-0.1,0-0.1-0.1-0.2c0,0,0,0,0,0c0,0,0-0.1-0.1-0.1
	c0,0,0,0,0,0c0-0.1-0.1-0.1-0.1-0.1c0,0,0,0,0,0c-0.1-0.2-0.3-0.4-0.5-0.5c0,0,0,0,0,0c0,0-0.1-0.1-0.1-0.1c0,0,0,0,0,0
	c0,0-0.1,0-0.1-0.1c0,0,0,0,0,0c0,0-0.1,0-0.1-0.1c0,0,0,0,0,0c-0.1,0-0.1,0-0.2,0h0c-0.1,0-0.2,0-0.4,0h-15.2c-1,0-1.8,0.8-1.8,1.8
	c0,1,0.8,1.8,1.8,1.8h10.8l-7.6,7.6c-0.7,0.7-0.7,1.9,0,2.6c0.4,0.4,0.8,0.5,1.3,0.5c0.5,0,0.9-0.2,1.3-0.5l7.6-7.6v10.8
	c0,1,0.8,1.8,1.8,1.8c1,0,1.8-0.8,1.8-1.8v-15.2C227.9,160.7,227.9,160.5,227.8,160.4z"/>
</svg>
