<?xml version="1.0" encoding="utf-8"?>
<!-- Generator: Adobe Illustrator 22.0.1, SVG Export Plug-In . SVG Version: 6.00 Build 0)  -->
<svg version="1.1" id="bg" xmlns="http://www.w3.org/2000/svg" xmlns:xlink="http://www.w3.org/1999/xlink" x="0px" y="0px"
	 viewBox="0 0 100 100" style="enable-background:new 0 0 100 100;" xml:space="preserve">
<style type="text/css">
	.st0{fill:#FFFFFF;}
	.st1{fill:none;stroke:#FFFFFF;stroke-width:2.5;stroke-miterlimit:10;}
</style>
<rect x="35.3" y="15.7" class="st0" width="29.3" height="2.9"/>
<path class="st0" d="M78.6,63.4c0-2.8-2.3-5.1-5.1-5.1h-2.9V37.7h-2.9v20.5h-3.7c-2.8,0-5.1,2.3-5.1,5.1c0,1.4,0.6,2.7,1.6,3.7
	c-1,0.9-1.6,2.2-1.6,3.7c0,1,0.3,1.9,0.8,2.7c-1.8,0.8-3,2.6-3,4.6c0,0.8,0.2,1.5,0.5,2.2H45.6c0-4.5-2.2-8.5-5.7-10.8
	c3.3-1.3,5.7-4.5,5.7-8.2c0-0.8-0.7-1.5-1.5-1.5H32.4V45h-2.9v14.7c-2.4,0-4.4,2-4.4,4.4v32.3H28V64.1c0-0.8,0.7-1.5,1.5-1.5h13
	c-0.7,2.5-3,4.4-5.7,4.4h-4.4c-0.8,0-1.5,0.7-1.5,1.5c0,0.8,0.7,1.5,1.5,1.5c5.7,0,10.3,4.6,10.3,10.3v1.5c0,0.8,0.7,1.5,1.5,1.5
	h8.6c-0.3,0.7-0.5,1.4-0.5,2.2c0,2.8,2.3,5.1,5.1,5.1v5.9h2.9v-5.9h5.9h0.7c2.8,0,5.1-2.3,5.1-5.1c0-0.8-0.2-1.5-0.5-2.2
	c2.7-0.1,4.9-2.4,4.9-5.1c0-1-0.3-1.9-0.8-2.7c1.8-0.8,3-2.6,3-4.6c0-1.4-0.6-2.7-1.6-3.7C78,66.1,78.6,64.8,78.6,63.4z M66.9,87.6
	h-0.7h-7.3h-1.5c-1.2,0-2.2-1-2.2-2.2s1-2.2,2.2-2.2h4.4h5.1c1.2,0,2.2,1,2.2,2.2S68.1,87.6,66.9,87.6z M71.3,80.2h-4.4h-5.1
	c-1.2,0-2.2-1-2.2-2.2c0-1.2,1-2.2,2.2-2.2h2.2h7.3c1.2,0,2.2,1,2.2,2.2C73.5,79.2,72.5,80.2,71.3,80.2z M75.7,70.7
	c0,1.2-1,2.2-2.2,2.2h-2.2h-7.3c-1.2,0-2.2-1-2.2-2.2s1-2.2,2.2-2.2h9.5C74.7,68.5,75.7,69.5,75.7,70.7z M63.9,65.6
	c-1.2,0-2.2-1-2.2-2.2s1-2.2,2.2-2.2h9.5c1.2,0,2.2,1,2.2,2.2s-1,2.2-2.2,2.2H63.9z"/>
<path class="st0" d="M25.9,24.8c-0.4-1.8-2-3.2-3.9-3.2c-2.2,0-4,1.8-4,4c-1.2-0.2-2.3-0.7-3.3-1.3l-0.5-0.3c-0.4-0.3-1-0.3-1.5-0.1
	c-0.5,0.3-0.8,0.8-0.8,1.3v1.2c0,1.8,0.5,3.5,1.5,4.9l-1.1,1.1c-0.4,0.4-0.5,1-0.3,1.6c0.2,0.5,0.8,0.9,1.4,0.9h7.1
	c2.8,0,5.2-2.2,5.5-4.9l1.6-1.7c0.3-0.3,0.4-0.7,0.4-1.1c0-0.4-0.2-0.8-0.6-1.1L25.9,24.8z M23.5,28.2c-0.3,0.3-0.4,0.6-0.4,1
	c0,1.5-1.2,2.6-2.6,2.6h-3.7c0.2-0.5,0.1-1.2-0.3-1.6c-0.7-0.7-1.2-1.6-1.4-2.5c1.4,0.6,2.9,0.9,4.4,0.9c0.8,0,1.5-0.7,1.5-1.5v-1.5
	c0-0.6,0.5-1.1,1.1-1.1c0.6,0,1.1,0.5,1.1,1.1c0,0.5,0.2,0.9,0.6,1.2l0.7,0.5L23.5,28.2z"/>
<path class="st0" d="M48.5,31.8v4.4h-2.9v2.9h2.9V45h2.9v-5.9h2.9v-2.9h-2.9v-2.9h2.9v-2.9H50C49.2,30.4,48.5,31,48.5,31.8z"/>
<path class="st0" d="M63.2,46.5V28.9c0-2.4-2-4.4-4.4-4.4H41.2c-2.4,0-4.4,2-4.4,4.4v17.6c0,2.4,2,4.4,4.4,4.4h17.6
	C61.2,50.9,63.2,48.9,63.2,46.5z M39.7,46.5V28.9c0-0.8,0.7-1.5,1.5-1.5h17.6c0.8,0,1.5,0.7,1.5,1.5v17.6c0,0.8-0.7,1.5-1.5,1.5
	H41.2C40.4,48,39.7,47.3,39.7,46.5z"/>
<path class="st0" d="M32.4,37.7V20.1c0-2.4-2-4.4-4.4-4.4H10.4c-2.4,0-4.4,2-4.4,4.4v17.6c0,2.4,2,4.4,4.4,4.4H28
	C30.4,42.1,32.4,40.1,32.4,37.7z M8.9,37.7V20.1c0-0.8,0.7-1.5,1.5-1.5H28c0.8,0,1.5,0.7,1.5,1.5v17.6c0,0.8-0.7,1.5-1.5,1.5H10.4
	C9.6,39.2,8.9,38.5,8.9,37.7z"/>
<path class="st0" d="M89.6,8.4H72c-2.4,0-4.4,2-4.4,4.4v17.6c0,2.4,2,4.4,4.4,4.4h17.6c2.4,0,4.4-2,4.4-4.4V12.8
	C94,10.3,92,8.4,89.6,8.4z M72,11.3h17.6c0.8,0,1.5,0.7,1.5,1.5v7.3H88c-0.7-3.3-3.6-5.9-7.2-5.9c-3.5,0-6.5,2.5-7.2,5.9h-3.1v-7.3
	C70.5,12,71.2,11.3,72,11.3z M85.2,21.6c0,2.4-2,4.4-4.4,4.4c-2.4,0-4.4-2-4.4-4.4s2-4.4,4.4-4.4C83.2,17.2,85.2,19.1,85.2,21.6z
	 M89.6,31.8H72c-0.8,0-1.5-0.7-1.5-1.5V23h3.1c0.7,3.3,3.6,5.9,7.2,5.9c3.5,0,6.5-2.5,7.2-5.9h3.1v7.3
	C91.1,31.2,90.4,31.8,89.6,31.8z"/>
<rect x="48.5" y="68.5" class="st0" width="2.9" height="2.9"/>
</svg>
