<?xml version="1.0" encoding="utf-8"?>
<!-- Generator: Adobe Illustrator 22.0.1, SVG Export Plug-In . SVG Version: 6.00 Build 0)  -->
<svg version="1.1" id="Capa_1" xmlns="http://www.w3.org/2000/svg" xmlns:xlink="http://www.w3.org/1999/xlink" x="0px" y="0px"
	 viewBox="-49 141 512 512" style="enable-background:new -49 141 512 512;" xml:space="preserve">
<rect x="127" y="197" width="160" height="16"/>
<path d="M363,457c0-15.4-12.6-28-28-28h-16V317h-16v112h-20c-15.4,0-28,12.6-28,28c0,7.8,3.3,14.9,8.5,20c-5.2,5.1-8.5,12.2-8.5,20
	c0,5.4,1.6,10.4,4.3,14.7c-9.6,4.5-16.3,14.1-16.3,25.3c0,4.3,1.1,8.3,2.8,12H183c0-24.5-12.3-46.1-31-59.1
	c18.1-6.9,31-24.4,31-44.9c0-4.4-3.6-8-8-8h-64v-80H95v80c-13.2,0-24,10.8-24,24v176h16V461c0-4.4,3.6-8,8-8h71
	c-3.6,13.8-16.1,24-31,24h-24c-4.4,0-8,3.6-8,8s3.6,8,8,8c30.9,0,56,25.1,56,56v8c0,4.4,3.6,8,8,8h46.8c-1.7,3.7-2.8,7.7-2.8,12
	c0,15.4,12.6,28,28,28v32h16v-32h32h4c15.4,0,28-12.6,28-28c0-4.4-1.1-8.4-2.9-12.1C339,564.3,351,552.1,351,537
	c0-5.4-1.6-10.4-4.3-14.7c9.6-4.5,16.3-14.1,16.3-25.3c0-7.8-3.3-14.9-8.5-20C359.7,471.9,363,464.8,363,457z M299,589h-4h-40h-8
	c-6.6,0-12-5.4-12-12s5.4-12,12-12h24h28c6.6,0,12,5.4,12,12S305.6,589,299,589z M323,549h-24h-28c-6.6,0-12-5.4-12-12s5.4-12,12-12
	h12h40c6.6,0,12,5.4,12,12S329.6,549,323,549z M347,497c0,6.6-5.4,12-12,12h-12h-40c-6.6,0-12-5.4-12-12s5.4-12,12-12h52
	C341.6,485,347,490.4,347,497z M283,469c-6.6,0-12-5.4-12-12s5.4-12,12-12h52c6.6,0,12,5.4,12,12s-5.4,12-12,12H283z"/>
<path d="M75.5,246.7c-2-10.1-10.8-17.7-21.4-17.7c-11.9,0-21.7,9.7-21.8,21.7c-6.4-1.1-12.5-3.6-18-7.3l-2.8-1.9
	c-2.4-1.7-5.6-1.8-8.2-0.4c-2.6,1.4-4.2,4.1-4.2,7.1v6.6c0,9.6,2.9,18.8,8.3,26.6l-6,6.1c-2.3,2.3-2.9,5.7-1.7,8.7
	c1.2,3,4.2,4.9,7.4,4.9h38.8c15.5,0,28.2-11.8,30-26.9l9-9.1c1.6-1.6,2.5-3.9,2.3-6.2c-0.2-2.3-1.3-4.4-3.1-5.8L75.5,246.7z
	 M62.2,265c-1.5,1.5-2.3,3.5-2.3,5.6c0,7.9-6.4,14.4-14.2,14.4H25.4c1.3-2.9,0.7-6.4-1.6-8.8c-3.7-3.8-6.4-8.5-7.8-13.7
	c7.6,3.2,15.8,4.9,24.2,4.9c4.4,0,8-3.6,8-8V251c0-3.3,2.6-6,5.8-6s5.8,2.7,5.8,6c0,2.5,1.2,4.9,3.2,6.4l3.8,2.9L62.2,265z"/>
<path d="M199,285v24h-16v16h16v32h16v-32h16v-16h-16v-16h16v-16h-24C202.6,277,199,280.6,199,285z"/>
<path d="M279,365v-96c0-13.2-10.8-24-24-24h-96c-13.2,0-24,10.8-24,24v96c0,13.2,10.8,24,24,24h96C268.2,389,279,378.2,279,365z
	 M151,365v-96c0-4.4,3.6-8,8-8h96c4.4,0,8,3.6,8,8v96c0,4.4-3.6,8-8,8h-96C154.6,373,151,369.4,151,365z"/>
<path d="M111,317v-96c0-13.2-10.8-24-24-24H-9c-13.2,0-24,10.8-24,24v96c0,13.2,10.8,24,24,24h96C100.2,341,111,330.2,111,317z
	 M-17,317v-96c0-4.4,3.6-8,8-8h96c4.4,0,8,3.6,8,8v96c0,4.4-3.6,8-8,8H-9C-13.4,325-17,321.4-17,317z"/>
<path d="M423,157h-96c-13.2,0-24,10.8-24,24v96c0,13.2,10.8,24,24,24h96c13.2,0,24-10.8,24-24v-96C447,167.8,436.2,157,423,157z
	 M327,173h96c4.4,0,8,3.6,8,8v40h-16.8c-3.7-18.2-19.9-32-39.2-32s-35.5,13.8-39.2,32H319v-40C319,176.6,322.6,173,327,173z
	 M399,229c0,13.2-10.8,24-24,24s-24-10.8-24-24s10.8-24,24-24S399,215.8,399,229z M423,285h-96c-4.4,0-8-3.6-8-8v-40h16.8
	c3.7,18.2,19.9,32,39.2,32s35.5-13.8,39.2-32H431v40C431,281.4,427.4,285,423,285z"/>
<rect x="199" y="485" width="16" height="16"/>
</svg>
