<?xml version="1.0" encoding="utf-8"?>
<!-- Generator: Adobe Illustrator 22.0.1, SVG Export Plug-In . SVG Version: 6.00 Build 0)  -->
<svg version="1.1" id="bg" xmlns="http://www.w3.org/2000/svg" xmlns:xlink="http://www.w3.org/1999/xlink" x="0px" y="0px"
	 viewBox="0 0 624 802.2" style="enable-background:new 0 0 624 802.2;" xml:space="preserve">
<style type="text/css">
	.st0{fill:#B2320F;}
	.st1{fill:#FFFFFF;}
	.st2{opacity:0.15;fill:#FFFFFF;}
	.st3{fill:#E6E7E9;}
	.st4{fill:#1F9B83;}
	.st5{fill:#FF9B24;}
	.st6{fill:#53A9F4;}
	.st7{fill:#6535E4;}
	.st8{fill:url(#SVGID_1_);}
	.st9{fill:url(#SVGID_2_);}
	.st10{fill:#3537AB;}
	.st11{fill:url(#SVGID_3_);}
	.st12{fill:none;stroke:#3537AB;stroke-width:0.5;stroke-miterlimit:10;}
	.st13{fill:none;stroke:#3F89F2;stroke-miterlimit:10;}
	.st14{fill:url(#SVGID_4_);}
	.st15{fill:none;stroke:#FFFFFF;stroke-width:0.5;stroke-miterlimit:10;}
	.st16{fill:none;stroke:#E6E7E9;stroke-width:0.5;stroke-miterlimit:10;}
	.st17{fill:#61AAF7;}
	.st18{fill:none;stroke:#177563;stroke-width:0.5;stroke-miterlimit:10;}
	.st19{fill:#3DC1A7;}
	.st20{fill:none;stroke:#1F9B83;stroke-width:0.5;stroke-miterlimit:10;}
	.st21{fill:none;stroke:#FFFFFF;stroke-miterlimit:10;}
	.st22{fill:url(#SVGID_5_);}
	.st23{fill:none;stroke:#D9DBE8;stroke-width:0.5;stroke-miterlimit:10;}
</style>
<ellipse class="st0" cx="307.5" cy="729.7" rx="162.4" ry="22.3"/>
<polygon class="st1" points="366.6,795.7 563.7,0 53.8,37.8 235.7,802.2 "/>
<polygon class="st2" points="366.6,795.7 624,0 0,37.8 235.7,802.2 "/>
<g>
	<path class="st3" d="M374.3,652.8c-2.5-5-8.2-12.1-13.7-18.7c-1.1,0-2.1,0-3-0.1l0.5-0.3c0,0-10.2-85.3-10.2-85.4
		c-4.6-2.3-27.8-13.2-63.2-12.5c-0.2-0.3-0.3-0.5-0.5-0.8c-11.9-15.4-15.6-26.5-14.7-34.8c0.3,0,0.6,0.1,0.9,0.2
		c7.3,1,13.9,0.9,19.7,0.1l12.7,2.2l0.4-3.2l4.2,5.7l10.8-4.6l-1.3-4.3l15.8,2.7l0.7-5.9c0.6,1.1,3.2,1.2,3.1-1.7l2.8,1.3l11.1-3.5
		c4.2,1.1,8.9-0.1,11.6-3.8c0.6-0.9,0.3-1.8-0.4-2.3c2.5-2.8,3.1-6.4,1.3-8c-0.3-0.2-0.5-0.4-0.8-0.5c-0.4-0.2-0.8-0.4-1.3-0.4
		c-0.2,0-0.3,0-0.5,0.1c-0.1-0.1-0.2-0.3-0.3-0.4l-1.3-2.4c0.4-0.4,0.8-0.7,1.2-1c1.8-1.2-0.2-3.9-2-2.7c-0.3,0.2-0.6,0.4-0.9,0.7
		l-0.1-0.2l-3.8-12.3l-10.9,1.6l-4-7l-7.9-0.1l-0.9-5.4c0,0-10.5-2.6-11-2.6c-0.4,0-3.9,0.5-7.6,1c-0.6,0.1-1.2,0.1-1.9,0.1
		c3-3,12.6-13.4,17.9-28.2c2.4,0.1,4.5-0.3,4.8-1.4c0-0.2-0.2-0.5-0.7-0.9c-0.6-0.6-1.5-1.3-2.7-2c0.3-1,0.5-2.1,0.8-3.1
		c3.2-1,6.5-3.5,5.3-9.2l-4.1-0.4c0.1-1.5,0.1-3,0-4.5c-0.1-3.4-1.2-11.7-2.3-16.3c0,0,0,0,0,0s7.6-8-10.2-13.7
		c-17.8-5.7-33.9,0.2-29.6,12.3c-2.9,7.3-4.2,22-4.3,23.7c-1.6,0.8-2.8,2.3-3,4.1c-0.4,2.3,0.8,4.5,2.8,5.6l-0.4,0
		c0.6,0.3,1.2,0.5,1.7,0.5c0,0,0.1,0,0.1,0c0.8,8.5,3.7,18.2,9.3,30.7l-0.7,4c-1,0.7-2.1,1.5-3.1,2.1c-5.1-0.7-10.2-0.6-15.3,0.1
		l1.6-1.2l-6.9-7.3l-10.2-3.1l-9.4,7.9l8.7,2.3l7.3,3.2C191,468.2,221,557.1,221,557.1l1.4-0.1c5.4,10.2,24.9,45,51.9,69.5
		c0,0-21.4,33.4-27.4,75.3c0,0-0.1,0-0.1,0c-0.7,3.2-0.7,9.7-0.7,9.7s13.3,1.1,28.1,0c1.4-0.1,1.9-2,0.6-2.7c-4-2.4-10.8-6-17.5-7.7
		c-1.7,0.1-3.4,0.2-5.1,0.3c2.6-5.1,25.6-49.7,39.2-75c0,0-2.9-22-10.2-46.6c-0.6-2-1.2-3.8-1.7-5.5c15.8-0.9,36.2-3.2,55.5-8.9
		c1.1,12.5,5,40.7,17.9,68.5c-0.3,0-0.5,0-0.8,0c-1.4,1.9-2.5,3.7-2.5,3.7s10.6,9.6,22.9,17.2C373.5,655.5,375,654.1,374.3,652.8z"
		/>
	<path class="st3" d="M336,445.6l8.8,5.3C342.7,445.4,336,445.6,336,445.6z"/>
	<path class="st3" d="M341.2,443.8l6,5.2C346,444.4,341.2,443.8,341.2,443.8z"/>
	<path class="st3" d="M229.7,403l8.8,5.3C236.4,402.8,229.7,403,229.7,403z"/>
	<path class="st3" d="M239.7,433.3l-6.7-4.2C234.8,433.4,239.7,433.3,239.7,433.3z"/>
	<path class="st3" d="M267.7,435l6.9,3.9C272.6,434.8,267.7,435,267.7,435z"/>
	<path class="st3" d="M224.1,454.8l-7.1-3.5C219.3,455.3,224.1,454.8,224.1,454.8z"/>
	<path class="st3" d="M253.2,446.4l-7.1-3.5C248.4,447,253.2,446.4,253.2,446.4z"/>
	<path class="st3" d="M297.9,505.5c0,0,7.7,5.5,14.8,0.8L297.9,505.5z"/>
	<path class="st3" d="M309.1,510l-8.5-1.7C300.6,508.3,304.9,511.8,309.1,510z"/>
	<polygon class="st3" points="229.8,417.3 233.9,410.5 224.7,406.4 214.1,407.5 208.5,418.4 217.4,417.2 	"/>
	<polygon class="st3" points="225.8,453.5 237.4,449.9 230.3,444.4 221.8,435.5 214,437.3 217.5,446.7 	"/>
</g>
<path class="st3" d="M377.7,750.3l9.6-40.5c-23.6-1.9-50.8-2.9-79.8-2.9c-34.9,0-67.2,1.5-93.7,4.2l9,38.1
	c24.7,2.1,53.7,3.3,84.7,3.3C332.7,752.5,356.5,751.7,377.7,750.3z"/>
<polygon class="st4" points="330.5,514.4 337.5,523.9 348.4,519.3 345.6,509.9 "/>
<polygon class="st4" points="343,514.3 362.9,517.8 363.9,508.9 344.8,506.1 "/>
<polygon class="st4" points="313,518 333,521.4 334,512.6 314.9,509.8 "/>
<path class="st5" d="M389.6,502.1c-2.3,3.1-6.3,3.6-9.7,2c-2-0.9-3.2,2.2-1.3,3.1c4.7,2.1,10.4,1.2,13.6-3.1
	C393.5,502.4,390.8,500.4,389.6,502.1L389.6,502.1z"/>
<path class="st5" d="M390.2,489.2c1.8-1.2-0.2-3.9-2-2.7c-1.7,1.2-3.1,2.8-4.1,4.6c0.9,0.6,1.8,1.3,2.8,2
	C387.6,491.5,388.7,490.1,390.2,489.2z"/>
<ellipse transform="matrix(0.669 -0.7433 0.7433 0.669 -242.3284 453.9455)" class="st5" cx="388.5" cy="499" rx="7" ry="4.4"/>
<path class="st6" d="M387.5,491.7c0,0,0.2,1.8,2,1.7l-5.5,6.2c0,0-2-2.8,0.2-8.5"/>
<path class="st7" d="M328.6,468.4c-6.6,0.8-12,2.3-16.4,4.6c3.1,3,6.1,6.1,9.5,9.1c0.9,0.7,1.8,1.4,2.7,2.2c4.6-0.2,9.6-0.1,15-1
	c22.7-4,40.1,10.1,45.4,15.1c0.7,0.7,1.9,0.4,2.3-0.5c0.2-0.5,0.4-1,0.7-1.5c1.6-2.4,3.3-2.6,3.3-2.6
	C390.7,493.4,373.3,463.1,328.6,468.4z"/>
<linearGradient id="SVGID_1_" gradientUnits="userSpaceOnUse" x1="320.5595" y1="720.6545" x2="320.5595" y2="554.5617">
	<stop  offset="0" style="stop-color:#4625C1"/>
	<stop  offset="1" style="stop-color:#33313D"/>
</linearGradient>
<path class="st8" d="M378.1,567.1c-5.3-2.7-35.6-16.9-80.8-11.2l-5,11.7l-41.3,5.2c0,0,21.5,43.5,53.4,72.4c0,0-21.5,33.5-27.4,75.4
	h5c0,0,25-48.6,39.4-75.5c0,0-3.4-25.5-12-52.1c15.8-0.9,36.2-3.2,55.5-8.9c1.2,12.9,5.2,42.5,19.2,71.1l6.1-2.4
	C390.2,652.9,378.1,567.2,378.1,567.1z"/>
<path class="st4" d="M288.9,479.3l8.7-5.8l8.2,2.7l11.8-8c0,0,13.1-4.4,14.2-4.7c1.1-0.2,16.2-2.4,17.1-2.4c0.5,0,11,2.6,11,2.6
	l0.9,5.4l7.9,0.1l4,7l10.9-1.6l3.8,12.3l4.4,8.3l-5.3,10.9l-16.9,5.3l-4.2-2l-29.2,2.9l-22.5,4.4l-24-21.1L288.9,479.3z"/>
<linearGradient id="SVGID_2_" gradientUnits="userSpaceOnUse" x1="245.2378" y1="520.579" x2="342.9901" y2="520.579">
	<stop  offset="0" style="stop-color:#61CBF7"/>
	<stop  offset="1" style="stop-color:#467EF7"/>
</linearGradient>
<path class="st9" d="M251.1,575.9l26.3-2.1c9.7-0.8,28.6-7,35.6-14c2-2,3.2-3.5,1.3-5.9c-41.6-54.1,16.2-54.8,26.1-67
	c5-6.2,2.1-13.6-3-18.4c-3.4-0.3-6.7-0.7-9.9-1.5c-8.6-2.2-17.6-2.2-26.3-0.4C219.9,483.7,251.1,575.9,251.1,575.9z"/>
<ellipse transform="matrix(0.9958 -9.128795e-02 9.128795e-02 0.9958 -37.3381 30.6929)" class="st5" cx="316.8" cy="423.5" rx="5.7" ry="5.5"/>
<ellipse transform="matrix(0.1085 -0.9941 0.9941 0.1085 -117.2292 709.4822)" class="st10" cx="336.9" cy="420.1" rx="1.4" ry="1.6"/>
<ellipse transform="matrix(0.9958 -9.128795e-02 9.128795e-02 0.9958 -37.1245 34.3302)" class="st10" cx="356.7" cy="423" rx="1.2" ry="1.2"/>
<linearGradient id="SVGID_3_" gradientUnits="userSpaceOnUse" x1="315.2739" y1="430.4184" x2="362.0288" y2="430.4184">
	<stop  offset="0.127" style="stop-color:#FF9B24"/>
	<stop  offset="1" style="stop-color:#FFCB3D"/>
</linearGradient>
<path class="st11" d="M358.6,429.9c1.5-5.3,2.3-11.1,2.1-17.2c-0.1-4.2-1.8-16.1-3.1-19c-8-17.3-33.4-4.2-38.5,10.2
	c-5.9,16.7-5.7,30.2,5.8,55.8l-1.6,9c-0.4,2.4,0.8,4.8,3,5.8c2,1,4.8,1.5,7.8,0.1c1.6-0.7,2.7-2.2,3-3.9l1.4-7.5
	c0,0,12.5-11.4,18.8-29.1c2.4,0.1,4.5-0.3,4.8-1.4C362.1,432.3,360.7,431.2,358.6,429.9z"/>
<path class="st12" d="M327.2,427.7c0,0-0.8,5.3,5.5,8.1"/>
<path class="st12" d="M345.6,433.2c0,0,16.3,2.3,16.3-0.5s-18.2-10-18.2-10"/>
<path class="st13" d="M321.7,391.1"/>
<linearGradient id="SVGID_4_" gradientUnits="userSpaceOnUse" x1="319.9505" y1="420.404" x2="364.9543" y2="420.404">
	<stop  offset="0" style="stop-color:#4625C1"/>
	<stop  offset="1" style="stop-color:#33313D"/>
</linearGradient>
<path class="st14" d="M364.7,417.5l-44.8-4.1l0.3,5.5l2.8,0.9c0,0,5.1,12.3,19.3,2.7l1.5,0.6l10.5,4.4
	C354.4,427.4,366.8,427.8,364.7,417.5z"/>
<ellipse transform="matrix(0.9958 -9.128795e-02 9.128795e-02 0.9958 -36.9752 32.3747)" class="st1" cx="335.4" cy="420.4" rx="0.8" ry="0.8"/>
<ellipse transform="matrix(0.9958 -9.128795e-02 9.128795e-02 0.9958 -37.1448 34.4825)" class="st1" cx="358.4" cy="423.3" rx="0.8" ry="0.8"/>
<path class="st6" d="M390.7,652.9c-3.3,0-5.4-0.1-8.7-0.3c-1.4,1.9-2.5,3.7-2.5,3.7s10.6,9.6,22.9,17.2c1.2,0.8,2.7-0.6,2.1-1.9
	C401.9,666.7,396.2,659.6,390.7,652.9z"/>
<path class="st6" d="M304.7,727.6c-4-2.4-10.8-6-17.5-7.7c-3.5,0.2-7,0.5-10.5,0.8c-0.7,3.2-0.7,9.7-0.7,9.7s13.3,1.1,28.1,0
	C305.5,730.2,306,728.3,304.7,727.6z"/>
<path class="st15" d="M301.9,577c0,0,10.3,13.3,21.5,67.6"/>
<path class="st16" d="M317.9,428.4c0,0-2,1.2-4.7-0.1"/>
<path class="st17" d="M345.3,501.7c0,0-43.1-0.8-56.2-21.3l-4.4,33.6c0,0,25.5,15.8,63.1-4.8L345.3,501.7z"/>
<path class="st4" d="M346.6,466.1c-1.9-1.3-3.8-1.9-5.4-4c-4.3,0.6-12.4-1.1-13-1c-1.1,0.2-10.6,7.1-10.6,7.1l-3.5,2.4l5.5,0.2l0,1
	l-12.5-0.6l0,0.1l-1,6.8l-1-0.1l0.3-2l-7.7-2.5l-8.7,5.8l0.6,13.9c7.9,4.8,17.8,6.8,26.8,8.2c9.7,1,18.6,1.3,28.3-0.7
	c1.7-0.3,1.3-2,1.3-3c0.3-9.7,11.8-11.6,14.4-21.3C360.7,475.7,347.3,466.7,346.6,466.1z"/>
<ellipse class="st5" cx="391" cy="495.2" rx="2.3" ry="2.2"/>
<path class="st5" d="M391.9,500.5c0,1.2,0,3.8-1.3,3.8c-1.3,0-3.4-2.6-3.4-3.8s1-2.2,2.3-2.2S391.9,499.3,391.9,500.5z"/>
<polyline class="st18" points="298.4,475.1 304.2,487.7 298.2,491.7 "/>
<polyline class="st18" points="302,475.7 307.8,488.4 301.9,492.4 "/>
<polyline class="st18" points="327.1,463.3 328,478.7 337.8,480.4 "/>
<polyline class="st18" points="324.5,466.2 325.3,481.7 335.1,483.4 "/>
<polyline class="st18" points="318.7,474.2 315,491.5 307,491.5 "/>
<polyline class="st18" points="321,477.2 317.3,494.5 309.3,494.5 "/>
<polyline class="st18" points="348.3,462.9 349.9,481.2 360.8,482.7 "/>
<polyline class="st18" points="345.4,465.8 347,484.1 357.8,485.6 "/>
<polyline class="st18" points="372.7,477.6 369.9,491.2 382.2,491 382.8,478.5 "/>
<line class="st18" x1="373.6" y1="494.7" x2="385.9" y2="495.1"/>
<polyline class="st18" points="344.3,490.9 335.5,485.6 323.8,498.5 "/>
<polyline class="st18" points="345,496.3 336.2,490.9 324.4,503.8 "/>
<polyline class="st18" points="321.4,486 328.1,486 328.8,490.8 "/>
<ellipse transform="matrix(0.9916 -0.1294 0.1294 0.9916 -58.1407 49.9411)" class="st19" cx="355.2" cy="472.3" rx="2.9" ry="3.7"/>
<ellipse transform="matrix(0.9916 -0.1294 0.1294 0.9916 -58.185 47.2626)" class="st19" cx="334.6" cy="471.4" rx="2.9" ry="3.7"/>
<ellipse transform="matrix(0.9916 -0.1294 0.1294 0.9916 -61.298 45.7206)" class="st19" cx="321.2" cy="494.5" rx="2.2" ry="2.8"/>
<ellipse transform="matrix(7.431381e-02 -0.9972 0.9972 7.431381e-02 -192.3627 755.5968)" class="st19" cx="310.8" cy="481.4" rx="3.3" ry="2.6"/>
<ellipse transform="matrix(7.431381e-02 -0.9972 0.9972 7.431381e-02 -132.6499 824.1401)" class="st19" cx="377.6" cy="483.5" rx="3.3" ry="2.6"/>
<ellipse transform="matrix(0.5818 -0.8133 0.8133 0.5818 -245.4749 500.9325)" class="st19" cx="364.4" cy="489.2" rx="3.3" ry="2.6"/>
<ellipse transform="matrix(0.9456 -0.3252 0.3252 0.9456 -143.0387 148.9305)" class="st19" cx="374" cy="502.3" rx="3.3" ry="2.6"/>
<ellipse transform="matrix(0.5818 -0.8133 0.8133 0.5818 -259.8232 495.1614)" class="st19" cx="351.6" cy="500.2" rx="3.3" ry="2.6"/>
<ellipse transform="matrix(0.5964 -0.8027 0.8027 0.5964 -265.6844 471.9223)" class="st19" cx="336.4" cy="500.2" rx="3.3" ry="2.6"/>
<ellipse transform="matrix(0.5964 -0.8027 0.8027 0.5964 -275.5933 480.3348)" class="st19" cx="339.9" cy="514.2" rx="3.3" ry="2.6"/>
<ellipse transform="matrix(0.9657 -0.2597 0.2597 0.9657 -115.6656 93.6373)" class="st19" cx="296.5" cy="484.5" rx="2.6" ry="3.3"/>
<polyline class="st18" points="354.4,491.7 365.9,478.7 370.9,483.1 "/>
<path class="st4" d="M345.1,496.8l3.1-7.8c0,0,10.8,2.6,11.1,2.6"/>
<path class="st18" d="M345.1,496.8l3.1-7.8c0,0,10.8,2.6,11.1,2.6"/>
<polyline class="st18" points="343.5,511.2 359.3,514 361.5,504.8 "/>
<path class="st17" d="M347.8,509.2l-2.5-7.5c0,0-45.3,4.1-55.7-18.8l-0.7-5.7l-3.7,31.1c7.9,3.5,16.3,6.2,23.3,11.4
	C319,520,332.3,517.6,347.8,509.2z"/>
<g>
	<path class="st5" d="M360,504c3.3-2,7.2-0.9,9.7,1.8c1.5,1.6,3.8-0.8,2.4-2.4c-3.5-3.8-9.2-5.1-13.7-2.3
		C356.5,502.2,358.2,505.1,360,504L360,504z"/>
	<path class="st5" d="M360.4,501.3C360.6,501,360.3,501.5,360.4,501.3c0.1-0.2,0.2-0.4,0.3-0.7c0.4-0.7,0.8-1.3,1.4-1.8
		c1.9-1.9,4.4-1.8,6.9-0.9c2,0.7,2.9-2.5,0.9-3.2c-5.2-1.8-10.7,0.4-12.6,5.7C356.5,502.5,359.7,503.3,360.4,501.3L360.4,501.3z"/>
	<path class="st5" d="M353,495.4c0.1,0.1,0.1,0.2,0.2,0.3c-0.1-0.3,0.1,0.2,0.1,0.3c0.1,0.2,0.1,0.4,0.2,0.5
		c0.2,0.8,0.2,1.6-0.3,2.4c-1.1,1.8,1.8,3.5,2.9,1.7c1.3-2.1,1-4.7-0.2-6.8C354.9,491.8,352,493.5,353,495.4L353,495.4z"/>
	<path class="st5" d="M343.6,502.9l4.7-2.6c0.1-0.1,0.3-0.1,0.4-0.2c1.6-0.6,11.9-3.8,16.1,4.3c4.6,8.9-0.6,8.9-1.3,7.3
		c-0.6-1.3-1.2-5-3.5-5.9c-2.6-1.1-6.1,2.4-10.6-1.3l-3.3,2.9l0,0C344.7,506.3,343.8,504.7,343.6,502.9L343.6,502.9z"/>
	<path class="st20" d="M355.1,498.5c0,0-4.4,0.3-7.4,1.6"/>
</g>
<polyline class="st18" points="369,510.1 385.3,504.7 382.4,498.1 "/>
<path class="st5" d="M388.2,505.8c0,1.2-1,2.2-2.3,2.2c-1.3,0-3.3-1.7-3.3-3s1-2.2,2.3-2.2C386.2,502.8,388.2,504.5,388.2,505.8z"/>
<polyline class="st18" points="334.6,517.2 338,522.7 346.5,518.2 "/>
<line class="st21" x1="361.3" y1="474.8" x2="360" y2="462.8"/>
<line class="st21" x1="372.9" y1="475.1" x2="371.2" y2="482.2"/>
<path class="st20" d="M366.1,464.4c0,0,6.7-0.2,8.8,5.3"/>
<path class="st20" d="M371.2,462.6c0,0,4.8,0.7,6,5.2"/>
<path class="st20" d="M259.8,421.8c0,0,6.7-0.2,8.8,5.3"/>
<path class="st20" d="M269.8,452.2c0,0-4.9,0.1-6.7-4.2"/>
<path class="st20" d="M297.8,453.9c0,0,4.9-0.3,6.9,3.9"/>
<path class="st20" d="M254.2,473.6c0,0-4.8,0.6-7.1-3.5"/>
<path class="st20" d="M283.3,465.2c0,0-4.8,0.6-7.1-3.5"/>
<path class="st20" d="M328,524.3c0,0,7.7,5.5,14.8,0.8"/>
<path class="st20" d="M330.6,527.1c0,0,4.3,3.5,8.5,1.7"/>
<polygon class="st4" points="300.9,469.3 289.6,464.4 280.9,462.1 290.3,454.2 300.5,457.3 307.3,464.6 "/>
<ellipse transform="matrix(7.092636e-02 -0.9975 0.9975 7.092636e-02 -185.6887 722.2025)" class="st19" cx="294.8" cy="460.8" rx="2.6" ry="3.3"/>
<polygon class="st4" points="259.8,436.1 247.5,436 238.6,437.3 244.1,426.4 254.8,425.2 263.9,429.3 "/>
<ellipse transform="matrix(0.9459 -0.3245 0.3245 0.9459 -126.1484 104.7149)" class="st19" cx="250.9" cy="430.6" rx="3.3" ry="2.6"/>
<polygon class="st4" points="251.8,454.3 260.4,463.2 267.5,468.7 255.8,472.4 247.6,465.6 244.1,456.2 "/>
<ellipse transform="matrix(0.4503 -0.8929 0.8929 0.4503 -275.0708 482.2933)" class="st19" cx="254.1" cy="464.5" rx="2.6" ry="3.3"/>
<linearGradient id="SVGID_5_" gradientUnits="userSpaceOnUse" x1="314.2543" y1="403.213" x2="359.9807" y2="403.213">
	<stop  offset="0" style="stop-color:#4625C1"/>
	<stop  offset="1" style="stop-color:#33313D"/>
</linearGradient>
<path class="st22" d="M348.1,382.6c-17.8-5.7-33.9,0.2-29.6,12.3c-3.1,7.7-4.3,23.9-4.3,23.9c3.9-0.9,4.7,6.1,4.7,6.1l2,1.2
	c0,0-1.8-17.2,6.1-19.6c4.5-1.4,5.8-5.3,6.1-8.4c5.4,1.7,14.9,3.2,25.2-1.7C358.4,396.3,366,388.3,348.1,382.6z"/>
<path class="st23" d="M356.5,393.3c0,0-14.2,7.4-26.8-0.8"/>
<path class="st15" d="M303.4,519.9c-0.8-0.1-2-0.7-2.8-0.8c-8.4-1.1-15.3-5.1-20.5-9.4"/>
</svg>
