<?xml version="1.0" encoding="UTF-8" standalone="no"?>
<!-- Generator: Adobe Illustrator 22.0.1, SVG Export Plug-In . SVG Version: 6.00 Build 0)  -->

<svg
   xmlns:dc="http://purl.org/dc/elements/1.1/"
   xmlns:cc="http://creativecommons.org/ns#"
   xmlns:rdf="http://www.w3.org/1999/02/22-rdf-syntax-ns#"
   xmlns:svg="http://www.w3.org/2000/svg"
   xmlns="http://www.w3.org/2000/svg"
   xmlns:sodipodi="http://sodipodi.sourceforge.net/DTD/sodipodi-0.dtd"
   xmlns:inkscape="http://www.inkscape.org/namespaces/inkscape"
   version="1.1"
   id="bg"
   x="0px"
   y="0px"
   viewBox="0 0 210 370"
   width="210"
   xml:space="preserve"
   sodipodi:docname="thief.svg"
   inkscape:version="0.92.3 (2405546, 2018-03-11)"
   height="370"><metadata
   id="metadata517"><rdf:RDF><cc:Work
       rdf:about=""><dc:format>image/svg+xml</dc:format><dc:type
         rdf:resource="http://purl.org/dc/dcmitype/StillImage" /><dc:title></dc:title></cc:Work></rdf:RDF></metadata><defs
   id="defs515" /><sodipodi:namedview
   pagecolor="#000000"
   bordercolor="#666666"
   borderopacity="1"
   objecttolerance="10"
   gridtolerance="10"
   guidetolerance="10"
   inkscape:pageopacity="0"
   inkscape:pageshadow="2"
   inkscape:window-width="1366"
   inkscape:window-height="705"
   id="namedview513"
   showgrid="false"
   inkscape:zoom="0.98728495"
   inkscape:cx="10.420444"
   inkscape:cy="235.05719"
   inkscape:window-x="-8"
   inkscape:window-y="-8"
   inkscape:window-maximized="1"
   inkscape:current-layer="bg" />
<style
   type="text/css"
   id="style277">
	.st0{fill:#B2320F;}
	.st1{fill:#FFFFFF;}
	.st2{opacity:0.15;fill:#FFFFFF;}
	.st3{fill:#E6E7E9;}
	.st4{fill:#1F9B83;}
	.st5{fill:#FF9B24;}
	.st6{fill:#53A9F4;}
	.st7{fill:#6535E4;}
	.st8{fill:url(#SVGID_1_);}
	.st9{fill:url(#SVGID_2_);}
	.st10{fill:#3537AB;}
	.st11{fill:url(#SVGID_3_);}
	.st12{fill:none;stroke:#3537AB;stroke-width:0.5;stroke-miterlimit:10;}
	.st13{fill:none;stroke:#3F89F2;stroke-miterlimit:10;}
	.st14{fill:url(#SVGID_4_);}
	.st15{fill:none;stroke:#FFFFFF;stroke-width:0.5;stroke-miterlimit:10;}
	.st16{fill:none;stroke:#E6E7E9;stroke-width:0.5;stroke-miterlimit:10;}
	.st17{fill:#61AAF7;}
	.st18{fill:none;stroke:#177563;stroke-width:0.5;stroke-miterlimit:10;}
	.st19{fill:#3DC1A7;}
	.st20{fill:none;stroke:#1F9B83;stroke-width:0.5;stroke-miterlimit:10;}
	.st21{fill:none;stroke:#FFFFFF;stroke-miterlimit:10;}
	.st22{fill:url(#SVGID_5_);}
	.st23{fill:none;stroke:#D9DBE8;stroke-width:0.5;stroke-miterlimit:10;}
</style>



<g
   id="g309"
   transform="matrix(1.0706824,0,0,1.0022281,-223.23728,-362.51742)">
	<path
   class="st3"
   d="m 374.3,652.8 c -2.5,-5 -8.2,-12.1 -13.7,-18.7 -1.1,0 -2.1,0 -3,-0.1 l 0.5,-0.3 c 0,0 -10.2,-85.3 -10.2,-85.4 -4.6,-2.3 -27.8,-13.2 -63.2,-12.5 -0.2,-0.3 -0.3,-0.5 -0.5,-0.8 -11.9,-15.4 -15.6,-26.5 -14.7,-34.8 0.3,0 0.6,0.1 0.9,0.2 7.3,1 13.9,0.9 19.7,0.1 l 12.7,2.2 0.4,-3.2 4.2,5.7 10.8,-4.6 -1.3,-4.3 15.8,2.7 0.7,-5.9 c 0.6,1.1 3.2,1.2 3.1,-1.7 l 2.8,1.3 11.1,-3.5 c 4.2,1.1 8.9,-0.1 11.6,-3.8 0.6,-0.9 0.3,-1.8 -0.4,-2.3 2.5,-2.8 3.1,-6.4 1.3,-8 -0.3,-0.2 -0.5,-0.4 -0.8,-0.5 -0.4,-0.2 -0.8,-0.4 -1.3,-0.4 -0.2,0 -0.3,0 -0.5,0.1 -0.1,-0.1 -0.2,-0.3 -0.3,-0.4 l -1.3,-2.4 c 0.4,-0.4 0.8,-0.7 1.2,-1 1.8,-1.2 -0.2,-3.9 -2,-2.7 -0.3,0.2 -0.6,0.4 -0.9,0.7 l -0.1,-0.2 -3.8,-12.3 -10.9,1.6 -4,-7 -7.9,-0.1 -0.9,-5.4 c 0,0 -10.5,-2.6 -11,-2.6 -0.4,0 -3.9,0.5 -7.6,1 -0.6,0.1 -1.2,0.1 -1.9,0.1 3,-3 12.6,-13.4 17.9,-28.2 2.4,0.1 4.5,-0.3 4.8,-1.4 0,-0.2 -0.2,-0.5 -0.7,-0.9 -0.6,-0.6 -1.5,-1.3 -2.7,-2 0.3,-1 0.5,-2.1 0.8,-3.1 3.2,-1 6.5,-3.5 5.3,-9.2 l -4.1,-0.4 c 0.1,-1.5 0.1,-3 0,-4.5 -0.1,-3.4 -1.2,-11.7 -2.3,-16.3 0,0 0,0 0,0 0,0 7.6,-8 -10.2,-13.7 -17.8,-5.7 -33.9,0.2 -29.6,12.3 -2.9,7.3 -4.2,22 -4.3,23.7 -1.6,0.8 -2.8,2.3 -3,4.1 -0.4,2.3 0.8,4.5 2.8,5.6 h -0.4 c 0.6,0.3 1.2,0.5 1.7,0.5 0,0 0.1,0 0.1,0 0.8,8.5 3.7,18.2 9.3,30.7 l -0.7,4 c -1,0.7 -2.1,1.5 -3.1,2.1 -5.1,-0.7 -10.2,-0.6 -15.3,0.1 l 1.6,-1.2 -6.9,-7.3 -10.2,-3.1 -9.4,7.9 8.7,2.3 7.3,3.2 C 191,468.2 221,557.1 221,557.1 l 1.4,-0.1 c 5.4,10.2 24.9,45 51.9,69.5 0,0 -21.4,33.4 -27.4,75.3 0,0 -0.1,0 -0.1,0 -0.7,3.2 -0.7,9.7 -0.7,9.7 0,0 13.3,1.1 28.1,0 1.4,-0.1 1.9,-2 0.6,-2.7 -4,-2.4 -10.8,-6 -17.5,-7.7 -1.7,0.1 -3.4,0.2 -5.1,0.3 2.6,-5.1 25.6,-49.7 39.2,-75 0,0 -2.9,-22 -10.2,-46.6 -0.6,-2 -1.2,-3.8 -1.7,-5.5 15.8,-0.9 36.2,-3.2 55.5,-8.9 1.1,12.5 5,40.7 17.9,68.5 -0.3,0 -0.5,0 -0.8,0 -1.4,1.9 -2.5,3.7 -2.5,3.7 0,0 10.6,9.6 22.9,17.2 1,0.7 2.5,-0.7 1.8,-2 z"
   id="path285"
   inkscape:connector-curvature="0"
   style="fill:#e6e7e9" />
	<path
   class="st3"
   d="m 336,445.6 8.8,5.3 c -2.1,-5.5 -8.8,-5.3 -8.8,-5.3 z"
   id="path287"
   inkscape:connector-curvature="0"
   style="fill:#e6e7e9" />
	<path
   class="st3"
   d="m 341.2,443.8 6,5.2 c -1.2,-4.6 -6,-5.2 -6,-5.2 z"
   id="path289"
   inkscape:connector-curvature="0"
   style="fill:#e6e7e9" />
	<path
   class="st3"
   d="m 229.7,403 8.8,5.3 c -2.1,-5.5 -8.8,-5.3 -8.8,-5.3 z"
   id="path291"
   inkscape:connector-curvature="0"
   style="fill:#e6e7e9" />
	<path
   class="st3"
   d="m 239.7,433.3 -6.7,-4.2 c 1.8,4.3 6.7,4.2 6.7,4.2 z"
   id="path293"
   inkscape:connector-curvature="0"
   style="fill:#e6e7e9" />
	<path
   class="st3"
   d="m 267.7,435 6.9,3.9 c -2,-4.1 -6.9,-3.9 -6.9,-3.9 z"
   id="path295"
   inkscape:connector-curvature="0"
   style="fill:#e6e7e9" />
	<path
   class="st3"
   d="m 224.1,454.8 -7.1,-3.5 c 2.3,4 7.1,3.5 7.1,3.5 z"
   id="path297"
   inkscape:connector-curvature="0"
   style="fill:#e6e7e9" />
	<path
   class="st3"
   d="m 253.2,446.4 -7.1,-3.5 c 2.3,4.1 7.1,3.5 7.1,3.5 z"
   id="path299"
   inkscape:connector-curvature="0"
   style="fill:#e6e7e9" />
	<path
   class="st3"
   d="m 297.9,505.5 c 0,0 7.7,5.5 14.8,0.8 z"
   id="path301"
   inkscape:connector-curvature="0"
   style="fill:#e6e7e9" />
	<path
   class="st3"
   d="m 309.1,510 -8.5,-1.7 c 0,0 4.3,3.5 8.5,1.7 z"
   id="path303"
   inkscape:connector-curvature="0"
   style="fill:#e6e7e9" />
	<polygon
   class="st3"
   points="224.7,406.4 214.1,407.5 208.5,418.4 217.4,417.2 229.8,417.3 233.9,410.5 "
   id="polygon305"
   style="fill:#e6e7e9" />
	<polygon
   class="st3"
   points="230.3,444.4 221.8,435.5 214,437.3 217.5,446.7 225.8,453.5 237.4,449.9 "
   id="polygon307"
   style="fill:#e6e7e9" />
</g>

<polygon
   class="st4"
   points="348.4,519.3 345.6,509.9 330.5,514.4 337.5,523.9 "
   id="polygon313"
   style="fill:#1f9b83"
   transform="matrix(1.0706824,0,0,1.0022281,-223.23728,-362.51742)" />
<polygon
   class="st4"
   points="363.9,508.9 344.8,506.1 343,514.3 362.9,517.8 "
   id="polygon315"
   style="fill:#1f9b83"
   transform="matrix(1.0706824,0,0,1.0022281,-223.23728,-362.51742)" />
<polygon
   class="st4"
   points="334,512.6 314.9,509.8 313,518 333,521.4 "
   id="polygon317"
   style="fill:#1f9b83"
   transform="matrix(1.0706824,0,0,1.0022281,-223.23728,-362.51742)" />
<path
   class="st5"
   d="m 193.90057,140.70132 c -2.46255,3.10691 -6.74529,3.60803 -10.38561,2.00447 -2.14135,-0.90202 -3.42618,2.2049 -1.39188,3.1069 5.0322,2.10468 11.13509,1.20266 14.56127,-3.1069 1.39189,-1.70379 -1.49895,-3.70825 -2.78378,-2.00447 z"
   id="path319"
   inkscape:connector-curvature="0"
   style="fill:#ff9b24;stroke-width:1.03588998" />
<path
   class="st5"
   d="m 194.54299,127.77258 c 1.92722,-1.20268 -0.21413,-3.90868 -2.14137,-2.70602 -1.82014,1.20267 -3.3191,2.80624 -4.38979,4.61025 0.96361,0.60133 1.92724,1.3029 2.9979,2.00446 0.74948,-1.60357 1.92723,-3.00668 3.53326,-3.90869 z"
   id="path321"
   inkscape:connector-curvature="0"
   style="fill:#ff9b24;stroke-width:1.03588998" />
<ellipse
   transform="matrix(0.69309993,-0.72084152,0.7647639,0.64431062,0,0)"
   class="st5"
   cx="18.973095"
   cy="234.78659"
   rx="7.2341747"
   ry="4.5787835"
   id="ellipse323"
   style="fill:#ff9b24;stroke-width:1.03703678" />
<path
   class="st6"
   d="m 191.65214,130.27814 c 0,0 0.21414,1.80402 2.14137,1.70379 l -5.88875,6.21382 c 0,0 -2.14136,-2.80624 0.21413,-8.51894"
   id="path325"
   inkscape:connector-curvature="0"
   style="fill:#53a9f4;stroke-width:1.03588998" />
<path
   class="st7"
   d="m 128.58896,106.92624 c -7.06652,0.80177 -12.84819,2.30512 -17.55919,4.61024 3.3191,3.00668 6.53116,6.11359 10.17148,9.12028 0.9636,0.70155 1.92723,1.40313 2.89084,2.20489 4.92514,-0.20044 10.27855,-0.1002 16.06024,-1.00222 24.30449,-4.00891 42.93436,10.1225 48.60896,15.13366 0.74949,0.70155 2.03432,0.40087 2.46259,-0.50112 0.21414,-0.50112 0.42826,-1.00224 0.74948,-1.50335 1.71308,-2.40535 3.53325,-2.60578 3.53325,-2.60578 -0.42828,-0.40091 -19.05815,-30.76842 -66.91765,-25.4566 z"
   id="path327"
   inkscape:connector-curvature="0"
   style="fill:#6535e4;stroke-width:1.03588998" />
<linearGradient
   id="SVGID_1_"
   gradientUnits="userSpaceOnUse"
   x1="320.55951"
   y1="720.65448"
   x2="320.55951"
   y2="554.56171"
   gradientTransform="matrix(1.0706824,0,0,1.0022281,-223.2373,-362.5174)">
	<stop
   offset="0"
   style="stop-color:#4625C1"
   id="stop329" />
	<stop
   offset="1"
   style="stop-color:#33313D"
   id="stop331" />
</linearGradient>
<path
   class="st8"
   d="m 181.58774,205.84616 c -5.67462,-2.70602 -38.11631,-16.93766 -86.511149,-11.22498 l -5.353408,11.72608 -44.219179,5.2116 c 0,0 23.019662,43.59692 57.174436,72.56131 0,0 -23.019676,33.57464 -29.336703,75.56802 h 5.353413 c 0,0 26.76707,-48.7083 42.18489,-75.66824 0,0 -3.64033,-25.55681 -12.84819,-52.21608 16.91679,-0.90202 38.75871,-3.20714 59.42287,-8.91983 1.28482,12.92873 5.56755,42.59469 20.55711,71.25841 l 6.53116,-2.40534 c 0,0.10023 -12.95525,-85.79073 -12.95525,-85.89095 z"
   id="path334"
   inkscape:connector-curvature="0"
   style="fill:url(#SVGID_1_);stroke-width:1.03588998" />
<path
   class="st4"
   d="m 86.082856,117.85052 9.314947,-5.81292 8.779587,2.70601 12.63407,-8.01782 c 0,0 14.02593,-4.40981 15.20368,-4.71048 1.17776,-0.20044 17.34504,-2.405339 18.30868,-2.405339 0.53534,0 11.77749,2.605789 11.77749,2.605789 l 0.96362,5.41203 8.45839,0.10022 4.28273,7.0156 11.67044,-1.60356 4.06858,12.3274 4.71101,8.3185 -5.6746,10.92428 -18.09456,5.31182 -4.49684,-2.00446 -31.26394,2.90646 -24.09035,4.4098 -25.696379,-21.14701 z"
   id="path336"
   inkscape:connector-curvature="0"
   style="fill:#1f9b83;stroke-width:1.03588998" />
<linearGradient
   id="SVGID_2_"
   gradientUnits="userSpaceOnUse"
   x1="245.23779"
   y1="520.57898"
   x2="342.99011"
   y2="520.57898"
   gradientTransform="matrix(1.0706824,0,0,1.0022281,-223.2373,-362.5174)">
	<stop
   offset="0"
   style="stop-color:#61CBF7"
   id="stop338" />
	<stop
   offset="1"
   style="stop-color:#467EF7"
   id="stop340" />
</linearGradient>
<path
   class="st9"
   d="m 45.611065,214.66575 28.158949,-2.10466 c 10.385614,-0.8018 30.621516,-7.01562 38.116296,-14.0312 2.14136,-2.00445 3.42618,-3.5078 1.39189,-5.91315 -44.540393,-54.22055 17.34506,-54.9221 27.94481,-67.14929 5.35341,-6.21381 2.24842,-13.63031 -3.21205,-18.44099 -3.64032,-0.30067 -7.17357,-0.70156 -10.59975,-1.50334 -9.20787,-2.20491 -18.84402,-2.20491 -28.158956,-0.40089 -87.046477,17.1381 -53.641189,109.54352 -53.641189,109.54352 z"
   id="path343"
   inkscape:connector-curvature="0"
   style="fill:url(#SVGID_2_);stroke-width:1.03588998" />
<ellipse
   transform="matrix(0.99633837,-0.08549763,0.09746814,0.99523865,0,0)"
   class="st5"
   cx="109.36671"
   cy="71.611916"
   rx="6.0995922"
   ry="5.5153637"
   id="ellipse345"
   style="fill:#ff9b24;stroke-width:1.03590202" />
<ellipse
   transform="matrix(0.11581411,-0.99327091,0.99482158,0.10163675,0,0)"
   class="st10"
   cx="-44.293148"
   cy="143.39706"
   rx="1.4042906"
   ry="1.7118492"
   id="ellipse347"
   style="fill:#3537ab;stroke-width:1.03594625" />
<ellipse
   transform="matrix(0.99633837,-0.08549763,0.09746814,0.99523865,0,0)"
   class="st10"
   cx="151.93613"
   cy="74.762398"
   id="ellipse349"
   style="fill:#3537ab;stroke-width:1.03590202"
   rx="1.2841247"
   ry="1.2033521" />
<linearGradient
   id="SVGID_3_"
   gradientUnits="userSpaceOnUse"
   x1="315.2739"
   y1="430.4184"
   x2="362.02881"
   y2="430.4184"
   gradientTransform="matrix(1.0706824,0,0,1.0022281,-223.2373,-362.5174)">
	<stop
   offset="0.127"
   style="stop-color:#FF9B24"
   id="stop351" />
	<stop
   offset="1"
   style="stop-color:#FFCB3D"
   id="stop353" />
</linearGradient>
<path
   class="st11"
   d="m 160.70943,68.340456 c 1.60602,-5.311812 2.46257,-11.124734 2.24843,-17.238326 -0.10707,-4.209358 -1.92723,-16.135872 -3.31911,-19.042333 -8.56547,-17.338549 -35.7608,-4.209359 -41.22127,10.222726 -6.31703,16.737211 -6.10291,30.267289 6.20995,55.924328 l -1.71309,9.020059 c -0.42827,2.40534 0.85655,4.81069 3.21205,5.81292 2.14137,1.00222 5.13927,1.50333 8.35132,0.10022 1.71309,-0.70156 2.89084,-2.2049 3.21205,-3.90869 l 1.49895,-7.51672 c 0,0 13.38352,-11.425389 20.12883,-29.164828 2.56963,0.100225 4.81806,-0.300667 5.13928,-1.40312 0,-0.400889 -1.49896,-1.503341 -3.74739,-2.806236 z"
   id="path356"
   inkscape:connector-curvature="0"
   style="fill:url(#SVGID_3_);stroke-width:1.03588998" />
<path
   class="st12"
   d="m 127.08999,66.135553 c 0,0 -0.85652,5.311809 5.88877,8.118048"
   id="path358"
   inkscape:connector-curvature="0"
   style="fill:none;stroke:#3537ab;stroke-width:0.51794499;stroke-miterlimit:10" />
<path
   class="st12"
   d="m 146.79056,71.647807 c 0,0 17.45213,2.305124 17.45213,-0.501115 0,-2.806236 -19.48643,-10.022279 -19.48643,-10.022279"
   id="path360"
   inkscape:connector-curvature="0"
   style="fill:none;stroke:#3537ab;stroke-width:0.51794499;stroke-miterlimit:10" />
<path
   class="st13"
   d="M 121.20125,29.454003"
   id="path362"
   inkscape:connector-curvature="0"
   style="fill:none;stroke:#3f89f2;stroke-width:1.03588998;stroke-miterlimit:10" />
<linearGradient
   id="SVGID_4_"
   gradientUnits="userSpaceOnUse"
   x1="319.9505"
   y1="420.40399"
   x2="364.95432"
   y2="420.40399"
   gradientTransform="matrix(1.0706824,0,0,1.0022281,-223.2373,-362.5174)">
	<stop
   offset="0"
   style="stop-color:#4625C1"
   id="stop364" />
	<stop
   offset="1"
   style="stop-color:#33313D"
   id="stop366" />
</linearGradient>
<path
   class="st14"
   d="m 167.24059,55.912826 -47.96657,-4.109137 0.32121,5.512256 2.99791,0.902006 c 0,0 5.46048,12.327406 20.66416,2.706014 l 1.60603,0.601339 11.24217,4.409804 c 0.10705,-0.100224 13.38353,0.300667 11.13509,-10.022282 z"
   id="path369"
   inkscape:connector-curvature="0"
   style="fill:url(#SVGID_4_);stroke-width:1.03588998" />
<ellipse
   transform="matrix(0.99633837,-0.08549763,0.09746814,0.99523865,0,0)"
   class="st1"
   cx="129.49306"
   cy="70.215965"
   id="ellipse371"
   style="fill:#ffffff;stroke-width:1.03590202"
   rx="0.85608304"
   ry="0.80223477" />
<ellipse
   transform="matrix(0.99633837,-0.08549763,0.09746814,0.99523865,0,0)"
   class="st1"
   cx="153.71881"
   cy="75.213463"
   id="ellipse373"
   style="fill:#ffffff;stroke-width:1.03590202"
   rx="0.85608304"
   ry="0.80223477" />
<path
   class="st6"
   d="m 195.07833,291.83734 c -3.53326,0 -5.78169,-0.10023 -9.31493,-0.30069 -1.49895,1.90425 -2.67671,3.70825 -2.67671,3.70825 0,0 11.34922,9.62137 24.51863,17.23832 1.28482,0.80178 2.89084,-0.60133 2.24843,-1.90423 -2.78377,-4.91092 -8.88667,-12.02673 -14.77542,-18.74165 z"
   id="path375"
   inkscape:connector-curvature="0"
   style="fill:#53a9f4;stroke-width:1.03588998" />
<path
   class="st6"
   d="m 102.99965,366.70377 c -4.282739,-2.40535 -11.563374,-6.01337 -18.736939,-7.71715 -3.747398,0.20044 -7.494784,0.50111 -11.242175,0.80178 -0.749473,3.20711 -0.749473,9.72161 -0.749473,9.72161 0,0 14.240065,1.10245 30.086167,0 1.49895,-0.20045 2.0343,-2.10469 0.64242,-2.80624 z"
   id="path377"
   inkscape:connector-curvature="0"
   style="fill:#53a9f4;stroke-width:1.03588998" />
<path
   class="st15"
   d="m 100.00174,215.76821 c 0,0 11.02803,13.32963 23.01966,67.75062"
   id="path379"
   inkscape:connector-curvature="0"
   style="fill:none;stroke:#ffffff;stroke-width:0.51794499;stroke-miterlimit:10" />
<path
   class="st16"
   d="m 117.13266,66.837112 c 0,0 -2.14137,1.202675 -5.03221,-0.100222"
   id="path381"
   inkscape:connector-curvature="0"
   style="fill:none;stroke:#e6e7e9;stroke-width:0.51794499;stroke-miterlimit:10" />
<path
   class="st17"
   d="m 146.46935,140.30043 c 0,0 -46.14641,-0.80179 -60.172346,-21.34746 l -4.711012,33.67488 c 0,0 27.302418,15.8352 67.560068,-4.81071 z"
   id="path383"
   inkscape:connector-curvature="0"
   style="fill:#61aaf7;stroke-width:1.03588998" />
<path
   class="st4"
   d="m 147.86123,104.62111 c -2.03429,-1.3029 -4.06858,-1.90424 -5.78168,-4.00891 -4.60393,0.60134 -13.27646,-1.102449 -13.91887,-1.002229 -1.17775,0.20045 -11.34922,7.115819 -11.34922,7.115819 l -3.74741,2.40535 5.88876,0.20044 v 1.00223 l -13.38353,-0.60133 v 0.10021 l -1.07069,6.81517 -1.07066,-0.10024 0.32119,-2.00446 -8.244258,-2.50556 -9.314935,5.81292 0.642408,13.93098 c 8.458391,4.81069 19.058145,6.81514 28.694305,8.21825 10.3856,1.00225 19.91469,1.30291 30.3003,-0.70154 1.82015,-0.30067 1.39189,-2.00445 1.39189,-3.00669 0.3212,-9.72162 12.63405,-11.62585 15.41782,-21.34746 0.32121,-0.70156 -14.02593,-9.72161 -14.77542,-10.32295 z"
   id="path385"
   inkscape:connector-curvature="0"
   style="fill:#1f9b83;stroke-width:1.03588998" />
<ellipse
   class="st5"
   cx="195.39954"
   cy="133.78598"
   rx="2.4625697"
   ry="2.2049017"
   id="ellipse387"
   style="fill:#ff9b24;stroke-width:1.03588998" />
<path
   class="st5"
   d="m 196.36315,139.09777 c 0,1.20266 0,3.80845 -1.39189,3.80845 -1.39188,0 -3.64032,-2.60579 -3.64032,-3.80845 0,-1.20268 1.07068,-2.20492 2.46257,-2.20492 1.39189,0 2.56964,1.00224 2.56964,2.20492 z"
   id="path389"
   inkscape:connector-curvature="0"
   style="fill:#ff9b24;stroke-width:1.03588998" />
<polyline
   class="st18"
   points="298.4,475.1 304.2,487.7 298.2,491.7 "
   id="polyline391"
   style="fill:none;stroke:#177563;stroke-width:0.5;stroke-miterlimit:10"
   transform="matrix(1.0706824,0,0,1.0022281,-223.23728,-362.51742)" />
<polyline
   class="st18"
   points="302,475.7 307.8,488.4 301.9,492.4 "
   id="polyline393"
   style="fill:none;stroke:#177563;stroke-width:0.5;stroke-miterlimit:10"
   transform="matrix(1.0706824,0,0,1.0022281,-223.23728,-362.51742)" />
<polyline
   class="st18"
   points="327.1,463.3 328,478.7 337.8,480.4 "
   id="polyline395"
   style="fill:none;stroke:#177563;stroke-width:0.5;stroke-miterlimit:10"
   transform="matrix(1.0706824,0,0,1.0022281,-223.23728,-362.51742)" />
<polyline
   class="st18"
   points="324.5,466.2 325.3,481.7 335.1,483.4 "
   id="polyline397"
   style="fill:none;stroke:#177563;stroke-width:0.5;stroke-miterlimit:10"
   transform="matrix(1.0706824,0,0,1.0022281,-223.23728,-362.51742)" />
<polyline
   class="st18"
   points="318.7,474.2 315,491.5 307,491.5 "
   id="polyline399"
   style="fill:none;stroke:#177563;stroke-width:0.5;stroke-miterlimit:10"
   transform="matrix(1.0706824,0,0,1.0022281,-223.23728,-362.51742)" />
<polyline
   class="st18"
   points="321,477.2 317.3,494.5 309.3,494.5 "
   id="polyline401"
   style="fill:none;stroke:#177563;stroke-width:0.5;stroke-miterlimit:10"
   transform="matrix(1.0706824,0,0,1.0022281,-223.23728,-362.51742)" />
<polyline
   class="st18"
   points="348.3,462.9 349.9,481.2 360.8,482.7 "
   id="polyline403"
   style="fill:none;stroke:#177563;stroke-width:0.5;stroke-miterlimit:10"
   transform="matrix(1.0706824,0,0,1.0022281,-223.23728,-362.51742)" />
<polyline
   class="st18"
   points="345.4,465.8 347,484.1 357.8,485.6 "
   id="polyline405"
   style="fill:none;stroke:#177563;stroke-width:0.5;stroke-miterlimit:10"
   transform="matrix(1.0706824,0,0,1.0022281,-223.23728,-362.51742)" />
<polyline
   class="st18"
   points="372.7,477.6 369.9,491.2 382.2,491 382.8,478.5 "
   id="polyline407"
   style="fill:none;stroke:#177563;stroke-width:0.5;stroke-miterlimit:10"
   transform="matrix(1.0706824,0,0,1.0022281,-223.23728,-362.51742)" />
<line
   class="st18"
   x1="176.76965"
   y1="133.28485"
   x2="189.939"
   y2="133.68576"
   id="line409"
   style="fill:none;stroke:#177563;stroke-width:0.51794499;stroke-miterlimit:10" />
<polyline
   class="st18"
   points="344.3,490.9 335.5,485.6 323.8,498.5 "
   id="polyline411"
   style="fill:none;stroke:#177563;stroke-width:0.5;stroke-miterlimit:10"
   transform="matrix(1.0706824,0,0,1.0022281,-223.23728,-362.51742)" />
<polyline
   class="st18"
   points="345,496.3 336.2,490.9 324.4,503.8 "
   id="polyline413"
   style="fill:none;stroke:#177563;stroke-width:0.5;stroke-miterlimit:10"
   transform="matrix(1.0706824,0,0,1.0022281,-223.23728,-362.51742)" />
<polyline
   class="st18"
   points="321.4,486 328.1,486 328.8,490.8 "
   id="polyline415"
   style="fill:none;stroke:#177563;stroke-width:0.5;stroke-miterlimit:10"
   transform="matrix(1.0706824,0,0,1.0022281,-223.23728,-362.51742)" />
<ellipse
   transform="matrix(0.9926218,-0.12125162,0.13807405,0.99042191,0,0)"
   class="st19"
   cx="140.27066"
   cy="129.0903"
   rx="3.1017833"
   ry="3.7126548"
   id="ellipse417"
   style="fill:#3dc1a7;stroke-width:1.03597224" />
<ellipse
   transform="matrix(0.9926218,-0.12125162,0.13807405,0.99042191,0,0)"
   class="st19"
   cx="118.56101"
   cy="125.51646"
   rx="3.1017833"
   ry="3.7126548"
   id="ellipse419"
   style="fill:#3dc1a7;stroke-width:1.03597224" />
<ellipse
   transform="matrix(0.9926218,-0.12125162,0.13807405,0.99042191,0,0)"
   class="st19"
   cx="101.14048"
   cy="146.757"
   rx="2.3530765"
   ry="2.8095767"
   id="ellipse421"
   style="fill:#3dc1a7;stroke-width:1.03597224" />
<ellipse
   transform="matrix(0.0793614,-0.99684591,0.99757577,0.06958874,0,0)"
   class="st19"
   cx="-112.09039"
   cy="118.69939"
   rx="3.3085275"
   ry="2.7827251"
   id="ellipse423"
   style="fill:#3dc1a7;stroke-width:1.03587866" />
<ellipse
   transform="matrix(0.0793614,-0.99684591,0.99757577,0.06958874,0,0)"
   class="st19"
   cx="-109.20126"
   cy="190.13388"
   rx="3.3085275"
   ry="2.7827251"
   id="ellipse425"
   style="fill:#3dc1a7;stroke-width:1.03587866" />
<ellipse
   transform="matrix(0.60720526,-0.79454501,0.83091568,0.55639835,0,0)"
   class="st19"
   cx="-13.306387"
   cy="210.60905"
   rx="3.3854225"
   ry="2.7247567"
   id="ellipse427"
   style="fill:#3dc1a7;stroke-width:1.03687572" />
<ellipse
   transform="matrix(0.95189197,-0.30643381,0.34485995,0.93865415,0,0)"
   class="st19"
   cx="117.80368"
   cy="188.54797"
   rx="3.5098975"
   ry="2.6250751"
   id="ellipse429"
   style="fill:#3dc1a7;stroke-width:1.03627372" />
<ellipse
   transform="matrix(0.60720526,-0.79454501,0.83091568,0.55639835,0,0)"
   class="st19"
   cx="-30.186686"
   cy="206.38794"
   rx="3.3854225"
   ry="2.7247567"
   id="ellipse431"
   style="fill:#3dc1a7;stroke-width:1.03687572" />
<ellipse
   transform="matrix(0.62170088,-0.78325476,0.82096797,0.57097425,0,0)"
   class="st19"
   cx="-35.807365"
   cy="193.99146"
   rx="3.389462"
   ry="2.7218297"
   id="ellipse433"
   style="fill:#3dc1a7;stroke-width:1.03693688" />
<ellipse
   transform="matrix(0.62170088,-0.78325476,0.82096797,0.57097425,0,0)"
   class="st19"
   cx="-45.217892"
   cy="205.57324"
   rx="3.389462"
   ry="2.7218297"
   id="ellipse435"
   style="fill:#3dc1a7;stroke-width:1.03693688" />
<ellipse
   transform="matrix(0.96974638,-0.24411464,0.27612289,0.96112234,0,0)"
   class="st19"
   cx="56.591637"
   cy="142.43236"
   rx="2.7721584"
   ry="3.3231051"
   id="ellipse437"
   style="fill:#3dc1a7;stroke-width:1.03618515" />
<polyline
   class="st18"
   points="354.4,491.7 365.9,478.7 370.9,483.1 "
   id="polyline439"
   style="fill:none;stroke:#177563;stroke-width:0.5;stroke-miterlimit:10"
   transform="matrix(1.0706824,0,0,1.0022281,-223.23728,-362.51742)" />
<path
   class="st4"
   d="m 146.25522,135.38951 3.31911,-7.81738 c 0,0 11.56337,2.6058 11.88458,2.6058"
   id="path441"
   inkscape:connector-curvature="0"
   style="fill:#1f9b83;stroke-width:1.03588998" />
<path
   class="st18"
   d="m 146.25522,135.38951 3.31911,-7.81738 c 0,0 11.56337,2.6058 11.88458,2.6058"
   id="path443"
   inkscape:connector-curvature="0"
   style="fill:none;stroke:#177563;stroke-width:0.51794499;stroke-miterlimit:10" />
<polyline
   class="st18"
   points="343.5,511.2 359.3,514 361.5,504.8 "
   id="polyline445"
   style="fill:none;stroke:#177563;stroke-width:0.5;stroke-miterlimit:10"
   transform="matrix(1.0706824,0,0,1.0022281,-223.23728,-362.51742)" />
<path
   class="st17"
   d="m 149.14606,147.81714 -2.67671,-7.51671 c 0,0 -48.501905,4.10913 -59.637015,-18.84188 l -0.749479,-5.7127 -3.961521,31.16928 c 8.458391,3.50781 17.45212,6.21382 24.946895,11.42542 11.24218,0.30065 25.48225,-2.10469 42.07783,-10.52341 z"
   id="path447"
   inkscape:connector-curvature="0"
   style="fill:#61aaf7;stroke-width:1.03588998" />
<g
   id="g459"
   transform="matrix(1.0706824,0,0,1.0022281,-223.23728,-362.51742)">
	<path
   class="st5"
   d="m 360,504 c 3.3,-2 7.2,-0.9 9.7,1.8 1.5,1.6 3.8,-0.8 2.4,-2.4 -3.5,-3.8 -9.2,-5.1 -13.7,-2.3 -1.9,1.1 -0.2,4 1.6,2.9 z"
   id="path449"
   inkscape:connector-curvature="0"
   style="fill:#ff9b24" />
	<path
   class="st5"
   d="m 360.4,501.3 c 0.2,-0.3 -0.1,0.2 0,0 0.1,-0.2 0.2,-0.4 0.3,-0.7 0.4,-0.7 0.8,-1.3 1.4,-1.8 1.9,-1.9 4.4,-1.8 6.9,-0.9 2,0.7 2.9,-2.5 0.9,-3.2 -5.2,-1.8 -10.7,0.4 -12.6,5.7 -0.8,2.1 2.4,2.9 3.1,0.9 z"
   id="path451"
   inkscape:connector-curvature="0"
   style="fill:#ff9b24" />
	<path
   class="st5"
   d="m 353,495.4 c 0.1,0.1 0.1,0.2 0.2,0.3 -0.1,-0.3 0.1,0.2 0.1,0.3 0.1,0.2 0.1,0.4 0.2,0.5 0.2,0.8 0.2,1.6 -0.3,2.4 -1.1,1.8 1.8,3.5 2.9,1.7 1.3,-2.1 1,-4.7 -0.2,-6.8 -1,-2 -3.9,-0.3 -2.9,1.6 z"
   id="path453"
   inkscape:connector-curvature="0"
   style="fill:#ff9b24" />
	<path
   class="st5"
   d="m 343.6,502.9 4.7,-2.6 c 0.1,-0.1 0.3,-0.1 0.4,-0.2 1.6,-0.6 11.9,-3.8 16.1,4.3 4.6,8.9 -0.6,8.9 -1.3,7.3 -0.6,-1.3 -1.2,-5 -3.5,-5.9 -2.6,-1.1 -6.1,2.4 -10.6,-1.3 l -3.3,2.9 v 0 c -1.4,-1.1 -2.3,-2.7 -2.5,-4.5 z"
   id="path455"
   inkscape:connector-curvature="0"
   style="fill:#ff9b24" />
	<path
   class="st20"
   d="m 355.1,498.5 c 0,0 -4.4,0.3 -7.4,1.6"
   id="path457"
   inkscape:connector-curvature="0"
   style="fill:none;stroke:#1f9b83;stroke-width:0.5;stroke-miterlimit:10" />
</g>
<polyline
   class="st18"
   points="369,510.1 385.3,504.7 382.4,498.1 "
   id="polyline461"
   style="fill:none;stroke:#177563;stroke-width:0.5;stroke-miterlimit:10"
   transform="matrix(1.0706824,0,0,1.0022281,-223.23728,-362.51742)" />
<path
   class="st5"
   d="m 192.40162,144.40956 c 0,1.20269 -1.07068,2.2049 -2.46255,2.2049 -1.39189,0 -3.53327,-1.70377 -3.53327,-3.00667 0,-1.3029 1.07069,-2.20491 2.46257,-2.20491 1.39189,0 3.53325,1.70379 3.53325,3.00668 z"
   id="path463"
   inkscape:connector-curvature="0"
   style="fill:#ff9b24;stroke-width:1.03588998" />
<polyline
   class="st18"
   points="334.6,517.2 338,522.7 346.5,518.2 "
   id="polyline465"
   style="fill:none;stroke:#177563;stroke-width:0.5;stroke-miterlimit:10"
   transform="matrix(1.0706824,0,0,1.0022281,-223.23728,-362.51742)" />
<line
   class="st21"
   x1="163.60023"
   y1="113.34049"
   x2="162.20837"
   y2="101.31377"
   id="line467"
   style="fill:none;stroke:#ffffff;stroke-width:1.03588998;stroke-miterlimit:10" />
<line
   class="st21"
   x1="176.02016"
   y1="113.64118"
   x2="174.20001"
   y2="120.75701"
   id="line469"
   style="fill:none;stroke:#ffffff;stroke-width:1.03588998;stroke-miterlimit:10" />
<path
   class="st20"
   d="m 168.73954,102.91732 c 0,0 7.17358,-0.20045 9.422,5.31182"
   id="path471"
   inkscape:connector-curvature="0"
   style="fill:none;stroke:#1f9b83;stroke-width:0.51794499;stroke-miterlimit:10" />
<path
   class="st20"
   d="m 174.20002,101.11331 c 0,0 5.13928,0.70156 6.4241,5.21159"
   id="path473"
   inkscape:connector-curvature="0"
   style="fill:none;stroke:#1f9b83;stroke-width:0.51794499;stroke-miterlimit:10" />
<path
   class="st20"
   d="m 54.926004,60.222407 c 0,0 7.173575,-0.200446 9.42201,5.311809"
   id="path475"
   inkscape:connector-curvature="0"
   style="fill:none;stroke:#1f9b83;stroke-width:0.51794499;stroke-miterlimit:10" />
<path
   class="st20"
   d="m 65.632823,90.690141 c 0,0 -5.246336,0.10022 -7.173571,-4.20936"
   id="path477"
   inkscape:connector-curvature="0"
   style="fill:none;stroke:#1f9b83;stroke-width:0.51794499;stroke-miterlimit:10" />
<path
   class="st20"
   d="m 95.611933,92.393931 c 0,0 5.246357,-0.30067 7.387717,3.90869"
   id="path479"
   inkscape:connector-curvature="0"
   style="fill:none;stroke:#1f9b83;stroke-width:0.51794499;stroke-miterlimit:10" />
<path
   class="st20"
   d="m 48.930179,112.13782 c 0,0 -5.139268,0.60133 -7.601846,-3.50779"
   id="path481"
   inkscape:connector-curvature="0"
   style="fill:none;stroke:#1f9b83;stroke-width:0.51794499;stroke-miterlimit:10" />
<path
   class="st20"
   d="m 80.087042,103.7191 c 0,0 -5.139278,0.60134 -7.601849,-3.50779"
   id="path483"
   inkscape:connector-curvature="0"
   style="fill:none;stroke:#1f9b83;stroke-width:0.51794499;stroke-miterlimit:10" />
<path
   class="st20"
   d="m 127.94654,162.95078 c 0,0 8.24426,5.51227 15.84611,0.80179"
   id="path485"
   inkscape:connector-curvature="0"
   style="fill:none;stroke:#1f9b83;stroke-width:0.51794499;stroke-miterlimit:10" />
<path
   class="st20"
   d="m 130.73031,165.75703 c 0,0 4.60395,3.50778 9.1008,1.70378"
   id="path487"
   inkscape:connector-curvature="0"
   style="fill:none;stroke:#1f9b83;stroke-width:0.51794499;stroke-miterlimit:10" />
<polygon
   class="st4"
   points="280.9,462.1 290.3,454.2 300.5,457.3 307.3,464.6 300.9,469.3 289.6,464.4 "
   id="polygon489"
   style="fill:#1f9b83"
   transform="matrix(1.0706824,0,0,1.0022281,-223.23728,-362.51742)" />
<ellipse
   transform="matrix(0.07574247,-0.99712741,0.99779234,0.06641112,0,0)"
   class="st19"
   cx="-92.975273"
   cy="99.735443"
   rx="2.6067667"
   ry="3.5322163"
   id="ellipse491"
   style="fill:#3dc1a7;stroke-width:1.03593159" />
<polygon
   class="st4"
   points="238.6,437.3 244.1,426.4 254.8,425.2 263.9,429.3 259.8,436.1 247.5,436 "
   id="polygon493"
   style="fill:#1f9b83"
   transform="matrix(1.0706824,0,0,1.0022281,-223.23728,-362.51742)" />
<ellipse
   transform="matrix(0.95211246,-0.30574803,0.34410941,0.93892956,0,0)"
   class="st19"
   cx="18.888844"
   cy="79.686142"
   rx="3.5101972"
   ry="2.6251378"
   id="ellipse495"
   style="fill:#3dc1a7;stroke-width:1.03633034" />
<polygon
   class="st4"
   points="267.5,468.7 255.8,472.4 247.6,465.6 244.1,456.2 251.8,454.3 260.4,463.2 "
   id="polygon497"
   style="fill:#1f9b83"
   transform="matrix(1.0706824,0,0,1.0022281,-223.23728,-362.51742)" />
<ellipse
   transform="matrix(0.47430168,-0.88036238,0.9043023,0.42689266,0,0)"
   class="st19"
   cx="-72.482941"
   cy="92.009651"
   rx="2.6429036"
   ry="3.4887011"
   id="ellipse499"
   style="fill:#3dc1a7;stroke-width:1.03664219" />
<linearGradient
   id="SVGID_5_"
   gradientUnits="userSpaceOnUse"
   x1="314.2543"
   y1="403.21301"
   x2="359.98071"
   y2="403.21301"
   gradientTransform="matrix(1.0706824,0,0,1.0022281,-223.2373,-362.5174)">
	<stop
   offset="0"
   style="stop-color:#4625C1"
   id="stop501" />
	<stop
   offset="1"
   style="stop-color:#33313D"
   id="stop503" />
</linearGradient>
<path
   class="st22"
   d="m 149.46727,20.935062 c -19.05816,-5.712699 -36.29614,0.200447 -31.69221,12.327407 -3.31912,7.717156 -4.60393,23.953253 -4.60393,23.953253 4.17566,-0.902005 5.03221,6.113592 5.03221,6.113592 l 2.14136,1.202673 c 0,0 -1.92722,-17.238324 6.53117,-19.643671 4.81806,-1.403119 6.20996,-5.311808 6.53116,-8.418717 5.78168,1.703788 15.95315,3.207131 26.98118,-1.703787 0.10707,-0.100223 8.24427,-8.118049 -10.92094,-13.83075 z"
   id="path506"
   inkscape:connector-curvature="0"
   style="fill:url(#SVGID_5_);stroke-width:1.03588998" />
<path
   class="st23"
   d="m 158.46099,31.658904 c 0,0 -15.20369,7.416489 -28.69428,-0.801783"
   id="path508"
   inkscape:connector-curvature="0"
   style="fill:none;stroke:#d9dbe8;stroke-width:0.51794499;stroke-miterlimit:10" />
<path
   class="st15"
   d="m 101.60775,158.54098 c -0.85655,-0.10022 -2.141354,-0.70156 -2.997898,-0.80178 -8.993746,-1.10246 -16.381446,-5.11135 -21.948995,-9.42096"
   id="path510"
   inkscape:connector-curvature="0"
   style="fill:none;stroke:#ffffff;stroke-width:0.51794499;stroke-miterlimit:10" />
</svg>