<?xml version="1.0" encoding="utf-8"?>
<!-- Generator: Adobe Illustrator 22.0.1, SVG Export Plug-In . SVG Version: 6.00 Build 0)  -->
<svg version="1.1" id="Layer_1" xmlns="http://www.w3.org/2000/svg" xmlns:xlink="http://www.w3.org/1999/xlink" x="0px" y="0px"
	 viewBox="0 0 1000 1000" style="enable-background:new 0 0 1000 1000;" xml:space="preserve">
<g>
	<path d="M298.8,272.8c-12.1,0-22,9.9-22,22c0,12.1,9.9,22,22,22c12.1,0,22-9.9,22-22C320.8,282.7,310.9,272.8,298.8,272.8
		L298.8,272.8z M298.8,301.8c-3.9,0-7-3.1-7-7c0-3.9,3.1-7,7-7c3.9,0,7,3.1,7,7C305.8,298.7,302.6,301.8,298.8,301.8L298.8,301.8z
		 M298.8,301.8"/>
	<path d="M354.8,272.8c-12.1,0-22,9.9-22,22c0,12.1,9.9,22,22,22c12.1,0,22-9.9,22-22C376.8,282.7,367,272.8,354.8,272.8
		L354.8,272.8z M354.8,301.8c-3.9,0-7-3.1-7-7c0-3.9,3.1-7,7-7c3.9,0,7,3.1,7,7C361.8,298.7,358.7,301.8,354.8,301.8L354.8,301.8z
		 M354.8,301.8"/>
	<path d="M410.9,272.8c-12.1,0-22,9.9-22,22c0,12.1,9.9,22,22,22c12.1,0,22-9.9,22-22C432.9,282.7,423,272.8,410.9,272.8
		L410.9,272.8z M410.9,301.8c-3.9,0-7-3.1-7-7c0-3.9,3.1-7,7-7c3.9,0,7,3.1,7,7C417.9,298.7,414.7,301.8,410.9,301.8L410.9,301.8z
		 M410.9,301.8"/>
	<path d="M723,244H277c-18.2,0-33,14.8-33,33v446c0,18.2,14.8,33,33,33h446c18.2,0,33-14.8,33-33V609.4c0-4.1-3.4-7.5-7.5-7.5
		c-4.1,0-7.5,3.4-7.5,7.5V723c0,9.9-8.1,18-18,18H277c-9.9,0-18-8.1-18-18V346h482v217c0,4.1,3.4,7.5,7.5,7.5c4.1,0,7.5-3.4,7.5-7.5
		V277C756,258.8,741.2,244,723,244L723,244z M741,331H259v-54c0-9.9,8.1-18,18-18h446c9.9,0,18,8.1,18,18V331z M741,331"/>
	<path d="M705.5,398.9c0-13.1-10.6-23.7-23.7-23.7H317.1c-13.1,0-23.7,10.6-23.7,23.7V443c0,4.1,3.4,7.5,7.5,7.5
		c4.1,0,7.5-3.4,7.5-7.5v-44.1c0-4.8,3.9-8.7,8.7-8.7h364.6c4.8,0,8.7,3.9,8.7,8.7v137.3c0,4.8-3.9,8.7-8.7,8.7h-23.6l-76.9-86.7
		c-2.2-2.5-5.5-4-8.9-4.1c-3.4-0.1-6.7,1.2-9.1,3.6l-40.7,40.7l-54.9-61.8c-2.2-2.5-5.5-4-8.8-4.1c-3.4-0.1-6.7,1.2-9.1,3.6
		L340.9,545h-23.8c-4.8,0-8.7-3.9-8.7-8.7v-45.9c0-4.1-3.4-7.5-7.5-7.5c-4.1,0-7.5,3.4-7.5,7.5v45.9c0,13.1,10.6,23.7,23.7,23.7
		h364.6c13.1,0,23.7-10.6,23.7-23.7V398.9z M362.1,545l96.3-96.2l73,82.3c2.8,3.1,7.5,3.4,10.6,0.6c3.1-2.8,3.4-7.5,0.6-10.6
		l-10-11.3l39.4-39.3l66.2,74.6H362.1z M362.1,545"/>
	<path d="M317.1,581c-13.1,0-23.7,10.6-23.7,23.7v73.6c0,13.1,10.6,23.7,23.7,23.7h145.1c13.1,0,23.7-10.6,23.7-23.7v-73.6
		c0-13.1-10.6-23.7-23.7-23.7H317.1z M470.9,604.7v73.6c0,4.8-3.9,8.7-8.7,8.7H317.1c-4.8,0-8.7-3.9-8.7-8.7v-73.6
		c0-4.8,3.9-8.7,8.7-8.7h145.1C467,596,470.9,599.9,470.9,604.7L470.9,604.7z M470.9,604.7"/>
	<path d="M536.7,581c-13.1,0-23.7,10.6-23.7,23.7v73.6c0,13.1,10.6,23.7,23.7,23.7h145.1c13.1,0,23.7-10.6,23.7-23.7v-73.6
		c0-13.1-10.6-23.7-23.7-23.7H536.7z M690.5,604.7v73.6c0,4.8-3.9,8.7-8.7,8.7H536.7c-4.8,0-8.7-3.9-8.7-8.7v-73.6
		c0-4.8,3.9-8.7,8.7-8.7h145.1C686.6,596,690.5,599.9,690.5,604.7L690.5,604.7z M690.5,604.7"/>
	<path d="M331.7,624.3h20.3c4.1,0,7.5-3.4,7.5-7.5c0-4.1-3.4-7.5-7.5-7.5h-20.3c-4.1,0-7.5,3.4-7.5,7.5
		C324.2,620.9,327.5,624.3,331.7,624.3L331.7,624.3z M331.7,624.3"/>
	<path d="M331.7,649.7h10.5c4.1,0,7.5-3.4,7.5-7.5c0-4.1-3.4-7.5-7.5-7.5h-10.5c-4.1,0-7.5,3.4-7.5,7.5
		C324.2,646.3,327.5,649.7,331.7,649.7L331.7,649.7z M331.7,649.7"/>
	<path d="M447.7,634.7h-28c-4.1,0-7.5,3.4-7.5,7.5c0,4.1,3.4,7.5,7.5,7.5h28c4.1,0,7.5-3.4,7.5-7.5
		C455.2,638,451.8,634.7,447.7,634.7L447.7,634.7z M447.7,634.7"/>
	<path d="M377.7,624.3h68c4.1,0,7.5-3.4,7.5-7.5c0-4.1-3.4-7.5-7.5-7.5h-68c-4.1,0-7.5,3.4-7.5,7.5
		C370.2,620.9,373.5,624.3,377.7,624.3L377.7,624.3z M377.7,624.3"/>
	<path d="M445.7,658.7h-20.3c-4.1,0-7.5,3.4-7.5,7.5c0,4.1,3.4,7.5,7.5,7.5h20.3c4.1,0,7.5-3.4,7.5-7.5
		C453.2,662,449.8,658.7,445.7,658.7L445.7,658.7z M445.7,658.7"/>
	<path d="M399.7,658.7h-68c-4.1,0-7.5,3.4-7.5,7.5c0,4.1,3.4,7.5,7.5,7.5h68c4.1,0,7.5-3.4,7.5-7.5
		C407.2,662,403.8,658.7,399.7,658.7L399.7,658.7z M399.7,658.7"/>
	<path d="M365.5,649.7h29.2c4.1,0,7.5-3.4,7.5-7.5c0-4.1-3.4-7.5-7.5-7.5h-29.2c-4.1,0-7.5,3.4-7.5,7.5
		C358,646.3,361.3,649.7,365.5,649.7L365.5,649.7z M365.5,649.7"/>
	<path d="M551.2,624.3h20.3c4.1,0,7.5-3.4,7.5-7.5c0-4.1-3.4-7.5-7.5-7.5h-20.3c-4.1,0-7.5,3.4-7.5,7.5
		C543.7,620.9,547.1,624.3,551.2,624.3L551.2,624.3z M551.2,624.3"/>
	<path d="M551.2,649.7h10.5c4.1,0,7.5-3.4,7.5-7.5c0-4.1-3.4-7.5-7.5-7.5h-10.5c-4.1,0-7.5,3.4-7.5,7.5
		C543.7,646.3,547.1,649.7,551.2,649.7L551.2,649.7z M551.2,649.7"/>
	<path d="M667.2,634.7h-28c-4.1,0-7.5,3.4-7.5,7.5c0,4.1,3.4,7.5,7.5,7.5h28c4.1,0,7.5-3.4,7.5-7.5
		C674.7,638,671.4,634.7,667.2,634.7L667.2,634.7z M667.2,634.7"/>
	<path d="M597.2,624.3h68c4.1,0,7.5-3.4,7.5-7.5c0-4.1-3.4-7.5-7.5-7.5h-68c-4.1,0-7.5,3.4-7.5,7.5
		C589.7,620.9,593.1,624.3,597.2,624.3L597.2,624.3z M597.2,624.3"/>
	<path d="M665.2,658.7h-20.3c-4.1,0-7.5,3.4-7.5,7.5c0,4.1,3.4,7.5,7.5,7.5h20.3c4.1,0,7.5-3.4,7.5-7.5
		C672.7,662,669.4,658.7,665.2,658.7L665.2,658.7z M665.2,658.7"/>
	<path d="M619.2,658.7h-68c-4.1,0-7.5,3.4-7.5,7.5c0,4.1,3.4,7.5,7.5,7.5h68c4.1,0,7.5-3.4,7.5-7.5
		C626.7,662,623.4,658.7,619.2,658.7L619.2,658.7z M619.2,658.7"/>
	<path d="M585,649.7h29.2c4.1,0,7.5-3.4,7.5-7.5c0-4.1-3.4-7.5-7.5-7.5H585c-4.1,0-7.5,3.4-7.5,7.5
		C577.5,646.3,580.9,649.7,585,649.7L585,649.7z M585,649.7"/>
	<path d="M653.3,430.8c0-15.8-12.8-28.6-28.6-28.6c-15.8,0-28.6,12.8-28.6,28.6c0,15.8,12.8,28.6,28.6,28.6
		C640.5,459.4,653.3,446.5,653.3,430.8L653.3,430.8z M611.2,430.8c0-7.5,6.1-13.6,13.6-13.6c7.5,0,13.6,6.1,13.6,13.6
		c0,7.5-6.1,13.6-13.6,13.6C617.3,444.3,611.2,438.3,611.2,430.8L611.2,430.8z M611.2,430.8"/>
</g>
</svg>
