<?xml version="1.0" encoding="utf-8"?>
<!-- Generator: Adobe Illustrator 22.0.1, SVG Export Plug-In . SVG Version: 6.00 Build 0)  -->
<svg version="1.1" id="bg" xmlns="http://www.w3.org/2000/svg" xmlns:xlink="http://www.w3.org/1999/xlink" x="0px" y="0px"
	 viewBox="0 0 100 100" style="enable-background:new 0 0 100 100;" xml:space="preserve">
<style type="text/css">
	.st0{fill:#FFFFFF;}
	.st1{fill:none;stroke:#FFFFFF;stroke-width:2.5;stroke-miterlimit:10;}
</style>
<g>
	<path class="st0" d="M13.9,9.4c-2.2,0-3.9,1.8-3.9,3.9c0,2.2,1.8,3.9,3.9,3.9c2.2,0,3.9-1.8,3.9-3.9C17.8,11.1,16.1,9.4,13.9,9.4
		L13.9,9.4z M13.9,14.6c-0.7,0-1.3-0.6-1.3-1.3c0-0.7,0.6-1.3,1.3-1.3c0.7,0,1.3,0.6,1.3,1.3C15.1,14,14.6,14.6,13.9,14.6L13.9,14.6
		z M13.9,14.6"/>
	<path class="st0" d="M23.9,9.4c-2.2,0-3.9,1.8-3.9,3.9c0,2.2,1.8,3.9,3.9,3.9c2.2,0,3.9-1.8,3.9-3.9C27.9,11.1,26.1,9.4,23.9,9.4
		L23.9,9.4z M23.9,14.6c-0.7,0-1.3-0.6-1.3-1.3c0-0.7,0.6-1.3,1.3-1.3c0.7,0,1.3,0.6,1.3,1.3C25.2,14,24.6,14.6,23.9,14.6L23.9,14.6
		z M23.9,14.6"/>
	<path class="st0" d="M34,9.4c-2.2,0-3.9,1.8-3.9,3.9c0,2.2,1.8,3.9,3.9,3.9c2.2,0,3.9-1.8,3.9-3.9C37.9,11.1,36.1,9.4,34,9.4
		L34,9.4z M34,14.6c-0.7,0-1.3-0.6-1.3-1.3c0-0.7,0.6-1.3,1.3-1.3c0.7,0,1.3,0.6,1.3,1.3C35.2,14,34.6,14.6,34,14.6L34,14.6z
		 M34,14.6"/>
	<path class="st0" d="M89.8,4.2H10c-3.3,0-5.9,2.7-5.9,5.9V90c0,3.3,2.7,5.9,5.9,5.9h79.8c3.3,0,5.9-2.7,5.9-5.9V69.6
		c0-0.7-0.6-1.3-1.3-1.3c-0.7,0-1.3,0.6-1.3,1.3V90c0,1.8-1.4,3.2-3.2,3.2H10c-1.8,0-3.2-1.4-3.2-3.2V22.5H93v38.8
		c0,0.7,0.6,1.3,1.3,1.3c0.7,0,1.3-0.6,1.3-1.3V10.1C95.7,6.9,93.1,4.2,89.8,4.2L89.8,4.2z M93,19.8H6.8v-9.7c0-1.8,1.4-3.2,3.2-3.2
		h79.8c1.8,0,3.2,1.4,3.2,3.2V19.8z M93,19.8"/>
	<path class="st0" d="M86.7,32c0-2.3-1.9-4.2-4.2-4.2H17.2c-2.3,0-4.2,1.9-4.2,4.2v7.9c0,0.7,0.6,1.3,1.3,1.3c0.7,0,1.3-0.6,1.3-1.3
		V32c0-0.9,0.7-1.6,1.6-1.6h65.3c0.9,0,1.6,0.7,1.6,1.6v24.6c0,0.9-0.7,1.6-1.6,1.6h-4.2L64.5,42.6c-0.4-0.5-1-0.7-1.6-0.7
		c-0.6,0-1.2,0.2-1.6,0.6L54,49.8l-9.8-11.1c-0.4-0.5-1-0.7-1.6-0.7c-0.6,0-1.2,0.2-1.6,0.6L21.4,58.1h-4.3c-0.9,0-1.6-0.7-1.6-1.6
		v-8.2c0-0.7-0.6-1.3-1.3-1.3c-0.7,0-1.3,0.6-1.3,1.3v8.2c0,2.3,1.9,4.2,4.2,4.2h65.3c2.3,0,4.2-1.9,4.2-4.2V32z M25.2,58.1
		l17.2-17.2l13.1,14.7c0.5,0.6,1.3,0.6,1.9,0.1c0.6-0.5,0.6-1.3,0.1-1.9l-1.8-2l7-7l11.8,13.3H25.2z M25.2,58.1"/>
	<path class="st0" d="M17.2,64.5c-2.3,0-4.2,1.9-4.2,4.2V82c0,2.3,1.9,4.2,4.2,4.2h26c2.3,0,4.2-1.9,4.2-4.2V68.8
		c0-2.3-1.9-4.2-4.2-4.2H17.2z M44.7,68.8V82c0,0.9-0.7,1.6-1.6,1.6h-26c-0.9,0-1.6-0.7-1.6-1.6V68.8c0-0.9,0.7-1.6,1.6-1.6h26
		C44,67.2,44.7,67.9,44.7,68.8L44.7,68.8z M44.7,68.8"/>
	<path class="st0" d="M56.5,64.5c-2.3,0-4.2,1.9-4.2,4.2V82c0,2.3,1.9,4.2,4.2,4.2h26c2.3,0,4.2-1.9,4.2-4.2V68.8
		c0-2.3-1.9-4.2-4.2-4.2H56.5z M84,68.8V82c0,0.9-0.7,1.6-1.6,1.6h-26c-0.9,0-1.6-0.7-1.6-1.6V68.8c0-0.9,0.7-1.6,1.6-1.6h26
		C83.3,67.2,84,67.9,84,68.8L84,68.8z M84,68.8"/>
	<path class="st0" d="M19.8,72.3h3.6c0.7,0,1.3-0.6,1.3-1.3c0-0.7-0.6-1.3-1.3-1.3h-3.6c-0.7,0-1.3,0.6-1.3,1.3
		C18.4,71.7,19,72.3,19.8,72.3L19.8,72.3z M19.8,72.3"/>
	<path class="st0" d="M19.8,76.8h1.9c0.7,0,1.3-0.6,1.3-1.3c0-0.7-0.6-1.3-1.3-1.3h-1.9c-0.7,0-1.3,0.6-1.3,1.3
		C18.4,76.2,19,76.8,19.8,76.8L19.8,76.8z M19.8,76.8"/>
	<path class="st0" d="M40.5,74.2h-5c-0.7,0-1.3,0.6-1.3,1.3c0,0.7,0.6,1.3,1.3,1.3h5c0.7,0,1.3-0.6,1.3-1.3
		C41.9,74.8,41.3,74.2,40.5,74.2L40.5,74.2z M40.5,74.2"/>
	<path class="st0" d="M28,72.3h12.2c0.7,0,1.3-0.6,1.3-1.3c0-0.7-0.6-1.3-1.3-1.3H28c-0.7,0-1.3,0.6-1.3,1.3
		C26.7,71.7,27.3,72.3,28,72.3L28,72.3z M28,72.3"/>
	<path class="st0" d="M40.2,78.4h-3.6c-0.7,0-1.3,0.6-1.3,1.3c0,0.7,0.6,1.3,1.3,1.3h3.6c0.7,0,1.3-0.6,1.3-1.3
		C41.5,79,40.9,78.4,40.2,78.4L40.2,78.4z M40.2,78.4"/>
	<path class="st0" d="M32,78.4H19.8c-0.7,0-1.3,0.6-1.3,1.3c0,0.7,0.6,1.3,1.3,1.3H32c0.7,0,1.3-0.6,1.3-1.3
		C33.3,79,32.7,78.4,32,78.4L32,78.4z M32,78.4"/>
	<path class="st0" d="M25.8,76.8h5.2c0.7,0,1.3-0.6,1.3-1.3c0-0.7-0.6-1.3-1.3-1.3h-5.2c-0.7,0-1.3,0.6-1.3,1.3
		C24.5,76.2,25.1,76.8,25.8,76.8L25.8,76.8z M25.8,76.8"/>
	<path class="st0" d="M59.1,72.3h3.6c0.7,0,1.3-0.6,1.3-1.3c0-0.7-0.6-1.3-1.3-1.3h-3.6c-0.7,0-1.3,0.6-1.3,1.3
		C57.7,71.7,58.3,72.3,59.1,72.3L59.1,72.3z M59.1,72.3"/>
	<path class="st0" d="M59.1,76.8H61c0.7,0,1.3-0.6,1.3-1.3c0-0.7-0.6-1.3-1.3-1.3h-1.9c-0.7,0-1.3,0.6-1.3,1.3
		C57.7,76.2,58.3,76.8,59.1,76.8L59.1,76.8z M59.1,76.8"/>
	<path class="st0" d="M79.8,74.2h-5c-0.7,0-1.3,0.6-1.3,1.3c0,0.7,0.6,1.3,1.3,1.3h5c0.7,0,1.3-0.6,1.3-1.3
		C81.2,74.8,80.6,74.2,79.8,74.2L79.8,74.2z M79.8,74.2"/>
	<path class="st0" d="M67.3,72.3h12.2c0.7,0,1.3-0.6,1.3-1.3c0-0.7-0.6-1.3-1.3-1.3H67.3c-0.7,0-1.3,0.6-1.3,1.3
		C66,71.7,66.6,72.3,67.3,72.3L67.3,72.3z M67.3,72.3"/>
	<path class="st0" d="M79.5,78.4h-3.6c-0.7,0-1.3,0.6-1.3,1.3c0,0.7,0.6,1.3,1.3,1.3h3.6c0.7,0,1.3-0.6,1.3-1.3
		C80.8,79,80.2,78.4,79.5,78.4L79.5,78.4z M79.5,78.4"/>
	<path class="st0" d="M71.2,78.4H59.1c-0.7,0-1.3,0.6-1.3,1.3c0,0.7,0.6,1.3,1.3,1.3h12.2c0.7,0,1.3-0.6,1.3-1.3
		C72.6,79,72,78.4,71.2,78.4L71.2,78.4z M71.2,78.4"/>
	<path class="st0" d="M65.1,76.8h5.2c0.7,0,1.3-0.6,1.3-1.3c0-0.7-0.6-1.3-1.3-1.3h-5.2c-0.7,0-1.3,0.6-1.3,1.3
		C63.8,76.2,64.4,76.8,65.1,76.8L65.1,76.8z M65.1,76.8"/>
	<path class="st0" d="M77.4,37.7c0-2.8-2.3-5.1-5.1-5.1c-2.8,0-5.1,2.3-5.1,5.1c0,2.8,2.3,5.1,5.1,5.1
		C75.1,42.8,77.4,40.5,77.4,37.7L77.4,37.7z M69.8,37.7c0-1.3,1.1-2.4,2.4-2.4c1.3,0,2.4,1.1,2.4,2.4c0,1.3-1.1,2.4-2.4,2.4
		C70.9,40.1,69.8,39,69.8,37.7L69.8,37.7z M69.8,37.7"/>
</g>
</svg>
